<svg viewBox="0 0 460 280" xmlns="http://www.w3.org/2000/svg"><style>.st7{fill:#c4c2ba}.st12{fill:#d6b85c}.st13{fill:#c49f31}.st15{fill:#55a4db}.st16{fill:#4e94c5}.st17{fill:#aacaec}.st19{fill:#466cb9}.st20{fill:#35528d}.st22{fill:#283022}.st23{fill:#3c3621}.st27{fill:#f5c09d}.st28{fill:#65ab96}.st30{fill:#b02c56}.st31{fill:#842141}.st32{fill:#f1b895}.st33{fill:#324a7d}.st34{fill:#cedcf2}.st35{fill:#4c9d85}.st36{fill:#bcd0f6}.st37{fill:#c7a54c}.st38{fill:#871d40}.st39{fill:#b92758}.st43{fill:#162e31}.st44{fill:#369975}.st45{fill:#4aba95}.st46{fill:#2d4b4f}.st47{fill:#fff}.st48{fill:#5b8992}.st49{fill:#487076}</style><path d="M77.81 0v235.48h70.06V0H77.81zm42.74 159.08h5.98v11.22h-5.98v-11.22zm0-20.45h5.98v11.22h-5.98v-11.22zm0-20.44h5.98v11.23h-5.98v-11.23zm0-20.44h5.98v11.22h-5.98V97.75zm0-20.45h5.98v11.21h-5.98V77.3zm0-20.45h5.98v11.22h-5.98V56.85zm0-21.42h5.98v11.22h-5.98V35.43zm0-20.45h5.98v11.23h-5.98V14.98zm0-14.98h5.98v5.76h-5.98V0zm-11.07 159.08h5.98v11.22h-5.98v-11.22zm0-20.45h5.98v11.22h-5.98v-11.22zm0-20.44h5.98v11.23h-5.98v-11.23zm0-20.44h5.98v11.22h-5.98V97.75zm0-20.45h5.98v11.21h-5.98V77.3zm0-20.45h5.98v11.22h-5.98V56.85zm0-21.42h5.98v11.22h-5.98V35.43zm0-20.45h5.98v11.23h-5.98V14.98zm0-14.98h5.98v5.76h-5.98V0zM98.4 159.08h5.98v11.22H98.4v-11.22zm0-20.45h5.98v11.22H98.4v-11.22zm0-20.44h5.98v11.23H98.4v-11.23zm0-20.44h5.98v11.22H98.4V97.75zm0-20.45h5.98v11.21H98.4V77.3zm0-20.45h5.98v11.22H98.4V56.85zm0-21.42h5.98v11.22H98.4V35.43zm0-20.45h5.98v11.23H98.4V14.98zM98.4 0h5.98v5.76H98.4V0z" opacity=".8" fill="#c4c2ba"/><path d="M147.89 0v235.48h125.04V0H147.89zm92.86 116.53h10.48v16.71h-10.48v-16.71zm0-30.46h10.48v16.72h-10.48V86.07zm0-30.46h10.48v16.72h-10.48V55.61zm0-30.45h10.48v16.72h-10.48V25.16zm-30.12 91.37h10.48v16.71h-10.48v-16.71zm0-30.46h10.48v16.72h-10.48V86.07zm0-30.46h10.48v16.72h-10.48V55.61zm0-30.45h10.48v16.72h-10.48V25.16zm-26.11 60.91H195v16.72h-10.48V86.07zm0-30.46H195v16.72h-10.48V55.61zm0-30.45H195v16.72h-10.48V25.16z" opacity=".61" fill="#c4c2ba"/><path opacity=".5" fill="#c4c2ba" d="M43.56 0h34.6v235.48h-34.6z"/><path d="M0 0v235.48h43.85V0H0z" opacity=".7" fill="#c4c2ba"/><path opacity=".35" fill="#c4c2ba" d="M446.59 0H460v239h-13.41z"/><path opacity=".81" fill="#c4c2ba" d="M367.36 0h78.94v235.48h-78.94z"/><path opacity=".53" fill="#c4c2ba" d="M341.44 0h25.92v235.48h-25.92z"/><path class="st7" d="M390.31 54.87l-5.68-1.28V36.12l5.66 1.42zM404.11 57.96l-5.45-1.22-.05-17.11 5.42 1.36zM417.33 60.93l-5.22-1.18-.1-16.76 5.21 1.3zM430.04 63.77l-5.03-1.12-.14-16.44 5 1.25zM390.35 85.67l-5.72-1.02v-17.7l5.69 1.17zM404.22 88.14l-5.47-.98-.05-17.33 5.46 1.11zM417.54 90.5l-5.26-.93-.1-16.99 5.24 1.08zM430.31 92.76l-5.05-.89-.13-16.64 5.02 1.02zM390.39 116.89l-5.76-.76V98.2l5.73.9zM404.36 118.71l-5.52-.73-.06-17.56 5.5.87zM417.75 120.44l-5.29-.68-.1-17.2 5.27.83zM430.6 122.12l-5.08-.66-.14-16.86 5.05.8zM390.42 148.51l-5.79-.47v-18.18l5.77.63zM404.49 149.66l-5.56-.45-.05-17.79 5.54.61zM417.96 150.77l-5.32-.44-.1-17.41 5.3.57zM430.89 151.83l-5.11-.42-.15-17.06 5.08.55zM390.46 180.57l-5.83-.2v-18.43l5.81.36zM404.62 181.04l-5.59-.19-.06-18.03 5.58.34zM418.18 181.48l-5.35-.17-.12-17.65 5.35.33zM431.17 181.92l-5.14-.17-.14-17.29 5.12.32zM390.14 24.08l-5.51-1.33V5.23l5.53 1.41zM403.68 27.33l-5.37-1.29.05-17.3 5.4 1.39zM416.89 30.51l-5.24-1.26.1-17.07 5.28 1.34zM429.8 33.61l-5.13-1.23.15-16.86 5.15 1.32z"/><path opacity=".83" fill="#c4c2ba" d="M272.31 235.48h69.13V0l-69.13.37z"/><path class="st7" d="M321.28 57.99l4.97-1.23V39.88l-4.95 1.37zM309.21 60.99l4.76-1.19.05-16.54-4.75 1.32zM297.62 63.85l4.58-1.13.08-16.21-4.56 1.26zM286.51 66.6l4.39-1.08.12-15.89-4.37 1.21zM321.25 87.77l5-.99v-17.1l-4.98 1.13zM309.1 90.16l4.8-.95.05-16.75-4.79 1.08zM297.44 92.44l4.6-.9.09-16.42-4.58 1.04zM286.26 94.63l4.41-.86.13-16.1-4.4 1zM321.21 117.94l5.04-.72V99.88l-5.01.87zM308.99 119.71l4.82-.7.05-16.98-4.82.84zM297.26 121.38l4.63-.66.09-16.63-4.61.81zM286.02 123l4.44-.64.13-16.3-4.44.78zM321.19 148.52l5.06-.46v-17.57l-5.05.61zM308.87 149.63l4.86-.43.05-17.21-4.84.59zM297.07 150.7l4.67-.42.09-16.84-4.65.55zM285.76 151.72l4.47-.4.13-16.5-4.45.54zM321.15 179.5l5.1-.19V161.5l-5.08.34zM308.76 179.96l4.89-.19.04-17.42-4.87.32zM296.88 180.39l4.69-.17.1-17.06-4.68.31zM285.51 180.81l4.49-.16.13-16.71-4.49.3zM321.44 28.24l4.81-1.29V10.01l-4.83 1.37zM309.57 31.38l4.71-1.25-.04-16.72-4.73 1.34zM298 34.45l4.6-1.22-.09-16.5-4.61 1.3zM286.71 37.44l4.48-1.18-.12-16.3-4.5 1.27z"/><path d="M28.17 2.86h-8.04v14.33h8.04V2.86zm-25.44 0v14.33h8.03V2.86H2.73zm25.44 28.01h-8.04V45.2h8.04V30.87zm-17.41 0H2.73V45.2h8.03V30.87zm17.41 27.99h-8.04v14.33h8.04V58.86zm-17.41 0H2.73v14.33h8.03V58.86zm17.41 28.01h-8.04v14.33h8.04V86.87zm-17.41 0H2.73v14.33h8.03V86.87zm17.41 28.01h-8.04v14.33h8.04v-14.33zm-17.41 0H2.73v14.33h8.03v-14.33zm17.41 28h-8.04v14.33h8.04v-14.33zm-17.41 0H2.73v14.33h8.03v-14.33zm17.41 28h-8.04v14.33h8.04v-14.33zm-17.41 0H2.73v14.33h8.03v-14.33z" opacity=".6" fill="#c4c2ba"/><path fill="#676963" d="M0 233h460v47H0z"/><path fill="#9c9b80" d="M396.75 232.44l21.75-.1-.55-116.96-21.83-16.85z"/><path class="st12" d="M393.47 120.87l31.47-.14 4.2-16.9-32.96-5.3 9.2 10.1z"/><path class="st13" d="M429.77 237.67l-35.75.16-.55-116.96 35.67-17.12z"/><path fill="#e2e0b6" d="M397.765 122.105l27.18-.126.539 115.71-27.18.126z"/><path class="st15" d="M397.925 131.497l10.2-.051.02 3.89-10.2.051z"/><path class="st16" d="M397.922 131.498l10.2-.052.006 1.13-10.2.052z"/><path class="st17" d="M400.735 131.484l1.17-.005.02 3.89-1.17.005zM403.015 131.474l1.17-.005.018 3.89-1.17.005z"/><path class="st15" d="M409.816 131.448l15.06-.073.018 3.89-15.06.073z"/><path class="st16" d="M409.823 131.45l15.07-.077.005 1.13-15.07.077z"/><path class="st17" d="M412.635 131.434l1.17-.005.019 3.89-1.17.005zM414.915 131.424l1.17-.005.02 3.89-1.17.005z"/><path class="st15" d="M397.945 137.526l10.2-.05.02 3.89-10.2.05z"/><path class="st16" d="M397.952 137.528l10.2-.052.006 1.13-10.2.052z"/><path class="st17" d="M400.765 137.514l1.17-.005.018 3.89-1.17.005zM403.045 137.505l1.17-.006.02 3.89-1.17.006z"/><path class="st15" d="M409.845 137.475l15.06-.067.018 3.89-15.06.067z"/><path class="st16" d="M409.853 137.48l15.06-.077.005 1.13-15.06.078z"/><path class="st17" d="M412.66 137.46l.02 3.89 1.17-.01-.02-3.89zM414.945 137.444l1.17-.005.019 3.89-1.17.005z"/><path class="st15" d="M397.895 125.474l10.2-.046.018 3.89-10.2.046z"/><path class="st16" d="M397.892 125.478l10.2-.052.006 1.13-10.2.052z"/><path class="st17" d="M400.705 125.454l1.17-.005.018 3.89-1.17.005zM402.995 125.444l1.17-.005.018 3.89-1.17.005z"/><path class="st15" d="M409.795 125.416l15.06-.07.019 3.89-15.06.07z"/><path class="st16" d="M409.79 125.41l15.06-.058.005 1.13-15.06.058z"/><path class="st17" d="M412.605 125.404l1.17-.005.02 3.89-1.17.005zM414.895 125.394l1.17-.005.019 3.89-1.17.005z"/><path class="st15" d="M397.975 143.555l10.2-.047.018 3.89-10.2.047z"/><path class="st16" d="M397.98 143.55l10.2-.038.005 1.13-10.2.039z"/><path class="st17" d="M400.79 143.54l.01 3.89h1.18l-.02-3.89zM403.075 143.535l1.17-.006.02 3.89-1.17.006z"/><path class="st15" d="M409.875 143.498l15.06-.073.02 3.89-15.06.073z"/><path class="st16" d="M409.872 143.495l15.06-.067.005 1.13-15.06.067z"/><path class="st17" d="M412.685 143.485l1.17-.006.02 3.89-1.17.006zM414.975 143.475l1.17-.006.02 3.89-1.17.006z"/><path class="st15" d="M398.005 149.585l10.2-.047.019 3.89-10.2.047z"/><path class="st16" d="M398.002 149.588l10.2-.052.006 1.13-10.2.052z"/><path class="st17" d="M400.81 149.57l.02 3.89 1.17-.01-.01-3.88zM403.105 149.564l1.17-.005.019 3.89-1.17.005z"/><path class="st15" d="M409.906 149.528l15.06-.073.018 3.89-15.06.073z"/><path class="st16" d="M409.903 149.53l15.06-.077.005 1.13-15.06.078z"/><path class="st17" d="M412.715 149.514l1.17-.005.019 3.89-1.17.005zM415.005 149.505l1.17-.006.02 3.89-1.17.006z"/><path class="st15" d="M398.035 155.617l10.2-.05.02 3.89-10.2.05z"/><path class="st16" d="M398.031 155.614l10.2-.045.006 1.13-10.2.045z"/><path class="st17" d="M400.845 155.604l1.17-.005.018 3.89-1.17.005zM403.135 155.595l1.17-.006.02 3.89-1.17.006z"/><path class="st15" d="M409.936 155.558l15.06-.073.018 3.89-15.06.073z"/><path class="st16" d="M409.933 155.56l15.07-.077.005 1.13-15.07.078z"/><path class="st17" d="M412.745 155.544l1.17-.005.018 3.89-1.17.005zM415.035 155.534l1.17-.005.019 3.89-1.17.005z"/><path class="st15" d="M398.065 161.647l10.2-.05.02 3.89-10.2.05z"/><path class="st16" d="M398.062 161.648l10.2-.052.006 1.13-10.2.052z"/><path class="st17" d="M400.875 161.635l1.17-.006.018 3.89-1.17.006zM403.165 161.625l1.17-.006.02 3.89-1.17.006z"/><path class="st15" d="M409.956 161.587l15.06-.07.018 3.89-15.06.07z"/><path class="st16" d="M409.963 161.59l15.06-.076.005 1.13-15.06.077z"/><path class="st17" d="M412.775 161.575l1.17-.006.02 3.89-1.17.006zM415.065 161.565l1.17-.006.02 3.89-1.17.006z"/><path class="st15" d="M398.085 167.676l10.2-.048.019 3.89-10.2.048z"/><path class="st16" d="M398.092 167.678l10.2-.052.006 1.13-10.2.052z"/><path class="st17" d="M400.905 167.655l1.17-.006.02 3.89-1.17.006zM403.185 167.645l1.17-.006.018 3.89-1.17.006z"/><path class="st15" d="M409.985 167.619l15.06-.074.02 3.89-15.06.074z"/><path class="st16" d="M409.992 167.616l15.06-.068.005 1.13-15.06.068z"/><path class="st17" d="M412.805 167.604l1.17-.005.018 3.89-1.17.005zM415.085 167.595l1.17-.006.02 3.89-1.17.006z"/><path class="st15" d="M398.115 173.707l10.2-.05.02 3.89-10.2.05z"/><path class="st16" d="M398.121 173.705l10.2-.046.006 1.13-10.2.046z"/><path class="st17" d="M400.93 173.69l.02 3.89 1.17-.01-.02-3.89zM403.215 173.675l1.17-.006.02 3.89-1.17.006z"/><path class="st15" d="M410.015 173.649l15.06-.073.02 3.89-15.06.073z"/><path class="st16" d="M410.013 173.65l15.06-.076.005 1.13-15.06.077z"/><path class="st17" d="M412.835 173.635l1.17-.006.02 3.89-1.17.006zM415.115 173.625l1.17-.006.019 3.89-1.17.006z"/><path class="st15" d="M398.145 179.737l10.2-.05.02 3.89-10.2.05z"/><path class="st16" d="M398.142 179.739l10.2-.053.006 1.13-10.2.053z"/><path class="st17" d="M400.955 179.715l1.17-.006.018 3.89-1.17.006zM403.245 179.705l1.17-.006.02 3.89-1.17.006z"/><path class="st15" d="M410.045 179.677l15.06-.07.019 3.89-15.06.07z"/><path class="st16" d="M410.043 179.681l15.06-.077.005 1.13-15.06.077z"/><path class="st17" d="M412.855 179.665l1.17-.006.02 3.89-1.17.006zM415.146 179.654l1.17-.005.017 3.89-1.17.005z"/><path class="st15" d="M398.175 185.756l10.2-.048.018 3.89-10.2.048z"/><path class="st16" d="M398.172 185.759l10.2-.053.006 1.13-10.2.053z"/><path class="st17" d="M400.985 185.745l1.17-.006.02 3.89-1.17.006zM403.275 185.735l1.17-.006.018 3.89-1.17.006z"/><path class="st15" d="M410.075 185.709l15.06-.073.02 3.89-15.06.073z"/><path class="st16" d="M410.072 185.706l15.06-.068.005 1.13-15.06.068z"/><path class="st17" d="M412.885 185.695l1.17-.006.019 3.89-1.17.006zM415.175 185.685l1.17-.006.02 3.89-1.17.006z"/><path class="st15" d="M398.205 191.785l10.2-.046.018 3.89-10.2.046z"/><path class="st16" d="M398.202 191.785l10.2-.046.005 1.13-10.2.046z"/><path class="st17" d="M401.015 191.775l1.17-.006.018 3.89-1.17.006zM403.305 191.765l1.17-.006.018 3.89-1.17.006z"/><path class="st15" d="M410.105 191.739l15.06-.073.02 3.89-15.06.073z"/><path class="st16" d="M410.103 191.741l15.06-.077.005 1.13-15.06.077z"/><path class="st17" d="M412.915 191.725l1.17-.006.019 3.89-1.17.006zM415.205 191.715l1.17-.006.02 3.89-1.17.006z"/><path class="st15" d="M398.235 197.816l10.2-.048.018 3.89-10.2.048z"/><path class="st16" d="M398.231 197.815l10.2-.046.006 1.13-10.2.046z"/><path class="st17" d="M401.045 197.805l1.17-.006.018 3.89-1.17.006zM403.335 197.795l1.17-.006.019 3.89-1.17.006z"/><path class="st15" d="M410.125 197.757l15.06-.07.019 3.89-15.06.07z"/><path class="st16" d="M410.13 197.75l15.06-.058.005 1.13-15.06.058z"/><path class="st17" d="M412.945 197.745l1.17-.005.02 3.89-1.17.005zM415.225 197.735l1.17-.005.019 3.89-1.17.005z"/><path class="st15" d="M398.255 203.844l10.2-.044.017 3.89-10.2.044z"/><path class="st16" d="M398.262 203.849l10.2-.052.006 1.13-10.2.052z"/><path class="st17" d="M401.07 203.83l.02 3.89 1.17-.01-.02-3.88zM403.355 203.824l1.17-.005.017 3.89-1.17.005z"/><path class="st15" d="M410.155 203.786l15.06-.068.018 3.89-15.06.068z"/><path class="st16" d="M410.162 203.786l15.06-.068.005 1.13-15.06.068z"/><path class="st17" d="M412.975 203.775l1.17-.006.019 3.89-1.17.006zM415.255 203.765l1.17-.005.02 3.89-1.17.005z"/><path class="st15" d="M398.285 209.876l10.2-.048.018 3.89-10.2.048z"/><path class="st16" d="M398.292 209.879l10.2-.052.006 1.13-10.2.052z"/><path class="st17" d="M401.105 209.865l1.17-.005.019 3.89-1.17.005zM403.385 209.855l1.17-.005.018 3.89-1.17.005z"/><path class="st15" d="M410.185 209.818l15.06-.07.019 3.89-15.06.07z"/><path class="st16" d="M410.183 209.821l15.06-.077.005 1.13-15.06.077z"/><path class="st17" d="M412.995 209.805l1.17-.005.019 3.89-1.17.005zM415.285 209.795l1.17-.005.019 3.89-1.17.005z"/><path class="st15" d="M398.315 215.906l10.2-.047.019 3.89-10.2.047z"/><path class="st16" d="M398.31 215.901l10.2-.039.005 1.13-10.2.04z"/><path class="st17" d="M401.125 215.895l1.17-.005.019 3.89-1.17.005zM403.415 215.885l1.17-.005.019 3.89-1.17.005z"/><path class="st15" d="M410.216 215.848l15.06-.07.018 3.89-15.06.07z"/><path class="st16" d="M410.213 215.851l15.06-.077.005 1.13-15.06.077z"/><path class="st17" d="M413.025 215.835l1.17-.005.019 3.89-1.17.005zM415.315 215.825l1.17-.005.019 3.89-1.17.005z"/><path class="st15" d="M398.345 221.936l10.2-.047.019 3.89-10.2.047z"/><path class="st16" d="M398.342 221.94l10.2-.053.006 1.13-10.2.052z"/><path class="st17" d="M401.155 221.925l1.17-.005.018 3.89-1.17.005zM403.445 221.915l1.17-.005.019 3.89-1.17.005z"/><path class="st15" d="M410.246 221.878l15.06-.07.018 3.89-15.06.07z"/><path class="st16" d="M410.243 221.882l15.06-.078.005 1.13-15.06.078z"/><path class="st17" d="M413.055 221.865l1.17-.005.019 3.89-1.17.005zM415.345 221.855l1.17-.005.018 3.89-1.17.005z"/><path fill="#2d4576" d="M309.16 67.95h41.56v7.72h-41.56z"/><path class="st19" d="M299.59 237.83h56.74V72.58h-20.31l-36.43-13.5z"/><path class="st20" d="M336.02 72.58h20.31v165.25h-20.31z"/><path class="st15" d="M336.02 82.09h20.31v5.94h-20.31z"/><path class="st16" d="M336.02 82.09h20.31v1.73h-20.31z"/><path class="st17" d="M348.39 82.09h2.33v5.94h-2.33zM343.84 82.09h2.33v5.94h-2.33z"/><path class="st15" d="M302.63 82.09h30v5.94h-30z"/><path class="st16" d="M302.63 82.09h30v1.73h-30z"/><path class="st17" d="M324.69 82.09h2.34v5.94h-2.34zM320.14 82.09h2.33v5.94h-2.33z"/><path class="st15" d="M336.02 91.31h20.31v5.94h-20.31z"/><path class="st16" d="M336.02 91.31h20.31v1.73h-20.31z"/><path class="st17" d="M348.39 91.31h2.33v5.94h-2.33zM343.84 91.31h2.33v5.94h-2.33z"/><path class="st15" d="M302.63 91.31h30v5.94h-30z"/><path class="st16" d="M302.63 91.31h30v1.73h-30z"/><path class="st17" d="M324.69 91.31h2.34v5.94h-2.34zM320.14 91.31h2.33v5.94h-2.33z"/><path class="st15" d="M336.02 100.52h20.31v5.94h-20.31z"/><path class="st16" d="M336.02 100.52h20.31v1.73h-20.31z"/><path class="st17" d="M348.39 100.52h2.33v5.94h-2.33zM343.84 100.52h2.33v5.94h-2.33z"/><path class="st15" d="M302.63 100.52h30v5.94h-30z"/><path class="st16" d="M302.63 100.52h30v1.73h-30z"/><path class="st17" d="M324.69 100.52h2.34v5.94h-2.34zM320.14 100.52h2.33v5.94h-2.33z"/><path class="st15" d="M336.02 109.74h20.31v5.94h-20.31z"/><path class="st16" d="M336.02 109.74h20.31v1.73h-20.31z"/><path class="st17" d="M348.39 109.74h2.33v5.94h-2.33zM343.84 109.74h2.33v5.94h-2.33z"/><path class="st15" d="M302.63 109.74h30v5.94h-30z"/><path class="st16" d="M302.63 109.74h30v1.73h-30z"/><path class="st17" d="M324.69 109.74h2.34v5.94h-2.34zM320.14 109.74h2.33v5.94h-2.33z"/><path class="st15" d="M336.02 118.95h20.31v5.94h-20.31z"/><path class="st16" d="M336.02 118.95h20.31v1.73h-20.31z"/><path class="st17" d="M348.39 118.95h2.33v5.94h-2.33zM343.84 118.95h2.33v5.94h-2.33z"/><path class="st15" d="M302.63 118.95h30v5.94h-30z"/><path class="st16" d="M302.63 118.95h30v1.73h-30z"/><path class="st17" d="M324.69 118.95h2.34v5.94h-2.34zM320.14 118.95h2.33v5.94h-2.33z"/><path class="st15" d="M336.02 128.16h20.31v5.95h-20.31z"/><path class="st16" d="M336.02 128.16h20.31v1.73h-20.31z"/><path class="st17" d="M348.39 128.16h2.33v5.95h-2.33zM343.84 128.16h2.33v5.95h-2.33z"/><path class="st15" d="M302.63 128.16h30v5.95h-30z"/><path class="st16" d="M302.63 128.16h30v1.73h-30z"/><path class="st17" d="M324.69 128.16h2.34v5.95h-2.34zM320.14 128.16h2.33v5.95h-2.33z"/><path class="st15" d="M336.02 137.38h20.31v5.94h-20.31z"/><path class="st16" d="M336.02 137.38h20.31v1.73h-20.31z"/><path class="st17" d="M348.39 137.38h2.33v5.94h-2.33zM343.84 137.38h2.33v5.94h-2.33z"/><path class="st15" d="M302.63 137.38h30v5.94h-30z"/><path class="st16" d="M302.63 137.38h30v1.73h-30z"/><path class="st17" d="M324.69 137.38h2.34v5.94h-2.34zM320.14 137.38h2.33v5.94h-2.33z"/><path class="st15" d="M336.02 146.59h20.31v5.94h-20.31z"/><path class="st16" d="M336.02 146.59h20.31v1.73h-20.31z"/><path class="st17" d="M348.39 146.59h2.33v5.94h-2.33zM343.84 146.59h2.33v5.94h-2.33z"/><path class="st15" d="M302.63 146.59h30v5.94h-30z"/><path class="st16" d="M302.63 146.59h30v1.73h-30z"/><path class="st17" d="M324.69 146.59h2.34v5.94h-2.34zM320.14 146.59h2.33v5.94h-2.33z"/><path class="st15" d="M336.02 155.81h20.31v5.95h-20.31z"/><path class="st16" d="M336.02 155.81h20.31v1.73h-20.31z"/><path class="st17" d="M348.39 155.81h2.33v5.95h-2.33zM343.84 155.81h2.33v5.95h-2.33z"/><path class="st15" d="M302.63 155.81h30v5.95h-30z"/><path class="st16" d="M302.63 155.81h30v1.73h-30z"/><path class="st17" d="M324.69 155.81h2.34v5.95h-2.34zM320.14 155.81h2.33v5.95h-2.33z"/><path class="st15" d="M336.02 165.02h20.31v5.94h-20.31z"/><path class="st16" d="M336.02 165.02h20.31v1.73h-20.31z"/><path class="st17" d="M348.39 165.02h2.33v5.94h-2.33zM343.84 165.02h2.33v5.94h-2.33z"/><path class="st15" d="M302.63 165.02h30v5.94h-30z"/><path class="st16" d="M302.63 165.02h30v1.73h-30z"/><path class="st17" d="M324.69 165.02h2.34v5.94h-2.34zM320.14 165.02h2.33v5.94h-2.33z"/><path class="st15" d="M336.02 174.24h20.31v5.94h-20.31z"/><path class="st16" d="M336.02 174.24h20.31v1.73h-20.31z"/><path class="st17" d="M348.39 174.24h2.33v5.94h-2.33zM343.84 174.24h2.33v5.94h-2.33z"/><path class="st15" d="M302.63 174.24h30v5.94h-30z"/><path class="st16" d="M302.63 174.24h30v1.73h-30z"/><path class="st17" d="M324.69 174.24h2.34v5.94h-2.34zM320.14 174.24h2.33v5.94h-2.33z"/><path class="st15" d="M336.02 183.45h20.31v5.95h-20.31z"/><path class="st16" d="M336.02 183.45h20.31v1.73h-20.31z"/><path class="st17" d="M348.39 183.45h2.33v5.95h-2.33zM343.84 183.45h2.33v5.95h-2.33z"/><path class="st15" d="M302.63 183.45h30v5.95h-30z"/><path class="st16" d="M302.63 183.45h30v1.73h-30z"/><path class="st17" d="M324.69 183.45h2.34v5.95h-2.34zM320.14 183.45h2.33v5.95h-2.33z"/><path class="st15" d="M336.02 192.67h20.31v5.94h-20.31z"/><path class="st16" d="M336.02 192.67h20.31v1.73h-20.31z"/><path class="st17" d="M348.39 192.67h2.33v5.94h-2.33zM343.84 192.67h2.33v5.94h-2.33z"/><path class="st15" d="M302.63 192.67h30v5.94h-30z"/><path class="st16" d="M302.63 192.67h30v1.73h-30z"/><path class="st17" d="M324.69 192.67h2.34v5.94h-2.34zM320.14 192.67h2.33v5.94h-2.33z"/><path class="st15" d="M336.02 201.88h20.31v5.95h-20.31z"/><path class="st16" d="M336.02 201.88h20.31v1.73h-20.31z"/><path class="st17" d="M348.39 201.88h2.33v5.95h-2.33zM343.84 201.88h2.33v5.95h-2.33z"/><path class="st15" d="M302.63 201.88h30v5.95h-30z"/><path class="st16" d="M302.63 201.88h30v1.73h-30z"/><path class="st17" d="M324.69 201.88h2.34v5.95h-2.34zM320.14 201.88h2.33v5.95h-2.33z"/><path class="st15" d="M336.02 211.1h20.31v5.94h-20.31z"/><path class="st16" d="M336.02 211.1h20.31v1.73h-20.31z"/><path class="st17" d="M348.39 211.1h2.33v5.94h-2.33zM343.84 211.1h2.33v5.94h-2.33z"/><path class="st15" d="M302.63 211.1h30v5.94h-30z"/><path class="st16" d="M302.63 211.1h30v1.73h-30z"/><path class="st17" d="M324.69 211.1h2.34v5.94h-2.34zM320.14 211.1h2.33v5.94h-2.33z"/><path class="st15" d="M336.02 220.31h20.31v5.95h-20.31z"/><path class="st16" d="M336.02 220.31h20.31v1.73h-20.31z"/><path class="st17" d="M348.39 220.31h2.33v5.95h-2.33zM343.84 220.31h2.33v5.95h-2.33z"/><path class="st15" d="M302.63 220.31h30v5.95h-30z"/><path class="st16" d="M302.63 220.31h30v1.73h-30z"/><path class="st17" d="M324.69 220.31h2.34v5.95h-2.34zM320.14 220.31h2.33v5.95h-2.33z"/><path fill="#45433b" d="M0 233h460v13H0z"/><path class="st13" d="M196.01 55.42h22.22v-2.69l-22.22-7.35z"/><path class="st12" d="M180.95 66.58h52.34v171.26h-52.34z"/><path class="st13" d="M186.77 61.65h40.71v4.92h-40.71z"/><path class="st12" d="M225.13 61.65h-36.02V57.3l36.02-11.92z"/><path class="st19" d="M185.2 88.63h8.28v5.69h-8.28z"/><path class="st17" d="M186.41 93.49v-4.03h5.86z"/><path class="st19" d="M185.2 97.45h8.28v5.69h-8.28z"/><path class="st17" d="M186.41 102.32v-4.03h5.86z"/><path class="st19" d="M185.2 79.8h8.28v5.69h-8.28z"/><path class="st17" d="M186.41 84.66v-4.03h5.86z"/><path class="st19" d="M185.2 70.97h8.28v5.69h-8.28z"/><path class="st17" d="M186.41 75.84V71.8h5.86z"/><path class="st19" d="M185.2 106.28h8.28v5.69h-8.28z"/><path class="st17" d="M186.41 111.15v-4.04h5.86z"/><path class="st19" d="M185.2 115.11h8.28v5.69h-8.28z"/><path class="st17" d="M186.41 119.97v-4.03h5.86z"/><path class="st19" d="M185.2 123.94h8.28v5.69h-8.28z"/><path class="st17" d="M186.41 128.8v-4.03h5.86z"/><path class="st19" d="M185.2 132.77h8.28v5.69h-8.28z"/><path class="st17" d="M186.41 137.63v-4.04h5.86z"/><path class="st19" d="M185.2 141.59h8.28v5.69h-8.28z"/><path class="st17" d="M186.41 146.46v-4.04h5.86z"/><path class="st19" d="M185.2 150.42h8.28v5.7h-8.28z"/><path class="st17" d="M186.41 155.28v-4.03h5.86z"/><path class="st19" d="M185.2 159.25h8.28v5.7h-8.28z"/><path class="st17" d="M186.41 164.11v-4.03h5.86z"/><path class="st19" d="M185.2 168.08h8.28v5.69h-8.28z"/><path class="st17" d="M186.41 172.94v-4.03h5.86z"/><path class="st19" d="M185.2 176.9h8.28v5.7h-8.28z"/><path class="st17" d="M186.41 181.77v-4.04h5.86z"/><path class="st19" d="M185.2 185.73h8.28v5.69h-8.28z"/><path class="st17" d="M186.41 190.6v-4.04h5.86z"/><path class="st19" d="M185.2 194.56h8.28v5.7h-8.28z"/><path class="st17" d="M186.41 199.42v-4.03h5.86z"/><path class="st19" d="M185.2 203.39h8.28v5.7h-8.28z"/><path class="st17" d="M186.41 208.25v-4.03h5.86z"/><path class="st19" d="M185.2 212.21h8.28v5.7h-8.28z"/><path class="st17" d="M186.41 217.08v-4.03h5.86z"/><path class="st19" d="M185.2 221.04h8.28v5.7h-8.28z"/><path class="st17" d="M186.41 225.91v-4.04h5.86z"/><path class="st19" d="M220.77 88.63h8.28v5.69h-8.28z"/><path class="st17" d="M221.97 93.49v-4.03h5.87z"/><path class="st19" d="M220.77 97.45h8.28v5.69h-8.28z"/><path class="st17" d="M221.97 102.32v-4.03h5.87z"/><path class="st19" d="M220.77 79.8h8.28v5.69h-8.28z"/><path class="st17" d="M221.97 84.66v-4.03h5.87z"/><path class="st19" d="M220.77 70.97h8.28v5.69h-8.28z"/><path class="st17" d="M221.97 75.84V71.8h5.87z"/><path class="st19" d="M220.77 106.28h8.28v5.69h-8.28z"/><path class="st17" d="M221.97 111.15v-4.04h5.87z"/><path class="st19" d="M220.77 115.11h8.28v5.69h-8.28z"/><path class="st17" d="M221.97 119.97v-4.03h5.87z"/><path class="st19" d="M220.77 123.94h8.28v5.69h-8.28z"/><path class="st17" d="M221.97 128.8v-4.03h5.87z"/><path class="st19" d="M220.77 132.77h8.28v5.69h-8.28z"/><path class="st17" d="M221.97 137.63v-4.04h5.87z"/><path class="st19" d="M220.77 141.59h8.28v5.69h-8.28z"/><path class="st17" d="M221.97 146.46v-4.04h5.87z"/><path class="st19" d="M220.77 150.42h8.28v5.7h-8.28z"/><path class="st17" d="M221.97 155.28v-4.03h5.87z"/><path class="st19" d="M220.77 159.25h8.28v5.7h-8.28z"/><path class="st17" d="M221.97 164.11v-4.03h5.87z"/><path class="st19" d="M220.77 168.08h8.28v5.69h-8.28z"/><path class="st17" d="M221.97 172.94v-4.03h5.87z"/><path class="st19" d="M220.77 176.9h8.28v5.7h-8.28z"/><path class="st17" d="M221.97 181.77v-4.04h5.87z"/><path class="st19" d="M220.77 185.73h8.28v5.69h-8.28z"/><path class="st17" d="M221.97 190.6v-4.04h5.87z"/><path class="st19" d="M220.77 194.56h8.28v5.7h-8.28z"/><path class="st17" d="M221.97 199.42v-4.03h5.87z"/><path class="st19" d="M220.77 203.39h8.28v5.7h-8.28z"/><path class="st17" d="M221.97 208.25v-4.03h5.87z"/><path class="st19" d="M220.77 212.21h8.28v5.7h-8.28z"/><path class="st17" d="M221.97 217.08v-4.03h5.87z"/><path class="st19" d="M220.77 221.04h8.28v5.7h-8.28z"/><path class="st17" d="M221.97 225.91v-4.04h5.87z"/><path class="st20" d="M197.55 66.58h19.15v171.26h-19.15z"/><path class="st22" d="M214.91 79.24l-15.57-8.27V68.4l15.57 8.26z"/><path class="st23" d="M214.91 79.24l-15.57-8.27v-1.64l15.57 8.26z"/><path class="st22" d="M213.06 77.72a.26.26 0 01-.11-.34c.07-.12.22-.17.34-.11.12.07.17.22.11.34-.05.09-.14.13-.23.13-.03.01-.07-.01-.11-.02zm-1.73-.92c-.12-.07-.17-.22-.1-.34a.26.26 0 01.34-.11c.13.07.17.22.11.34-.05.09-.14.14-.22.14-.05 0-.09-.01-.13-.03zm-1.73-.92c-.12-.07-.17-.22-.1-.34.06-.12.21-.16.34-.1s.17.21.11.33a.24.24 0 01-.22.13.19.19 0 01-.13-.02zm-1.73-.92c-.12-.07-.17-.22-.1-.34s.21-.17.34-.1c.12.06.17.22.1.34-.05.08-.14.13-.22.13-.04 0-.08-.01-.12-.03zm-1.73-.92a.254.254 0 01-.11-.34c.07-.12.22-.17.34-.1.12.06.17.22.1.34-.04.08-.13.13-.22.13a.26.26 0 01-.11-.03zm-1.73-.92c-.12-.07-.18-.21-.11-.34.07-.12.22-.17.34-.1s.17.21.1.34c-.04.08-.13.14-.22.14-.03 0-.08-.02-.11-.04zm-1.73-.91a.248.248 0 01-.11-.33c.07-.13.22-.18.34-.11s.17.22.11.34c-.05.08-.13.14-.23.14-.03-.01-.08-.02-.11-.04zm-1.73-.92a.248.248 0 01-.1-.34c.06-.13.22-.17.33-.11.13.07.18.22.11.34a.24.24 0 01-.22.13c-.04.01-.08 0-.12-.02z"/><path class="st22" d="M199.34 87.66l15.57-8.26v-2.58l-15.57 8.27z"/><path class="st23" d="M199.34 87.66l15.57-8.26v-1.65l-15.57 8.27z"/><path class="st22" d="M201.07 86.17c-.09 0-.18-.05-.23-.13-.06-.12-.02-.28.11-.34.12-.06.28-.01.34.11s.01.27-.11.34a.36.36 0 01-.11.02zm1.73-.91a.25.25 0 01-.22-.14.243.243 0 01.11-.34.26.26 0 01.34.11c.07.12.02.28-.1.34-.05.02-.09.03-.13.03zm1.73-.93a.26.26 0 01-.22-.13.243.243 0 01.11-.34c.12-.07.27-.02.33.1.07.12.02.27-.1.34-.04.03-.08.03-.12.03zm1.73-.91a.25.25 0 01-.22-.14c-.07-.12-.02-.28.1-.33.13-.07.28-.02.34.1.07.12.02.28-.1.34-.04.02-.08.03-.12.03zm1.73-.92c-.09 0-.18-.05-.22-.13a.245.245 0 01.1-.34c.12-.07.27-.02.34.1.07.13.02.28-.11.34-.03.02-.07.03-.11.03zm1.73-.92a.24.24 0 01-.22-.14c-.07-.13-.02-.27.1-.34s.27-.02.34.1c.07.13.01.28-.11.34a.15.15 0 01-.11.04zm1.73-.92c-.09 0-.18-.05-.23-.13a.26.26 0 01.11-.34c.12-.07.28-.02.34.11.06.12.01.27-.11.34a.36.36 0 01-.11.02zm1.73-.91a.26.26 0 01-.22-.13.243.243 0 01.11-.34c.12-.07.27-.02.33.11.07.12.02.28-.1.34-.04 0-.08.02-.12.02z"/><path class="st22" d="M214.91 95.9l-15.57-8.27v-2.57l15.57 8.27z"/><path class="st23" d="M214.91 95.9l-15.57-8.27v-1.64l15.57 8.27z"/><path class="st22" d="M213.06 94.38a.26.26 0 01-.11-.34c.07-.12.22-.17.34-.11.12.07.17.22.11.34-.05.09-.14.13-.23.13-.03.01-.07 0-.11-.02zm-1.73-.91c-.12-.07-.17-.22-.1-.34a.26.26 0 01.34-.11c.13.07.17.22.11.34-.05.09-.14.14-.22.14-.05-.01-.09-.01-.13-.03zm-1.73-.92c-.12-.07-.17-.22-.1-.34.06-.12.21-.17.34-.1.13.06.17.21.11.34a.24.24 0 01-.22.13c-.05-.01-.09-.01-.13-.03zm-1.73-.92c-.12-.07-.17-.22-.1-.34s.21-.17.34-.1c.12.06.17.22.1.33-.05.09-.14.14-.22.14-.04-.01-.08-.01-.12-.03zm-1.73-.92a.254.254 0 01-.11-.34c.07-.12.22-.17.34-.1.12.06.17.22.1.34-.04.08-.13.13-.22.13-.03-.01-.07-.01-.11-.03zm-1.73-.92c-.12-.07-.18-.21-.11-.34.07-.12.22-.17.34-.1s.17.21.1.34c-.04.08-.13.13-.22.13-.03 0-.08-.01-.11-.03zm-1.73-.92a.257.257 0 01-.11-.34c.07-.13.22-.17.34-.11.12.07.17.22.11.34-.05.08-.13.14-.23.14-.03 0-.08-.01-.11-.03zm-1.73-.92c-.12-.06-.17-.22-.1-.33.06-.13.22-.18.33-.11.13.07.18.22.11.34a.24.24 0 01-.22.13c-.04 0-.08-.01-.12-.03z"/><path class="st22" d="M199.34 104.33l15.57-8.27v-2.57l-15.57 8.26z"/><path class="st23" d="M199.34 104.33l15.57-8.27v-1.64l-15.57 8.26z"/><path class="st22" d="M201.07 102.84c-.09 0-.18-.05-.23-.14a.254.254 0 01.11-.34c.12-.06.28-.01.34.11s.01.28-.11.33a.21.21 0 01-.11.04zm1.73-.92a.25.25 0 01-.22-.14.243.243 0 01.11-.34.26.26 0 01.34.11c.07.12.02.28-.1.34-.05.02-.09.03-.13.03zm1.73-.92a.26.26 0 01-.22-.13.243.243 0 01.11-.34c.12-.07.27-.02.33.1.07.12.02.28-.1.34-.04.02-.08.03-.12.03zm1.73-.92a.25.25 0 01-.22-.14c-.07-.12-.02-.28.1-.33.13-.07.28-.02.34.1.07.12.02.28-.1.34-.04.02-.08.03-.12.03zm1.73-.92c-.09 0-.18-.05-.22-.13a.245.245 0 01.1-.34c.12-.07.27-.02.34.1.07.13.02.28-.11.34-.03.03-.07.03-.11.03zm1.73-.91a.24.24 0 01-.22-.14c-.07-.13-.02-.27.1-.34s.27-.02.34.1c.07.13.01.28-.11.34a.21.21 0 01-.11.04zm1.73-.92c-.09 0-.18-.05-.23-.13a.26.26 0 01.11-.34c.12-.07.28-.02.34.11.06.12.01.27-.11.34a.36.36 0 01-.11.02zm1.73-.92a.25.25 0 01-.22-.14c-.07-.12-.02-.27.11-.34.12-.07.27-.02.33.11.07.12.02.28-.1.33-.04.03-.08.04-.12.04z"/><path class="st22" d="M214.91 112.57l-15.57-8.27v-2.57l15.57 8.26z"/><path class="st23" d="M214.91 112.57l-15.57-8.27v-1.65l15.57 8.27z"/><path class="st22" d="M213.06 111.04c-.12-.06-.17-.22-.11-.33.07-.12.22-.17.34-.11.12.07.17.22.11.34-.05.09-.14.13-.23.13-.03.01-.07-.01-.11-.03zm-1.73-.91c-.12-.07-.17-.22-.1-.34a.26.26 0 01.34-.11c.13.07.17.22.11.34-.05.08-.14.13-.22.13a.19.19 0 01-.13-.02zm-1.73-.92c-.12-.07-.17-.22-.1-.34.06-.12.21-.17.34-.1a.242.242 0 01-.11.46.19.19 0 01-.13-.02zm-1.73-.92a.26.26 0 01-.1-.35c.07-.12.21-.17.34-.1.12.06.17.21.1.33-.05.08-.14.13-.22.13-.04.02-.08.01-.12-.01zm-1.73-.92a.251.251 0 01-.11-.34c.07-.12.22-.17.34-.1.12.06.17.21.1.34-.04.08-.13.13-.22.13a.26.26 0 01-.11-.03zm-1.73-.92c-.12-.07-.18-.22-.11-.34s.22-.17.34-.1.17.21.1.34c-.04.08-.13.13-.22.13-.03.01-.08-.01-.11-.03zm-1.73-.92c-.12-.06-.17-.22-.11-.33.07-.13.22-.17.34-.11.12.07.17.22.11.34-.05.08-.13.14-.23.14-.03 0-.08-.02-.11-.04zm-1.73-.92c-.12-.06-.17-.22-.1-.33.06-.13.22-.18.33-.11.13.07.18.22.11.34a.24.24 0 01-.22.13c-.04.01-.08-.01-.12-.03z"/><path class="st22" d="M199.34 120.99l15.57-8.27v-2.57l-15.57 8.27z"/><path class="st23" d="M199.34 120.99l15.57-8.27v-1.64l-15.57 8.27z"/><path class="st22" d="M201.07 119.5c-.09 0-.18-.05-.23-.13-.06-.12-.02-.28.11-.34.12-.06.28-.01.34.11s.01.28-.11.34a.36.36 0 01-.11.02zm1.73-.92a.25.25 0 01-.22-.14.243.243 0 01.11-.34.26.26 0 01.34.11c.07.12.02.28-.1.34-.05.03-.09.03-.13.03zm1.73-.92a.26.26 0 01-.22-.13.23.23 0 01.11-.33c.12-.07.27-.02.33.1.07.12.02.28-.1.34-.04.02-.08.02-.12.02zm1.73-.92a.25.25 0 01-.22-.14c-.07-.12-.02-.27.1-.34.13-.07.28-.02.34.1.07.12.02.28-.1.34-.04.04-.08.04-.12.04zm1.73-.92c-.09 0-.18-.05-.22-.13a.245.245 0 01.1-.34c.12-.07.27-.02.34.1.07.13.02.28-.11.34-.03.03-.07.03-.11.03zm1.73-.91c-.09 0-.18-.05-.22-.13a.245.245 0 01.1-.34c.12-.07.27-.02.34.1.07.13.01.28-.11.34-.03.02-.07.03-.11.03zm1.73-.92c-.09 0-.18-.06-.23-.14a.26.26 0 01.11-.34c.12-.07.28-.02.34.11.06.12.01.28-.11.33a.15.15 0 01-.11.04zm1.73-.92a.26.26 0 01-.22-.13.243.243 0 01.11-.34c.12-.07.27-.02.33.11.07.12.02.27-.1.33-.04.02-.08.03-.12.03z"/><path class="st22" d="M214.91 129.23l-15.57-8.27v-2.57l15.57 8.27z"/><path class="st23" d="M214.91 129.23l-15.57-8.27v-1.64l15.57 8.26z"/><path class="st22" d="M213.06 127.71a.26.26 0 01-.11-.34c.07-.12.22-.17.34-.11.12.07.17.22.11.34-.05.09-.14.13-.23.13-.03.01-.07 0-.11-.02zm-1.73-.92c-.12-.07-.17-.22-.1-.34a.26.26 0 01.34-.11c.13.07.17.22.11.34-.05.09-.14.14-.22.14-.05 0-.09-.01-.13-.03zm-1.73-.91c-.12-.07-.17-.22-.1-.34.06-.12.21-.17.34-.1.13.06.17.21.11.33a.24.24 0 01-.22.13c-.05 0-.09 0-.13-.02zm-1.73-.93c-.12-.07-.17-.22-.1-.34s.21-.17.34-.1c.12.06.17.22.1.34-.05.09-.14.14-.22.14-.04-.01-.08-.01-.12-.04zm-1.73-.91a.254.254 0 01-.11-.34c.07-.12.22-.17.34-.1.12.06.17.22.1.34-.04.08-.13.13-.22.13-.03-.01-.07-.01-.11-.03zm-1.73-.92c-.12-.07-.18-.21-.11-.34.07-.12.22-.17.34-.1s.17.21.1.34c-.04.08-.13.13-.22.13-.03 0-.08-.01-.11-.03zm-1.73-.92a.248.248 0 01-.11-.33c.07-.13.22-.18.34-.11s.17.22.11.34c-.05.08-.13.14-.23.14-.03-.01-.08-.02-.11-.04zm-1.73-.92a.248.248 0 01-.1-.34c.06-.13.22-.18.33-.11.13.07.18.22.11.34a.24.24 0 01-.22.13c-.04.01-.08 0-.12-.02z"/><path class="st22" d="M199.34 137.66l15.57-8.27v-2.57l-15.57 8.26z"/><path class="st23" d="M199.34 137.66l15.57-8.27v-1.65l-15.57 8.27z"/><path class="st22" d="M201.07 136.17c-.09 0-.18-.05-.23-.13-.06-.12-.02-.28.11-.34.12-.06.28-.01.34.11s.01.28-.11.34c-.03 0-.07.02-.11.02zm1.73-.92a.25.25 0 01-.22-.14c-.07-.12-.02-.27.11-.34.12-.06.28-.02.34.11.07.12.02.28-.1.34-.05.02-.09.03-.13.03zm1.73-.92a.26.26 0 01-.22-.13.243.243 0 01.11-.34c.12-.07.27-.02.33.1.07.12.02.28-.1.34-.04.02-.08.03-.12.03zm1.73-.92a.25.25 0 01-.22-.14c-.07-.12-.02-.27.1-.34.13-.07.28-.02.34.1.07.12.02.28-.1.34-.04.03-.08.04-.12.04zm1.73-.92c-.09 0-.18-.05-.22-.13a.245.245 0 01.1-.34c.12-.07.27-.02.34.1.07.13.02.28-.11.34-.03.02-.07.03-.11.03zm1.73-.91a.24.24 0 01-.22-.14.245.245 0 01.1-.34c.12-.07.27-.02.34.1.07.13.01.28-.11.34a.21.21 0 01-.11.04zm1.73-.92c-.09 0-.18-.05-.23-.14a.26.26 0 01.11-.34c.12-.07.28-.02.34.11.06.12.01.28-.11.33a.21.21 0 01-.11.04zm1.73-.92a.26.26 0 01-.22-.13.243.243 0 01.11-.34c.12-.07.27-.02.33.11.07.12.02.28-.1.34-.04 0-.08.02-.12.02z"/><path class="st22" d="M214.91 145.89l-15.57-8.26v-2.58l15.57 8.27z"/><path class="st23" d="M214.91 145.89l-15.57-8.26v-1.65l15.57 8.27z"/><path class="st22" d="M213.06 144.37a.26.26 0 01-.11-.34c.07-.12.22-.17.34-.11.12.07.17.22.11.34-.05.09-.14.13-.23.13-.03.01-.07 0-.11-.02zm-1.73-.91c-.12-.07-.17-.22-.1-.34a.26.26 0 01.34-.11c.13.07.17.22.11.34-.05.08-.14.13-.22.13a.19.19 0 01-.13-.02zm-1.73-.92c-.12-.07-.17-.22-.1-.34.06-.12.21-.17.34-.1.13.06.17.21.11.34a.25.25 0 01-.22.14.495.495 0 01-.13-.04zm-1.73-.92c-.12-.07-.17-.22-.1-.34s.21-.17.34-.1c.12.06.17.21.1.33-.05.09-.14.13-.22.13-.04.01-.08 0-.12-.02zm-1.73-.92a.251.251 0 01-.11-.34c.07-.12.22-.17.34-.1.12.06.17.22.1.34-.04.08-.13.13-.22.13a.26.26 0 01-.11-.03zm-1.73-.92c-.12-.07-.18-.22-.11-.34s.22-.17.34-.1.17.21.1.34c-.04.08-.13.13-.22.13-.03 0-.08-.01-.11-.03zm-1.73-.92a.257.257 0 01-.11-.34c.07-.13.22-.17.34-.11.12.07.17.22.11.34-.05.08-.13.14-.23.14-.03.01-.08-.01-.11-.03zm-1.73-.92c-.12-.06-.17-.22-.1-.33.06-.13.22-.17.33-.11.13.07.18.22.11.34a.25.25 0 01-.22.14c-.04 0-.08-.02-.12-.04z"/><path class="st22" d="M199.34 154.32l15.57-8.27v-2.57l-15.57 8.27z"/><path class="st23" d="M199.34 154.32l15.57-8.27v-1.64l-15.57 8.26z"/><path class="st22" d="M201.07 152.83c-.09 0-.18-.05-.23-.13-.06-.12-.02-.28.11-.34.12-.06.28-.01.34.11s.01.27-.11.33c-.03.02-.07.03-.11.03zm1.73-.92a.25.25 0 01-.22-.14.243.243 0 01.11-.34.26.26 0 01.34.11c.07.12.02.28-.1.34-.05.02-.09.03-.13.03zm1.73-.92a.26.26 0 01-.22-.13.243.243 0 01.11-.34c.12-.07.27-.02.33.1.07.12.02.27-.1.34-.04.02-.08.03-.12.03zm1.73-.92a.25.25 0 01-.22-.14c-.07-.12-.02-.28.1-.33.13-.07.28-.02.34.1.07.12.02.28-.1.34-.04.03-.08.03-.12.03zm1.73-.92c-.09 0-.18-.05-.22-.13a.245.245 0 01.1-.34c.12-.07.27-.02.34.1.07.13.02.27-.11.34-.03.03-.07.03-.11.03zm1.73-.91c-.09 0-.18-.05-.22-.13a.245.245 0 01.1-.34c.12-.07.27-.02.34.1.07.13.01.28-.11.34-.03.02-.07.03-.11.03zm1.73-.92c-.09 0-.18-.06-.23-.14a.26.26 0 01.11-.34c.12-.07.28-.02.34.11.06.12.01.27-.11.34-.03.02-.07.03-.11.03zm1.73-.92a.26.26 0 01-.22-.13.243.243 0 01.11-.34c.12-.07.27-.02.33.11.07.12.02.28-.1.34-.04.01-.08.02-.12.02z"/><path class="st22" d="M214.91 162.56l-15.57-8.27v-2.57l15.57 8.27z"/><path class="st23" d="M214.91 162.56l-15.57-8.27v-1.64l15.57 8.26z"/><path class="st22" d="M213.06 161.04a.26.26 0 01-.11-.34c.07-.12.22-.17.34-.11.12.07.17.22.11.34-.05.09-.14.13-.23.13-.03.01-.07-.01-.11-.02zm-1.73-.92c-.12-.07-.17-.22-.1-.34a.26.26 0 01.34-.11c.13.07.17.22.11.34-.05.09-.14.14-.22.14-.05 0-.09-.01-.13-.03zm-1.73-.92c-.12-.07-.17-.22-.1-.34.06-.12.21-.17.34-.1.13.06.17.21.11.33a.24.24 0 01-.22.13.19.19 0 01-.13-.02zm-1.73-.92c-.12-.07-.17-.22-.1-.34s.21-.17.34-.1c.12.06.17.22.1.34-.05.09-.14.14-.22.14a.564.564 0 01-.12-.04zm-1.73-.92a.254.254 0 01-.11-.34c.07-.12.22-.17.34-.1.12.06.17.22.1.34-.04.08-.13.13-.22.13-.03 0-.07 0-.11-.03zm-1.73-.92c-.12-.07-.18-.21-.11-.34.07-.12.22-.17.34-.1s.17.21.1.34c-.04.08-.13.13-.22.13-.03.01-.08-.01-.11-.03zm-1.73-.91a.248.248 0 01-.11-.33c.07-.13.22-.17.34-.11.12.07.17.22.11.34-.05.08-.13.14-.23.14-.03-.01-.08-.02-.11-.04zm-1.73-.92c-.12-.06-.17-.22-.1-.33.06-.13.22-.18.33-.11.13.07.18.22.11.34a.24.24 0 01-.22.13c-.04 0-.08-.01-.12-.03z"/><path class="st22" d="M199.34 170.98l15.57-8.26v-2.58l-15.57 8.27z"/><path class="st23" d="M199.34 170.98l15.57-8.26v-1.65l-15.57 8.27z"/><path class="st22" d="M201.07 169.49c-.09 0-.18-.05-.23-.13-.06-.12-.02-.28.11-.34.12-.06.28-.01.34.11s.01.28-.11.33c-.03.02-.07.03-.11.03zm1.73-.91a.25.25 0 01-.22-.14c-.07-.12-.02-.27.11-.34a.26.26 0 01.34.11c.07.12.02.28-.1.34-.05.02-.09.03-.13.03zm1.73-.92a.25.25 0 01-.22-.14.23.23 0 01.11-.33c.12-.07.27-.02.33.1.07.12.02.28-.1.34-.04.02-.08.03-.12.03zm1.73-.92a.25.25 0 01-.22-.14.248.248 0 01.1-.34c.13-.07.28-.02.34.1.07.12.02.28-.1.34-.04.03-.08.04-.12.04zm1.73-.92c-.09 0-.18-.05-.22-.13a.245.245 0 01.1-.34c.12-.07.27-.02.34.1.07.13.02.28-.11.34-.03.02-.07.03-.11.03zm1.73-.92a.24.24 0 01-.22-.14c-.07-.13-.02-.27.1-.34s.27-.02.34.1c.07.13.01.28-.11.34a.15.15 0 01-.11.04zm1.73-.92c-.09 0-.18-.05-.23-.13a.26.26 0 01.11-.34c.12-.07.28-.02.34.11.06.12.01.27-.11.33-.03.02-.07.03-.11.03zm1.73-.91a.25.25 0 01-.22-.14c-.07-.12-.02-.27.11-.34.12-.07.27-.02.33.11.07.12.02.28-.1.34-.04.01-.08.03-.12.03z"/><path class="st22" d="M214.91 179.22l-15.57-8.27v-2.57l15.57 8.27z"/><path class="st23" d="M214.91 179.22l-15.57-8.27v-1.64l15.57 8.27z"/><path class="st22" d="M213.06 177.7a.26.26 0 01-.11-.34c.07-.12.22-.17.34-.11.12.07.17.22.11.34-.05.09-.14.14-.23.14a.26.26 0 01-.11-.03zm-1.73-.91c-.12-.07-.17-.22-.1-.34a.26.26 0 01.34-.11c.13.07.17.22.11.34-.05.09-.14.13-.22.13-.05 0-.09 0-.13-.02zm-1.73-.92c-.12-.07-.17-.22-.1-.34.06-.12.21-.17.34-.1.13.06.17.22.11.33a.25.25 0 01-.22.14c-.05 0-.09-.01-.13-.03zm-1.73-.92c-.12-.07-.17-.22-.1-.34s.21-.17.34-.1c.12.06.17.21.1.34-.05.09-.14.13-.22.13-.04-.01-.08-.01-.12-.03zm-1.73-.92a.251.251 0 01-.11-.34c.07-.12.22-.17.34-.1.12.06.17.22.1.34-.04.08-.13.13-.22.13a.26.26 0 01-.11-.03zm-1.73-.92c-.12-.07-.18-.22-.11-.34s.22-.17.34-.1.17.22.1.34c-.04.08-.13.13-.22.13-.03 0-.08-.01-.11-.03zm-1.73-.92a.248.248 0 01-.11-.33c.07-.13.22-.18.34-.11s.17.22.11.34c-.05.08-.13.14-.23.14-.03-.01-.08-.02-.11-.04zm-1.73-.92a.248.248 0 01-.1-.34c.06-.13.22-.17.33-.11.13.07.18.22.11.34a.24.24 0 01-.22.13c-.04.01-.08 0-.12-.02z"/><path class="st22" d="M199.34 187.65l15.57-8.27v-2.57l-15.57 8.27z"/><path class="st23" d="M199.34 187.65l15.57-8.27v-1.64L199.34 186z"/><path class="st22" d="M201.07 186.16c-.09 0-.18-.05-.23-.14-.06-.12-.02-.28.11-.34.12-.06.28-.01.34.11s.01.28-.11.34c-.03.02-.07.03-.11.03zm1.73-.92a.26.26 0 01-.22-.13.243.243 0 01.11-.34.26.26 0 01.34.11c.07.12.02.28-.1.34-.05.01-.09.02-.13.02zm1.73-.92a.26.26 0 01-.22-.13.23.23 0 01.11-.33c.12-.07.27-.02.33.1.07.12.02.28-.1.34-.04.01-.08.02-.12.02zm1.73-.92a.26.26 0 01-.22-.13.248.248 0 01.1-.34c.13-.07.28-.02.34.1.07.12.02.28-.1.34-.04.03-.08.03-.12.03zm1.73-.92c-.09 0-.18-.05-.22-.13a.245.245 0 01.1-.34c.12-.07.27-.02.34.1.07.13.02.28-.11.34-.03.03-.07.03-.11.03zm1.73-.91c-.09 0-.18-.05-.22-.13a.245.245 0 01.1-.34c.12-.07.27-.02.34.1.07.13.01.27-.11.34-.03.01-.07.03-.11.03zm1.73-.92c-.09 0-.18-.05-.23-.14-.06-.12-.01-.27.11-.34s.28-.02.34.11c.06.12.01.28-.11.33a.15.15 0 01-.11.04zm1.73-.92a.26.26 0 01-.22-.13.243.243 0 01.11-.34c.12-.07.27-.02.33.11.07.12.02.27-.1.34-.04.01-.08.02-.12.02z"/><path class="st22" d="M214.91 195.89l-15.57-8.27v-2.57l15.57 8.26z"/><path class="st23" d="M214.91 195.89l-15.57-8.27v-1.64l15.57 8.26z"/><path class="st22" d="M213.06 194.36a.257.257 0 01-.11-.34c.07-.12.22-.17.34-.11.12.07.17.22.11.34-.05.09-.14.14-.23.14-.03.01-.07-.01-.11-.03zm-1.73-.91c-.12-.07-.17-.22-.1-.34a.26.26 0 01.34-.11c.13.07.17.22.11.34-.05.09-.14.13-.22.13a.19.19 0 01-.13-.02zm-1.73-.92c-.12-.07-.17-.22-.1-.34.06-.12.21-.17.34-.1.13.06.17.21.11.34a.26.26 0 01-.22.13c-.05 0-.09-.01-.13-.03zm-1.73-.92c-.12-.07-.17-.22-.1-.34s.21-.17.34-.1c.12.06.17.21.1.33-.05.09-.14.14-.22.14-.04 0-.08-.01-.12-.03zm-1.73-.91a.254.254 0 01-.11-.34c.07-.12.22-.17.34-.1.12.06.17.21.1.34-.04.08-.13.13-.22.13-.03-.01-.07-.02-.11-.03zm-1.73-.93c-.12-.07-.18-.22-.11-.34s.22-.17.34-.1.17.21.1.34c-.04.08-.13.14-.22.14-.03 0-.08-.01-.11-.04zm-1.73-.91a.26.26 0 01-.11-.34c.07-.13.22-.17.34-.11.12.07.17.22.11.34-.05.08-.13.13-.23.13-.03.01-.08-.01-.11-.02zm-1.73-.92a.245.245 0 01-.1-.34c.06-.13.22-.17.33-.11.13.07.18.22.11.34a.25.25 0 01-.22.14c-.04 0-.08-.01-.12-.03z"/><path class="st22" d="M199.34 204.31l15.57-8.27v-2.57l-15.57 8.27z"/><path class="st23" d="M199.34 204.31l15.57-8.27v-1.64l-15.57 8.27z"/><path class="st22" d="M201.07 202.82c-.09 0-.18-.05-.23-.14-.06-.12-.02-.28.11-.34.12-.06.28-.01.34.11s.01.28-.11.34c-.03.02-.07.03-.11.03zm1.73-.92a.26.26 0 01-.22-.13.243.243 0 01.11-.34.26.26 0 01.34.11c.07.12.02.27-.1.34-.05.02-.09.02-.13.02zm1.73-.91a.25.25 0 01-.22-.14c-.07-.12-.02-.27.11-.34.12-.07.27-.02.33.1.07.12.02.28-.1.34-.04.03-.08.04-.12.04zm1.73-.93a.26.26 0 01-.22-.13c-.07-.12-.02-.28.1-.33.13-.07.28-.02.34.1.07.12.02.28-.1.34-.04.02-.08.02-.12.02zm1.73-.91c-.09 0-.18-.05-.22-.13-.07-.13-.02-.28.1-.35s.27-.02.34.1c.07.13.02.28-.11.34a.15.15 0 01-.11.04zm1.73-.91c-.09 0-.18-.06-.22-.14a.245.245 0 01.1-.34c.12-.07.27-.02.34.1.07.13.01.28-.11.34a.21.21 0 01-.11.04zm1.73-.93c-.09 0-.18-.06-.23-.13a.26.26 0 01.11-.34c.12-.07.28-.02.34.11.06.12.01.27-.11.33-.03.02-.07.03-.11.03zm1.73-.91a.25.25 0 01-.22-.14.243.243 0 01.11-.34c.12-.07.27-.02.33.11.07.12.02.28-.1.33-.04.02-.08.04-.12.04z"/><path class="st22" d="M214.91 212.55l-15.57-8.27v-2.57l15.57 8.27z"/><path class="st23" d="M214.91 212.55l-15.57-8.27v-1.64l15.57 8.27z"/><path class="st22" d="M213.06 211.03a.248.248 0 01-.11-.33c.07-.12.22-.17.34-.11.12.07.17.22.11.34-.05.09-.14.14-.23.14-.03-.01-.07-.02-.11-.04zm-1.73-.91c-.12-.07-.17-.22-.1-.34a.26.26 0 01.34-.11c.13.07.17.22.11.34-.05.09-.14.13-.22.13-.05 0-.09 0-.13-.02zm-1.73-.92c-.12-.07-.17-.22-.1-.34.06-.12.21-.17.34-.1.13.06.17.22.11.33a.25.25 0 01-.22.14c-.05-.01-.09-.01-.13-.03zm-1.73-.92c-.12-.07-.17-.22-.1-.34s.21-.17.34-.1c.12.06.17.21.1.33-.05.09-.14.13-.22.13-.04 0-.08 0-.12-.02zm-1.73-.92a.251.251 0 01-.11-.34c.07-.12.22-.17.34-.1.12.06.17.21.1.34-.04.08-.13.13-.22.13-.03-.01-.07-.01-.11-.03zm-1.73-.92c-.12-.07-.18-.21-.11-.34.07-.12.22-.17.34-.1s.17.22.1.34c-.04.08-.13.14-.22.14-.03-.01-.08-.02-.11-.04zm-1.73-.92a.26.26 0 01-.11-.34c.07-.13.22-.17.34-.11.12.07.17.22.11.34-.05.08-.13.13-.23.13-.03.01-.08 0-.11-.02zm-1.73-.92a.248.248 0 01-.1-.34c.06-.13.22-.17.33-.11.13.06.18.22.11.34a.25.25 0 01-.22.14c-.04 0-.08-.01-.12-.03z"/><path class="st22" d="M199.34 220.98l15.57-8.27v-2.57l-15.57 8.26z"/><path class="st23" d="M199.34 220.98l15.57-8.27v-1.65l-15.57 8.27z"/><path class="st22" d="M201.07 219.49c-.09 0-.18-.05-.23-.13-.06-.12-.02-.28.11-.34.12-.06.28-.01.34.11s.01.28-.11.33c-.03.01-.07.03-.11.03zm1.73-.92a.26.26 0 01-.22-.13.243.243 0 01.11-.34.26.26 0 01.34.11c.07.12.02.28-.1.34-.05.01-.09.02-.13.02zm1.73-.92a.26.26 0 01-.22-.13.232.232 0 01.11-.33c.12-.07.27-.02.33.1.07.12.02.28-.1.34-.04.01-.08.02-.12.02zm1.73-.92a.26.26 0 01-.22-.13c-.07-.12-.02-.28.1-.33.13-.07.28-.02.34.1.07.12.02.28-.1.34-.04.01-.08.02-.12.02zm1.73-.92c-.09 0-.18-.05-.22-.13a.245.245 0 01.1-.34c.12-.07.27-.02.34.1.07.13.02.28-.11.34-.03.02-.07.03-.11.03zm1.73-.91c-.09 0-.18-.06-.22-.14a.245.245 0 01.1-.34c.12-.07.27-.02.34.1.07.13.01.28-.11.34a.21.21 0 01-.11.04zm1.73-.92c-.09 0-.18-.05-.23-.14-.06-.12-.01-.27.11-.34s.28-.02.34.11c.06.12.01.28-.11.33a.15.15 0 01-.11.04zm1.73-.92a.25.25 0 01-.22-.14.243.243 0 01.11-.34c.12-.07.27-.02.33.11.07.12.02.28-.1.33-.04.03-.08.04-.12.04z"/><path class="st22" d="M214.91 229.21l-15.57-8.26v-2.57l15.57 8.26z"/><path class="st23" d="M214.91 229.21l-15.57-8.26v-1.65l15.57 8.27z"/><path class="st22" d="M213.06 227.69a.257.257 0 01-.11-.34c.07-.12.22-.17.34-.11.12.07.17.22.11.34-.05.08-.14.13-.23.13-.03.02-.07 0-.11-.02zm-1.73-.91c-.12-.07-.17-.22-.1-.34a.26.26 0 01.34-.11c.13.07.17.22.11.34-.05.09-.14.14-.22.14-.05 0-.09-.01-.13-.03zm-1.73-.92c-.12-.07-.17-.22-.1-.34.06-.12.21-.17.34-.1.13.06.17.21.11.33a.26.26 0 01-.22.13.19.19 0 01-.13-.02zm-1.73-.92c-.12-.07-.17-.22-.1-.34s.21-.17.34-.1c.12.06.17.21.1.34-.05.09-.14.14-.22.14a.564.564 0 01-.12-.04zm-1.73-.92a.254.254 0 01-.11-.34c.07-.12.22-.17.34-.1.12.06.17.21.1.34-.04.08-.13.13-.22.13a.26.26 0 01-.11-.03zm-1.73-.92c-.12-.07-.18-.21-.11-.34.07-.12.22-.17.34-.1s.17.21.1.34c-.04.08-.13.14-.22.14-.03 0-.08-.02-.11-.04zm-1.73-.92a.26.26 0 01-.11-.34c.07-.13.22-.17.34-.11.12.07.17.22.11.34-.05.08-.13.13-.23.13-.03.02-.08 0-.11-.02zm-1.73-.91a.248.248 0 01-.1-.34c.06-.13.22-.17.33-.11.13.07.18.22.11.34a.25.25 0 01-.22.14c-.04 0-.08-.02-.12-.03z"/><path class="st22" d="M199.34 237.64l15.57-8.27v-2.57l-15.57 8.27z"/><path class="st23" d="M199.34 237.64l15.57-8.27v-1.64L199.34 236z"/><path class="st22" d="M201.07 236.15c-.09 0-.18-.05-.23-.14a.254.254 0 01.11-.34c.12-.06.28-.01.34.11s.01.28-.11.34c-.03.02-.07.03-.11.03zm1.73-.92a.26.26 0 01-.22-.13.243.243 0 01.11-.34.26.26 0 01.34.11c.07.12.02.28-.1.34-.05.01-.09.02-.13.02zm1.73-.92a.26.26 0 01-.22-.13.23.23 0 01.11-.33c.12-.07.27-.02.33.1.07.12.02.28-.1.34-.04.02-.08.02-.12.02zm1.73-.92a.25.25 0 01-.22-.14.248.248 0 01.1-.34c.13-.07.28-.02.34.1.07.12.02.27-.1.34-.04.04-.08.04-.12.04zm1.73-.92c-.09 0-.18-.05-.22-.13a.245.245 0 01.1-.34c.12-.07.27-.02.34.1.07.13.02.28-.11.34-.03.03-.07.03-.11.03zm1.73-.91c-.09 0-.18-.06-.22-.14a.245.245 0 01.1-.34c.12-.07.27-.02.34.1.07.13.01.28-.11.34a.15.15 0 01-.11.04zm1.73-.92c-.09 0-.18-.06-.23-.13a.26.26 0 01.11-.34c.12-.07.28-.02.34.11.06.12.01.28-.11.34a.36.36 0 01-.11.02zm1.73-.92a.25.25 0 01-.22-.14c-.07-.12-.02-.27.11-.34.12-.07.27-.02.33.11.07.12.02.28-.1.34-.04.02-.08.03-.12.03z"/><path opacity=".5" fill="#466cb9" d="M199.34 66.58h15.57v171.26h-15.57z"/><path fill="#957c39" d="M68.36 133.84H53.89v-17.81h14.47z"/><path d="M130.33 113.24l-22.07 2.73-15.06 14.21c-3.24-.05 14.51-1.02 14.48-.97.42-.63 22.65-15.97 22.65-15.97z" fill="#e2e2e2"/><path class="st27" d="M94.34 134.65l.06-1.59c.04-1 .52-1.93 1.3-2.56.99-.79 2.44-2.54 3.17-3.54.35-.48 2.89-1.67 2.89-1.67s.91.46-.61 1.67c-1.48 1.18-2.18 3.72-2.18 3.72l2.51-1.24 1.03-.51s1.94 5.56-.46 6.76c-2.39 1.2-6.12 1.09-6.12 1.09l-1.59-2.13z"/><path class="st28" d="M93.62 133.66l-1.63 2.72s1.96.54 2.62.98c.65.44 1.85 2.4 1.85 2.4l1.42-2.07s-.33-1.42-1.63-2.29c-1.32-.87-2.63-1.74-2.63-1.74z"/><path d="M63.97 122.82s-1.66 5.9.83 6.43c2.49.54 9.4.54 9.4 2.95s-3.6 31.07-3.6 31.07H55.18l-4.98-29.3s.68-1.63 4.56-2.16c3.87-.54.91-10.25.91-10.25l8.3 1.26z" fill="#f4a783"/><path class="st27" d="M52.35 114.23c.32 8.58 3.68 12.87 8.22 12.87s8.22-4.29 8.22-12.87c0-4.4-3.68-7.97-8.22-7.97-4.54.01-8.38 3.58-8.22 7.97zM64.55 263.53c1.93 0 4.84.89 5.67-.85.78-1.64-1.4-6.76-1.53-9.78v-.05c-.01-.16-.01-.3-.01-.45 0-2.97 6.36-21.8 5.81-30.97-.55-9.16-1.94-7.93-1.94-11.15 0-3.23 1.11-15.36 4.15-24.78s-6.09-22.22-6.09-22.22l-8.02 5.84 2.48 40.41s1.24 30.81.83 35.19c-.13 1.35-.48 2.35-.83 3.02-.42.82-.72 1.37-.55 3.42.68 7.94-1.9 12.37.03 12.37z"/><path class="st30" d="M64.55 263.53c1.93 0 4.84.89 5.67-.85.78-1.64-1.4-6.76-1.53-9.78.03 1.52 0 5.98-1.08 5.98-1.31 0-1.31-.12-1.63-.63-1.32-2.07-1.42-8.02-.98-9.71.05-.2.08-.47.09-.79-.42.82-1.61 4.59-1.61 4.59s.2.44.76 2.43c.53 1.97-1.62 8.76.31 8.76z"/><path class="st31" d="M65.19 263.85h3.51c.72 0 1.29-.56 1.29-1.25v-.03c0-.69-.58-1.25-1.29-1.25h-3.51c-.71 0-1.29.56-1.29 1.25v.03c0 .69.58 1.25 1.29 1.25z"/><path class="st32" d="M43.35 263.53c-1.94 0-6.04 1.04-5.67-.85.56-2.82 1.62-15.02 1.62-15.16 0-2.97-.16-12.2.4-21.37.55-9.16 5.01-13.04 5.01-16.26 0-3.23 1.53-14.99 1.74-24.71.22-9.87 7.19-18.32 7.19-18.32l8.87 2.26 1.37 8.46-13.28 35.48s0 5.07-6.76 30.2c-.35 1.31-1.37 3.82-1.02 4.49.42.82.73 1.37.55 3.42-.67 7.93 1.91 12.36-.02 12.36z"/><path class="st30" d="M38.17 263.73c1.92.2 5 1.03 6-.61.95-1.55-1.02-6.96-.84-9.98-.13 1.51-.93 5.91-2 5.8-1.3-.13-1.29-.26-1.56-.8-1.1-2.19-.76-5.11-.54-7.2.04-.38.05-3.15.08-3.42-.5.77-1.42 4.48-1.42 4.48s.16.46.51 2.49c.34 2.03-2.16 9.04-.23 9.24z"/><path class="st31" d="M39.2 263.85h3.51c.71 0 1.29-.56 1.29-1.25v-.03c0-.69-.58-1.25-1.29-1.25H39.2c-.71 0-1.29.56-1.29 1.25v.03c-.01.69.57 1.25 1.29 1.25z"/><path class="st33" d="M70.61 163.28s8.54 7.76 7.45 17.89c-1.09 10.14-4.36 31.35-4.36 31.35s-9.59 3.22-16.56 1.74-12.86-3.32-12.86-3.32 2.03-28.63 3.27-32.94c4.36-15.16 6.97-14.73 6.97-14.73h16.09z"/><path class="st28" d="M64.8 129.26s8.91-.96 10.21 2.31c1.31 3.27 7.47 13.32 7.47 13.32s7.63-8.72 9.51-9.15 4.46 1.52 4.47 2.72c.06 6.55-7.88 16.56-12.45 18.96-4.58 2.4-10.3-14.09-10.3-14.09s.65 13.13-.65 15.53c-.31.56-.65 1.11-.99 1.62a30.501 30.501 0 01-2.28 2.95l-15.14.11s-1.53-3.38-1.74-4.47c-.22-1.09-1.74-12.59-1.74-12.59l-1.96 19.53s-5.34 13.18-7.08 14.93c-1.74 1.74-3.49 2.83-3.49 2.83l-1.31 2.18-3.81-2.18.98-1.96s.22-4.58 1.09-8.5 8.28-17.65 8.72-21.57.22-16.92 4.14-18.44c3.92-1.53 6.97-2.49 6.97-2.49s1.31 3.15 4.79 2.93c3.47-.22 4.59-4.48 4.59-4.48z"/><path class="st33" d="M64.77 161.69c-3.7 0-11.22-.87-11.22-.87l.22 4.14s4.47 1.09 7.52 1.42 11-.87 11-.87l-.23-5.02-7.29 1.2z"/><path class="st34" d="M64.55 128.47s-.61 2.89-1.82 3.64l-1.21.76s.61 3.19 2.73 2.58c2.13-.61 4.4-6.23 4.4-6.23l-4.1-.75zM56.5 129.38s2.58 1.97 3.8 2.73l1.21.76s-.61 3.19-2.73 2.58c-2.13-.61-5.01-3.95-5.01-3.95l2.73-2.12z"/><path class="st35" d="M64.77 161.69s1.3-.12 1-3.46-3.04-24.14-3.04-24.14l-1.21-1.22-.46.91s3.64 21.56 3.19 24.14c-.46 2.58-.76 3.8-.76 3.8l1.28-.03z"/><path class="st36" d="M64.78 129.27s-.61 2.89-1.82 3.64l-1.22.76s.61 3.19 2.73 2.58c2.13-.61 4.18-7.02 4.18-7.02l-3.87.04zM56.73 130.18s2.58 1.97 3.8 2.73l1.21.76s-.61 3.19-2.73 2.58c-2.13-.61-5.24-4.75-5.24-4.75l2.96-1.32z"/><path class="st35" d="M64.55 128.47s-.61 2.89-1.82 3.64l-1.21.76s.61 3.19 2.73 2.58c2.13-.61 4.4-6.23 4.4-6.23l-4.1-.75zM56.5 129.38s2.58 1.97 3.8 2.73l1.21.76s-.61 3.19-2.73 2.58c-2.13-.61-5.01-3.95-5.01-3.95l2.73-2.12z"/><path class="st37" d="M64.19 109.26s3.84 1 4.09 6.6S65 132.35 65 132.35s3.69-6.54 4.86-10.97-.67-14.88-6.85-15.21-4.09.25-4.09.25l5.27 2.84z"/><path class="st37" d="M63.36 108.09S60.52 106 58.68 106s-5.45 1.24-7.02 4.01c-3.05 5.4-1.17 18.55-2.09 19.05s1.75 1.84 4.18 1.84c2.42 0 4.85-.33 4.85-.33s-1.76-4.18-2.09-7.69-1.34-9.53.75-11.7 6.1-3.09 6.1-3.09z"/><path class="st32" d="M37.04 184.93l-.22 5.44s-2.06 1.71-2.32 2.54c-.36 1.16-.58 2.97-.58 2.97s-1.01-.65-1.01-2.9c0-.65 1.09-3.04 1.09-3.04l-.8-1.09-2.03 2.39-.43 3.7s.8 1.38.58 2.46c-.22 1.09-.58 1.01-.58 1.01L29 195.37v-5.65l5.65-6.09 2.39 1.3z"/><path class="st38" d="M97.57 143.94h58.7v11.22h-58.7z"/><path class="st39" d="M126.91 135.09c-9.79 0-18.56 3.43-24.51 8.84h49.01c-5.94-5.41-14.71-8.84-24.5-8.84z"/><path class="st38" d="M102.41 237.17h49.01v25.51h-49.01z"/><path class="st39" d="M102.41 155.16h49.01v82.01h-49.01z"/><path class="st38" d="M113.16 171.22h27.51v44.54h-27.51z"/><path class="st39" d="M116.47 171.22h20.89v41.7h-20.89z"/><path d="M133.58 194.28c-.7 0-1.28-.57-1.28-1.28v-1.87c0-.7.57-1.28 1.28-1.28.7 0 1.28.57 1.28 1.28V193c-.01.71-.58 1.28-1.28 1.28z" fill="#231f20"/><path class="st39" d="M97.57 147.5h3.31v7.66h-3.31zM104.49 147.5h3.31v7.66h-3.31zM111.41 147.5h3.31v7.66h-3.31zM118.34 147.5h3.31v7.66h-3.31zM125.26 147.5h3.31v7.66h-3.31zM132.18 147.5h3.31v7.66h-3.31zM139.11 147.5h3.31v7.66h-3.31zM146.03 147.5h3.31v7.66h-3.31zM152.95 147.5h3.31v7.66h-3.31z"/><path fill="#0a090a" d="M114.93 160.24h23.93v7.98h-23.93z"/><path d="M250.7 238.36c.09-.18.14-.38.14-.6 0-1.12-.03-2.24-.05-3.37.01-.71-.64-1.4-1.37-1.37-.75.03-1.35.6-1.37 1.37-.02 1.12-.05 2.24-.05 3.37 0 .2.05.41.14.59.02.35.22.69.5.91.21.18.48.29.78.27.31-.01.59-.13.8-.3.27-.21.46-.52.48-.87z" fill="#1b7382"/><circle class="st43" transform="rotate(-50.885 289.499 238.042)" cx="289.52" cy="238.05" r="15.28"/><circle class="st43" transform="rotate(-45.001 396.17 238.06)" cx="396.17" cy="238.05" r="15.28"/><path class="st44" d="M252.33 200.08h-1.37c-.91 0-1.65-.74-1.65-1.65v-8.31c0-.91.74-1.65 1.65-1.65h1.37c.91 0 1.65.74 1.65 1.65v8.31c0 .91-.74 1.65-1.65 1.65z"/><path class="st45" d="M351.65 240.72h79.8s-1.34-35.7-3.58-40.4-22.61-11.64-25.07-12.76-17.01-27.76-21.04-29.32c-4.03-1.57-35.14-3.36-35.14-3.36l2.24 82.82 2.79 3.02z"/><path class="st45" d="M251.18 148.05h100.47v89.96H251.18z"/><path class="st44" d="M352.2 152.4H250.63c-.96 0-1.74-.78-1.74-1.74v-1.45c0-.96.78-1.74 1.74-1.74H352.2c.96 0 1.74.78 1.74 1.74v1.45c0 .96-.78 1.74-1.74 1.74z"/><path class="st46" d="M351.75 231.49h-98.86a3.26 3.26 0 00-3.26 3.26v2.71c0 1.8 1.46 3.26 3.26 3.26h98.86c1.8 0 3.26-1.46 3.26-3.26v-2.71c0-1.8-1.46-3.26-3.26-3.26zM431.96 231.49h-15.94a3.26 3.26 0 00-3.26 3.26v2.71c0 1.8 1.46 3.26 3.26 3.26h15.94c1.8 0 3.26-1.46 3.26-3.26v-2.71c0-1.8-1.46-3.26-3.26-3.26z"/><path class="st43" d="M285.11 222.76c-9.92 0-17.96 8.04-17.96 17.96h35.93c0-9.92-8.05-17.96-17.97-17.96z"/><circle class="st46" transform="rotate(-19.831 285.134 240.712)" cx="285.11" cy="240.72" r="15.28"/><circle class="st47" cx="285.11" cy="240.72" r="7.55"/><path class="st43" d="M400.9 222.76c-9.92 0-17.96 8.04-17.96 17.96h35.93c-.01-9.92-8.05-17.96-17.97-17.96z"/><circle class="st46" transform="rotate(-22.5 400.877 240.713)" cx="400.9" cy="240.72" r="15.28"/><circle class="st47" cx="400.9" cy="240.72" r="7.55"/><path class="st46" d="M403.76 240.72a2.86 2.86 0 11-5.719.001 2.86 2.86 0 015.719-.001zM287.9 240.72a2.86 2.86 0 11-5.719.001 2.86 2.86 0 015.719-.001zM393.28 188.85h-37.36c-.5 0-.91-.41-.91-.91V162.4c0-.51.41-.92.92-.91 4.06.01 20.39.21 23.76 2.86 3.28 2.56 11.87 18.42 14.4 23.17.32.59-.12 1.33-.81 1.33z"/><path class="st44" d="M337.25 174.89c-15.29 0-30.58-.06-45.87.01H259.87c-2.15 0-2.15 2.57 0 2.57 20.09 0 40.18.01 60.27.02 5.7 0 11.41 0 17.11.01 1.09 0 1.64-.65 1.64-1.31 0-.65-.54-1.3-1.64-1.3zM337.25 198.02c-15.29 0-30.58-.06-45.87.01H259.87c-2.15 0-2.15 2.57 0 2.57 20.09 0 40.18.01 60.27.02 5.7 0 11.41 0 17.11.01 1.09 0 1.64-.65 1.64-1.31 0-.65-.54-1.3-1.64-1.3zM321.91 222.29h6.31v6.31h-6.31zM331.55 222.29h6.31v6.31h-6.31zM341.19 222.29h6.31v6.31h-6.31z"/><path class="st48" d="M392.12 190.93h-2.26c-1.5 0-2.72-1.22-2.72-2.72v-2.97c0-1.5 1.22-2.72 2.72-2.72h2.26c1.5 0 2.72 1.22 2.72 2.72v2.97c-.01 1.5-1.23 2.72-2.72 2.72z"/><path class="st47" d="M394.39 183.13c-.3-.39-.68-.58-1.06-.68-.87-.23-1.76-.31-2.64-.23-.46.04-.92.07-1.38.15-.37.06-.74.14-1.09.35-.68.41-1.06 1.31-1.18 2.42-.08.71-.07 1.44-.02 2.15.06.71.14 1.5.41 2.09.04.08.11.03.1-.07-.05-.6-.19-1.17-.25-1.77-.06-.59-.08-1.2-.05-1.8.05-1.06.28-2.1.93-2.57.31-.23.65-.32.99-.39.39-.07.78-.12 1.17-.15.8-.05 1.61.03 2.4.17.42.07.87.15 1.25.48.14.13.27.3.37.51.1.22.15.48.24.72.05.13.17.1.2-.04.09-.52-.16-1.04-.39-1.34z"/><path class="st46" d="M395.33 189.58c-.29-.58-1.13-.96-1.76-1-.69-.05-1.56.85-.92 1.48.26.25.55.47.83.7.3.25.6.5 1.02.43.33-.06.57-.32.74-.59.24-.37.24-.72.09-1.02z"/><path class="st48" d="M394.11 199.59v-.6c0-2.16 0-4.32-.02-6.47-.01-.51-.79-.51-.79 0-.04 3.02-.03 6.04-.03 9.06v2.57c0 3.81-.01 7.62-.01 11.43V222c0 .28.21.41.43.42.21 0 .43-.14.43-.42 0-3.81.01-7.62 0-11.43-.01-3.66 0-7.32-.01-10.98zM363.92 199.32h-6.55c-.66 0-1.2-.54-1.2-1.2v-1c0-.66.54-1.2 1.2-1.2h6.55c.66 0 1.2.54 1.2 1.2v1c0 .66-.54 1.2-1.2 1.2z"/><path class="st49" d="M275.75 248.01c-.2-.58-.78-1.01-1.09-1.55-.31-.53-.54-1.1-.75-1.68-.27-.73-.47-1.48-.6-2.25-.12-.74-.07-1.68-.5-2.32-.14-.2-.46-.29-.64-.08-.45.52-.5 1.28-.51 1.95 0 .72.09 1.46.22 2.17.23 1.31.67 2.7 1.47 3.79.43.59 1 1.19 1.8 1.09.63-.09.79-.56.6-1.12zM296.98 239.57c-.06-.12-.11-.26-.21-.36-.11-.1-.27-.11-.37-.2-.15-.13-.41-.05-.41.17 0 .07-.09.14-.12.21-.04.08-.04.16-.07.25-.07.22-.19.42-.25.65-.14.47-.25.95-.4 1.41-.29.88-.65 1.74-1.09 2.55-.42.76-.91 1.46-1.46 2.13-.27.33-.57.66-.89.94-.14.12-.29.24-.43.36-.13.11-.28.38-.44.42-.14.04-.1.22.03.23.17.02.31.17.47.22.22.06.49.05.72.01.5-.1.97-.35 1.37-.66.89-.68 1.55-1.65 2.12-2.6.59-1 1.08-2.07 1.41-3.18.16-.54.33-1.11.32-1.67-.05-.34-.16-.6-.3-.88zM299.16 241.5c-.03-.14-.06-.29-.12-.42-.06-.12-.14-.23-.22-.34-.07-.11-.22-.08-.26.03s-.1.23-.14.34c-.04.12-.06.24-.08.36-.07.29-.07.57-.1.86-.01.07-.04.24-.06.35-.02.14-.01.28-.02.42-.01.26.03.51.01.77-.01.12.17.2.25.1.16-.21.36-.41.48-.65.07-.15.15-.3.19-.46.04-.15.05-.33.07-.48.04-.29.07-.58 0-.88zM388.54 241.65a8.62 8.62 0 01-.1-2.03c.04-.66.17-1.3.33-1.94.17-.69.51-1.37.46-2.09-.03-.43-.46-.7-.85-.49-.75.41-1.07 1.26-1.35 2.03s-.41 1.6-.47 2.42c-.06.8-.01 1.6.1 2.4.06.39.15.77.29 1.14.08.22.18.43.32.63.13.19.32.29.45.46.31.4 1.05.07 1.01-.42-.01-.17.05-.35.05-.52 0-.22-.04-.43-.07-.64-.06-.31-.11-.63-.17-.95zM391.2 244.34v.01-.01zM391.2 244.35c0-.04.01-.03 0 0 .03-.07.05-.13.05-.21.01-.13-.03-.29-.05-.42-.02-.11-.03-.22-.06-.32-.04-.11-.07-.22-.11-.34-.03-.1-.08-.19-.12-.28-.01-.02-.01-.03-.02-.05-.04-.1-.07-.19-.1-.29a1.84 1.84 0 00-.41-.65c-.11-.12-.31-.11-.43 0-.22.2-.36.52-.37.82-.01.12 0 .23.01.35.01.17.02.36.07.51.05.16.12.31.2.46.07.14.19.27.3.37.13.12.29.26.46.31.06.02.15.04.21.03h.01c.02.01.05.01.08.02.16.04.32-.07.32-.25-.04-.01-.04-.03-.04-.06 0 .01-.01.03-.02.05.01-.02.01-.04.02-.05zM412.13 238.56c-.09-.57-.22-1.37-.72-1.73a.108.108 0 00-.14.02c-.36.45-.34 1.18-.38 1.73-.06.72-.13 1.42-.22 2.14-.09.68-.21 1.35-.33 2.02-.14.78-.42 1.53-.06 2.28.15.32.66.45.94.25.71-.49.81-1.31.95-2.1.13-.76.19-1.56.18-2.34-.02-.75-.1-1.52-.22-2.27zM414.29 243.32c-.03-.09-.07-.17-.11-.25a.3.3 0 00-.04-.08c-.04-.08-.1-.12-.16-.18.11.09-.02-.02-.05-.05-.09-.08-.24-.1-.33 0l-.08.08c-.04.03-.08.07-.1.11-.02.02-.03.04-.04.06-.03.04-.15.19-.02.04-.06.07-.12.14-.16.23-.05.1-.1.2-.16.3-.09.14-.14.3-.2.46.01-.02.02-.05.03-.07-.06.14-.1.26-.08.42.02.12.07.23.15.33l-.03-.03s0 .01.01.01c.06.13.2.22.34.25.01 0 .01 0 .02.01.03.01.05 0 .08.01h.04c.26.02.51-.11.65-.33.1-.15.21-.33.24-.51.02-.17.05-.35.04-.52 0-.09 0-.19-.04-.29z"/><path class="st48" d="M402.65 199.16c-.22-.2-.5-.34-.8-.33-.17 0-.33-.01-.5-.01-.08 0-.16.01-.25.03-.52.01-1.04.03-1.56.03-.27 0-.57.12-.76.32-.19.19-.33.49-.32.76.03.59.47 1.07 1.08 1.08l1.55.03c.08.02.16.03.25.03.17 0 .33-.01.5-.01.29-.01.59-.12.8-.33.2-.2.34-.52.33-.8 0-.29-.09-.59-.32-.8zM352.23 223.03v-51.39c0-1.35-.03-2.7-.06-4.06-.03-1.4-.01-2.81-.04-4.21-.05-2.76.01-5.51-.08-8.26-.01-.28-.42-.28-.43 0-.08 2.45-.06 4.91-.07 7.36s-.08 4.91-.1 7.36c-.04 4.91-.01 9.82-.01 14.73v37.56c0 2.75-.09 5.52.03 8.26.02.47.7.47.72 0 .12-2.43.04-4.9.04-7.35z"/></svg>