<?xml version="1.0" encoding="utf-8"?>
<!-- Generator: Adobe Illustrator 26.0.2, SVG Export Plug-In . SVG Version: 6.00 Build 0)  -->
<svg version="1.1" id="Layer_1" xmlns="http://www.w3.org/2000/svg" xmlns:xlink="http://www.w3.org/1999/xlink" x="0px" y="0px"
	 viewBox="0 0 460 280" style="enable-background:new 0 0 460 280;" xml:space="preserve">
<style type="text/css">
	.st0{fill:#676963;}
	.st1{fill:#AA0F1B;}
	.st2{fill:#C9DCE2;}
	.st3{fill:#C4C2BA;}
	.st4{opacity:0.39;fill:#D6B85C;enable-background:new    ;}
	.st5{opacity:0.95;}
	.st6{opacity:0.71;fill:#D6B85C;enable-background:new    ;}
	.st7{fill:#45433B;}
	.st8{fill:#EAA74E;}
	.st9{fill:#A84800;}
	.st10{fill:#722924;}
	.st11{fill:#CC7425;}
	.st12{fill:#0D3B7F;}
	.st13{fill:#35528D;}
	.st14{fill:#C19D5F;}
	.st15{fill:#1E1E1E;}
	.st16{fill:#A8824A;}
	.st17{fill:#E0A410;}
	.st18{fill:#B92758;}
	.st19{fill:#FFB27D;}
	.st20{fill:#5FABB7;}
	.st21{fill:#EF9E67;}
	.st22{fill:#707070;}
	.st23{fill:#494949;}
	.st24{fill:#9B1B4C;}
	.st25{fill:#2B478B;}
	.st26{fill:#163560;}
	.st27{fill:#5A6075;}
	.st28{fill:#C68B44;}
	.st29{fill:#D9935C;}
	.st30{fill:#F9E0C7;}
	.st31{fill:#AF0000;}
	.st32{fill:#CB7D45;}
	.st33{fill:#050505;}
	.st34{fill:#C49F31;}
	.st35{fill:#9E7C28;}
	.st36{fill:#ADACAC;}
	.st37{fill:#DDDCDB;}
	.st38{fill:#233862;}
	.st39{fill:#E58638;}
	.st40{fill:#B64C41;}
	.st41{fill:#D37129;}
	.st42{fill:#F1A34F;}
	.st43{opacity:0.4;fill:#D86713;}
	.st44{fill:#D86713;}
	.st45{fill:#132C4F;}
	.st46{fill:#FFAE73;}
	.st47{fill:#F48F4E;}
	.st48{fill:#2A3967;}
	.st49{fill:#1E3865;}
	.st50{fill:#333333;}
	.st51{fill:#E48F4F;}
	.st52{fill:#D6D6D6;}
	.st53{fill:#0D458E;}
</style>
<polygon class="st0" points="460,280 -0.5,281.5 -0.5,184.5 460,183 "/>
<polygon class="st1" points="248.4,235.8 276.8,254.2 491.1,254.2 491.1,234.8 "/>
<rect x="322.5" class="st2" width="87.5" height="98.2"/>
<polygon class="st3" points="408.5,0.1 408.5,96 324.7,96 324.7,0.1 0,0.1 0,185.5 460,184.9 460,0.1 "/>
<g>
	<g>
		<path class="st4" d="M460,0.1v186.1c0,2.2-0.9,4-1.9,4h-33.7c-1,0-1.9-1.8-1.9-4V0.1H460z"/>
		<g class="st5">
			<path class="st6" d="M460,181.8c0,2.2-0.7,3.8-1.5,3.8h-26.3c-0.8,0-1.5-1.8-1.5-3.8V0.7c0-0.7,29.3-0.8,29.3,0V181.8z"/>
		</g>
	</g>
</g>
<rect x="182.6" class="st2" width="87.5" height="98.2"/>
<rect x="27" class="st2" width="87.5" height="98.2"/>
<polygon class="st7" points="460,196 -0.5,197.5 -0.5,184.5 460,183 "/>
<g>
	<path class="st8" d="M168.2,188.4c-0.3,7,4.7,46.1,4.7,46.1h-2.8l-9-46.1H168.2z"/>
	<g>
		<path class="st9" d="M115.9,166.8c0.2,4.6,4.9,8.1,10.5,7.7L148,173c5.3-0.4,19.3-5.1,19.2-9.6l-1.3-36.8
			c-0.2-4.8-4.8-8.5-10.3-8.4l-31.6,1.3c-5.8,0.2-10.3,4.3-10.1,9.3L115.9,166.8z"/>
		<path class="st10" d="M112.9,189.3c0.3,6.9-2.2,45.3-2.2,45.3h2.6l6.2-45.3H112.9z"/>
		<path class="st10" d="M127.8,189.1c0.4,7.9-0.4,52.1-0.4,52.1h3l5-52.1H127.8z"/>
		<path class="st11" d="M112.5,176.9c0,4.3-0.2,11.2,0.3,12.5s13.7,5.5,17.1,5.9c3.4,0.4,47.2-3.5,47.6-5.6
			c0.5-2.1-14.4-17.6-17.9-18C156.2,171.3,112.5,176.9,112.5,176.9z"/>
	</g>
</g>
<g>
	<g>
		<path d="M164.8,228.2c-0.4,2.6-0.3,8.9,1.3,10.9c0,0,1.5,0.9,3,0.6c1.6-0.4,1.9,0.3,2.9,1.4c0.9,1.1,6.8,2.1,9.6,1.6
			c3.3-0.6,4.2-2.2,0-4.9c-5-3.1-7.9-6-9-9C171.3,225.8,164.8,228.2,164.8,228.2z"/>
		<path class="st12" d="M175.1,173.6c2.5,1,6.2,2.9,7.2,9.1c0.9,5.5-3,50.9-3,50.9l-4,1.2c0,0-2.2-43.2-1.8-49.2
			C174.4,171.1,175.8,173.9,175.1,173.6z"/>
		<path class="st13" d="M163.6,168.9c8.4,3,14.4,4.6,15.4,8.9c1,4.3-3.3,57-3.3,57s-11.8,0.7-11.8-0.1c0-0.7-1.4-47.4-1.6-48.7
			C162.1,184.7,163.6,168.9,163.6,168.9z"/>
	</g>
	<g>
		<path d="M140.9,238.2c-0.1-2,0.8-3.3-0.4-13.4c-0.1-1.2,7.8-2,7.8-2c-0.2,5-0.7,9.6,3.7,15.4c2.3,3,4.7,7.2,1,8.1
			c-4.6,1.1-8-1.1-9.4-4.6c-0.1-0.2-0.4-0.1-0.4-0.1S141.1,241.8,140.9,238.2z"/>
		<g>
			<path class="st13" d="M147.4,172.5c-4-2.2-7.1-1.8-9,4s-1.6,16.9-1.1,27c0.3,6.9,1.8,31.4,1.8,31.4h4.8l7.9-0.8
				c0,0,0.6-39.9,0.6-43.5S152.1,175,147.4,172.5z"/>
		</g>
	</g>
	<g>
		<path class="st14" d="M158.4,114.3c-0.9,2.4-2.2,5.2-0.9,7.8c1,2.1-3.9,8.4-5.2,8.3c-4.9-0.5-11.8-12-11.8-12s3.1-1.5,3.7-2.7
			c1.3-2.3,2.4-6,2.7-7.3C147.4,106.6,158.4,114.3,158.4,114.3z"/>
	</g>
	<g>
		<path d="M164.1,168.9c0,0-32.7,11.3-31.7,8.4c3.1-8.9-2.6-23.9-2.2-26.9c0.5-4,0.6-13.3,0.1-15c-0.4-1.8-4.9-4.9-4.9-4.9
			s0.5-7.9,5.9-9.1c5.5-1.3,4.4-2.1,9.9-4.9c0,0,3.7,10.6,12.4,10.2c3.1-0.1,1.4,19.4,2.7,21C157.6,150,164.1,168.9,164.1,168.9z"/>
	</g>
	<path class="st15" d="M158.4,166.1l-3.4-16c0,0-1.9-23.1-1.3-23.4c2.6-1.4,3.5-2.6,2.6-7.1l-0.1-1.1c2.5,1.2,4.8,3.2,10.6,5.3
		c1.2,0.4,1.2,6.6,1.2,6.6s-1,11.1-0.8,12.9c1.9,21.9-0.5,11-0.9,14c-0.1,2.3-0.9,6.5,0.7,12.9L158.4,166.1z"/>
	<g>
		<path d="M144.3,102.1c-0.3,1.8-0.7,8.4-0.8,8.8s-0.4,1.6-0.7,1.4s3.5,2.1,4.2,1.5c0.7-0.5,2.6-8.8,2.4-9.3
			C149.1,104,144.3,102.1,144.3,102.1z"/>
		<g>
			<path class="st16" d="M148.3,104.4c0.5-5.1-0.1-10.2,7.9-9.5c9.9,0.9,8.5,6.4,8.1,12.7c-0.4,6.3-3.6,13.5-8.6,12.5
				c-5.5-1.1-8.2-4.7-8.4-9.2c-1-0.6-1.7-2.4-1.6-4C145.6,104.9,146.6,103.2,148.3,104.4z"/>
			<path class="st14" d="M153.6,103.3c-1.2,6.4-1.1,15.5,2.4,16.6c4.3,0.8,6.2-3.3,7.9-7.5c1.2-3.3,2.6-8.9,1.5-12.7
				c-0.7-2.4-1.7-3.7-3.4-4.2C158.3,96,154.5,98.1,153.6,103.3z"/>
			<g>
				<path class="st15" d="M158.9,94.8l-0.1-0.5c0,0-1.9-1.4-1.5-1.4c0.2,0,1.1-0.5,1.4,0.6l-0.7-1.8l4.6,2.1c0,0,1.1,0,1.8,0.7
					s1.2,1.2,1.2,1.2s-0.2,0.7-0.2-0.3c1,0.4,1.4,3,1.2,4.8c0,0.6,0,1.2,0,1.8c-0.1,2.7-1.1,5.6-1.1,5.6l-0.6,0.3
					c0,0,1.8-6.2-0.4-8.4c-2.2-2.2-8.2-1.3-8.2-1.3L158.9,94.8z"/>
				<path d="M144.5,97.4c1-1.5,3.4-4.3,4.6-4.7c0.8-1.2,4.9-0.7,9.3-1.6c0,0-3.9,0.9-4.1,1.8l0,0c0.6-0.7,7-1.9,6.7-1.5
					c-2.1,2.5-1.5,0.7-1.2,1.9c0.1,0-0.2,0.1-0.1,0.1c0-1.2,1.4-2.1,2.4-2.3c-0.6,1.5,1.3,1.7,2.3,3.5c1.3,1.6,2.1,4.5,0.4,5.5
					c-4,2.2-6.6-0.4-8.9-0.6c-2.1-0.2-3.5,0.9-4.1,1.6c-0.7,1-1.8,6-1.8,6l-1.4-1.2l-1.3-2.3l-3.4,2.1
					C144,105.9,142.5,100.4,144.5,97.4z"/>
			</g>
		</g>
	</g>
</g>
<g>
	<path class="st17" d="M62.6,43.9c-1.8-0.6-3.8-0.3-5.2,0.1c0.3-0.4,1-0.7,1-0.7c-0.9,0-2.6,1.3-2.6,1.3
		c-12.8-2.2-11.1,15.7-10.1,19.7c1.1,4-5.1,15.7-9.4,21.3c-12,15.9,7.2,32.5,7.2,32.5c15.5,13,8.5-12.2,8.5-12.2
		c-1-3.2,10.7-23.6,17.6-30.4c1.4-3.2,1-8.4,1-8.8c0.5,4,0.2,6.4-0.1,7.8C75.8,66.9,67.4,45.5,62.6,43.9z"/>
	<path class="st18" d="M94.5,102.6c0,1.7-0.9,3.9-2.1,6.2c-3.1,5.7-8.5,11.8-8.5,11.8l-3.1-4.5c0,0,1.9-4.7,3.2-8.6
		c0.8-2.3,1.3-4.4,1-4.9c-0.7-1.4-14.2-17.5-14.2-17.5L67,72.8c0,0,9,0.5,12.8,6.1C83.7,84.5,94.5,98,94.5,102.6z"/>
	<path class="st19" d="M92.3,108.8c-3.1,5.7-8.5,11.8-8.5,11.8l-3.1-4.5c0,0,1.9-4.7,3.2-8.6C85.4,108.4,88,109.3,92.3,108.8z"/>
	<polygon class="st19" points="54.9,214.4 58.1,228 63,228 63.2,214.4 	"/>
	<polygon class="st19" points="95.8,215 105,228 108.6,223.4 103,213.2 	"/>
	<path class="st19" d="M67.7,76.8c0,0-3.9,2.1-6.9,1.3c-2.8-0.8-4.6-4.4-4.6-4.4c1.2-0.2,1.5-1.9,1.5-8.8l0.5,0.1l9,1.8
		c0,0-0.2,2.8-0.2,5.5C67,74.4,67.1,76.5,67.7,76.8z"/>
	<path class="st20" d="M53.3,48.7c0,0,3.4-5.5,9.7-2.2C63,46.5,59.7,46.6,53.3,48.7z"/>
	<path class="st21" d="M67.2,66.7c0,0-0.2,2.8-0.2,5.5c-5-0.1-7.7-4.7-8.8-7.3L67.2,66.7z"/>
	<path class="st17" d="M56.4,65.2c0,0-3.4-3.6-4.7-6.9c-0.9-2.4-1.5-11.9,8-12.4c0,0,2.7-0.3,5.6,0.9c2.3,1,5.8,3.3,4.2,12l-0.3,2.9
		L56.4,65.2z"/>
	<path class="st22" d="M107.7,220.4c0,0-2.4,0.4-4.3,0.6c-0.4,0-0.8,0.1-1.2,0.1c-0.9,0-2.6-0.4-3.8-0.6l-0.1,0
		c-0.5-0.1-0.9-0.2-1-0.3l-0.1,0c0,0-11.9-13.2-18.5-34.4c-0.2-0.5-0.3-1-0.5-1.5c-3.6-10.6-11.2-24-15.2-36.1
		c-0.6-1.9-1.2-3.7-1.7-5.4c-0.2-0.5-0.3-1.1-0.5-1.6c-2.9-10.2-3.8-16.9-4.6-24.1l23.9,6.1C80.2,123.1,90.2,166.7,107.7,220.4z"/>
	<path class="st19" d="M68.8,68.1c0,0-11.6,2.5-13.1-4.7c-1.5-7.2-4-11.8,3.4-13.7c7.3-1.9,9.3,0.5,10.4,2.8
		C70.6,54.8,71.8,67.3,68.8,68.1z"/>
	<path class="st17" d="M64.4,48.5c0,0-1.5,9.1-6.1,11.4c-4.6,2.2-7,1.4-7,1.4s3.1-3.7,2.9-9.1C54.1,52.1,61.2,44.9,64.4,48.5z"/>
	<path class="st17" d="M63.7,49.3c0,0,2.8,1.4,3.7,3.1c1,1.7,2,5.5,3.1,5.1c0,0,1.2-6.3-2.1-9C64.8,45.7,63.7,49.3,63.7,49.3z"/>
	<path class="st19" d="M58,227.3c0,0,0.4,2.7-0.6,5.6c0,0-0.8,3.6,2.8,3.7c3.6,0.1,4.4-0.3,4-2.5c-0.4-2.2-1.2-6.1-1.2-6.1L58,227.3
		z"/>
	<path d="M57.4,232.9c0,0-0.8,3.8-0.4,5.6c0,0,1.2,0.4,3.8,0.4c2.5,0,3.9-0.4,3.9-0.4s-0.1-4.1-0.7-5.7
		C63.9,232.8,61.4,236.6,57.4,232.9z"/>
	<path class="st19" d="M117.2,234.4c0,0-6.6-7.3-8.6-11l-4.9,2.5l10.9,10.3l2.6-0.3L117.2,234.4z"/>
	<path d="M121.3,238.7c0,0-7.1,0-8.3-0.1c-1.2-0.1-2.2-1.9-3.5-4.5c-0.5-1.1-1.7-1.7-3-2l0,6.4h-1.9l-1.7-6.8
		c-1.2-2.1-0.1-4.1,0.7-5.8c1,0,3.5,0.7,8.4,6.1c1.6,1.8,3.4,2.4,5.1,2.4c0,0,0,0,0.1,0C121.3,236.3,121.3,238.7,121.3,238.7z"/>
	<path class="st23" d="M103.4,221c-0.4,0-0.8,0.1-1.2,0.1c-0.9,0-2.6-0.4-3.8-0.6l-0.1,0l-1-0.3l-0.1,0c0,0-11.9-13.2-18.5-34.4
		c-0.2-0.5-0.3-1-0.5-1.5c-3.6-10.6-11.2-24-15.2-36.1c-0.6-1.9-1.2-3.7-1.7-5.4c-0.2-0.5-0.3-1.1-0.5-1.6l4.2-3.2
		c0,0,12.7,20.6,16.7,40C85,193.9,99,214.7,103.4,221z"/>
	<path class="st22" d="M65.5,179.7c0.1,9.4-0.4,31.1-1.6,40.1c0,0-1.2,1-4.1,1c-3,0-4.3-1.1-4.3-1.1c-3.1-15.6-5.3-28.5-6.9-39.6
		c-1.3-9.1-2.5-16.9-3.4-23.7c-0.8-6-1.4-11.1-1.7-15.5c0-0.6-0.1-1.2-0.1-1.8c0-0.8-0.1-1.5-0.1-2.2c0-0.7,0-1.4,0-2.1l0.1,0
		l5.9-0.6l18.8-1.8C68,148.9,65.4,174.2,65.5,179.7z"/>
	<path class="st23" d="M59.8,220.8c-2.5,0.1-4.3-1.1-4.3-1.1c-3.1-15.6-5.3-28.5-6.9-39.6c-1.3-9.1-2.5-16.9-3.4-23.7
		c-0.8-6-1.4-11.1-1.7-15.5c0-2.2-0.1-4.3-0.1-6.1c0-1.8-0.1-3.4-0.1-4.5l6.1,3.9l6.4,4.1c0,0-9,8.2-6.8,23.8
		C51.3,177.6,56.7,218.6,59.8,220.8z"/>
	<path class="st18" d="M83.5,136.6c-7.2,1.9-40.9,5.6-41.2-2.9c-0.1-2.1,0-4.5,0.2-7.2c0.5-8.3,1.9-18.6,2.5-24.3
		c0.3-2.6-0.7-14.2,0.1-20.6c0.1-0.9,0.3-1.8,0.5-2.4c1.5-4.8,8-6.1,11.3-6.2L67,72.8c0,0,10.4,11.7,11.9,15.3
		c1.5,3.6,1.9,15.9,3.1,21.8C83.1,115.8,87,135.7,83.5,136.6z"/>
	<path class="st24" d="M63.6,108.1c0,0-5.6,17.3-21.1,18.4c0.5-8.3,1.9-18.6,2.5-24.3c0.3-2.6-0.7-14.2,0.1-20.6
		c0.2,0,0.4,0.2,0.6,0.2C62.7,85.2,65.2,104.5,63.6,108.1z"/>
	<g>
		
			<rect x="57.9" y="89.7" transform="matrix(0.9944 0.1059 -0.1059 0.9944 11.3303 -6.5042)" class="st25" width="18.1" height="27.5"/>
		<polygon class="st26" points="59.4,88.8 58.2,88.7 55.5,116 56.5,116.1 		"/>
	</g>
	<g>
		<path class="st19" d="M44.2,100.9c0,0,12.7,3.9,24.8,5.6c0,0,4,1.7,2.1,2.2c-0.5,0.1-24.7,5.4-28.3,2L44.2,100.9z"/>
		<path class="st18" d="M56.9,73.1c0,0-6.7,0-9.5,3.3c-5.2,5.9-6.2,31.1-4.6,34.3c0.7,1.4,6.1,1.5,8.4-5.1
			C52.4,102.2,57.5,79.3,56.9,73.1z"/>
	</g>
	<path class="st19" d="M67.8,106.3c0,0,1.5-0.1,1.8-0.6c0.6-1,1.5-0.9,2.2-1.1c0.7-0.1,1.6-0.9,1.7-0.8c0.1,0.2-0.5,1.1-0.9,1.4
		c0,0,0.8,0,1.3-0.2c0.5-0.3,2.1-2.3,2.4-1.5c0.7,2.3,0,4.5-1.9,4.7c-2,0.2-6.9,1.1-6.9,1.1L67.8,106.3z"/>
</g>
<path class="st27" d="M129.2,164c-4.2,4.7-6.8,13.1-6.6,16.5c0.3,4.8,10.1,6.1,10.1,6.1l5.2-1c2.8,0,7.8-3.6,11.5-3.6
	c3.8,0,23,5.5,21.8,0c-0.8-3.9-6-16.7-9.8-17.7C157.8,163.2,129.2,164,129.2,164z"/>
<path d="M166.6,124.3c6.2-0.2,5.1,11.5,9.2,19.1c2.1,3.9,3.2,7.3,2.8,8.3c-2.7,6.3-2.5,5.2-12.1,4.8c-1.6-0.1-5.5-3.1-5.5-3.1
	l3.6-23L166.6,124.3z"/>
<path class="st8" d="M253.8,161.8c0,0.2-0.4,0.3-0.8,0.3H78.6c-0.4,0-0.8-0.1-0.8-0.3l8.9-3c0.8-0.3,1.1-0.3,1.6-0.3h153.3
	c0.4,0,1.1,0.1,2.1,0.3L253.8,161.8z"/>
<g>
	<path class="st9" d="M239,196c0,0.8-0.8,1.4-1.8,1.4H91.8c-1,0-1.8-0.6-1.8-1.4v-26c0-0.7,0.8-1.4,1.8-1.4h145.4
		c1,0,1.8,0.6,1.8,1.4V196L239,196z"/>
</g>
<rect x="232.3" y="168.4" class="st9" width="7.3" height="76.4"/>
<rect x="89.8" y="182.9" class="st9" width="7.3" height="61.9"/>
<path class="st28" d="M254,168.6c0,0.5-0.3,0.9-0.8,0.9H78.1c-0.4,0-0.8-0.4-0.8-0.9v-6.1c0-0.5,0.3-0.9,0.8-0.9h175.1
	c0.4,0,0.8,0.4,0.8,0.9L254,168.6L254,168.6z"/>
<path class="st14" d="M175.1,149.6c-3.8,0.1-14.4,3.4-17,2.9c-3.5-0.7-3.8-1.3-4.6-1.3c-1,0-1.5,0.2-2.8,1.5
	c-1.8,1.7-2.6,3.8-1.9,4.3c0.2,0.2,0.9-0.6,1.5-1.5c0.9-1.2,1.7-1.3,1.7-1.3s-0.7,1-1.9,2.2c-1,0.9-1.1,1.6-0.7,1.8
	c0.6,0.6,3.9-2.1,3.9-2.1s-3.5,2.6-3,2.9c1.1,0.7,3.9-1.2,3.9-1.2s-3.3,1.5-3,1.9c0.5,0.6,2.4,0.1,3.5-0.6c1.2-0.7,3.3,1,5.5-0.2
	c3.4-1.8,16.7,1.5,19.3-2.3C183,151.3,175.1,149.6,175.1,149.6z"/>
<g>
	<path class="st15" d="M129,123.2c-5.3-3.3-13.3,28.7-12.1,31.3c1.3,2.6,2,3.7,3.9,4.1c5.6,1.3,13.7,0,13.7,0s-0.1-5.9,0.7-7.4
		s-6.3-3.5-6.3-3.5s3.6-9.6,3.6-10.4C132.5,136.5,131.8,124.9,129,123.2z"/>
</g>
<path class="st14" d="M130.8,150.3c3.6-0.1,13.7,2,16.1,1.4c3.3-0.9,3.4-1.5,4.2-1.6c0.9,0,1.4,0.1,2.6,1.1c1.8,1.4,2.7,3.3,2.2,3.9
	c-0.2,0.2-0.8-0.5-1.5-1.2c-0.9-1-1.7-1.1-1.7-1.1s0.8,0.9,2,1.8c0.9,0.7,1.1,1.4,0.9,1.7c-0.5,0.6-3.8-1.6-3.8-1.6s3.5,2.1,3.1,2.5
	c-0.9,0.8-3.8-0.8-3.8-0.8s3.2,1.2,3,1.6c-0.4,0.6-2.2,0.3-3.4-0.3c-1.2-0.5-3,1.2-5.1,0.3c-3.3-1.4-16.2,3.2-18.2-0.6
	C125.2,152.9,130.8,150.3,130.8,150.3z"/>
<g>
	<path class="st29" d="M308.8,126.3c-9.4-2.4-19.7-16.9-19.7-16.9l2.6-2.3c2.7,3.2,14.1,8.8,14.1,8.8c-0.1-2.9,0-5.6,0.2-8.1
		c1.3-16.6,7.5-22.2,9.2-23.4c0.3-0.2,0.4-0.3,0.4-0.3s0,0.1,0,0.3c0,0.5,0.1,1.5,0.1,2.9C316.2,97.5,316.6,128.3,308.8,126.3z"/>
	<path class="st29" d="M291.8,107.1c0-0.4-0.3-6.1-1.4-7.2c-1.1-1.1-3.4-2.6-4-2.4c-0.6,0.1-2.8,3.8-1.8,6.3c1,2.5,4.6,5.7,4.6,5.7
		L291.8,107.1z"/>
	<path class="st30" d="M294.1,107.7l-6.2,0.3c-0.2,0-0.4-0.2-0.4-0.4L287,95.9c0-0.2,0.2-0.4,0.4-0.4l6.2-0.3c0.2,0,0.4,0.2,0.4,0.4
		l0.5,11.8C294.5,107.6,294.3,107.7,294.1,107.7z"/>
	<path class="st31" d="M292.5,107.8l-5.6,0.2c-0.4,0-0.7-0.3-0.7-0.6l-0.5-11.2c0-0.4,0.3-0.7,0.6-0.7l5.6-0.2
		c0.4,0,0.7,0.3,0.7,0.6l0.5,11.2C293.1,107.5,292.9,107.8,292.5,107.8z"/>
	<path class="st29" d="M285.8,97.9c0,0,1.7-1.9,3.4-0.4c1.7,1.4-0.1,4.5-1.6,5.3c-1.5,0.8-1.9,1.3-1.9,1.3L285.8,97.9z"/>
</g>
<path class="st32" d="M329.2,222.9c-0.6,2.3-1.2,4.4-1.8,6.4c-0.1,0.4-0.3,0.9-0.4,1.3c-0.1,0.2-0.1,0.4-0.2,0.6
	c-0.1,0.4-0.3,0.8-0.4,1.2c-0.2,0.5-0.3,1-0.5,1.5c-0.1,0.3-0.3,0.7-0.4,1c-1.9,5.1-3.5,8.3-3.5,8.3l-3.8-0.3c0,0,1.4-6.8,1.7-16.4
	c0-0.3,0-0.7,0-1c0-0.8,0-1.5,0-2.3c0-0.3,0-0.6,0-1c-0.1-8.3-1.1-18.2-4.4-27.6c-2.7-7.7-4.6-14.8-6-21.3
	c-4.5-20.9-3.5-34.6-3.5-34.6l21.3,2.5l1,0.1c0.1,9.8,0.3,23.1,0.6,33.4c0,1.8,0.1,3.5,0.1,5.1c0.1,6.7,0.3,11.2,0.3,11.2
	C333.3,199.9,331.8,212.4,329.2,222.9z"/>
<path class="st33" d="M323.1,65.6c0,0,5,4.3,0.4,9.2c0,0,3.8,0.4,5.2-0.7c0,0-0.3,0.5-0.5,0.8c0,0,4.3,0.2,6.1-1.2
	c1.8-1.3,0.6-23.4-11.3-20.9c0,0-10.1-0.8-9.2,10.9c0.9,11.7-2.9,11.7-2.9,11.7s1.1,0.5,1.6,0.5c0,0,0.8-0.3,0.9-0.7
	c0,0-0.1,0.7-0.3,0.9c0,0,4.1,0.4,6.2-1.2C321.3,73.4,323.7,68,323.1,65.6z"/>
<path class="st29" d="M339.3,136.3c-4-9-5.9-11.6-6-14.4c-0.1-2.2,1.1-4.7,3.2-10.6c0.5-1.4,0.9-2.8,1.1-4.3
	c1.7-11.5-4.9-23.8-9-24.7c-1.1-0.3-3.1-4.4-3.1-11.1l-0.5,0.1l-8.7,1.7c0,0,0.2,2.7,0.2,5.3c0,2.1-0.1,4.3-0.6,4.6
	c-0.6,0.1-1.2,0.2-1.2,0.2s-7.3,5.2-7.8,12.1c-0.6,9.3,5.9,20.4,0.1,39C301.1,153.3,341.6,141.3,339.3,136.3z"/>
<path class="st32" d="M316.3,73c0,0,0.2,2.7,0.2,5.3c4.9-0.1,7.4-4.6,8.5-7L316.3,73z"/>
<path class="st33" d="M325.9,70.4c0,0,2.5-4,3.2-7.4c0.4-2.5-0.8-11.5-9.9-10.2c0,0-2.7,0.3-5.1,1.9c-2,1.3-4.8,4.2-1.6,12.2
	l0.8,2.7L325.9,70.4z"/>
<path class="st29" d="M314.7,75.5c0,0,11.5,0.2,11.5-7c0-7.1,1.5-11.9-5.8-12.4c-7.3-0.4-8.8,2.3-9.3,4.7
	C310.4,63.2,311.7,75.2,314.7,75.5z"/>
<path class="st33" d="M315.1,56c0,0,3.1,8.4,8,9.6c4.8,1.2,6.9-0.1,6.9-0.1s-3.7-2.9-4.5-8.1C325.5,57.5,317.5,52,315.1,56z"/>
<path class="st33" d="M315.9,56.7c0,0-2.3,1.9-2.9,3.7c-0.6,1.8-0.8,5.6-1.9,5.4c0,0-2.4-5.7,0.3-8.9
	C314.2,53.5,315.9,56.7,315.9,56.7z"/>
<path class="st29" d="M354.3,145.9l-3.4,1c0,0-11.4-18.9-12.4-23.8c-0.3-1.6-1.2-4.8-2.1-8.4c-2-7.4-4.6-16.5-4.6-16.5l-0.8-3.7
	L328,82.1c0,0,5.5,0.6,8.8,1.9c1.1,0.4,1.9,1,2.2,1.6c2.4,5.2,4.8,18.4,6.4,27.9c0.9,5.3,1.6,9.3,2,10.2
	C348.4,126.1,351.6,139.4,354.3,145.9z"/>
<path class="st33" d="M315.5,57c0,0,2.2,8.8,8.3,11.6c0,0-6.1-5.4-6.6-11.2C316.7,51.6,315.5,57,315.5,57z"/>
<path class="st29" d="M341.4,221.1c-1.2,13.1-6.6,21.5-6.6,21.5l-1.8,1.7c0,0-1.7-9.6-2.9-20.5c-1.2-10.4-2.7-21.4-4.5-24.8
	c-2.7-5-4.6-15.3-6.1-26.2c-2.3-18-3.2-37.5-3.2-37.5l21.6-1.1c2.2,3.6,3.1,9.6,3.3,16.4c0.2,7.2-0.3,15.2-1.1,22.4
	c-1.1,10.1-2.6,18.5-3,20.4c0,0,0,0,0,0c0,0.2,0,0.5,0.1,0.7C341.6,202.7,342.2,212.5,341.4,221.1z"/>
<path class="st34" d="M316.2,106.3c-0.5,11.9-2.3,23.6-7.4,22.8c-6.3-0.9-8-6.8-8.3-11.2c-0.2-2.7,0.1-4.9,0.1-4.9s3.1,0,3.6-0.5
	c2.4-2.2,1.7-23.9,2.9-26.1c1.2-2.3,8.9-3.7,8.9-3.7S316.7,94.6,316.2,106.3z"/>
<path class="st35" d="M316.2,106.3c-0.5,11.9-2.3,23.6-7.4,22.8c-6.3-0.9-8-6.8-8.3-11.2c1.6-0.1,4.3-0.5,5.4-2.1
	c1.6-2.4,6.4-17.6,6.4-17.6S314.2,101.6,316.2,106.3z"/>
<path class="st36" d="M329.2,222.9c-0.6,2.3-1.2,4.4-1.8,6.4c-0.1,0.4-0.3,0.9-0.4,1.3c-0.1,0.2-0.1,0.4-0.2,0.6
	c-0.1,0.4-0.3,0.8-0.4,1.2c-0.2,0.5-0.3,1-0.5,1.5c-0.1,0.3-0.3,0.7-0.4,1c-1.9,5.1-3.5,8.3-3.5,8.3l-3.8-0.3c0,0,1.4-6.8,1.7-16.4
	c0-0.3,0-0.7,0-1c0-0.8,0-1.5,0-2.3c0-0.3,0-0.6,0-1c-0.1-8.3-1.1-18.2-4.4-27.6c-2.7-7.7-4.6-14.8-6-21.3c2.3,0.5,4.2,0,10-0.5
	c0.6-0.1,3.5,3.5,6.3,8.3c0.1,6.7,3.4,10,3.4,10C333.3,199.9,331.8,212.4,329.2,222.9z"/>
<path class="st37" d="M341.4,221.1c-1.2,13.1-6.6,21.5-6.6,21.5l-1.8,1.7c0,0-1.7-9.6-2.9-20.5c-1.2-10.4-2.7-21.4-4.5-24.8
	c-2.7-5-4.6-15.3-6.1-26.2c2,0.8,8.7,3,20.6,0.3c-1.1,10.1-2.6,18.5-3,20.4c0,0,0,0,0,0c0,0.2,0,0.5,0.1,0.7
	C341.6,202.7,342.2,212.5,341.4,221.1z"/>
<path class="st25" d="M347.9,178.6c0,0-7.4,0.9-14.1,1.9c-8.2,1.1-19.3,2.8-29.6-1c0,0-3.7-18.9,1.7-45.2c1.7-8.2,3.6-11.8,3.6-11.8
	s9.8,2.4,19.7,0.5c1.4-0.3,2.8-0.6,4.2-1.1c0,0,6.1,13,7.8,18.6C342.8,146,347.9,178.6,347.9,178.6z"/>
<path class="st38" d="M347.9,178.6c0,0-7.4,0.9-14.1,1.9c-9.1-13.2-5.6-56.7-5.6-56.7c0.4-0.3,0.7-0.6,1.1-0.8
	c1.4-0.3,2.8-0.6,4.2-1.1c0,0,6.1,13,7.8,18.6C342.8,146,347.9,178.6,347.9,178.6z"/>
<path class="st34" d="M355.5,128.4c0,3-3,4.8-6.3,5.7c-3.1,0.9-6.5,0.8-7.5,0.1c-1.8-1.2-4.7-14.6-5.6-18.7
	c-0.2-0.7-0.2-1.2-0.2-1.2s-2.3,5.6-2.4,6.1c0,0.2-0.1,0.6-0.1,0.8c0,0.3,0,0.6,0,0.6s-12.7,6.4-23.8,0.5c0,0-4.5-26.1-2.6-30.6
	c1-2.2,6.1-6.8,8.1-8.8c0.5-0.4,0.4-1.3,0.2-2.1c-0.1-0.7,0.5-1.3,1.1-1.1c1.3,0.3,3.7,0.3,6.2-0.5c1.3-0.4,2.6-1,3.8-1.8
	c0.4-0.2,0.8,0,0.9,0.4c0.2,1.6,0.7,4.4,1.5,4.4c1.2,0,9.3,1,9.9,2c0.2,0.3,2.3,5.1,5,11.4c0,0,0,0,0,0
	C348.6,107.3,355.5,124.6,355.5,128.4z"/>
<path class="st35" d="M335.9,114.3c0,0-2.3,5.6-2.4,6.1c0,0.2-0.1,0.6-0.1,0.8c-1.1,0.9-2.5,1.6-3.9,2c-4,1.2-5.7-6.4-5.4-10.2
	c0.2-3.8,5.8-14.6,7.7-14.8C333.6,98.1,335.9,114.3,335.9,114.3z"/>
<path class="st39" d="M336.1,115.5c-0.2-0.7-0.2-1.2-0.2-1.2C336,114.7,336.1,115.1,336.1,115.5z"/>
<g>
	<path class="st40" d="M319.9,125.3c-7.2,0-10.2-2.5-10.4-2.7l-0.5-3.4c0.1,0.1,9.8,5.9,24.8,0.3l-0.3,2.6
		C327.7,124.3,323.6,125.3,319.9,125.3z"/>
</g>
<path class="st35" d="M355.5,128.4c0,3-3,4.8-6.3,5.7c4.5-5.4-5.3-37.7-5.6-38.6C348.6,107.3,355.5,124.6,355.5,128.4z"/>
<path class="st35" d="M328.8,82.1c0,0-6.1,3.8-10.6,2.9c0,0-1.1-0.7,0.4-1.4c1.4-0.7,4.7-2.6,4-4.5c1.3-0.4,2.6-1,3.8-1.8
	c0.4-0.2,0.8,0,0.9,0.4C327.5,79.3,328,82.1,328.8,82.1z"/>
<g>
	<path d="M324.1,246.4h-2.4c-0.8-0.1-1.4-0.4-2.2-0.5c-1.3-0.2-1.8,0.4-2,0.5c0,0,0,0,0,0h-10.3c-0.3-0.4,0-1.2,0.2-1.9
		c0.2-0.4,0.5-0.8,1-0.9c1.1-0.3,3.2-0.6,5.2-2.4c1.1-1,5.3-3.7,5.3-3.7l0,0c0.1,0,0.5,0.1,2.5,1.8c1,0.8,2.7-1.2,2.7-1.2
		s0.3,0.3,0.6,0.8c0.2,0.4,0.3,0.9,0.2,1.6c-0.2,0.9,0.3,2.6,0.7,3.8c0.2,0.7,0.4,1.2,0.4,1.2S326.2,246.1,324.1,246.4z"/>
	<path d="M324.7,239c-0.6,0.4-1.8,1.2-2.6,1.3c-1.1,0.1-3.1-2.6-3.1-2.6l0,0c0.1,0,0.5,0.1,2.5,1.8c1,0.8,2.7-1.2,2.7-1.2
		S324.5,238.5,324.7,239z"/>
	<path d="M324.1,246.4h-2.4c-0.8-0.1-1.4-0.4-2.2-0.5c-1.3-0.2-1.8,0.4-2,0.5c0,0,0,0,0,0h-10.3c-0.3-0.4,0-1.2,0.2-1.9
		c0.3-0.3,0.4,1.2,0.6,1.4c0.2,0.2,8.4,0.1,8.8-0.3c0.5-0.3,1.9-0.9,3.9-0.5c1.7,0.4,4.3-0.6,4.9-0.9c0.2,0.7,0.4,1.2,0.4,1.2
		S326.2,246.1,324.1,246.4z"/>
</g>
<g>
	<path d="M337,246.4h-2.4c-0.8-0.1-1.4-0.4-2.2-0.5c-1.3-0.2-1.8,0.4-2,0.5c0,0,0,0,0,0h-10.3c-0.3-0.4,0-1.2,0.2-1.9
		c0.2-0.4,0.5-0.8,1-0.9c1.1-0.3,3.2-0.6,5.2-2.4c1.1-1,5.3-3.7,5.3-3.7l0,0c0.1,0,0.5,0.1,2.5,1.8c1,0.8,2.7-1.2,2.7-1.2
		s0.3,0.3,0.6,0.8c0.2,0.4,0.3,0.9,0.2,1.6c-0.2,0.9,0.3,2.6,0.7,3.8c0.2,0.7,0.4,1.2,0.4,1.2S339.1,246.1,337,246.4z"/>
	<path d="M337.6,239c-0.6,0.4-1.8,1.2-2.6,1.3c-1.1,0.1-3.1-2.6-3.1-2.6l0,0c0.1,0,0.5,0.1,2.5,1.8c1,0.8,2.7-1.2,2.7-1.2
		S337.4,238.5,337.6,239z"/>
	<path d="M337,246.4h-2.4c-0.8-0.1-1.4-0.4-2.2-0.5c-1.3-0.2-1.8,0.4-2,0.5c0,0,0,0,0,0h-10.3c-0.3-0.4,0-1.2,0.2-1.9
		c0.3-0.3,0.4,1.2,0.6,1.4c0.2,0.2,8.4,0.1,8.8-0.3c0.5-0.3,1.9-0.9,3.9-0.5c1.7,0.4,4.3-0.6,4.9-0.9c0.2,0.7,0.4,1.2,0.4,1.2
		S339.1,246.1,337,246.4z"/>
</g>
<g>
	<path class="st41" d="M362.8,160.6c-0.2-1.2-1.1-2.2-2.2-2.6c-1.9-0.7-4.9-1.3-8.6-0.2c-6.3,1.9-6.9,5.7-6.5,8.5
		c0.4,2.8-0.8,7.2-0.6,10.4c0.2,3.2,1.1,11.1,5.8,10.7c4.7-0.4,19.8-4.5,19.8-4.5s2.6-5-2.7-12.1
		C364.4,166.6,363.2,162.7,362.8,160.6z"/>
	<g>
		<g>
			<path class="st41" d="M359.9,156.9l-1.3,0.1c0,0-0.1-0.9-0.7-1.4c-0.4-0.4-1.1-0.6-1.8-0.4c-0.7,0.1-1.2,0.4-1.5,1
				c-0.4,0.7-0.2,1.7-0.2,1.7l-1.2,0.3c0-0.1-0.4-1.6,0.3-3c0.4-0.9,1.2-1.4,2.3-1.6c1.1-0.2,2.1,0.1,2.8,0.8
				C359.7,155.4,359.9,156.9,359.9,156.9z"/>
		</g>
		<g>
			<path class="st42" d="M373.4,182.3c0,0-15.1,4.1-19.8,4.5c-4.7,0.4-5.6-7.5-5.8-10.7c-0.2-3.2,1.1-7.6,0.6-10.4
				c-0.1-0.5-0.1-1.1-0.1-1.7c0.1-2.5,1.5-5.3,6.6-6.8c3.8-1.1,6.8-0.5,8.7,0.2c1.1,0.4,2,1.4,2.2,2.6c0.1,0.2,0.1,0.5,0.2,0.8
				c0.5,2.2,1.8,5.7,4.6,9.4C376,177.3,373.4,182.3,373.4,182.3z"/>
			<path class="st43" d="M350.2,176.7l9.1-2.1c0,0,2.1,6.5-2.2,7.7C352.8,183.5,351,181,350.2,176.7z"/>
			<path class="st41" d="M350.2,176.7c0,0,2.1,2,4.9,1.3c2.8-0.7,4.2-3.4,4.2-3.4L350.2,176.7z"/>
			<path class="st43" d="M361.1,174.2l9.1-2.1c0,0,2.1,6.5-2.2,7.7C363.7,181,361.9,178.5,361.1,174.2z"/>
			<path class="st41" d="M361.1,174.2c0,0,2.1,2,4.9,1.3c2.8-0.7,4.2-3.4,4.2-3.4L361.1,174.2z"/>
			<path class="st43" d="M365.9,159.9c0.1,0.2,0.1,0.5,0.2,0.8c-1.2,2.5-3.5,5.6-7.3,6.4c-6.6,1.3-10.3-3.2-10.3-3.2
				c0.1-2.5,1.5-5.3,6.6-6.8c3.8-1.1,6.8-0.5,8.7,0.2C364.8,157.7,365.7,158.7,365.9,159.9z"/>
			<path class="st44" d="M358.8,168.5L358.8,168.5c-0.4,0.1-0.8-0.2-0.9-0.6l-0.2-0.7c-0.1-0.4,0.2-0.8,0.6-0.9l0,0
				c0.4-0.1,0.8,0.2,0.9,0.6l0.2,0.7C359.5,168,359.2,168.4,358.8,168.5z"/>
		</g>
	</g>
</g>
<path class="st29" d="M354,145.3c0,0,1,2.5,2.1,3.2s2.1,2.3,2.4,3.7c0.4,2.4-1.5,4-2.8,4c-1.4,0-2.7-1.9-3.5-6.4
	c0-0.2-1.4-2.8-1.4-2.8L354,145.3z"/>
<path class="st45" d="M421.2,239c0,0,0.7,6.8-0.8,7.5c-1.5,0.7-19.8,0.1-19.8,0.1s0-2.3,3.2-2.7c3.2-0.4,8.7-2.2,9.7-6.3
	C414.5,233.4,421.2,239,421.2,239z"/>
<path class="st46" d="M425.5,65.8c0,0-12,4.7-13.2,2c-0.2-1.1-0.3-2.1-0.4-3c-0.4-3.2-0.4-5-0.4-5l7.9-6.4l1.8-1.4
	c-0.1,1.5,0,2.9,0.2,4.2c0,0.1,0,0.2,0,0.3C422.7,64.2,425.5,65.8,425.5,65.8z"/>
<path class="st47" d="M421.4,56.5c0,0,0,0-0.1,0.1c-0.5,0.9-3.9,6.6-9.5,8.3c-0.4-3.2-0.4-5-0.4-5l7.9-6.4c1,1.2,1.7,2.3,2,2.8
	C421.4,56.4,421.4,56.5,421.4,56.5z"/>
<path class="st46" d="M409.2,59.7c0,0,12.3,2,13.4-5.6c1.2-7.7,3.5-12.6-4.3-14.2c-7.8-1.6-9.8,1.1-10.8,3.5
	C406.5,45.9,406,59,409.2,59.7z"/>
<path class="st48" d="M420.3,52.1c0,0,1.6-1.6,0.7-2.7c-0.9-1-1.5,0.5-2.2,0.5c-0.7,0-2.1-2.2-2.2-4.2c-0.1-2-7.2,1-10.1,0.1
	c-2.9-0.9-5.4-4.8-0.9-6.8c2.6-1.2,15.8-7.5,20.8-1.1c6.4,8.1-2.1,16.6-3.3,17.8c-1.1,1.3-1.8,0.9-1.8,0.9S419.4,53.9,420.3,52.1z"
	/>
<path class="st48" d="M426.7,38.6c0-0.6-0.2-2.2-0.7-3.1c0,0,0,1.6-0.2,2.4C425.6,38.7,426.7,38.6,426.7,38.6z"/>
<path class="st48" d="M428,37.3c0,0-1.5,0.2-1.6,1.4l0.6,0.7C426.9,39.4,426.8,37.8,428,37.3z"/>
<path class="st49" d="M439.4,239c0,0,0.7,7-0.8,7.7c-0.6,0.3-20.6,0.1-20.6,0.1s0.8-2.5,3.9-2.9c3.2-0.4,8.7-2.2,9.7-6.3
	C432.7,233.4,439.4,239,439.4,239z"/>
<path class="st23" d="M429.9,134.4c0,0,0,0.7,0,2.1c-0.2,8.7-0.9,42.2-1.6,60.9c0,0.7-0.1,1.3-0.1,2c0,0.3,0,0.7,0,1
	c-0.4,9-1.6,17.9-2.9,25c-1.6,9-3.2,15.2-3.2,15.2c-6,1.2-9.9-1.1-9.9-1.1s-1.6-14-2.2-22.5c-0.2-2.8-1.2-12.1-2.4-23.6
	c-1-8.8-2.1-18.9-3.1-28c-0.1-0.5-0.1-1-0.2-1.5c-1.7-14.8-3-26.8-3-26.8l10.6-1L429.9,134.4z"/>
<path class="st50" d="M425.2,225.4l-17.8-31.9c-1-8.8-2.1-18.9-3.1-28c-0.1-0.5-0.1-1-0.2-1.5c-1.7-14.8-3-26.8-3-26.8l10.6-1
	l18.1,0.4L425.2,225.4z"/>
<path class="st23" d="M403.1,137.2c0,0,10,49.2,18.1,72.9c8.1,23.7,8.2,30.3,8.2,30.3s7.4,1.6,10.7-0.3c0,0,1.9-45-3-57
	c-3.2-7.9-5.7-24.7-4.9-30.8c0.8-6.1,1.6-18.2,1.6-18.2L403.1,137.2z"/>
<path class="st25" d="M431.2,139.9c-2.4,1.7-6.1,2.3-10.1,2.2c-4.8-0.1-10-1.1-14.3-2.3c-2.3-0.7-4.2-1.4-5.6-2.2
	c-6.3-3.3-1.3-52.6,7-66c3.8-6.1,15.5-8,15.5-8c1.9,0.9,7,10.7,7.3,17.5c0.4,7.5-0.3,17-0.3,25.7c0,7.2,1.3,13.5,2.3,18.7
	C434.2,132.3,434.9,137.2,431.2,139.9z"/>
<path class="st38" d="M421,142.1c-4.8-0.1-10-1.1-14.3-2.3c-1.8-4.2-2.6-11.3-0.9-23.1c1.3-8.9,10.4-44.8,10.4-44.8
	C423.6,70.9,438.5,122.3,421,142.1z"/>
<path class="st51" d="M413.3,142.3c0,0-3,5.9-1.5,8.1c1.5,2.3,7-0.7,7.4-2c0.4-1.3,0-7.6,0-7.6L413.3,142.3z"/>
<path class="st51" d="M412.8,142.1c0,0-1.4,1.3-1.5,2.3c-0.1,1-1.2,3.1-0.9,3.3c0.9,0.6,2.3-2,2.3-2l0.5-2.9L412.8,142.1z"/>
<path class="st25" d="M428.9,83.4c0,0-1.4,20.4-1.4,28.9c0,8.5-6.7,30.9-6.7,30.9s-4.5,0.4-6.2,0.1c-2-0.3-3.2-1.2-3.2-1.2
	s1.5-26.6-1.3-36.7c-2.8-10.2-3-30.6-3-30.6s1.6-4.4,10.9-3C429.1,73.4,428.9,83.4,428.9,83.4z"/>
<g>
	<rect x="458.1" y="154.8" class="st52" width="4.4" height="94.3"/>
	<path class="st52" d="M456.2,151.5c0-2.4,1.8-4.3,4.1-4.3c2.3,0,4.1,1.9,4.1,4.3c0,2.4-1.8,4.3-4.1,4.3
		C458.1,155.8,456.2,153.9,456.2,151.5z"/>
	<rect x="456.2" y="247.8" class="st52" width="8" height="2.2"/>
	<rect x="457" y="154" class="st52" width="6.7" height="1.8"/>
</g>
<path class="st1" d="M372,180.5c-10.2,0-21.2-0.7-32.8-2.2c-29.9-3.9-50.7-11.8-50.9-11.9l0.3-5.5c0.2,0.1,20.9,7.9,50.7,11.9
	c27.5,3.6,68.7,4.5,108.5-11.8l0.3,5.5C431.2,173.3,405.6,180.5,372,180.5z"/>
<g>
	<rect x="277.9" y="154.8" class="st52" width="4.4" height="94.3"/>
	<path class="st52" d="M276,151.5c0-2.4,1.8-4.3,4.1-4.3s4.1,1.9,4.1,4.3c0,2.4-1.8,4.3-4.1,4.3S276,153.9,276,151.5z"/>
	<rect x="276" y="247.8" class="st52" width="8" height="2.2"/>
	<rect x="276.8" y="154" class="st52" width="6.7" height="1.8"/>
</g>
<polygon class="st52" points="295,161.7 293.9,168.2 284.6,166.6 285.7,160.3 "/>
<path class="st52" d="M290,162.3c-0.3-0.5-0.8-0.8-1.4-1c0,0,0,0-0.1,0c0,0,0,0,0,0h0c-0.1,0-0.1,0-0.2,0l-2.7-0.4l-1.6-0.3
	c-0.6-0.1-1.2,0-1.7,0.4c0,0-0.1,0.1-0.1,0.1c-0.5,0.4-0.9,1-1,1.7c-0.2,1.1,0.3,2.1,1.1,2.6c0.3,0.2,0.6,0.3,1,0.4l1.4,0.2l0.6,0.1
	l2.3,0.4c0.1,0,0.3,0,0.4,0c1.2,0,2.2-0.9,2.4-2.2C290.5,163.6,290.4,162.9,290,162.3z M289.9,164.2c-0.2,1.1-1.1,1.8-2.1,1.7
	l-2.3-0.4l-0.6-0.1l-1.4-0.2c-0.4-0.1-0.8-0.3-1-0.6c-0.4-0.4-0.6-1.1-0.5-1.7c0.1-0.4,0.3-0.8,0.5-1.1c0.1-0.1,0.1-0.1,0.2-0.2
	c0.4-0.3,0.9-0.4,1.4-0.4l1.6,0.3h0l0.4,0.1l2.3,0.4c0.5,0.1,0.9,0.4,1.2,0.8C289.8,163.1,289.9,163.6,289.9,164.2z"/>
<polygon class="st52" points="446.4,167.7 445.6,161.2 455,159.8 455.7,166.2 "/>
<path class="st52" d="M459.3,162.5c-0.1-0.8-0.6-1.5-1.2-1.9c-0.5-0.3-1-0.4-1.6-0.3l-1.4,0.2l-2.9,0.5c-0.1,0-0.3,0.1-0.4,0.1
	c-0.3,0.1-0.6,0.3-0.9,0.5c-0.6,0.6-1,1.4-0.8,2.4c0.1,0.7,0.4,1.3,1,1.7c0.2,0.1,0.3,0.2,0.5,0.3l0,0c0.4,0.2,0.9,0.3,1.3,0.2
	l2.7-0.4l1.6-0.3c0.3-0.1,0.6-0.2,0.9-0.3c0.3-0.2,0.5-0.4,0.7-0.7C459.2,163.8,459.4,163.1,459.3,162.5z M458.4,164
	c-0.1,0.1-0.2,0.2-0.3,0.3c-0.3,0.3-0.6,0.4-1,0.5l-1.6,0.3l-2.8,0.4c-0.5,0.1-1-0.1-1.4-0.3c0,0,0,0,0,0c-0.4-0.3-0.7-0.8-0.7-1.3
	c-0.1-0.6,0.1-1.1,0.4-1.5v0c0.3-0.4,0.7-0.7,1.2-0.8l2.9-0.5l1.4-0.2c0.6-0.1,1.1,0.1,1.5,0.5c0.3,0.3,0.6,0.7,0.6,1.2
	C458.8,163.1,458.7,163.6,458.4,164z"/>
<g>
	<rect x="1505.5" y="134.8" class="st53" width="4.4" height="94.3"/>
	<path class="st53" d="M1503.6,131.5c0-2.4,1.8-4.3,4.1-4.3s4.1,1.9,4.1,4.3c0,2.4-1.8,4.3-4.1,4.3S1503.6,133.9,1503.6,131.5z"/>
	<rect x="1503.6" y="227.8" class="st53" width="8" height="2.2"/>
	<rect x="1504.4" y="134" class="st53" width="6.7" height="1.8"/>
</g>
<polygon class="st53" points="1493.8,147.7 1493,141.2 1502.4,139.8 1503,146.2 "/>
<path class="st53" d="M1506.7,142.5c-0.1-0.8-0.6-1.5-1.2-1.9c-0.5-0.3-1-0.4-1.6-0.3l-1.4,0.2l-2.9,0.5c-0.1,0-0.3,0.1-0.4,0.1
	c-0.3,0.1-0.6,0.3-0.9,0.5c-0.6,0.6-1,1.4-0.8,2.4c0.1,0.7,0.4,1.3,1,1.7c0.2,0.1,0.3,0.2,0.5,0.3l0,0c0.4,0.2,0.9,0.3,1.3,0.2
	l2.7-0.4l1.6-0.3c0.3-0.1,0.6-0.2,0.9-0.3c0.3-0.2,0.5-0.4,0.7-0.7C1506.6,143.8,1506.8,143.1,1506.7,142.5z M1505.7,144
	c-0.1,0.1-0.2,0.2-0.3,0.3c-0.3,0.3-0.6,0.4-1,0.5l-1.6,0.3l-2.8,0.4c-0.5,0.1-1-0.1-1.4-0.3c0,0,0,0,0,0c-0.4-0.3-0.7-0.8-0.7-1.3
	c-0.1-0.6,0.1-1.1,0.4-1.5v0c0.3-0.4,0.7-0.7,1.2-0.8l2.9-0.5l1.4-0.2c0.6-0.1,1.1,0.1,1.5,0.5c0.3,0.3,0.6,0.7,0.6,1.2
	C1506.2,143.1,1506,143.6,1505.7,144z"/>
<g>
	<path d="M149.5,14.6c-11.2,0-20.4,9.1-20.4,20.4c0,11.2,9.1,20.4,20.4,20.4c11.2,0,20.4-9.1,20.4-20.4
		C169.8,23.7,160.7,14.6,149.5,14.6z M149.5,54c-10.5,0-19-8.5-19-19c0-10.5,8.5-19,19-19c10.5,0,19,8.5,19,19
		C168.5,45.4,159.9,54,149.5,54z"/>
	<path d="M149.5,19.5c0.4,0,0.8-0.4,0.8-0.8c0-0.4-0.4-0.8-0.8-0.8c-0.4,0-0.8,0.4-0.8,0.8C148.6,19.2,149,19.5,149.5,19.5z"/>
	<path d="M149.5,50.6c-0.4,0-0.8,0.4-0.8,0.8c0,0.4,0.4,0.8,0.8,0.8c0.4,0,0.8-0.4,0.8-0.8C150.3,51,149.9,50.6,149.5,50.6z"/>
	<path d="M165,34.3c-0.4,0-0.8,0.4-0.8,0.8c0,0.4,0.4,0.8,0.8,0.8c0.4,0,0.8-0.4,0.8-0.8C165.8,34.6,165.5,34.3,165,34.3z"/>
	<path d="M157,48c-0.3,0.3-0.3,0.8,0,1.1c0.3,0.3,0.8,0.3,1.1,0c0.3-0.3,0.3-0.8,0-1.1C157.8,47.6,157.3,47.6,157,48z"/>
	<path d="M162.3,42.9c-0.3,0.3-0.3,0.8,0,1.1c0.3,0.3,0.8,0.3,1.1,0c0.3-0.3,0.3-0.8,0-1.1C163.2,42.6,162.6,42.6,162.3,42.9z"/>
	<path d="M163.3,28.1c0.4-0.2,0.6-0.7,0.4-1.1c-0.2-0.4-0.7-0.6-1.1-0.4c-0.4,0.2-0.6,0.7-0.4,1.1C162.4,28.1,162.9,28.3,163.3,28.1
		z"/>
	<path d="M158,21.1c-0.4-0.2-0.9-0.1-1.1,0.2c-0.2,0.4-0.1,0.9,0.2,1.1c0.4,0.2,0.9,0.1,1.1-0.2C158.5,21.9,158.4,21.4,158,21.1z"/>
	<path d="M135.1,34c-0.4,0-0.8,0.4-0.8,0.8c0,0.4,0.4,0.8,0.8,0.8c0.4,0,0.8-0.4,0.8-0.8C135.9,34.4,135.5,34,135.1,34z"/>
	<path d="M141.9,47.7c-0.3,0.3-0.3,0.8,0,1.1c0.3,0.3,0.8,0.3,1.1,0c0.3-0.3,0.3-0.8,0-1.1C142.7,47.4,142.2,47.4,141.9,47.7z"/>
	<path d="M136.6,42.6c-0.3,0.3-0.3,0.8,0,1.1c0.3,0.3,0.8,0.3,1.1,0c0.3-0.3,0.3-0.8,0-1.1C137.4,42.3,136.9,42.3,136.6,42.6z"/>
	<path d="M136.8,27.8c0.4,0.2,0.9,0,1.1-0.4c0.2-0.4,0-0.9-0.4-1.1c-0.4-0.2-0.9,0-1.1,0.4C136.2,27.1,136.4,27.6,136.8,27.8z"/>
	<path d="M142,20.9c-0.4,0.2-0.5,0.7-0.2,1.1c0.2,0.4,0.7,0.5,1.1,0.2c0.4-0.2,0.5-0.7,0.2-1.1C142.9,20.7,142.4,20.6,142,20.9z"/>
	<path d="M157.1,29l-6.6,4.6c0,0,0,0-0.1,0L149.7,21v12.5c-0.3,0.1-0.5,0.4-0.5,0.7c0,0.4,0.4,0.8,0.8,0.8c0.4,0,0.8-0.4,0.8-0.8
		c0,0,0-0.1,0-0.1L157.1,29z"/>
</g>
</svg>
