<svg version="1.1" id="Layer_1" xmlns="http://www.w3.org/2000/svg" x="0" y="0" viewBox="0 0 460 280" xml:space="preserve"><style>.st7{fill:#c4c2ba}.st11{fill:#d6b85c}.st14{fill:#55a4db}.st15{fill:#4e94c5}.st16{fill:#aacaec}.st17{fill:#2d4576}.st18{fill:#466cb9}.st19{fill:#35528d}.st23{fill:#162e31}.st24{fill:#369975}.st25{fill:#4aba95}.st26{fill:#2d4b4f}.st27{fill:#fff}.st28{fill:#5b8992}.st29{fill:#487076}.st30{fill:#d8ad8f}.st31{fill:#e5c0a8}.st32{fill:#491902}.st33{fill:#895f49}.st34{fill:#717072}.st35{fill:#a8775b}.st36{fill:#7f3724}.st37{fill:#871d40}</style><path d="M78.25.18v235.48h70.06V.18H78.25zm42.74 159.08h5.98v11.22h-5.98v-11.22zm0-20.45h5.98v11.22h-5.98v-11.22zm0-20.44h5.98v11.23h-5.98v-11.23zm0-20.44h5.98v11.22h-5.98V97.93zm0-20.45h5.98V88.7h-5.98V77.48zm0-20.45h5.98v11.22h-5.98V57.03zm0-21.42h5.98v11.22h-5.98V35.61zm0-20.45h5.98v11.23h-5.98V15.16zm0-14.98h5.98v5.76h-5.98V.18zm-11.07 159.08h5.98v11.22h-5.98v-11.22zm0-20.45h5.98v11.22h-5.98v-11.22zm0-20.44h5.98v11.23h-5.98v-11.23zm0-20.44h5.98v11.22h-5.98V97.93zm0-20.45h5.98V88.7h-5.98V77.48zm0-20.45h5.98v11.22h-5.98V57.03zm0-21.42h5.98v11.22h-5.98V35.61zm0-20.45h5.98v11.23h-5.98V15.16zm0-14.98h5.98v5.76h-5.98V.18zM98.84 159.26h5.98v11.22h-5.98v-11.22zm0-20.45h5.98v11.22h-5.98v-11.22zm0-20.44h5.98v11.23h-5.98v-11.23zm0-20.44h5.98v11.22h-5.98V97.93zm0-20.45h5.98V88.7h-5.98V77.48zm0-20.45h5.98v11.22h-5.98V57.03zm0-21.42h5.98v11.22h-5.98V35.61zm0-20.45h5.98v11.23h-5.98V15.16zm0-14.98h5.98v5.76h-5.98V.18z" opacity=".8" fill="#c4c2ba"/><path d="M148.33.18v235.48h125.04V.18H148.33zm92.86 116.53h10.48v16.71h-10.48v-16.71zm0-30.46h10.48v16.72h-10.48V86.25zm0-30.46h10.48v16.72h-10.48V55.79zm0-30.45h10.48v16.72h-10.48V25.34zm-30.12 91.37h10.48v16.71h-10.48v-16.71zm0-30.46h10.48v16.72h-10.48V86.25zm0-30.46h10.48v16.72h-10.48V55.79zm0-30.45h10.48v16.72h-10.48V25.34zm-26.11 60.91h10.48v16.72h-10.48V86.25zm0-30.46h10.48v16.72h-10.48V55.79zm0-30.45h10.48v16.72h-10.48V25.34z" opacity=".61" fill="#c4c2ba"/><path opacity=".5" fill="#c4c2ba" d="M44 .18h34.6v235.48H44z"/><path d="M.44.18v235.48h43.85V.18H.44z" opacity=".7" fill="#c4c2ba"/><path opacity=".35" fill="#c4c2ba" d="M447.03.18h13.41v239h-13.41z"/><path opacity=".81" fill="#c4c2ba" d="M367.8.18h78.94v235.48H367.8z"/><path opacity=".53" fill="#c4c2ba" d="M341.88.18h25.92v235.48h-25.92z"/><path class="st7" d="M390.75 55.05l-5.68-1.28V36.3l5.66 1.42zM404.55 58.14l-5.45-1.22-.05-17.11 5.42 1.36zM417.77 61.11l-5.22-1.18-.1-16.76 5.21 1.3zM430.48 63.95l-5.03-1.12-.14-16.44 5 1.25zM390.79 85.85l-5.72-1.02v-17.7l5.69 1.17zM404.66 88.32l-5.47-.98-.05-17.33 5.46 1.11zM417.98 90.68l-5.26-.93-.1-16.99 5.24 1.08zM430.75 92.94l-5.05-.89-.13-16.64 5.02 1.02zM390.83 117.07l-5.76-.76V98.38l5.73.9zM404.8 118.89l-5.52-.73-.06-17.56 5.5.87zM418.19 120.62l-5.29-.68-.1-17.2 5.27.83zM431.04 122.3l-5.08-.66-.14-16.86 5.05.8zM390.86 148.69l-5.79-.47v-18.18l5.77.63zM404.93 149.84l-5.56-.45-.05-17.79 5.54.61zM418.4 150.95l-5.32-.44-.1-17.41 5.3.57zM431.33 152.01l-5.11-.42-.15-17.06 5.08.55zM390.9 180.75l-5.83-.2v-18.43l5.81.36zM405.06 181.22l-5.59-.19-.06-18.03 5.58.34zM418.62 181.66l-5.35-.17-.12-17.65 5.35.33zM431.61 182.1l-5.14-.17-.14-17.29 5.12.32zM390.58 24.26l-5.51-1.33V5.41l5.53 1.41zM404.12 27.51l-5.37-1.29.05-17.3 5.4 1.39zM417.33 30.69l-5.24-1.26.1-17.07 5.28 1.34zM430.24 33.79l-5.13-1.23.15-16.86 5.15 1.32z"/><path opacity=".83" fill="#c4c2ba" d="M272.75 235.66h69.13V.18l-69.13.37z"/><path class="st7" d="M321.72 58.17l4.97-1.23V40.06l-4.95 1.37zM309.65 61.17l4.76-1.19.05-16.54-4.75 1.32zM298.06 64.03l4.58-1.13.08-16.21-4.56 1.26zM286.95 66.78l4.39-1.08.12-15.89-4.37 1.21zM321.69 87.95l5-.99v-17.1l-4.98 1.13zM309.54 90.34l4.8-.95.05-16.75-4.79 1.08zM297.88 92.62l4.6-.9.09-16.42-4.58 1.04zM286.7 94.81l4.41-.86.13-16.1-4.4 1zM321.65 118.12l5.04-.72v-17.34l-5.01.87zM309.43 119.89l4.82-.7.05-16.98-4.82.84zM297.7 121.56l4.63-.66.09-16.63-4.61.81zM286.46 123.18l4.44-.64.13-16.3-4.44.78z"/><g><path class="st7" d="M321.63 148.7l5.06-.46v-17.57l-5.05.61zM309.31 149.81l4.86-.43.05-17.21-4.84.59zM297.51 150.88l4.67-.42.09-16.84-4.65.55zM286.2 151.9l4.47-.4.13-16.5-4.45.54z"/></g><g><path class="st7" d="M321.59 179.68l5.1-.19v-17.81l-5.08.34zM309.2 180.14l4.89-.19.04-17.42-4.87.32zM297.32 180.57l4.69-.16.1-17.07-4.68.31zM285.95 180.99l4.49-.16.13-16.71-4.49.3z"/></g><g><path class="st7" d="M321.88 28.42l4.81-1.29V10.19l-4.83 1.37zM310.01 31.56l4.71-1.25-.04-16.72-4.73 1.34zM298.44 34.63l4.6-1.22-.09-16.5-4.61 1.3zM287.15 37.62l4.48-1.18-.12-16.3-4.5 1.27z"/></g><path d="M28.61 3.04h-8.04v14.33h8.04V3.04zm-25.44 0v14.33h8.03V3.04H3.17zm25.44 28.01h-8.04v14.33h8.04V31.05zm-17.41 0H3.17v14.33h8.03V31.05zm17.41 27.99h-8.04v14.33h8.04V59.04zm-17.41 0H3.17v14.33h8.03V59.04zm17.41 28.01h-8.04v14.33h8.04V87.05zm-17.41 0H3.17v14.33h8.03V87.05zm17.41 28.01h-8.04v14.33h8.04v-14.33zm-17.41 0H3.17v14.33h8.03v-14.33zm17.41 28h-8.04v14.33h8.04v-14.33zm-17.41 0H3.17v14.33h8.03v-14.33zm17.41 28h-8.04v14.33h8.04v-14.33zm-17.41 0H3.17v14.33h8.03v-14.33z" opacity=".6" fill="#c4c2ba"/><g><path fill="#9c9b80" d="M404.44 215.77l25.4-.13-.64-136.56-25.49-19.68z"/><path class="st11" d="M400.62 85.49l36.74-.17 4.91-19.74-38.49-6.18 10.74 11.79z"/><path fill="#c49f31" d="M443 221.86l-41.74.2-.64-136.57 41.65-19.99z"/><path transform="matrix(1 -.00465 .00465 1 -.713 1.963)" fill="#e2e0b6" d="M405.95 86.85h31.74v135.11h-31.74z"/><g><path transform="matrix(1 -.00504 .00504 1 -.5 2.078)" class="st14" d="M405.82 97.87h11.91v4.54h-11.91z"/><path transform="matrix(1 -.00511 .00511 1 -.498 2.107)" class="st15" d="M405.81 97.87h11.91v1.32h-11.91z"/><path transform="matrix(1 -.00486 .00486 1 -.482 1.992)" class="st16" d="M409.1 97.88h1.37v4.54h-1.37z"/><path transform="matrix(1 -.00467 .00467 1 -.463 1.925)" class="st16" d="M411.77 97.86h1.37v4.54h-1.37z"/><path transform="matrix(1 -.00485 .00485 1 -.48 2.08)" class="st14" d="M419.71 97.79h17.59v4.54h-17.59z"/><path transform="matrix(1 -.00511 .00511 1 -.498 2.192)" class="st15" d="M419.7 97.79h17.59v1.32H419.7z"/><path transform="matrix(1 -.00467 .00467 1 -.462 1.978)" class="st16" d="M423 97.81h1.37v4.54H423z"/><path transform="matrix(1 -.00486 .00486 1 -.481 2.072)" class="st16" d="M425.67 97.8h1.37v4.54h-1.37z"/><path transform="matrix(1 -.00486 .00486 1 -.516 2.001)" class="st14" d="M405.85 104.91h11.91v4.54h-11.91z"/><path transform="matrix(1 -.00514 .00514 1 -.537 2.118)" class="st15" d="M405.84 104.91h11.91v1.32h-11.91z"/><path transform="matrix(1 -.00467 .00467 1 -.496 1.915)" class="st16" d="M409.14 104.92h1.37v4.54h-1.37z"/><path transform="matrix(1 -.00486 .00486 1 -.516 2.005)" class="st16" d="M411.81 104.9h1.37v4.54h-1.37z"/><path transform="matrix(1 -.00449 .00449 1 -.476 1.924)" class="st14" d="M419.74 104.83h17.59v4.54h-17.59z"/><path transform="matrix(1 -.00514 .00514 1 -.537 2.205)" class="st15" d="M419.74 104.83h17.59v1.32h-17.59z"/><path class="st16" d="M423.02 104.86l.02 4.54 1.37-.01-.02-4.54z"/><path transform="matrix(1 -.00467 .00467 1 -.495 1.991)" class="st16" d="M425.7 104.84h1.37v4.54h-1.37z"/><path transform="matrix(1 -.00448 .00448 1 -.413 1.846)" class="st14" d="M405.79 90.83h11.91v4.54h-11.91z"/><path transform="matrix(1 -.00511 .00511 1 -.462 2.107)" class="st15" d="M405.78 90.83h11.91v1.32h-11.91z"/><path transform="matrix(1 -.00448 .00448 1 -.413 1.837)" class="st16" d="M409.07 90.84h1.37v4.54h-1.37z"/><path transform="matrix(1 -.00467 .00467 1 -.43 1.927)" class="st16" d="M411.74 90.82h1.37v4.54h-1.37z"/><path transform="matrix(1 -.00467 .00467 1 -.43 2.002)" class="st14" d="M419.68 90.75h17.59v4.54h-17.59z"/><path transform="matrix(1 -.00386 .00386 1 -.35 1.654)" class="st15" d="M419.67 90.75h17.59v1.32h-17.59z"/><path transform="matrix(1 -.00486 .00486 1 -.447 2.059)" class="st16" d="M422.96 90.77h1.37v4.54h-1.37z"/><path transform="matrix(1 -.00467 .00467 1 -.43 1.992)" class="st16" d="M425.63 90.76H427v4.54h-1.37z"/><g><path transform="matrix(1 -.00467 .00467 1 -.528 1.923)" class="st14" d="M405.89 111.95h11.91v4.54h-11.91z"/><path transform="matrix(1 -.00384 .00384 1 -.429 1.58)" class="st15" d="M405.88 111.95h11.91v1.32h-11.91z"/><path class="st16" d="M409.16 111.96l.02 4.54 1.37-.01-.02-4.54z"/><path transform="matrix(1 -.00504 .00504 1 -.57 2.082)" class="st16" d="M411.84 111.94h1.37v4.54h-1.37z"/><path transform="matrix(1 -.00485 .00485 1 -.549 2.08)" class="st14" d="M419.78 111.87h17.59v4.54h-17.59z"/><path transform="matrix(1 -.00447 .00447 1 -.5 1.919)" class="st15" d="M419.77 111.87h17.59v1.32h-17.59z"/><path transform="matrix(1 -.00485 .00485 1 -.549 2.058)" class="st16" d="M423.06 111.89h1.37v4.54h-1.37z"/><path transform="matrix(1 -.00486 .00486 1 -.55 2.073)" class="st16" d="M425.73 111.88h1.37v4.54h-1.37z"/></g><g><path transform="matrix(1 -.00467 .00467 1 -.562 1.926)" class="st14" d="M405.92 118.99h11.91v4.54h-11.91z"/><path transform="matrix(1 -.00514 .00514 1 -.61 2.12)" class="st15" d="M405.91 118.99h11.91v1.32h-11.91z"/><path class="st16" d="M409.19 119l.02 4.54 1.37-.01-.02-4.54z"/><path transform="matrix(1 -.00467 .00467 1 -.562 1.929)" class="st16" d="M411.87 118.98h1.37v4.54h-1.37z"/><path transform="matrix(1 -.00486 .00486 1 -.584 2.084)" class="st14" d="M419.81 118.91h17.59v4.54h-17.59z"/><path transform="matrix(1 -.00512 .00512 1 -.606 2.195)" class="st15" d="M419.8 118.91h17.59v1.32H419.8z"/><path transform="matrix(1 -.00467 .00467 1 -.562 1.982)" class="st16" d="M423.1 118.93h1.37v4.54h-1.37z"/><path transform="matrix(1 -.00485 .00485 1 -.583 2.071)" class="st16" d="M425.77 118.92h1.37v4.54h-1.37z"/></g><g><path transform="matrix(1 -.00485 .00485 1 -.618 2)" class="st14" d="M405.95 126.03h11.91v4.54h-11.91z"/><path transform="matrix(1 -.00448 .00448 1 -.563 1.845)" class="st15" d="M405.94 126.03h11.91v1.32h-11.91z"/><path transform="matrix(1 -.00448 .00448 1 -.57 1.838)" class="st16" d="M409.24 126.04h1.37v4.54h-1.37z"/><path transform="matrix(1 -.00486 .00486 1 -.618 2.006)" class="st16" d="M411.91 126.02h1.37v4.54h-1.37z"/><path transform="matrix(1 -.00486 .00486 1 -.618 2.084)" class="st14" d="M419.84 125.95h17.59v4.54h-17.59z"/><path transform="matrix(1 -.00513 .00513 1 -.644 2.202)" class="st15" d="M419.84 125.95h17.59v1.32h-17.59z"/><path transform="matrix(1 -.00448 .00448 1 -.57 1.9)" class="st16" d="M423.13 125.97h1.37v4.54h-1.37z"/><path transform="matrix(1 -.00467 .00467 1 -.594 1.994)" class="st16" d="M425.8 125.96h1.37v4.54h-1.37z"/></g><g><path transform="matrix(1 -.00486 .00486 1 -.653 2.003)" class="st14" d="M405.98 133.07h11.91v4.54h-11.91z"/><path transform="matrix(1 -.00513 .00513 1 -.681 2.116)" class="st15" d="M405.98 133.07h11.91v1.32h-11.91z"/><path transform="matrix(1 -.00467 .00467 1 -.628 1.918)" class="st16" d="M409.27 133.08h1.37v4.54h-1.37z"/><path transform="matrix(1 -.00485 .00485 1 -.652 2.004)" class="st16" d="M411.94 133.06h1.37v4.54h-1.37z"/><path transform="matrix(1 -.00467 .00467 1 -.626 2.002)" class="st14" d="M419.88 132.99h17.59v4.54h-17.59z"/><path transform="matrix(1 -.00512 .00512 1 -.678 2.195)" class="st15" d="M419.87 132.99h17.59v1.32h-17.59z"/><path transform="matrix(1 -.00486 .00486 1 -.652 2.06)" class="st16" d="M423.16 133.01h1.37v4.54h-1.37z"/><path transform="matrix(1 -.00504 .00504 1 -.677 2.152)" class="st16" d="M425.83 133h1.37v4.54h-1.37z"/></g><g><path transform="matrix(1 -.00467 .00467 1 -.66 1.924)" class="st14" d="M406.02 140.11h11.91v4.54h-11.91z"/><path transform="matrix(1 -.00512 .00512 1 -.715 2.11)" class="st15" d="M406.01 140.11h11.91v1.32h-11.91z"/><path transform="matrix(1 -.00485 .00485 1 -.686 1.991)" class="st16" d="M409.3 140.11h1.37v4.54h-1.37z"/><path transform="matrix(1 -.00467 .00467 1 -.661 1.93)" class="st16" d="M411.97 140.1h1.37v4.54h-1.37z"/><path transform="matrix(1 -.00486 .00486 1 -.686 2.084)" class="st14" d="M419.91 140.03h17.59v4.54h-17.59z"/><path transform="matrix(1 -.0045 .0045 1 -.63 1.931)" class="st15" d="M419.9 140.03h17.59v1.32H419.9z"/><path transform="matrix(1 -.00448 .00448 1 -.634 1.903)" class="st16" d="M423.2 140.05h1.37v4.54h-1.37z"/><path transform="matrix(1 -.00486 .00486 1 -.686 2.074)" class="st16" d="M425.86 140.04h1.37v4.54h-1.37z"/></g><g><path transform="matrix(1 -.00486 .00486 1 -.721 2.003)" class="st14" d="M406.05 147.15h11.91v4.54h-11.91z"/><path transform="matrix(1 -.00448 .00448 1 -.658 1.846)" class="st15" d="M406.04 147.15h11.91v1.32h-11.91z"/><path class="st16" d="M409.32 147.16l.03 4.54 1.37-.01-.03-4.54z"/><path transform="matrix(1 -.00485 .00485 1 -.72 2.004)" class="st16" d="M412 147.14h1.37v4.54H412z"/><path transform="matrix(1 -.00485 .00485 1 -.72 2.083)" class="st14" d="M419.94 147.07h17.59v4.54h-17.59z"/><path transform="matrix(1 -.00512 .00512 1 -.75 2.196)" class="st15" d="M419.93 147.07h17.59v1.32h-17.59z"/><path transform="matrix(1 -.00485 .00485 1 -.72 2.06)" class="st16" d="M423.23 147.09h1.37v4.54h-1.37z"/><path transform="matrix(1 -.00467 .00467 1 -.692 1.992)" class="st16" d="M425.9 147.08h1.37v4.54h-1.37z"/></g><g><path transform="matrix(1 -.00486 .00486 1 -.755 2.003)" class="st14" d="M406.08 154.19h11.91v4.54h-11.91z"/><path transform="matrix(1 -.00513 .00513 1 -.79 2.117)" class="st15" d="M406.07 154.19h11.91v1.32h-11.91z"/><path transform="matrix(1 -.00467 .00467 1 -.726 1.917)" class="st16" d="M409.37 154.19h1.37v4.54h-1.37z"/><path transform="matrix(1 -.00486 .00486 1 -.755 2.006)" class="st16" d="M412.04 154.18h1.37v4.54h-1.37z"/><path transform="matrix(1 -.00467 .00467 1 -.726 2.006)" class="st14" d="M419.98 154.11h17.59v4.54h-17.59z"/><path transform="matrix(1 -.00514 .00514 1 -.79 2.207)" class="st15" d="M419.97 154.11h17.59v1.32h-17.59z"/><path transform="matrix(1 -.00486 .00486 1 -.755 2.061)" class="st16" d="M423.26 154.13h1.37v4.54h-1.37z"/><path transform="matrix(1 -.00448 .00448 1 -.696 1.913)" class="st16" d="M425.93 154.12h1.37v4.54h-1.37z"/></g><g><path transform="matrix(1 -.00467 .00467 1 -.758 1.925)" class="st14" d="M406.11 161.23h11.91v4.54h-11.91z"/><path transform="matrix(1 -.00511 .00511 1 -.822 2.11)" class="st15" d="M406.11 161.23h11.91v1.32h-11.91z"/><path transform="matrix(1 -.00486 .00486 1 -.79 1.994)" class="st16" d="M409.4 161.23h1.37v4.54h-1.37z"/><path transform="matrix(1 -.00467 .00467 1 -.758 1.928)" class="st16" d="M412.07 161.22h1.37v4.54h-1.37z"/><path transform="matrix(1 -.00485 .00485 1 -.788 2.083)" class="st14" d="M420.01 161.15h17.59v4.54h-17.59z"/><path transform="matrix(1 -.00447 .00447 1 -.72 1.92)" class="st15" d="M420 161.15h17.59v1.32H420z"/><path transform="matrix(1 -.00467 .00467 1 -.758 1.98)" class="st16" d="M423.29 161.17h1.37v4.54h-1.37z"/><path transform="matrix(1 -.00486 .00486 1 -.789 2.074)" class="st16" d="M425.96 161.16h1.37v4.54h-1.37z"/></g><g><path transform="matrix(1 -.00448 .00448 1 -.76 1.85)" class="st14" d="M406.15 168.27h11.91v4.54h-11.91z"/><path transform="matrix(1 -.0045 .0045 1 -.756 1.857)" class="st15" d="M406.14 168.27h11.91v1.32h-11.91z"/><path transform="matrix(1 -.00467 .00467 1 -.792 1.917)" class="st16" d="M409.43 168.27h1.37v4.54h-1.37z"/><path transform="matrix(1 -.00448 .00448 1 -.76 1.853)" class="st16" d="M412.1 168.26h1.37v4.54h-1.37z"/><path transform="matrix(1 -.00486 .00486 1 -.823 2.085)" class="st14" d="M420.04 168.19h17.59v4.54h-17.59z"/><path transform="matrix(1 -.00511 .00511 1 -.858 2.195)" class="st15" d="M420.03 168.19h17.59v1.32h-17.59z"/><path transform="matrix(1 -.00467 .00467 1 -.792 1.982)" class="st16" d="M423.33 168.21h1.37v4.54h-1.37z"/><path transform="matrix(1 -.00485 .00485 1 -.822 2.073)" class="st16" d="M426 168.2h1.37v4.54H426z"/></g><g><path transform="matrix(1 -.00467 .00467 1 -.824 1.925)" class="st14" d="M406.18 175.3h11.91v4.54h-11.91z"/><path transform="matrix(1 -.00447 .00447 1 -.783 1.846)" class="st15" d="M406.17 175.3h11.91v1.32h-11.91z"/><path transform="matrix(1 -.00467 .00467 1 -.824 1.916)" class="st16" d="M409.47 175.31h1.37v4.54h-1.37z"/><path transform="matrix(1 -.00467 .00467 1 -.825 1.93)" class="st16" d="M412.14 175.3h1.37v4.54h-1.37z"/><path transform="matrix(1 -.00467 .00467 1 -.824 2.005)" class="st14" d="M420.08 175.22h17.59v4.54h-17.59z"/><path transform="matrix(1 -.00385 .00385 1 -.674 1.653)" class="st15" d="M420.07 175.22h17.59v1.32h-17.59z"/><path transform="matrix(1 -.00485 .00485 1 -.856 2.06)" class="st16" d="M423.36 175.25h1.37v4.54h-1.37z"/><path transform="matrix(1 -.00467 .00467 1 -.825 1.995)" class="st16" d="M426.03 175.24h1.37v4.54h-1.37z"/></g><g><path transform="matrix(1 -.0043 .0043 1 -.79 1.773)" class="st14" d="M406.21 182.34h11.91v4.54h-11.91z"/><path transform="matrix(1 -.00513 .00513 1 -.933 2.117)" class="st15" d="M406.21 182.34h11.91v1.32h-11.91z"/><path class="st16" d="M409.49 182.36l.02 4.54 1.37-.01-.02-4.54z"/><path transform="matrix(1 -.0043 .0043 1 -.789 1.774)" class="st16" d="M412.17 182.34h1.37v4.54h-1.37z"/><path transform="matrix(1 -.00448 .00448 1 -.822 1.923)" class="st14" d="M420.11 182.26h17.59v4.54h-17.59z"/><path transform="matrix(1 -.00447 .00447 1 -.814 1.92)" class="st15" d="M420.1 182.26h17.59v1.32H420.1z"/><path transform="matrix(1 -.00467 .00467 1 -.857 1.98)" class="st16" d="M423.39 182.29h1.37v4.54h-1.37z"/><path transform="matrix(1 -.00485 .00485 1 -.89 2.073)" class="st16" d="M426.06 182.28h1.37v4.54h-1.37z"/></g><g><path transform="matrix(1 -.00467 .00467 1 -.89 1.925)" class="st14" d="M406.25 189.38h11.91v4.54h-11.91z"/><path transform="matrix(1 -.00511 .00511 1 -.966 2.11)" class="st15" d="M406.24 189.38h11.91v1.32h-11.91z"/><path transform="matrix(1 -.00467 .00467 1 -.89 1.916)" class="st16" d="M409.53 189.39h1.37v4.54h-1.37z"/><path transform="matrix(1 -.00467 .00467 1 -.89 1.93)" class="st16" d="M412.2 189.38h1.37v4.54h-1.37z"/><path transform="matrix(1 -.00467 .00467 1 -.89 2.006)" class="st14" d="M420.14 189.3h17.59v4.54h-17.59z"/><path transform="matrix(1 -.00513 .00513 1 -.97 2.204)" class="st15" d="M420.13 189.3h17.59v1.32h-17.59z"/><path transform="matrix(1 -.00467 .00467 1 -.89 1.983)" class="st16" d="M423.43 189.33h1.37v4.54h-1.37z"/><path transform="matrix(1 -.00467 .00467 1 -.89 1.997)" class="st16" d="M426.09 189.32h1.37v4.54h-1.37z"/></g><g><path transform="matrix(1 -.00467 .00467 1 -.924 1.928)" class="st14" d="M406.28 196.42h11.91v4.54h-11.91z"/><path transform="rotate(-.22 412.23 197.088)" class="st15" d="M406.27 196.42h11.91v1.32h-11.91z"/><path transform="matrix(1 -.00467 .00467 1 -.924 1.919)" class="st16" d="M409.56 196.43h1.37v4.54h-1.37z"/><path transform="matrix(1 -.00467 .00467 1 -.923 1.93)" class="st16" d="M412.23 196.42h1.37v4.54h-1.37z"/><path transform="matrix(1 -.00467 .00467 1 -.922 2.004)" class="st14" d="M420.17 196.34h17.59v4.54h-17.59z"/><path transform="matrix(1 -.00512 .00512 1 -1.002 2.197)" class="st15" d="M420.17 196.34h17.59v1.32h-17.59z"/><path transform="matrix(1 -.00467 .00467 1 -.922 1.982)" class="st16" d="M423.46 196.37h1.37v4.54h-1.37z"/><path transform="matrix(1 -.00467 .00467 1 -.922 1.994)" class="st16" d="M426.13 196.35h1.37v4.54h-1.37z"/></g><g><path transform="matrix(1 -.00467 .00467 1 -.957 1.928)" class="st14" d="M406.31 203.46h11.91V208h-11.91z"/><path transform="matrix(1 -.00513 .00513 1 -1.042 2.119)" class="st15" d="M406.31 203.46h11.91v1.32h-11.91z"/><path transform="matrix(1 -.00448 .00448 1 -.918 1.84)" class="st16" d="M409.6 203.47h1.37v4.54h-1.37z"/><path transform="matrix(1 -.00467 .00467 1 -.957 1.932)" class="st16" d="M412.27 203.46h1.37V208h-1.37z"/><path transform="matrix(1 -.00467 .00467 1 -.956 2.006)" class="st14" d="M420.21 203.38h17.59v4.54h-17.59z"/><path transform="matrix(1 -.00514 .00514 1 -1.044 2.209)" class="st15" d="M420.2 203.38h17.59v1.32H420.2z"/><path transform="matrix(1 -.00467 .00467 1 -.956 1.984)" class="st16" d="M423.49 203.41h1.37v4.54h-1.37z"/><path transform="matrix(1 -.00448 .00448 1 -.917 1.914)" class="st16" d="M426.16 203.39h1.37v4.54h-1.37z"/></g></g><g><path class="st17" d="M302.18 23.7h48.53v9.01h-48.53z"/><path class="st18" d="M291 222.06h66.25V29.1h-23.72L291 13.33z"/><path class="st19" d="M333.53 29.1h23.72v192.95h-23.72z"/><path class="st14" d="M333.53 40.21h23.72v6.94h-23.72z"/><path class="st15" d="M333.53 40.21h23.72v2.02h-23.72z"/><path class="st16" d="M347.98 40.21h2.73v6.94h-2.73zM342.66 40.21h2.73v6.94h-2.73z"/><path class="st14" d="M294.54 40.21h35.03v6.94h-35.03z"/><path class="st15" d="M294.54 40.21h35.03v2.02h-35.03z"/><path class="st16" d="M320.31 40.21h2.73v6.94h-2.73zM314.99 40.21h2.73v6.94h-2.73z"/><path class="st14" d="M333.53 50.97h23.72v6.94h-23.72z"/><path class="st15" d="M333.53 50.97h23.72v2.02h-23.72z"/><path class="st16" d="M347.98 50.97h2.73v6.94h-2.73zM342.66 50.97h2.73v6.94h-2.73z"/><path class="st14" d="M294.54 50.97h35.03v6.94h-35.03z"/><path class="st15" d="M294.54 50.97h35.03v2.02h-35.03z"/><path class="st16" d="M320.31 50.97h2.73v6.94h-2.73zM314.99 50.97h2.73v6.94h-2.73z"/><g><path class="st14" d="M333.53 61.73h23.72v6.94h-23.72z"/><path class="st15" d="M333.53 61.73h23.72v2.02h-23.72z"/><path class="st16" d="M347.98 61.73h2.73v6.94h-2.73zM342.66 61.73h2.73v6.94h-2.73z"/><path class="st14" d="M294.54 61.73h35.03v6.94h-35.03z"/><path class="st15" d="M294.54 61.73h35.03v2.02h-35.03z"/><path class="st16" d="M320.31 61.73h2.73v6.94h-2.73zM314.99 61.73h2.73v6.94h-2.73z"/></g><g><path class="st14" d="M333.53 72.49h23.72v6.94h-23.72z"/><path class="st15" d="M333.53 72.49h23.72v2.02h-23.72z"/><path class="st16" d="M347.98 72.49h2.73v6.94h-2.73zM342.66 72.49h2.73v6.94h-2.73z"/><path class="st14" d="M294.54 72.49h35.03v6.94h-35.03z"/><path class="st15" d="M294.54 72.49h35.03v2.02h-35.03z"/><path class="st16" d="M320.31 72.49h2.73v6.94h-2.73zM314.99 72.49h2.73v6.94h-2.73z"/></g><g><path class="st14" d="M333.53 83.25h23.72v6.94h-23.72z"/><path class="st15" d="M333.53 83.25h23.72v2.02h-23.72z"/><path class="st16" d="M347.98 83.25h2.73v6.94h-2.73zM342.66 83.25h2.73v6.94h-2.73z"/><path class="st14" d="M294.54 83.25h35.03v6.94h-35.03z"/><path class="st15" d="M294.54 83.25h35.03v2.02h-35.03z"/><path class="st16" d="M320.31 83.25h2.73v6.94h-2.73zM314.99 83.25h2.73v6.94h-2.73z"/></g><g><path class="st14" d="M333.53 94h23.72v6.94h-23.72z"/><path class="st15" d="M333.53 94h23.72v2.02h-23.72z"/><path class="st16" d="M347.98 94h2.73v6.94h-2.73zM342.66 94h2.73v6.94h-2.73z"/><path class="st14" d="M294.54 94h35.03v6.94h-35.03z"/><path class="st15" d="M294.54 94h35.03v2.02h-35.03z"/><path class="st16" d="M320.31 94h2.73v6.94h-2.73zM314.99 94h2.73v6.94h-2.73z"/></g><g><path class="st14" d="M333.53 104.77h23.72v6.94h-23.72z"/><path class="st15" d="M333.53 104.77h23.72v2.02h-23.72z"/><path class="st16" d="M347.98 104.77h2.73v6.94h-2.73zM342.66 104.77h2.73v6.94h-2.73z"/><path class="st14" d="M294.54 104.77h35.03v6.94h-35.03z"/><path class="st15" d="M294.54 104.77h35.03v2.02h-35.03z"/><path class="st16" d="M320.31 104.77h2.73v6.94h-2.73zM314.99 104.77h2.73v6.94h-2.73z"/></g><g><path class="st14" d="M333.53 115.52h23.72v6.94h-23.72z"/><path class="st15" d="M333.53 115.52h23.72v2.02h-23.72z"/><path class="st16" d="M347.98 115.52h2.73v6.94h-2.73zM342.66 115.52h2.73v6.94h-2.73z"/><path class="st14" d="M294.54 115.52h35.03v6.94h-35.03z"/><path class="st15" d="M294.54 115.52h35.03v2.02h-35.03z"/><path class="st16" d="M320.31 115.52h2.73v6.94h-2.73zM314.99 115.52h2.73v6.94h-2.73z"/></g><g><path class="st14" d="M333.53 126.28h23.72v6.94h-23.72z"/><path class="st15" d="M333.53 126.28h23.72v2.02h-23.72z"/><path class="st16" d="M347.98 126.28h2.73v6.94h-2.73zM342.66 126.28h2.73v6.94h-2.73z"/><path class="st14" d="M294.54 126.28h35.03v6.94h-35.03z"/><path class="st15" d="M294.54 126.28h35.03v2.02h-35.03z"/><path class="st16" d="M320.31 126.28h2.73v6.94h-2.73zM314.99 126.28h2.73v6.94h-2.73z"/></g><g><path class="st14" d="M333.53 137.04h23.72v6.94h-23.72z"/><path class="st15" d="M333.53 137.04h23.72v2.02h-23.72z"/><path class="st16" d="M347.98 137.04h2.73v6.94h-2.73zM342.66 137.04h2.73v6.94h-2.73z"/><path class="st14" d="M294.54 137.04h35.03v6.94h-35.03z"/><path class="st15" d="M294.54 137.04h35.03v2.02h-35.03z"/><path class="st16" d="M320.31 137.04h2.73v6.94h-2.73zM314.99 137.04h2.73v6.94h-2.73z"/></g><g><path class="st14" d="M333.53 147.8h23.72v6.94h-23.72z"/><path class="st15" d="M333.53 147.8h23.72v2.02h-23.72z"/><path class="st16" d="M347.98 147.8h2.73v6.94h-2.73zM342.66 147.8h2.73v6.94h-2.73z"/><path class="st14" d="M294.54 147.8h35.03v6.94h-35.03z"/><path class="st15" d="M294.54 147.8h35.03v2.02h-35.03z"/><path class="st16" d="M320.31 147.8h2.73v6.94h-2.73zM314.99 147.8h2.73v6.94h-2.73z"/></g><g><path class="st14" d="M333.53 158.56h23.72v6.94h-23.72z"/><path class="st15" d="M333.53 158.56h23.72v2.02h-23.72z"/><path class="st16" d="M347.98 158.56h2.73v6.94h-2.73zM342.66 158.56h2.73v6.94h-2.73z"/><path class="st14" d="M294.54 158.56h35.03v6.94h-35.03z"/><path class="st15" d="M294.54 158.56h35.03v2.02h-35.03z"/><path class="st16" d="M320.31 158.56h2.73v6.94h-2.73zM314.99 158.56h2.73v6.94h-2.73z"/></g><g><path class="st14" d="M333.53 169.32h23.72v6.94h-23.72z"/><path class="st15" d="M333.53 169.32h23.72v2.02h-23.72z"/><path class="st16" d="M347.98 169.32h2.73v6.94h-2.73zM342.66 169.32h2.73v6.94h-2.73z"/><path class="st14" d="M294.54 169.32h35.03v6.94h-35.03z"/><path class="st15" d="M294.54 169.32h35.03v2.02h-35.03z"/><path class="st16" d="M320.31 169.32h2.73v6.94h-2.73zM314.99 169.32h2.73v6.94h-2.73z"/></g><g><path class="st14" d="M333.53 180.08h23.72v6.94h-23.72z"/><path class="st15" d="M333.53 180.08h23.72v2.02h-23.72z"/><path class="st16" d="M347.98 180.08h2.73v6.94h-2.73zM342.66 180.08h2.73v6.94h-2.73z"/><path class="st14" d="M294.54 180.08h35.03v6.94h-35.03z"/><path class="st15" d="M294.54 180.08h35.03v2.02h-35.03z"/><path class="st16" d="M320.31 180.08h2.73v6.94h-2.73zM314.99 180.08h2.73v6.94h-2.73z"/></g><g><path class="st14" d="M333.53 190.84h23.72v6.94h-23.72z"/><path class="st15" d="M333.53 190.84h23.72v2.02h-23.72z"/><path class="st16" d="M347.98 190.84h2.73v6.94h-2.73zM342.66 190.84h2.73v6.94h-2.73z"/><path class="st14" d="M294.54 190.84h35.03v6.94h-35.03z"/><path class="st15" d="M294.54 190.84h35.03v2.02h-35.03z"/><path class="st16" d="M320.31 190.84h2.73v6.94h-2.73zM314.99 190.84h2.73v6.94h-2.73z"/></g><g><path class="st14" d="M333.53 201.59h23.72v6.94h-23.72z"/><path class="st15" d="M333.53 201.59h23.72v2.02h-23.72z"/><path class="st16" d="M347.98 201.59h2.73v6.94h-2.73zM342.66 201.59h2.73v6.94h-2.73z"/><path class="st14" d="M294.54 201.59h35.03v6.94h-35.03z"/><path class="st15" d="M294.54 201.59h35.03v2.02h-35.03z"/><path class="st16" d="M320.31 201.59h2.73v6.94h-2.73zM314.99 201.59h2.73v6.94h-2.73z"/></g></g></g><path fill="#676963" d="M0 215h460v65H0z"/><path fill="#45433b" d="M0 215h460v13H0z"/><g><path d="M230.77 224.74c.09-.19.15-.39.15-.62 0-1.15-.04-2.31-.06-3.46.01-.73-.65-1.44-1.4-1.4-.77.03-1.39.62-1.4 1.4-.02 1.15-.06 2.31-.06 3.46 0 .21.05.42.15.61.02.36.22.71.51.94.22.18.49.29.8.28.32-.01.6-.13.82-.31.28-.22.47-.53.49-.9z" fill="#1b7382"/><circle transform="rotate(-50.885 270.634 224.42)" class="st23" cx="270.65" cy="224.43" r="15.69"/><circle transform="rotate(-45.001 380.197 224.433)" class="st23" cx="380.2" cy="224.43" r="15.69"/><path class="st24" d="M232.5 185.42H231c-.91 0-1.65-.74-1.65-1.65v-8.63c0-.91.74-1.65 1.65-1.65h1.5c.91 0 1.65.74 1.65 1.65v8.63c0 .91-.75 1.65-1.65 1.65z"/><path class="st25" d="M334.47 227.17h81.97s-1.38-36.67-3.68-41.5c-2.3-4.83-23.22-11.96-25.75-13.11s-17.47-28.51-21.61-30.12c-4.14-1.61-36.1-3.45-36.1-3.45l2.3 85.08 2.87 3.1z"/><path class="st25" d="M231.27 131.98h103.2v92.41h-103.2z"/><path class="st24" d="M335.08 136.44H230.66c-.96 0-1.74-.78-1.74-1.74v-1.58c0-.96.78-1.74 1.74-1.74h104.43c.96 0 1.74.78 1.74 1.74v1.58c-.01.96-.79 1.74-1.75 1.74z"/><path class="st26" d="M334.66 217.69H232.94a3.26 3.26 0 00-3.26 3.26v2.96c0 1.8 1.46 3.26 3.26 3.26h101.72c1.8 0 3.26-1.46 3.26-3.26v-2.96c0-1.8-1.46-3.26-3.26-3.26zM417.05 217.69H400.5a3.26 3.26 0 00-3.26 3.26v2.96c0 1.8 1.46 3.26 3.26 3.26h16.55c1.8 0 3.26-1.46 3.26-3.26v-2.96c0-1.8-1.46-3.26-3.26-3.26z"/><path class="st23" d="M266.12 208.72c-10.19 0-18.45 8.26-18.45 18.45h36.9c.01-10.19-8.26-18.45-18.45-18.45z"/><circle transform="rotate(-19.831 266.146 227.16)" class="st26" cx="266.12" cy="227.17" r="15.69"/><circle class="st27" cx="266.12" cy="227.17" r="7.76"/><path class="st23" d="M385.06 208.72c-10.19 0-18.45 8.26-18.45 18.45h36.9c0-10.19-8.26-18.45-18.45-18.45z"/><circle transform="rotate(-22.5 385.04 227.161)" class="st26" cx="385.06" cy="227.17" r="15.69"/><circle class="st27" cx="385.06" cy="227.17" r="7.76"/><path class="st26" d="M388 227.17c0 1.62-1.32 2.94-2.94 2.94-1.62 0-2.94-1.32-2.94-2.94 0-1.62 1.32-2.94 2.94-2.94 1.62 0 2.94 1.32 2.94 2.94zM268.99 227.17c0 1.62-1.32 2.94-2.94 2.94s-2.94-1.32-2.94-2.94c0-1.62 1.32-2.94 2.94-2.94s2.94 1.32 2.94 2.94zM377.23 173.88h-38.37c-.52 0-.94-.42-.94-.94v-26.23c0-.52.42-.94.94-.94 4.17.01 20.94.22 24.41 2.93 3.37 2.63 12.19 18.92 14.79 23.8a.936.936 0 01-.83 1.38z"/><path class="st24" d="M319.68 159.54c-15.7 0-31.41-.06-47.12.01h-32.37c-2.21 0-2.21 2.64 0 2.64 20.64 0 41.27.01 61.91.02 5.86 0 11.72 0 17.58.01 1.12 0 1.68-.67 1.69-1.34-.01-.66-.57-1.34-1.69-1.34zM319.68 183.31c-15.7 0-31.41-.06-47.12.01h-32.37c-2.21 0-2.21 2.65 0 2.65 20.64 0 41.27.01 61.91.02 5.86 0 11.72 0 17.58.01 1.12 0 1.68-.67 1.69-1.34-.01-.68-.57-1.35-1.69-1.35zM303.92 208.24h6.48v6.48h-6.48zM313.82 208.24h6.48v6.48h-6.48zM323.72 208.24h6.48v6.48h-6.48z"/><path class="st28" d="M376.11 176.03h-2.47c-1.5 0-2.72-1.22-2.72-2.72v-3.2c0-1.5 1.22-2.72 2.72-2.72h2.47c1.5 0 2.72 1.22 2.72 2.72v3.2a2.73 2.73 0 01-2.72 2.72z"/><path class="st27" d="M378.37 168.01c-.31-.4-.7-.6-1.09-.7-.89-.24-1.81-.32-2.71-.24-.47.04-.95.07-1.42.16-.38.07-.76.15-1.12.36-.7.42-1.09 1.34-1.21 2.49-.08.73-.08 1.48-.02 2.21s.14 1.54.42 2.15c.04.09.11.03.11-.07-.05-.62-.19-1.2-.26-1.82-.06-.61-.08-1.23-.05-1.85.05-1.09.29-2.15.95-2.64.32-.23.67-.33 1.01-.4.4-.08.8-.13 1.2-.15.82-.06 1.65.03 2.46.17.43.08.9.15 1.28.49.15.13.28.3.38.52.11.23.16.5.25.73.05.13.17.1.2-.04.12-.53-.14-1.06-.38-1.37z"/><path class="st26" d="M379.34 174.64c-.3-.59-1.16-.98-1.81-1.03-.71-.05-1.6.88-.94 1.52.26.26.57.48.85.72.31.26.62.52 1.05.44.34-.06.58-.33.76-.6.24-.39.24-.75.09-1.05z"/><path class="st28" d="M378.08 184.92v-.61c0-2.22 0-4.43-.03-6.65-.01-.53-.81-.53-.82 0-.04 3.1-.03 6.2-.03 9.3v2.64c0 3.91-.01 7.83-.01 11.74v6.6c0 .28.22.43.44.43s.44-.14.44-.43c0-3.91.01-7.83 0-11.74.02-3.76.03-7.52.01-11.28zM347.11 184.64h-6.79c-.66 0-1.2-.54-1.2-1.2v-1.09c0-.66.54-1.2 1.2-1.2h6.79c.66 0 1.2.54 1.2 1.2v1.09c0 .66-.54 1.2-1.2 1.2z"/><path class="st29" d="M256.51 234.65c-.2-.6-.8-1.04-1.12-1.59-.32-.55-.55-1.13-.77-1.73-.28-.75-.48-1.52-.61-2.31-.13-.76-.07-1.72-.52-2.38-.14-.21-.47-.3-.66-.09-.47.53-.52 1.32-.52 2 0 .74.1 1.5.22 2.23.24 1.35.69 2.77 1.51 3.89.45.61 1.02 1.22 1.84 1.12.66-.07.82-.56.63-1.14zM278.31 225.98c-.07-.13-.11-.27-.22-.37-.11-.11-.28-.11-.38-.2-.16-.14-.42-.05-.42.17 0 .07-.1.14-.13.22-.04.08-.04.17-.07.25-.07.23-.19.44-.26.67-.15.48-.25.97-.41 1.45-.3.9-.67 1.78-1.12 2.62-.43.78-.93 1.5-1.5 2.19-.28.34-.58.68-.92.96-.15.13-.3.24-.45.37-.13.12-.28.39-.45.43-.14.04-.1.23.03.24.17.02.32.18.49.22.23.06.51.06.74.01.51-.11.99-.36 1.4-.67.92-.69 1.59-1.7 2.17-2.68.61-1.02 1.11-2.12 1.45-3.27.16-.55.34-1.14.33-1.72-.02-.33-.13-.59-.28-.89zM280.56 227.97c-.03-.14-.06-.3-.13-.44-.06-.12-.15-.24-.22-.35-.08-.11-.23-.09-.27.04-.05.12-.1.23-.14.35-.04.12-.06.25-.09.37-.07.29-.07.59-.11.89-.01.07-.04.24-.06.36-.02.14-.01.29-.02.43-.01.27.03.52.01.79-.01.12.17.21.25.11.17-.21.37-.42.49-.66.07-.15.15-.31.2-.47.04-.16.06-.33.08-.5.04-.31.07-.61.01-.92zM372.36 228.12c-.12-.68-.14-1.39-.1-2.08.04-.68.17-1.33.33-1.99.18-.71.52-1.4.47-2.15-.03-.44-.47-.72-.87-.5-.77.43-1.1 1.29-1.39 2.08-.29.79-.42 1.65-.48 2.49-.07.83-.02 1.65.1 2.47.06.4.15.79.3 1.17.09.23.19.45.33.65.13.2.33.3.46.48.32.41 1.08.07 1.04-.43-.01-.17.06-.36.05-.54 0-.22-.04-.44-.08-.66-.04-.33-.1-.66-.16-.99zM375.1 230.89v0zM375.09 230.9c.01-.05.01-.03 0 0 .03-.07.05-.14.05-.21.01-.13-.03-.29-.06-.43-.02-.11-.03-.23-.07-.33-.04-.12-.08-.23-.12-.35-.03-.1-.08-.2-.13-.29-.01-.02-.01-.03-.02-.05-.04-.1-.07-.2-.11-.3a2.11 2.11 0 00-.42-.67c-.12-.12-.32-.11-.44 0-.22.21-.37.54-.39.84-.01.12 0 .24.01.36.01.17.02.37.07.53.05.16.13.32.2.47.07.14.19.27.31.38.13.13.3.26.47.32.06.02.15.05.22.03h.01c.02.01.05.01.08.02.17.04.33-.08.33-.25.01-.03.01-.05.01-.07 0 .01-.01.03-.02.05.01-.02.02-.04.02-.05zM396.59 224.95c-.1-.59-.23-1.4-.74-1.77-.04-.03-.12-.02-.15.02-.37.46-.34 1.21-.39 1.77-.06.74-.13 1.46-.23 2.2-.09.7-.22 1.38-.34 2.08-.14.8-.43 1.57-.06 2.35.16.33.68.46.97.25.72-.51.84-1.35.98-2.16.13-.79.2-1.6.19-2.4-.02-.78-.1-1.58-.23-2.34zM398.81 229.84c-.03-.09-.07-.17-.11-.26a.3.3 0 00-.04-.08c-.04-.08-.1-.12-.17-.18.11.1-.02-.03-.05-.05-.09-.08-.24-.1-.33 0-.02.03-.06.05-.08.08-.05.03-.08.07-.11.12-.02.02-.03.04-.04.07-.03.04-.15.19-.02.04-.06.07-.12.15-.16.24-.05.11-.11.21-.17.31-.09.15-.14.31-.21.47.01-.02.02-.05.03-.07a.79.79 0 00-.08.43.7.7 0 00.12.3s0 .01.01.01c.07.13.21.22.35.26.01 0 .01 0 .02.01.03.01.05 0 .08.01h.04c.27.02.52-.11.67-.33.1-.15.22-.34.24-.52.02-.18.05-.36.05-.54.01-.11 0-.22-.04-.32z"/><path class="st28" d="M386.86 184.48c-.22-.21-.51-.35-.82-.34-.17 0-.34-.01-.51-.01-.08 0-.17.01-.25.03-.53.01-1.07.03-1.6.04-.28 0-.59.13-.78.32-.19.19-.34.51-.32.78.03.61.49 1.1 1.11 1.11.53.01 1.06.02 1.6.04.08.02.17.03.26.03.17 0 .34-.01.51-.01.3-.01.6-.12.82-.34.2-.2.35-.53.34-.82-.03-.31-.13-.62-.36-.83zM335.07 209v-7.56-15.13-30.1c0-1.39-.03-2.78-.06-4.17-.04-1.44-.01-2.88-.04-4.32-.05-2.83.01-5.66-.09-8.49-.01-.28-.43-.28-.44 0-.09 2.52-.06 5.04-.07 7.56-.01 2.52-.09 5.04-.11 7.56-.04 5.04-.01 10.08-.01 15.13v38.59c0 2.83-.09 5.67.03 8.49.02.48.72.48.74 0 .12-2.51.05-5.04.05-7.56z"/></g><path class="st30" d="M89.77 187.23c0 2.32-1.03 8-2.87 15.12-.58 2.25-2.22 3.88-3.21 15.15-.99 11.27-1.92 12.5-.92 15.16 1 2.65 6.34 6.94 7 8.27.66 1.32 2.01 3.47-1.64 3.14-3.65-.33-5.98-2.81-9.96-4.8-3.98-1.99-2.98-3.65-2.98-8.95 0-5.3-.33-24.53 1.33-33.15 1.66-8.61 13.25-9.94 13.25-9.94z"/><path class="st17" d="M75.12 231.83c1.46 1.15 3.87 4.4 6.16 6.01 2.3 1.61 6.7 4.25 6.7 3.03 0-1.22-.99-3.06-.99-3.06s2.98 2.91 3.75 4.21c.77 1.3 1.15 4.13-2.98 3.37-3.26-.6-3.6-1.07-7.35-3.83 0 0-2.14-.84-2.53-.76-.38.07-2.45-.61-2.91-2.15-.46-1.54.15-6.82.15-6.82z"/><path class="st31" d="M81.32 185.06c-.66 2.65-2.6 15.69-3.98 19.29-.36.93-1.84 5.29-1.84 12.25s-5 17.25-5.33 21.23c-.33 3.98-.33 7.62-.66 11.6-.33 3.98-5.31 9.94-7.3 7.62-1.99-2.32-2.65-3.98-1.66-7.29 1-3.32 2.65-7.29 2.98-10.94.33-3.65-1.99-13.92 0-24.86s.89-7.75 1.56-12.06c.66-4.31-.56-14.13-.56-14.13l16.79-2.71z"/><path class="st19" d="M62.11 244.69c.47-.86-.23 5.43 1.76 6.05 1.99.61 4.9-4.13 5.97-7.19.77 8.57-1.83 10.94-3.98 13.09-2.3 2.3-3.29 1.76-4.67.23-1.38-1.55-2.6-5.75.92-12.18z"/><path class="st25" d="M68.89 150.77l21.22-1.33s3.31 3.98 3.31 14.58c0 10.61-.66 23.53.33 25.53.99 1.99-8.53 5.61-21.21 6.3-4.5.24-11.27-1.99-11.27-1.99s1.32-9.94.66-20.88c-1-16.57 3.11-22.37 3.77-25.35.67-2.99 3.19 3.14 3.19 3.14z"/><g><path class="st24" d="M72.47 195.85c12.69-.69 22.21-4.31 21.22-6.3-1-1.99-.33-14.92-.33-25.53 0-10.61-3.31-14.58-3.31-14.58l-19.34 1.21c-1.97 7.19-1.86 17.27-1.31 23.69.63 7.4.48 15.16-.08 21.36 1.08.14 2.17.2 3.15.15z"/></g><path class="st32" d="M83.69 92.82c-.34 3.33-.23 12.05 1.26 13.66-1.72 1.72-7.69 1.61-7.69 1.61s-2.99-8.84-2.76-9.53c.24-.69 9.19-5.74 9.19-5.74z"/><path class="st30" d="M81.65 118.56c1.16 1.81 6.46 9.25 7.78 9.69 1.33.44 15.25 6.33 17.09 7.11 1.84.78 4.48 1.8 4.48 1.8s7.51-.31 7.61-1.12c.1-.82-1.14-.83-3.52-.58 0 0 2.45-.8 2.08-1.12-.38-.32-2.08.02-3.92.34-1.21.21-2.59-1.43-3.35-1.94 0 0 1.21-.82 1.94-1.14.73-.32 1.67-1.17 1.46-1.75-.2-.58-.9-.53-2.09.16-1.19.68-1.97.31-3.51.39-1.27.07-1.31.53-2.27.41-.95-.12-9.87-5.11-11.22-6.52-1.34-1.41-5.01-8.65-5.53-8.85-.53-.21-7.03 3.12-7.03 3.12z"/><path class="st33" d="M155.95 131.14l-1.54 4.77s-12.28-1-20.55-3.14c-4.85.22-14.73-1.76-14.73-1.76l-4.9 1.53s7.41 3.67 11.94 3.67c4.29 0 2.81.41 8.88 2.45s21.95 7.93 24.59 8.05c2.63.12 7.71-14.61 7.71-14.61l-11.4-.96z"/><g><path d="M169.59 241.53c-.46 6.01 3.11 8.69-.01 9.96s-7.36-.18-16.6.37c-8.46.51-6.51-4.22-6.51-4.22s8.95-1.51 14.85-5.34c.93-.6 8.27-.77 8.27-.77z"/></g><path class="st19" d="M158.63 160.71c-1.38 6.43-1.68 41.64-1.23 50.83 0 0 1.53 4.44 1.53 8.57s-.15 23.8-.15 23.8 11.25-.23 13.09-.23c1.84 0 6.66-27.56 6.66-27.56l-19.9-55.41z"/><path class="st34" d="M168.89 110.04c-9.03 6.89-15.16 22.96-15.16 22.96s5.05 6.79 7.35 8.27c2.29 1.47 4.23-20.9 4.23-20.9l3.58-10.33z"/><path class="st33" d="M169.64 111.79c-1.8-5.24-4.49-11.45-4.49-11.45l13.01-7.31s-2.7 6.55 2.46 15.23c.83 1.4-10.98 3.53-10.98 3.53z"/><path class="st35" d="M159.42 76.79c3.93-6.18 21.06-7.24 21.31 3.9.44 20.3-12.33 21.39-12.33 21.39-4.18-.62-5.29-.29-8.16-1.85-1.41-.77-2.41-3.09-2.95-6.06-1.28-.45-2.62-1.11-2.35-2.02.83-1.18 1.43-2.18 1.88-3.06-.06-4.57.76-9.41 2.6-12.3z"/><path class="st33" d="M163.67 101.5c.4.05 4.47.58 4.95.65 0 0 13.08-1.81 12.33-21.39-.25-6.53-14.2-7.39-19.89-6.96 4.13 4.48 8.87 20.87 2.61 27.7z"/><path class="st36" d="M176.91 75.74c-1.26-2.1-1.33-4.12-6.64-4.26-5.15-.14-7.1-.79-10.59 2.6-1.78 1.74-1.83 5.56-1.83 5.56s1.99-.32 3.21.05c1.21.38 2.9-.27 4.46 2.08 1.32 1.98 1.62 4.23 1.62 4.23s5.18 2.1 5.22 3.83c.03 1.72 5.55 6.95 5.55 6.95s2.61-6.94 3.67-10.8c2.5-8.99-4.37-9.75-4.67-10.24z"/><g><path class="st37" d="M150.66 73.51c-2.21-.43-3.78 1.2-2.59 3.77 1.2 2.56 2.57 2.18 4.89 2.49 3.63.49 6.82.32 6.82.32l-9.12-6.58z"/><path class="st37" d="M179.63 93.47c-1.51-1.37-9.75-9.71-9.75-9.71s-8.64.44-11.33-1.44c-2.69-1.88-4.45-8.38-9.32-8.82 6.14-.05 8.73.69 8.73.69s3.57-4.38 11.14-4.4c3.26-.01 8.11 1.97 9.58 3.74 1.48 1.77 5.58 4.97 4.66 10.61-.93 5.64-3.71 9.33-3.71 9.33z"/></g><path class="st33" d="M169.83 87.37c.87-.76 1.59-1.98 2.61-.94 1.03 1.03 2.12 6.03.05 7.51-2.07 1.48-2.66-6.57-2.66-6.57z"/><g><path d="M158.56 82.32c-2.69-1.88-4.45-8.38-9.32-8.82 6.14-.05 8.73.69 8.73.69s3.57-4.38 11.14-4.4c2.01 0 4.62.75 6.67 1.74 6.58 3.93-.46 12.19-3.41 14.76-1.43-1.44-2.49-2.52-2.49-2.52s-8.64.43-11.32-1.45z" fill="#b92758"/></g><g><path d="M182.32 245.63c-.07 6.03 3.1 8.85.07 10.32-3.03 1.48-6.79-.08-15.97 1.08-8.41 1.07-6.78-3.79-6.78-3.79s6.66-2.63 12.29-6.83c.9-.66 10.39-.78 10.39-.78z"/></g><path class="st18" d="M183.12 155.57c.53 5.25 3.28 10.65 2.3 20.15-.53 5.13-2.3 15.65-2.3 33.07 0 8.27.69 39.26.69 39.26l-15.39.46s-1.84-25.95-5.51-36.97c-1.86-5.59-3.76-35.96-4.16-39.92-1.31-13.1-.82-14.9-.82-14.9l25.19-1.15z"/><path d="M178.41 105.47c.77 4.17 4.3 6.64 2.7 11.87-1.6 5.22 3.13 24.43 3.97 31.1.84 6.67-1.21 8.69-2.42 9.09-1.21.4-17.07 3.18-23.04 2.18-1.81-.3-7.5-3.06-.37-32.45.64-2.66.14-4.52.91-6.66 1.84-5.16 7.78-11.24 8.92-11.49 3.93-.85 9.33-3.64 9.33-3.64z" fill="#aaa"/><g><path class="st34" d="M184.96 121.98c.56 5.44-.5 19.51.34 26.19.84 6.67.4 8.56-.8 8.96-.52.17-6.98 1.34-12.17 2.05-.11-4.14.68-19.53 1.15-19.75 3.9-1.84 1.58-15.9 2.07-20.32.71-6.43-.37-8.58-3.56-10.79 3.03-1.15 7.4-3.5 7.4-3.5 1.97 3.19 4.34 5.13 5.57 17.16z"/></g><path class="st34" d="M180.05 105.64l-1.06-2.46s-6.33 4.34-12.39 5.49c-.08 1.39 0 2.41 0 2.41s4.77-.12 13.45-5.44z"/><g><path transform="rotate(-6.12 171.032 171.577)" fill="#7f3b32" d="M153.99 160.77h33.96v21.43h-33.96z"/><path transform="rotate(-6.12 171.92 171.354)" class="st27" d="M157.95 162.78h27.88v17.01h-27.88z"/><path class="st30" d="M155.67 168.73c.34-.04.67.34.72.84l.56 5.18c.05.5-.18.94-.53.98-.34.04-.67-.34-.72-.85l-.56-5.17c-.05-.5.18-.94.53-.98z"/></g><path class="st35" d="M175.32 129.1c-.95 2.77.24 14.85-.04 16.86-.28 2.01-3.04 22.08-4.19 24.94-2.77 1.37-3.46 2.52-3.46 2.52l-5.05 4.02s1.11 1.8 5.4-1.57c1.15-.29-2.3 6.74-2.3 6.74s.38.92 4.36.92c2.88 0 3.68-.5 4.82-1.07 1.15-.57 1.28-9.54 2.71-10.98 1.43-1.43 8.03-22.36 8.03-23.51 0-1.14.86-17.48.86-17.48s-9.49-6.21-11.14-1.39z"/><g><path class="st34" d="M180.42 113.07c-2.88-.75-5.05-.33-7.17 3.86-2.4 4.72-1.26 12.32-1.61 24.34 2.14 2.39 13.92 1 15.68-1.21 1.76-2.2-.79-17.29-1.14-19.16-.34-1.86-1.53-6.72-5.76-7.83z"/></g><path class="st11" d="M143.63 133.77c-.01.19-.46.34-1 .32l-36.58-1.26c-.55-.02-.98-.19-.98-.38l.3-8.77c.01-.19.46-.34 1-.32l36.58 1.26c.55.02.98.19.98.38l-.3 8.77z"/><path class="st19" d="M80.5 106.25h.33c1.7.04 4.29 1.52 5.53 2.76 1.33 1.33 7.74 11.16 7.74 11.16l-6.3 2.32-7.18-14.14-.12-2.1z"/><path class="st18" d="M59.13 117.85c1.99 4.31 7.19 15.31 5.79 22.88-.75 4.03-2.43 11.38-2.43 11.38l11.17.65s-.13-15.68-.13-21.31c0-5.64-6.3-12.27-6.3-12.27l-8.1-1.33z"/><path class="st30" d="M80.94 107.03c-1.33-1.33-2.21-.66-2.87-2.65-.67-1.99-.67-4.42-.67-4.42l-1.54-7.07-8.4-4.64s.66 9.06-1.11 12.15-4.64 3.32-4.64 3.32 8.4 9.95 13.48 11.05c5.08 1.11 5.63-8.51 5.63-8.51l.12.77z"/><path class="st31" d="M71.87 98.45c2.21 1.32 5.31 2.39 6.86 2.39 1.55 0 3.98-2.43 4.86-5.97.89-3.54 1.77-10.83 0-13.92-1.77-3.1-7.96-5.52-11.27-1.55-3.32 3.98-5.31 7.3-4.86 12.6.44 5.3 4.41 6.45 4.41 6.45z"/><path class="st19" d="M78.95 105.7c.51.47 2.4.56 2.88.99 3.4 3.07 4.81 5.48 5.97 7.51 1.33 2.32 3.33 6.55 1.95 10.84-.77 2.4-.63 4.41-.3 7.73.33 3.32 2.44 18.18 2.44 18.18s-22.86 2.74-22.2 1.19c8.39-19.56-1.79-28.99-1.79-30.97 0-1.24-9.93-8.57-8.55-13.42.23-.81 5.97-4.13 5.97-4.13s10.64 6.17 12.96 7.17c2.33.99.67-5.09.67-5.09z"/><path class="st31" d="M64.09 123.16c1.66 1.99 9.12 10.11 10.77 10.44 1.66.33 19.22 5.3 21.54 5.97 2.32.66 5.63 1.49 5.63 1.49s8.95-1.49 8.95-2.48-1.49-.83-4.31-.16c0 0 2.82-1.33 2.32-1.66-.5-.33-2.49.33-4.64 1-1.42.43-3.32-1.33-4.31-1.82 0 0 1.33-1.16 2.16-1.66.83-.5 1.82-1.66 1.49-2.32-.33-.66-1.16-.5-2.49.5-1.33.99-2.32.66-4.14.99-1.51.27-1.49.83-2.65.83s-12.6-4.64-14.42-6.13c-1.82-1.49-7.29-9.61-7.96-9.78-.65-.18-7.94 4.79-7.94 4.79z"/><path class="st18" d="M69.28 109.52c-1.99-2.21-5.15-4.41-8.47-3.3-3.31 1.11-5.62 7.15-.76 15.77s7.81 9.49 7.81 9.49l10.71-6.93-9.29-15.03z"/><g><path class="st30" d="M83.59 95.03c.85-3.38 1.66-10.14.2-13.44-3.22-1.33-9.05-2.55-9.05-2.55 4.48 2.76 8.61 8.61 3.79 18.6-.69 1.38-1.5 2.44-3.42 2.55 1.75.86 2.33.79 3.62.79 1.54.01 3.97-2.42 4.86-5.95z"/></g><path class="st32" d="M79.83 80.73c.36-.36 4.72 1.07 4.81 5.14.05 2.4.34.42.2-1.77-.13-2.2-.69-4.6-3.67-7-3.41-2.75-4.25-2.99-8.15-2.41 4.47 3.47 6.81 6.04 6.81 6.04z"/><path class="st36" d="M79.83 80.73c-1.33 0-6.47 1.64-7.85 7.38-1.66-2.32-2.41-.57-2.18 1.72.09.92.23 2.87.69 3.91 1.41 3.16.89 6.95.34 9.42-.65 2.91-2.07 6.89-2.07 6.89l-11.6-4.02s3.44-5.74 3.1-10.71c-.33-4.97 1.58-13.08 3.9-16.73 2.32-3.64 7.43-4.57 9.42-3.9 2 .65 6.25 6.04 6.25 6.04z"/></svg>