<?xml version="1.0" encoding="utf-8"?>
<!-- Generator: Adobe Illustrator 26.0.2, SVG Export Plug-In . SVG Version: 6.00 Build 0)  -->
<svg version="1.1" id="Capa_1" xmlns="http://www.w3.org/2000/svg" xmlns:xlink="http://www.w3.org/1999/xlink" x="0px" y="0px"
	 viewBox="0 0 3471 1085.7" style="enable-background:new 0 0 3471 1085.7;" xml:space="preserve">
<style type="text/css">
	.st0{fill:#dce3ef;}
	.st1{fill-rule:evenodd;clip-rule:evenodd;fill:#dce3ef;}
</style>
<path id="XMLID_38_" class="st0" d="M813.1,1109.1c-6.3-1-18.3,2.8-36.2,11.5c-1.6,0.8-3.2,1.6-4.8,2.4h56.4
	C824.3,1114.7,819.2,1110,813.1,1109.1z"/>
<path id="XMLID_37_" class="st0" d="M74.6,1095.3c-1.1-9.7-2.3-16.8-3.6-21.1c-2.9-9.6-6.7-17.3-11.3-23.1
	c-4.6-5.8-11-11.1-19.3-15.9c-18.3-10.6-36.5-12.9-54.7-6.7c-0.8,0.3-1.5,0.6-2.3,0.9v49.5c3.1-2.4,6.5-4.1,10.3-5
	c7.8-1.9,15.9-0.3,24.3,4.6c9.8,5.7,16.3,18.3,19.3,37.8c0.4,2.5,0.8,4.6,1.1,6.7h44c-1.6-2.2-2.8-4.4-3.7-6.5
	C77.1,1112.1,75.7,1105,74.6,1095.3z"/>
<path id="XMLID_35_" class="st0" d="M1075.4-16.6c1.9,8.4,4.9,15.7,9.2,22.1c4.2,6.4,9.1,11.2,14.7,14.5c5.8,3.4,11.2,4.5,16.2,3.4
	c5-1.1,9.1-4.4,12.3-9.8c0.9-1.5,1.5-3.1,2-4.7V-5c-1-3.7-2.8-7.5-5.4-11.4c-1.8-2.8-3.1-4.9-3.9-6.3c-0.1-0.2-0.2-0.4-0.3-0.6h-46
	C1074.5-21.1,1074.9-18.8,1075.4-16.6z"/>
<path id="XMLID_34_" class="st0" d="M97.5,453c-7.4,0-13.8,2.7-19.1,8c-5.3,5.4-8,11.7-8,19c0,7.4,2.7,13.9,8,19.3
	c5.4,5.4,11.7,8.1,19,8.1c7.4,0,13.9-2.7,19.3-8c5.4-5.4,8.1-11.8,8.1-19.4c0-7.5-2.7-13.9-8-19.2C111.6,455.6,105.2,453,97.5,453z"
	/>
<path id="XMLID_33_" class="st0" d="M60.1,853.7c-7.4,0-13.8,2.7-19.1,8c-5.3,5.4-8,11.7-8,19c0,7.4,2.7,13.9,8,19.3
	c5.4,5.4,11.7,8.1,19,8.1c7.4,0,13.9-2.7,19.3-8c5.4-5.4,8.1-11.8,8.1-19.4s-2.7-13.9-8-19.2C74.2,856.3,67.7,853.7,60.1,853.7z"/>
<path id="XMLID_32_" class="st0" d="M656.7,144.8c-7.4,0-13.8,2.7-19.1,8c-5.3,5.4-8,11.7-8,19c0,7.4,2.7,13.9,8,19.3
	c5.4,5.4,11.7,8.1,19,8.1c7.4,0,13.9-2.7,19.3-8c5.4-5.4,8.1-11.8,8.1-19.4c0-7.5-2.7-13.9-8-19.2
	C670.8,147.4,664.3,144.8,656.7,144.8z"/>
<path id="XMLID_31_" class="st0" d="M1154.5,590.6c0-7.5-2.7-13.9-8-19.2c-5.3-5.3-11.8-7.9-19.4-7.9c-7.4,0-13.8,2.7-19.1,8
	c-5.3,5.4-8,11.7-8,19c0,7.4,2.7,13.9,8,19.3c5.4,5.4,11.7,8.1,19,8.1c7.4,0,13.9-2.7,19.3-8
	C1151.8,604.6,1154.5,598.1,1154.5,590.6z"/>
<path id="XMLID_30_" class="st0" d="M620.9,991c-7.4,0-13.8,2.7-19.1,8c-5.3,5.4-8,11.7-8,19c0,7.4,2.7,13.9,8,19.3
	c5.4,5.4,11.7,8.1,19,8.1c7.4,0,13.9-2.7,19.3-8c5.4-5.4,8.1-11.8,8.1-19.4c0-7.5-2.7-13.9-8-19.2C635,993.7,628.5,991,620.9,991z"
	/>
<path id="XMLID_29_" class="st0" d="M1305.5,142.5c-0.7,1.9-1.1,3.9-1.2,6c0,4.4,1.9,8.3,5.7,11.8c3.8,3.5,8.1,5.3,12.9,5.3
	c2.4,0,4.7-0.7,6.8-2.2c2.1-1.4,4.3-3.8,6.6-7.1l19.6-28l18,27.7c1.7,2.7,3.8,4.7,6.2,6.2c2.4,1.5,4.9,2.2,7.5,2.2
	c4.7,0,8.9-1.8,12.6-5.3c3.7-3.5,5.6-7.4,5.6-11.6c0-1.8-0.4-3.7-1.1-5.6c-0.7-1.9-1.9-3.8-3.3-5.6l-20.9-26l30.3-8.3
	c4.1-1.1,7.3-2.9,9.5-5.4c2.2-2.5,3.3-5.7,3.3-9.6c0-5.3-1.5-9.7-4.5-13.3c-3-3.6-6.6-5.3-10.8-5.3c-1.1,0-2.3,0.2-3.7,0.5
	c-1.4,0.3-2.9,0.7-4.5,1.3l-28.4,10.7l0.6-30.6v-1c0-5.6-1.4-9.9-4.3-12.9c-2.9-3-7-4.5-12.3-4.5c-5.4,0-9.6,1.4-12.6,4.3
	c-3,2.9-4.5,7-4.5,12.3v1.8l1.4,30.6l-30.1-10.7c-1.9-0.6-3.4-1.1-4.5-1.4c-1.1-0.3-2.1-0.4-3-0.4c-4.5,0-8.2,1.8-11.2,5.3
	c-3,3.6-4.5,8-4.5,13.3c0,3.8,1.1,7,3.3,9.5s5.4,4.3,9.8,5.5l31.6,8.3l-22.8,27.1C1307.2,139,1306.1,140.6,1305.5,142.5z"/>
<path id="XMLID_00000106840901145551235860000015895685272763120315_" class="st0" d="M833.4,697.7c-2.2,1.6-4.1,3.6-5.9,5.9
	c-3.3,5-4.1,10.9-2.3,17.8c1.7,6.9,5.3,12.1,10.7,15.7c2.8,1.8,5.9,2.7,9.3,2.6c3.4-0.1,7.7-1.1,12.9-3.1l43.5-17.2l-0.4,45.2
	c-0.1,4.3,0.7,8.2,2.4,11.8s3.9,6.3,6.9,8.2c5.3,3.5,11.4,4.7,18.3,3.5c6.9-1.2,11.9-4.2,15.1-9.1c1.4-2.1,2.3-4.5,2.9-7.2
	c0.6-2.7,0.7-5.7,0.4-8.9l-4.2-45.3l40.7,13.4c5.5,1.9,10.5,2.2,14.9,1c4.4-1.3,8-4.1,10.9-8.4c4-6.1,5.6-12.2,4.9-18.5
	c-0.7-6.3-3.5-11-8.3-14.2c-1.2-0.8-2.8-1.6-4.6-2.3c-1.9-0.7-3.9-1.4-6.1-2l-40.4-9.2l23.8-34.4l0.7-1.1c4.2-6.4,5.8-12.4,4.8-17.9
	c-1-5.5-4.6-10.3-10.6-14.3c-6.2-4.1-12-5.6-17.6-4.6c-5.5,1-10.3,4.6-14.3,10.6l-1.3,2l-21.4,35.9l-26.3-34.8
	c-1.7-2.2-3.1-3.8-4.1-4.9c-1-1.1-2.1-2-3.1-2.7c-5.1-3.4-10.7-4.1-16.7-2.3c-6.1,1.8-11.1,5.7-15.1,11.8c-2.9,4.4-4,8.8-3.4,13.3
	c0.6,4.5,2.9,9,7,13.6l29.7,33.2l-46.4,13.7C838.1,695,835.6,696.1,833.4,697.7z"/>
<path id="XMLID_00000076599457311942684190000017602327773669503634_" class="st0" d="M1801.7,556.2c-1,0.8-2,1.7-2.8,2.8
	c-1.6,2.4-1.9,5.2-1.1,8.5c0.8,3.3,2.5,5.8,5.1,7.5c1.3,0.9,2.8,1.3,4.5,1.3c1.6,0,3.7-0.5,6.2-1.5l20.8-8.2l-0.2,21.6
	c0,2.1,0.4,3.9,1.1,5.6c0.8,1.7,1.9,3,3.3,3.9c2.5,1.7,5.5,2.2,8.8,1.7c3.3-0.6,5.7-2,7.2-4.3c0.7-1,1.1-2.1,1.4-3.4
	c0.3-1.3,0.3-2.7,0.2-4.2l-2-21.7l19.5,6.4c2.6,0.9,5,1.1,7.1,0.5c2.1-0.6,3.8-1.9,5.2-4c1.9-2.9,2.7-5.8,2.4-8.9
	c-0.3-3-1.7-5.3-4-6.8c-0.6-0.4-1.3-0.7-2.2-1.1c-0.9-0.3-1.9-0.7-2.9-0.9l-19.3-4.4l11.4-16.4l0.3-0.5c2-3.1,2.8-5.9,2.3-8.6
	c-0.5-2.7-2.2-4.9-5.1-6.9c-3-2-5.8-2.7-8.4-2.2c-2.7,0.5-4.9,2.2-6.9,5.1l-0.6,1l-10.2,17.2l-12.6-16.7c-0.8-1-1.5-1.8-1.9-2.3
	c-0.5-0.5-1-1-1.5-1.3c-2.4-1.6-5.1-2-8-1.1c-2.9,0.9-5.3,2.7-7.2,5.6c-1.4,2.1-1.9,4.2-1.6,6.3c0.3,2.1,1.4,4.3,3.4,6.5l14.2,15.9
	l-22.2,6.6C1803.9,554.9,1802.7,555.5,1801.7,556.2z"/>
<path id="XMLID_27_" class="st0" d="M70.4,796.7c2-2,3.4-5.8,4.1-11.4l9.4-82.9c0.4-3.9,0.8-8.5,1-13.8c0.3-5.3,0.4-10.8,0.4-16.5
	c0-19.9-1.8-32.4-5.4-37.6c-3.6-5.2-10.2-7.8-19.8-7.8c-6.2,0-11.4,1.4-15.8,4.2c-4.4,2.8-7,6.6-7.8,11.2c-0.5,2.8-0.9,6.3-1.2,10.6
	c-0.3,4.3-0.4,11.9-0.4,22.9c0,4.4,0.1,8.8,0.3,13.2c0.2,4.5,0.5,9,1,13.5l9.6,82.9c0.6,5.5,2,9.3,4.1,11.3c2.1,2,5.5,3,10.2,3
	C65,799.6,68.4,798.7,70.4,796.7z"/>
<path id="XMLID_26_" class="st0" d="M-39.6,335.7l55.4,62.4c3.7,4.2,7,6.5,9.9,6.9c2.9,0.4,6.3-0.7,10.1-3.4
	c3.9-2.7,6.1-5.5,6.7-8.3c0.5-2.8-0.5-6.7-3.1-11.7l-39.8-73.3c-1.9-3.5-4.3-7.4-7.1-11.9c-2.8-4.5-5.8-9-9.1-13.7
	c-11.4-16.3-20.1-25.5-26-27.7c-3.7-1.4-7.7-1.2-12.1,0.3V316c2.2,3,4.4,6.1,6.7,9.1C-45.4,328.7-42.5,332.2-39.6,335.7z"/>
<path id="XMLID_25_" class="st0" d="M426.4,22l83.2,5.9c5.5,0.4,9.5-0.3,11.9-2c2.4-1.7,4-4.9,4.9-9.5c0.9-4.7,0.5-8.2-1-10.6
	c-1.6-2.3-5-4.4-10.4-6.2l-79.7-24.5c-3.8-1.1-8.2-2.3-13.4-3.6c-5.1-1.2-10.5-2.4-16.1-3.4c-19.5-3.7-32.2-4.2-38-1.6
	c-5.8,2.6-9.6,8.6-11.3,18c-1.1,6.1-0.7,11.5,1.2,16.3c2,4.8,5.2,8.1,9.6,9.7c2.6,1,6,2.1,10.2,3.1c4.2,1.1,11.6,2.6,22.4,4.6
	c4.3,0.8,8.6,1.5,13.1,2.1S421.8,21.6,426.4,22z"/>
<path id="XMLID_24_" class="st0" d="M834.7-11.3l-70.6,44.5c-4.7,3.1-7.6,6-8.5,8.7c-0.9,2.7-0.3,6.2,1.8,10.5
	c2,4.2,4.4,6.8,7.2,7.9c2.7,1,6.7,0.6,12-1.2l78.8-27.4c4.3-1.6,8.5-3.3,12.6-5c4.1-1.7,8.1-3.6,12.1-5.5
	c9.9-4.8,16.7-8.2,20.4-10.3s6.8-4,9-5.7c3.8-2.8,6.1-6.8,6.7-11.9c0.6-5.1-0.4-10.5-3.1-16c-0.1-0.2-0.2-0.4-0.3-0.6h-56.4
	c-3.4,1.7-6.7,3.4-9.9,5.1C842-15.7,838-13.4,834.7-11.3z"/>
<path id="XMLID_23_" class="st0" d="M252.1,992.2c-8.5,0-15.8,3.1-21.8,9.2c-6,6.1-9,13.5-9,22.2c0,8.4,3,15.6,9.1,21.7
	c6.1,6.1,13.3,9.1,21.7,9.1c8.7,0,16.1-3,22.2-9c6.1-6,9.2-13.3,9.2-21.8c0-8.8-3-16.2-9-22.3C268.4,995.2,261,992.2,252.1,992.2z"
	/>
<path id="XMLID_22_" class="st0" d="M321.2,784.8c-17.4-15.1-40.8-22.6-70.2-22.6c-14.4,0-27.2,2-38.4,6.1
	c-11.2,4.1-21.3,10.4-30.4,18.9c-7.5,7-13.3,14.6-17.4,22.8c-4.1,8.2-6.1,16.2-6.1,24c0,8,2.1,14.3,6.3,18.8
	c4.2,4.5,10.1,6.8,17.6,6.8c12.1,0,21.8-7.2,29.1-21.6c1.8-3.6,3.2-6.2,4.2-7.8c3.8-6.8,8.7-11.8,14.7-15.1c6-3.3,13.2-5,21.6-5
	c11.3,0,20.3,3.5,26.9,10.4c6.6,6.9,9.9,16.3,9.9,28c0,13.6-9.2,27.9-27.5,42.8c-6.2,5.1-10.9,9.1-14,12
	c-6.5,6.1-11.5,12.8-15.1,20.1c-3.6,7.3-5.4,14.4-5.4,21.4c0,8,2.4,14.3,7.1,18.7c4.7,4.5,11.4,6.7,20.1,6.7c5.4,0,9.9-1.2,13.8-3.5
	c3.8-2.4,6.8-5.8,8.8-10.4c0.3-0.5,1.2-3.4,3-8.8s3.9-9.7,6.6-13.2c3.4-4.5,9.9-10.2,19.3-17.2c9.4-7,16-12.5,19.7-16.4
	c8.2-8.8,13.9-17.3,17.1-25.6s4.9-18.2,4.9-29.6C347.3,820.1,338.6,799.9,321.2,784.8z"/>
<path id="XMLID_00000129909983168888076720000010794414149100368004_" class="st0" d="M2635.4,950.3c-3.3,0-6.2,1.2-8.5,3.6
	s-3.5,5.3-3.5,8.7c0,3.3,1.2,6.1,3.6,8.5c2.4,2.4,5.2,3.6,8.5,3.6c3.4,0,6.3-1.2,8.7-3.5s3.6-5.2,3.6-8.5c0-3.4-1.2-6.3-3.5-8.7
	C2641.8,951.5,2638.9,950.3,2635.4,950.3z"/>
<path id="XMLID_00000129901389029801609820000002185033186911550872_" class="st0" d="M2662.5,869.2c-6.8-5.9-16-8.9-27.5-8.9
	c-5.6,0-10.6,0.8-15,2.4c-4.4,1.6-8.3,4.1-11.9,7.4c-2.9,2.7-5.2,5.7-6.8,8.9c-1.6,3.2-2.4,6.3-2.4,9.4c0,3.1,0.8,5.6,2.5,7.4
	c1.6,1.8,3.9,2.7,6.9,2.7c4.7,0,8.5-2.8,11.4-8.4c0.7-1.4,1.2-2.4,1.6-3.1c1.5-2.6,3.4-4.6,5.8-5.9c2.3-1.3,5.2-1.9,8.4-1.9
	c4.4,0,7.9,1.4,10.5,4.1c2.6,2.7,3.9,6.4,3.9,11c0,5.3-3.6,10.9-10.8,16.7c-2.4,2-4.3,3.6-5.5,4.7c-2.5,2.4-4.5,5-5.9,7.8
	c-1.4,2.8-2.1,5.6-2.1,8.4c0,3.1,0.9,5.6,2.8,7.3c1.8,1.7,4.5,2.6,7.8,2.6c2.1,0,3.9-0.5,5.4-1.4c1.5-0.9,2.6-2.3,3.4-4.1
	c0.1-0.2,0.5-1.3,1.2-3.4c0.7-2.1,1.5-3.8,2.6-5.2c1.3-1.7,3.9-4,7.5-6.7c3.7-2.7,6.3-4.9,7.7-6.4c3.2-3.4,5.4-6.8,6.7-10
	c1.3-3.2,1.9-7.1,1.9-11.6C2672.7,883,2669.3,875.1,2662.5,869.2z"/>
<path id="XMLID_21_" class="st0" d="M2316.3,368.8c8.6-0.3,16.4-2,23.4-5c7-3,12.7-6.9,16.9-11.9c4.4-5.1,6.4-10.2,6.2-15.3
	c-0.2-5.1-2.7-9.8-7.4-13.8c-7.7-6.6-17.7-7.3-30.1-2.1c-3.1,1.3-5.4,2.2-6.9,2.7c-6.1,2.2-11.9,2.7-17.5,1.6
	c-5.6-1.2-11-4-16.4-8.6c-7.2-6.2-11-13.2-11.4-21.2c-0.4-8,2.6-15.7,8.9-23.1c7.4-8.6,21-12.7,40.7-12.1c6.7,0.2,11.8,0.2,15.4,0
	c7.4-0.3,14.3-1.8,20.5-4.5c6.2-2.7,11.2-6.2,15-10.6c4.4-5.1,6.3-10.3,5.7-15.7c-0.6-5.4-3.6-10.4-9.1-15.1
	c-3.4-2.9-6.9-4.7-10.6-5.2c-3.7-0.6-7.4,0-11.2,1.8c-0.4,0.2-2.7,1.5-6.6,4c-4,2.5-7.8,4-11.3,4.8c-4.6,1-11.8,1.1-21.6,0.4
	c-9.8-0.7-16.9-0.8-21.4-0.3c-9.9,1.1-18.2,3.4-24.7,6.9c-6.6,3.5-12.9,8.8-19.2,16.1c-13.8,16-19.3,33.6-16.5,52.6
	c2.8,19,13.5,36.5,32.1,52.5c9.1,7.8,18.3,13.5,27.6,17S2305.9,369.3,2316.3,368.8z"/>
<path id="XMLID_20_" class="st0" d="M2417.2,161.8c-5.5-4.7-11.8-6.8-18.9-6.4c-7.1,0.5-13,3.4-17.6,8.8c-4.8,5.6-6.9,11.9-6.4,19
	s3.6,13,9.2,17.9c5.4,4.6,11.7,6.6,18.8,6c7.1-0.6,13-3.7,17.7-9.1c4.6-5.3,6.6-11.5,6-18.7C2425.4,172.2,2422.5,166.3,2417.2,161.8
	z"/>
<path id="XMLID_00000065789958126841405710000002941540069906420097_" class="st0" d="M2097.9,774.6c-8.6,0.1-16.4,1.5-23.6,4.3
	c-7.1,2.8-12.9,6.5-17.3,11.3c-4.5,4.9-6.8,10-6.7,15.1c0,5.1,2.4,9.8,7,14.1c7.4,6.8,17.5,7.8,30,3.1c3.1-1.2,5.4-2,7-2.5
	c6.2-2,12-2.3,17.6-1c5.5,1.3,10.9,4.4,16.1,9.1c7,6.4,10.6,13.6,10.7,21.6c0.2,8-3,15.6-9.6,22.8c-7.7,8.4-21.3,12-41,10.9
	c-6.7-0.4-11.8-0.5-15.4-0.4c-7.4,0.1-14.3,1.4-20.6,3.9c-6.3,2.5-11.4,5.8-15.3,10.2c-4.5,4.9-6.6,10.1-6.2,15.5
	c0.4,5.4,3.3,10.5,8.6,15.4c3.3,3,6.8,4.9,10.5,5.6c3.7,0.7,7.4,0.2,11.3-1.5c0.4-0.2,2.7-1.4,6.8-3.7c4.1-2.3,7.9-3.8,11.5-4.4
	c4.6-0.8,11.8-0.7,21.6,0.3c9.7,1,16.9,1.3,21.4,1c10-0.8,18.3-2.9,24.9-6.1c6.7-3.3,13.2-8.4,19.7-15.5
	c14.3-15.6,20.3-32.9,18.1-52c-2.2-19.1-12.4-36.9-30.5-53.5c-8.9-8.1-17.9-14.1-27.1-17.9S2108.3,774.5,2097.9,774.6z"/>
<path id="XMLID_00000057126255922721963780000009834857436352006587_" class="st0" d="M1990.7,978.4c5.3,4.9,11.6,7.2,18.7,6.9
	c7.1-0.2,13.1-3,17.9-8.2c4.9-5.4,7.3-11.7,7-18.8c-0.3-7.1-3.2-13.2-8.7-18.2c-5.3-4.8-11.4-7-18.6-6.6c-7.1,0.4-13.1,3.3-18,8.6
	c-4.7,5.2-6.9,11.3-6.6,18.5S1985.5,973.7,1990.7,978.4z"/>
<path id="XMLID_19_" class="st0" d="M115.9,54.5c6.1,3.5,12.5,4.4,19.4,2.6c6.9-1.8,12.1-5.8,15.6-11.8c3.6-6.2,4.6-12.8,2.8-19.7
	c-1.7-6.9-5.7-12.2-11.8-15.8c-6.3-3.7-12.9-4.6-19.8-2.9c-6.9,1.8-12.2,5.9-15.9,12.3c-3.6,6.2-4.4,12.7-2.5,19.5
	C105.6,45.6,109.7,50.8,115.9,54.5z"/>
<path id="XMLID_18_" class="st0" d="M40.3-14.9C42-7.6,44.7-1.2,48.4,4.4c3.7,5.6,8.1,9.9,13.2,12.8c5.8,3.4,11.3,4.3,16.5,2.8
	c5.2-1.5,9.6-5.4,13.2-11.7c2.2-3.9,3.3-7.7,3.2-11.4c-0.1-3.7-1.4-7.3-3.8-10.7c-0.3-0.4-2-2.3-5.1-5.8c-1.1-1.3-2.1-2.5-3-3.8h-44
	C39.2-19.9,39.8-17,40.3-14.9z"/>
<path id="XMLID_17_" class="st0" d="M-16.5-5V8.9C-15.1,4.5-15.1-0.1-16.5-5z"/>
<path id="XMLID_16_" class="st0" d="M943.5,341.9c-7.4,0-13.8,2.7-19.1,8c-5.3,5.4-8,11.7-8,19c0,7.4,2.7,13.9,8,19.3
	c5.4,5.4,11.7,8.1,19,8.1c7.4,0,13.9-2.7,19.3-8c5.4-5.4,8.1-11.8,8.1-19.4c0-7.5-2.7-13.9-8-19.2
	C957.6,344.5,951.2,341.9,943.5,341.9z"/>
<path id="XMLID_15_" class="st0" d="M827.7,152.2c5.4-5.4,8.1-11.8,8.1-19.4c0-7.5-2.7-13.9-8-19.2c-5.3-5.3-11.8-7.9-19.4-7.9
	c-7.4,0-13.8,2.7-19.1,8c-5.3,5.4-8,11.7-8,19c0,7.4,2.7,13.9,8,19.3c5.4,5.4,11.7,8.1,19,8.1C815.9,160.3,822.3,157.6,827.7,152.2z
	"/>
<path id="XMLID_13_" class="st0" d="M605.6,820.3c4.1-3.3,8.3-6.8,12.6-10.6c14.9-13.2,23.1-22.8,24.6-29c1.5-6.2-0.9-12.8-7.2-20
	c-4.1-4.6-8.6-7.6-13.6-9c-5-1.4-9.5-0.9-13.6,1.6c-2.4,1.4-5.3,3.5-8.7,6.1c-3.4,2.7-9.2,7.6-17.4,14.9c-3.3,2.9-6.5,5.9-9.7,9
	c-3.2,3.1-6.4,6.3-9.5,9.7L507.3,855c-3.7,4.1-5.6,7.7-5.7,10.6c-0.1,2.9,1.4,6.1,4.5,9.6c3.2,3.6,6.2,5.5,9,5.7
	c2.8,0.2,6.6-1.3,11.3-4.4l68.3-47.9C597.8,826.4,601.5,823.6,605.6,820.3z"/>
<path id="XMLID_12_" class="st0" d="M726.2,374.2c-0.8-4.3-1.7-8.6-2.7-13c-1-4.4-2.1-8.7-3.4-13.2l-24.2-79.8
	c-1.6-5.3-3.6-8.8-6.1-10.4c-2.5-1.6-6-2-10.6-1.2c-4.7,0.9-7.9,2.4-9.5,4.7c-1.6,2.3-2.3,6.3-2,12l5.6,83.2
	c0.3,3.9,0.8,8.5,1.4,13.7c0.7,5.2,1.5,10.7,2.6,16.3c3.6,19.5,7.6,31.6,12.1,36c4.5,4.5,11.4,5.9,20.8,4.1c6.1-1.1,11-3.4,14.8-7
	c3.8-3.5,5.7-7.7,5.7-12.5c0-2.8-0.2-6.4-0.7-10.6C729.4,392.5,728.1,385,726.2,374.2z"/>
<path id="XMLID_00000031187786024669659910000008057227960108020906_" class="st0" d="M2175.4-11.3l-70.6,44.5
	c-4.7,3.1-7.6,6-8.5,8.7c-0.9,2.7-0.3,6.2,1.8,10.5c2,4.2,4.4,6.8,7.2,7.9c2.7,1,6.7,0.6,12-1.2l78.8-27.4c4.3-1.6,8.5-3.3,12.6-5
	c4.1-1.7,8.1-3.6,12.1-5.5c9.9-4.8,16.7-8.2,20.4-10.3s6.8-4,9-5.7c3.8-2.8,6.1-6.8,6.7-11.9c0.6-5.1-0.4-10.5-3.1-16
	c-0.1-0.2-0.2-0.4-0.3-0.6h-56.4c-3.4,1.7-6.7,3.4-9.9,5.1C2182.7-15.7,2178.7-13.4,2175.4-11.3z"/>
<path id="XMLID_00000060728016829140753550000001326382792675663033_" class="st0" d="M2119.6,486.5c-7.4,0-13.8,2.7-19.1,8
	c-5.3,5.4-8,11.7-8,19c0,7.4,2.7,13.9,8,19.3c5.4,5.4,11.7,8.1,19,8.1c7.4,0,13.9-2.7,19.3-8c5.4-5.4,8.1-11.8,8.1-19.4
	c0-7.5-2.7-13.9-8-19.2C2133.8,489.1,2127.3,486.5,2119.6,486.5z"/>
<path id="XMLID_00000041255878680231682650000009179788691858527873_" class="st0" d="M2168.4,152.2c5.4-5.4,8.1-11.8,8.1-19.4
	c0-7.5-2.7-13.9-8-19.2c-5.3-5.3-11.8-7.9-19.4-7.9c-7.4,0-13.8,2.7-19.1,8c-5.3,5.4-8,11.7-8,19c0,7.4,2.7,13.9,8,19.3
	c5.4,5.4,11.7,8.1,19,8.1C2156.6,160.3,2163,157.6,2168.4,152.2z"/>
<path id="XMLID_00000179621956256401115420000012813168556928882618_" class="st0" d="M2066.9,374.2c-0.8-4.3-1.7-8.6-2.7-13
	c-1-4.4-2.1-8.7-3.4-13.2l-24.2-79.8c-1.6-5.3-3.6-8.8-6.1-10.4c-2.5-1.6-6-2-10.6-1.2c-4.7,0.9-7.9,2.4-9.5,4.7
	c-1.6,2.3-2.3,6.3-2,12l5.6,83.2c0.3,3.9,0.8,8.5,1.4,13.7c0.7,5.2,1.5,10.7,2.6,16.3c3.6,19.5,7.6,31.6,12.1,36
	c4.5,4.5,11.4,5.9,20.8,4.1c6.1-1.1,11-3.4,14.8-7c3.8-3.5,5.7-7.7,5.7-12.5c0-2.8-0.2-6.4-0.7-10.6
	C2070.1,392.5,2068.9,385,2066.9,374.2z"/>
<path id="XMLID_11_" class="st0" d="M1293.7,992.2c18.4-5.6,34.1-18.8,47.1-39.6c6.4-10.2,10.6-20.1,12.7-29.8
	c2.1-9.7,2.1-19.7,0.1-29.9c-1.6-8.4-4.4-15.9-8.4-22.4c-4-6.5-8.7-11.5-14.2-15c-5.7-3.6-11-4.9-16.1-3.9c-5.1,1-9.3,4.1-12.6,9.4
	c-5.4,8.5-4.6,18.6,2.4,30.1c1.7,2.8,3,5,3.7,6.4c3.1,5.7,4.5,11.4,4.1,17.1c-0.3,5.7-2.3,11.5-6.1,17.5c-5,8-11.5,12.8-19.3,14.4
	c-7.8,1.6-15.9-0.2-24.2-5.4c-9.6-6-15.6-18.9-18-38.4c-0.8-6.7-1.6-11.7-2.3-15.2c-1.4-7.3-3.9-13.8-7.5-19.6
	c-3.5-5.7-7.8-10.2-12.7-13.3c-5.7-3.6-11.1-4.7-16.4-3.3c-5.2,1.4-9.8,5.1-13.6,11.2c-2.4,3.8-3.6,7.5-3.6,11.3
	c0,3.7,1.1,7.4,3.5,10.8c0.2,0.4,1.9,2.4,4.9,6c3,3.6,5.1,7.1,6.4,10.5c1.6,4.4,2.8,11.5,3.6,21.3c0.8,9.8,1.7,16.8,2.9,21.2
	c2.6,9.7,6.1,17.5,10.5,23.4c4.4,6,10.7,11.5,18.8,16.6C1257.1,995,1275.3,997.8,1293.7,992.2z"/>
<path id="XMLID_10_" class="st0" d="M1169.3,815.8c-5.9-3.7-12.4-4.8-19.3-3.2c-7,1.6-12.3,5.4-16,11.3c-3.8,6.1-5,12.7-3.5,19.6
	c1.5,7,5.3,12.4,11.3,16.1c6.2,3.9,12.8,5.1,19.7,3.5c6.9-1.5,12.4-5.5,16.3-11.8c3.8-6,4.8-12.5,3.2-19.5
	C1179.3,825.1,1175.4,819.7,1169.3,815.8z"/>
<path id="XMLID_9_" class="st0" d="M1696.1,289.4c3.5,3,7.6,4.4,12.3,4c4.7-0.4,8.5-2.4,11.6-6c3-3.5,4.3-7.6,4-12.2
	c-0.4-4.7-2.3-8.5-5.8-11.5c-3.6-3.1-7.7-4.5-12.4-4.2c-4.7,0.3-8.5,2.2-11.6,5.8c-3.1,3.6-4.5,7.8-4.2,12.4
	C1690.4,282.3,1692.5,286.2,1696.1,289.4z"/>
<path id="XMLID_8_" class="st0" d="M1614.7,385.2c6,5.1,12,8.8,18.1,11.1c6.1,2.3,12.5,3.3,19.3,3c5.6-0.2,10.7-1.3,15.3-3.3
	c4.6-2,8.3-4.5,11.1-7.8c2.9-3.3,4.2-6.7,4.1-10c-0.1-3.4-1.8-6.4-4.9-9.1c-5-4.3-11.6-4.8-19.7-1.4c-2,0.8-3.5,1.4-4.5,1.8
	c-4,1.4-7.8,1.8-11.5,1c-3.7-0.8-7.2-2.6-10.7-5.6c-4.7-4-7.2-8.7-7.5-13.9c-0.3-5.2,1.7-10.3,5.8-15.1c4.9-5.7,13.7-8.3,26.6-8
	c4.4,0.1,7.8,0.1,10.1,0c4.9-0.2,9.3-1.2,13.4-2.9c4.1-1.7,7.3-4.1,9.8-7c2.9-3.3,4.1-6.8,3.7-10.3c-0.4-3.5-2.3-6.8-5.9-9.9
	c-2.2-1.9-4.5-3-7-3.4c-2.4-0.4-4.9,0-7.4,1.2c-0.3,0.1-1.7,1-4.4,2.6c-2.6,1.6-5.1,2.6-7.4,3.1c-3,0.6-7.7,0.7-14.1,0.3
	c-6.4-0.5-11.1-0.5-14-0.2c-6.5,0.7-11.9,2.3-16.2,4.5c-4.3,2.3-8.5,5.8-12.6,10.5c-9,10.5-12.6,22-10.8,34.4
	C1595.5,363.3,1602.5,374.7,1614.7,385.2z"/>
<path id="XMLID_7_" class="st0" d="M1110.9,285.5c8.8,0,16-2.9,21.6-8.6c5.6-5.7,8.4-13.2,8.4-22.4c0-8.8-2.3-15.8-7-20.9
	c-4.7-5.1-11-7.6-18.9-7.6c-2.5,0-4.8,0.4-6.8,1.2c-2.1,0.8-4.2,2.1-6.4,4c-0.2-0.5-0.4-1.1-0.5-1.8c-0.1-0.7-0.1-1.7-0.1-3.1
	c0-5.7,1.6-10.9,4.9-15.5c3.3-4.6,7.9-8.3,13.7-11.2c2.5-1.2,5.7-2.6,9.5-4.1c8.2-3.4,12.3-7.4,12.3-12.1c0-3.5-0.9-6.2-2.6-8.3
	c-1.7-2.1-4.2-3.1-7.3-3.1c-14.8,0-28.1,6.5-39.9,19.6c-11.8,13.1-17.7,28.4-17.7,46.1c0,14.7,3.3,26.3,9.9,34.9
	C1090.6,281.2,1099.6,285.5,1110.9,285.5z"/>
<path id="XMLID_00000109731242029683104610000001874878684400918924_" class="st0" d="M3375.4,10.1c1.9,8.4,4.9,15.7,9.2,22.1
	c4.2,6.4,9.1,11.2,14.7,14.5c5.8,3.4,11.2,4.5,16.2,3.4c5-1.1,9.1-4.4,12.3-9.8c0.9-1.5,1.5-3.1,2-4.7V21.6c-1-3.7-2.8-7.5-5.4-11.4
	c-1.8-2.8-3.1-4.9-3.9-6.3c-0.1-0.2-0.2-0.4-0.3-0.6h-46C3374.5,5.5,3374.9,7.8,3375.4,10.1z"/>
<path id="XMLID_00000161593592280721421920000014460391601969747898_" class="st0" d="M2805.9,486c5.3,5.3,11.7,7.9,19.2,7.8
	c7.6,0,13.9-2.6,19.1-7.8c5.3-5.3,7.9-11.7,7.9-19.3c0-7.6-2.5-14-7.7-19.2c-5.3-5.3-11.7-7.9-19.3-7.9c-7.6,0-14.1,2.6-19.4,7.9
	c-5.3,5.3-8,11.7-7.9,19.2C2797.8,474.2,2800.5,480.6,2805.9,486z"/>
<path id="XMLID_00000078728506199848103560000015492555620514709148_" class="st0" d="M3134.7,15.4l-70.6,44.5
	c-4.7,3.1-7.6,6-8.5,8.7c-0.9,2.7-0.3,6.2,1.8,10.5c2,4.2,4.4,6.8,7.2,7.9c2.7,1,6.7,0.6,12-1.2l78.8-27.4c4.3-1.6,8.5-3.3,12.6-5
	c4.1-1.7,8.1-3.6,12.1-5.5c9.9-4.8,16.7-8.2,20.4-10.3s6.8-4,9-5.7c3.8-2.8,6.1-6.8,6.7-11.9c0.6-5.1-0.4-10.5-3.1-16
	c-0.1-0.2-0.2-0.4-0.3-0.6h-56.4c-3.4,1.7-6.7,3.4-9.9,5.1C3142.1,11,3138.1,13.3,3134.7,15.4z"/>
<path id="XMLID_00000029040755989670664830000012440371186396825274_" class="st0" d="M2797.6,823.7c-7.4,0-13.8,2.7-19.1,8
	c-5.3,5.4-8,11.7-8,19c0,7.4,2.7,13.9,8,19.3c5.4,5.4,11.7,8.1,19,8.1c7.4,0,13.9-2.7,19.3-8c5.4-5.4,8.1-11.8,8.1-19.4
	s-2.7-13.9-8-19.2C2811.7,826.3,2805.2,823.7,2797.6,823.7z"/>
<path id="XMLID_00000139295754684623002480000010198802531461466243_" class="st0" d="M3127.8,178.9c5.4-5.4,8.1-11.8,8.1-19.4
	c0-7.5-2.7-13.9-8-19.2c-5.3-5.3-11.8-7.9-19.4-7.9c-7.4,0-13.8,2.7-19.1,8c-5.3,5.4-8,11.7-8,19c0,7.4,2.7,13.9,8,19.3
	c5.4,5.4,11.7,8.1,19,8.1C3115.9,186.9,3122.3,184.2,3127.8,178.9z"/>
<path id="XMLID_00000010990216338835154480000010270563670812618396_" class="st0" d="M2919,274.6c-2.5,3.6-4.9,7.3-7.3,11.1
	c-2.4,3.8-4.7,7.7-6.9,11.7l-39.3,73.6c-2.6,4.9-3.6,8.8-3,11.7c0.6,2.9,2.8,5.6,6.7,8.3c3.9,2.7,7.3,3.8,10.1,3.4
	c2.8-0.5,6.1-2.8,9.9-7l54.9-62.8c2.6-3,5.5-6.6,8.7-10.7c3.2-4.2,6.5-8.6,9.7-13.3c11.3-16.3,17-27.7,17-34
	c0-6.3-3.9-12.2-11.8-17.7c-5.1-3.5-10.2-5.3-15.4-5.5c-5.2-0.2-9.5,1.4-12.8,4.8c-2,2-4.3,4.6-7,8
	C2929.7,259.5,2925.2,265.7,2919,274.6z"/>
<path id="XMLID_00000109012870928992705430000015672736171089505156_" class="st0" d="M3411,312.1c8.8,0,16-2.9,21.6-8.6
	c5.6-5.7,8.4-13.2,8.4-22.4c0-8.8-2.3-15.8-7-20.9c-4.7-5.1-11-7.6-18.9-7.6c-2.5,0-4.8,0.4-6.8,1.2c-2.1,0.8-4.2,2.1-6.4,4
	c-0.2-0.5-0.4-1.1-0.5-1.8c-0.1-0.7-0.1-1.7-0.1-3.1c0-5.7,1.6-10.9,4.9-15.5c3.3-4.6,7.9-8.3,13.7-11.2c2.5-1.2,5.7-2.6,9.5-4.1
	c8.2-3.4,12.3-7.4,12.3-12.1c0-3.5-0.9-6.2-2.6-8.3c-1.7-2.1-4.2-3.1-7.3-3.1c-14.8,0-28.1,6.5-39.9,19.6
	c-11.8,13.1-17.7,28.4-17.7,46.1c0,14.7,3.3,26.3,9.9,34.9C3390.7,307.8,3399.6,312.1,3411,312.1z"/>
<path id="XMLID_6_" class="st0" d="M1813.4,822.3c11.8-13.1,17.7-28.4,17.7-46.1c0-14.7-3.3-26.3-9.9-34.9
	c-6.6-8.6-15.5-12.9-26.9-12.9c-8.8,0-16,2.9-21.6,8.6c-5.6,5.7-8.4,13.2-8.4,22.4c0,8.8,2.3,15.8,7,20.9c4.7,5.1,11,7.6,18.9,7.6
	c2.5,0,4.8-0.4,6.8-1.2c2.1-0.8,4.2-2.1,6.4-4c0.3,0.5,0.4,1.1,0.5,1.8c0.1,0.7,0.1,1.7,0.1,3.1c0,5.7-1.6,10.9-4.9,15.5
	c-3.3,4.6-7.9,8.3-13.7,11.2c-2.5,1.2-5.7,2.6-9.5,4.1c-8.2,3.4-12.3,7.4-12.3,12.1c0,3.5,0.9,6.2,2.6,8.3c1.7,2.1,4.2,3.1,7.3,3.1
	C1788.2,841.9,1801.6,835.4,1813.4,822.3z"/>
<path id="XMLID_00000090281946979122562310000016825932168833694891_" class="st0" d="M2936.9,69.1c11.8-13.1,17.7-28.4,17.7-46.1
	c0-14.7-3.3-26.3-9.9-34.9c-6.6-8.6-15.5-12.9-26.9-12.9c-8.8,0-16,2.9-21.6,8.6c-5.6,5.7-8.4,13.2-8.4,22.4c0,8.8,2.3,15.8,7,20.9
	c4.7,5.1,11,7.6,18.9,7.6c2.5,0,4.8-0.4,6.8-1.2c2.1-0.8,4.2-2.1,6.4-4c0.3,0.5,0.4,1.1,0.5,1.8c0.1,0.7,0.1,1.7,0.1,3.1
	c0,5.7-1.6,10.9-4.9,15.5c-3.3,4.6-7.9,8.3-13.7,11.2c-2.5,1.2-5.7,2.6-9.5,4.1c-8.2,3.4-12.3,7.4-12.3,12.1c0,3.5,0.9,6.2,2.6,8.3
	c1.7,2.1,4.2,3.1,7.3,3.1C2911.8,88.7,2925.1,82.1,2936.9,69.1z"/>
<path id="XMLID_5_" class="st0" d="M996.1,970.2c-7.6-2.6-15.5-2-23.8,1.9c-8,3.8-13.3,8.8-15.9,15.2c-2.6,6.4-2.2,13.2,1.2,20.4
	c1.1,2.3,2.4,4.1,4,5.6c1.6,1.5,3.7,2.9,6.4,4.1c-0.3,0.4-0.8,0.8-1.4,1.2c-0.6,0.3-1.5,0.8-2.7,1.4c-5.2,2.4-10.5,3.1-16.1,2.1
	c-5.6-1-10.9-3.6-16-7.6c-2.2-1.7-4.8-4-7.8-6.9c-6.5-6-11.9-8-16.2-6c-3.1,1.5-5.3,3.5-6.4,5.9c-1.1,2.5-1,5.1,0.3,7.9
	c6.3,13.4,17.9,22.6,34.7,27.8c16.8,5.1,33.3,3.9,49.2-3.6c13.3-6.3,22.4-14.2,27.3-23.8c5-9.6,5-19.5,0.2-29.8
	C1009.3,978.2,1003.7,972.8,996.1,970.2z"/>
<path id="XMLID_00000053504163778924533100000005078502821997756813_" class="st0" d="M3233.6,572c0-7.5-2.7-13.9-8-19.2
	c-5.3-5.3-11.8-7.9-19.4-7.9c-7.4,0-13.8,2.7-19.1,8c-5.3,5.4-8,11.7-8,19c0,7.4,2.7,13.9,8,19.3c5.4,5.4,11.7,8.1,19,8.1
	c7.4,0,13.9-2.7,19.3-8C3230.9,586,3233.6,579.6,3233.6,572z"/>
<path id="XMLID_00000147938598788237203590000014561300377414973317_" class="st0" d="M2912.5,679.2c-2.2,1.6-4.1,3.6-5.9,5.9
	c-3.3,5-4.1,10.9-2.3,17.8c1.7,6.9,5.3,12.1,10.7,15.7c2.8,1.8,5.9,2.7,9.3,2.6c3.4-0.1,7.7-1.1,12.9-3.1l43.5-17.2l-0.4,45.2
	c-0.1,4.3,0.7,8.2,2.4,11.8c1.7,3.5,3.9,6.3,6.9,8.2c5.3,3.5,11.4,4.7,18.3,3.5c6.9-1.2,11.9-4.2,15.1-9.1c1.4-2.1,2.3-4.5,2.9-7.2
	c0.6-2.7,0.7-5.7,0.4-8.9l-4.2-45.3l40.7,13.4c5.5,1.9,10.5,2.2,14.9,1c4.4-1.3,8-4.1,10.9-8.4c4-6.1,5.6-12.2,4.9-18.5
	c-0.7-6.3-3.5-11-8.3-14.2c-1.2-0.8-2.8-1.6-4.6-2.3c-1.9-0.7-3.9-1.4-6.1-2l-40.4-9.2l23.8-34.4l0.7-1.1c4.2-6.4,5.8-12.4,4.8-17.9
	c-1-5.5-4.6-10.3-10.6-14.3c-6.2-4.1-12-5.6-17.6-4.6c-5.5,1-10.3,4.6-14.3,10.6l-1.3,2l-21.4,35.9l-26.3-34.8
	c-1.7-2.2-3.1-3.8-4.1-4.9c-1-1.1-2.1-2-3.1-2.7c-5.1-3.4-10.7-4.1-16.7-2.3c-6.1,1.8-11.1,5.7-15.1,11.8c-2.9,4.4-4,8.8-3.4,13.3
	c0.6,4.5,2.9,9,7,13.6l29.7,33.2l-46.4,13.7C2917.1,676.5,2914.7,677.6,2912.5,679.2z"/>
<path id="XMLID_00000001645289139362720420000011408954097657051272_" class="st0" d="M2298.7,1020.1c-0.6,1.6-0.9,3.3-1,5.1
	c0,3.7,1.7,7,4.9,10s6.9,4.4,11,4.4c2.1,0,4-0.6,5.7-1.8c1.7-1.2,3.6-3.2,5.6-6l16.5-23.8l15.4,23.4c1.4,2.2,3.2,4,5.3,5.2
	s4.2,1.9,6.4,1.9c4,0,7.5-1.5,10.6-4.5c3.1-3,4.7-6.3,4.7-9.9c0-1.5-0.3-3.1-1-4.7c-0.6-1.6-1.6-3.2-2.9-4.7l-17.8-21.9l25.6-7.1
	c3.5-0.9,6.2-2.5,8-4.6c1.8-2.2,2.7-4.9,2.7-8.1c0-4.5-1.3-8.2-3.8-11.2c-2.5-3-5.6-4.5-9.2-4.5c-0.9,0-2,0.1-3.2,0.4
	c-1.2,0.3-2.5,0.6-3.8,1.1l-24,9.2l0.4-25.9l0-0.8c0-4.8-1.3-8.4-3.7-10.9c-2.4-2.5-5.9-3.8-10.4-3.7c-4.6,0-8.1,1.3-10.6,3.7
	c-2.5,2.4-3.8,5.9-3.7,10.4l0,1.5l1.3,25.9l-25.5-8.9c-1.6-0.5-2.9-0.9-3.8-1.1c-0.9-0.2-1.8-0.3-2.6-0.3c-3.8,0-6.9,1.5-9.4,4.6
	c-2.5,3-3.7,6.8-3.7,11.3c0,3.2,1,5.9,2.8,8c1.9,2.1,4.6,3.6,8.3,4.6l26.8,6.9l-19.2,23C2300.2,1017.1,2299.3,1018.5,2298.7,1020.1z
	"/>
<path id="XMLID_00000176751452756840910130000006154616326884712328_" class="st0" d="M3165.3,1122.9c-0.6,1.6-0.9,3.3-1,5.1
	c0,3.7,1.7,7,4.9,10c3.3,3,6.9,4.4,11,4.4c2.1,0,4-0.6,5.7-1.8c1.7-1.2,3.6-3.2,5.6-6l16.5-23.8l15.4,23.4c1.5,2.2,3.2,4,5.3,5.2
	c2.1,1.2,4.2,1.9,6.4,1.9c4,0,7.5-1.5,10.6-4.5c3.1-3,4.7-6.3,4.7-9.9c0-1.5-0.3-3.1-1-4.7s-1.6-3.2-2.9-4.7l-17.8-21.9l25.6-7.1
	c3.5-0.9,6.2-2.5,8-4.6c1.8-2.2,2.7-4.9,2.7-8.1c0-4.5-1.3-8.2-3.8-11.2c-2.5-3-5.6-4.5-9.2-4.5c-0.9,0-2,0.1-3.2,0.4
	c-1.2,0.3-2.5,0.6-3.8,1.1l-24,9.2l0.4-25.9l0-0.8c0-4.8-1.3-8.4-3.7-10.9c-2.4-2.5-5.9-3.8-10.4-3.7c-4.6,0-8.1,1.3-10.6,3.7
	c-2.5,2.4-3.8,5.9-3.7,10.4l0,1.5l1.3,25.9l-25.5-8.9c-1.6-0.5-2.9-0.9-3.8-1.1c-0.9-0.2-1.8-0.3-2.6-0.3c-3.8,0-6.9,1.5-9.4,4.6
	c-2.5,3-3.7,6.8-3.7,11.3c0,3.2,1,5.9,2.8,8c1.9,2.1,4.6,3.6,8.3,4.6l26.8,6.9l-19.2,23C3166.8,1119.9,3165.9,1121.3,3165.3,1122.9z
	"/>
<path id="XMLID_00000023973013559428422340000015129319373893003194_" class="st0" d="M2455.6,792.1c-7.4,0-13.8,2.7-19.1,8
	c-5.3,5.4-8,11.7-8,19c0,7.4,2.7,13.9,8,19.3c5.4,5.4,11.7,8.1,19,8.1c7.4,0,13.9-2.7,19.3-8c5.4-5.4,8.1-11.8,8.1-19.4
	s-2.7-13.9-8-19.2C2469.7,794.7,2463.2,792.1,2455.6,792.1z"/>
<path id="XMLID_00000065067445142032710650000010716733754678773160_" class="st0" d="M3319.1,488.2c18.4-5.6,34.1-18.8,47.1-39.6
	c6.4-10.2,10.6-20.1,12.7-29.8s2.1-19.7,0.1-29.9c-1.6-8.4-4.4-15.9-8.4-22.4c-4-6.5-8.7-11.5-14.2-15c-5.7-3.6-11-4.9-16.1-3.9
	c-5.1,1-9.3,4.1-12.6,9.4c-5.4,8.5-4.6,18.6,2.4,30.1c1.7,2.8,3,5,3.7,6.4c3.1,5.7,4.5,11.4,4.1,17.1c-0.3,5.7-2.3,11.5-6.1,17.5
	c-5,8-11.5,12.8-19.3,14.4c-7.8,1.6-15.9-0.2-24.2-5.4c-9.6-6-15.6-18.9-18-38.4c-0.8-6.7-1.6-11.7-2.3-15.2
	c-1.4-7.3-3.9-13.8-7.5-19.6c-3.5-5.7-7.8-10.2-12.7-13.3c-5.7-3.6-11.1-4.7-16.4-3.3c-5.2,1.4-9.8,5.1-13.6,11.2
	c-2.4,3.8-3.6,7.5-3.6,11.3c0,3.7,1.1,7.4,3.5,10.8c0.2,0.4,1.9,2.4,4.9,6c3,3.6,5.1,7.1,6.4,10.5c1.6,4.4,2.8,11.5,3.6,21.3
	c0.8,9.8,1.7,16.8,2.9,21.2c2.6,9.7,6.1,17.5,10.5,23.4c4.4,6,10.7,11.5,18.8,16.6C3282.5,490.9,3300.7,493.7,3319.1,488.2z"/>
<path id="XMLID_00000091711479634070654280000012638720800818152616_" class="st0" d="M3194.7,311.7c-5.9-3.7-12.4-4.8-19.3-3.2
	c-7,1.6-12.3,5.4-16,11.3c-3.8,6.1-5,12.7-3.5,19.6c1.5,7,5.3,12.4,11.3,16.1c6.2,3.9,12.8,5.1,19.7,3.5c6.9-1.5,12.4-5.5,16.3-11.8
	c3.8-6,4.8-12.5,3.2-19.5C3204.7,321,3200.8,315.6,3194.7,311.7z"/>
<path id="XMLID_00000034812026872932993650000000030674769580755366_" class="st0" d="M2666.5,561.3c-8.8,0-16,2.9-21.6,8.6
	c-5.6,5.7-8.4,13.2-8.4,22.4c0,8.8,2.3,15.8,7,20.9c4.7,5.1,11,7.6,18.9,7.6c2.5,0,4.8-0.4,6.8-1.2c2.1-0.8,4.2-2.1,6.4-4
	c0.2,0.5,0.4,1.1,0.5,1.8c0.1,0.7,0.1,1.7,0.1,3.1c0,5.7-1.6,10.9-4.9,15.5c-3.3,4.6-7.9,8.3-13.7,11.2c-2.5,1.2-5.7,2.6-9.5,4.1
	c-8.2,3.4-12.3,7.4-12.3,12.1c0,3.5,0.9,6.2,2.6,8.3c1.7,2.1,4.2,3.1,7.3,3.1c14.8,0,28.1-6.5,39.9-19.6
	c11.8-13.1,17.7-28.4,17.7-46.1c0-14.7-3.3-26.3-9.9-34.9C2686.8,565.5,2677.9,561.3,2666.5,561.3z"/>
<path id="XMLID_00000098910522197705523420000010884115814880801206_" class="st0" d="M3075.2,951.7c-7.6-2.6-15.5-2-23.8,1.9
	c-8,3.8-13.3,8.8-15.9,15.2c-2.6,6.4-2.2,13.2,1.2,20.4c1.1,2.3,2.4,4.1,4,5.6c1.6,1.5,3.7,2.9,6.4,4.1c-0.3,0.4-0.8,0.8-1.4,1.2
	c-0.6,0.3-1.5,0.8-2.7,1.4c-5.2,2.4-10.5,3.1-16.1,2.1c-5.6-1-10.9-3.6-16-7.6c-2.2-1.7-4.8-4-7.8-6.9c-6.5-6-11.9-8-16.2-6
	c-3.1,1.5-5.3,3.5-6.4,5.9c-1.1,2.5-1,5.1,0.3,7.9c6.3,13.4,17.9,22.6,34.7,27.8c16.9,5.1,33.3,3.9,49.2-3.6
	c13.3-6.3,22.4-14.2,27.3-23.8c5-9.6,5-19.5,0.2-29.8C3088.4,959.6,3082.8,954.3,3075.2,951.7z"/>
<path id="XMLID_00000084488271420295870380000002798605892579434390_" class="st0" d="M2184.6,1036.7c-7.6-2.6-15.5-2-23.8,1.9
	c-8,3.8-13.3,8.8-15.9,15.2c-2.6,6.4-2.2,13.2,1.2,20.4c1.1,2.3,2.4,4.1,4,5.6c1.6,1.5,3.7,2.9,6.4,4.1c-0.3,0.4-0.8,0.8-1.4,1.2
	c-0.6,0.3-1.5,0.8-2.7,1.4c-5.2,2.4-10.5,3.1-16.1,2.1c-5.6-1-10.9-3.6-16-7.6c-2.2-1.7-4.8-4-7.8-6.9c-6.5-6-11.9-8-16.2-6
	c-3.1,1.5-5.3,3.5-6.4,5.9c-1.1,2.5-1,5.1,0.3,7.9c6.3,13.4,17.9,22.6,34.7,27.8c16.8,5.1,33.3,3.9,49.2-3.6
	c13.3-6.3,22.4-14.2,27.3-23.8c5-9.6,5-19.5,0.2-29.8C2197.8,1044.6,2192.1,1039.3,2184.6,1036.7z"/>
<path id="XMLID_4_" class="st0" d="M4.1,702c0-7.5-2.7-13.9-8-19.2c-3.6-3.6-7.8-5.9-12.6-7.1v52.8c4.6-1.2,8.7-3.5,12.4-7.2
	C1.4,716,4.1,709.5,4.1,702z"/>
<g>
	<polygon class="st1" points="1480.7,573.4 1565,573.4 1477.1,662.6 1480.7,629.6 	"/>
	<path class="st1" d="M1404.2,441.8c-67.4,0-122.3,54.9-122.3,122.3c0,67.4,54.9,122.3,122.3,122.3c67.4,0,122.3-54.9,122.3-122.3
		C1526.5,496.7,1471.6,441.8,1404.2,441.8z M1419.5,631.9c-1.6,8.8-6.6,13.2-15,13.2c-9-1.9-13.5-6.6-13.5-13.8
		c0-8.1,4.3-13,13-14.7h2.1c6.3,0,10.8,3.9,13.4,11.6V631.9z M1417.1,600.7c-1.1,7.4-5,11.1-11.6,11.1c-7.1-1.6-10.7-5-10.7-10.2
		v-3.2c0-40.7,36.9-36.4,36.9-65.9c0-15.2-13.4-27-28.2-27c-10.7,0-19.1,5.7-25.1,17.1l-2.9,14.3c-3.2,4.2-6.7,6.3-10.3,6.3
		c-7.4-1.6-11.1-5.3-11.1-11c0-15.8,7.7-29.5,23.2-41.2c9.4-5.3,18.6-7.9,27.4-7.9c26.9,0,49.5,24.1,49.5,50.7
		C1454.3,573.5,1417.1,570.4,1417.1,600.7z"/>
</g>
<g>
	<polygon class="st1" points="2714.2,158.4 2757.4,109.1 2764.5,206.3 2747.1,187.2 	"/>
	<path class="st1" d="M2597.9,135.9c-34.5,39.5-30.5,99.8,9,134.3c39.5,34.5,99.8,30.5,134.3-9c34.5-39.5,30.5-99.8-9-134.3
		C2692.7,92.4,2632.4,96.4,2597.9,135.9z M2717.1,224.3c4.3,5.4,4.3,10.6,0,15.5c-5.7,4.3-10.8,4.5-15,0.8
		c-4.7-4.1-5.4-9.2-1.9-15.1l1.1-1.2c3.2-3.7,7.8-4.3,13.7-1.9L2717.1,224.3z M2697.6,209.7c3.8,4.4,4,8.6,0.6,12.5
		c-4.6,3.4-8.4,3.7-11.4,1l-1.9-1.6c-23.8-20.8-2.4-40.2-19.7-55.4c-8.9-7.8-22.7-6-30.2,2.7c-5.5,6.3-6.5,14.1-2.9,23.5l6.9,9
		c0.8,4,0.2,7.1-1.6,9.2c-4.7,3.5-8.8,3.8-12.1,0.9c-9.2-8.1-13.3-19.6-12.3-34.7c1.7-8.2,4.9-14.9,9.4-20.1
		c13.8-15.8,39.5-16.6,55.1-3C2700.7,174,2679.8,194.2,2697.6,209.7z"/>
</g>
<g>
	<polygon class="st1" points="329.2,272.4 369.5,324.2 272.7,312.8 294.7,299.3 	"/>
	<path class="st1" d="M373.5,162.5c-32.2-41.4-92.2-48.9-133.6-16.7c-41.4,32.2-48.9,92.2-16.7,133.6
		c32.2,41.4,92.2,48.9,133.6,16.7C398.2,263.9,405.7,203.9,373.5,162.5z M264,262.8c-6.2,3.2-11.2,2.2-15.2-2.9
		c-3.1-6.5-2.4-11.4,2-14.9c5-3.9,10-3.5,15.2,1l1,1.3c3,3.9,2.8,8.5-0.8,13.8L264,262.8z M282.1,246.4c-5.1,2.9-9.2,2.3-12.4-1.8
		c-2.4-5.1-2-8.9,1.1-11.4l2-1.5c25-19.4,40,5.3,58.1-8.8c9.3-7.3,10.2-21.1,3.1-30.2c-5.1-6.6-12.6-9-22.5-7.3l-10.1,5
		c-4.1,0-7-1.1-8.8-3.3c-2.6-5.3-2.1-9.3,1.5-12.1c9.7-7.5,21.8-9.3,36.4-5.4c7.7,3.3,13.7,7.6,18,13.1c12.9,16.5,8.8,41.9-7.5,54.6
		C316.5,256.2,300.7,231.9,282.1,246.4z"/>
</g>
<g>
	<polygon class="st1" points="3272.8,902.7 3233,954.8 3219.4,858.3 3238,876.2 	"/>
	<path class="st1" d="M3390.3,917.5c31.8-41.7,23.8-101.6-17.9-133.4c-41.7-31.8-101.6-23.8-133.4,17.9
		c-31.8,41.7-23.8,101.6,17.9,133.4C3298.6,967.2,3358.5,959.2,3390.3,917.5z M3265.5,837.2c-4.7-5.1-5-10.3-1.1-15.5
		c5.4-4.6,10.4-5.2,14.9-1.8c5,3.8,6,8.8,2.9,15l-1,1.3c-3,3.9-7.5,4.8-13.5,2.8L3265.5,837.2z M3285.9,850.4
		c-4.1-4.2-4.5-8.3-1.4-12.5c4.3-3.6,8.1-4.3,11.3-1.8l2,1.5c25.1,19.2,5.1,40,23.3,53.9c9.4,7.2,23,4.4,30-4.7
		c5.1-6.6,5.5-14.5,1.3-23.6l-7.4-8.5c-1-4-0.7-7.1,1-9.3c4.5-3.8,8.5-4.4,12-1.7c9.8,7.4,14.6,18.7,14.5,33.8
		c-1.2,8.3-3.9,15.2-8.1,20.7c-12.7,16.7-38.3,19.2-54.7,6.7C3285.2,886.3,3304.7,864.8,3285.9,850.4z"/>
</g>
<path class="st1" d="M1674.7,945.3l-53.2-60.5c-18.5-21-50.7-23-71.7-4.6c-20.6,18.1-22.9,49.5-5.6,70.5l-44.7,16.9l84.6,28.5
	l14.3,16.2c18.5,21,50.7,23,71.7,4.6C1691.1,998.5,1693.1,966.2,1674.7,945.3z M1580.3,929c-2.5-2.9-2.3-7.3,0.6-9.8
	c2.9-2.5,7.3-2.3,9.8,0.6c2.5,2.9,2.3,7.3-0.6,9.8C1587.2,932.2,1582.8,931.9,1580.3,929z M1595.4,946.2c-2.5-2.9-2.3-7.3,0.6-9.8
	c2.9-2.5,7.3-2.3,9.8,0.6c2.5,2.9,2.3,7.3-0.6,9.8C1602.3,949.3,1597.9,949.1,1595.4,946.2z M1610.5,963.3c-2.5-2.9-2.3-7.3,0.6-9.8
	c2.9-2.5,7.3-2.3,9.8,0.6c2.5,2.9,2.3,7.3-0.6,9.8C1617.4,966.5,1613,966.2,1610.5,963.3z M1625.6,980.5c-2.5-2.9-2.3-7.3,0.6-9.8
	c2.9-2.5,7.3-2.3,9.8,0.6c2.5,2.9,2.3,7.3-0.6,9.8C1632.6,983.7,1628.1,983.4,1625.6,980.5z"/>
<path class="st1" d="M1778.8,30l-80.5-1.7c-27.9-0.6-51.3,21.7-51.9,49.7c-0.6,27.4,20.9,50.4,48.1,51.8l-17.8,44.3l78.3-43
	l21.6,0.5c27.9,0.6,51.3-21.7,51.9-49.7C1829.1,53.9,1806.7,30.6,1778.8,30z M1702.9,88.5c-3.8-0.1-6.9-3.3-6.8-7.1
	c0.1-3.8,3.3-6.9,7.1-6.8c3.8,0.1,6.9,3.3,6.8,7.1C1710,85.5,1706.8,88.6,1702.9,88.5z M1725.8,89c-3.8-0.1-6.9-3.3-6.8-7.1
	c0.1-3.8,3.3-6.9,7.1-6.8c3.8,0.1,6.9,3.3,6.8,7.1C1732.8,86,1729.6,89,1725.8,89z M1748.7,89.5c-3.8-0.1-6.9-3.3-6.8-7.1
	c0.1-3.8,3.3-6.9,7.1-6.8c3.8,0.1,6.9,3.3,6.8,7.1C1755.7,86.5,1752.5,89.5,1748.7,89.5z M1771.5,90c-3.8-0.1-6.9-3.3-6.8-7.1
	c0.1-3.8,3.3-6.9,7.1-6.8c3.8,0.1,6.9,3.3,6.8,7.1C1778.6,87,1775.4,90,1771.5,90z"/>
<path class="st1" d="M2440.6,454.7l-85.3,55.9c-29.6,19.4-37.9,59.5-18.6,89.1c19,29,58,37.6,87.4,19.6l13.2,59l51-101l22.9-15
	c29.6-19.4,37.9-59.5,18.6-89.1C2510.2,443.6,2470.2,435.3,2440.6,454.7z M2403.3,570.1c-4.1,2.7-9.5,1.5-12.2-2.5
	c-2.7-4.1-1.5-9.5,2.5-12.2c4.1-2.7,9.6-1.5,12.2,2.5C2408.5,562,2407.3,567.5,2403.3,570.1z M2427.5,554.3
	c-4.1,2.7-9.5,1.5-12.2-2.5c-2.7-4.1-1.5-9.5,2.5-12.2c4.1-2.7,9.5-1.5,12.2,2.5C2432.7,546.1,2431.6,551.6,2427.5,554.3z
	 M2451.8,538.4c-4.1,2.7-9.5,1.5-12.2-2.5c-2.7-4.1-1.5-9.5,2.5-12.2c4.1-2.7,9.5-1.5,12.2,2.5
	C2457,530.2,2455.8,535.7,2451.8,538.4z M2476,522.5c-4.1,2.7-9.5,1.5-12.2-2.5c-2.7-4.1-1.5-9.5,2.5-12.2c4.1-2.7,9.5-1.5,12.2,2.5
	C2481.2,514.4,2480.1,519.8,2476,522.5z"/>
<path class="st1" d="M510.7,462.8H399c-38.7,0-70.4,31.7-70.4,70.4c0,38,30.5,69.2,68.2,70.3l-23.3,61.9l107.2-61.9h29.9
	c38.7,0,70.4-31.7,70.4-70.4C581.1,494.4,549.4,462.8,510.7,462.8z M407.3,546.1c-5.3,0-9.6-4.3-9.6-9.7c0-5.3,4.3-9.7,9.6-9.7
	c5.3,0,9.7,4.3,9.7,9.7C417,541.8,412.6,546.1,407.3,546.1z M439,546.1c-5.3,0-9.6-4.3-9.6-9.7c0-5.3,4.3-9.7,9.6-9.7
	c5.3,0,9.6,4.3,9.6,9.7C448.7,541.8,444.3,546.1,439,546.1z M470.7,546.1c-5.3,0-9.7-4.3-9.7-9.7c0-5.3,4.3-9.7,9.7-9.7
	c5.3,0,9.6,4.3,9.6,9.7C480.4,541.8,476,546.1,470.7,546.1z M502.4,546.1c-5.3,0-9.7-4.3-9.7-9.7c0-5.3,4.3-9.7,9.7-9.7
	c5.3,0,9.6,4.3,9.6,9.7C512.1,541.8,507.8,546.1,502.4,546.1z"/>
</svg>
