<?xml version="1.0" encoding="utf-8"?>
<!-- Generator: Adobe Illustrator 26.0.3, SVG Export Plug-In . SVG Version: 6.00 Build 0)  -->
<svg version="1.1" id="Capa_1" xmlns="http://www.w3.org/2000/svg" xmlns:xlink="http://www.w3.org/1999/xlink" x="0px" y="0px"
	 viewBox="0 0 3471 1595.8" style="enable-background:new 0 0 3471 1595.8;" xml:space="preserve">
<style type="text/css">
	.st0{fill:#dce3ef;}
</style>
<path class="st0" d="M891.9,632.5l-6-3.7l16.6-26.9c24.8-40.2,12.6-93-27.3-117.7c-39.9-24.7-92.6-12-117.5,28.3l-16.6,26.9
	l-5.9-3.7c-12.2-7.5-28.2-3.7-35.8,8.6l-65.1,105.4c-7.6,12.3-3.8,28.3,8.3,35.8l156.7,96.7c12.2,7.5,28.2,3.6,35.8-8.6l65.1-105.4
	C907.8,656.1,904,640.1,891.9,632.5z M775.6,666.2l-8.5,13.8c-1.3,2.1-3.9,2.7-6,1.4l-11.1-6.8c-2-1.3-2.7-3.9-1.4-6l8.5-13.8
	c-3.1-6.3-3.1-13.9,0.9-20.3c6.1-9.8,18.9-12.9,28.7-6.9c9.8,6,12.7,18.9,6.7,28.7C789.4,662.7,782.6,666.2,775.6,666.2z
	 M854.2,609.3l-81.3-50.2l16.6-26.9c14-22.6,43.5-29.7,66-15.9c22.4,13.8,29.3,43.5,15.4,66.1L854.2,609.3z"/>
<path class="st0" d="M1524.1,1055.8l-4.2,2.3l-10.3-19c-15.4-28.5-50.9-39.2-79.1-24c-28.3,15.3-38.7,50.9-23.3,79.3l10.3,19
	l-4.2,2.3c-8.6,4.7-11.8,15.5-7.1,24.1l40.3,74.6c4.7,8.7,15.5,12,24.1,7.3l110.9-59.9c8.6-4.7,11.8-15.5,7.1-24.1l-40.3-74.6
	C1543.5,1054.4,1532.7,1051.1,1524.1,1055.8z M1504.4,1136.2l5.3,9.8c0.8,1.5,0.3,3.3-1.2,4l-7.8,4.2c-1.4,0.8-3.3,0.2-4-1.2
	l-5.3-9.8c-4.8-0.3-9.3-2.9-11.8-7.5c-3.8-7-1.2-15.6,5.7-19.4c6.9-3.7,15.5-1.1,19.3,5.8C1507,1126.8,1506.7,1132.1,1504.4,1136.2z
	 M1497.4,1070.2l-57.5,31.1l-10.3-19c-8.6-16-2.8-36,13.1-44.5c15.9-8.6,35.8-2.5,44.4,13.4L1497.4,1070.2z"/>
<path class="st0" d="M3432.6,1362l-4.5,2.5l-11.1-20.5c-16.6-30.7-54.8-42.3-85.3-25.8c-30.4,16.5-41.7,54.8-25.1,85.5l11.1,20.5
	l-4.5,2.4c-9.3,5-12.7,16.7-7.6,26l43.4,80.4c5.1,9.4,16.7,12.9,26,7.9l119.5-64.6c9.3-5,12.7-16.7,7.6-26l-43.4-80.4
	C3453.4,1360.5,3441.8,1357,3432.6,1362z M3411.3,1448.7l5.7,10.5c0.8,1.6,0.3,3.5-1.3,4.4l-8.4,4.6c-1.5,0.8-3.5,0.2-4.3-1.3
	l-5.7-10.5c-5.1-0.3-10-3.2-12.7-8.1c-4.1-7.5-1.3-16.8,6.1-20.9c7.4-4,16.8-1.2,20.8,6.3
	C3414.2,1438.5,3413.9,1444.2,3411.3,1448.7z M3403.8,1377.5l-62,33.5l-11.1-20.5c-9.3-17.2-3-38.7,14.1-48
	c17.1-9.2,38.6-2.7,47.9,14.5L3403.8,1377.5z"/>
<path class="st0" d="M2859.4,104.7l-3.8-2.9l12.9-17.4c19.3-26,14.1-62.7-11.6-81.9c-25.8-19.2-62.4-13.7-81.8,12.3l-12.9,17.4
	l-3.8-2.9c-7.8-5.8-19-4.2-24.9,3.7l-50.7,68c-5.9,7.9-4.3,19.1,3.5,24.9l101.1,75.3c7.8,5.8,19,4.2,24.9-3.7l50.7-68
	C2868.8,121.7,2867.2,110.5,2859.4,104.7z M2778.1,120.7l-6.6,8.9c-1,1.3-2.9,1.6-4.2,0.6l-7.1-5.3c-1.3-1-1.6-2.9-0.6-4.2l6.6-8.9
	c-1.7-4.4-1.3-9.7,1.8-13.8c4.7-6.3,13.7-7.7,20-3c6.3,4.7,7.6,13.6,2.8,20C2787.7,119.1,2782.8,121.1,2778.1,120.7z M2835,86.6
	l-52.4-39.1l12.9-17.4c10.9-14.6,31.5-17.7,45.9-6.9c14.5,10.8,17.4,31.4,6.5,46L2835,86.6z"/>
<path class="st0" d="M219.3,1362.4l-3.4,1.9l-8.7-15.5c-12.9-23.1-42.1-31.5-65.1-18.7c-22.9,12.8-31.1,42.1-18.1,65.2l8.7,15.5
	l-3.4,1.9c-7,3.9-9.5,12.8-5.5,19.9l33.9,60.6c3.9,7.1,12.8,9.6,19.8,5.7l90-50.4c7-3.9,9.5-12.8,5.5-19.9l-33.9-60.6
	C235.2,1361,226.3,1358.5,219.3,1362.4z M204.2,1428.5l4.4,7.9c0.7,1.2,0.2,2.7-0.9,3.3l-6.4,3.6c-1.2,0.7-2.7,0.2-3.3-1l-4.4-7.9
	c-3.9-0.2-7.7-2.3-9.7-6c-3.2-5.7-1.2-12.8,4.4-15.9c5.6-3.1,12.7-1.1,15.9,4.6C206.2,1420.8,206,1425.1,204.2,1428.5z
	 M197.7,1374.5l-46.7,26.1l-8.7-15.5c-7.3-13-2.7-29.4,10.2-36.6c12.9-7.2,29.3-2.5,36.5,10.5L197.7,1374.5z"/>
<g>
	<path class="st0" d="M707.4,127.3c-4.5,2.5-6.1,8.2-3.6,12.7l67.6,120.5c2.5,4.5,8.2,6.1,12.7,3.6l72.8-40.8l-9-16
		c-4-7.1-1.4-16,5.6-20l17.8-10l-56-99.8c-2.5-4.5-8.2-6.1-12.7-3.6L707.4,127.3z M831.3,156l-69,38.7l-3.1-5.6l69-38.7L831.3,156z
		 M820.3,136.3l-69,38.7l-3.1-5.6l69-38.7L820.3,136.3z M809.3,116.7l-69,38.7l-3.1-5.6l69-38.7L809.3,116.7z"/>
	<path class="st0" d="M852.5,204.7l7.3,12.9l10.6-33.6l-14.2,8C851.6,194.5,850,200.3,852.5,204.7z"/>
</g>
<g>
	<path class="st0" d="M3249.5,16.7c-5.9,3.3-8.1,10.9-4.7,16.8l89.4,159.5c3.3,5.9,10.9,8.1,16.8,4.7l96.3-54l-11.9-21.2
		c-5.2-9.3-1.9-21.2,7.4-26.4l23.5-13.2l-74.1-132.1c-3.3-6-10.9-8.1-16.8-4.7L3249.5,16.7z M3413.5,54.6l-91.3,51.2l-4.2-7.4
		l91.3-51.2L3413.5,54.6z M3399,28.6l-91.3,51.2l-4.2-7.4l91.3-51.2L3399,28.6z M3384.4,2.6l-91.3,51.2l-4.2-7.4l91.3-51.2
		L3384.4,2.6z"/>
	<path class="st0" d="M3441.6,119.1l9.6,17.1l14-44.5l-18.8,10.6C3440.4,105.6,3438.3,113.2,3441.6,119.1z"/>
</g>
<g>
	<path class="st0" d="M2901.3,1488.9c-4.3-2.8-10.1-1.6-12.9,2.8l-75.2,115.9c-2.8,4.3-1.6,10.1,2.8,12.9l70,45.4l10-15.4
		c4.4-6.8,13.5-8.7,20.3-4.3l17.1,11.1l62.3-96c2.8-4.3,1.6-10.1-2.8-12.9L2901.3,1488.9z M2933.7,1611.9l-66.4-43l3.5-5.4l66.4,43
		L2933.7,1611.9z M2946,1593l-66.4-43l3.5-5.4l66.4,43L2946,1593z M2958.2,1574.1l-66.4-43l3.5-5.4l66.4,43L2958.2,1574.1z"/>
	<path class="st0" d="M2900.5,1653.4l-8.1,12.5l34.7-6.3l-13.7-8.9C2909.1,1647.8,2903.3,1649.1,2900.5,1653.4z"/>
</g>
<g>
	<path class="st0" d="M2507.2,908.5c-4.5,2.5-6.1,8.2-3.6,12.7l67.6,120.5c2.5,4.5,8.2,6.1,12.7,3.6l72.8-40.8l-9-16
		c-4-7.1-1.4-16,5.6-20l17.8-10l-56-99.8c-2.5-4.5-8.2-6.1-12.7-3.6L2507.2,908.5z M2631.1,937.1l-69,38.7l-3.1-5.6l69-38.7
		L2631.1,937.1z M2620.1,917.5l-69,38.7l-3.1-5.6l69-38.7L2620.1,917.5z M2609.1,897.8l-69,38.7l-3.1-5.6l69-38.7L2609.1,897.8z"/>
	<path class="st0" d="M2652.3,985.9l7.3,12.9l10.6-33.6l-14.2,8C2651.4,975.7,2649.8,981.4,2652.3,985.9z"/>
</g>
<g>
	<path class="st0" d="M1765.3,343.7c-4.2-3-10-2.1-13,2.1l-80.8,112.1c-3,4.2-2.1,10,2.1,13l67.7,48.8l10.7-14.9
		c4.7-6.6,13.9-8.1,20.5-3.3l16.5,11.9l66.9-92.9c3-4.2,2.1-10-2.1-13L1765.3,343.7z M1791.6,468.2l-64.2-46.2l3.8-5.2l64.2,46.2
		L1791.6,468.2z M1804.7,449.9l-64.2-46.2l3.8-5.2l64.2,46.2L1804.7,449.9z M1817.9,431.6l-64.2-46.2l3.8-5.2l64.2,46.2
		L1817.9,431.6z"/>
	<path class="st0" d="M1756.3,508l-8.7,12l35-4.6l-13.2-9.5C1765.2,502.8,1759.3,503.8,1756.3,508z"/>
</g>
<g>
	<path class="st0" d="M1768.8,1302.8c-6.2-3.8-14.4-1.8-18.2,4.5l-101.2,167.2c-3.8,6.2-1.8,14.4,4.5,18.2l101,61.1l13.5-22.2
		c5.9-9.8,18.7-12.9,28.5-7l24.6,14.9l83.9-138.5c3.8-6.2,1.8-14.4-4.5-18.2L1768.8,1302.8z M1820,1475.4l-95.7-58l4.7-7.8l95.7,58
		L1820,1475.4z M1836.5,1448.1l-95.7-58l4.7-7.8l95.7,58L1836.5,1448.1z M1853,1420.9l-95.7-58l4.7-7.8l95.7,58L1853,1420.9z"/>
	<path class="st0" d="M1774.8,1535.5l-10.9,18l48.8-10.5l-19.7-12C1786.7,1527.3,1778.6,1529.3,1774.8,1535.5z"/>
</g>
<g>
	<g>
		<path class="st0" d="M1137.4,968.4c-6.4-1.3-14.6-2.2-24.6-2.6c-10.3-0.4-17.6,0-22.2,1.4c-4.6,1.4-12,5.6-22.6,13
			c-10.3,7.2-23.9,18.9-40.6,34.8c-16.6,15.9-31.7,31.6-44.7,46.7c-11.6,13.5-23.8,28.5-36.1,44.6c0-0.1-0.1-0.1-0.1-0.2
			c-1.2,1.2-2.3,2.4-3.4,3.7c-0.1,0.1-0.2,0.3-0.3,0.4c-11.9,14.2-28.5,40.5-22.9,60.8c0.3,0.5,0.6,1.1,0.9,1.6
			c1.9,1.1,3.7,2.3,5.5,3.6c2.3,0.8,4.5,1.7,6.8,2.5c2.3,0.2,4.6,0.4,7,0.6c12.5-1.7,23.8-5,34.8-10.6c1.9-1.7,3.7-3.5,5.6-5.2
			c0.1-0.2,0.3-0.4,0.4-0.6c19.7-29.9,44.4-60.3,73.5-90.5c29-30.1,56-52.7,80.2-67.4c5.9-3.5,9.6-6.1,11.7-8.2
			c2.3-2.3,3.8-5.3,4.5-8.8c0.9-4.4,0.1-8.6-2.3-12.4C1146.1,971.9,1142.3,969.4,1137.4,968.4z"/>
	</g>
	<g>
		<path class="st0" d="M1104.8,1119.1c-6.8-9.8-17.9-22.8-33.1-38.7c-15.1-15.8-30.1-30.1-44.5-42.5c-12.2-10.5-25.7-21.5-40.2-32.6
			c-0.8-0.3-1.7-0.7-2.5-1.5c-12.2-12.2-25.6-18.6-41.6-24.8c-0.5-0.2-1-0.5-1.4-0.7c-6.7-1.6-13.4-1.9-19.4,0
			c-0.8,0.4-1.5,0.9-2.3,1.4c-1.2,3.2-2.4,6.4-3.5,9.6c-0.2,0.9-0.4,1.8-0.6,2.7c-0.1,1.8-0.3,3.5-0.4,5.3
			c1.4,10.5,4.1,20.1,8.3,29.4c1.7,3,3.5,5.8,5.7,8.4c0.5,0.4,1,0.7,1.6,1.1c28.4,18.8,57.4,42.3,86.1,69.9
			c28.6,27.6,50.2,53.3,64.2,76.3c3.4,5.6,5.8,9.2,7.8,11.1c2.2,2.2,5.1,3.6,8.4,4.3c4.2,0.9,8.2,0.1,11.8-2.2
			c3.6-2.3,5.9-5.9,6.9-10.5c1.2-6.1,2.1-13.9,2.5-23.4c0.4-9.8,0-16.7-1.3-21.1C1115.9,1136.2,1111.9,1129.2,1104.8,1119.1z"/>
	</g>
</g>
<g>
	<g>
		<path class="st0" d="M372.7-84.4c-4.5-0.9-10.3-1.5-17.2-1.8c-7.2-0.3-12.3,0-15.6,1c-3.2,1-8.4,3.9-15.8,9.1
			c-7.2,5-16.8,13.2-28.5,24.4c-11.7,11.2-22.2,22.2-31.4,32.8c-8.2,9.5-16.7,20-25.3,31.3c0-0.1-0.1-0.1-0.1-0.2
			c-0.9,0.8-1.6,1.7-2.4,2.6c-0.1,0.1-0.1,0.2-0.2,0.3c-8.4,10-20,28.4-16.1,42.7c0.2,0.4,0.4,0.8,0.6,1.1c1.3,0.8,2.6,1.6,3.9,2.5
			c1.6,0.6,3.2,1.2,4.8,1.7c1.6,0.1,3.3,0.3,4.9,0.4c8.7-1.2,16.7-3.5,24.4-7.4c1.3-1.2,2.6-2.5,3.9-3.6c0.1-0.1,0.2-0.3,0.3-0.4
			c13.8-21,31.2-42.3,51.6-63.5c20.3-21.1,39.3-37,56.3-47.3c4.2-2.5,6.8-4.3,8.2-5.8c1.6-1.6,2.7-3.7,3.2-6.2
			c0.6-3.1,0.1-6-1.6-8.7C378.7-82,376.1-83.7,372.7-84.4z"/>
	</g>
	<g>
		<path class="st0" d="M349.8,21.3c-4.8-6.8-12.6-16-23.3-27.1C315.9-17,305.4-27,295.3-35.7c-8.6-7.4-18.1-15.1-28.2-22.9
			c-0.6-0.2-1.2-0.5-1.7-1.1c-8.6-8.5-18-13.1-29.2-17.4c-0.4-0.1-0.7-0.3-1-0.5c-4.7-1.1-9.4-1.3-13.6,0c-0.5,0.3-1.1,0.6-1.6,1
			c-0.8,2.2-1.7,4.5-2.5,6.7c-0.1,0.6-0.3,1.3-0.4,1.9c-0.1,1.2-0.2,2.5-0.3,3.7c1,7.3,2.9,14.1,5.8,20.6c1.2,2.1,2.4,4.1,4,5.9
			c0.4,0.2,0.7,0.5,1.1,0.8c20,13.2,40.3,29.7,60.4,49.1c20.1,19.3,35.2,37.4,45,53.6c2.4,4,4.1,6.4,5.5,7.8c1.6,1.5,3.6,2.5,5.9,3
			c3,0.6,5.7,0.1,8.3-1.5c2.5-1.6,4.2-4.1,4.8-7.4c0.9-4.3,1.5-9.8,1.7-16.4c0.3-6.9,0-11.7-0.9-14.8
			C357.5,33.3,354.7,28.4,349.8,21.3z"/>
	</g>
</g>
<g>
	<g>
		<path class="st0" d="M3091,1119.9c-4.5-0.9-10.3-1.5-17.2-1.8c-7.2-0.3-12.3,0-15.6,1c-3.2,1-8.4,3.9-15.8,9.1
			c-7.2,5-16.8,13.2-28.5,24.4c-11.7,11.2-22.2,22.2-31.4,32.8c-8.2,9.5-16.7,20-25.3,31.3c0-0.1-0.1-0.1-0.1-0.2
			c-0.9,0.8-1.6,1.7-2.4,2.6c-0.1,0.1-0.1,0.2-0.2,0.3c-8.4,10-20,28.4-16.1,42.7c0.2,0.4,0.4,0.8,0.6,1.1c1.3,0.8,2.6,1.6,3.9,2.5
			c1.6,0.6,3.2,1.2,4.8,1.7c1.6,0.1,3.3,0.3,4.9,0.4c8.7-1.2,16.7-3.5,24.4-7.4c1.3-1.2,2.6-2.5,3.9-3.6c0.1-0.1,0.2-0.3,0.3-0.4
			c13.8-21,31.2-42.3,51.6-63.5c20.3-21.1,39.3-37,56.3-47.3c4.2-2.5,6.8-4.3,8.2-5.8c1.6-1.6,2.7-3.7,3.2-6.2
			c0.6-3.1,0.1-6-1.6-8.7C3097,1122.3,3094.4,1120.6,3091,1119.9z"/>
	</g>
	<g>
		<path class="st0" d="M3068.1,1225.6c-4.8-6.8-12.6-16-23.3-27.1c-10.6-11.1-21.1-21.2-31.2-29.8c-8.6-7.4-18.1-15.1-28.2-22.9
			c-0.6-0.2-1.2-0.5-1.7-1.1c-8.6-8.5-18-13.1-29.2-17.4c-0.4-0.1-0.7-0.3-1-0.5c-4.7-1.1-9.4-1.3-13.6,0c-0.5,0.3-1.1,0.6-1.6,1
			c-0.8,2.2-1.7,4.5-2.5,6.7c-0.1,0.6-0.3,1.3-0.4,1.9c-0.1,1.2-0.2,2.5-0.3,3.7c1,7.3,2.9,14.1,5.8,20.6c1.2,2.1,2.4,4.1,4,5.9
			c0.4,0.2,0.7,0.5,1.1,0.8c20,13.2,40.3,29.7,60.4,49.1c20.1,19.3,35.2,37.4,45,53.6c2.4,4,4.1,6.4,5.5,7.8c1.6,1.5,3.6,2.5,5.9,3
			c3,0.6,5.7,0.1,8.3-1.5c2.5-1.6,4.2-4.1,4.8-7.4c0.9-4.3,1.5-9.8,1.7-16.4c0.3-6.9,0-11.7-0.9-14.8
			C3075.9,1237.7,3073,1232.7,3068.1,1225.6z"/>
	</g>
</g>
<g>
	<g>
		<path class="st0" d="M2335.4,593.6c-4.5-0.9-10.3-1.5-17.2-1.8c-7.2-0.3-12.3,0-15.6,1c-3.2,1-8.4,3.9-15.9,9.1
			c-7.2,5-16.8,13.2-28.5,24.4c-11.7,11.2-22.2,22.2-31.4,32.8c-8.2,9.5-16.7,20-25.3,31.3c0-0.1-0.1-0.1-0.1-0.2
			c-0.9,0.8-1.6,1.7-2.4,2.6c-0.1,0.1-0.1,0.2-0.2,0.3c-8.4,10-20,28.4-16.1,42.7c0.2,0.4,0.4,0.8,0.6,1.1c1.3,0.8,2.6,1.6,3.9,2.5
			c1.6,0.6,3.2,1.2,4.8,1.7c1.6,0.1,3.3,0.3,4.9,0.4c8.7-1.2,16.7-3.5,24.4-7.4c1.3-1.2,2.6-2.5,3.9-3.6c0.1-0.1,0.2-0.3,0.3-0.4
			c13.8-21,31.2-42.3,51.6-63.5c20.3-21.1,39.3-37,56.3-47.3c4.2-2.5,6.8-4.3,8.2-5.8c1.6-1.6,2.7-3.7,3.2-6.2
			c0.6-3.1,0.1-6-1.6-8.7C2341.4,596,2338.8,594.3,2335.4,593.6z"/>
	</g>
	<g>
		<path class="st0" d="M2312.5,699.3c-4.8-6.8-12.6-16-23.3-27.1c-10.6-11.1-21.1-21.2-31.2-29.8c-8.6-7.4-18.1-15.1-28.2-22.9
			c-0.6-0.2-1.2-0.5-1.7-1.1c-8.6-8.5-18-13.1-29.2-17.4c-0.4-0.1-0.7-0.3-1-0.5c-4.7-1.1-9.4-1.3-13.6,0c-0.5,0.3-1.1,0.6-1.6,1
			c-0.8,2.2-1.7,4.5-2.5,6.7c-0.1,0.6-0.3,1.3-0.4,1.9c-0.1,1.2-0.2,2.5-0.3,3.7c1,7.3,2.9,14.1,5.8,20.6c1.2,2.1,2.4,4.1,4,5.9
			c0.4,0.2,0.7,0.5,1.1,0.8c20,13.2,40.3,29.7,60.4,49.1c20.1,19.3,35.2,37.4,45,53.6c2.4,4,4.1,6.4,5.5,7.8c1.6,1.5,3.6,2.5,5.9,3
			c3,0.6,5.7,0.1,8.3-1.5c2.5-1.6,4.2-4.1,4.8-7.4c0.9-4.3,1.5-9.8,1.7-16.4c0.3-6.9,0-11.7-0.9-14.8
			C2320.3,711.3,2317.4,706.4,2312.5,699.3z"/>
	</g>
</g>
<g>
	<g>
		<path class="st0" d="M2322.9,1540.7c-3.8-2.6-8.9-5.4-15.2-8.4c-6.6-3.1-11.4-4.8-14.7-5.1c-3.3-0.4-9.3,0.4-18.1,2.3
			c-8.6,1.8-20.6,5.7-35.7,11.5c-15.1,5.8-29.1,11.8-41.6,18.1c-11.2,5.6-23.1,12-35.4,19c0-0.1,0-0.1,0-0.2
			c-1.1,0.4-2.2,0.9-3.2,1.5c-0.1,0.1-0.2,0.1-0.3,0.2c-11.6,6-29.4,18.4-31.3,33c0,0.4,0.1,0.8,0.1,1.3c0.9,1.2,1.8,2.5,2.6,3.8
			c1.2,1.2,2.5,2.3,3.7,3.5c1.5,0.7,2.9,1.5,4.4,2.3c8.5,2.3,16.8,3.2,25.4,2.6c1.7-0.6,3.3-1.3,5-1.8c0.1-0.1,0.3-0.2,0.4-0.3
			c20.9-14,45.1-26.9,72.1-38.5c26.9-11.6,50.5-18.9,70.1-21.8c4.8-0.7,7.9-1.3,9.8-2.1c2.1-0.9,3.9-2.4,5.3-4.5
			c1.8-2.6,2.4-5.5,1.9-8.6C2327.5,1545.3,2325.8,1542.7,2322.9,1540.7z"/>
	</g>
	<g>
		<path class="st0" d="M2260.9,1629.2c-1.7-8.2-5.4-19.6-10.9-34c-5.5-14.4-11.3-27.7-17.2-39.6c-5-10.1-10.8-20.9-17.1-32
			c-0.5-0.4-0.9-0.9-1.2-1.7c-4.6-11.2-11.5-19-20.1-27.3c-0.3-0.3-0.5-0.6-0.7-0.8c-3.9-2.9-8.1-4.9-12.6-5.3
			c-0.6,0-1.2,0.1-1.8,0.3c-1.6,1.7-3.3,3.5-4.9,5.3c-0.3,0.5-0.7,1.1-1.1,1.6c-0.6,1.1-1.2,2.2-1.7,3.3c-1.9,7.1-2.8,14.1-2.6,21.3
			c0.3,2.4,0.7,4.7,1.4,7c0.2,0.4,0.5,0.7,0.7,1.1c13.3,19.9,25.6,42.9,36.6,68.6c11,25.6,18,48.1,20.7,66.8c0.6,4.6,1.3,7.5,2,9.3
			c0.9,2,2.3,3.7,4.3,5.1c2.5,1.7,5.3,2.3,8.2,1.8c3-0.5,5.4-2.2,7.3-4.9c2.5-3.6,5.1-8.4,7.9-14.4c2.9-6.2,4.5-10.8,4.9-14
			C2263.4,1643.3,2262.7,1637.6,2260.9,1629.2z"/>
	</g>
</g>
<g>
	<g>
		<path class="st0" d="M1216.9,217.5c-3,1.1-6.7,2.8-10.9,5.1c-4.4,2.4-7.3,4.4-8.9,6.2c-1.6,1.7-3.6,5.4-6.2,11.1
			c-2.5,5.6-5.3,13.9-8.2,24.8c-3,10.9-5.3,21.2-6.9,30.8c-1.5,8.6-2.8,17.9-3.9,27.8c0,0-0.1,0-0.1-0.1c-0.2,0.8-0.4,1.6-0.5,2.4
			c0,0.1,0,0.2,0,0.2c-1.4,9-1.7,24.1,5.7,31.2c0.3,0.1,0.5,0.3,0.8,0.5c1.1,0,2.1,0,3.2,0.1c1.2-0.2,2.3-0.4,3.5-0.7
			c1-0.5,2-1,3.1-1.5c4.8-3.8,8.7-8.1,11.9-13.2c0.4-1.2,0.7-2.4,1.1-3.6c0-0.1,0-0.2,0-0.4c0.7-17.5,3.4-36.4,8-56.4
			c4.6-19.9,10.2-36.2,16.6-48.4c1.6-3,2.5-5,2.8-6.4c0.4-1.6,0.3-3.2-0.3-4.8c-0.7-2.1-2.1-3.6-4.1-4.6
			C1221.4,216.7,1219.2,216.6,1216.9,217.5z"/>
	</g>
	<g>
		<path class="st0" d="M1241.2,288.8c-5.3-2.4-13.3-5-23.6-7.8c-10.3-2.8-20.2-5-29.3-6.6c-7.8-1.3-16.2-2.5-25-3.5
			c-0.4,0.1-0.9,0.1-1.4,0c-8.2-2-15.4-1.3-23.7,0.1c-0.3,0-0.5,0.1-0.8,0c-3.2,1-6.1,2.6-8.1,4.9c-0.2,0.4-0.4,0.7-0.6,1.2
			c0.3,1.6,0.6,3.3,1,4.9c0.2,0.4,0.3,0.8,0.4,1.3c0.4,0.8,0.8,1.6,1.2,2.3c3.2,4,6.8,7.4,10.9,10.2c1.4,0.8,2.9,1.6,4.5,2.1
			c0.3,0,0.6,0,0.9,0c16.6,0.7,34.7,3.3,53.7,7.6c18.9,4.3,34.4,9.7,46.1,15.8c2.8,1.5,4.8,2.4,6.1,2.7c1.5,0.3,3,0.2,4.6-0.3
			c2-0.7,3.5-2,4.4-3.9c0.9-1.9,1-4,0.2-6.1c-1-2.9-2.6-6.4-4.9-10.4c-2.3-4.2-4.2-7-5.9-8.5
			C1250.1,293.1,1246.7,291.2,1241.2,288.8z"/>
	</g>
</g>
<g>
	<path class="st0" d="M291.9,207.2c-8.2,13-14.5,21.6-21.7,24.1c5.6-6.9,14.7-20.3,13-39.3c-0.1-1.4-4.6-1.2-6-1.1
		c-1.4,0.1-2.5,1.4-2.4,2.8c1.3,14.7-2.4,24.7-6.4,31.1c0.2-16.1-5-35.6-11.8-48.6l-51.9,27.6l-54.1,28.7
		c8.9,16.7,28.4,37.2,45.2,42.9l71.1-37.7c0,0,0-0.1,0-0.1c3.3-0.7,7.2-1.9,11.4-4.1c6.8-3.6,14.4-9.9,21.2-20.6
		c0.8-1.2-2.7-5.7-3.9-6.5C294.3,205.6,292.7,206,291.9,207.2z"/>
	<path class="st0" d="M270.4,242.5l-0.5,0.3l-71.7,38.1l-0.5,0.3c-28.8,33.8-35.7,83.1-13.6,124.7c28.9,54.5,75.6,35.7,130,6.8
		c54.5-28.9,96.1-57.1,67.2-111.5C359.2,259.5,314.6,237.6,270.4,242.5z M308.5,336.8c5.2,12.6-1.1,25.2-9.7,30.7l6.8,12.6
		l-12.2,6.5l-6.2-11.6c0,0-14.2,6.6-24.7,5.9l-3-16.7c0,0,7.1,0.1,14.1-2c7.1-2.1,17.9-8.3,16.1-15c-1.8-6.5-6.8-6.8-15.8-4.8
		c-9.1,1.9-26.2,2.8-33.1-7.2c-7.5-10.8-7-22.5,6.8-34.1l-6.5-12.2l12.2-6.5l5.7,10.7c0,0,13-5.7,19.3-5.2l4,14.6
		c0,0-13.9,2.3-21.6,7.2c-7.8,4.8-4,13.3,3.7,13.9c9,0.7,20.7-1.4,24.8-1.4C293.3,322.3,303.3,324.2,308.5,336.8z"/>
</g>
<g>
	<path class="st0" d="M2180.9,1130.7c-10.5-0.3-17.7-0.9-21.8-4.3c6,0.8,17.1,1.5,27.7-6.2c0.8-0.6-0.9-3.1-1.5-3.9
		c-0.6-0.8-1.7-1-2.5-0.4c-8.2,5.9-15.3,7.3-20.5,7.2c9.5-5.6,19.2-15.4,24.4-24l-34.4-20.8l-35.9-21.7
		c-6.7,11.1-11.9,29.7-9.3,41.6l47.2,28.5c0,0,0,0,0.1,0c1.6,1.7,3.6,3.6,6.4,5.3c4.5,2.7,10.9,5,19.5,5.2c1,0,2.4-3.6,2.4-4.6
		C2182.7,1131.6,2181.9,1130.8,2180.9,1130.7z"/>
	<path class="st0" d="M2152.7,1130.5l-0.3-0.2l-47.6-28.7l-0.3-0.2c-30-5-61.3,8.3-78,35.9c-21.8,36.1,5.6,56.9,41.7,78.7
		c36.1,21.8,67.3,36.4,89.1,0.2C2173.9,1188.6,2171.1,1154.7,2152.7,1130.5z M2110.7,1186c-5.5,7.5-15.2,8.2-21.5,5.1l-5,8.4
		l-8.1-4.9l4.7-7.7c0,0-8.9-6-12.2-12.4l8.7-7.6c0,0,2.5,4.2,6.2,7.6c3.7,3.4,11.2,7.6,14.5,4.2c3.2-3.3,1.6-6.3-2.7-11
		c-4.3-4.6-10.9-14.4-7.4-21.9c3.7-8.2,10.8-12,22.4-8l4.9-8.1l8.1,4.9l-4.3,7.1c0,0,7.9,5.6,9.8,9.5l-7.2,7.5
		c0,0-6.2-7.3-11.8-10.2c-5.6-2.9-9.2,2.4-6.9,7.1c2.7,5.6,8.1,11.6,9.5,14C2113.9,1172,2116.2,1178.5,2110.7,1186z"/>
</g>
<g>
	<path class="st0" d="M1266.3,1424.6c-8.2,0.5-13.8,0.4-17.2-2c4.7,0.3,13.3,0.1,21.1-6.5c0.6-0.5-0.9-2.4-1.4-3
		c-0.5-0.6-1.4-0.7-2-0.2c-6,5.1-11.5,6.6-15.5,6.8c7-4.9,13.9-13.2,17.4-20.2l-28-14l-29.2-14.6c-4.5,9-7.4,23.8-4.7,32.9
		l38.4,19.2c0,0,0,0,0,0c1.3,1.2,3.1,2.6,5.3,3.7c3.7,1.8,8.7,3.2,15.5,2.8c0.8,0,1.7-2.9,1.6-3.7
		C1267.7,1425.2,1267,1424.6,1266.3,1424.6z"/>
	<path class="st0" d="M1244.3,1426.2l-0.3-0.1l-38.8-19.4l-0.3-0.1c-23.6-2-47.1,10.2-58.3,32.7c-14.7,29.4,7.9,43.9,37.3,58.6
		c29.4,14.7,54.5,24.1,69.2-5.4C1264.4,1470,1260.1,1443.9,1244.3,1426.2z M1215.1,1472c-3.8,6.2-11.3,7.3-16.4,5.3l-3.4,6.8
		l-6.6-3.3l3.1-6.3c0,0-7.3-4.1-10.2-8.9l6.3-6.4c0,0,2.2,3.1,5.3,5.5c3.1,2.4,9.1,5.2,11.5,2.3c2.3-2.8,0.8-5-2.8-8.4
		c-3.6-3.3-9.3-10.5-7.1-16.6c2.4-6.6,7.6-10,16.9-7.6l3.3-6.6l6.6,3.3l-2.9,5.8c0,0,6.5,3.9,8.2,6.8l-5.1,6.3c0,0-5.3-5.3-9.8-7.2
		c-4.5-1.9-7,2.4-4.9,5.9c2.5,4.1,7,8.5,8.3,10.3C1216.7,1460.9,1219,1465.8,1215.1,1472z"/>
</g>
<g>
	<path class="st0" d="M1653.7,87.6c-8.8,4.6-15.1,7.4-19.9,6.5c5.4-2.1,14.8-6.6,20-17.9c0.4-0.9-2.2-2.2-3-2.5
		c-0.9-0.4-1.9,0-2.3,0.8c-4,8.7-9.3,13.1-13.6,15.4c5.3-9,8.7-21.6,9-31.1l-38-1.3l-39.6-1.3c-0.4,12.2,3.9,30,11.5,38.6l52,1.7
		c0,0,0,0,0,0c2.1,0.7,4.7,1.3,7.7,1.4c5,0.2,11.3-0.9,18.5-4.7c0.8-0.4,0.3-4.1-0.1-4.9C1655.6,87.5,1654.6,87.2,1653.7,87.6z"/>
	<path class="st0" d="M1630.3,100.5l-0.4,0l-52.5-1.8l-0.4,0c-27,9.7-46.8,35.1-47.8,65.5c-1.3,39.9,30.9,44.4,70.7,45.7
		c39.9,1.3,72.3-1,73.6-40.9C1674.6,138.6,1656.6,112,1630.3,100.5z M1621.3,165.7c-1.1,8.7-8.7,13.8-15.3,14.1l-0.3,9.2l-8.9-0.3
		l0.3-8.5c0,0-10.1-0.9-15.7-4.6l3.7-10.3c0,0,3.9,2.3,8.6,3.4c4.6,1.1,12.7,1.1,13.9-3.2c1.1-4.2-1.6-6-7.3-7.8
		c-5.7-1.8-15.6-6.9-16.2-14.7c-0.7-8.5,3.3-14.9,14.8-16.9l0.3-8.9l8.9,0.3l-0.3,7.8c0,0,9.1,1,12.5,3.3l-2.5,9.5
		c0,0-8.5-3.2-14.4-3c-5.9,0.2-6.5,6.2-2.4,9c4.8,3.3,12.1,5.9,14.4,7.2C1617.4,152.6,1622.4,156.9,1621.3,165.7z"/>
</g>
<g>
	<path class="st0" d="M3086.5,723.9c-14.3,7.5-24.4,12.1-32.3,10.5c8.7-3.4,23.9-10.8,32.4-29c0.6-1.4-3.6-3.5-4.9-4.1
		c-1.4-0.6-3,0-3.7,1.3c-6.6,14.1-15.1,21.2-22.1,24.9c8.6-14.5,14.1-35,14.6-50.4l-61.6-2.1l-64.2-2.1
		c-0.7,19.8,6.4,48.7,18.6,62.7l84.4,2.8c0,0,0,0,0.1-0.1c3.4,1.1,7.6,2.1,12.6,2.2c8.1,0.3,18.3-1.5,30-7.7
		c1.3-0.7,0.6-6.6-0.2-7.9C3089.5,723.8,3087.8,723.2,3086.5,723.9z"/>
	<path class="st0" d="M3048.5,744.8l-0.6,0l-85.1-2.8l-0.6,0c-43.8,15.7-75.9,56.9-77.5,106.3c-2.2,64.6,50.1,72,114.7,74.1
		c64.6,2.2,117.2-1.7,119.4-66.3C3120.4,806.6,3091.2,763.4,3048.5,744.8z M3033.8,850.5c-1.8,14.2-14.2,22.4-24.9,22.9l-0.4,15
		l-14.4-0.5l0.5-13.8c0,0-16.4-1.4-25.5-7.5l6-16.7c0,0,6.4,3.7,13.9,5.5c7.5,1.8,20.6,1.8,22.5-5.2c1.8-6.8-2.6-9.7-11.9-12.7
		c-9.2-3-25.3-11.2-26.4-23.8c-1.2-13.8,5.4-24.1,24.1-27.5l0.5-14.4l14.4,0.5l-0.4,12.7c0,0,14.8,1.6,20.2,5.4l-4,15.4
		c0,0-13.8-5.1-23.4-4.8c-9.6,0.3-10.5,10-3.9,14.6c7.8,5.4,19.6,9.5,23.3,11.6C3027.6,829.3,3035.6,836.3,3033.8,850.5z"/>
</g>
<g>
	<path class="st0" d="M288.6,660c-21.8,0-39.5,17.7-39.5,39.5c0,21.8,17.7,39.5,39.5,39.5c21.8,0,39.5-17.7,39.5-39.5
		C328.1,677.7,310.4,660,288.6,660z"/>
	<path class="st0" d="M289.4,629.9c-50.3,0-91.2,40.9-91.2,91.2c0,9.4,1.4,18.4,4,26.9L175,761c-20.8-31.7-56.6-52.8-97.3-52.8
		c-64,0-116.1,52.1-116.1,116.2c0,64.1,52.1,116.2,116.1,116.2c29.8,0,57-11.3,77.6-29.8l16.7,13.9c-11.4,19.1-13.6,43.3-3.6,65
		c16.1,35,57.6,50.3,92.5,34.3c35-16.1,50.3-57.6,34.3-92.5c-16.1-35-57.6-50.3-92.5-34.3c-5.4,2.5-10.4,5.6-14.8,9.2l-16.4-13.6
		c14-19.2,22.3-42.8,22.3-68.3c0-13.7-2.4-26.9-6.8-39.1l26.9-12.9c16.4,24.1,44.1,39.9,75.4,39.9c50.3,0,91.2-40.9,91.2-91.2
		C380.6,670.8,339.6,629.9,289.4,629.9z M209.5,911.9c26.8-12.3,58.6-0.5,71,26.3c9.7,21.1,4.4,45.3-11.3,60.7
		c-4.2-20-13.3-27.3-15.9-29c-0.3,0.2-0.5,0.5-0.8,0.7c-0.3,0.2-0.5,0.5-0.8,0.7c-0.6,0.5-1.1,0.9-1.7,1.3l-12.1,25.6l-2.6-14.7
		l3.6-5.9c-0.4,0.1-0.9,0.2-1.3,0.3c-1.2,0.2-2.3,0.4-3.5,0.5c-0.7,0.1-1.3,0.1-2,0.1c-2.5,0-5-0.3-7.4-0.8l3.8,6l-2.2,15l-14-26.9
		c-0.6-0.5-1.3-1-1.9-1.6l-0.3,0.2c-9.1,8.1-13.6,19.1-15.7,28.2c-4.5-4.4-8.3-9.7-11.1-15.8C170.9,956.1,182.7,924.2,209.5,911.9z
		 M111,858.7c-0.8,0.9-15.8,10.7-15.8,10.7l7.4,10.1l-23.4,18.3l0,0.1l-0.1-0.1l-0.1,0.1l0-0.1l-23.4-18.3l7.4-10.1
		c0,0-15-9.8-15.8-10.7c-1.3-1.7,6.7-9.4,6.7-9.4l25.1,48.4l25.1-48.4C104.3,849.3,112.3,857,111,858.7z M138.8,889.1
		c-3-14.8-7.7-25.3-12.3-32.6c3.6-16.3,6.4-37.1,4.4-51.6c-0.3-2.2-0.6-4.3-1-6.4c-0.1-1.7-0.3-3.3-0.6-5.1
		c-1.1-6.3-3-12.3-5.5-17.9c-4-9.9-9.3-16.7-16.4-21.2c-7.5-5.8-16.7-9.3-27.2-9.3c-5.2,0-10.3,0.9-15,2.4
		c-14.7,3-21.1,12.1-23.5,15.5c-2.2,3.1-4,6.7-5.6,10.8c-1.4,3.2-2.5,6.6-3.2,10.2c-2.2,8.2-3.7,17.4-5.4,26.8
		c-2.6,15.4-5.4,31.4-10.9,44.9c-0.2,0.4-0.1,0.9,0.2,1.3c0.3,0.4,0.8,0.5,1.2,0.5c5.8-1.1,10.2-2.6,13.9-6.3
		c-2.8,7.4-13.4,12.9-13.6,13c-0.4,0.2-0.6,0.6-0.7,1c0,0.5,0.2,0.9,0.5,1.1c0.2,0.1,2.2,1.5,5.4,3.1c-3.1,6.8-5.2,13.6-6.7,19.9
		c-17.3-16.3-28.1-39.3-28.1-64.8c0-49.1,40-89.1,89.1-89.1c49.1,0,89.1,40,89.1,89.1C166.8,849.9,156,872.9,138.8,889.1z
		 M338.2,771c-5.1-27.8-17.5-38-21-40.3c-0.3,0.3-0.7,0.6-1.1,0.9c-0.4,0.3-0.7,0.6-1.1,0.9c-0.8,0.6-1.5,1.2-2.3,1.8l-16.6,34
		l-3.3-19.6l4.9-7.9c-0.6,0.1-1.2,0.2-1.8,0.4c-1.5,0.3-3.1,0.5-4.7,0.6c-0.9,0.1-1.7,0.1-2.6,0.1c-3.4,0-6.7-0.4-9.9-1.2l5,8
		l-3.1,20l-18.3-36.1c-0.8-0.7-1.7-1.4-2.5-2.1l-0.3,0.3c-12.4,10.7-18.5,25.5-21.4,37.8c-11.6-12.5-18.6-29.2-18.6-47.5
		c0-38.6,31.4-69.9,69.9-69.9c38.6,0,69.9,31.4,69.9,69.9C359.3,740.6,351.2,758.3,338.2,771z"/>
	<path class="st0" d="M231.3,917.2c-16.3,0.2-29.4,13.6-29.3,29.9c0.2,16.3,13.6,29.4,29.9,29.3c16.3-0.2,29.4-13.6,29.3-29.9
		C261,930.1,247.6,917,231.3,917.2z"/>
	<polygon class="st0" points="79.2,897.8 79.2,897.8 79.3,897.8 79.2,897.7 	"/>
</g>
<g>
	<path class="st0" d="M2623.6,1232.2c-13.5,0-24.4,11-24.4,24.4c0,13.5,11,24.4,24.4,24.4c13.5,0,24.4-11,24.4-24.4
		C2648,1243.2,2637.1,1232.2,2623.6,1232.2z"/>
	<path class="st0" d="M2624.1,1213.5c-31.1,0-56.4,25.3-56.4,56.4c0,5.8,0.9,11.4,2.5,16.6l-16.8,8.1c-12.8-19.6-35-32.7-60.2-32.7
		c-39.6,0-71.9,32.2-71.9,71.9c0,39.6,32.2,71.9,71.9,71.9c18.4,0,35.3-7,48-18.4l10.4,8.6c-7.1,11.8-8.4,26.8-2.2,40.2
		c9.9,21.6,35.6,31.1,57.3,21.2c21.6-9.9,31.1-35.6,21.2-57.3c-9.9-21.6-35.6-31.1-57.3-21.2c-3.4,1.5-6.4,3.5-9.2,5.7l-10.1-8.4
		c8.7-11.9,13.8-26.5,13.8-42.3c0-8.5-1.5-16.7-4.2-24.2l16.7-8c10.2,14.9,27.3,24.7,46.7,24.7c31.1,0,56.4-25.3,56.4-56.4
		C2680.5,1238.9,2655.2,1213.5,2624.1,1213.5z M2574.6,1388.1c16.6-7.6,36.3-0.3,43.9,16.3c6,13.1,2.7,28.1-7,37.6
		c-2.6-12.4-8.2-16.9-9.8-17.9c-0.2,0.2-0.3,0.3-0.5,0.4c-0.2,0.2-0.3,0.3-0.5,0.4c-0.3,0.3-0.7,0.6-1.1,0.8l-7.5,15.9l-1.6-9.1
		l2.2-3.7c-0.3,0.1-0.6,0.1-0.8,0.2c-0.7,0.1-1.4,0.2-2.2,0.3c-0.4,0-0.8,0-1.2,0.1c-1.6,0-3.1-0.2-4.6-0.5l2.3,3.7l-1.3,9.3
		l-8.7-16.6c-0.4-0.3-0.8-0.6-1.1-1l-0.2,0.1c-5.7,5-8.4,11.8-9.7,17.5c-2.8-2.7-5.1-6-6.9-9.8
		C2550.8,1415.4,2558.1,1395.7,2574.6,1388.1z M2513.7,1355.1c-0.5,0.6-9.8,6.6-9.8,6.6l4.6,6.2l-14.5,11.4l0,0.1l0,0l0,0l0-0.1
		l-14.5-11.4l4.6-6.2c0,0-9.3-6.1-9.8-6.6c-0.8-1,4.1-5.8,4.1-5.8l15.5,30l15.5-30C2509.5,1349.3,2514.5,1354.1,2513.7,1355.1z
		 M2530.9,1374c-1.9-9.1-4.8-15.6-7.6-20.2c2.2-10.1,4-22.9,2.7-31.9c-0.2-1.4-0.4-2.7-0.6-4c-0.1-1-0.2-2.1-0.4-3.1
		c-0.7-3.9-1.8-7.6-3.4-11.1c-2.5-6.1-5.8-10.3-10.2-13.1c-4.7-3.6-10.3-5.7-16.9-5.7c-3.2,0-6.4,0.5-9.3,1.5
		c-9.1,1.9-13.1,7.5-14.6,9.6c-1.4,1.9-2.5,4.2-3.4,6.7c-0.9,2-1.6,4.1-2,6.3c-1.3,5.1-2.3,10.8-3.3,16.6
		c-1.6,9.6-3.3,19.4-6.8,27.8c-0.1,0.3-0.1,0.6,0.1,0.8c0.2,0.2,0.5,0.3,0.7,0.3c3.6-0.7,6.3-1.6,8.6-3.9c-1.8,4.6-8.3,8-8.4,8.1
		c-0.2,0.1-0.4,0.4-0.4,0.6c0,0.3,0.1,0.5,0.3,0.7c0.1,0.1,1.4,0.9,3.3,1.9c-1.9,4.2-3.2,8.4-4.2,12.3
		c-10.7-10.1-17.4-24.3-17.4-40.1c0-30.4,24.7-55.1,55.1-55.1c30.4,0,55.1,24.7,55.1,55.1C2548.2,1349.7,2541.6,1363.9,2530.9,1374z
		 M2654.3,1300.9c-3.2-17.2-10.8-23.5-13-25c-0.2,0.2-0.4,0.4-0.7,0.6c-0.2,0.2-0.4,0.4-0.7,0.6c-0.5,0.4-1,0.7-1.4,1.1l-10.3,21.1
		l-2-12.1l3-4.9c-0.4,0.1-0.7,0.2-1.1,0.2c-1,0.2-1.9,0.3-2.9,0.3c-0.5,0-1.1,0.1-1.6,0.1c-2.1,0-4.1-0.3-6.1-0.7l3.1,5l-1.9,12.3
		l-11.4-22.3c-0.5-0.4-1-0.8-1.5-1.3l-0.2,0.2c-7.7,6.6-11.4,15.8-13.3,23.4c-7.2-7.7-11.5-18.1-11.5-29.4
		c0-23.9,19.4-43.3,43.3-43.3c23.9,0,43.3,19.4,43.3,43.3C2667.4,1282.1,2662.4,1293,2654.3,1300.9z"/>
	<path class="st0" d="M2588.1,1391.4c-10.1,0.1-18.2,8.4-18.1,18.5c0.1,10.1,8.4,18.2,18.5,18.1c10.1-0.1,18.2-8.4,18.1-18.5
		C2606.5,1399.4,2598.2,1391.2,2588.1,1391.4z"/>
	<polygon class="st0" points="2494,1379.3 2494,1379.4 2494.1,1379.3 2494,1379.3 	"/>
</g>
<g>
	<path class="st0" d="M2400.7,133.2c-19.1-10.5-43.1-3.4-53.6,15.7c-10.5,19.1-3.4,43.1,15.7,53.6c19.1,10.5,43.1,3.4,53.6-15.7
		C2426.8,167.7,2419.8,143.6,2400.7,133.2z"/>
	<path class="st0" d="M2415.8,107.1c-44.1-24.2-99.6-7.9-123.8,36.2c-4.5,8.2-7.6,16.8-9.4,25.5l-30.2-1.6c-3-37.8-24.3-73.5-60-93
		c-56.2-30.8-126.9-10.1-157.7,46.1c-30.8,56.2-10.1,126.9,46.1,157.7c26.1,14.3,55.4,17.5,82.4,11.1l8,20.2
		c-19.2,11.3-32.7,31.5-34.4,55.3c-2.7,38.4,26.3,71.8,64.7,74.5c38.4,2.7,71.8-26.3,74.5-64.7c2.7-38.4-26.3-71.8-64.7-74.5
		c-6-0.4-11.8-0.1-17.4,1l-7.8-19.8c21.5-10.1,40.1-26.8,52.4-49.2c6.6-12,10.8-24.8,12.8-37.6l29.8,1.6c2.8,29,19.5,56.2,46.9,71.2
		c44.1,24.2,99.7,7.9,123.8-36.2C2476.2,186.8,2459.9,131.2,2415.8,107.1z M2210.3,316.1c29.4,2.1,51.7,27.7,49.6,57.1
		c-1.6,23.2-17.9,41.9-39.1,47.8c5.9-19.5,1.5-30.3,0-33c-0.3,0.1-0.7,0.2-1,0.2c-0.4,0.1-0.7,0.2-1.1,0.2c-0.7,0.1-1.4,0.2-2.2,0.3
		l-23,16.7l4.7-14.1l6-3.5c-0.4-0.1-0.9-0.3-1.3-0.4c-1.1-0.4-2.2-0.8-3.3-1.3c-0.6-0.3-1.2-0.6-1.8-0.9c-2.2-1.2-4.3-2.6-6.1-4.3
		l0.5,7.1l-9.1,12.1l0.6-30.3c-0.3-0.7-0.6-1.5-0.9-2.3l-0.3,0.1c-11.9,2.7-21.1,10.2-27.3,17.2c-1.8-6-2.6-12.5-2.1-19.2
		C2155.2,336.3,2180.9,314,2210.3,316.1z M2149.5,222.1c-1.1,0.5-19,1.8-19,1.8l1.6,12.4l-29.3,4.9l0,0.1l0-0.1l-0.1,0l0.1-0.1
		l-11.7-27.3l11.3-5.3c0,0-8.5-15.8-8.7-17c-0.4-2.1,10.4-5,10.4-5l-1.3,54.5l45.3-30.5C2148.1,210.6,2151.5,221.3,2149.5,222.1z
		 M2159.3,262.1c4.4-14.4,5.4-25.9,4.8-34.5c10.9-12.6,23.4-29.4,28.6-43.1c0.8-2.1,1.5-4.1,2.2-6.1c0.7-1.5,1.4-3.1,1.9-4.7
		c2.1-6,3.3-12.2,3.7-18.3c1.2-10.6-0.1-19.1-4.2-26.5c-3.8-8.7-10.2-16.2-19.4-21.2c-4.6-2.5-9.4-4.2-14.3-5.1
		c-14.3-4.4-24.3,0.5-28.1,2.3c-3.4,1.7-6.8,4-10.1,6.8c-2.8,2.1-5.4,4.6-7.8,7.4c-5.8,6.2-11.6,13.5-17.6,21
		c-9.7,12.3-19.8,25-31.1,34.1c-0.4,0.3-0.5,0.8-0.4,1.2c0.1,0.5,0.4,0.8,0.8,1c5.6,1.8,10.2,2.6,15.2,1.2c-6.1,5.2-18,4.9-18.2,4.9
		c-0.4,0-0.9,0.2-1.1,0.6c-0.2,0.4-0.3,0.9-0.1,1.2c0.1,0.2,1.2,2.3,3.3,5.3c-6,4.5-11.1,9.4-15.4,14.2c-7.3-22.6-5.7-47.9,6.5-70.3
		c23.6-43.1,77.8-58.9,120.9-35.3c43.1,23.6,58.9,77.8,35.3,120.9C2202.6,241.2,2182.2,256.2,2159.3,262.1z M2390.9,254.4
		c8.8-26.9,2.9-41.7,1-45.5c-0.4,0.1-0.9,0.2-1.4,0.3c-0.5,0.1-0.9,0.2-1.4,0.3c-1,0.2-1.9,0.3-2.9,0.4l-30.9,21.9l6.5-18.8l8.1-4.5
		c-0.6-0.2-1.2-0.4-1.7-0.6c-1.5-0.5-3-1.1-4.4-1.8c-0.8-0.4-1.6-0.8-2.4-1.2c-3-1.6-5.7-3.6-8.1-5.8l0.5,9.4l-12.3,16l1.2-40.4
		c-0.4-1-0.8-2-1.1-3l-0.4,0.1c-16.1,3.5-28.5,13.5-36.9,22.8c-4.1-16.5-2.3-34.5,6.5-50.6c18.5-33.8,61.1-46.3,94.9-27.7
		c33.8,18.5,46.3,61.1,27.7,94.9C2424,237.8,2408.4,249.5,2390.9,254.4z"/>
	<path class="st0" d="M2226.9,331.2c-14.4-7.7-32.3-2.2-40,12.2c-7.7,14.4-2.2,32.3,12.2,40c14.4,7.7,32.3,2.2,40-12.2
		C2246.7,356.8,2241.3,338.9,2226.9,331.2z"/>
	<polygon class="st0" points="2102.8,241.1 2102.8,241.2 2102.9,241.2 2102.9,241.1 	"/>
</g>
<g>
	<path class="st0" d="M1354.6-226.3c-19.1-10.5-43.1-3.4-53.6,15.7c-10.5,19.1-3.4,43.1,15.7,53.6c19.1,10.5,43.1,3.4,53.6-15.7
		C1380.7-191.8,1373.7-215.8,1354.6-226.3z"/>
	<path class="st0" d="M1369.8-252.4c-44.1-24.2-99.6-7.9-123.8,36.2c-4.5,8.2-7.6,16.8-9.4,25.5l-30.2-1.6c-3-37.8-24.3-73.5-60-93
		c-56.2-30.8-126.9-10.1-157.7,46.1C958-183,978.7-112.3,1034.9-81.5c26.1,14.3,55.4,17.5,82.4,11.1l8,20.2
		c-19.2,11.3-32.7,31.5-34.4,55.3c-2.7,38.4,26.3,71.8,64.7,74.5c38.4,2.7,71.8-26.3,74.5-64.7c2.7-38.4-26.3-71.8-64.7-74.5
		c-6-0.4-11.8-0.1-17.4,1l-7.8-19.8c21.5-10.1,40.1-26.8,52.4-49.2c6.6-12,10.8-24.8,12.8-37.6l29.8,1.6c2.8,29,19.5,56.2,46.9,71.2
		c44.1,24.2,99.7,7.9,123.8-36.2C1430.1-172.7,1413.9-228.2,1369.8-252.4z M1164.2-43.3c29.4,2.1,51.7,27.7,49.6,57.1
		c-1.6,23.2-17.9,41.9-39.1,47.8c5.9-19.5,1.5-30.3,0-33c-0.3,0.1-0.7,0.2-1,0.2c-0.4,0.1-0.7,0.2-1.1,0.2c-0.7,0.1-1.4,0.2-2.2,0.3
		l-23,16.7l4.7-14.1l6-3.5c-0.4-0.1-0.9-0.3-1.3-0.4c-1.1-0.4-2.2-0.8-3.3-1.3c-0.6-0.3-1.2-0.6-1.8-0.9c-2.2-1.2-4.3-2.6-6.1-4.3
		l0.5,7.1l-9.1,12.1l0.6-30.3c-0.3-0.7-0.6-1.5-0.9-2.3l-0.3,0.1c-11.9,2.7-21.1,10.2-27.3,17.2c-1.8-6-2.6-12.5-2.1-19.2
		C1109.2-23.2,1134.8-45.4,1164.2-43.3z M1103.4-137.4c-1.1,0.5-19,1.8-19,1.8l1.6,12.4l-29.3,4.9l0,0.1l0-0.1l-0.1,0l0.1-0.1
		l-11.7-27.3l11.3-5.3c0,0-8.5-15.8-8.7-17c-0.4-2.1,10.4-5,10.4-5l-1.3,54.5l45.3-30.5C1102.1-148.8,1105.4-138.2,1103.4-137.4z
		 M1113.2-97.3c4.4-14.4,5.4-25.9,4.8-34.5c10.9-12.6,23.4-29.4,28.6-43.1c0.8-2.1,1.5-4.1,2.2-6.1c0.7-1.5,1.4-3.1,1.9-4.7
		c2.1-6,3.3-12.2,3.7-18.3c1.2-10.6-0.1-19.1-4.2-26.5c-3.8-8.7-10.2-16.2-19.4-21.2c-4.6-2.5-9.4-4.2-14.3-5.1
		c-14.3-4.4-24.3,0.5-28.1,2.3c-3.4,1.7-6.8,4-10.1,6.8c-2.8,2.1-5.4,4.6-7.8,7.4c-5.8,6.2-11.6,13.5-17.6,21
		c-9.7,12.3-19.8,25-31.1,34.1c-0.4,0.3-0.5,0.8-0.4,1.2c0.1,0.5,0.4,0.8,0.8,1c5.6,1.8,10.2,2.6,15.2,1.2c-6.1,5.2-18,4.9-18.2,4.9
		c-0.4,0-0.9,0.2-1.1,0.6c-0.2,0.4-0.3,0.9-0.1,1.2c0.1,0.2,1.2,2.3,3.3,5.3c-6,4.5-11.1,9.4-15.4,14.2c-7.3-22.6-5.7-47.9,6.5-70.3
		c23.6-43.1,77.8-58.9,120.9-35.3c43.1,23.6,58.9,77.8,35.3,120.9C1156.6-118.3,1136.1-103.3,1113.2-97.3z M1344.8-105.1
		c8.8-26.9,2.9-41.7,1-45.5c-0.4,0.1-0.9,0.2-1.4,0.3c-0.5,0.1-0.9,0.2-1.4,0.3c-1,0.2-1.9,0.3-2.9,0.4l-30.9,21.9l6.5-18.8l8.1-4.5
		c-0.6-0.2-1.2-0.4-1.7-0.6c-1.5-0.5-3-1.1-4.4-1.8c-0.8-0.4-1.6-0.8-2.4-1.2c-3-1.6-5.7-3.6-8.1-5.8l0.5,9.4l-12.3,16l1.2-40.4
		c-0.4-1-0.8-2-1.1-3l-0.4,0.1c-16.1,3.5-28.5,13.5-36.9,22.8c-4.1-16.5-2.3-34.5,6.5-50.6c18.5-33.8,61.1-46.3,94.9-27.7
		c33.8,18.5,46.3,61.1,27.7,94.9C1377.9-121.6,1362.3-110,1344.8-105.1z"/>
	<path class="st0" d="M1180.8-28.3c-14.4-7.7-32.3-2.2-40,12.2c-7.7,14.4-2.2,32.3,12.2,40c14.4,7.7,32.3,2.2,40-12.2
		C1200.6-2.6,1195.2-20.6,1180.8-28.3z"/>
	<polygon class="st0" points="1056.8,-118.3 1056.8,-118.3 1056.8,-118.3 1056.8,-118.4 	"/>
</g>
<g>
	<path class="st0" d="M3698.2,775.8c-19.1-10.5-43.1-3.4-53.6,15.7c-10.5,19.1-3.4,43.1,15.7,53.6c19.1,10.5,43.1,3.4,53.6-15.7
		C3724.3,810.3,3717.2,786.3,3698.2,775.8z"/>
	<path class="st0" d="M3713.3,749.7c-44.1-24.2-99.6-7.9-123.8,36.2c-4.5,8.2-7.6,16.8-9.4,25.5l-30.2-1.6c-3-37.8-24.3-73.5-60-93
		c-56.2-30.8-126.9-10.1-157.7,46.1c-30.8,56.2-10.1,126.9,46.1,157.7c26.1,14.3,55.4,17.5,82.4,11.1l8,20.2
		c-19.2,11.3-32.7,31.5-34.4,55.3c-2.7,38.4,26.3,71.8,64.7,74.5c38.4,2.7,71.8-26.3,74.5-64.7c2.7-38.4-26.3-71.8-64.7-74.5
		c-6-0.4-11.8-0.1-17.4,1l-7.8-19.8c21.5-10.1,40.1-26.8,52.4-49.2c6.6-12,10.8-24.8,12.8-37.6l29.8,1.6c2.8,29,19.5,56.2,46.9,71.2
		c44.1,24.2,99.7,7.9,123.8-36.2C3773.6,829.4,3757.4,773.9,3713.3,749.7z M3507.8,958.8c29.4,2.1,51.7,27.7,49.6,57.1
		c-1.6,23.2-17.9,41.9-39.1,47.8c5.9-19.5,1.5-30.3,0-33c-0.3,0.1-0.7,0.2-1,0.2c-0.4,0.1-0.7,0.2-1.1,0.2c-0.7,0.1-1.4,0.2-2.2,0.3
		l-23,16.7l4.7-14.1l6-3.5c-0.4-0.1-0.9-0.3-1.3-0.4c-1.1-0.4-2.2-0.8-3.3-1.3c-0.6-0.3-1.2-0.6-1.8-0.9c-2.2-1.2-4.3-2.6-6.1-4.3
		l0.5,7.1l-9.1,12.1l0.6-30.3c-0.3-0.7-0.6-1.5-0.9-2.3l-0.3,0.1c-11.9,2.7-21.1,10.2-27.3,17.2c-1.8-6-2.6-12.5-2.1-19.2
		C3452.7,978.9,3478.3,956.7,3507.8,958.8z M3447,864.7c-1.1,0.5-19,1.8-19,1.8l1.6,12.4l-29.3,4.9l0,0.1l0-0.1l-0.1,0l0.1-0.1
		l-11.7-27.3l11.3-5.3c0,0-8.5-15.8-8.7-17c-0.4-2.1,10.4-5,10.4-5l-1.3,54.5l45.3-30.5C3445.6,853.3,3448.9,863.9,3447,864.7z
		 M3456.7,904.8c4.4-14.4,5.4-25.9,4.8-34.5c10.9-12.6,23.4-29.4,28.6-43.1c0.8-2.1,1.5-4.1,2.2-6.1c0.7-1.5,1.4-3.1,1.9-4.7
		c2.1-6,3.3-12.2,3.7-18.3c1.2-10.6-0.1-19.1-4.2-26.5c-3.8-8.7-10.2-16.2-19.4-21.2c-4.6-2.5-9.4-4.2-14.3-5.1
		c-14.3-4.4-24.3,0.5-28.1,2.3c-3.4,1.7-6.8,4-10.1,6.8c-2.8,2.1-5.4,4.6-7.8,7.4c-5.8,6.2-11.6,13.5-17.6,21
		c-9.7,12.3-19.8,25-31.1,34.1c-0.4,0.3-0.5,0.8-0.4,1.2c0.1,0.5,0.4,0.8,0.8,1c5.6,1.8,10.2,2.6,15.2,1.2c-6.1,5.2-18,4.9-18.2,4.9
		c-0.4,0-0.9,0.2-1.1,0.6c-0.2,0.4-0.3,0.9-0.1,1.2c0.1,0.2,1.2,2.3,3.3,5.3c-6,4.5-11.1,9.4-15.4,14.2c-7.3-22.6-5.7-47.9,6.5-70.3
		c23.6-43.1,77.8-58.9,120.9-35.3c43.1,23.6,58.9,77.8,35.3,120.9C3500.1,883.8,3479.6,898.8,3456.7,904.8z M3688.3,897
		c8.8-26.9,2.9-41.7,1-45.5c-0.4,0.1-0.9,0.2-1.4,0.3c-0.5,0.1-0.9,0.2-1.4,0.3c-1,0.2-1.9,0.3-2.9,0.4l-30.9,21.9l6.5-18.8l8.1-4.5
		c-0.6-0.2-1.2-0.4-1.7-0.6c-1.5-0.5-3-1.1-4.4-1.8c-0.8-0.4-1.6-0.8-2.4-1.2c-3-1.6-5.7-3.6-8.1-5.8l0.5,9.4l-12.3,16l1.2-40.4
		c-0.4-1-0.8-2-1.1-3l-0.4,0.1c-16.1,3.5-28.5,13.5-36.9,22.8c-4.1-16.5-2.3-34.5,6.5-50.6c18.5-33.8,61.1-46.3,94.9-27.7
		c33.8,18.5,46.3,61.1,27.7,94.9C3721.4,880.5,3705.9,892.1,3688.3,897z"/>
	<path class="st0" d="M3524.3,973.8c-14.4-7.7-32.3-2.2-40,12.2c-7.7,14.4-2.2,32.3,12.2,40c14.4,7.7,32.3,2.2,40-12.2
		C3544.2,999.5,3538.7,981.5,3524.3,973.8z"/>
	<polygon class="st0" points="3400.3,883.8 3400.3,883.8 3400.3,883.8 3400.3,883.7 	"/>
</g>
<g>
	<rect x="516.2" y="1597.6" class="st0" width="238.3" height="11.5"/>
	<polygon class="st0" points="520.7,1592.1 536.9,1541.7 566.8,1566.1 	"/>
	<path class="st0" d="M539.2,1536.4c0,0,31.4-50.8,52.5-77.5l43.6,35.1c0,0-51.2,60.6-64.2,69.5L539.2,1536.4z"/>
	<polygon class="st0" points="685.8,1337.4 764.9,1337.4 638.6,1488.9 594.7,1454.8 	"/>
</g>
<g>
	<rect x="2567.6" y="577.8" class="st0" width="165.2" height="8"/>
	<polygon class="st0" points="2570.8,574.1 2582,539.1 2602.7,556.1 	"/>
	<path class="st0" d="M2583.6,535.4c0,0,21.8-35.2,36.4-53.7l30.2,24.3c0,0-35.4,42-44.5,48.2L2583.6,535.4z"/>
	<polygon class="st0" points="2685.2,397.6 2740,397.6 2652.4,502.5 2622.1,478.9 	"/>
</g>
<g>
	
		<rect x="1266.6" y="762.1" transform="matrix(0.875 -0.4841 0.4841 0.875 -202.2453 748.9358)" class="st0" width="165.2" height="8"/>
	<polygon class="st0" points="1275.9,797.8 1268.8,761.8 1295.1,766.6 	"/>
	<path class="st0" d="M1268.4,757.8c0,0,2-41.4,5.8-64.6l38.2,6.6c0,0-10.7,53.9-15.6,63.7L1268.4,757.8z"/>
	<polygon class="st0" points="1290.6,588 1338.5,561.5 1312.8,695.7 1274.7,689.7 	"/>
</g>
<g>
	<path class="st0" d="M1919.8,766.5c3-2.6,2.4-5.8-1.4-7.1l-13.5-4.5c-3.8-1.3-5.7-5.4-4.2-9.1l5.2-13.3c1.5-3.7-0.6-6.2-4.5-5.6
		l-14.1,2.3c-4,0.6-7.5-2.1-8-6.1l-1.6-14.2c-0.4-4-3.4-5.3-6.6-2.9l-11.4,8.6c-3.2,2.4-7.6,1.6-9.9-1.7l-8-11.9
		c-2.2-3.3-5.5-3.1-7.2,0.5l-6.1,12.9c-1.7,3.6-6,5-9.5,3.1l-12.6-6.8c-3.5-1.9-6.3-0.2-6.1,3.8l0.6,14.3c0.2,4-3,7.2-7,7.2
		l-14.3-0.2c-4-0.1-5.6,2.7-3.6,6.2l7.1,12.4c2,3.5,0.7,7.8-2.9,9.6l-12.7,6.5c-3.6,1.8-3.7,5.1-0.3,7.2l12.1,7.6
		c3.4,2.1,4.3,6.6,1.9,9.8l-8.3,11.7c-2.3,3.3-0.9,6.2,3,6.5l14.2,1.2c4,0.3,6.8,3.8,6.3,7.8l-1.9,14.2c-0.5,4,2,5.9,5.7,4.4
		l13.1-5.6c3.7-1.6,7.8,0.2,9.2,4l4.9,13.4c1.4,3.8,4.6,4.3,7.1,1.2l9-11.1c2.5-3.1,7-3.4,10-0.7l10.6,9.6c3,2.7,6,1.7,6.8-2.2
		l2.9-14c0.8-3.9,4.6-6.3,8.5-5.3l13.8,3.6c3.9,1,6.1-1.3,5-5.2l-4-13.7c-1.1-3.8,1.2-7.7,5.1-8.6l13.9-3.3c3.9-0.9,4.8-4,2-6.9
		l-9.9-10.3c-2.8-2.9-2.6-7.4,0.5-10L1919.8,766.5z"/>
	<path class="st0" d="M1902.5,819.6l4,13.7c1.1,3.8-1.1,6.2-5,5.2l-13.8-3.6c-3.9-1-7.7,1.4-8.5,5.3l-2.5,12l40.4,44.8l3.2-27.3
		l28.1-0.9l-46.2-51.2C1902.2,818.2,1902.3,818.9,1902.5,819.6z"/>
	<path class="st0" d="M1808.5,840.8l-13.1,5.6c-3.7,1.6-6.3-0.4-5.7-4.4l1.9-14.2c0.5-4-2.3-7.5-6.3-7.8l-2-0.2l-49.1,44.3l27.3,3.2
		l0.9,28.1l55.6-50.1l-0.2-0.6C1816.3,841.1,1812.2,839.3,1808.5,840.8z"/>
</g>
<g>
	<path class="st0" d="M591.2,1049.9c1.3-3-0.3-5.1-3.5-4.7l-11.6,1.4c-3.2,0.4-6.1-1.9-6.3-5.2l-0.8-11.6c-0.2-3.3-2.6-4.4-5.3-2.5
		l-9.6,6.6c-2.7,1.9-6.3,1.1-8-1.7l-6.1-9.9c-1.7-2.8-4.4-2.7-5.9,0.2l-5.4,10.3c-1.5,2.9-5.1,3.9-7.9,2.2l-10-5.9
		c-2.8-1.7-5.1-0.3-5.1,2.9l0,11.7c0,3.3-2.7,5.8-5.9,5.6l-11.7-0.6c-3.3-0.2-4.7,2.1-3.2,5l5.4,10.3c1.5,2.9,0.3,6.4-2.6,7.7
		l-10.6,4.9c-3,1.4-3.2,4-0.5,5.9l9.6,6.6c2.7,1.9,3.3,5.5,1.3,8.1l-7.1,9.2c-2,2.6-1,5,2.3,5.4l11.6,1.4c3.2,0.4,5.4,3.3,4.9,6.6
		l-2,11.5c-0.6,3.2,1.5,4.9,4.5,3.7l10.9-4.2c3.1-1.2,6.4,0.4,7.4,3.5l3.6,11.1c1,3.1,3.6,3.7,5.8,1.2l7.7-8.7
		c2.2-2.4,5.8-2.6,8.2-0.3l8.3,8.2c2.3,2.3,4.9,1.6,5.7-1.6l2.8-11.3c0.8-3.2,4-5,7.1-4.1l11.2,3.4c3.1,0.9,5-0.9,4.3-4.1l-2.8-11.3
		c-0.8-3.2,1.2-6.3,4.4-6.9l11.5-2.2c3.2-0.6,4.1-3.1,1.9-5.6l-7.7-8.7c-2.2-2.4-1.9-6.1,0.7-8.2l9.1-7.3c2.6-2,2.1-4.7-0.9-5.8
		l-10.9-4.1c-3.1-1.2-4.5-4.6-3.2-7.5L591.2,1049.9z"/>
	<path class="st0" d="M597.1,1095.1l7.7,8.7c2.2,2.4,1.3,5-1.9,5.6l-11.5,2.2c-3.2,0.6-5.2,3.7-4.4,6.9l2.4,9.7l45.6,18.8l-7.2-21.3
		l20.4-10.6l-52.1-21.5C596.4,1094.2,596.7,1094.7,597.1,1095.1z"/>
	<path class="st0" d="M535.2,1143.9l-7.7,8.7c-2.2,2.5-4.8,1.9-5.8-1.2l-3.6-11.1c-1-3.1-4.3-4.7-7.4-3.5l-1.6,0.6l-20.7,50
		l21.3-7.2l10.6,20.4l23.4-56.5l-0.4-0.4C541.1,1141.3,537.4,1141.4,535.2,1143.9z"/>
</g>
<g>
	<path class="st0" d="M3232.4,390c4-0.1,5.6-3,3.5-6.4l-7.6-12.2c-2.1-3.4-1-7.8,2.5-9.8l12.6-7c3.5-2,3.6-5.2,0.1-7.3L3231,340
		c-3.5-2-4.5-6.5-2.3-9.8l7.9-12c2.2-3.4,0.7-6.3-3.3-6.5L3219,311c-4-0.2-7-3.6-6.6-7.7l1.4-14.3c0.4-4-2.3-5.9-5.9-4.2l-13.1,6.1
		c-3.7,1.7-7.9,0-9.4-3.7l-5.4-13.4c-1.5-3.7-4.8-4.2-7.2-1l-8.7,11.5c-2.4,3.2-7,3.7-10,1.1l-11-9.3c-3.1-2.6-6.1-1.5-6.8,2.5
		l-2.4,14.2c-0.7,4-4.5,6.5-8.4,5.6l-14.1-3.2c-3.9-0.9-6.1,1.5-4.9,5.4l4.5,13.7c1.2,3.8-0.9,7.8-4.8,8.9l-13.9,3.7
		c-3.9,1.1-4.7,4.2-1.8,7l10.3,10.1c2.9,2.8,2.8,7.4-0.1,10.1l-10.6,9.8c-3,2.7-2.2,5.9,1.6,7.1l13.8,4.1c3.9,1.1,5.9,5.2,4.6,9
		l-4.8,13.6c-1.3,3.8,0.8,6.3,4.7,5.5l14.1-2.8c4-0.8,7.7,1.9,8.2,5.9l2,14.3c0.6,4,3.6,5.2,6.8,2.7l11.2-9c3.1-2.5,7.7-1.9,10,1.4
		l8.4,11.7c2.4,3.3,5.6,2.9,7.2-0.8l5.7-13.2c1.6-3.7,5.9-5.3,9.5-3.5l12.9,6.4c3.6,1.8,6.3,0,6-4l-1.1-14.4c-0.3-4,2.8-7.4,6.8-7.5
		L3232.4,390z"/>
	<path class="st0" d="M3184.7,420.1l-5.7,13.2c-1.6,3.7-4.9,4.1-7.2,0.8l-8.4-11.7c-2.4-3.3-6.9-3.9-10-1.3l-9.7,7.8l2.6,60.9
		l20.1-19.2l22.5,17.4l-2.9-69.6C3185.4,418.8,3185,419.4,3184.7,420.1z"/>
	<path class="st0" d="M3097.9,376.1l-13.8-4.1c-3.9-1.2-4.6-4.3-1.6-7.1l10.6-9.8c3-2.7,3-7.3,0.1-10.1l-1.5-1.4l-66.7,2.8
		l19.2,20.1l-17.4,22.5l75.5-3.2l0.2-0.6C3103.9,381.3,3101.8,377.3,3097.9,376.1z"/>
</g>
</svg>
