<?xml version="1.0" encoding="utf-8"?>
<!-- Generator: Adobe Illustrator 26.0.1, SVG Export Plug-In . SVG Version: 6.00 Build 0)  -->
<svg version="1.1" id="Capa_1" xmlns="http://www.w3.org/2000/svg" xmlns:xlink="http://www.w3.org/1999/xlink" x="0px" y="0px"
	 viewBox="0 0 3471 1085.7" style="enable-background:new 0 0 3471 1085.7;" xml:space="preserve">
<style type="text/css">
	.st0{fill:#dce3ef;}
</style>
<g>
	<path class="st0" d="M2037.7,681c-2.7,0-5.5-0.3-8.3-0.9c-13.5-2.9-24.3-12.4-29-24.9c-12.4,4.9-26.8,3.3-37.9-4.9
		c-11.2-8.1-17.1-21.2-16.3-34.6c-13.4-0.6-25.8-7.9-32.7-19.9c-6.9-12-7-26.4-0.9-38.2c-12-6-20.3-17.7-21.8-31.4
		c-1.4-13.7,4.3-26.9,14.8-35.3c-8.5-10.3-11.4-24.4-7.1-37.6c4.3-13.1,14.9-22.9,27.8-26.2c-3.6-12.9-0.5-27,8.8-37.2
		c9.2-10.3,22.9-14.8,36.1-12.6c2-13.2,10.5-24.8,23.2-30.4c15.6-7,33.9-3.2,45.5,9.4c2.6,2.8,2.4,7.1-0.4,9.7
		c-2.8,2.6-7.1,2.4-9.7-0.4c-7.6-8.3-19.6-10.7-29.8-6.2c-10.2,4.6-16.4,15.1-15.4,26.3c0.2,2.4-0.8,4.8-2.8,6.2
		c-2,1.4-4.5,1.7-6.8,0.7c-10.3-4.5-22.2-1.9-29.7,6.5c-7.5,8.3-8.8,20.5-3.3,30.3c1.2,2.1,1.2,4.7,0,6.8c-1.2,2.1-3.4,3.4-5.9,3.4
		c-11.2,0.1-21.1,7.4-24.5,18c-3.5,10.7,0.3,22.3,9.3,29c1.9,1.4,3,3.8,2.7,6.2c-0.3,2.4-1.8,4.5-4,5.5
		c-10.2,4.7-16.3,15.3-15.1,26.4c1.2,11.2,9.3,20.3,20.3,22.7c2.4,0.5,4.3,2.3,5,4.6c0.7,2.3,0.2,4.8-1.4,6.7
		c-7.4,8.4-8.6,20.6-3,30.3c5.6,9.7,16.8,14.7,27.8,12.5c2.4-0.5,4.8,0.3,6.4,2.1c1.6,1.8,2.2,4.3,1.4,6.6
		c-3.4,10.7,0.5,22.3,9.6,28.9c9.1,6.6,21.3,6.7,30.4,0.2c2-1.4,4.5-1.7,6.8-0.7c2.2,1,3.7,3.1,4,5.5c1.3,11.1,9.5,20.2,20.5,22.5
		c11,2.3,22.2-2.6,27.9-12.2c1.2-2.1,3.5-3.4,5.9-3.4s4.7,1.3,5.9,3.4c5.7,9.7,16.9,14.6,27.9,12.2c11-2.3,19.2-11.4,20.5-22.5
		c0.3-2.4,1.8-4.5,4-5.5c2.2-1,4.8-0.7,6.8,0.7c9.1,6.5,21.4,6.4,30.4-0.2c9.1-6.6,12.9-18.2,9.6-28.9c-0.7-2.3-0.2-4.8,1.4-6.6
		c1.6-1.8,4.1-2.6,6.4-2.1c11,2.2,22.1-2.8,27.8-12.5c5.6-9.7,4.4-21.9-3-30.3c-1.6-1.8-2.1-4.3-1.4-6.7c0.7-2.3,2.7-4,5-4.6
		c10.9-2.4,19.1-11.6,20.3-22.7c1.2-11.2-4.9-21.8-15.1-26.4c-2.2-1-3.7-3.1-4-5.5c-0.3-2.4,0.8-4.8,2.7-6.2c9-6.7,12.7-18.3,9.3-29
		c-3.5-10.7-13.3-17.9-24.5-18c-2.4,0-4.7-1.3-5.9-3.4c-1.2-2.1-1.2-4.7,0-6.8c5.5-9.8,4.2-21.9-3.3-30.3
		c-7.5-8.3-19.5-10.9-29.7-6.5c-2.2,1-4.8,0.7-6.8-0.7c-2-1.4-3-3.8-2.8-6.2c1.1-11.2-5.1-21.7-15.4-26.3
		c-10.2-4.6-22.2-2.1-29.8,6.2c-2.6,2.8-6.9,3-9.7,0.4c-2.8-2.6-3-6.9-0.4-9.7c11.6-12.6,29.8-16.4,45.5-9.4
		c12.6,5.6,21.2,17.2,23.2,30.4c13.2-2.2,26.9,2.4,36.1,12.6c9.2,10.3,12.4,24.3,8.8,37.2c12.9,3.4,23.6,13.1,27.8,26.2
		c4.3,13.1,1.4,27.3-7.1,37.6c10.5,8.3,16.2,21.5,14.8,35.3c-1.4,13.7-9.8,25.5-21.8,31.4c6.2,11.9,6,26.3-0.9,38.2
		c-6.9,12-19.3,19.3-32.7,19.9c0.8,13.3-5.2,26.5-16.3,34.6c-11.2,8.1-25.5,9.7-37.9,4.8c-4.7,12.5-15.5,22.1-29,24.9
		c-13.5,2.9-27.3-1.5-36.6-11C2058.6,676.7,2048.4,681,2037.7,681L2037.7,681z"/>
	<circle class="st0" cx="2066" cy="338.5" r="6.9"/>
	<path class="st0" d="M2066,447.9c-11.3,0-20.6-9.2-20.6-20.6s9.2-20.6,20.6-20.6c11.3,0,20.6,9.2,20.6,20.6
		S2077.4,447.9,2066,447.9z M2066,420.5c-3.8,0-6.9,3.1-6.9,6.9c0,3.8,3.1,6.9,6.9,6.9c3.8,0,6.9-3.1,6.9-6.9
		C2072.9,423.6,2069.8,420.5,2066,420.5z"/>
	<path class="st0" d="M2066,526.9c-11.3,0-20.6-9.2-20.6-20.6c0-11.3,9.2-20.6,20.6-20.6c11.3,0,20.6,9.2,20.6,20.6
		C2086.6,517.7,2077.4,526.9,2066,526.9z M2066,499.5c-3.8,0-6.9,3.1-6.9,6.9c0,3.8,3.1,6.9,6.9,6.9c3.8,0,6.9-3.1,6.9-6.9
		C2072.9,502.5,2069.8,499.5,2066,499.5z"/>
	<path class="st0" d="M2066,605.8c-11.3,0-20.6-9.2-20.6-20.6c0-11.3,9.2-20.6,20.6-20.6c11.3,0,20.6,9.2,20.6,20.6
		C2086.6,596.6,2077.4,605.8,2066,605.8z M2066,578.4c-3.8,0-6.9,3.1-6.9,6.9s3.1,6.9,6.9,6.9c3.8,0,6.9-3.1,6.9-6.9
		C2072.9,581.5,2069.8,578.4,2066,578.4z"/>
	<path class="st0" d="M2141.9,487.4c-11.3,0-20.6-9.2-20.6-20.6c0-11.3,9.2-20.6,20.6-20.6c11.3,0,20.6,9.2,20.6,20.6
		C2162.4,478.2,2153.2,487.4,2141.9,487.4z M2141.9,460c-3.8,0-6.9,3.1-6.9,6.9c0,3.8,3.1,6.9,6.9,6.9c3.8,0,6.9-3.1,6.9-6.9
		C2148.7,463.1,2145.6,460,2141.9,460z"/>
	<path class="st0" d="M2141.9,566.4c-11.3,0-20.6-9.2-20.6-20.6s9.2-20.6,20.6-20.6c11.3,0,20.6,9.2,20.6,20.6
		S2153.2,566.4,2141.9,566.4z M2141.9,538.9c-3.8,0-6.9,3.1-6.9,6.9s3.1,6.9,6.9,6.9c3.8,0,6.9-3.1,6.9-6.9
		S2145.6,538.9,2141.9,538.9z"/>
	<path class="st0" d="M1990.2,487.4c-11.3,0-20.6-9.2-20.6-20.6c0-11.3,9.2-20.6,20.6-20.6s20.6,9.2,20.6,20.6
		C2010.7,478.2,2001.5,487.4,1990.2,487.4z M1990.2,460c-3.8,0-6.9,3.1-6.9,6.9c0,3.8,3.1,6.9,6.9,6.9s6.9-3.1,6.9-6.9
		C1997,463.1,1994,460,1990.2,460z"/>
	<path class="st0" d="M1990.2,566.4c-11.3,0-20.6-9.2-20.6-20.6s9.2-20.6,20.6-20.6s20.6,9.2,20.6,20.6S2001.5,566.4,1990.2,566.4z
		 M1990.2,538.9c-3.8,0-6.9,3.1-6.9,6.9s3.1,6.9,6.9,6.9s6.9-3.1,6.9-6.9S1994,538.9,1990.2,538.9z"/>
</g>
<g>
	<path class="st0" d="M833.2,739.4c2.5,1,5,2.4,7.3,4c11.4,7.8,17.7,20.7,17.3,34.1c13.4,0.2,26,7.2,33.2,18.9
		c7.2,11.8,7.8,26.2,1.9,38.2c12.1,5.6,20.8,17.1,22.7,30.8c1.8,13.7-3.5,27.1-13.8,35.7c8.8,10.1,12.1,24.1,8.2,37.4
		c-3.9,13.3-14.2,23.3-27.1,27c3.9,12.8,1.2,26.9-7.7,37.5c-8.9,10.5-22.5,15.5-35.7,13.6c-1.6,13.3-9.8,25.1-22.3,31.1
		s-26.8,5-38.2-2.1c-6.9,11.5-19.2,18.9-33,19.3c-17.1,0.5-32.6-10-38.5-26c-1.3-3.6,0.5-7.5,4.1-8.8c3.6-1.3,7.5,0.5,8.8,4.1
		c3.9,10.5,14,17.4,25.2,17.1c11.2-0.3,20.9-7.7,24.2-18.5c0.7-2.3,2.6-4.1,4.9-4.7c2.4-0.6,4.8,0.1,6.5,1.9c7.8,8,19.9,10.2,30,5.3
		c10.1-4.8,16-15.6,14.6-26.7c-0.3-2.4,0.7-4.8,2.6-6.3c1.9-1.5,4.5-1.8,6.7-0.9c10.4,4.2,22.3,1.2,29.6-7.3
		c7.3-8.5,8.3-20.7,2.5-30.3c-1.2-2.1-1.3-4.7-0.2-6.8c1.2-2.1,3.3-3.5,5.8-3.6c11.2-0.4,20.9-7.9,24-18.7
		c3.2-10.8-0.9-22.3-10.1-28.7c-2-1.4-3.1-3.7-2.9-6.1c0.2-2.4,1.6-4.6,3.8-5.6c10.1-5,15.8-15.7,14.3-26.9
		c-1.5-11.1-9.9-20-20.9-22.1c-2.4-0.5-4.3-2.1-5.2-4.4c-0.8-2.3-0.4-4.8,1.2-6.7c7.2-8.6,8-20.8,2.2-30.4
		c-5.9-9.5-17.2-14.3-28.1-11.7c-2.4,0.5-4.8-0.2-6.5-1.9c-1.7-1.8-2.3-4.3-1.6-6.6c3.1-10.8-1.1-22.3-10.4-28.6
		c-9.3-6.3-21.5-6-30.4,0.7c-1.9,1.5-4.5,1.8-6.7,0.9c-2.2-0.9-3.8-3-4.2-5.4c-1.6-11.1-10.1-19.9-21.1-21.9c-11-2-22.1,3.2-27.5,13
		c-1.2,2.1-3.4,3.5-5.8,3.5c-2.4,0.1-4.7-1.1-6-3.2c-6-9.5-17.3-14.1-28.2-11.4c-10.9,2.6-18.9,11.9-19.8,23.1
		c-0.2,2.4-1.7,4.5-3.9,5.6c-2.2,1-4.8,0.9-6.8-0.5c-9.3-6.2-21.5-5.8-30.4,1c-8.9,6.8-12.4,18.6-8.7,29.2c0.8,2.3,0.3,4.8-1.3,6.7
		c-1.6,1.8-4,2.7-6.4,2.3c-11.1-1.9-22.1,3.4-27.4,13.3c-5.3,9.9-3.8,22,3.9,30.2c1.7,1.8,2.2,4.3,1.6,6.6s-2.5,4.1-4.9,4.7
		c-10.9,2.8-18.7,12.1-19.6,23.3c-0.9,11.2,5.5,21.6,15.8,26c2.2,0.9,3.8,3,4.1,5.4s-0.6,4.8-2.6,6.3c-8.8,6.9-12.2,18.7-8.4,29.3
		c3.8,10.6,13.8,17.5,25,17.3c2.4,0,4.7,1.2,6,3.3c1.3,2.1,1.4,4.6,0.2,6.8c-5.2,9.9-3.5,22,4.2,30.2c7.7,8.1,19.8,10.4,29.9,5.6
		c3.4-1.6,7.5-0.1,9.1,3.3c1.6,3.4,0.1,7.5-3.3,9.1c-15.5,7.2-33.8,3.8-45.6-8.6c-9.5-10-13-24-9.8-37c-13-3-23.9-12.4-28.6-25.4
		c-4.6-13-2.2-27.2,6-37.8c-10.7-8-16.8-21.1-15.8-34.8c1.1-13.8,9.1-25.7,20.9-32c-6.5-11.7-6.8-26.1-0.2-38.2
		c6.6-12.2,18.8-19.8,32.1-20.8c-1.2-13.3,4.4-26.6,15.3-35c10.9-8.4,25.2-10.5,37.8-5.9c4.3-12.6,14.8-22.5,28.3-25.8
		c13.4-3.3,27.3,0.7,36.9,10c9.1-9.8,22.7-14.5,36.3-12c13.6,2.5,24.6,11.7,29.7,24.1C812.3,735.4,823.4,735.3,833.2,739.4
		L833.2,739.4z"/>
	<circle class="st0" cx="676.7" cy="1045.3" r="6.9"/>
	<path class="st0" d="M718.3,944.1c10.5,4.3,15.5,16.4,11.2,26.8c-4.3,10.5-16.4,15.5-26.8,11.2c-10.5-4.3-15.5-16.4-11.2-26.8
		C695.8,944.8,707.8,939.8,718.3,944.1z M707.9,969.4c3.5,1.4,7.5-0.2,8.9-3.7c1.4-3.5-0.2-7.5-3.7-8.9s-7.5,0.2-8.9,3.7
		S704.4,968,707.9,969.4z"/>
	<path class="st0" d="M748.4,871.1c10.5,4.3,15.5,16.4,11.2,26.8c-4.3,10.5-16.4,15.5-26.8,11.2c-10.5-4.3-15.5-16.4-11.2-26.8
		C725.9,871.8,737.9,866.8,748.4,871.1z M737.9,896.4c3.5,1.4,7.5-0.2,8.9-3.7c1.4-3.5-0.2-7.5-3.7-8.9c-3.5-1.4-7.5,0.2-8.9,3.7
		S734.5,895,737.9,896.4z"/>
	<path class="st0" d="M778.4,798.1c10.5,4.3,15.5,16.4,11.2,26.8c-4.3,10.5-16.4,15.5-26.8,11.2c-10.5-4.3-15.5-16.4-11.2-26.8
		C755.9,798.8,768,793.8,778.4,798.1z M768,823.4c3.5,1.4,7.5-0.2,8.9-3.7c1.4-3.5-0.2-7.5-3.7-8.9c-3.5-1.4-7.5,0.2-8.9,3.7
		C762.8,818,764.5,822,768,823.4z"/>
	<path class="st0" d="M663.2,878.7c10.5,4.3,15.5,16.4,11.2,26.8c-4.3,10.5-16.4,15.5-26.8,11.2s-15.5-16.4-11.2-26.8
		C640.7,879.4,652.7,874.4,663.2,878.7z M652.8,904.1c3.5,1.4,7.5-0.2,8.9-3.7c1.4-3.5-0.2-7.5-3.7-8.9s-7.5,0.2-8.9,3.7
		S649.3,902.6,652.8,904.1z"/>
	<path class="st0" d="M693.3,805.7c10.5,4.3,15.5,16.4,11.2,26.8c-4.3,10.5-16.4,15.5-26.8,11.2c-10.5-4.3-15.5-16.4-11.2-26.8
		C670.8,806.4,682.8,801.4,693.3,805.7z M682.8,831.1c3.5,1.4,7.5-0.2,8.9-3.7c1.4-3.5-0.2-7.5-3.7-8.9c-3.5-1.4-7.5,0.2-8.9,3.7
		C677.7,825.6,679.3,829.6,682.8,831.1z"/>
	<path class="st0" d="M803.5,936.5c10.5,4.3,15.5,16.4,11.2,26.8c-4.3,10.5-16.4,15.5-26.8,11.2c-10.5-4.3-15.5-16.4-11.2-26.8
		C781,937.2,793,932.2,803.5,936.5z M793.1,961.8c3.5,1.4,7.5-0.2,8.9-3.7c1.4-3.5-0.2-7.5-3.7-8.9c-3.5-1.4-7.5,0.2-8.9,3.7
		C787.9,956.4,789.6,960.4,793.1,961.8z"/>
	<path class="st0" d="M833.5,863.5c10.5,4.3,15.5,16.4,11.2,26.8c-4.3,10.5-16.4,15.5-26.8,11.2c-10.5-4.3-15.5-16.4-11.2-26.8
		C811,864.2,823.1,859.2,833.5,863.5z M823.1,888.8c3.5,1.4,7.5-0.2,8.9-3.7s-0.2-7.5-3.7-8.9c-3.5-1.4-7.5,0.2-8.9,3.7
		C817.9,883.4,819.6,887.4,823.1,888.8z"/>
</g>
<g>
	<path class="st0" d="M972.8,695.5c-1.9,0-3.9-0.2-5.8-0.6c-9.5-2-17-8.7-20.3-17.5c-8.7,3.4-18.7,2.3-26.5-3.4
		c-7.8-5.7-12-14.9-11.4-24.2c-9.3-0.4-18-5.5-22.9-13.9c-4.8-8.4-4.9-18.5-0.6-26.7c-8.4-4.2-14.2-12.4-15.2-22
		c-1-9.6,3-18.9,10.3-24.7c-5.9-7.2-8-17.1-5-26.3c3-9.2,10.4-16,19.5-18.3c-2.5-9-0.3-18.9,6.1-26c6.5-7.2,16-10.4,25.3-8.8
		c1.4-9.2,7.4-17.4,16.2-21.3c10.9-4.9,23.7-2.2,31.8,6.6c1.8,1.9,1.7,5-0.3,6.8c-2,1.8-5,1.7-6.8-0.3c-5.3-5.8-13.7-7.5-20.9-4.3
		c-7.2,3.2-11.5,10.6-10.7,18.4c0.2,1.7-0.6,3.3-2,4.3c-1.4,1-3.2,1.2-4.7,0.5c-7.2-3.1-15.6-1.3-20.8,4.5
		c-5.3,5.8-6.2,14.3-2.3,21.2c0.8,1.5,0.8,3.3,0,4.8s-2.4,2.4-4.1,2.4c-7.8,0.1-14.7,5.1-17.2,12.6c-2.4,7.5,0.2,15.6,6.5,20.3
		c1.4,1,2.1,2.7,1.9,4.4c-0.2,1.7-1.2,3.2-2.8,3.9c-7.1,3.3-11.4,10.7-10.6,18.5c0.8,7.8,6.5,14.2,14.2,15.9c1.7,0.4,3,1.6,3.5,3.2
		c0.5,1.6,0.2,3.4-1,4.7c-5.2,5.9-6,14.4-2.1,21.2c3.9,6.8,11.7,10.3,19.4,8.8c1.7-0.3,3.4,0.2,4.5,1.5c1.1,1.3,1.5,3,1,4.6
		c-2.3,7.5,0.3,15.6,6.7,20.2c6.3,4.6,14.9,4.7,21.3,0.1c1.4-1,3.2-1.2,4.7-0.5c1.5,0.7,2.6,2.1,2.8,3.8c0.9,7.8,6.7,14.1,14.3,15.8
		c7.7,1.6,15.5-1.8,19.5-8.6c0.9-1.5,2.4-2.4,4.1-2.4c1.7,0,3.3,0.9,4.1,2.4c4,6.8,11.8,10.2,19.5,8.6c7.7-1.6,13.4-8,14.3-15.8
		c0.2-1.7,1.3-3.1,2.8-3.8c1.5-0.7,3.3-0.5,4.7,0.5c6.4,4.5,15,4.5,21.3-0.1c6.3-4.6,9-12.7,6.7-20.2c-0.5-1.6-0.1-3.4,1-4.6
		c1.1-1.3,2.8-1.8,4.5-1.5c7.7,1.6,15.5-2,19.4-8.8c3.9-6.8,3.1-15.3-2.1-21.2c-1.1-1.3-1.5-3-1-4.7c0.5-1.6,1.9-2.8,3.5-3.2
		c7.7-1.7,13.4-8.1,14.2-15.9c0.8-7.8-3.4-15.2-10.6-18.5c-1.5-0.7-2.6-2.2-2.8-3.9s0.5-3.3,1.9-4.4c6.3-4.7,8.9-12.8,6.5-20.3
		c-2.4-7.5-9.3-12.5-17.2-12.6c-1.7,0-3.3-0.9-4.1-2.4c-0.8-1.5-0.9-3.3,0-4.8c3.9-6.8,2.9-15.3-2.3-21.2
		c-5.2-5.8-13.6-7.7-20.8-4.5c-1.6,0.7-3.4,0.5-4.7-0.5c-1.4-1-2.1-2.6-2-4.3c0.7-7.8-3.6-15.2-10.7-18.4
		c-7.2-3.2-15.6-1.5-20.9,4.3c-1.8,1.9-4.8,2.1-6.8,0.3c-1.9-1.8-2.1-4.8-0.3-6.8c8.1-8.8,20.9-11.5,31.8-6.6
		c8.8,3.9,14.8,12,16.2,21.3c9.2-1.5,18.8,1.7,25.3,8.8c6.5,7.2,8.6,17,6.1,26c9.1,2.3,16.5,9.2,19.5,18.3c3,9.2,1,19.1-5,26.3
		c7.3,5.8,11.3,15.1,10.3,24.7c-1,9.6-6.9,17.8-15.2,22c4.3,8.3,4.2,18.4-0.6,26.7c-4.8,8.4-13.5,13.5-22.9,13.9
		c0.6,9.3-3.6,18.5-11.4,24.2c-7.8,5.7-17.8,6.8-26.5,3.4c-3.3,8.8-10.8,15.4-20.3,17.5c-9.5,2-19.1-1-25.6-7.7
		C987.4,692.5,980.3,695.5,972.8,695.5L972.8,695.5z"/>
	<circle class="st0" cx="992.6" cy="455.9" r="4.8"/>
	<path class="st0" d="M992.6,532.5c-7.9,0-14.4-6.5-14.4-14.4s6.5-14.4,14.4-14.4s14.4,6.5,14.4,14.4S1000.5,532.5,992.6,532.5z
		 M992.6,513.3c-2.6,0-4.8,2.2-4.8,4.8s2.2,4.8,4.8,4.8s4.8-2.2,4.8-4.8S995.3,513.3,992.6,513.3z"/>
	<path class="st0" d="M992.6,587.7c-7.9,0-14.4-6.5-14.4-14.4c0-7.9,6.5-14.4,14.4-14.4s14.4,6.5,14.4,14.4
		C1007,581.2,1000.5,587.7,992.6,587.7z M992.6,568.5c-2.6,0-4.8,2.2-4.8,4.8c0,2.6,2.2,4.8,4.8,4.8s4.8-2.2,4.8-4.8
		C997.4,570.7,995.3,568.5,992.6,568.5z"/>
	<path class="st0" d="M992.6,642.9c-7.9,0-14.4-6.5-14.4-14.4s6.5-14.4,14.4-14.4s14.4,6.5,14.4,14.4S1000.5,642.9,992.6,642.9z
		 M992.6,623.7c-2.6,0-4.8,2.2-4.8,4.8c0,2.6,2.2,4.8,4.8,4.8s4.8-2.2,4.8-4.8C997.4,625.9,995.3,623.7,992.6,623.7z"/>
	<path class="st0" d="M1045.7,560.1c-7.9,0-14.4-6.5-14.4-14.4s6.5-14.4,14.4-14.4s14.4,6.5,14.4,14.4S1053.6,560.1,1045.7,560.1z
		 M1045.7,540.9c-2.6,0-4.8,2.2-4.8,4.8c0,2.6,2.2,4.8,4.8,4.8s4.8-2.2,4.8-4.8C1050.5,543,1048.3,540.9,1045.7,540.9z"/>
	<path class="st0" d="M1045.7,615.3c-7.9,0-14.4-6.5-14.4-14.4s6.5-14.4,14.4-14.4s14.4,6.5,14.4,14.4S1053.6,615.3,1045.7,615.3z
		 M1045.7,596.1c-2.6,0-4.8,2.2-4.8,4.8s2.2,4.8,4.8,4.8s4.8-2.2,4.8-4.8S1048.3,596.1,1045.7,596.1z"/>
	<path class="st0" d="M939.6,560.1c-7.9,0-14.4-6.5-14.4-14.4s6.5-14.4,14.4-14.4c7.9,0,14.4,6.5,14.4,14.4S947.5,560.1,939.6,560.1
		z M939.6,540.9c-2.6,0-4.8,2.2-4.8,4.8c0,2.6,2.2,4.8,4.8,4.8c2.6,0,4.8-2.2,4.8-4.8C944.3,543,942.2,540.9,939.6,540.9z"/>
	<path class="st0" d="M939.6,615.3c-7.9,0-14.4-6.5-14.4-14.4s6.5-14.4,14.4-14.4c7.9,0,14.4,6.5,14.4,14.4S947.5,615.3,939.6,615.3
		z M939.6,596.1c-2.6,0-4.8,2.2-4.8,4.8s2.2,4.8,4.8,4.8c2.6,0,4.8-2.2,4.8-4.8S942.2,596.1,939.6,596.1z"/>
</g>
<g>
	<circle class="st0" cx="1727.9" cy="63.1" r="5.1"/>
	<circle class="st0" cx="1727.9" cy="341.9" r="5.1"/>
	<circle class="st0" cx="1717.7" cy="93.9" r="5.1"/>
	<circle class="st0" cx="1697.1" cy="73.3" r="5.1"/>
	<circle class="st0" cx="1644" cy="288.7" r="5.1"/>
	<circle class="st0" cx="1623.5" cy="268.1" r="5.1"/>
	<circle class="st0" cx="1644" cy="227" r="5.1"/>
	<circle class="st0" cx="1588.5" cy="202.5" r="5.1"/>
	<circle class="st0" cx="1598.8" cy="182" r="5.1"/>
	<circle class="st0" cx="1836.5" cy="243.6" r="5.1"/>
	<path class="st0" d="M1657.2,179.5c-1.8,5.6-0.3,11.7,3.9,15.8l22.3,21.7l-5.3,30.6c-1,5.8,1.4,11.6,6.1,15.1
		c4.8,3.5,11,3.9,16.2,1.2l27.5-14.5l27.5,14.5c2.3,1.2,4.7,1.8,7.2,1.8c3.2,0,6.3-1,9-3c4.8-3.5,7.1-9.3,6.1-15.1l-5.3-30.6
		l22.3-21.7c4.2-4.1,5.7-10.2,3.9-15.8c-1.8-5.6-6.6-9.6-12.4-10.5l-30.7-4.5l-13.8-27.9c-2.6-5.3-7.9-8.6-13.8-8.6
		c-5.9,0-11.2,3.3-13.8,8.6l-13.8,27.9l-30.7,4.5C1663.8,169.8,1659,173.9,1657.2,179.5L1657.2,179.5z M1704.5,174.3
		c1.7-0.2,3.1-1.3,3.9-2.8l14.9-30.3c0.9-1.8,2.6-2.9,4.6-2.9c2,0,3.7,1.1,4.6,2.9l14.9,30.3c0.7,1.5,2.2,2.6,3.9,2.8l33.4,4.9
		c2,0.3,3.5,1.6,4.1,3.5c0.6,1.9,0.1,3.9-1.3,5.3l-24.2,23.6c-1.2,1.2-1.8,2.9-1.5,4.5l5.7,33.3c0.3,2-0.4,3.9-2,5
		c-1.6,1.2-3.6,1.3-5.4,0.4l-29.9-15.7c-1.5-0.8-3.3-0.8-4.8,0l-29.9,15.7c-1.8,0.9-3.8,0.8-5.4-0.4c-1.6-1.2-2.4-3.1-2-5l5.7-33.3
		c0.3-1.7-0.3-3.4-1.5-4.5l-24.2-23.6c-1.4-1.4-1.9-3.4-1.3-5.3c0.6-1.9,2.2-3.2,4.1-3.5L1704.5,174.3z"/>
	<path class="st0" d="M1897.2,184.8c-4-5.1-5-11.7-2.8-17.7c4.5-12.4,0-26.3-11-33.7c-5.3-3.6-8.4-9.6-8.2-16
		c0.5-13.2-8.1-25-20.8-28.7c-6.2-1.8-10.9-6.5-12.7-12.7c-3.7-12.7-15.4-21.3-28.7-20.8c-6.4,0.2-12.4-2.8-16-8.2
		c-7.4-11-21.3-15.5-33.7-11c-6,2.2-12.7,1.1-17.7-2.8c-10.4-8.2-25-8.2-35.5,0c-5.1,4-11.7,5-17.7,2.8c-12.4-4.5-26.3,0-33.7,11
		c-3.6,5.3-9.6,8.4-16,8.2c-13.2-0.5-25,8.1-28.7,20.8c-0.1,0.3-0.2,0.7-0.3,1c-0.9,2.7,0.5,5.6,3.2,6.5c2.7,0.9,5.6-0.5,6.5-3.2
		c0.2-0.6,0.4-1.1,0.5-1.5c2.3-8.2,9.9-13.7,18.4-13.4c10,0.4,19.3-4.4,24.9-12.7c4.8-7.1,13.7-10,21.7-7c9.4,3.4,19.7,1.8,27.6-4.4
		c6.7-5.2,16.1-5.2,22.8,0c7.9,6.1,18.2,7.8,27.6,4.4c8-2.9,16.9,0,21.7,7c5.6,8.3,14.9,13,24.9,12.7c8.5-0.3,16.1,5.2,18.4,13.4
		c2.8,9.6,10.1,17,19.7,19.7c8.2,2.3,13.7,9.9,13.4,18.4c-0.3,10,4.4,19.3,12.7,24.9c7.1,4.8,10,13.7,7,21.7
		c-3.4,9.4-1.8,19.7,4.4,27.6c5.2,6.7,5.2,16.1,0,22.8c-6.2,7.9-7.8,18.2-4.4,27.6c2.9,8,0,16.9-7,21.7c-8.3,5.6-13,14.9-12.7,24.9
		c0.3,8.5-5.2,16.1-13.4,18.4c-9.6,2.8-17,10.1-19.7,19.7c-2.3,8.2-9.9,13.7-18.4,13.4c-10-0.4-19.3,4.4-24.9,12.7
		c-4.8,7.1-13.7,10-21.7,7c-9.4-3.4-19.7-1.8-27.6,4.4c-6.7,5.2-16.1,5.2-22.8,0c-7.9-6.2-18.2-7.8-27.6-4.4c-8,2.9-16.9,0-21.7-7
		c-5.6-8.3-14.9-13-24.9-12.7c-8.5,0.3-16.1-5.2-18.4-13.4c-2.8-9.6-10.1-17-19.7-19.7c-8.2-2.3-13.7-9.9-13.4-18.4
		c0.3-10-4.4-19.3-12.7-24.9c-7.1-4.8-10-13.7-7-21.7c3.4-9.4,1.8-19.7-4.4-27.6c-5.2-6.7-5.2-16.1,0-22.8
		c6.1-7.9,7.8-18.2,4.4-27.6c-2.9-8,0-16.9,7-21.7c8.3-5.6,13-14.9,12.7-24.9c-0.3-8.5,5.2-16.1,13.4-18.4c0.5-0.2,1-0.3,1.5-0.5
		c2.7-0.9,4.1-3.9,3.2-6.5c-0.9-2.7-3.9-4.1-6.5-3.2c-0.3,0.1-0.7,0.2-1,0.3c-12.7,3.7-21.3,15.4-20.8,28.7c0.2,6.4-2.8,12.4-8.1,16
		c-11,7.4-15.5,21.3-11,33.7c2.2,6,1.1,12.7-2.8,17.7c-8.2,10.4-8.2,25,0,35.5c4,5.1,5,11.7,2.8,17.7c-4.5,12.4,0,26.3,11,33.7
		c5.3,3.6,8.4,9.6,8.1,16c-0.5,13.2,8.1,25,20.8,28.7c6.2,1.8,10.9,6.5,12.7,12.7c3.7,12.7,15.4,21.3,28.7,20.8
		c6.4-0.2,12.4,2.8,16,8.2c7.4,11,21.3,15.5,33.7,11c6-2.2,12.7-1.1,17.7,2.8c5.2,4.1,11.5,6.1,17.7,6.1c6.3,0,12.5-2,17.7-6.1
		c5.1-4,11.7-5,17.7-2.8c12.4,4.5,26.3,0,33.7-11c3.6-5.3,9.6-8.4,16-8.2c13.2,0.5,25-8.1,28.7-20.8c1.8-6.2,6.5-10.9,12.7-12.7
		c12.7-3.7,21.3-15.4,20.8-28.7c-0.2-6.4,2.8-12.4,8.1-16c11-7.4,15.5-21.3,11-33.7c-2.2-6-1.1-12.7,2.8-17.7
		C1905.4,209.8,1905.4,195.2,1897.2,184.8L1897.2,184.8z"/>
</g>
<g>
	<circle class="st0" cx="225.7" cy="764.5" r="4.5"/>
	<circle class="st0" cx="225.7" cy="1006.6" r="4.5"/>
	<circle class="st0" cx="216.8" cy="791.3" r="4.5"/>
	<circle class="st0" cx="199" cy="773.4" r="4.5"/>
	<circle class="st0" cx="152.9" cy="960.4" r="4.5"/>
	<circle class="st0" cx="135" cy="942.5" r="4.5"/>
	<circle class="st0" cx="152.9" cy="906.8" r="4.5"/>
	<circle class="st0" cx="104.7" cy="885.6" r="4.5"/>
	<circle class="st0" cx="113.6" cy="867.7" r="4.5"/>
	<circle class="st0" cx="320" cy="921.2" r="4.5"/>
	<path class="st0" d="M164.3,865.6c-1.6,4.9-0.3,10.1,3.4,13.7l19.3,18.8l-4.6,26.6c-0.9,5.1,1.2,10.1,5.3,13.1
		c4.2,3,9.6,3.4,14.1,1l23.9-12.6l23.9,12.6c2,1,4.1,1.6,6.2,1.6c2.8,0,5.5-0.9,7.9-2.6c4.2-3,6.2-8,5.3-13.1l-4.6-26.6l19.3-18.8
		c3.7-3.6,5-8.8,3.4-13.7c-1.6-4.9-5.7-8.4-10.8-9.1l-26.7-3.9l-11.9-24.2c-2.3-4.6-6.9-7.5-12-7.5c-5.1,0-9.7,2.9-12,7.5
		l-11.9,24.2l-26.7,3.9C170,857.2,165.9,860.7,164.3,865.6L164.3,865.6z M205.4,861.1c1.5-0.2,2.7-1.1,3.4-2.4l13-26.3
		c0.8-1.6,2.3-2.5,4-2.5c1.7,0,3.2,0.9,4,2.5l13,26.3c0.7,1.3,1.9,2.2,3.4,2.4l29,4.2c1.7,0.2,3.1,1.4,3.6,3
		c0.5,1.7,0.1,3.4-1.1,4.6l-21,20.5c-1.1,1-1.5,2.5-1.3,3.9l5,28.9c0.3,1.7-0.4,3.3-1.8,4.4c-1.4,1-3.2,1.1-4.7,0.3l-26-13.6
		c-1.3-0.7-2.9-0.7-4.2,0l-26,13.6c-1.5,0.8-3.3,0.7-4.7-0.3c-1.4-1-2.1-2.7-1.8-4.4l5-28.9c0.2-1.4-0.2-2.9-1.3-3.9l-21-20.5
		c-1.2-1.2-1.7-2.9-1.1-4.6c0.5-1.7,1.9-2.8,3.6-3L205.4,861.1z"/>
	<path class="st0" d="M372.7,870.1c-3.4-4.4-4.3-10.2-2.4-15.4c3.9-10.8,0-22.8-9.5-29.3c-4.6-3.1-7.3-8.3-7.1-13.9
		c0.4-11.5-7-21.7-18.1-24.9c-5.4-1.5-9.5-5.7-11-11c-3.2-11.1-13.4-18.5-24.9-18.1c-5.6,0.2-10.8-2.5-13.9-7.1
		c-6.4-9.5-18.5-13.4-29.3-9.5c-5.2,1.9-11,1-15.4-2.4c-9.1-7.1-21.7-7.1-30.8,0c-4.4,3.4-10.2,4.3-15.4,2.4
		c-10.8-3.9-22.8,0-29.3,9.5c-3.1,4.6-8.3,7.3-13.9,7.1c-11.5-0.4-21.7,7-24.9,18.1c-0.1,0.3-0.2,0.6-0.3,0.9
		c-0.8,2.3,0.4,4.9,2.7,5.7c2.3,0.8,4.9-0.4,5.7-2.7c0.2-0.5,0.3-0.9,0.4-1.3c2-7.1,8.6-11.9,16-11.6c8.7,0.3,16.7-3.8,21.6-11
		c4.1-6.1,11.9-8.6,18.8-6.1c8.2,3,17.1,1.5,23.9-3.8c5.8-4.6,14-4.6,19.8,0c6.8,5.3,15.8,6.8,23.9,3.8c6.9-2.5,14.7,0,18.8,6.1
		c4.9,7.2,12.9,11.3,21.6,11c7.4-0.2,14,4.5,16,11.6c2.4,8.3,8.8,14.7,17.1,17.1c7.1,2,11.9,8.6,11.6,16c-0.3,8.7,3.8,16.7,11,21.6
		c6.1,4.1,8.6,11.9,6.1,18.8c-3,8.2-1.5,17.1,3.8,23.9c4.6,5.8,4.6,14,0,19.8c-5.3,6.8-6.8,15.8-3.8,23.9c2.5,6.9,0,14.7-6.1,18.8
		c-7.2,4.9-11.3,12.9-11,21.6c0.3,7.4-4.5,14-11.6,16c-8.3,2.4-14.7,8.8-17.1,17.1c-2,7.1-8.6,11.9-16,11.6
		c-8.7-0.3-16.7,3.8-21.6,11c-4.1,6.1-11.9,8.6-18.8,6.1c-8.2-3-17.1-1.5-23.9,3.8c-5.8,4.6-14,4.6-19.8,0
		c-6.8-5.3-15.8-6.8-23.9-3.8c-6.9,2.5-14.7,0-18.8-6.1c-4.9-7.2-12.9-11.3-21.6-11c-7.4,0.2-14-4.5-16-11.6
		c-2.4-8.3-8.8-14.7-17.1-17.1c-7.1-2-11.9-8.6-11.6-16c0.3-8.7-3.8-16.7-11-21.6c-6.1-4.1-8.6-11.9-6.1-18.8
		c3-8.2,1.5-17.1-3.8-23.9c-4.6-5.8-4.6-14,0-19.8c5.3-6.8,6.8-15.8,3.8-23.9c-2.5-6.9,0-14.7,6.1-18.8c7.2-4.9,11.3-12.9,11-21.6
		c-0.3-7.4,4.5-14,11.6-16c0.5-0.1,0.9-0.3,1.3-0.4c2.3-0.8,3.6-3.4,2.7-5.7c-0.8-2.3-3.4-3.6-5.7-2.7c-0.3,0.1-0.6,0.2-0.9,0.3
		c-11.1,3.2-18.5,13.4-18.1,24.9c0.2,5.6-2.5,10.8-7.1,13.9c-9.5,6.4-13.4,18.5-9.5,29.3c1.9,5.2,1,11-2.4,15.4
		c-7.1,9.1-7.1,21.7,0,30.8c3.4,4.4,4.3,10.2,2.4,15.4c-3.9,10.8,0,22.8,9.5,29.3c4.6,3.1,7.3,8.3,7.1,13.9
		c-0.4,11.5,7,21.7,18.1,24.9c5.4,1.5,9.5,5.7,11,11c3.2,11,13.4,18.5,24.9,18.1c5.6-0.2,10.8,2.5,13.9,7.1
		c6.4,9.5,18.5,13.4,29.3,9.5c5.2-1.9,11-1,15.4,2.4c4.5,3.5,10,5.3,15.4,5.3c5.4,0,10.9-1.8,15.4-5.3c4.4-3.4,10.2-4.3,15.4-2.4
		c10.8,3.9,22.8,0,29.3-9.5c3.1-4.6,8.3-7.3,13.9-7.1c11.5,0.4,21.7-7,24.9-18.1c1.5-5.4,5.7-9.5,11-11
		c11.1-3.2,18.5-13.4,18.1-24.9c-0.2-5.6,2.5-10.8,7.1-13.9c9.5-6.4,13.4-18.5,9.5-29.3c-1.9-5.2-1-11,2.4-15.4
		C379.8,891.9,379.8,879.2,372.7,870.1L372.7,870.1z"/>
</g>
<g>
	<circle class="st0" cx="3006.3" cy="570.9" r="7"/>
	<circle class="st0" cx="3006.3" cy="952.5" r="7"/>
	<circle class="st0" cx="2992.3" cy="613.1" r="7"/>
	<circle class="st0" cx="2964.2" cy="585" r="7"/>
	<circle class="st0" cx="2891.5" cy="879.6" r="7"/>
	<circle class="st0" cx="2863.4" cy="851.5" r="7"/>
	<circle class="st0" cx="2891.5" cy="795.3" r="7"/>
	<circle class="st0" cx="2815.6" cy="761.7" r="7"/>
	<circle class="st0" cx="2829.6" cy="733.6" r="7"/>
	<circle class="st0" cx="3154.9" cy="817.9" r="7"/>
	<path class="st0" d="M2909.5,730.2c-2.5,7.7-0.5,16,5.3,21.6l30.4,29.7l-7.2,41.9c-1.4,8,1.8,15.9,8.4,20.6
		c6.5,4.8,15.1,5.4,22.2,1.6l37.6-19.8l37.6,19.8c3.1,1.6,6.5,2.4,9.8,2.4c4.4,0,8.7-1.4,12.4-4.1c6.5-4.8,9.8-12.7,8.4-20.6
		l-7.2-41.9l30.4-29.7c5.8-5.6,7.8-13.9,5.3-21.6c-2.5-7.7-9-13.2-17-14.4l-42.1-6.1l-18.8-38.1c-3.6-7.3-10.8-11.8-18.9-11.8
		c-8.1,0-15.3,4.5-18.9,11.8l-18.8,38.1l-42.1,6.1C2918.5,717,2912,722.5,2909.5,730.2L2909.5,730.2z M2974.3,723.2
		c2.3-0.3,4.3-1.8,5.3-3.8l20.4-41.4c1.2-2.5,3.6-3.9,6.3-3.9c2.7,0,5.1,1.5,6.3,3.9l20.4,41.4c1,2.1,3,3.5,5.3,3.8l45.7,6.6
		c2.7,0.4,4.8,2.2,5.7,4.8c0.8,2.6,0.2,5.3-1.8,7.2l-33.1,32.3c-1.7,1.6-2.4,3.9-2,6.2l7.8,45.5c0.5,2.7-0.6,5.3-2.8,6.9
		c-2.2,1.6-5,1.8-7.4,0.5l-40.9-21.5c-2-1.1-4.5-1.1-6.5,0l-40.9,21.5c-2.4,1.3-5.2,1.1-7.4-0.5c-2.2-1.6-3.3-4.2-2.8-6.9l7.8-45.5
		c0.4-2.3-0.4-4.6-2-6.2l-33.1-32.3c-2-1.9-2.6-4.6-1.8-7.2c0.8-2.6,3-4.4,5.7-4.8L2974.3,723.2z"/>
	<path class="st0" d="M3238,737.4c-5.4-6.9-6.8-16-3.8-24.3c6.2-17,0-36-15-46.1c-7.3-4.9-11.5-13.1-11.2-21.9
		c0.6-18.1-11.1-34.2-28.5-39.2c-8.5-2.4-14.9-8.9-17.4-17.4c-5-17.4-21.1-29.1-39.2-28.5c-8.8,0.3-17-3.9-21.9-11.2
		c-10.1-15-29.1-21.2-46.1-15c-8.3,3-17.3,1.6-24.3-3.8c-14.3-11.2-34.2-11.2-48.5,0c-6.9,5.4-16,6.8-24.3,3.8c-17-6.2-36,0-46.1,15
		c-4.9,7.3-13.1,11.5-21.9,11.2c-18.1-0.6-34.2,11.1-39.2,28.5c-0.1,0.5-0.3,0.9-0.4,1.4c-1.3,3.7,0.7,7.7,4.3,9
		c3.7,1.3,7.7-0.7,9-4.3c0.3-0.8,0.5-1.5,0.7-2.1c3.2-11.2,13.6-18.7,25.2-18.3c13.7,0.5,26.4-6,34-17.3c6.5-9.7,18.7-13.6,29.7-9.6
		c12.8,4.7,26.9,2.4,37.7-6c9.2-7.2,22-7.2,31.2,0c10.8,8.4,24.9,10.6,37.7,6c11-4,23.1,0,29.7,9.6c7.6,11.3,20.4,17.8,34,17.3
		c11.6-0.4,22,7.1,25.2,18.3c3.8,13.1,13.9,23.2,27,27c11.2,3.2,18.7,13.6,18.3,25.2c-0.5,13.7,6,26.4,17.3,34
		c9.7,6.5,13.6,18.7,9.6,29.7c-4.7,12.8-2.4,26.9,6,37.7c7.2,9.2,7.2,22,0,31.2c-8.4,10.8-10.6,24.9-6,37.7c4,11,0,23.1-9.6,29.7
		c-11.3,7.6-17.8,20.4-17.3,34c0.4,11.6-7.1,22-18.3,25.2c-13.1,3.8-23.2,13.9-27,27c-3.2,11.2-13.6,18.7-25.2,18.3
		c-13.7-0.5-26.4,6-34,17.3c-6.5,9.7-18.7,13.6-29.7,9.6c-12.8-4.7-26.9-2.4-37.7,6c-9.2,7.2-22,7.2-31.2,0
		c-10.8-8.4-24.9-10.6-37.7-6c-10.9,4-23.1,0-29.7-9.6c-7.6-11.3-20.4-17.8-34-17.3c-11.6,0.4-22-7.1-25.2-18.3
		c-3.8-13.1-13.9-23.2-27-27c-11.2-3.2-18.7-13.6-18.3-25.2c0.5-13.7-6-26.4-17.3-34c-9.7-6.5-13.6-18.7-9.6-29.7
		c4.7-12.8,2.4-26.9-6-37.7c-7.2-9.2-7.2-22,0-31.2c8.4-10.8,10.6-24.9,6-37.7c-4-11,0-23.1,9.6-29.7c11.3-7.6,17.8-20.4,17.3-34
		c-0.4-11.6,7.1-22,18.3-25.2c0.7-0.2,1.4-0.4,2.1-0.7c3.7-1.3,5.6-5.3,4.3-9c-1.3-3.7-5.3-5.6-9-4.3c-0.5,0.2-0.9,0.3-1.4,0.4
		c-17.4,5-29.1,21.1-28.5,39.2c0.3,8.8-3.9,17-11.1,21.9c-15,10.1-21.2,29.1-15,46.1c3,8.3,1.6,17.3-3.8,24.3
		c-11.2,14.3-11.2,34.2,0,48.5c5.4,6.9,6.8,16,3.8,24.3c-6.2,17,0,36,15,46.1c7.3,4.9,11.5,13.1,11.1,21.9
		c-0.6,18.1,11.1,34.2,28.5,39.2c8.5,2.4,14.9,8.9,17.4,17.4c5,17.4,21.1,29.2,39.2,28.5c8.8-0.3,17,3.9,21.9,11.2
		c10.1,15,29.1,21.2,46.1,15c8.3-3,17.3-1.6,24.3,3.8c7.1,5.6,15.7,8.4,24.3,8.4c8.6,0,17.1-2.8,24.3-8.4c6.9-5.4,16-6.8,24.3-3.8
		c17,6.2,36,0,46.1-15c4.9-7.3,13.1-11.4,21.9-11.2c18.1,0.6,34.2-11.1,39.2-28.5c2.4-8.5,8.9-14.9,17.4-17.4
		c17.4-5,29.1-21.1,28.5-39.2c-0.3-8.8,3.9-17,11.1-21.9c15-10.1,21.2-29.1,15-46.1c-3-8.3-1.6-17.3,3.8-24.3
		C3249.1,771.7,3249.1,751.7,3238,737.4L3238,737.4z"/>
</g>
<g>
	<circle class="st0" cx="1262.3" cy="751.3" r="4.9"/>
	<circle class="st0" cx="1262.3" cy="1019.8" r="4.9"/>
	<circle class="st0" cx="1252.4" cy="780.9" r="4.9"/>
	<circle class="st0" cx="1232.6" cy="761.2" r="4.9"/>
	<circle class="st0" cx="1181.4" cy="968.5" r="4.9"/>
	<circle class="st0" cx="1161.6" cy="948.7" r="4.9"/>
	<circle class="st0" cx="1181.4" cy="909.1" r="4.9"/>
	<circle class="st0" cx="1128" cy="885.6" r="4.9"/>
	<circle class="st0" cx="1137.9" cy="865.8" r="4.9"/>
	<circle class="st0" cx="1366.8" cy="925.1" r="4.9"/>
	<path class="st0" d="M1194.1,863.4c-1.8,5.4-0.3,11.2,3.8,15.2l21.4,20.9l-5.1,29.5c-1,5.6,1.3,11.2,5.9,14.5
		c4.6,3.3,10.6,3.8,15.6,1.1l26.5-13.9l26.5,13.9c2.2,1.2,4.6,1.7,6.9,1.7c3.1,0,6.1-1,8.7-2.9c4.6-3.3,6.9-8.9,5.9-14.5l-5.1-29.5
		l21.4-20.9c4.1-4,5.5-9.8,3.8-15.2c-1.8-5.4-6.4-9.3-12-10.1l-29.6-4.3l-13.2-26.8c-2.5-5.1-7.6-8.3-13.3-8.3
		c-5.7,0-10.8,3.2-13.3,8.3l-13.2,26.8l-29.6,4.3C1200.5,854.1,1195.9,858,1194.1,863.4L1194.1,863.4z M1239.7,858.4
		c1.6-0.2,3-1.2,3.7-2.7l14.4-29.2c0.9-1.7,2.5-2.8,4.4-2.8c1.9,0,3.6,1,4.4,2.8l14.4,29.2c0.7,1.5,2.1,2.5,3.7,2.7l32.2,4.7
		c1.9,0.3,3.4,1.5,4,3.4c0.6,1.8,0.1,3.7-1.3,5.1l-23.3,22.7c-1.2,1.1-1.7,2.8-1.4,4.4l5.5,32.1c0.3,1.9-0.4,3.7-2,4.8
		c-1.6,1.1-3.5,1.3-5.2,0.4l-28.8-15.1c-1.4-0.8-3.2-0.8-4.6,0l-28.8,15.1c-1.7,0.9-3.7,0.8-5.2-0.4c-1.6-1.1-2.3-2.9-2-4.8
		l5.5-32.1c0.3-1.6-0.3-3.2-1.4-4.4l-23.3-22.7c-1.4-1.3-1.8-3.2-1.3-5.1c0.6-1.8,2.1-3.1,4-3.4L1239.7,858.4z"/>
	<path class="st0" d="M1425.3,868.5c-3.8-4.9-4.8-11.3-2.7-17.1c4.4-12,0-25.3-10.6-32.5c-5.1-3.5-8.1-9.2-7.8-15.4
		c0.4-12.7-7.8-24.1-20.1-27.6c-5.9-1.7-10.5-6.3-12.2-12.2c-3.5-12.3-14.9-20.5-27.6-20.1c-6.2,0.2-11.9-2.7-15.4-7.8
		c-7.1-10.6-20.5-14.9-32.5-10.5c-5.8,2.1-12.2,1.1-17.1-2.7c-10.1-7.8-24.1-7.9-34.1,0c-4.9,3.8-11.3,4.8-17.1,2.7
		c-12-4.4-25.3,0-32.5,10.5c-3.5,5.1-9.2,8.1-15.4,7.8c-12.7-0.4-24.1,7.8-27.6,20.1c-0.1,0.3-0.2,0.6-0.3,1c-0.9,2.6,0.5,5.4,3,6.3
		c2.6,0.9,5.4-0.5,6.3-3c0.2-0.6,0.3-1,0.5-1.5c2.3-7.9,9.6-13.2,17.8-12.9c9.6,0.3,18.6-4.2,24-12.2c4.6-6.8,13.2-9.6,20.9-6.8
		c9,3.3,19,1.7,26.6-4.2c6.5-5,15.5-5,22,0c7.6,5.9,17.5,7.5,26.6,4.2c7.7-2.8,16.3,0,20.9,6.8c5.4,8,14.3,12.5,24,12.2
		c8.2-0.3,15.5,5,17.8,12.9c2.7,9.2,9.8,16.4,19,19c7.9,2.3,13.2,9.6,12.9,17.8c-0.3,9.6,4.2,18.6,12.2,24
		c6.8,4.6,9.6,13.2,6.8,20.9c-3.3,9-1.7,19,4.2,26.6c5,6.5,5,15.5,0,22c-5.9,7.6-7.5,17.5-4.2,26.6c2.8,7.7,0,16.3-6.8,20.9
		c-8,5.4-12.5,14.3-12.2,24c0.3,8.2-5,15.5-12.9,17.8c-9.2,2.7-16.4,9.8-19,19c-2.3,7.9-9.6,13.2-17.8,12.9
		c-9.6-0.3-18.6,4.2-24,12.2c-4.6,6.8-13.2,9.6-20.9,6.8c-9-3.3-19-1.7-26.6,4.2c-6.5,5-15.5,5-22,0c-7.6-5.9-17.5-7.5-26.6-4.2
		c-7.7,2.8-16.3,0-20.9-6.8c-5.4-8-14.3-12.6-24-12.2c-8.2,0.3-15.5-5-17.8-12.9c-2.7-9.2-9.8-16.4-19-19
		c-7.9-2.3-13.2-9.6-12.9-17.8c0.3-9.6-4.2-18.6-12.2-24c-6.8-4.6-9.6-13.2-6.8-20.9c3.3-9,1.7-19-4.2-26.6c-5-6.5-5-15.5,0-22
		c5.9-7.6,7.5-17.5,4.2-26.6c-2.8-7.7,0-16.3,6.8-20.9c8-5.4,12.5-14.3,12.2-24c-0.3-8.2,5-15.5,12.9-17.8c0.5-0.1,1-0.3,1.5-0.5
		c2.6-0.9,3.9-3.7,3-6.3c-0.9-2.6-3.7-3.9-6.3-3c-0.3,0.1-0.6,0.2-1,0.3c-12.3,3.5-20.5,14.9-20.1,27.6c0.2,6.2-2.7,11.9-7.8,15.4
		c-10.6,7.1-14.9,20.5-10.6,32.5c2.1,5.8,1.1,12.2-2.7,17.1c-7.8,10.1-7.8,24.1,0,34.1c3.8,4.9,4.8,11.3,2.7,17.1
		c-4.4,12,0,25.3,10.6,32.5c5.1,3.5,8.1,9.2,7.8,15.4c-0.4,12.7,7.8,24.1,20.1,27.6c5.9,1.7,10.5,6.3,12.2,12.2
		c3.5,12.3,14.9,20.5,27.6,20.1c6.2-0.2,11.9,2.7,15.4,7.8c7.1,10.6,20.5,14.9,32.5,10.5c5.8-2.1,12.2-1.1,17.1,2.7
		c5,3.9,11,5.9,17.1,5.9c6,0,12-2,17.1-5.9c4.9-3.8,11.3-4.8,17.1-2.7c12,4.4,25.3,0,32.5-10.5c3.5-5.1,9.2-8,15.4-7.8
		c12.8,0.5,24.1-7.8,27.6-20.1c1.7-5.9,6.3-10.5,12.2-12.2c12.3-3.5,20.5-14.9,20.1-27.6c-0.2-6.2,2.7-11.9,7.8-15.4
		c10.6-7.1,14.9-20.5,10.6-32.5c-2.1-5.8-1.1-12.2,2.7-17.1C1433.1,892.5,1433.1,878.5,1425.3,868.5L1425.3,868.5z"/>
</g>
<g>
	<circle class="st0" cx="299.2" cy="68.6" r="3"/>
	<circle class="st0" cx="299.2" cy="233.7" r="3"/>
	<circle class="st0" cx="293.1" cy="86.9" r="3"/>
	<circle class="st0" cx="280.9" cy="74.7" r="3"/>
	<circle class="st0" cx="249.5" cy="202.2" r="3"/>
	<circle class="st0" cx="237.3" cy="190" r="3"/>
	<circle class="st0" cx="249.5" cy="165.7" r="3"/>
	<circle class="st0" cx="216.6" cy="151.2" r="3"/>
	<circle class="st0" cx="222.7" cy="139" r="3"/>
	<circle class="st0" cx="363.4" cy="175.5" r="3"/>
	<path class="st0" d="M257.3,137.6c-1.1,3.3-0.2,6.9,2.3,9.4l13.2,12.8l-3.1,18.1c-0.6,3.4,0.8,6.9,3.6,8.9c2.8,2.1,6.5,2.3,9.6,0.7
		l16.3-8.6l16.3,8.6c1.3,0.7,2.8,1.1,4.3,1.1c1.9,0,3.8-0.6,5.4-1.8c2.8-2.1,4.2-5.5,3.6-8.9l-3.1-18.1l13.2-12.8
		c2.5-2.4,3.4-6,2.3-9.4c-1.1-3.3-3.9-5.7-7.4-6.2l-18.2-2.6l-8.1-16.5c-1.5-3.1-4.7-5.1-8.2-5.1c-3.5,0-6.6,1.9-8.2,5.1l-8.1,16.5
		l-18.2,2.6C261.2,131.9,258.3,134.3,257.3,137.6L257.3,137.6z M285.3,134.5c1-0.1,1.8-0.8,2.3-1.7l8.8-17.9
		c0.5-1.1,1.5-1.7,2.7-1.7c1.2,0,2.2,0.6,2.7,1.7l8.8,17.9c0.4,0.9,1.3,1.5,2.3,1.7l19.8,2.9c1.2,0.2,2.1,0.9,2.5,2.1
		c0.4,1.1,0.1,2.3-0.8,3.1l-14.3,14c-0.7,0.7-1,1.7-0.9,2.7l3.4,19.7c0.2,1.2-0.3,2.3-1.2,3c-1,0.7-2.2,0.8-3.2,0.2l-17.7-9.3
		c-0.9-0.5-1.9-0.5-2.8,0l-17.7,9.3c-1,0.6-2.2,0.5-3.2-0.2c-1-0.7-1.4-1.8-1.2-3l3.4-19.7c0.2-1-0.2-2-0.9-2.7l-14.3-14
		c-0.8-0.8-1.1-2-0.8-3.1c0.4-1.1,1.3-1.9,2.5-2.1L285.3,134.5z"/>
	<path class="st0" d="M399.4,140.7c-2.3-3-3-6.9-1.7-10.5c2.7-7.4,0-15.6-6.5-20c-3.2-2.1-5-5.7-4.8-9.5c0.3-7.8-4.8-14.8-12.3-17
		c-3.7-1-6.5-3.9-7.5-7.5c-2.2-7.5-9.1-12.6-17-12.3c-3.8,0.1-7.3-1.7-9.5-4.8c-4.4-6.5-12.6-9.2-20-6.5c-3.6,1.3-7.5,0.7-10.5-1.7
		c-6.2-4.8-14.8-4.8-21,0c-3,2.3-6.9,3-10.5,1.7c-7.4-2.7-15.6,0-20,6.5c-2.1,3.2-5.7,5-9.5,4.8c-7.8-0.3-14.8,4.8-17,12.3
		c-0.1,0.2-0.1,0.4-0.2,0.6c-0.6,1.6,0.3,3.3,1.9,3.9c1.6,0.6,3.3-0.3,3.9-1.9c0.1-0.3,0.2-0.6,0.3-0.9c1.4-4.8,5.9-8.1,10.9-7.9
		c5.9,0.2,11.4-2.6,14.7-7.5c2.8-4.2,8.1-5.9,12.8-4.2c5.6,2,11.7,1.1,16.3-2.6c4-3.1,9.5-3.1,13.5,0c4.7,3.6,10.8,4.6,16.3,2.6
		c4.7-1.7,10,0,12.8,4.2c3.3,4.9,8.8,7.7,14.7,7.5c5-0.2,9.5,3.1,10.9,7.9c1.6,5.7,6,10.1,11.7,11.7c4.8,1.4,8.1,5.9,7.9,10.9
		c-0.2,5.9,2.6,11.4,7.5,14.7c4.2,2.8,5.9,8.1,4.2,12.8c-2,5.6-1.1,11.7,2.6,16.3c3.1,4,3.1,9.5,0,13.5c-3.6,4.7-4.6,10.8-2.6,16.3
		c1.7,4.7,0,10-4.2,12.8c-4.9,3.3-7.7,8.8-7.5,14.7c0.2,5-3.1,9.5-7.9,10.9c-5.7,1.6-10.1,6-11.7,11.7c-1.4,4.8-5.9,8.1-10.9,7.9
		c-5.9-0.2-11.4,2.6-14.7,7.5c-2.8,4.2-8.1,5.9-12.8,4.2c-5.6-2-11.7-1.1-16.3,2.6c-4,3.1-9.5,3.1-13.5,0
		c-4.7-3.6-10.8-4.6-16.3-2.6c-4.7,1.7-10,0-12.8-4.2c-3.3-4.9-8.8-7.7-14.7-7.5c-5,0.2-9.5-3.1-10.9-7.9c-1.6-5.7-6-10.1-11.7-11.7
		c-4.8-1.4-8.1-5.9-7.9-10.9c0.2-5.9-2.6-11.4-7.5-14.7c-4.2-2.8-5.9-8.1-4.2-12.8c2-5.6,1.1-11.7-2.6-16.3c-3.1-4-3.1-9.5,0-13.5
		c3.6-4.7,4.6-10.8,2.6-16.3c-1.7-4.7,0-10,4.2-12.8c4.9-3.3,7.7-8.8,7.5-14.7c-0.2-5,3.1-9.5,7.9-10.9c0.3-0.1,0.6-0.2,0.9-0.3
		c1.6-0.6,2.4-2.3,1.9-3.9c-0.6-1.6-2.3-2.4-3.9-1.9c-0.2,0.1-0.4,0.1-0.6,0.2c-7.5,2.2-12.6,9.1-12.3,17c0.1,3.8-1.7,7.3-4.8,9.5
		c-6.5,4.4-9.2,12.6-6.5,20c1.3,3.6,0.7,7.5-1.7,10.5c-4.8,6.2-4.8,14.8,0,21c2.3,3,3,6.9,1.7,10.5c-2.7,7.4,0,15.6,6.5,20
		c3.2,2.1,5,5.7,4.8,9.5c-0.3,7.8,4.8,14.8,12.3,17c3.7,1,6.5,3.9,7.5,7.5c2.2,7.5,9.1,12.6,17,12.3c3.8-0.1,7.3,1.7,9.5,4.8
		c4.4,6.5,12.6,9.2,20,6.5c3.6-1.3,7.5-0.7,10.5,1.7c3.1,2.4,6.8,3.6,10.5,3.6c3.7,0,7.4-1.2,10.5-3.6c3-2.3,6.9-3,10.5-1.7
		c7.4,2.7,15.6,0,20-6.5c2.1-3.2,5.7-4.9,9.5-4.8c7.8,0.3,14.8-4.8,17-12.3c1-3.7,3.9-6.5,7.5-7.5c7.5-2.2,12.6-9.1,12.3-17
		c-0.1-3.8,1.7-7.3,4.8-9.5c6.5-4.4,9.2-12.6,6.5-20c-1.3-3.6-0.7-7.5,1.7-10.5C404.2,155.5,404.2,146.9,399.4,140.7L399.4,140.7z"
		/>
</g>
<g>
	<path class="st0" d="M1608.6,578.2c-10.7,6.8-24.2-1.1-24.2-13.5c0-2.3,0.6-4.5,1.1-6.2c1.7-5.1-3.4-9.6-8.4-6.8
		c-29.8,18.6-67-11.3-60.3-51.2c0-1.7,0-3.4-1.1-4.5c-2.3-2.3-4.5-1.7-5.1-2.3c-8.4,0-15.8-7.3-15.8-16.3c0-6.2,3.4-8.4,1.1-12.4
		c-1.1-1.7-2.8-2.3-5.1-2.3c-65.3,2.8-116,56.9-116,123.9c0,68.1,54.6,123.9,121.1,123.9c66.5,0,121.1-55.8,121.1-123.9
		c0-1.1,0-2.8,0-3.9C1617,578.2,1611.9,576,1608.6,578.2L1608.6,578.2z M1495.9,699.3c-60.8,0-109.8-50.7-109.8-112.6
		c0-58,42.2-105.9,97.4-112.1c-1.7,14.1,7.9,27,21.4,29.8c-2.8,41.7,32.7,73.2,68.1,61.4c0.6,17.5,16.3,29.8,33.2,25.9
		C1603.5,651.4,1555.1,699.3,1495.9,699.3L1495.9,699.3z"/>
	<path class="st0" d="M1476.2,539.9c-14.1,0-25.3,11.8-25.3,25.9s11.3,25.9,25.3,25.9s25.3-11.8,25.3-25.9
		S1490.3,539.9,1476.2,539.9z M1476.2,581c-7.9,0-14.1-6.8-14.1-14.6c0-7.9,6.2-14.6,14.1-14.6s14.1,6.8,14.1,14.6
		C1490.3,574.3,1484.1,581,1476.2,581z"/>
	<path class="st0" d="M1557.9,597.4c-14.1,0-25.3,11.8-25.3,25.9s11.3,25.9,25.3,25.9s25.3-11.8,25.3-25.9
		S1571.9,597.4,1557.9,597.4L1557.9,597.4z M1557.9,638.5c-7.9,0-14.1-6.8-14.1-14.6s6.2-14.6,14.1-14.6s14.1,6.8,14.1,14.6
		C1571.9,631.7,1565.8,638.5,1557.9,638.5z"/>
	<path class="st0" d="M1476.2,633.4c-9,0-15.8,7.3-15.8,16.3s7.3,16.3,15.8,16.3s15.8-7.3,15.8-16.3S1484.7,633.4,1476.2,633.4z
		 M1476.2,654.8c-2.8,0-4.5-2.3-4.5-5.1c0-2.8,2.3-5.1,4.5-5.1s4.5,2.3,4.5,5.1C1480.7,652.6,1478.5,654.8,1476.2,654.8z"/>
	<path class="st0" d="M1427.8,579.9c-12.4,0-22.5,10.1-22.5,23.1c0,13,10.1,23.1,22.5,23.1c12.4,0,22.5-10.1,22.5-23.1
		C1450.9,590.6,1440.7,579.9,1427.8,579.9L1427.8,579.9z M1427.8,614.8c-6.2,0-11.3-5.1-11.3-11.8c0-6.8,5.1-11.8,11.3-11.8
		s11.3,5.1,11.3,11.8C1439,609.8,1434,614.8,1427.8,614.8z"/>
	<path class="st0" d="M1445.2,538.2c8.4,0,15.2-7.3,15.2-15.8c0-8.4-6.8-15.8-15.2-15.8c-8.4,0-15.2,7.3-15.2,15.8
		C1430,530.9,1436.2,538.2,1445.2,538.2z M1445.2,518c2.3,0,3.9,2.3,3.9,4.5c0,2.3-1.7,4.5-3.9,4.5c-2.3,0-3.9-2.3-3.9-4.5
		C1441.3,520.2,1442.4,518,1445.2,518z"/>
	<path class="st0" d="M1547.7,500.5c15.2,0,27.6-10.1,27.6-22c0-12.4-12.4-22-27.6-22s-27.6,10.1-27.6,22
		C1520.1,490.4,1532.5,500.5,1547.7,500.5L1547.7,500.5z M1547.7,467.3c9,0,16.3,5.1,16.3,10.7c0,5.6-7.3,10.7-16.3,10.7
		s-16.3-5.1-16.3-10.7C1531.4,472.4,1538.7,467.3,1547.7,467.3L1547.7,467.3z"/>
	<path class="st0" d="M1634.5,517.4c-11.3-8.4-24.2-6.8-29.8,1.1c-6.2,8.4-2.3,21.4,7.9,28.7c11.3,8.4,24.2,6.8,29.8-1.1
		C1648,538.2,1644.6,525.3,1634.5,517.4z M1633.3,539.9c-2.8,3.9-10.1,1.7-14.1-1.1c-5.6-4.5-7.3-10.7-5.6-13.5
		c2.8-3.9,9.6-1.7,14.1,1.1C1633.3,530.9,1635,537.1,1633.3,539.9z"/>
	<path class="st0" d="M1555.1,510.6c-9.6,0-16.9,7.9-16.9,16.9c0,9.6,7.3,16.9,16.9,16.9c9.6,0,16.9-7.9,16.9-16.9
		C1571.9,518,1564.6,510.6,1555.1,510.6z M1555.1,533.7c-2.8,0-5.6-2.8-5.6-5.6c0-2.8,2.3-5.6,5.6-5.6s5.6,2.8,5.6,5.6
		C1560.7,530.9,1558.4,533.7,1555.1,533.7z"/>
</g>
<g>
	<path class="st0" d="M2649.9,420.7c-10.7,6.7-24.1-1.1-24.1-13.5c0-2.2,0.6-4.5,1.1-6.2c1.7-5-3.4-9.5-8.4-6.7
		c-29.7,18.5-66.7-11.2-60-51c0-1.7,0-3.4-1.1-4.5c-2.2-2.2-4.5-1.7-5-2.2c-8.4,0-15.7-7.3-15.7-16.3c0-6.2,3.4-8.4,1.1-12.3
		c-1.1-1.7-2.8-2.2-5-2.2c-65.1,2.8-115.5,56.7-115.5,123.4c0,67.9,54.4,123.4,120.6,123.4c66.2,0,120.6-55.5,120.6-123.4
		c0-1.1,0-2.8,0-3.9C2658.3,420.7,2653.3,418.5,2649.9,420.7L2649.9,420.7z M2537.7,541.3c-60.6,0-109.4-50.5-109.4-112.2
		c0-57.8,42.1-105.4,97-111.6c-1.7,14,7.9,26.9,21.3,29.7c-2.8,41.5,32.5,72.9,67.9,61.1c0.6,17.4,16.3,29.7,33.1,25.8
		C2644.8,493.6,2596.6,541.3,2537.7,541.3L2537.7,541.3z"/>
	<path class="st0" d="M2518.1,382.6c-14,0-25.2,11.8-25.2,25.8c0,14,11.2,25.8,25.2,25.8c14,0,25.2-11.8,25.2-25.8
		C2543.3,394.4,2532.1,382.6,2518.1,382.6z M2518.1,423.5c-7.9,0-14-6.7-14-14.6c0-7.9,6.2-14.6,14-14.6s14,6.7,14,14.6
		C2532.1,416.8,2525.9,423.5,2518.1,423.5z"/>
	<path class="st0" d="M2599.4,439.8c-14,0-25.2,11.8-25.2,25.8c0,14,11.2,25.8,25.2,25.8s25.2-11.8,25.2-25.8
		C2624.7,451.6,2613.4,439.8,2599.4,439.8L2599.4,439.8z M2599.4,480.7c-7.9,0-14-6.7-14-14.6s6.2-14.6,14-14.6s14,6.7,14,14.6
		S2607.3,480.7,2599.4,480.7z"/>
	<path class="st0" d="M2518.1,475.7c-9,0-15.7,7.3-15.7,16.3s7.3,16.3,15.7,16.3s15.7-7.3,15.7-16.3S2526.5,475.7,2518.1,475.7z
		 M2518.1,497c-2.8,0-4.5-2.2-4.5-5c0-2.8,2.2-5,4.5-5c2.2,0,4.5,2.2,4.5,5C2522.6,494.8,2520.3,497,2518.1,497z"/>
	<path class="st0" d="M2469.9,422.4c-12.3,0-22.4,10.1-22.4,23c0,12.9,10.1,23,22.4,23s22.4-10.1,22.4-23
		C2492.8,433.1,2482.8,422.4,2469.9,422.4L2469.9,422.4z M2469.9,457.2c-6.2,0-11.2-5-11.2-11.8s5-11.8,11.2-11.8
		c6.2,0,11.2,5,11.2,11.8S2476,457.2,2469.9,457.2z"/>
	<path class="st0" d="M2487.2,380.9c8.4,0,15.1-7.3,15.1-15.7c0-8.4-6.7-15.7-15.1-15.7c-8.4,0-15.1,7.3-15.1,15.7
		C2472.1,373.6,2478.3,380.9,2487.2,380.9z M2487.2,360.7c2.2,0,3.9,2.2,3.9,4.5c0,2.2-1.7,4.5-3.9,4.5c-2.2,0-3.9-2.2-3.9-4.5
		C2483.3,362.9,2484.4,360.7,2487.2,360.7z"/>
	<path class="st0" d="M2589.3,343.3c15.1,0,27.5-10.1,27.5-21.9c0-12.3-12.3-21.9-27.5-21.9s-27.5,10.1-27.5,21.9
		S2574.2,343.3,2589.3,343.3L2589.3,343.3z M2589.3,310.2c9,0,16.3,5,16.3,10.7s-7.3,10.7-16.3,10.7c-9,0-16.3-5-16.3-10.7
		S2580.3,310.2,2589.3,310.2L2589.3,310.2z"/>
	<path class="st0" d="M2675.7,360.1c-11.2-8.4-24.1-6.7-29.7,1.1c-6.2,8.4-2.2,21.3,7.9,28.6c11.2,8.4,24.1,6.7,29.7-1.1
		C2689.2,380.9,2685.8,368,2675.7,360.1z M2674.6,382.6c-2.8,3.9-10.1,1.7-14-1.1c-5.6-4.5-7.3-10.7-5.6-13.5
		c2.8-3.9,9.5-1.7,14,1.1C2674.6,373.6,2676.3,379.8,2674.6,382.6z"/>
	<path class="st0" d="M2596.6,353.4c-9.5,0-16.8,7.9-16.8,16.8c0,9.5,7.3,16.8,16.8,16.8s16.8-7.9,16.8-16.8
		C2613.4,360.7,2606.1,353.4,2596.6,353.4z M2596.6,376.4c-2.8,0-5.6-2.8-5.6-5.6c0-2.8,2.2-5.6,5.6-5.6s5.6,2.8,5.6,5.6
		C2602.2,373.6,2600,376.4,2596.6,376.4z"/>
</g>
<g>
	<path class="st0" d="M432.4,418.4c11.5,12.8,4.1,32.7-12.6,35.6c-3,0.5-6.2,0.3-8.6-0.1c-7.2-1.1-12.1,6.7-7.1,12.9
		c31.8,35.8,0.3,92.5-54.9,92.6c-2.3,0.4-4.5,0.8-5.8,2.5c-2.5,3.5-1.2,6.4-1.9,7.3c1.9,11.3-6.2,22.8-18.3,24.9
		c-8.3,1.4-12.1-2.6-16.9,1.3c-2,1.9-2.4,4.3-1.9,7.3c18.8,87,103,142.5,192.9,127.1C588.8,714.3,651,628.2,635.8,539
		s-102.6-149.6-194-133.9c-1.5,0.3-3.8,0.6-5.3,0.9C430.4,407,428.6,414.4,432.4,418.4L432.4,418.4z M620.7,541.6
		c14,81.6-42.7,159-125.8,173.2c-77.8,13.3-151.7-32.3-172.7-104.9c19.3-1,34.4-16.8,35.1-35.6c56.5-5.8,90.7-60.6,66.7-105.5
		c23.3-4.8,36.3-28.8,27.1-50.5C531.7,408.3,607.1,462.3,620.7,541.6L620.7,541.6z"/>
	<path class="st0" d="M411.4,604.7c3.2,18.9,21.7,31.3,40.6,28s32.2-21.1,28.9-39.9c-3.2-18.9-21.7-31.3-40.6-28
		C421.5,568,408.2,585.8,411.4,604.7z M466.6,595.2c1.8,10.6-5.8,20.4-16.4,22.3c-10.6,1.8-21.1-4.9-22.9-15.5
		c-1.8-10.6,5.8-20.4,16.4-22.3C454.3,577.9,464.7,584.7,466.6,595.2z"/>
	<path class="st0" d="M469.7,482c3.2,18.9,21.7,31.3,40.6,28c18.9-3.2,32.2-21.1,28.9-39.9c-3.2-18.9-21.7-31.3-40.6-28
		C479.7,445.2,466.5,463.1,469.7,482L469.7,482z M524.8,472.5c1.8,10.6-5.8,20.4-16.4,22.3c-10.6,1.8-21.1-4.9-22.9-15.5
		s5.8-20.4,16.4-22.3C512.5,455.2,523,461.9,524.8,472.5z"/>
	<path class="st0" d="M536.8,583.2c2.1,12.1,13.4,19.5,25.5,17.4c12.1-2.1,20.2-13.6,18.3-24.9c-1.9-11.3-13.4-19.5-25.5-17.4
		C543,560.4,534.9,571.9,536.8,583.2z M565.5,578.3c0.6,3.8-2,6.6-5.8,7.2c-3.8,0.6-7.3-1.9-7.8-4.9s2-6.6,5.8-7.2
		C561.5,572.8,565,575.3,565.5,578.3z"/>
	<path class="st0" d="M476.2,660.5c2.8,16.6,18.8,27.9,36.1,24.9c17.4-3,28.6-18.9,25.8-35.5S519.3,622,502,624.9
		C485.2,627,473.2,643.1,476.2,660.5L476.2,660.5z M523,652.4c1.4,8.3-4.2,16.3-13.3,17.8c-9.1,1.6-17-4.1-18.5-12.4
		c-1.4-8.3,4.2-16.3,13.3-17.8C513.6,638.5,521.6,644.1,523,652.4z"/>
	<path class="st0" d="M416.3,646.6c-1.9-11.3-13.3-18.7-24.6-16.8c-11.3,1.9-19.6,12.7-17.7,24c1.9,11.3,13.3,18.7,24.6,16.8
		C409.9,668.7,418.3,658.7,416.3,646.6z M389.1,651.3c-0.5-3,2.1-5.8,5.1-6.3s6.4,1.2,6.9,4.3s-2.1,5.8-5.1,6.3
		S389.7,655.1,389.1,651.3z"/>
	<path class="st0" d="M342.1,517.8c-3.5-20.4-19.9-34.7-35.8-32c-16.6,2.8-26.6,21.7-23.1,42.1c3.5,20.4,19.9,34.7,35.8,32
		S345.6,538.2,342.1,517.8L342.1,517.8z M297.5,525.5c-2.1-12.1,3-23.1,10.6-24.4c7.6-1.3,16,7.4,18.1,19.4s-3,23.1-10.6,24.4
		S299.6,537.5,297.5,525.5L297.5,525.5z"/>
	<path class="st0" d="M344.8,397.6c-8.7,17-3.5,34,8.4,39.8c12.8,6.4,29.2-1.9,36.7-17.2c8.7-17,3.5-34-8.4-39.8
		C369.7,374.7,353.1,382.2,344.8,397.6z M375.3,393.9c5.9,2.9,4.6,13.2,1.7,19.1c-4.7,8.6-12.7,12.3-16.8,10.7
		c-5.9-2.9-4.5-12.5-1.7-19.1C363.2,396,371.1,392.3,375.3,393.9z"/>
	<path class="st0" d="M354,505.7c2.2,12.8,14.5,20.8,26.5,18.8c12.8-2.2,21-13.7,18.8-26.5c-2.2-12.8-14.5-20.8-26.5-18.8
		C359.9,481.3,351.8,492.8,354,505.7z M385,500.4c0.6,3.8-2.5,8.2-6.3,8.8c-3.8,0.6-8.1-1.7-8.8-6.3c-0.8-4.5,2.5-8.2,6.3-8.8
		C379.9,493.5,384.2,495.8,385,500.4z"/>
</g>
<g>
	<g>
		<g>
			<path class="st0" d="M1251.8,92.7c-8.2-7.1-19.3-10.1-29.8-8.3c0.3-10.7-4.1-21.2-12.4-28.3c-15-13-37.7-11.4-50.7,3.6
				c-7.1,8.2-10.1,19.3-8.3,29.8c-10.7-0.3-21.2,4.1-28.3,12.4s-10.1,19.3-8.3,29.8c-10.7-0.3-21.2,4.1-28.3,12.4
				c-7.1,8.2-10.1,19.3-8.3,29.8c-10.7-0.3-21.2,4.1-28.3,12.4c-13,15-11.4,37.7,3.6,50.7c8.2,7.1,19.3,10.1,29.8,8.3
				c-0.3,10.7,4.1,21.2,12.4,28.3c8.2,7.1,19.3,10.1,29.8,8.3c-0.3,10.7,4.1,21.2,12.4,28.3c8.2,7.1,19.3,10.1,29.8,8.3
				c-0.3,10.7,4.1,21.2,12.4,28.3c8.2,7.1,19.3,10.1,29.8,8.3c-0.3,10.7,4.1,21.2,12.4,28.3c8.2,7.1,19.3,10.1,29.8,8.3
				c-0.3,10.7,4.1,21.2,12.4,28.3c15,13,37.7,11.4,50.7-3.6c7.1-8.2,10.1-19.3,8.3-29.8c10.7,0.3,21.2-4.1,28.3-12.4
				c7.1-8.2,10.1-19.3,8.3-29.8c10.7,0.3,21.2-4.1,28.3-12.4s10.1-19.3,8.3-29.8c10.7,0.3,21.2-4.1,28.3-12.4
				c13-15,11.4-37.7-3.6-50.7c-8.2-7.1-19.3-10.1-29.8-8.3c0.3-10.7-4.1-21.2-12.4-28.3c-8.2-7.1-19.3-10.1-29.8-8.3
				c0.3-10.7-4.1-21.2-12.4-28.3c-8.2-7.1-19.3-10.1-29.8-8.3c0.3-10.7-4.1-21.2-12.4-28.3c-8.2-7.1-19.3-10.1-29.8-8.3
				C1264.5,110.4,1260.1,99.9,1251.8,92.7z M1260,132.9c9.1-4,19.7-2.4,27.2,4.1c7.5,6.5,10.6,16.8,7.9,26.4c-0.5,1.9,0.1,4,1.6,5.3
				c1.5,1.3,3.6,1.6,5.4,0.8c9.1-4,19.7-2.4,27.2,4.1c7.5,6.5,10.6,16.8,7.9,26.4c-0.5,1.9,0.1,4,1.6,5.3s3.6,1.6,5.4,0.8
				c9.1-4,19.7-2.4,27.2,4.1c7.5,6.5,10.6,16.8,7.9,26.4c-0.5,1.9,0.1,4,1.6,5.3s3.6,1.6,5.4,0.8c9.1-4,19.7-2.4,27.2,4.1
				c10.7,9.3,11.8,25.5,2.6,36.2c-6.5,7.5-16.8,10.6-26.4,7.9c-1.9-0.5-4,0.1-5.3,1.6c-1.3,1.5-1.6,3.6-0.8,5.4
				c4,9.1,2.4,19.7-4.1,27.2c-6.5,7.5-16.8,10.6-26.4,7.9c-1.9-0.5-4,0.1-5.3,1.6c-1.3,1.5-1.6,3.6-0.8,5.4c4,9.1,2.4,19.7-4.1,27.2
				c-6.5,7.5-16.8,10.6-26.4,7.9c-1.9-0.5-4,0.1-5.3,1.6s-1.6,3.6-0.8,5.4c4,9.1,2.4,19.7-4.1,27.2c-9.3,10.7-25.5,11.8-36.2,2.6
				c-7.5-6.5-10.6-16.8-7.9-26.4c0.5-1.9-0.1-4-1.6-5.3c-1.5-1.3-3.6-1.6-5.4-0.8c-9.1,4-19.7,2.4-27.2-4.1
				c-7.5-6.5-10.6-16.8-7.9-26.4c0.5-1.9-0.1-4-1.6-5.3c-1.5-1.3-3.6-1.6-5.4-0.8c-9.1,4-19.7,2.4-27.2-4.1
				c-7.5-6.5-10.6-16.8-7.9-26.4c0.5-1.9-0.1-4-1.6-5.3c-1.5-1.3-3.6-1.6-5.4-0.8c-9.1,4-19.7,2.4-27.2-4.1
				c-7.5-6.5-10.6-16.8-7.9-26.4c0.5-1.9-0.1-4-1.6-5.3c-1.5-1.3-3.6-1.6-5.4-0.8c-9.1,4-19.7,2.4-27.2-4.1
				c-7.5-6.5-10.6-16.8-7.9-26.4c0.5-1.9-0.1-4-1.6-5.3c-1.5-1.3-3.6-1.6-5.4-0.8c-9.1,4-19.7,2.4-27.2-4.1
				c-10.7-9.3-11.8-25.5-2.6-36.2c6.5-7.5,16.8-10.6,26.4-7.9c1.9,0.5,4-0.1,5.3-1.6s1.6-3.6,0.8-5.4c-4-9.1-2.4-19.7,4.1-27.2
				c6.5-7.5,16.8-10.6,26.4-7.9c1.9,0.5,4-0.1,5.3-1.6s1.6-3.6,0.8-5.4c-4-9.1-2.4-19.7,4.1-27.2c6.5-7.5,16.8-10.6,26.4-7.9
				c1.9,0.5,4-0.1,5.3-1.6c1.3-1.5,1.6-3.6,0.8-5.4c-4-9.1-2.4-19.7,4.1-27.2c9.3-10.7,25.5-11.8,36.2-2.6
				c7.5,6.5,10.6,16.8,7.9,26.4c-0.5,1.9,0.1,4,1.6,5.3c1.5,1.3,3.6,1.6,5.4,0.8c9.1-4,19.7-2.4,27.2,4.1
				c7.5,6.5,10.6,16.8,7.9,26.4c-0.5,1.9,0.1,4,1.6,5.3C1256.1,133.4,1258.2,133.7,1260,132.9z"/>
		</g>
	</g>
	<g>
		<g>
			<circle class="st0" cx="1228.1" cy="304.4" r="5.1"/>
		</g>
	</g>
	<g>
		<g>
			<circle class="st0" cx="1301.2" cy="220.2" r="5.1"/>
		</g>
	</g>
	<g>
		<g>
			<circle class="st0" cx="1171.9" cy="255.7" r="5.1"/>
		</g>
	</g>
	<g>
		<g>
			<circle class="st0" cx="1245.1" cy="171.4" r="5.1"/>
		</g>
	</g>
	<g>
		<g>
			<circle class="st0" cx="1115.8" cy="206.9" r="5.1"/>
		</g>
	</g>
	<g>
		<g>
			<circle class="st0" cx="1292.7" cy="286.7" r="5.1"/>
		</g>
	</g>
	<g>
		<g>
			<circle class="st0" cx="1236.6" cy="237.9" r="5.1"/>
		</g>
	</g>
	<g>
		<g>
			<circle class="st0" cx="1180.4" cy="189.2" r="5.1"/>
		</g>
	</g>
	<g>
		<g>
			<circle class="st0" cx="1188.9" cy="122.7" r="5.1"/>
		</g>
	</g>
	<g>
		<g>
			<circle class="st0" cx="1284.3" cy="353.1" r="5.1"/>
		</g>
	</g>
	<g>
		<g>
			<circle class="st0" cx="1357.4" cy="268.9" r="5.1"/>
		</g>
	</g>
</g>
<g>
	<g>
		<g>
			<path class="st0" d="M1841.4,696.9c-7.3-6.4-17.2-9-26.5-7.4c0.3-9.5-3.7-18.9-11-25.2c-13.3-11.6-33.6-10.2-45.2,3.2
				c-6.4,7.3-9,17.2-7.4,26.5c-9.5-0.3-18.9,3.7-25.2,11c-6.4,7.3-9,17.2-7.4,26.5c-9.5-0.3-18.9,3.7-25.2,11
				c-6.4,7.3-9,17.2-7.4,26.5c-9.5-0.3-18.9,3.7-25.2,11c-11.6,13.3-10.2,33.6,3.2,45.2c7.3,6.4,17.2,9,26.5,7.4
				c-0.3,9.5,3.7,18.9,11,25.2c7.3,6.4,17.2,9,26.5,7.4c-0.3,9.5,3.7,18.9,11,25.2c7.3,6.4,17.2,9,26.5,7.4
				c-0.3,9.5,3.7,18.9,11,25.2c7.3,6.4,17.2,9,26.5,7.4c-0.3,9.5,3.7,18.9,11,25.2c7.3,6.4,17.2,9,26.5,7.4
				c-0.3,9.5,3.7,18.9,11,25.2c13.3,11.6,33.6,10.2,45.2-3.2c6.4-7.3,9-17.2,7.4-26.5c9.5,0.3,18.9-3.7,25.2-11
				c6.4-7.3,9-17.2,7.4-26.5c9.5,0.3,18.9-3.7,25.2-11c6.4-7.3,9-17.2,7.4-26.5c9.5,0.3,18.9-3.7,25.2-11
				c11.6-13.3,10.2-33.6-3.2-45.2c-7.3-6.4-17.2-9-26.5-7.4c0.3-9.5-3.7-18.9-11-25.2c-7.3-6.4-17.2-9-26.5-7.4
				c0.3-9.5-3.7-18.9-11-25.2s-17.2-9-26.5-7.4c0.3-9.5-3.7-18.9-11-25.2c-7.3-6.4-17.2-9-26.5-7.4
				C1852.7,712.6,1848.8,703.3,1841.4,696.9z M1848.7,732.7c8.1-3.6,17.6-2.1,24.2,3.7c6.7,5.8,9.4,15,7,23.5
				c-0.5,1.7,0.1,3.5,1.4,4.7c1.3,1.2,3.2,1.4,4.8,0.7c8.1-3.6,17.6-2.1,24.2,3.7s9.4,15,7,23.5c-0.5,1.7,0.1,3.5,1.4,4.7
				c1.3,1.2,3.2,1.4,4.8,0.7c8.1-3.6,17.6-2.1,24.2,3.7c6.7,5.8,9.4,15,7,23.5c-0.5,1.7,0.1,3.5,1.4,4.7c1.3,1.2,3.2,1.4,4.8,0.7
				c8.1-3.6,17.6-2.1,24.2,3.7c9.5,8.3,10.6,22.8,2.3,32.3c-5.8,6.7-15,9.4-23.5,7c-1.7-0.5-3.5,0.1-4.7,1.4
				c-1.2,1.3-1.4,3.2-0.7,4.8c3.6,8.1,2.1,17.6-3.7,24.2s-15,9.4-23.5,7c-1.7-0.5-3.5,0.1-4.7,1.4s-1.4,3.2-0.7,4.8
				c3.6,8.1,2.1,17.6-3.7,24.2c-5.8,6.7-15,9.4-23.5,7c-1.7-0.5-3.5,0.1-4.7,1.4c-1.2,1.3-1.4,3.2-0.7,4.8
				c3.6,8.1,2.1,17.6-3.7,24.2c-8.3,9.5-22.8,10.6-32.3,2.3c-6.7-5.8-9.4-15-7-23.5c0.5-1.7-0.1-3.5-1.4-4.7s-3.2-1.4-4.8-0.7
				c-8.1,3.6-17.6,2.1-24.2-3.7c-6.7-5.8-9.4-15-7-23.5c0.5-1.7-0.1-3.5-1.4-4.7c-1.3-1.2-3.2-1.4-4.8-0.7
				c-8.1,3.6-17.6,2.1-24.2-3.7s-9.4-15-7-23.5c0.5-1.7-0.1-3.5-1.4-4.7c-1.3-1.2-3.2-1.4-4.8-0.7c-8.1,3.6-17.6,2.1-24.2-3.7
				s-9.4-15-7-23.5c0.5-1.7-0.1-3.5-1.4-4.7c-1.3-1.2-3.2-1.4-4.8-0.7c-8.1,3.6-17.6,2.1-24.2-3.7c-6.7-5.8-9.4-15-7-23.5
				c0.5-1.7-0.1-3.5-1.4-4.7s-3.2-1.4-4.8-0.7c-8.1,3.6-17.6,2.1-24.2-3.7c-9.5-8.3-10.6-22.8-2.3-32.3c5.8-6.7,15-9.4,23.5-7
				c1.7,0.5,3.5-0.1,4.7-1.4c1.2-1.3,1.4-3.2,0.7-4.8c-3.6-8.1-2.1-17.6,3.7-24.2c5.8-6.7,15-9.4,23.5-7c1.7,0.5,3.5-0.1,4.7-1.4
				c1.2-1.3,1.4-3.2,0.7-4.8c-3.6-8.1-2.1-17.6,3.7-24.2s15-9.4,23.5-7c1.7,0.5,3.5-0.1,4.7-1.4s1.4-3.2,0.7-4.8
				c-3.6-8.1-2.1-17.6,3.7-24.2c8.3-9.5,22.8-10.6,32.3-2.3c6.7,5.8,9.4,15,7,23.5c-0.5,1.7,0.1,3.5,1.4,4.7s3.2,1.4,4.8,0.7
				c8.1-3.6,17.6-2.1,24.2,3.7c6.7,5.8,9.4,15,7,23.5c-0.5,1.7,0.1,3.5,1.4,4.7C1845.2,733.1,1847.1,733.4,1848.7,732.7z"/>
		</g>
	</g>
	<g>
		<g>
			<circle class="st0" cx="1820.3" cy="885.5" r="4.6"/>
		</g>
	</g>
	<g>
		<g>
			<circle class="st0" cx="1885.5" cy="810.5" r="4.6"/>
		</g>
	</g>
	<g>
		<g>
			<circle class="st0" cx="1770.2" cy="842.1" r="4.6"/>
		</g>
	</g>
	<g>
		<g>
			<circle class="st0" cx="1835.4" cy="767" r="4.6"/>
		</g>
	</g>
	<g>
		<g>
			<circle class="st0" cx="1720.2" cy="798.6" r="4.6"/>
		</g>
	</g>
	<g>
		<g>
			<circle class="st0" cx="1877.9" cy="869.7" r="4.6"/>
		</g>
	</g>
	<g>
		<g>
			<circle class="st0" cx="1827.9" cy="826.3" r="4.6"/>
		</g>
	</g>
	<g>
		<g>
			<circle class="st0" cx="1777.8" cy="782.8" r="4.6"/>
		</g>
	</g>
	<g>
		<g>
			<circle class="st0" cx="1785.4" cy="723.6" r="4.6"/>
		</g>
	</g>
	<g>
		<g>
			<circle class="st0" cx="1870.3" cy="929" r="4.6"/>
		</g>
	</g>
	<g>
		<g>
			<circle class="st0" cx="1935.5" cy="853.9" r="4.6"/>
		</g>
	</g>
</g>
<g>
	<g>
		<g>
			<path class="st0" d="M2232,176.1c3.9-4.7,5.4-10.8,4.2-16.6c5.9,0,11.7-2.5,15.6-7.2c7.1-8.5,5.9-21.1-2.6-28.2
				c-4.7-3.9-10.8-5.4-16.6-4.2c0-5.9-2.5-11.7-7.2-15.6s-10.8-5.4-16.6-4.2c0-5.9-2.5-11.7-7.2-15.6c-4.7-3.9-10.8-5.4-16.6-4.2
				c0-5.9-2.5-11.7-7.2-15.6c-8.5-7.1-21.1-5.9-28.2,2.6c-3.9,4.7-5.4,10.8-4.2,16.6c-5.9,0-11.7,2.5-15.6,7.2
				c-3.9,4.7-5.4,10.8-4.2,16.6c-5.9,0-11.7,2.5-15.6,7.2c-3.9,4.7-5.4,10.8-4.2,16.6c-5.9,0-11.7,2.5-15.6,7.2s-5.4,10.8-4.2,16.6
				c-5.9,0-11.7,2.5-15.6,7.2c-3.9,4.7-5.4,10.8-4.2,16.6c-5.9,0-11.7,2.5-15.6,7.2c-7.1,8.5-5.9,21.1,2.6,28.2
				c4.7,3.9,10.8,5.4,16.6,4.2c0,5.9,2.5,11.7,7.2,15.6c4.7,3.9,10.8,5.4,16.6,4.2c0,5.9,2.5,11.7,7.2,15.6
				c4.7,3.9,10.8,5.4,16.6,4.2c0,5.9,2.5,11.7,7.2,15.6c8.5,7.1,21.1,5.9,28.2-2.6c3.9-4.7,5.4-10.8,4.2-16.6
				c5.9,0,11.7-2.5,15.6-7.2c3.9-4.7,5.4-10.8,4.2-16.6c5.9,0,11.7-2.5,15.6-7.2s5.4-10.8,4.2-16.6c5.9,0,11.7-2.5,15.6-7.2
				s5.4-10.8,4.2-16.6C2222.4,183.3,2228.1,180.7,2232,176.1z M2209.8,181.1c2.3,5,1.5,10.9-2,15.2s-9.2,6.1-14.6,4.7
				c-1.1-0.3-2.2,0.1-2.9,0.9c-0.7,0.8-0.9,2-0.4,3c2.3,5,1.5,10.9-2,15.2c-3.5,4.2-9.2,6.1-14.6,4.7c-1.1-0.3-2.2,0.1-2.9,0.9
				s-0.9,2-0.4,3c2.3,5,1.5,10.9-2,15.2c-3.5,4.2-9.2,6.1-14.6,4.7c-1.1-0.3-2.2,0.1-2.9,0.9c-0.7,0.8-0.9,2-0.4,3
				c2.3,5,1.5,10.9-2,15.2c-5,6.1-14.1,6.9-20.1,1.8c-4.2-3.5-6.1-9.2-4.7-14.6c0.3-1.1-0.1-2.2-0.9-2.9c-0.8-0.7-2-0.9-3-0.4
				c-5,2.3-10.9,1.5-15.2-2s-6.1-9.2-4.7-14.6c0.3-1.1-0.1-2.2-0.9-2.9c-0.8-0.7-2-0.9-3-0.4c-5,2.3-10.9,1.5-15.2-2
				c-4.2-3.5-6.1-9.2-4.7-14.6c0.3-1.1-0.1-2.2-0.9-2.9c-0.8-0.7-2-0.9-3-0.4c-5,2.3-10.9,1.5-15.2-2c-6.1-5-6.9-14.1-1.8-20.1
				c3.5-4.2,9.2-6.1,14.6-4.7c1.1,0.3,2.2-0.1,2.9-0.9c0.7-0.8,0.9-2,0.4-3c-2.3-5-1.5-10.9,2-15.2c3.5-4.2,9.2-6.1,14.6-4.7
				c1.1,0.3,2.2-0.1,2.9-0.9c0.7-0.8,0.9-2,0.4-3c-2.3-5-1.5-10.9,2-15.2s9.2-6.1,14.6-4.7c1.1,0.3,2.2-0.1,2.9-0.9
				c0.7-0.8,0.9-2,0.4-3c-2.3-5-1.5-10.9,2-15.2c3.5-4.2,9.2-6.1,14.6-4.7c1.1,0.3,2.2-0.1,2.9-0.9c0.7-0.8,0.9-2,0.4-3
				c-2.3-5-1.5-10.9,2-15.2c3.5-4.2,9.2-6.1,14.6-4.7c1.1,0.3,2.2-0.1,2.9-0.9c0.7-0.8,0.9-2,0.4-3c-2.3-5-1.5-10.9,2-15.2
				c5-6.1,14.1-6.9,20.1-1.8c4.2,3.5,6.1,9.2,4.7,14.6c-0.3,1.1,0.1,2.2,0.9,2.9c0.8,0.7,2,0.9,3,0.4c5-2.3,10.9-1.5,15.2,2
				c4.2,3.5,6.1,9.2,4.7,14.6c-0.3,1.1,0.1,2.2,0.9,2.9c0.8,0.7,2,0.9,3,0.4c5-2.3,10.9-1.5,15.2,2c4.2,3.5,6.1,9.2,4.7,14.6
				c-0.3,1.1,0.1,2.2,0.9,2.9c0.8,0.7,2,0.9,3,0.4c5-2.3,10.9-1.5,15.2,2c6.1,5,6.9,14.1,1.8,20.1c-3.5,4.2-9.2,6.1-14.6,4.7
				c-1.1-0.3-2.2,0.1-2.9,0.9c-0.7,0.8-0.9,2-0.4,3c2.3,5,1.5,10.9-2,15.2c-3.5,4.2-9.2,6.1-14.6,4.7c-1.1-0.3-2.2,0.1-2.9,0.9
				C2209.4,178.9,2209.3,180.1,2209.8,181.1z"/>
		</g>
	</g>
	<g>
		<g>
			<circle class="st0" cx="2114.1" cy="165.4" r="2.9"/>
		</g>
	</g>
	<g>
		<g>
			<circle class="st0" cx="2161.8" cy="205" r="2.9"/>
		</g>
	</g>
	<g>
		<g>
			<circle class="st0" cx="2140.5" cy="133.6" r="2.9"/>
		</g>
	</g>
	<g>
		<g>
			<circle class="st0" cx="2188.2" cy="173.2" r="2.9"/>
		</g>
	</g>
	<g>
		<g>
			<circle class="st0" cx="2167" cy="101.8" r="2.9"/>
		</g>
	</g>
	<g>
		<g>
			<circle class="st0" cx="2124.7" cy="201.1" r="2.9"/>
		</g>
	</g>
	<g>
		<g>
			<circle class="st0" cx="2151.1" cy="169.3" r="2.9"/>
		</g>
	</g>
	<g>
		<g>
			<circle class="st0" cx="2177.6" cy="137.5" r="2.9"/>
		</g>
	</g>
	<g>
		<g>
			<circle class="st0" cx="2214.6" cy="141.5" r="2.9"/>
		</g>
	</g>
	<g>
		<g>
			<circle class="st0" cx="2087.6" cy="197.2" r="2.9"/>
		</g>
	</g>
	<g>
		<g>
			<circle class="st0" cx="2135.3" cy="236.8" r="2.9"/>
		</g>
	</g>
</g>
<g>
	<g>
		<g>
			<path class="st0" d="M2521.7,226.1c5.6,2.3,11.9,1.8,17.1-1c1.8,5.7,6,10.4,11.6,12.7c10.2,4.1,21.9-0.8,26.1-11
				c2.3-5.6,1.8-11.9-1-17.1c5.7-1.8,10.4-6,12.7-11.6c2.3-5.6,1.8-11.9-1-17.1c5.7-1.8,10.4-6,12.7-11.6c2.3-5.6,1.8-11.9-1-17.1
				c5.7-1.8,10.4-6,12.7-11.6c4.1-10.2-0.8-21.9-11-26.1c-5.6-2.3-11.9-1.8-17.1,1c-1.8-5.7-6-10.4-11.6-12.7
				c-5.6-2.3-11.9-1.8-17.1,1c-1.8-5.7-6-10.4-11.6-12.7s-11.9-1.8-17.1,1c-1.8-5.7-6-10.4-11.6-12.7s-11.9-1.8-17.1,1
				c-1.8-5.7-6-10.4-11.6-12.7c-5.6-2.3-11.9-1.8-17.1,1c-1.8-5.7-6-10.4-11.6-12.7c-10.2-4.1-21.9,0.8-26.1,11
				c-2.3,5.6-1.8,11.9,1,17.1c-5.7,1.8-10.4,6-12.7,11.6c-2.3,5.6-1.8,11.9,1,17.1c-5.7,1.8-10.4,6-12.7,11.6
				c-2.3,5.6-1.8,11.9,1,17.1c-5.7,1.8-10.4,6-12.7,11.6c-4.1,10.2,0.8,21.9,11,26.1c5.6,2.3,11.9,1.8,17.1-1
				c1.8,5.7,6,10.4,11.6,12.7c5.6,2.3,11.9,1.8,17.1-1c1.8,5.7,6,10.4,11.6,12.7c5.6,2.3,11.9,1.8,17.1-1c1.8,5.7,6,10.4,11.6,12.7
				c5.6,2.3,11.9,1.8,17.1-1C2511.9,219.1,2516.1,223.8,2521.7,226.1z M2510.2,206.4c-4.1,3.7-10,4.8-15.1,2.7
				c-5.1-2.1-8.6-7-8.9-12.4c-0.1-1.1-0.8-2.1-1.8-2.5s-2.2-0.2-3,0.5c-4.1,3.7-10,4.8-15.1,2.7c-5.1-2.1-8.6-7-8.9-12.4
				c-0.1-1.1-0.8-2.1-1.8-2.5s-2.2-0.2-3,0.5c-4.1,3.7-10,4.8-15.1,2.7c-5.1-2.1-8.6-7-8.9-12.4c-0.1-1.1-0.8-2.1-1.8-2.5
				s-2.2-0.2-3,0.5c-4.1,3.7-10,4.8-15.1,2.7c-7.3-3-10.8-11.3-7.9-18.6c2.1-5.1,7-8.6,12.4-8.9c1.1-0.1,2.1-0.8,2.5-1.8
				c0.4-1,0.2-2.2-0.5-3c-3.7-4.1-4.8-10-2.7-15.1c2.1-5.1,7-8.6,12.4-8.9c1.1-0.1,2.1-0.8,2.5-1.8c0.4-1,0.2-2.2-0.5-3
				c-3.7-4.1-4.8-10-2.7-15.1c2.1-5.1,7-8.6,12.4-8.9c1.1-0.1,2.1-0.8,2.5-1.8c0.4-1,0.2-2.2-0.5-3c-3.7-4.1-4.8-10-2.7-15.1
				c3-7.3,11.3-10.8,18.6-7.9c5.1,2.1,8.6,7,8.9,12.4c0.1,1.1,0.8,2.1,1.8,2.5c1,0.4,2.2,0.2,3-0.5c4.1-3.7,10-4.8,15.1-2.7
				c5.1,2.1,8.6,7,8.9,12.4c0.1,1.1,0.8,2.1,1.8,2.5c1,0.4,2.2,0.2,3-0.5c4.1-3.7,10-4.8,15.1-2.7s8.6,7,8.9,12.4
				c0.1,1.1,0.8,2.1,1.8,2.5c1,0.4,2.2,0.2,3-0.5c4.1-3.7,10-4.8,15.1-2.7c5.1,2.1,8.6,7,8.9,12.4c0.1,1.1,0.8,2.1,1.8,2.5
				s2.2,0.2,3-0.5c4.1-3.7,10-4.8,15.1-2.7c5.1,2.1,8.6,7,8.9,12.4c0.1,1.1,0.8,2.1,1.8,2.5c1,0.4,2.2,0.2,3-0.5
				c4.1-3.7,10-4.8,15.1-2.7c7.3,3,10.8,11.3,7.9,18.6c-2.1,5.1-7,8.6-12.4,8.9c-1.1,0.1-2.1,0.8-2.5,1.8c-0.4,1-0.2,2.2,0.5,3
				c3.7,4.1,4.8,10,2.7,15.1c-2.1,5.1-7,8.6-12.4,8.9c-1.1,0.1-2.1,0.8-2.5,1.8c-0.4,1-0.2,2.2,0.5,3c3.7,4.1,4.8,10,2.7,15.1
				s-7,8.6-12.4,8.9c-1.1,0.1-2.1,0.8-2.5,1.8c-0.4,1-0.2,2.2,0.5,3c3.7,4.1,4.8,10,2.7,15.1c-3,7.3-11.3,10.8-18.6,7.9
				c-5.1-2.1-8.6-7-8.9-12.4c-0.1-1.1-0.8-2.1-1.8-2.5c-1-0.4-2.2-0.2-3,0.5c-4.1,3.7-10,4.8-15.1,2.7c-5.1-2.1-8.6-7-8.9-12.4
				c-0.1-1.1-0.8-2.1-1.8-2.5S2511,205.7,2510.2,206.4z"/>
		</g>
	</g>
	<g>
		<g>
			<circle class="st0" cx="2496.2" cy="110.5" r="2.9"/>
		</g>
	</g>
	<g>
		<g>
			<circle class="st0" cx="2472.8" cy="168" r="2.9"/>
		</g>
	</g>
	<g>
		<g>
			<circle class="st0" cx="2534.5" cy="126.1" r="2.9"/>
		</g>
	</g>
	<g>
		<g>
			<circle class="st0" cx="2511.1" cy="183.5" r="2.9"/>
		</g>
	</g>
	<g>
		<g>
			<circle class="st0" cx="2572.8" cy="141.6" r="2.9"/>
		</g>
	</g>
	<g>
		<g>
			<circle class="st0" cx="2465.3" cy="131.5" r="2.9"/>
		</g>
	</g>
	<g>
		<g>
			<circle class="st0" cx="2503.6" cy="147" r="2.9"/>
		</g>
	</g>
	<g>
		<g>
			<circle class="st0" cx="2541.9" cy="162.6" r="2.9"/>
		</g>
	</g>
	<g>
		<g>
			<circle class="st0" cx="2549.4" cy="199.1" r="2.9"/>
		</g>
	</g>
	<g>
		<g>
			<circle class="st0" cx="2457.9" cy="94.9" r="2.9"/>
		</g>
	</g>
	<g>
		<g>
			<circle class="st0" cx="2434.5" cy="152.4" r="2.9"/>
		</g>
	</g>
</g>
<g>
	<g>
		<g>
			<path class="st0" d="M221.3,445.6c1.8-5.8,0.8-12.1-2.5-17c5.5-2.2,9.8-6.9,11.6-12.7c3.2-10.5-2.7-21.7-13.3-25
				c-5.8-1.8-12.1-0.8-17,2.5c-2.2-5.5-6.9-9.8-12.7-11.6s-12.1-0.8-17,2.5c-2.2-5.5-6.9-9.8-12.7-11.6c-5.8-1.8-12.1-0.8-17,2.5
				c-2.2-5.5-6.9-9.8-12.7-11.6c-10.5-3.2-21.7,2.7-25,13.3c-1.8,5.8-0.8,12.1,2.5,17c-5.5,2.2-9.8,6.9-11.6,12.7
				c-1.8,5.8-0.8,12.1,2.5,17c-5.5,2.2-9.8,6.9-11.6,12.7c-1.8,5.8-0.8,12.1,2.5,17c-5.5,2.2-9.8,6.9-11.6,12.7
				c-1.8,5.8-0.8,12.1,2.5,17c-5.5,2.2-9.8,6.9-11.6,12.7c-1.8,5.8-0.8,12.1,2.5,17c-5.5,2.2-9.8,6.9-11.6,12.7
				c-3.2,10.5,2.7,21.7,13.3,25c5.8,1.8,12.1,0.8,17-2.5c2.2,5.5,6.9,9.8,12.7,11.6c5.8,1.8,12.1,0.8,17-2.5
				c2.2,5.5,6.9,9.8,12.7,11.6c5.8,1.8,12.1,0.8,17-2.5c2.2,5.5,6.9,9.8,12.7,11.6c10.5,3.2,21.7-2.7,25-13.3
				c1.8-5.8,0.8-12.1-2.5-17c5.5-2.2,9.8-6.9,11.6-12.7c1.8-5.8,0.8-12.1-2.5-17c5.5-2.2,9.8-6.9,11.6-12.7c1.8-5.8,0.8-12.1-2.5-17
				c5.5-2.2,9.8-6.9,11.6-12.7s0.8-12.1-2.5-17C215.2,456.1,219.6,451.4,221.3,445.6z M202.8,458.9c4.1,3.7,5.7,9.5,4.1,14.7
				c-1.6,5.3-6.2,9.2-11.6,10c-1.1,0.2-2,0.9-2.3,2s0,2.2,0.8,2.9c4.1,3.7,5.7,9.5,4.1,14.7c-1.6,5.3-6.2,9.2-11.6,10
				c-1.1,0.2-2,0.9-2.3,2c-0.3,1.1,0,2.2,0.8,2.9c4.1,3.7,5.7,9.5,4.1,14.7c-1.6,5.3-6.2,9.2-11.6,10c-1.1,0.2-2,0.9-2.3,2
				c-0.3,1.1,0,2.2,0.8,2.9c4.1,3.7,5.7,9.5,4.1,14.7c-2.3,7.5-10.3,11.8-17.8,9.5c-5.3-1.6-9.2-6.2-10-11.6c-0.2-1.1-0.9-2-2-2.3
				s-2.2,0-2.9,0.8c-3.7,4.1-9.5,5.7-14.7,4.1c-5.3-1.6-9.2-6.2-10-11.6c-0.2-1.1-0.9-2-2-2.3c-1.1-0.3-2.2,0-2.9,0.8
				c-3.7,4.1-9.5,5.7-14.7,4.1c-5.3-1.6-9.2-6.2-10-11.6c-0.2-1.1-0.9-2-2-2.3c-1.1-0.3-2.2,0-2.9,0.8c-3.7,4.1-9.5,5.7-14.7,4.1
				c-7.5-2.3-11.8-10.3-9.5-17.8c1.6-5.3,6.2-9.2,11.6-10c1.1-0.2,2-0.9,2.3-2c0.3-1.1,0-2.2-0.8-2.9c-4.1-3.7-5.7-9.5-4.1-14.7
				c1.6-5.3,6.2-9.2,11.6-10c1.1-0.2,2-0.9,2.3-2c0.3-1.1,0-2.2-0.8-2.9c-4.1-3.7-5.7-9.5-4.1-14.7c1.6-5.3,6.2-9.2,11.6-10
				c1.1-0.2,2-0.9,2.3-2s0-2.2-0.8-2.9c-4.1-3.7-5.7-9.5-4.1-14.7c1.6-5.3,6.2-9.2,11.6-10c1.1-0.2,2-0.9,2.3-2
				c0.3-1.1,0-2.2-0.8-2.9c-4.1-3.7-5.7-9.5-4.1-14.7c1.6-5.3,6.2-9.2,11.6-10c1.1-0.2,2-0.9,2.3-2c0.3-1.1,0-2.2-0.8-2.9
				c-4.1-3.7-5.7-9.5-4.1-14.7c2.3-7.5,10.3-11.8,17.8-9.5c5.3,1.6,9.2,6.2,10,11.6c0.2,1.1,0.9,2,2,2.3c1.1,0.3,2.2,0,2.9-0.8
				c3.7-4.1,9.5-5.7,14.7-4.1c5.3,1.6,9.2,6.2,10,11.6c0.2,1.1,0.9,2,2,2.3c1.1,0.3,2.2,0,2.9-0.8c3.7-4.1,9.5-5.7,14.7-4.1
				c5.3,1.6,9.2,6.2,10,11.6c0.2,1.1,0.9,2,2,2.3c1.1,0.3,2.2,0,2.9-0.8c3.7-4.1,9.5-5.7,14.7-4.1c7.5,2.3,11.8,10.3,9.5,17.8
				c-1.6,5.3-6.2,9.2-11.6,10c-1.1,0.2-2,0.9-2.3,2c-0.3,1.1,0,2.2,0.8,2.9c4.1,3.7,5.7,9.5,4.1,14.7c-1.6,5.3-6.2,9.2-11.6,10
				c-1.1,0.2-2,0.9-2.3,2C201.6,457,201.9,458.1,202.8,458.9z"/>
		</g>
	</g>
	<g>
		<g>
			<circle class="st0" cx="108.5" cy="481.4" r="2.9"/>
		</g>
	</g>
	<g>
		<g>
			<circle class="st0" cx="167.8" cy="499.5" r="2.9"/>
		</g>
	</g>
	<g>
		<g>
			<circle class="st0" cx="120.5" cy="441.9" r="2.9"/>
		</g>
	</g>
	<g>
		<g>
			<circle class="st0" cx="179.8" cy="460" r="2.9"/>
		</g>
	</g>
	<g>
		<g>
			<circle class="st0" cx="132.6" cy="402.3" r="2.9"/>
		</g>
	</g>
	<g>
		<g>
			<circle class="st0" cx="132.1" cy="510.2" r="2.9"/>
		</g>
	</g>
	<g>
		<g>
			<circle class="st0" cx="144.1" cy="470.7" r="2.9"/>
		</g>
	</g>
	<g>
		<g>
			<circle class="st0" cx="156.2" cy="431.2" r="2.9"/>
		</g>
	</g>
	<g>
		<g>
			<circle class="st0" cx="191.9" cy="420.4" r="2.9"/>
		</g>
	</g>
	<g>
		<g>
			<circle class="st0" cx="96.4" cy="520.9" r="2.9"/>
		</g>
	</g>
	<g>
		<g>
			<circle class="st0" cx="155.7" cy="539.1" r="2.9"/>
		</g>
	</g>
</g>
<g>
	<g>
		<g>
			<path class="st0" d="M3379.3,399.1c1.8-5.8,0.8-12.1-2.5-17c5.5-2.2,9.8-6.9,11.6-12.7c3.2-10.5-2.7-21.7-13.3-25
				c-5.8-1.8-12.1-0.8-17,2.5c-2.2-5.5-6.9-9.8-12.7-11.6c-5.8-1.8-12.1-0.8-17,2.5c-2.2-5.5-6.9-9.8-12.7-11.6
				c-5.8-1.8-12.1-0.8-17,2.5c-2.2-5.5-6.9-9.8-12.7-11.6c-10.5-3.2-21.7,2.7-25,13.3c-1.8,5.8-0.8,12.1,2.5,17
				c-5.5,2.2-9.8,6.9-11.6,12.7c-1.8,5.8-0.8,12.1,2.5,17c-5.5,2.2-9.8,6.9-11.6,12.7c-1.8,5.8-0.8,12.1,2.5,17
				c-5.5,2.2-9.8,6.9-11.6,12.7c-1.8,5.8-0.8,12.1,2.5,17c-5.5,2.2-9.8,6.9-11.6,12.7c-1.8,5.8-0.8,12.1,2.5,17
				c-5.5,2.2-9.8,6.9-11.6,12.7c-3.2,10.5,2.7,21.7,13.3,25c5.8,1.8,12.1,0.8,17-2.5c2.2,5.5,6.9,9.8,12.7,11.6
				c5.8,1.8,12.1,0.8,17-2.5c2.2,5.5,6.9,9.8,12.7,11.6c5.8,1.8,12.1,0.8,17-2.5c2.2,5.5,6.9,9.8,12.7,11.6
				c10.5,3.2,21.7-2.7,25-13.3c1.8-5.8,0.8-12.1-2.5-17c5.5-2.2,9.8-6.9,11.6-12.7c1.8-5.8,0.8-12.1-2.5-17
				c5.5-2.2,9.8-6.9,11.6-12.7c1.8-5.8,0.8-12.1-2.5-17c5.5-2.2,9.8-6.9,11.6-12.7c1.8-5.8,0.8-12.1-2.5-17
				C3373.2,409.5,3377.5,404.9,3379.3,399.1z M3360.7,412.3c4.1,3.7,5.7,9.5,4.1,14.7c-1.6,5.3-6.2,9.2-11.6,10
				c-1.1,0.2-2,0.9-2.3,2s0,2.2,0.8,2.9c4.1,3.7,5.7,9.5,4.1,14.7c-1.6,5.3-6.2,9.2-11.6,10c-1.1,0.2-2,0.9-2.3,2s0,2.2,0.8,2.9
				c4.1,3.7,5.7,9.5,4.1,14.7c-1.6,5.3-6.2,9.2-11.6,10c-1.1,0.2-2,0.9-2.3,2s0,2.2,0.8,2.9c4.1,3.7,5.7,9.5,4.1,14.7
				c-2.3,7.5-10.3,11.8-17.8,9.5c-5.3-1.6-9.2-6.2-10-11.6c-0.2-1.1-0.9-2-2-2.3c-1.1-0.3-2.2,0-2.9,0.8c-3.7,4.1-9.5,5.7-14.7,4.1
				s-9.2-6.2-10-11.6c-0.2-1.1-0.9-2-2-2.3c-1.1-0.3-2.2,0-2.9,0.8c-3.7,4.1-9.5,5.7-14.7,4.1c-5.3-1.6-9.2-6.2-10-11.6
				c-0.2-1.1-0.9-2-2-2.3c-1.1-0.3-2.2,0-2.9,0.8c-3.7,4.1-9.5,5.7-14.7,4.1c-7.5-2.3-11.8-10.3-9.5-17.8c1.6-5.3,6.2-9.2,11.6-10
				c1.1-0.2,2-0.9,2.3-2s0-2.2-0.8-2.9c-4.1-3.7-5.7-9.5-4.1-14.7c1.6-5.3,6.2-9.2,11.6-10c1.1-0.2,2-0.9,2.3-2s0-2.2-0.8-2.9
				c-4.1-3.7-5.7-9.5-4.1-14.7s6.2-9.2,11.6-10c1.1-0.2,2-0.9,2.3-2c0.3-1.1,0-2.2-0.8-2.9c-4.1-3.7-5.7-9.5-4.1-14.7
				c1.6-5.3,6.2-9.2,11.6-10c1.1-0.2,2-0.9,2.3-2s0-2.2-0.8-2.9c-4.1-3.7-5.7-9.5-4.1-14.7c1.6-5.3,6.2-9.2,11.6-10
				c1.1-0.2,2-0.9,2.3-2s0-2.2-0.8-2.9c-4.1-3.7-5.7-9.5-4.1-14.7c2.3-7.5,10.3-11.8,17.8-9.5c5.3,1.6,9.2,6.2,10,11.6
				c0.2,1.1,0.9,2,2,2.3c1.1,0.3,2.2,0,2.9-0.8c3.7-4.1,9.5-5.7,14.8-4.1c5.3,1.6,9.2,6.2,10,11.6c0.2,1.1,0.9,2,2,2.3
				c1.1,0.3,2.2,0,2.9-0.8c3.7-4.1,9.5-5.7,14.7-4.1c5.3,1.6,9.2,6.2,10,11.6c0.2,1.1,0.9,2,2,2.3s2.2,0,2.9-0.8
				c3.7-4.1,9.5-5.7,14.7-4.1c7.5,2.3,11.8,10.3,9.5,17.8c-1.6,5.3-6.2,9.2-11.6,10c-1.1,0.2-2,0.9-2.3,2s0,2.2,0.8,2.9
				c4.1,3.7,5.7,9.5,4.1,14.7c-1.6,5.3-6.2,9.2-11.6,10c-1.1,0.2-2,0.9-2.3,2S3359.9,411.6,3360.7,412.3z"/>
		</g>
	</g>
	<g>
		<g>
			<circle class="st0" cx="3266.4" cy="434.8" r="2.9"/>
		</g>
	</g>
	<g>
		<g>
			<circle class="st0" cx="3325.7" cy="452.9" r="2.9"/>
		</g>
	</g>
	<g>
		<g>
			<circle class="st0" cx="3278.5" cy="395.3" r="2.9"/>
		</g>
	</g>
	<g>
		<g>
			<circle class="st0" cx="3337.8" cy="413.4" r="2.9"/>
		</g>
	</g>
	<g>
		<g>
			<circle class="st0" cx="3290.6" cy="355.7" r="2.9"/>
		</g>
	</g>
	<g>
		<g>
			<circle class="st0" cx="3290" cy="463.7" r="2.9"/>
		</g>
	</g>
	<g>
		<g>
			<circle class="st0" cx="3302.1" cy="424.1" r="2.9"/>
		</g>
	</g>
	<g>
		<g>
			<circle class="st0" cx="3314.2" cy="384.6" r="2.9"/>
		</g>
	</g>
	<g>
		<g>
			<circle class="st0" cx="3349.9" cy="373.9" r="2.9"/>
		</g>
	</g>
	<g>
		<g>
			<circle class="st0" cx="3254.3" cy="474.4" r="2.9"/>
		</g>
	</g>
	<g>
		<g>
			<circle class="st0" cx="3313.6" cy="492.5" r="2.9"/>
		</g>
	</g>
</g>
<g id="_x30_33---Cooky" transform="translate(0 -1)">
	<path id="Shape" class="st0" d="M667.1,73.5c-2.6,1.3-4.5,3.9-4.9,6.8c-0.4,2.9,0.6,5.9,2.8,7.9c9.9,9.8,11.2,25.4,3,36.7
		c-2.5,3.4-2.4,8.1,0.3,11.3c7.1,9,8.1,21.4,2.4,31.4c-5.6,10-16.8,15.5-28.1,14.1c-4.8-0.7-9.3,2.5-10.3,7.2
		c-2.1,9.3-8.7,16.8-17.6,20.2c-8.9,3.3-18.8,2-26.5-3.6c-2.6-2-6.1-2.5-9.1-1.2c-3,1.3-5.2,4.1-5.6,7.3
		c-5.3,66.4,28.9,129.6,87.3,161.6s130.1,26.6,183.2-13.6c53.1-40.2,77.6-107.8,62.6-172.7C883,84.5,767.1,24.1,667.1,73.5
		L667.1,73.5z M895.6,189.4c13.9,60.1-8.6,122.7-57.4,160.4c-48.9,37.6-115.2,43.3-169.7,14.6s-87.4-86.6-84-148.2
		c10.6,6.3,23.5,7.4,34.9,2.8c11.4-4.6,20.1-14.2,23.4-26.1c15.4,1.3,30.1-6.5,37.7-20c7.6-13.5,6.5-30.1-2.6-42.6
		c10-14.8,8.8-34.5-3-48c43.1-20,93-19.6,135.8,1.1S884.6,143.1,895.6,189.4L895.6,189.4z"/>
	<path id="Shape_00000085931514401620401610000014385910024046009242_" class="st0" d="M588,184.9c1.3,9.2,9.9,15.6,19.2,14.3
		c9.2-1.3,15.6-9.9,14.3-19.2c-1.3-9.2-9.9-15.6-19.2-14.3C593.1,167.1,586.7,175.7,588,184.9z M610.3,181.6
		c0.4,3.1-1.7,5.9-4.8,6.4c-3.1,0.4-5.9-1.7-6.4-4.8c-0.4-3.1,1.7-5.9,4.8-6.4C607,176.4,609.9,178.6,610.3,181.6z"/>
	<path id="Shape_00000160910166103552403080000009191459863395425154_" class="st0" d="M648.5,170.4c9.2-1.3,15.6-9.9,14.3-19.2
		c-1.3-9.2-9.9-15.6-19.2-14.3c-9.2,1.3-15.6,9.9-14.3,19.2S639.3,171.7,648.5,170.4z M640.5,154.5c-0.4-3.1,1.7-5.9,4.8-6.4
		c3.1-0.4,5.9,1.7,6.4,4.8s-1.7,5.9-4.8,6.4C643.8,159.7,640.9,157.5,640.5,154.5z"/>
	<path id="Shape_00000000201954986924546090000009104619823398832544_" class="st0" d="M642.7,91.5c-9.2,1.3-15.6,9.9-14.3,19.2
		s9.9,15.6,19.2,14.3c9.2-1.3,15.6-9.9,14.3-19.2S651.9,90.2,642.7,91.5z M645.9,113.8c-3.1,0.4-5.9-1.7-6.4-4.8
		c-0.4-3.1,1.7-5.9,4.8-6.4c3.1-0.4,5.9,1.7,6.4,4.8C651.2,110.5,649,113.4,645.9,113.8z"/>
	<path id="Shape_00000013885454807488946370000015519387475996551303_" class="st0" d="M801.2,139.5c-3.8,5.3-2.7,12.7,2.4,16.7
		l12,8.9c2.5,1.9,5.7,2.7,8.9,2.2s6-2.1,7.9-4.7l8.9-12c1.9-2.5,2.7-5.7,2.2-8.9s-2.1-6-4.7-7.9l-12-8.9c-2.5-1.9-5.7-2.7-8.9-2.2
		s-6,2.1-7.9,4.7L801.2,139.5z M820.2,133.9c15,11.6,12.2,9.1,12.3,10.1l-9.1,12.2c-1.4,0.2,0.7,1.4-12.9-8.8l-0.1-1
		C820.5,132.5,818.8,134.1,820.2,133.9z"/>
	<path id="Shape_00000133528071765034094500000016400938259121177762_" class="st0" d="M841.3,219.1c-3.8,5.3-2.7,12.7,2.4,16.7
		l12,8.9c2.5,1.9,5.7,2.7,8.9,2.2c3.1-0.5,6-2.1,7.9-4.7l8.9-12c1.9-2.5,2.7-5.7,2.2-8.9c-0.5-3.1-2.1-6-4.7-7.9l-12-8.9
		c-2.5-1.9-5.7-2.7-8.9-2.2c-3.1,0.5-6,2.1-7.9,4.7L841.3,219.1z M860.2,213.5c15,11.6,12.2,9.1,12.3,10.1l-9.1,12.2
		c-1.4,0.2,0.7,1.4-12.9-8.8l-0.1-1C860.6,212,858.8,213.7,860.2,213.5L860.2,213.5z"/>
	<path id="Shape_00000143606964401819876050000013418262247262862476_" class="st0" d="M777.9,257.5l-8.9,12
		c-3.8,5.3-2.7,12.7,2.4,16.7l12,8.9c2.5,1.9,5.7,2.7,8.9,2.2c3.1-0.5,6-2.1,7.9-4.7l8.9-12c1.9-2.5,2.7-5.7,2.2-8.9
		c-0.5-3.1-2.1-6-4.7-7.9l-12-8.9c-2.5-1.9-5.7-2.7-8.9-2.2C782.6,253.2,779.8,254.9,777.9,257.5z M787.9,263.9
		c15,11.6,12.2,9.1,12.3,10.1l-9.1,12.2c-1.4,0.2,0.7,1.4-12.9-8.8l-0.1-1C788.3,262.4,786.5,264.1,787.9,263.9L787.9,263.9z"/>
	<path id="Shape_00000183218199913120937090000016656475269942354862_" class="st0" d="M753,169.3l-12-8.9c-2.5-1.9-5.7-2.7-8.9-2.2
		c-3.1,0.5-6,2.1-7.9,4.7l-8.9,12c-3.8,5.3-2.7,12.7,2.4,16.7l12,8.9c2.5,1.9,5.7,2.7,8.9,2.2c3.1-0.5,6-2.1,7.9-4.7l8.9-12
		c1.9-2.5,2.7-5.7,2.2-8.9S755.5,171.2,753,169.3z M736.5,191.7l-12.2-9.1c-0.2-1.4-1.4,0.7,8.8-12.9c1.4-0.2-0.7-1.5,13.3,9.4
		c0.1,0.2,0.1,0.3,0.1,0.5C736.1,193.1,737.9,191.5,736.5,191.7L736.5,191.7z"/>
	<path id="Shape_00000062891070621257864720000014274087066182333616_" class="st0" d="M700.7,279.4c1.9-2.5,2.7-5.7,2.2-8.9
		c-0.5-3.1-2.1-6-4.7-7.9l-12-8.9c-2.5-1.9-5.7-2.7-8.9-2.2c-3.1,0.5-6,2.1-7.9,4.7l-8.9,12c-3.8,5.3-2.7,12.7,2.4,16.7l12,8.9
		c2.5,1.9,5.7,2.7,8.9,2.2c3.1-0.5,6-2.1,7.9-4.7L700.7,279.4z M681.8,285l-12.2-9.1c-0.2-1.4-1.4,0.7,8.8-12.9
		c1.4-0.2-0.7-1.5,13.3,9.4c0.1,0.2,0.1,0.3,0.1,0.5C681.5,286.5,683.2,284.8,681.8,285L681.8,285z"/>
	<circle id="Oval" class="st0" cx="746.2" cy="332.6" r="5.6"/>
	<circle id="Oval_00000181772033895052574710000015615556636024866730_" class="st0" cx="832.9" cy="302.8" r="5.6"/>
	<circle id="Oval_00000039823372140804195020000016298559560227755691_" class="st0" cx="802.4" cy="210.5" r="5.6"/>
	<circle id="Oval_00000035493664217664885590000003886217469454310310_" class="st0" cx="854" cy="174.5" r="5.6"/>
	<circle id="Oval_00000145759756037377853110000004077944830379227576_" class="st0" cx="760.7" cy="119.8" r="5.6"/>
	<circle id="Oval_00000167361238122784016780000008632017468550477219_" class="st0" cx="739.6" cy="248.1" r="5.6"/>
	<circle id="Oval_00000128464032805756282610000004706531939606593698_" class="st0" cx="656.6" cy="226.1" r="5.6"/>
	<circle id="Oval_00000108294303916696152570000008735892520301110677_" class="st0" cx="658.5" cy="316.9" r="5.6"/>
</g>
<g id="_x30_33---Cooky_00000178917228274082021250000006892169943087297966_" transform="translate(0 -1)">
	<path id="Shape_00000113311250777010594540000017464166036741996473_" class="st0" d="M2924.5,69c-2.6,1.3-4.5,3.9-4.9,6.8
		c-0.4,2.9,0.6,5.9,2.8,7.9c9.9,9.8,11.2,25.4,3,36.7c-2.5,3.4-2.4,8.1,0.3,11.3c7.1,9,8.1,21.4,2.4,31.4
		c-5.6,10-16.8,15.5-28.1,14.1c-4.8-0.7-9.3,2.5-10.3,7.2c-2.1,9.3-8.7,16.8-17.6,20.2s-18.8,2-26.5-3.6c-2.6-2-6.1-2.5-9.1-1.2
		c-3,1.3-5.2,4.1-5.6,7.3c-5.3,66.4,28.9,129.6,87.3,161.6c58.4,32,130.1,26.6,183.2-13.6s77.6-107.8,62.6-172.7
		C3140.5,80,3024.6,19.7,2924.5,69L2924.5,69z M3153,184.9c13.9,60.1-8.6,122.7-57.4,160.4c-48.9,37.6-115.2,43.3-169.7,14.6
		s-87.4-86.6-84-148.2c10.6,6.3,23.5,7.4,34.9,2.8c11.4-4.6,20.1-14.2,23.4-26.1c15.4,1.3,30.1-6.5,37.7-20
		c7.6-13.5,6.5-30.1-2.6-42.6c10-14.8,8.8-34.5-3-48c43.1-20,93-19.6,135.8,1.1C3110.9,99.7,3142.1,138.6,3153,184.9L3153,184.9z"/>
	<path id="Shape_00000125602612062684862920000007028149064585981831_" class="st0" d="M2845.5,180.4c1.3,9.2,9.9,15.6,19.2,14.3
		c9.2-1.3,15.6-9.9,14.3-19.2c-1.3-9.2-9.9-15.6-19.2-14.3C2850.5,162.6,2844.1,171.2,2845.5,180.4z M2867.8,177.2
		c0.4,3.1-1.7,5.9-4.8,6.4c-3.1,0.4-5.9-1.7-6.4-4.8c-0.4-3.1,1.7-5.9,4.8-6.4C2864.4,172,2867.3,174.1,2867.8,177.2z"/>
	<path id="Shape_00000020396722284848829590000002433696847930869920_" class="st0" d="M2906,165.9c9.2-1.3,15.6-9.9,14.3-19.2
		c-1.3-9.2-9.9-15.6-19.2-14.3c-9.2,1.3-15.6,9.9-14.3,19.2S2896.7,167.3,2906,165.9z M2897.9,150c-0.4-3.1,1.7-5.9,4.8-6.4
		c3.1-0.4,5.9,1.7,6.4,4.8c0.4,3.1-1.7,5.9-4.8,6.4C2901.3,155.2,2898.4,153.1,2897.9,150z"/>
	<path id="Shape_00000048481073627793669370000003772892500691083967_" class="st0" d="M2900.1,87.1c-9.2,1.3-15.6,9.9-14.3,19.2
		c1.3,9.2,9.9,15.6,19.2,14.3c9.2-1.3,15.6-9.9,14.3-19.2C2918,92.1,2909.4,85.7,2900.1,87.1z M2903.4,109.4
		c-3.1,0.4-5.9-1.7-6.4-4.8c-0.4-3.1,1.7-5.9,4.8-6.4c3.1-0.4,5.9,1.7,6.4,4.8C2908.6,106,2906.5,108.9,2903.4,109.4z"/>
	<path id="Shape_00000003064868056808488490000015299481449586548130_" class="st0" d="M3058.7,135.1c-3.8,5.3-2.7,12.7,2.4,16.7
		l12,8.9c2.5,1.9,5.7,2.7,8.9,2.2c3.1-0.5,6-2.1,7.9-4.7l8.9-12c1.9-2.5,2.7-5.7,2.2-8.9c-0.5-3.1-2.1-6-4.7-7.9l-12-8.9
		c-2.5-1.9-5.7-2.7-8.9-2.2c-3.1,0.5-6,2.1-7.9,4.7L3058.7,135.1z M3077.6,129.5c15,11.6,12.2,9.1,12.3,10.1l-9.1,12.2
		c-1.4,0.2,0.7,1.4-12.9-8.8l-0.1-1C3078,128,3076.2,129.7,3077.6,129.5z"/>
	<path id="Shape_00000140716918107005040730000017459923347926500031_" class="st0" d="M3098.8,214.6c-3.8,5.3-2.7,12.7,2.4,16.7
		l12,8.9c2.5,1.9,5.7,2.7,8.9,2.2c3.1-0.5,6-2.1,7.9-4.7l8.9-12c1.9-2.5,2.7-5.7,2.2-8.9c-0.5-3.1-2.1-6-4.7-7.9l-12-8.9
		c-2.5-1.9-5.7-2.7-8.9-2.2c-3.1,0.5-6,2.1-7.9,4.7L3098.8,214.6z M3117.7,209c15,11.6,12.2,9.1,12.3,10.1l-9.1,12.2
		c-1.4,0.2,0.7,1.4-12.9-8.8l-0.1-1C3118.1,207.6,3116.3,209.2,3117.7,209L3117.7,209z"/>
	<path id="Shape_00000020356716627400836710000000165916826898041264_" class="st0" d="M3035.4,253l-8.9,12
		c-3.8,5.3-2.7,12.7,2.4,16.7l12,8.9c2.5,1.9,5.7,2.7,8.9,2.2c3.1-0.5,6-2.1,7.9-4.7l8.9-12c1.9-2.5,2.7-5.7,2.2-8.9
		c-0.5-3.1-2.1-6-4.7-7.9l-12-8.9c-2.5-1.9-5.7-2.7-8.9-2.2C3040.1,248.8,3037.3,250.5,3035.4,253z M3045.4,259.4
		c15,11.6,12.2,9.1,12.3,10.1l-9.1,12.2c-1.4,0.2,0.7,1.4-12.9-8.8l-0.1-1C3045.7,258,3044,259.6,3045.4,259.4L3045.4,259.4z"/>
	<path id="Shape_00000171701226293630911630000000194376575280232881_" class="st0" d="M3010.4,164.9l-12-8.9
		c-2.5-1.9-5.7-2.7-8.9-2.2c-3.1,0.5-6,2.1-7.9,4.7l-8.9,12c-3.8,5.3-2.7,12.7,2.4,16.7l12,8.9c2.5,1.9,5.7,2.7,8.9,2.2
		c3.1-0.5,6-2.1,7.9-4.7l8.9-12c1.9-2.5,2.7-5.7,2.2-8.9C3014.7,169.6,3013,166.8,3010.4,164.9z M2993.9,187.2l-12.2-9.1
		c-0.2-1.4-1.4,0.7,8.8-12.9c1.4-0.2-0.7-1.5,13.3,9.4c0.1,0.2,0.1,0.3,0.1,0.5C2993.6,188.6,2995.3,187,2993.9,187.2L2993.9,187.2z
		"/>
	<path id="Shape_00000102531768663926256010000015943114766175008426_" class="st0" d="M2958.2,275c1.9-2.5,2.7-5.7,2.2-8.9
		c-0.5-3.1-2.1-6-4.7-7.9l-12-8.9c-2.5-1.9-5.7-2.7-8.9-2.2c-3.1,0.5-6,2.1-7.9,4.7l-8.9,12c-3.8,5.3-2.7,12.7,2.4,16.7l12,8.9
		c2.5,1.9,5.7,2.7,8.9,2.2s6-2.1,7.9-4.7L2958.2,275z M2939.3,280.6l-12.2-9.1c-0.2-1.4-1.4,0.7,8.8-12.9c1.4-0.2-0.7-1.5,13.3,9.4
		c0.1,0.2,0.1,0.3,0.1,0.5C2938.9,282,2940.7,280.4,2939.3,280.6L2939.3,280.6z"/>
	<circle id="Oval_00000142170850510496606690000005374092272248883897_" class="st0" cx="3003.6" cy="328.1" r="5.6"/>
	<circle id="Oval_00000160179595008938485540000001008167575653114517_" class="st0" cx="3090.4" cy="298.4" r="5.6"/>
	<circle id="Oval_00000160882956857388454070000012659468017276706982_" class="st0" cx="3059.8" cy="206.1" r="5.6"/>
	<circle id="Oval_00000047752734513395507300000008235451102565993106_" class="st0" cx="3111.5" cy="170.1" r="5.6"/>
	<circle id="Oval_00000116938533189920450630000014896741353856968868_" class="st0" cx="3018.1" cy="115.4" r="5.6"/>
	<circle id="Oval_00000087408960266465878900000007769430103230208411_" class="st0" cx="2997" cy="243.7" r="5.6"/>
	<circle id="Oval_00000161594543663964570000000012070819803547607201_" class="st0" cx="2914.1" cy="221.6" r="5.6"/>
	<circle id="Oval_00000125595062747290598840000009466934814303898772_" class="st0" cx="2916" cy="312.4" r="5.6"/>
</g>
<g id="_x30_33---Cooky_00000045614767052867884520000010306335189786359460_" transform="translate(0 -1)">
	<path id="Shape_00000149384326935927355630000010719971469170105268_" class="st0" d="M2370.4,684.6c-2.6,1.3-4.5,3.9-4.9,6.8
		s0.6,5.9,2.8,7.9c9.9,9.8,11.2,25.4,3,36.7c-2.5,3.4-2.4,8.1,0.3,11.3c7.1,9,8.1,21.4,2.4,31.4c-5.6,10-16.8,15.5-28.1,14.1
		c-4.8-0.7-9.3,2.5-10.3,7.2c-2.1,9.3-8.7,16.8-17.6,20.2c-8.9,3.3-18.8,2-26.5-3.6c-2.6-2-6.1-2.5-9.1-1.2c-3,1.3-5.2,4.1-5.6,7.3
		c-5.3,66.4,28.9,129.6,87.3,161.6c58.4,32,130.1,26.6,183.2-13.6c53.1-40.2,77.6-107.8,62.6-172.7
		C2586.3,695.6,2470.4,635.2,2370.4,684.6L2370.4,684.6z M2598.8,800.5c13.9,60.1-8.6,122.7-57.4,160.4
		c-48.9,37.6-115.2,43.3-169.7,14.6c-54.6-28.7-87.4-86.6-84-148.2c10.6,6.3,23.5,7.4,34.9,2.8c11.4-4.6,20.1-14.2,23.4-26.1
		c15.4,1.3,30.1-6.5,37.7-20c7.6-13.5,6.5-30.1-2.6-42.6c10-14.8,8.8-34.5-3-48c43.1-20,93-19.6,135.8,1.1
		C2556.7,715.3,2587.9,754.2,2598.8,800.5L2598.8,800.5z"/>
	<path id="Shape_00000169556131592880720750000013915171145213548430_" class="st0" d="M2291.3,796c1.3,9.2,9.9,15.6,19.2,14.3
		s15.6-9.9,14.3-19.2c-1.3-9.2-9.9-15.6-19.2-14.3C2296.3,778.2,2289.9,786.8,2291.3,796z M2313.6,792.7c0.4,3.1-1.7,5.9-4.8,6.4
		c-3.1,0.4-5.9-1.7-6.4-4.8c-0.4-3.1,1.7-5.9,4.8-6.4C2310.3,787.5,2313.1,789.7,2313.6,792.7z"/>
	<path id="Shape_00000153679088744562574980000000532940829829435821_" class="st0" d="M2351.8,781.5c9.2-1.3,15.6-9.9,14.3-19.2
		c-1.3-9.2-9.9-15.6-19.2-14.3s-15.6,9.9-14.3,19.2C2334,776.4,2342.6,782.8,2351.8,781.5z M2343.8,765.6c-0.4-3.1,1.7-5.9,4.8-6.4
		c3.1-0.4,5.9,1.7,6.4,4.8c0.4,3.1-1.7,5.9-4.8,6.4C2347.1,770.8,2344.2,768.7,2343.8,765.6z"/>
	<path id="Shape_00000116193892623449193180000015558734045057311916_" class="st0" d="M2346,702.6c-9.2,1.3-15.6,9.9-14.3,19.2
		c1.3,9.2,9.9,15.6,19.2,14.3c9.2-1.3,15.6-9.9,14.3-19.2C2363.8,707.7,2355.2,701.3,2346,702.6z M2349.2,724.9
		c-3.1,0.4-5.9-1.7-6.4-4.8c-0.4-3.1,1.7-5.9,4.8-6.4c3.1-0.4,5.9,1.7,6.4,4.8C2354.4,721.6,2352.3,724.5,2349.2,724.9z"/>
	<path id="Shape_00000022519112593993798140000009198626573937220746_" class="st0" d="M2504.5,750.6c-3.8,5.3-2.7,12.7,2.4,16.7
		l12,8.9c2.5,1.9,5.7,2.7,8.9,2.2c3.1-0.5,6-2.1,7.9-4.7l8.9-12c1.9-2.5,2.7-5.7,2.2-8.9c-0.5-3.1-2.1-6-4.7-7.9l-12-8.9
		c-2.5-1.9-5.7-2.7-8.9-2.2c-3.1,0.5-6,2.1-7.9,4.7L2504.5,750.6z M2523.4,745c15,11.6,12.2,9.1,12.3,10.1l-9.1,12.2
		c-1.4,0.2,0.7,1.4-12.9-8.8l-0.1-1C2523.8,743.6,2522.1,745.2,2523.4,745z"/>
	<path id="Shape_00000170973052179398981570000002399032376622989451_" class="st0" d="M2544.6,830.2c-3.8,5.3-2.7,12.7,2.4,16.7
		l12,8.9c2.5,1.9,5.7,2.7,8.9,2.2s6-2.1,7.9-4.7l8.9-12c1.9-2.5,2.7-5.7,2.2-8.9c-0.5-3.1-2.1-6-4.7-7.9l-12-8.9
		c-2.5-1.9-5.7-2.7-8.9-2.2s-6,2.1-7.9,4.7L2544.6,830.2z M2563.5,824.6c15,11.6,12.2,9.1,12.3,10.1l-9.1,12.2
		c-1.4,0.2,0.7,1.4-12.9-8.8l-0.1-1C2563.9,823.2,2562.1,824.8,2563.5,824.6L2563.5,824.6z"/>
	<path id="Shape_00000101061645864249385310000018240137726000081306_" class="st0" d="M2481.2,868.6l-8.9,12
		c-3.8,5.3-2.7,12.7,2.4,16.7l12,8.9c2.5,1.9,5.7,2.7,8.9,2.2c3.1-0.5,6-2.1,7.9-4.7l8.9-12c1.9-2.5,2.7-5.7,2.2-8.9s-2.1-6-4.7-7.9
		l-12-8.9c-2.5-1.9-5.7-2.7-8.9-2.2C2485.9,864.4,2483.1,866,2481.2,868.6z M2491.2,875c15,11.6,12.2,9.1,12.3,10.1l-9.1,12.2
		c-1.4,0.2,0.7,1.4-12.9-8.8l-0.1-1C2491.5,873.6,2489.8,875.2,2491.2,875L2491.2,875z"/>
	<path id="Shape_00000041259989279128335300000007842716182985430930_" class="st0" d="M2456.3,780.5l-12-8.9
		c-2.5-1.9-5.7-2.7-8.9-2.2c-3.1,0.5-6,2.1-7.9,4.7l-8.9,12c-3.8,5.3-2.7,12.7,2.4,16.7l12,8.9c2.5,1.9,5.7,2.7,8.9,2.2
		s6-2.1,7.9-4.7l8.9-12c1.9-2.5,2.7-5.7,2.2-8.9C2460.5,785.2,2458.8,782.4,2456.3,780.5z M2439.8,802.8l-12.2-9.1
		c-0.2-1.4-1.4,0.7,8.8-12.9c1.4-0.2-0.7-1.5,13.3,9.4c0.1,0.2,0.1,0.3,0.1,0.5C2439.4,804.2,2441.2,802.6,2439.8,802.8
		L2439.8,802.8z"/>
	<path id="Shape_00000134955658378164057760000015487713821133047979_" class="st0" d="M2404,890.6c1.9-2.5,2.7-5.7,2.2-8.9
		c-0.5-3.1-2.1-6-4.7-7.9l-12-8.9c-2.5-1.9-5.7-2.7-8.9-2.2c-3.1,0.5-6,2.1-7.9,4.7l-8.9,12c-3.8,5.3-2.7,12.7,2.4,16.7l12,8.9
		c2.5,1.9,5.7,2.7,8.9,2.2s6-2.1,7.9-4.7L2404,890.6z M2385.1,896.2l-12.2-9.1c-0.2-1.4-1.4,0.7,8.8-12.9c1.4-0.2-0.7-1.5,13.3,9.4
		c0.1,0.2,0.1,0.3,0.1,0.5C2384.7,897.6,2386.5,896,2385.1,896.2L2385.1,896.2z"/>
	<circle id="Oval_00000002372286928829497090000002334252850703037108_" class="st0" cx="2449.5" cy="943.7" r="5.6"/>
	<circle id="Oval_00000156579610298472053240000003840585493314916005_" class="st0" cx="2536.2" cy="913.9" r="5.6"/>
	<circle id="Oval_00000152228024785309346200000007848563140860872836_" class="st0" cx="2505.7" cy="821.6" r="5.6"/>
	<circle id="Oval_00000049202805943235072030000005261083630344417462_" class="st0" cx="2557.3" cy="785.6" r="5.6"/>
	<circle id="Oval_00000054243587216638085030000005871157371392773304_" class="st0" cx="2464" cy="731" r="5.6"/>
	<circle id="Oval_00000112632286769291886420000008141176121947449224_" class="st0" cx="2442.8" cy="859.3" r="5.6"/>
	<circle id="Oval_00000053545074141165219600000010426055369168928641_" class="st0" cx="2359.9" cy="837.2" r="5.6"/>
	<circle id="Oval_00000178914751168203711070000007424541948394131333_" class="st0" cx="2361.8" cy="928" r="5.6"/>
</g>
</svg>
