<?xml version="1.0" encoding="utf-8"?>
<!-- Generator: Adobe Illustrator 26.0.3, SVG Export Plug-In . SVG Version: 6.00 Build 0)  -->
<svg version="1.1" id="Capa_1" xmlns="http://www.w3.org/2000/svg" xmlns:xlink="http://www.w3.org/1999/xlink" x="0px" y="0px"
	 viewBox="0 0 3471 1595.8" style="enable-background:new 0 0 3471 1595.8;" xml:space="preserve">
<style type="text/css">
	.st0{fill:#dce3ef;}
</style>
<g>
	<g>
		<path class="st0" d="M392.3,716.5c-5.4,5.4-12.5,7.1-15.9,3.8l-6.2-6.2l19.4-19.8l6.5,6.5C399.4,704,397.7,711.1,392.3,716.5z"/>
		<path class="st0" d="M384.1,688l-40.3-40.3c8.1-12.1,12.8-26.7,12.8-42.3c0-42.2-34.3-76.5-76.5-76.5c-42.2,0-77.1,34.3-76.5,76.5
			c0.7,43,34.8,77.1,76.5,76.5c16.6-0.2,31.8-5.3,44.4-14.3l40.2,40.2L384.1,688z M333.9,606.4c0,29.7-24.1,53.8-53.8,53.8
			c-29.7,0-53.8-24.1-53.8-53.8c0-29.7,24.1-53.8,53.8-53.8C309.8,552.7,333.9,576.7,333.9,606.4z"/>
	</g>
	<g>
		<path class="st0" d="M280.5,656.1c-27.4,0-49.8-22.3-49.8-49.8c0-27.4,22.3-49.8,49.8-49.8c27.4,0,49.8,22.3,49.8,49.8
			C330.3,633.8,307.9,656.1,280.5,656.1z M280.5,559.3c-25.9,0-47,21.1-47,47c0,25.9,21.1,47,47,47c25.9,0,47-21.1,47-47
			C327.5,580.4,306.4,559.3,280.5,559.3z"/>
	</g>
</g>
<g>
	<g>
		<path class="st0" d="M3352,1556c-5.4,5.4-12.5,7.1-15.9,3.8l-6.2-6.2l19.4-19.8l6.5,6.5C3359.1,1543.5,3357.4,1550.6,3352,1556z"
			/>
		<path class="st0" d="M3343.8,1527.5l-40.3-40.3c8.1-12.1,12.8-26.7,12.8-42.3c0-42.2-34.3-76.5-76.5-76.5
			c-42.2,0-77.1,34.3-76.5,76.5c0.7,43,34.8,77.1,76.5,76.5c16.6-0.2,31.8-5.3,44.4-14.3l40.2,40.2L3343.8,1527.5z M3293.6,1445.9
			c0,29.7-24.1,53.8-53.8,53.8c-29.7,0-53.8-24.1-53.8-53.8c0-29.7,24.1-53.8,53.8-53.8C3269.5,1392.1,3293.6,1416.2,3293.6,1445.9z
			"/>
	</g>
	<g>
		<path class="st0" d="M3240.2,1495.6c-27.4,0-49.8-22.3-49.8-49.8c0-27.4,22.3-49.8,49.8-49.8c27.4,0,49.8,22.3,49.8,49.8
			C3289.9,1473.3,3267.6,1495.6,3240.2,1495.6z M3240.2,1398.8c-25.9,0-47,21.1-47,47c0,25.9,21.1,47,47,47c25.9,0,47-21.1,47-47
			C3287.2,1419.9,3266.1,1398.8,3240.2,1398.8z"/>
	</g>
</g>
<g>
	<path class="st0" d="M1184,276.8c-1.1-0.7-2.2-1.3-3.3-1.9c-1.6-0.8-3.7-2-4.4-2.8c-8.1-8.1-16.3-16-24.3-23.7
		c-19.1-18.4-37.2-35.7-53.8-55.6c-10.5-12.6-13.3-30.4-7.1-45.5c4-7.9,8.6-15.9,15.5-20.8c8.8-5.9,19-9.2,30.1-9.8
		c11.7,0.6,20.8,4.2,27.2,10.6c0.1,0.1,0.2,0.2,0.3,0.3c24.1,22,49.6,47.1,77.8,76.6c0.8,1.1,1.6,2.2,2.4,3.2
		c1.4,1.9,2.7,3.5,3.4,5.2c0.6,1.8,1.3,3.7,2.5,6.3c7.6,19.3-0.4,43-18.5,55.1c-3.9,2.6-4.9,7.8-2.3,11.6c2.6,3.9,7.8,4.9,11.6,2.3
		c24.7-16.5,35.2-49,24.6-75.5c-0.1-0.2-0.2-0.4-0.3-0.6c-0.9-1.8-1.4-3.1-1.9-4.8c-0.1-0.2-0.2-0.4-0.2-0.7c-1.6-3.7-3.7-6.5-5.6-9
		c-0.8-1-1.5-2-2.2-3c-0.3-0.4-0.6-0.8-0.9-1.1c-28.6-29.9-54.4-55.4-78.9-77.7c-9.5-9.4-22.4-14.5-38.5-15.3c-0.3,0-0.5,0-0.8,0
		c-14.4,0.7-27.6,4.9-39.1,12.6c-0.1,0-0.2,0.1-0.2,0.1c-10,7.1-16,17.3-20.9,27.3c-0.1,0.2-0.2,0.3-0.2,0.5
		c-8.8,20.9-5,45.6,9.6,63c17.2,20.6,36.5,39.1,55.1,56.9c7.9,7.6,16.1,15.5,24.1,23.4c2.5,2.5,5.5,4.2,8.3,5.6
		c0.9,0.5,1.8,1,2.4,1.4c1.4,0.9,2.9,1.3,4.4,1.3c2.8,0,5.5-1.4,7.1-3.9C1189.1,284.4,1188,279.3,1184,276.8z"/>
	<path class="st0" d="M1373.7,308c0-0.2-0.1-0.5-0.1-0.8c0.2-0.8,0.3-1.7,0.2-2.5c-0.8-12.9-4.2-23.4-10.4-32.2
		c-0.1-0.1-0.2-0.3-0.3-0.4c-16.9-20.9-36.6-39.3-55.7-57.1c-9.4-8.8-19.2-17.9-28.5-27.2c-3.3-3.3-8.6-3.3-11.8,0
		c-3.3,3.3-3.3,8.6,0,11.8c9.5,9.5,19.3,18.7,28.9,27.6c18.6,17.3,37.8,35.2,53.9,55.2c4.2,5.9,6.4,12.9,7.1,22.1
		c-0.3,2-0.2,3.7,0,5.1c0,0.4,0.1,0.8,0.1,1.2c-1.8,18.4-10.5,32.8-24,39.7c-3.1,0.8-5.7,2.2-7.9,3.3c-0.3,0.1-0.5,0.3-0.8,0.4
		c-11.3,3.6-23.5,2.5-34.3-3.2c-0.2-0.1-0.3-0.2-0.5-0.2c-9.7-4.3-17.4-11.8-25.6-19.7c-2.8-2.8-5.8-5.6-8.8-8.4
		c-19.6-18.4-38.4-39.7-54.9-58.5c-5.3-6.2-8.6-15.6-9.2-26.1c0-6.5,1.3-12.8,4-20c3.5-6.5,9.7-15.2,19.1-20.2
		c4.1-2.2,5.6-7.2,3.5-11.3c-2.2-4.1-7.2-5.6-11.3-3.5c-10.6,5.7-19.7,15.2-26.3,27.6c-0.2,0.3-0.3,0.6-0.4,0.9
		c-3.6,9.2-5.3,18-5.3,26.7c0,0.2,0,0.3,0,0.4c0.8,14.4,5.5,27.3,13.2,36.3c0,0,0.1,0.1,0.1,0.1c16.8,19.1,35.9,40.7,56.1,59.7
		c0,0,0.1,0.1,0.1,0.1c2.8,2.5,5.7,5.3,8.4,8c8.8,8.6,17.9,17.4,30.2,22.9c9.1,4.7,18.8,7.1,28.5,7.1c6.4,0,12.9-1,19.1-3.1
		c0.4-0.1,0.7-0.3,1.1-0.5c0.5-0.2,1-0.5,1.6-0.8c1.5-0.8,3.4-1.8,4.6-2c0.7-0.1,1.4-0.4,2-0.7c19.2-9.3,32-29.5,34.3-54.1
		c0-0.2,0-0.5,0-0.7C1373.9,309.9,1373.8,308.9,1373.7,308z"/>
</g>
<g>
	<path class="st0" d="M3205.1,26.1c0.8-1,1.6-2,2.3-3c1-1.4,2.5-3.4,3.3-4.1c9-7,17.9-14.2,26.6-21.1c20.6-16.6,40.1-32.3,62-46.3
		c13.8-8.9,31.8-9.3,46.1-1.2c7.4,4.9,14.7,10.6,18.7,18c4.7,9.5,6.7,20,5.8,31.1c-2.1,11.5-6.8,20.1-13.9,25.6
		c-0.1,0.1-0.2,0.2-0.3,0.2c-24.9,21.1-53,43.2-85.8,67.4c-1.2,0.7-2.4,1.3-3.5,1.9c-2,1.2-3.8,2.2-5.6,2.8
		c-1.8,0.4-3.9,0.8-6.6,1.7c-20.1,5-42.6-5.8-52.3-25.3c-2.1-4.1-7.1-5.8-11.2-3.8c-4.1,2.1-5.8,7.1-3.8,11.2
		c13.2,26.5,44.1,41.2,71.8,34c0.2-0.1,0.4-0.1,0.7-0.2c1.9-0.7,3.3-0.9,5-1.3c0.2,0,0.5-0.1,0.7-0.2c3.9-1.1,6.9-2.9,9.7-4.5
		c1.1-0.7,2.2-1.3,3.2-1.8c0.4-0.2,0.9-0.5,1.2-0.8c33.3-24.6,61.8-46.9,87.1-68.4c10.5-8.2,17.3-20.4,20.1-36.2
		c0.1-0.3,0.1-0.5,0.1-0.8c1.2-14.4-1.4-28-7.6-40.4c0-0.1-0.1-0.2-0.1-0.2c-5.8-10.8-15.2-18-24.4-24.2c-0.2-0.1-0.3-0.2-0.5-0.3
		c-19.6-11.4-44.6-10.8-63.7,1.5c-22.6,14.5-43.4,31.2-63.5,47.4c-8.6,6.9-17.4,14-26.3,20.9c-2.8,2.1-4.8,5-6.6,7.5
		c-0.6,0.9-1.2,1.7-1.7,2.2c-1,1.3-1.6,2.7-1.8,4.2c-0.4,2.8,0.7,5.6,3,7.5C3196.9,30.2,3202.1,29.7,3205.1,26.1z"/>
	<path class="st0" d="M3150,210.3c0.2,0,0.5,0,0.8,0c0.8,0.3,1.6,0.5,2.5,0.6c12.9,0.9,23.8-1.2,33.2-6.2c0.1-0.1,0.3-0.2,0.4-0.2
		c22.9-14.1,43.6-31.3,63.7-48c9.9-8.3,20.2-16.8,30.6-24.8c3.7-2.8,4.3-8.1,1.5-11.7c-2.8-3.7-8.1-4.3-11.7-1.5
		c-10.6,8.2-21,16.8-31,25.2c-19.5,16.2-39.7,33-61.6,46.5c-6.4,3.4-13.6,4.7-22.8,4.3c-1.9-0.6-3.7-0.6-5-0.7c-0.4,0-0.8,0-1.2-0.1
		c-18-4.1-31.2-14.6-36.3-28.9c-0.4-3.1-1.4-5.9-2.3-8.2c-0.1-0.3-0.2-0.5-0.3-0.8c-2.1-11.7,0.5-23.6,7.5-33.6
		c0.1-0.1,0.2-0.3,0.3-0.5c5.5-9.1,13.9-15.8,22.8-22.9c3.1-2.5,6.3-5,9.4-7.7c20.8-17.1,44.2-33,65-47.1c6.8-4.4,16.6-6.5,27-5.8
		c6.4,0.8,12.5,2.9,19.3,6.5c6,4.3,13.9,11.5,17.6,21.5c1.6,4.3,6.5,6.5,10.8,4.9c4.3-1.6,6.5-6.5,4.9-10.8
		c-4.3-11.3-12.6-21.5-24.1-29.6c-0.3-0.2-0.5-0.4-0.9-0.5c-8.7-4.7-17.1-7.5-25.8-8.6c-0.1,0-0.3,0-0.4,0
		c-14.3-1.1-27.7,2-37.7,8.5c0,0-0.1,0-0.1,0.1c-21.1,14.3-44.9,30.5-66.3,48.1c0,0-0.1,0.1-0.1,0.1c-2.9,2.5-6,4.9-9,7.3
		c-9.6,7.6-19.6,15.5-26.6,27.1c-5.8,8.4-9.4,17.7-10.6,27.4c-0.8,6.4-0.6,12.9,0.7,19.4c0.1,0.4,0.2,0.8,0.3,1.1
		c0.2,0.5,0.4,1.1,0.6,1.7c0.6,1.6,1.3,3.6,1.4,4.8c0,0.7,0.2,1.4,0.4,2.1c6.8,20.2,25.2,35.5,49.3,40.9c0.2,0.1,0.5,0.1,0.7,0.1
		C3148.1,210.2,3149.2,210.3,3150,210.3z"/>
</g>
<g>
	<path class="st0" d="M577.2,1540c-1.1-0.7-2.2-1.3-3.3-1.9c-1.6-0.8-3.7-2-4.4-2.8c-8.1-8.1-16.3-16-24.3-23.7
		c-19.1-18.4-37.2-35.7-53.8-55.6c-10.5-12.6-13.3-30.4-7.1-45.5c4-7.9,8.6-15.9,15.5-20.8c8.8-5.9,19-9.2,30.1-9.8
		c11.7,0.6,20.8,4.2,27.2,10.6c0.1,0.1,0.2,0.2,0.3,0.3c24.1,22,49.6,47.1,77.8,76.6c0.8,1.1,1.6,2.2,2.4,3.2
		c1.4,1.9,2.7,3.5,3.4,5.2c0.6,1.8,1.3,3.7,2.5,6.3c7.6,19.3-0.4,43-18.5,55.1c-3.9,2.6-4.9,7.8-2.3,11.6c2.6,3.9,7.8,4.9,11.6,2.3
		c24.7-16.5,35.2-49,24.6-75.5c-0.1-0.2-0.2-0.4-0.3-0.6c-0.9-1.8-1.4-3.1-1.9-4.8c-0.1-0.2-0.2-0.4-0.2-0.7c-1.6-3.7-3.7-6.5-5.6-9
		c-0.8-1-1.5-2-2.2-3c-0.3-0.4-0.6-0.8-0.9-1.1c-28.6-29.9-54.4-55.4-78.9-77.7c-9.5-9.4-22.4-14.5-38.5-15.3c-0.3,0-0.5,0-0.8,0
		c-14.4,0.7-27.6,4.9-39.1,12.6c-0.1,0-0.2,0.1-0.2,0.1c-10,7.1-16,17.3-20.9,27.3c-0.1,0.2-0.2,0.3-0.2,0.5
		c-8.8,20.9-5,45.6,9.6,63c17.2,20.6,36.5,39.1,55.1,56.9c7.9,7.6,16.1,15.5,24.1,23.4c2.5,2.5,5.5,4.2,8.3,5.6
		c0.9,0.5,1.8,1,2.4,1.4c1.4,0.9,2.9,1.3,4.4,1.3c2.8,0,5.5-1.4,7.1-3.9C582.3,1547.6,581.1,1542.5,577.2,1540z"/>
	<path class="st0" d="M766.8,1571.2c0-0.2-0.1-0.5-0.1-0.8c0.2-0.8,0.3-1.7,0.2-2.5c-0.8-12.9-4.2-23.4-10.4-32.2
		c-0.1-0.1-0.2-0.3-0.3-0.4c-16.9-20.9-36.6-39.3-55.7-57.1c-9.4-8.8-19.2-17.9-28.5-27.2c-3.3-3.3-8.6-3.3-11.8,0
		c-3.3,3.3-3.3,8.6,0,11.8c9.5,9.5,19.3,18.7,28.9,27.6c18.6,17.3,37.8,35.2,53.9,55.2c4.2,5.9,6.4,12.9,7.1,22.1
		c-0.3,2-0.2,3.7,0,5.1c0,0.4,0.1,0.8,0.1,1.2c-1.8,18.4-10.5,32.8-24,39.7c-3.1,0.8-5.7,2.2-7.9,3.3c-0.3,0.1-0.5,0.3-0.8,0.4
		c-11.3,3.6-23.5,2.5-34.3-3.2c-0.2-0.1-0.3-0.2-0.5-0.2c-9.7-4.3-17.4-11.8-25.6-19.7c-2.8-2.8-5.8-5.6-8.8-8.4
		c-19.6-18.4-38.4-39.7-54.9-58.5c-5.3-6.2-8.6-15.6-9.2-26.1c0-6.5,1.3-12.8,4-20c3.5-6.5,9.7-15.2,19.1-20.2
		c4.1-2.2,5.6-7.2,3.5-11.3c-2.2-4.1-7.2-5.6-11.3-3.5c-10.6,5.7-19.7,15.2-26.3,27.6c-0.2,0.3-0.3,0.6-0.4,0.9
		c-3.6,9.2-5.3,18-5.3,26.7c0,0.2,0,0.3,0,0.4c0.8,14.4,5.5,27.3,13.2,36.3c0,0,0.1,0.1,0.1,0.1c16.8,19.1,35.9,40.7,56.1,59.7
		c0,0,0.1,0.1,0.1,0.1c2.8,2.5,5.7,5.3,8.4,8c8.8,8.6,17.9,17.4,30.2,22.9c9.1,4.7,18.8,7.1,28.5,7.1c6.4,0,12.9-1,19.1-3.1
		c0.4-0.1,0.7-0.3,1.1-0.5c0.5-0.2,1-0.5,1.6-0.8c1.5-0.8,3.4-1.8,4.6-2c0.7-0.1,1.4-0.4,2-0.7c19.2-9.3,32-29.5,34.3-54.1
		c0-0.2,0-0.5,0-0.7C767,1573.1,766.9,1572.1,766.8,1571.2z"/>
</g>
<path class="st0" d="M576.7,111.5l27.8,27.9c7.7,7.7,20.2,20.2,27.9,27.9l27.9,27.9c7.6,7.6,20.2,7.7,27.8,0c0,0,0,0,0.1,0
	l27.8-27.9c7.7-7.7,20.2-20.2,27.9-27.9l27.9-27.9c2.6-2.6,5.7-5.7,9-9c5.6-5.6,11.7-11.7,16.5-16.5c0.8-0.8,1.6-1.6,2.3-2.3
	l27.9-27.9c7.7-7.7,7.7-20.2,0-27.9L799.7,0c-7.7-7.7-20.2-7.7-27.9,0l-27.9,27.9c-0.6,0.6-1.2,1.2-1.9,1.9
	c-5,5-11.4,11.4-17.2,17.2c-1.3,1.3-2.5,2.5-3.7,3.7c-1.8,1.8-3.6,3.6-5.1,5.1l-27.8,27.9c0,0,0,0,0,0c-7.7,7.6-20.2,7.6-27.9,0
	l-27.9-27.9c-7.7-7.7-20.2-7.7-27.9,0l-9.9,9.9l-18,18C569,91.2,569,103.8,576.7,111.5z"/>
<path class="st0" d="M1839.8,1471.8l27.8,27.9c7.7,7.7,20.2,20.2,27.9,27.9l27.9,27.9c7.6,7.6,20.2,7.7,27.8,0c0,0,0,0,0.1,0
	l27.8-27.9c7.7-7.7,20.2-20.2,27.9-27.9l27.9-27.9c2.6-2.6,5.7-5.7,9-9c5.6-5.6,11.7-11.7,16.5-16.5c0.8-0.8,1.6-1.6,2.3-2.3
	l27.9-27.9c7.7-7.7,7.7-20.2,0-27.9l-27.9-27.9c-7.7-7.7-20.2-7.7-27.9,0l-27.9,27.9c-0.6,0.6-1.2,1.2-1.9,1.9
	c-5,5-11.4,11.4-17.2,17.2c-1.3,1.3-2.5,2.5-3.7,3.7c-1.8,1.8-3.6,3.6-5.1,5.1l-27.8,27.9c0,0,0,0,0,0c-7.7,7.6-20.2,7.6-27.9,0
	l-27.9-27.9c-7.7-7.7-20.2-7.7-27.9,0l-9.9,9.9l-18,18C1832.2,1451.6,1832.2,1464.1,1839.8,1471.8z"/>
<path class="st0" d="M3379.3,860.9l27.8,27.9c7.7,7.7,20.2,20.2,27.9,27.9l27.9,27.9c7.6,7.6,20.2,7.7,27.8,0c0,0,0,0,0.1,0
	l27.8-27.9c7.7-7.7,20.2-20.2,27.9-27.9l27.9-27.9c2.6-2.6,5.7-5.7,9-9c5.6-5.6,11.7-11.7,16.5-16.5c0.8-0.8,1.6-1.6,2.3-2.3
	l27.9-27.9c7.7-7.7,7.7-20.2,0-27.9l-27.9-27.9c-7.7-7.7-20.2-7.7-27.9,0l-27.9,27.9c-0.6,0.6-1.2,1.2-1.9,1.9
	c-5,5-11.4,11.4-17.2,17.2c-1.3,1.3-2.5,2.5-3.7,3.7c-1.8,1.8-3.6,3.6-5.1,5.1l-27.8,27.9c0,0,0,0,0,0c-7.7,7.6-20.2,7.6-27.9,0
	l-27.9-27.9c-7.7-7.7-20.2-7.7-27.9,0l-9.9,9.9l-18,18C3371.7,840.6,3371.7,853.2,3379.3,860.9z"/>
<g>
	<path class="st0" d="M378.8,123.4c-5.5-3.4-136.9-83.3-253.6-42.5C9,121.4-50.1,248.5-52.6,253.9l-5.3,11.6l-0.6,1.2l13,5.1
		c5,2,124.1,47.6,239.6,7.3c101.2-35.3,168-111.3,184.4-131.5c2.2-2.7,3.5-4.4,3.9-4.9l8.7-11.6L378.8,123.4z M91.2,269.2
		c-48.3,0-90-10.1-111.7-16.6c-0.6-0.2-1.3-0.4-1.9-0.6c11.3-20.5,36.4-61.2,74.7-96c-0.7,13.4,1,27.2,5.7,40.6
		c13.1,37.6,45.1,63.1,81.2,69.1C122.8,268.2,106.7,269.2,91.2,269.2z M93.2,184.3c-12-34.3,5.5-71.6,38.9-83.3
		c33.5-11.7,70.3,6.7,82.3,41c12,34.3-5.5,71.6-38.9,83.3C142.1,237,105.2,218.6,93.2,184.3z M337.6,154.1
		c-21.7,22.2-57.1,53.6-102.8,78.3c-2.6,1.4-5.2,2.8-7.8,4.2c5.4-5.6,10.1-11.9,14.1-18.5c15.2-25.5,19.4-57.6,8.7-88.3
		c-1-2.9-2.1-5.7-3.3-8.4c-3.8-8.4-8.5-16.1-14.1-23c52,7.4,98,28.6,119.9,40C348.4,142.7,343.5,148.1,337.6,154.1z"/>
	<path class="st0" d="M142.3,130c-17.9,6.2-27.2,26.1-20.8,44.5c6.4,18.3,26.1,28.1,43.9,21.9c17.9-6.2,27.2-26.2,20.8-44.5
		C179.8,133.6,160.1,123.8,142.3,130z"/>
</g>
<g>
	<path class="st0" d="M2153.7,854.3c-0.6-4.3-14.7-105.1-84.6-148c-69.5-42.6-159.5-19.6-163.3-18.7l-8.1,2.2l-0.9,0.2l2.9,8.8
		c1.1,3.4,27.6,83.6,96.8,126c60.6,37.1,127.6,39.5,144.8,39.5c2.3,0,3.7-0.1,4.1-0.1l9.6-0.4L2153.7,854.3z M1958.3,767.9
		c-20.2-24.8-32.6-50.4-38.3-64.2c-0.2-0.4-0.4-0.8-0.5-1.2c15.2-2.8,46.7-7,80.6-2c-7.2,5.2-13.5,11.9-18.5,20
		c-13.8,22.5-13.4,49.6-1.4,70.6C1972.1,783.7,1964.8,775.8,1958.3,767.9z M2002.7,733.3c12.6-20.5,39-27.2,59-14.9
		c20,12.3,26.1,38.9,13.5,59.4c-12.6,20.5-39,27.2-59.1,14.9C1996.2,780.5,1990.1,753.9,2002.7,733.3z M2120.7,846
		c-20.5-1.8-51.4-6.8-83.3-19.9c-1.8-0.7-3.6-1.5-5.4-2.3c5.2,0.4,10.3,0.2,15.4-0.5c19.5-2.9,37.7-14.2,49-32.5
		c1.1-1.7,2-3.5,2.9-5.2c2.7-5.5,4.7-11.1,5.9-16.9c18,29.8,26.5,62.3,29.8,78.3C2131.1,846.8,2126.2,846.5,2120.7,846z"/>
	<path class="st0" d="M2051.1,735.7c-10.7-6.6-24.8-3-31.5,8c-6.7,11-3.5,25.2,7.2,31.7c10.7,6.6,24.8,3,31.5-8
		C2065,756.5,2061.8,742.3,2051.1,735.7z"/>
</g>
<g>
	<path class="st0" d="M990.8,512.8c-76.8,0-110.9-56.3-122-80.5c-1.5-3.3-4.8-5.4-8.4-5.4c-3.6,0-6.9,2.1-8.4,5.4
		c-11.1,24.2-45.2,80.5-122,80.5c-5.1,0-9.2,4.1-9.2,9.2v87.4c0,36,0,111,73.5,158.4c41.4,26.7,56.8,40.1,56.8,49.5
		c0,5.1,4.1,9.2,9.2,9.2c5.1,0,9.2-4.1,9.2-9.2c0-9.4,15.4-22.8,56.8-49.5c73.5-47.4,73.5-122.4,73.5-158.4V522
		C1000,516.9,995.9,512.8,990.8,512.8z M981.6,609.4c0,35.3,0,101-65.1,142.9c-29.6,19.1-46.8,31.8-56,42.6
		c-9.2-10.8-26.4-23.5-56-42.6c-65.1-41.9-65.1-107.6-65.1-142.9V531c31.4-1.7,59.3-12.2,83.2-31.1c17.4-13.9,29.6-29.9,38-43.9
		c8.3,14,20.5,30,38,43.9c23.8,19,51.8,29.4,83.2,31.1V609.4z"/>
	<path class="st0" d="M860.5,501.8c-20.6,22.5-50.8,45-93.5,53.5v54.1c0,19.9,0.6,41.1,7.4,62.3c7.8,24.2,22.5,43,45,57.4
		c15.8,10.2,29.7,19.4,41.1,28.3c11.4-9,25.2-18.1,41.1-28.3c22.4-14.5,37.2-33.2,45-57.4c6.9-21.2,7.4-42.4,7.4-62.3v-54.1
		C911.3,546.8,881.1,524.3,860.5,501.8z"/>
</g>
<g>
	<path class="st0" d="M2390.3,253.4c-38.4,0-55.4-28.1-61-40.3c-0.8-1.6-2.4-2.7-4.2-2.7c-1.8,0-3.4,1.1-4.2,2.7
		c-5.5,12.1-22.6,40.3-61,40.3c-2.5,0-4.6,2.1-4.6,4.6v43.7c0,18,0,55.5,36.8,79.2c20.7,13.3,28.4,20.1,28.4,24.8
		c0,2.5,2.1,4.6,4.6,4.6c2.5,0,4.6-2.1,4.6-4.6c0-4.7,7.7-11.4,28.4-24.8c36.8-23.7,36.8-61.2,36.8-79.2V258
		C2394.9,255.4,2392.8,253.4,2390.3,253.4z M2385.7,301.7c0,17.6,0,50.5-32.5,71.5c-14.8,9.5-23.4,15.9-28,21.3
		c-4.6-5.4-13.2-11.8-28-21.3c-32.5-21-32.5-53.8-32.5-71.5v-39.2c15.7-0.8,29.7-6.1,41.6-15.6c8.7-6.9,14.8-14.9,19-22
		c4.2,7,10.3,15,19,22c11.9,9.5,25.9,14.7,41.6,15.6V301.7z"/>
	<path class="st0" d="M2325.1,247.9c-10.3,11.3-25.4,22.5-46.7,26.8v27c0,10,0.3,20.6,3.7,31.1c3.9,12.1,11.3,21.5,22.5,28.7
		c7.9,5.1,14.8,9.7,20.5,14.2c5.7-4.5,12.6-9.1,20.5-14.2c11.2-7.2,18.6-16.6,22.5-28.7c3.4-10.6,3.7-21.2,3.7-31.1v-27
		C2350.5,270.4,2335.4,259.1,2325.1,247.9z"/>
</g>
<g>
	<path class="st0" d="M2595,1123.7c-76.8,0-110.9-56.3-122-80.5c-1.5-3.3-4.8-5.4-8.4-5.4c-3.6,0-6.9,2.1-8.4,5.4
		c-11.1,24.2-45.2,80.5-122,80.5c-5.1,0-9.2,4.1-9.2,9.2v87.4c0,36,0,111,73.5,158.4c41.4,26.7,56.8,40.1,56.8,49.5
		c0,5.1,4.1,9.2,9.2,9.2s9.2-4.1,9.2-9.2c0-9.4,15.4-22.8,56.8-49.5c73.5-47.4,73.5-122.4,73.5-158.4V1133
		C2604.2,1127.9,2600.1,1123.7,2595,1123.7z M2585.8,1220.3c0,35.3,0,101-65.1,142.9c-29.6,19.1-46.8,31.8-56,42.6
		c-9.2-10.8-26.4-23.5-56-42.6c-65.1-41.9-65.1-107.6-65.1-142.9v-78.4c31.4-1.7,59.3-12.2,83.2-31.1c17.4-13.9,29.6-29.9,38-43.9
		c8.3,14,20.5,30,38,43.9c23.8,19,51.8,29.4,83.2,31.1V1220.3z"/>
	<path class="st0" d="M2464.7,1112.7c-20.6,22.5-50.8,45-93.5,53.5v54.1c0,19.9,0.6,41.1,7.4,62.3c7.8,24.2,22.5,43,45,57.4
		c15.8,10.2,29.7,19.4,41.1,28.3c11.4-9,25.2-18.1,41.1-28.3c22.4-14.5,37.2-33.2,45-57.4c6.9-21.2,7.4-42.4,7.4-62.3v-54.1
		C2515.5,1157.8,2485.2,1135.3,2464.7,1112.7z"/>
</g>
<path class="st0" d="M316.4,1040.5l-5.9,2.3l-10.5-26.6c-15.8-39.8-60.7-59.5-100.2-43.8c-39.5,15.6-58.8,60.7-43,100.5l10.5,26.6
	l-5.9,2.3c-12,4.8-17.9,18.5-13.1,30.6l41.3,104.2c4.8,12.1,18.5,18.1,30.5,13.3l155-61.4c12-4.8,17.9-18.5,13.1-30.6l-41.3-104.2
	C342.1,1041.7,328.4,1035.8,316.4,1040.5z M277.9,1143.1l5.4,13.6c0.8,2-0.2,4.3-2.2,5.1l-11,4.3c-2,0.8-4.3-0.2-5.1-2.2l-5.4-13.6
	c-6.2-1.1-11.8-5.3-14.3-11.7c-3.9-9.7,0.9-20.7,10.5-24.5c9.6-3.8,20.6,1,24.4,10.7C282.9,1131.2,281.7,1138,277.9,1143.1z
	 M279.1,1055.3l-80.4,31.8l-10.5-26.6c-8.9-22.4,2-47.7,24.2-56.4c22.2-8.8,47.4,2.2,56.2,24.6L279.1,1055.3z"/>
<path class="st0" d="M3047.6,810.6l-7.4,2.9l-13.3-33.7c-19.9-50.3-76.8-75.2-126.7-55.4c-49.9,19.8-74.3,76.8-54.4,127.1l13.3,33.7
	l-7.4,2.9c-15.2,6-22.6,23.4-16.6,38.7l52.2,131.8c6.1,15.3,23.3,22.9,38.6,16.9l196-77.6c15.2-6,22.6-23.4,16.5-38.7l-52.2-131.8
	C3080.1,812.1,3062.8,804.6,3047.6,810.6z M2999,940.3l6.8,17.2c1,2.6-0.2,5.5-2.8,6.5l-13.9,5.5c-2.5,1-5.4-0.3-6.5-2.8l-6.8-17.2
	c-7.9-1.4-14.9-6.7-18-14.7c-4.9-12.3,1.1-26.2,13.3-31c12.2-4.8,26,1.2,30.9,13.5C3005.2,925.2,3003.7,933.9,2999,940.3z
	 M3000.4,829.3l-101.7,40.3l-13.3-33.7c-11.2-28.3,2.5-60.3,30.6-71.4c28-11.1,59.9,2.8,71.1,31.1L3000.4,829.3z"/>
<path class="st0" d="M2861.4,141.6l-4.9-2.7l12.1-22.3c18.1-33.4,5.9-75.2-27.2-93.1c-33.1-18-74.8-5.4-92.9,28l-12.1,22.3l-4.9-2.7
	c-10.1-5.5-22.8-1.7-28.3,8.5l-47.4,87.4c-5.5,10.2-1.8,22.9,8.3,28.4l130,70.5c10.1,5.5,22.8,1.7,28.3-8.5l47.4-87.4
	C2875.2,159.7,2871.5,147,2861.4,141.6z M2769.7,173.8l-6.2,11.4c-0.9,1.7-3,2.3-4.7,1.4l-9.2-5c-1.7-0.9-2.3-3-1.4-4.8l6.2-11.4
	c-2.8-4.9-3.1-11-0.2-16.4c4.4-8.2,14.6-11.2,22.7-6.8c8.1,4.4,11.1,14.6,6.6,22.7C2780.7,170.4,2775.3,173.5,2769.7,173.8z
	 M2830.2,124.6L2762.7,88l12.1-22.3c10.2-18.8,33.6-25.8,52.2-15.7c18.6,10.1,25.5,33.5,15.3,52.3L2830.2,124.6z"/>
<g>
	<polygon class="st0" points="1336.3,656.1 1317.2,660.2 1486.5,751.3 1479.9,733.4 1475.9,731.2 1481.6,746.2 1324.1,661.4 
		1340.1,658.1 	"/>
	<path class="st0" d="M1305.6,678.6l171.9,92.5c5.6,3,12.5,0.9,15.5-4.7c2.2-4.1,1.6-8.8-0.9-12.3l-7.7-20.9
		c6.3,2.6,13.7,0.1,17-6.1l48.8-90.8c3.5-6.6,1.1-14.8-5.5-18.4l-148.4-79.9c-6.6-3.5-14.8-1.1-18.4,5.5l-48.8,90.8
		c-3.4,6.3-1.2,14.1,4.8,17.8l-22.1,4.8c-2.2-0.1-4.3,0.3-6.2,1.4l-0.2,0l0.1,0c-1.8,1-3.4,2.6-4.5,4.5
		C1297.9,668.7,1300,675.6,1305.6,678.6z M1313.1,673.9c-1.1-0.6-1.5-2-0.9-3c0.6-1.1,1.9-1.5,3-0.9c1.1,0.6,1.5,2,0.9,3.1
		C1315.6,674.1,1314.2,674.5,1313.1,673.9z M1321,678.2c-1.1-0.6-1.5-2-0.9-3.1c0.6-1.1,2-1.5,3.1-0.9c1.1,0.6,1.5,2,0.9,3.1
		C1323.5,678.4,1322.1,678.8,1321,678.2z M1329.5,682.8c-1.1-0.6-1.5-2-0.9-3c0.6-1.1,2-1.5,3-0.9c1.1,0.6,1.5,2,0.9,3.1
		C1332,682.9,1330.6,683.4,1329.5,682.8z M1402.3,721.9l-16.8-9c-1.1-0.6-1.5-2-0.9-3c0.6-1.1,2-1.5,3-0.9l16.8,9
		c1.1,0.6,1.5,2,0.9,3.1C1404.8,722.1,1403.4,722.5,1402.3,721.9z M1466.7,585.2c1.2,0.7,1.7,2.2,1,3.4c-0.7,1.2-2.2,1.7-3.4,1
		c-1.2-0.6-1.6-2.1-1-3.4C1464,585,1465.5,584.5,1466.7,585.2z M1343.1,634.5l42.5-79l150.6,81l-42.5,79L1343.1,634.5z
		 M1336.3,656.1l3.8,2.1l-16,3.3l157.5,84.8l-5.7-14.9l4,2.2l6.6,17.9l-169.3-91.1L1336.3,656.1z"/>
</g>
<g>
	<polygon class="st0" points="1209.1,1599.1 1195.8,1622.6 1446.6,1531.2 1421.9,1521.4 1415.9,1523.6 1436.7,1531.5 1203.4,1616.6 
		1214.8,1597 	"/>
	<path class="st0" d="M1204.1,1651.7l254.6-92.9c8.2-3,12.5-12.1,9.5-20.4c-2.2-6-7.7-9.9-13.6-10.4l-28.7-11.3
		c8.5-4.2,12.7-14.1,9.4-23.2l-49-134.4c-3.6-9.8-14.4-14.8-24.1-11.2l-219.9,80.2c-9.8,3.6-14.8,14.4-11.2,24.1l49,134.4
		c3.4,9.4,13.5,14.3,22.9,11.5l-15.4,27.3c-2.2,2.1-3.7,4.8-4.3,7.7l-0.1,0.2l0.1,0c-0.6,2.9-0.5,5.9,0.6,8.9
		C1186.7,1650.5,1195.9,1654.7,1204.1,1651.7z M1206.3,1639.6c-1.6,0.6-3.4-0.3-4-1.9c-0.6-1.6,0.2-3.4,1.8-4c1.6-0.6,3.4,0.2,4,1.9
		C1208.7,1637.2,1207.9,1639,1206.3,1639.6z M1218,1635.3c-1.6,0.6-3.4-0.2-4-1.9c-0.6-1.6,0.2-3.4,1.9-4c1.6-0.6,3.4,0.2,4,1.9
		C1220.5,1632.9,1219.6,1634.7,1218,1635.3z M1230.5,1630.7c-1.6,0.6-3.4-0.2-4-1.9c-0.6-1.6,0.2-3.4,1.9-4c1.6-0.6,3.4,0.2,4,1.9
		C1233,1628.3,1232.1,1630.1,1230.5,1630.7z M1338.3,1591.4l-24.9,9.1c-1.6,0.6-3.4-0.3-4-1.9c-0.6-1.6,0.2-3.4,1.8-4l24.9-9.1
		c1.6-0.6,3.4,0.2,4,1.9C1340.8,1589,1340,1590.8,1338.3,1591.4z M1256,1398.4c1.8-0.7,3.8,0.3,4.4,2c0.7,1.8-0.2,3.8-2.1,4.4
		c-1.8,0.6-3.7-0.3-4.4-2.1C1253.3,1401,1254.2,1399.1,1256,1398.4z M1192.9,1572.1l-42.7-117.1l223.1-81.4l42.7,117.1
		L1192.9,1572.1z M1209.1,1599.1l5.7-2.1l-11.4,19.6l233.3-85.1l-20.8-7.9l6-2.2l24.6,9.7l-250.7,91.5L1209.1,1599.1z"/>
</g>
<g>
	<polygon class="st0" points="3316.9,471.1 3307.1,487.9 3488.6,424.5 3470.9,417.2 3466.6,418.7 3481.5,424.6 3312.6,483.6 
		3321,469.6 	"/>
	<path class="st0" d="M3312.8,508.9l184.3-64.4c6-2.1,9.1-8.6,7-14.6c-1.5-4.4-5.4-7.2-9.7-7.6l-20.6-8.4c6.2-2.9,9.3-10,7-16.6
		l-34-97.3c-2.5-7.1-10.2-10.8-17.3-8.3l-159.1,55.6c-7.1,2.5-10.8,10.2-8.3,17.3l34,97.3c2.4,6.8,9.6,10.4,16.4,8.5l-11.3,19.5
		c-1.6,1.5-2.7,3.4-3.2,5.5l-0.1,0.2l0.1,0c-0.5,2-0.4,4.3,0.3,6.4C3300.3,507.9,3306.8,511,3312.8,508.9z M3314.5,500.2
		c-1.2,0.4-2.4-0.2-2.9-1.4c-0.4-1.2,0.2-2.5,1.4-2.9c1.2-0.4,2.5,0.2,2.9,1.4C3316.3,498.5,3315.7,499.8,3314.5,500.2z
		 M3322.9,497.3c-1.2,0.4-2.5-0.2-2.9-1.4c-0.4-1.2,0.2-2.5,1.4-2.9c1.2-0.4,2.5,0.2,2.9,1.4
		C3324.7,495.6,3324.1,496.8,3322.9,497.3z M3332,494.1c-1.2,0.4-2.5-0.2-2.9-1.4c-0.4-1.2,0.2-2.5,1.4-2.9c1.2-0.4,2.5,0.2,2.9,1.4
		C3333.8,492.4,3333.2,493.7,3332,494.1z M3410,466.8l-18,6.3c-1.2,0.4-2.4-0.2-2.9-1.4c-0.4-1.2,0.2-2.5,1.4-2.9l18-6.3
		c1.2-0.4,2.5,0.2,2.9,1.4C3411.9,465.1,3411.2,466.4,3410,466.8z M3352.6,327c1.3-0.5,2.7,0.2,3.2,1.5c0.5,1.3-0.2,2.7-1.5,3.2
		c-1.3,0.5-2.7-0.2-3.1-1.5C3350.6,328.9,3351.3,327.5,3352.6,327z M3305.5,451.5l-29.6-84.7l161.4-56.4L3467,395L3305.5,451.5z
		 M3316.9,471.1l4.1-1.4l-8.4,14l168.8-59l-14.9-5.9l4.3-1.5l17.7,7.2l-181.5,63.4L3316.9,471.1z"/>
</g>
<g>
	<path class="st0" d="M1244.5,1023.9c-0.3,0.7-0.7,1.4-1,2c-0.4,0.7-0.7,1.4-1.1,2c-0.8,1.4-1.6,2.7-2.5,4l-4.2,61.1l-16.8-27.4
		l2.6-14.8c-0.8,0.6-1.6,1.1-2.5,1.6c-2.2,1.3-4.4,2.6-6.7,3.7c-1.3,0.6-2.6,1.2-3.9,1.7c-5.1,2.1-10.3,3.4-15.5,4.2l12.3,9.1
		l7.4,31.8l-49.3-43c-1.7-0.5-3.3-1.1-5-1.7l-0.3,0.6c-24,46.7-1,102.3,0,104.6l0.8,2l157.7-63.6l-0.9-2.1
		C1286.9,1036.5,1252.6,1025.6,1244.5,1023.9z"/>
	<path class="st0" d="M1158.9,935.2c-32.6,13.2-48.5,50.4-35.3,83.1c13.2,32.6,50.4,48.5,83.1,35.3c32.6-13.2,48.5-50.4,35.3-83.1
		C1228.7,937.9,1191.5,922.1,1158.9,935.2z"/>
</g>
<g>
	<path class="st0" d="M2616.5,716.2c-0.7,0.2-1.5,0.3-2.2,0.5c-0.7,0.2-1.5,0.3-2.3,0.5c-1.5,0.3-3.1,0.5-4.7,0.7l-49.7,35.7
		l10.3-30.4l13-7.5c-0.9-0.3-1.9-0.6-2.8-0.9c-2.4-0.8-4.8-1.7-7.1-2.8c-1.3-0.6-2.6-1.2-3.8-1.9c-4.8-2.6-9.2-5.7-13.2-9.2
		l0.9,15.3l-19.7,26l1.5-65.4c-0.7-1.6-1.3-3.2-1.9-4.9l-0.7,0.2c-51.3,11.4-79.3,64.6-80.5,66.8l-1,1.9l149.7,80.7l1-2
		C2633.9,756.9,2620.3,723.5,2616.5,716.2z"/>
	<path class="st0" d="M2630,593.6c-31-16.7-69.8-5.1-86.5,25.9c-16.7,31-5.1,69.8,25.9,86.5c31,16.7,69.8,5.1,86.5-25.9
		C2672.6,649.1,2661,610.3,2630,593.6z"/>
</g>
<g>
	<path class="st0" d="M1648.2,1240.6c0,31.4,25.5,56.9,56.9,56.9c31.4,0,56.9-25.5,56.9-56.9c0-31.4-25.5-56.9-56.9-56.9
		C1673.7,1183.7,1648.2,1209.2,1648.2,1240.6z M1744.7,1237.1c1.9,21.9-14.3,41.2-36.2,43.1c-21.9,1.9-41.2-14.3-43.1-36.2
		c-1.9-21.9,14.3-41.2,36.2-43.1C1723.5,1199,1742.8,1215.2,1744.7,1237.1z"/>
	<path class="st0" d="M1783.1,1272l9.4-0.4c2.2-0.1,4.5-1.9,5-4l3.1-14.9c0.3-2.2-1-4.7-3-5.7l-8.5-4.1c-2-1-3.6-3.5-3.6-5.7
		c0,0,0-1.1-0.2-3.7c-0.1-0.9-0.1-0.9-0.1-0.9c-0.1-1,1.3-2.7,3.1-3.9l8-5c1.9-1.2,2.9-3.9,2.4-6l-4.7-14.4c-0.8-2-3.3-3.6-5.4-3.4
		l-9.4,0.7c-2.2,0.2-4.8-1-5.8-2.7c-1-1.6-3-7.3-2-9.2l4.4-8.3c1-1.9,0.6-4.8-1-6.4l-11.3-10.1c-1.7-1.4-4.6-1.5-6.4-0.2l-7.8,5.3
		c-1.8,1.2-4.7,1.5-6.3,0.6c-1.7-0.9-6.3-4.8-6.3-7l-0.4-9.4c-0.1-2.2-1.9-4.5-4-5l-14.9-3.1c-2.2-0.3-4.7,1-5.7,3l-4.1,8.5
		c-1,2-3.5,3.6-5.7,3.6c0,0-1.1,0-3.7,0.2c-0.9,0.1-0.9,0.1-0.9,0.1c-1,0.1-2.7-1.3-3.9-3.2l-5-8c-1.2-1.9-3.9-2.9-6-2.4l-14.5,4.7
		c-2,0.8-3.6,3.3-3.4,5.4l0.7,9.4c0.2,2.2-1,4.8-2.7,5.8c-1.6,1-7.3,3-9.2,2l-8.3-4.4c-1.9-1-4.8-0.6-6.4,0.9l-10.1,11.3
		c-1.4,1.7-1.5,4.6-0.2,6.4l5.3,7.8c1.2,1.8,1.5,4.7,0.6,6.3c-0.9,1.7-4.8,6.3-7,6.3l-9.4,0.4c-2.2,0.1-4.5,1.9-5,4l-3.1,14.9
		c-0.3,2.2,1,4.7,3,5.7l8.5,4.1c2,1,3.6,3.5,3.6,5.7c0,0,0,1.1,0.2,3.7c0.1,0.9,0.1,0.9,0.1,0.9c0.1,1-1.3,2.7-3.2,3.9l-8,5
		c-1.9,1.2-2.9,3.9-2.4,6l4.7,14.4c0.8,2,3.3,3.6,5.4,3.4l9.4-0.7c2.2-0.2,4.8,1,5.8,2.7c1,1.6,3,7.3,2,9.2l-4.4,8.3
		c-1,1.9-0.6,4.8,1,6.4l11.3,10.1c1.7,1.4,4.6,1.5,6.4,0.2l7.8-5.3c1.8-1.2,4.7-1.5,6.3-0.6c1.7,0.9,6.3,4.8,6.3,7l0.4,9.4
		c0.1,2.2,1.9,4.5,4,5l14.9,3.1c2.2,0.3,4.7-1,5.7-3l4.1-8.5c1-2,3.5-3.6,5.7-3.6c0,0,1.1,0,3.7-0.2c0.9-0.1,0.9-0.1,0.9-0.1
		c1-0.1,2.7,1.3,3.9,3.1l5,8c1.2,1.9,3.9,2.9,6,2.4l14.5-4.7c2-0.8,3.6-3.3,3.4-5.4l-0.7-9.4c-0.2-2.2,1-4.8,2.7-5.8
		c1.6-1,7.3-3,9.2-2l8.3,4.4c1.9,1,4.8,0.6,6.4-1l10.1-11.3c1.4-1.7,1.5-4.6,0.2-6.4l-5.3-7.8c-1.2-1.8-1.5-4.7-0.6-6.3
		C1777,1276.7,1780.9,1272.1,1783.1,1272z M1705.1,1305.4c-35.8,0-64.8-29.1-64.8-64.8c0-35.8,29.1-64.8,64.8-64.8
		c35.7,0,64.8,29.1,64.8,64.8C1769.9,1276.3,1740.8,1305.4,1705.1,1305.4z"/>
</g>
<g>
	<path class="st0" d="M2776.1,1595.8c0,31.4,25.5,56.9,56.9,56.9c31.4,0,56.9-25.5,56.9-56.9c0-31.4-25.5-56.9-56.9-56.9
		C2801.6,1538.9,2776.1,1564.4,2776.1,1595.8z M2872.6,1592.3c1.9,21.9-14.3,41.2-36.2,43.1c-21.9,1.9-41.2-14.3-43.1-36.2
		c-1.9-21.9,14.3-41.2,36.2-43.1C2851.4,1554.3,2870.7,1570.5,2872.6,1592.3z"/>
	<path class="st0" d="M2911,1627.3l9.4-0.4c2.2-0.1,4.5-1.9,5-4l3.1-14.9c0.3-2.2-1-4.7-3-5.7l-8.5-4.1c-2-1-3.6-3.5-3.6-5.7
		c0,0,0-1.1-0.2-3.7c-0.1-0.9-0.1-0.9-0.1-0.9c-0.1-1,1.3-2.7,3.1-3.9l8-5c1.9-1.2,2.9-3.9,2.4-6l-4.7-14.4c-0.8-2-3.3-3.6-5.4-3.4
		l-9.4,0.7c-2.2,0.2-4.8-1-5.8-2.7c-1-1.6-3-7.3-2-9.2l4.4-8.3c1-1.9,0.6-4.8-1-6.4l-11.3-10.1c-1.7-1.4-4.6-1.5-6.4-0.2l-7.8,5.3
		c-1.8,1.2-4.7,1.5-6.3,0.6c-1.7-0.9-6.3-4.8-6.3-7l-0.4-9.4c-0.1-2.2-1.9-4.5-4-5l-14.9-3.1c-2.2-0.3-4.7,1-5.7,3l-4.1,8.5
		c-1,2-3.5,3.6-5.7,3.6c0,0-1.1,0-3.7,0.2c-0.9,0.1-0.9,0.1-0.9,0.1c-1,0.1-2.7-1.3-3.9-3.2l-5-8c-1.2-1.9-3.9-2.9-6-2.4l-14.5,4.7
		c-2,0.8-3.6,3.3-3.4,5.4l0.7,9.4c0.2,2.2-1,4.8-2.7,5.8c-1.6,1-7.3,3-9.2,2l-8.3-4.4c-1.9-1-4.8-0.6-6.4,0.9l-10.1,11.3
		c-1.4,1.7-1.5,4.6-0.2,6.4l5.3,7.8c1.2,1.8,1.5,4.7,0.6,6.3c-0.9,1.7-4.8,6.3-7,6.3l-9.4,0.4c-2.2,0.1-4.5,1.9-5,4l-3.1,14.9
		c-0.3,2.2,1,4.7,3,5.7l8.5,4.1c2,1,3.6,3.5,3.6,5.7c0,0,0,1.1,0.2,3.7c0.1,0.9,0.1,0.9,0.1,0.9c0.1,1-1.3,2.7-3.2,3.9l-8,5
		c-1.9,1.2-2.9,3.9-2.4,6l4.7,14.4c0.8,2,3.3,3.6,5.4,3.4l9.4-0.7c2.2-0.2,4.8,1,5.8,2.7c1,1.6,3,7.3,2,9.2l-4.4,8.3
		c-1,1.9-0.6,4.8,1,6.4l11.3,10.1c1.7,1.4,4.6,1.5,6.4,0.2l7.8-5.3c1.8-1.2,4.7-1.5,6.3-0.6c1.7,0.9,6.3,4.8,6.3,7l0.4,9.4
		c0.1,2.2,1.9,4.5,4,5l14.9,3.1c2.2,0.3,4.7-1,5.7-3l4.1-8.5c1-2,3.5-3.6,5.7-3.6c0,0,1.1,0,3.7-0.2c0.9-0.1,0.9-0.1,0.9-0.1
		c1-0.1,2.7,1.3,3.9,3.1l5,8c1.2,1.9,3.9,2.9,6,2.4l14.5-4.7c2-0.8,3.6-3.3,3.4-5.4l-0.7-9.4c-0.2-2.2,1-4.8,2.7-5.8
		c1.6-1,7.3-3,9.2-2l8.3,4.4c1.9,1,4.8,0.6,6.4-1l10.1-11.3c1.4-1.7,1.5-4.6,0.2-6.4l-5.3-7.8c-1.2-1.8-1.5-4.7-0.6-6.3
		C2904.9,1631.9,2908.8,1627.3,2911,1627.3z M2832.9,1660.6c-35.8,0-64.8-29.1-64.8-64.8c0-35.8,29.1-64.8,64.8-64.8
		c35.7,0,64.8,29.1,64.8,64.8C2897.8,1631.5,2868.7,1660.6,2832.9,1660.6z"/>
</g>
<g>
	<path class="st0" d="M664.1,1077.7c0,31.4,25.5,56.9,56.9,56.9c31.4,0,56.9-25.5,56.9-56.9c0-31.4-25.5-56.9-56.9-56.9
		C689.6,1020.8,664.1,1046.3,664.1,1077.7z M760.6,1074.2c1.9,21.9-14.3,41.2-36.2,43.1c-21.9,1.9-41.2-14.3-43.1-36.2
		c-1.9-21.9,14.3-41.2,36.2-43.1C739.4,1036.1,758.7,1052.3,760.6,1074.2z"/>
	<path class="st0" d="M799,1109.1l9.4-0.4c2.2-0.1,4.5-1.9,5-4l3.1-14.9c0.3-2.2-1-4.7-3-5.7l-8.5-4.1c-2-1-3.6-3.5-3.6-5.7
		c0,0,0-1.1-0.2-3.7c-0.1-0.9-0.1-0.9-0.1-0.9c-0.1-1,1.3-2.7,3.1-3.9l8-5c1.9-1.2,2.9-3.9,2.4-6l-4.7-14.4c-0.8-2-3.3-3.6-5.4-3.4
		l-9.4,0.7c-2.2,0.2-4.8-1-5.8-2.7c-1-1.6-3-7.3-2-9.2l4.4-8.3c1-1.9,0.6-4.8-1-6.4l-11.3-10.1c-1.7-1.4-4.6-1.5-6.4-0.2l-7.8,5.3
		c-1.8,1.2-4.7,1.5-6.3,0.6c-1.7-0.9-6.3-4.8-6.3-7l-0.4-9.4c-0.1-2.2-1.9-4.5-4-5l-14.9-3.1c-2.2-0.3-4.7,1-5.7,3l-4.1,8.5
		c-1,2-3.5,3.6-5.7,3.6c0,0-1.1,0-3.7,0.2c-0.9,0.1-0.9,0.1-0.9,0.1c-1,0.1-2.7-1.3-3.9-3.2l-5-8c-1.2-1.9-3.9-2.9-6-2.4l-14.5,4.7
		c-2,0.8-3.6,3.3-3.4,5.4l0.7,9.4c0.2,2.2-1,4.8-2.7,5.8c-1.6,1-7.3,3-9.2,2l-8.3-4.4c-1.9-1-4.8-0.6-6.4,0.9l-10.1,11.3
		c-1.4,1.7-1.5,4.6-0.2,6.4l5.3,7.8c1.2,1.8,1.5,4.7,0.6,6.3c-0.9,1.7-4.8,6.3-7,6.3l-9.4,0.4c-2.2,0.1-4.5,1.9-5,4l-3.1,14.9
		c-0.3,2.2,1,4.7,3,5.7l8.5,4.1c2,1,3.6,3.5,3.6,5.7c0,0,0,1.1,0.2,3.7c0.1,0.9,0.1,0.9,0.1,0.9c0.1,1-1.3,2.7-3.2,3.9l-8,5
		c-1.9,1.2-2.9,3.9-2.4,6l4.7,14.4c0.8,2,3.3,3.6,5.4,3.4l9.4-0.7c2.2-0.2,4.8,1,5.8,2.7c1,1.6,3,7.3,2,9.2l-4.4,8.3
		c-1,1.9-0.6,4.8,1,6.4l11.3,10.1c1.7,1.4,4.6,1.5,6.4,0.2l7.8-5.3c1.8-1.2,4.7-1.5,6.3-0.6c1.7,0.9,6.3,4.8,6.3,7l0.4,9.4
		c0.1,2.2,1.9,4.5,4,5l14.9,3.1c2.2,0.3,4.7-1,5.7-3l4.1-8.5c1-2,3.5-3.6,5.7-3.6c0,0,1.1,0,3.7-0.2c0.9-0.1,0.9-0.1,0.9-0.1
		c1-0.1,2.7,1.3,3.9,3.1l5,8c1.2,1.9,3.9,2.9,6,2.4l14.5-4.7c2-0.8,3.6-3.3,3.4-5.4l-0.7-9.4c-0.2-2.2,1-4.8,2.7-5.8
		c1.6-1,7.3-3,9.2-2l8.3,4.4c1.9,1,4.8,0.6,6.4-1l10.1-11.3c1.4-1.7,1.5-4.6,0.2-6.4l-5.3-7.8c-1.2-1.8-1.5-4.7-0.6-6.3
		C792.9,1113.8,796.8,1109.2,799,1109.1z M721,1142.5c-35.8,0-64.8-29.1-64.8-64.8c0-35.8,29.1-64.8,64.8-64.8
		c35.7,0,64.8,29.1,64.8,64.8C785.8,1113.4,756.7,1142.5,721,1142.5z"/>
</g>
<g>
	<path class="st0" d="M1716.3,200.8c0,46.5,37.9,84.4,84.4,84.4c46.5,0,84.4-37.9,84.4-84.4c0-46.5-37.9-84.4-84.4-84.4
		C1754.1,116.4,1716.3,154.3,1716.3,200.8z M1859.5,195.7c2.8,32.5-21.2,61.1-53.7,63.9c-32.5,2.8-61.1-21.2-63.9-53.7
		c-2.8-32.5,21.2-61.1,53.7-63.9C1828,139.2,1856.7,163.2,1859.5,195.7z"/>
	<path class="st0" d="M1916.4,247.5l14-0.5c3.3-0.1,6.6-2.8,7.5-5.9l4.6-22.1c0.5-3.2-1.5-7-4.5-8.4l-12.6-6.1
		c-2.9-1.4-5.4-5.2-5.4-8.5c0,0,0-1.6-0.3-5.4c-0.1-1.3-0.1-1.3-0.1-1.3c-0.2-1.4,1.9-4,4.7-5.8l11.8-7.5c2.7-1.7,4.3-5.7,3.5-8.9
		l-7-21.4c-1.2-3-4.8-5.3-8.1-5.1l-14,1c-3.2,0.2-7.1-1.5-8.6-3.9c-1.5-2.4-4.5-10.8-3-13.7l6.5-12.4c1.5-2.9,0.9-7.1-1.4-9.4
		l-16.8-15c-2.5-2-6.8-2.2-9.5-0.4l-11.6,7.9c-2.7,1.8-6.9,2.2-9.4,0.9c-2.5-1.3-9.3-7.1-9.4-10.4l-0.6-14c-0.1-3.3-2.8-6.6-5.9-7.5
		l-22.1-4.6c-3.2-0.5-7,1.5-8.4,4.5l-6.1,12.6c-1.4,2.9-5.2,5.4-8.5,5.4c0,0-1.6,0-5.4,0.3C1789,82,1789,82,1789,82
		c-1.4,0.2-4-1.9-5.7-4.7l-7.5-11.9c-1.7-2.7-5.7-4.3-8.9-3.5l-21.4,7c-3,1.2-5.3,4.8-5.1,8.1l1,14c0.2,3.2-1.5,7.1-4,8.6
		c-2.4,1.5-10.8,4.5-13.7,3l-12.4-6.5c-2.9-1.5-7.1-0.9-9.4,1.4l-15,16.8c-2,2.5-2.2,6.8-0.3,9.5l7.9,11.6c1.8,2.7,2.2,6.9,0.9,9.4
		c-1.4,2.5-7.1,9.3-10.4,9.4l-14,0.5c-3.2,0.1-6.6,2.8-7.5,5.9l-4.6,22.1c-0.5,3.2,1.5,7,4.5,8.4l12.6,6.1c2.9,1.4,5.4,5.2,5.4,8.5
		c0,0,0,1.6,0.4,5.4c0.1,1.3,0.1,1.3,0.1,1.3c0.2,1.4-1.9,4-4.7,5.8l-11.8,7.5c-2.8,1.7-4.3,5.7-3.5,8.9l7,21.4
		c1.2,3,4.8,5.3,8.1,5.1l14-1c3.2-0.2,7.1,1.5,8.6,3.9c1.5,2.4,4.5,10.8,3,13.7l-6.5,12.4c-1.5,2.9-0.9,7.1,1.4,9.4l16.8,15
		c2.6,2,6.8,2.2,9.5,0.4l11.6-7.9c2.7-1.8,6.9-2.2,9.4-0.9c2.5,1.4,9.3,7.1,9.4,10.4l0.6,14c0.1,3.2,2.8,6.6,5.9,7.5l22.1,4.6
		c3.2,0.5,7-1.5,8.4-4.5l6.1-12.6c1.4-2.9,5.2-5.4,8.5-5.4c0,0,1.6,0,5.4-0.3c1.3-0.1,1.3-0.1,1.3-0.1c1.4-0.2,4,1.9,5.7,4.7
		l7.5,11.9c1.7,2.8,5.7,4.3,8.9,3.5l21.4-7c3-1.2,5.3-4.8,5.1-8.1l-1-14c-0.2-3.2,1.5-7.1,3.9-8.6c2.4-1.5,10.8-4.5,13.7-3l12.4,6.5
		c2.9,1.5,7.1,0.9,9.4-1.4l15-16.8c2-2.5,2.2-6.8,0.4-9.5l-7.9-11.6c-1.8-2.7-2.2-6.9-0.9-9.4
		C1907.4,254.4,1913.2,247.6,1916.4,247.5z M1800.7,297c-53,0-96.2-43.2-96.2-96.2c0-53,43.1-96.2,96.2-96.2
		c53,0,96.2,43.1,96.2,96.2C1896.8,253.8,1853.7,297,1800.7,297z"/>
</g>
<g>
	<path class="st0" d="M1709,879.1c-3.4,0-6.1,2.8-6.1,6.1V976c0,3.4,2.8,6.1,6.1,6.1h54.8V970c0-5.3,4.3-9.6,9.6-9.6h13.4v-75.2
		c0-3.4-2.8-6.1-6.1-6.1H1709z M1770.8,935.3h-51.9v-4.2h51.9V935.3z M1770.8,920.5h-51.9v-4.2h51.9V920.5z M1770.8,905.7h-51.9
		v-4.2h51.9V905.7z"/>
	<path class="st0" d="M1767.3,970v9.7l16.9-15.9h-10.7C1770.1,963.9,1767.3,966.7,1767.3,970z"/>
</g>
<g>
	<path class="st0" d="M2945.3,404.4c-3.4,0-6.1,2.8-6.1,6.1v90.7c0,3.4,2.8,6.1,6.1,6.1h54.8v-12.1c0-5.3,4.3-9.6,9.6-9.6h13.4
		v-75.2c0-3.4-2.8-6.1-6.1-6.1H2945.3z M3007.1,460.6h-51.9v-4.2h51.9V460.6z M3007.1,445.8h-51.9v-4.2h51.9V445.8z M3007.1,431.1
		h-51.9v-4.2h51.9V431.1z"/>
	<path class="st0" d="M3003.6,495.4v9.7l16.9-15.9h-10.7C3006.3,489.2,3003.6,492,3003.6,495.4z"/>
</g>
<g>
	<path class="st0" d="M53.6,1469.9c-3.4,0-6.1,2.8-6.1,6.1v90.7c0,3.4,2.8,6.1,6.1,6.1h54.8v-12.1c0-5.3,4.3-9.6,9.6-9.6h13.4v-75.2
		c0-3.4-2.8-6.1-6.1-6.1H53.6z M115.4,1526.1H63.5v-4.2h51.9V1526.1z M115.4,1511.4H63.5v-4.2h51.9V1511.4z M115.4,1496.6H63.5v-4.2
		h51.9V1496.6z"/>
	<path class="st0" d="M111.9,1560.9v9.7l16.9-15.9h-10.7C114.7,1554.7,111.9,1557.5,111.9,1560.9z"/>
</g>
<g>
	<path class="st0" d="M2919.3,1253.9c-3.4,0-6.1,2.8-6.1,6.1v90.7c0,3.4,2.8,6.1,6.1,6.1h54.8v-12.1c0-5.3,4.3-9.6,9.6-9.6h13.4
		V1260c0-3.4-2.8-6.1-6.1-6.1H2919.3z M2981.1,1310.1h-51.9v-4.2h51.9V1310.1z M2981.1,1295.3h-51.9v-4.2h51.9V1295.3z
		 M2981.1,1280.5h-51.9v-4.2h51.9V1280.5z"/>
	<path class="st0" d="M2977.6,1344.8v9.7l16.9-15.9h-10.7C2980.4,1338.7,2977.6,1341.5,2977.6,1344.8z"/>
</g>
</svg>
