<?xml version="1.0" encoding="utf-8"?>
<!-- Generator: Adobe Illustrator 26.0.2, SVG Export Plug-In . SVG Version: 6.00 Build 0)  -->
<svg version="1.1" id="Capa_1" xmlns="http://www.w3.org/2000/svg" xmlns:xlink="http://www.w3.org/1999/xlink" x="0px" y="0px"
	 viewBox="0 0 3471 1595.8" style="enable-background:new 0 0 3471 1595.8;" xml:space="preserve">
<style type="text/css">
	.st0{fill:#dce3ef;}
</style>
<g>
	<g>
		<g>
			<path class="st0" d="M3310.5,174.2c-6.1-3.4-10.2-7.9-10.5-8.2c-0.2-0.2-0.3-0.4-0.4-0.5c-8.5-12.6-9.1-28.6-1.7-41.8
				c10.8-19.2,35.1-26.1,54.3-15.3c19.2,10.8,26.1,35.1,15.3,54.3c-1.3,2.3-4.3,3.2-6.6,1.9c-2.3-1.3-3.2-4.3-1.9-6.6
				c8.1-14.5,2.9-32.9-11.6-41.1s-32.9-2.9-41.1,11.6c-5.5,9.9-5.1,21.8,1.1,31.3c1.1,1.2,6.6,6.5,13.2,8.2c2.6,0.7,4.2,3.3,3.5,5.9
				c-0.7,2.6-3.3,4.2-5.9,3.5C3315.4,176.7,3312.8,175.5,3310.5,174.2z"/>
			<path class="st0" d="M3258.7,197.8c-2.2-1.2-3.1-3.9-2-6.3c1.1-2.4,4-3.5,6.4-2.4c28.6,13.1,52.5,13.3,71,0.7
				c14.7-10,21.7-25.1,24-30.1c0.4-0.8,0.6-1.4,0.9-1.8c1.3-2.3,4.3-3.2,6.6-1.9c2.3,1.3,3.2,4.3,1.9,6.6c-0.1,0.2-0.3,0.7-0.6,1.2
				c-2.6,5.6-10.5,22.6-27.4,34.1c-9.7,6.6-20.8,10.2-32.9,10.8c-14.4,0.7-30.5-2.9-47.6-10.8C3259,197.9,3258.8,197.9,3258.7,197.8
				z M3367.5,162.7L3367.5,162.7L3367.5,162.7z"/>
			<path class="st0" d="M3266.5,182.7c-2.2-1.2-3.1-4-2-6.3c1.1-2.4,4-3.5,6.5-2.3c10.3,4.8,19,5.1,24.5,0.8c4-3.2,5.1-7.7,4.7-9.5
				c-0.5-2.6,1.2-5.2,3.8-5.7c2.6-0.5,5.2,1.2,5.7,3.8c1.1,5.4-1.4,13.7-8.2,19.1c-11.5,9-26.6,4.1-34.6,0.3
				C3266.7,182.8,3266.6,182.8,3266.5,182.7z"/>
		</g>
		<g>
			<path class="st0" d="M3220.3,125.9c-7.2-4-11.7-10.9-12.3-11.7c-8.4-12.6-9.1-28.6-1.7-41.8c10.8-19.2,35.1-26.1,54.3-15.3
				c19.2,10.8,26.1,35.1,15.3,54.3c-1.3,2.3-4.3,3.2-6.6,1.9c-2.3-1.3-3.2-4.3-1.9-6.6c8.1-14.5,2.9-32.9-11.6-41.1
				c-14.5-8.1-32.9-2.9-41.1,11.6c-5.6,10-5.1,22.1,1.3,31.6c0,0,0,0.1,0.1,0.1c0,0.1,4.1,6.3,10,9c2.5,1.1,3.5,4,2.4,6.5
				c-1.1,2.4-4,3.5-6.5,2.4C3221.5,126.5,3220.9,126.2,3220.3,125.9z"/>
			<path class="st0" d="M3167.2,146.6c-2.2-1.2-3.1-3.9-2-6.3c1.1-2.4,4-3.5,6.4-2.4c28.6,13.1,52.5,13.3,71,0.7
				c14.7-10,21.7-25.1,24-30.1c0.4-0.8,0.6-1.4,0.9-1.8c1.3-2.3,4.3-3.2,6.6-1.9c2.3,1.3,3.2,4.3,1.9,6.6c-0.1,0.2-0.3,0.7-0.6,1.2
				c-2.6,5.6-10.5,22.6-27.4,34.1c-9.7,6.6-20.8,10.2-32.9,10.8c-14.4,0.7-30.5-2.9-47.6-10.8
				C3167.5,146.7,3167.3,146.7,3167.2,146.6z M3276,111.5L3276,111.5L3276,111.5z"/>
			<path class="st0" d="M3175,131.5c-2.2-1.2-3.1-4-2-6.3c1.1-2.4,4-3.5,6.5-2.3c10.3,4.8,19,5.1,24.5,0.8c4-3.2,5.1-7.7,4.7-9.5
				c-0.5-2.6,1.2-5.2,3.8-5.7c2.6-0.5,5.2,1.2,5.7,3.8c1.1,5.4-1.4,13.7-8.2,19.1c-11.5,9-26.6,4.1-34.6,0.3
				C3175.2,131.6,3175.1,131.6,3175,131.5z"/>
		</g>
	</g>
	<path class="st0" d="M3123.2,226.8c-0.7-0.4-1.2-0.9-1.7-1.5c-1-1.5-1.1-3.5-0.2-5.1l13.5-24.1c-25.1-16.9-33.4-50.5-18.4-77.4
		l62.7-112c15.8-28.3,51.7-38.4,79.9-22.5l153.7,86c28.3,15.8,38.4,51.7,22.5,79.9l-62.7,112c-15.8,28.3-51.7,38.4-79.9,22.5
		l-114.1-63.9l-52.4,6.6C3125.1,227.5,3124.1,227.3,3123.2,226.8z M3254.3-7.4c-23.6-13.2-53.5-4.8-66.7,18.8l-62.7,112
		c-13.2,23.6-4.8,53.5,18.8,66.7c2.3,1.3,3.2,4.3,1.9,6.6l-11.1,19.8l44.4-5.6c1-0.1,2.1,0.1,3,0.6l115.5,64.7
		c23.6,13.2,53.5,4.8,66.7-18.8l62.7-112c13.2-23.6,4.8-53.5-18.8-66.7L3254.3-7.4z"/>
</g>
<g>
	<g>
		<g>
			<path class="st0" d="M2069.6,1619.8c-6.2-0.1-11.3-1.8-11.6-1.9c-0.2-0.1-0.4-0.2-0.6-0.2c-11.9-6.2-19.2-18.4-19-31.8
				c0.2-19.5,16.3-35.1,35.7-34.9c19.5,0.2,35.1,16.3,34.9,35.7c0,2.4-2,4.3-4.4,4.3c-2.4,0-4.3-2-4.3-4.4
				c0.2-14.7-11.7-26.8-26.4-27c-14.7-0.2-26.8,11.7-27,26.4c-0.1,10,5.3,19.1,14.1,23.9c1.4,0.4,7.9,2.3,13.7,0.8
				c2.3-0.6,4.6,0.8,5.2,3.1c0.6,2.3-0.8,4.6-3.1,5.2C2074.5,1619.6,2071.9,1619.8,2069.6,1619.8z"/>
			<path class="st0" d="M2039.3,1660c-2.2,0-4.1-1.8-4.2-4c-0.2-2.4,1.6-4.4,4-4.6c27.7-1.9,46.4-11.9,55.5-29.5
				c7.2-13.9,6.2-28.7,5.9-33.6c-0.1-0.8-0.1-1.4-0.1-1.8c0-2.4,2-4.3,4.4-4.3c2.4,0,4.3,2,4.3,4.3c0,0.2,0,0.7,0.1,1.2
				c0.4,5.4,1.4,22-6.9,38.1c-4.8,9.2-11.8,16.7-21,22.3c-10.9,6.7-24.9,10.6-41.6,11.8C2039.6,1660,2039.5,1660,2039.3,1660z
				 M2109,1586.7L2109,1586.7L2109,1586.7z"/>
			<path class="st0" d="M2039,1645c-2.2,0-4.1-1.8-4.2-4.1c-0.1-2.4,1.7-4.4,4-4.6c10.1-0.6,16.9-4,19.4-9.7
				c1.8-4.2,0.7-8.1-0.3-9.3c-1.5-1.8-1.3-4.5,0.5-6.1c1.8-1.5,4.5-1.3,6.1,0.5c3.1,3.7,4.7,11.2,1.7,18.3
				c-5.1,11.9-19,14.4-26.8,14.9C2039.2,1645,2039.1,1645,2039,1645z"/>
		</g>
		<g>
			<path class="st0" d="M1979.1,1620.3c-7.3-0.1-13.7-3.5-14.5-3.9c-11.9-6.2-19.1-18.4-19-31.7c0.2-19.5,16.3-35.1,35.7-34.9
				c19.5,0.2,35.1,16.3,34.9,35.7c0,2.4-2,4.3-4.4,4.3c-2.4,0-4.3-2-4.3-4.4c0.2-14.7-11.7-26.8-26.4-27s-26.8,11.7-27,26.4
				c-0.1,10.1,5.4,19.3,14.4,24c0,0,0.1,0,0.1,0.1c0,0,5.9,3.2,11.6,2.8c2.4-0.2,4.4,1.6,4.6,4c0.2,2.4-1.6,4.4-4,4.6
				C1980.3,1620.3,1979.7,1620.3,1979.1,1620.3z"/>
			<path class="st0" d="M1946.6,1658.9c-2.2,0-4.1-1.8-4.2-4c-0.2-2.4,1.6-4.4,4-4.6c27.7-1.9,46.4-11.9,55.5-29.5
				c7.2-13.9,6.2-28.7,5.9-33.6c-0.1-0.8-0.1-1.4-0.1-1.8c0-2.4,2-4.3,4.4-4.3c2.4,0,4.3,2,4.3,4.3c0,0.2,0,0.7,0.1,1.2
				c0.4,5.4,1.4,22-6.9,38.1c-4.8,9.2-11.8,16.7-21,22.3c-10.9,6.7-24.9,10.6-41.6,11.8C1946.8,1658.9,1946.7,1658.9,1946.6,1658.9z
				 M2016.3,1585.6L2016.3,1585.6L2016.3,1585.6z"/>
			<path class="st0" d="M1946.2,1643.9c-2.2,0-4.1-1.8-4.2-4.1c-0.1-2.4,1.7-4.4,4-4.6c10.1-0.6,16.9-4,19.4-9.7
				c1.8-4.2,0.7-8.1-0.3-9.3c-1.5-1.8-1.3-4.5,0.5-6.1c1.8-1.5,4.5-1.3,6.1,0.5c3.1,3.7,4.7,11.2,1.7,18.3
				c-5.1,11.9-19,14.4-26.8,14.9C1946.4,1643.9,1946.3,1643.9,1946.2,1643.9z"/>
		</g>
	</g>
	<path class="st0" d="M1946.3,1739.8c-0.7,0-1.3-0.2-1.9-0.5c-1.4-0.7-2.3-2.2-2.3-3.9l0.3-24.5c-26.6-2.5-47.3-25.1-47-52.3
		l1.4-113.6c0.3-28.6,23.9-51.7,52.6-51.3l155.8,1.9c28.6,0.3,51.7,23.9,51.3,52.6l-1.4,113.6c-0.3,28.6-23.9,51.7-52.6,51.3
		l-115.7-1.4l-37.9,27.3C1948.1,1739.6,1947.2,1739.9,1946.3,1739.8z M1949.1,1502.4c-23.9-0.3-43.6,18.9-43.9,42.8l-1.4,113.6
		c-0.3,23.9,18.9,43.6,42.8,43.9c2.4,0,4.3,2,4.3,4.4l-0.2,20.1l32.1-23.2c0.7-0.5,1.6-0.8,2.6-0.8l117.1,1.4
		c23.9,0.3,43.6-18.9,43.9-42.8l1.4-113.6c0.3-23.9-18.9-43.6-42.8-43.9L1949.1,1502.4z"/>
</g>
<g>
	<g>
		<g>
			<path class="st0" d="M1388.9,1074.8c-8.8,2.5-16.7,2.2-17.2,2.1c-0.3,0-0.6-0.1-0.9-0.1c-19.4-3.8-34.8-18-40.2-37
				c-7.8-27.7,8.3-56.6,36-64.4c27.7-7.8,56.6,8.3,64.4,36c1,3.4-1,6.9-4.4,7.9c-3.4,1-6.9-1-7.9-4.4c-5.9-20.9-27.8-33.1-48.7-27.2
				s-33.1,27.8-27.2,48.7c4,14.2,15.5,24.9,29.9,27.9c2.1,0,12.2-0.1,19.8-4.6c3-1.8,6.9-0.8,8.7,2.2c1.8,3,0.8,6.9-2.2,8.7
				C1395.7,1072.5,1392.2,1073.9,1388.9,1074.8z"/>
			<path class="st0" d="M1362.9,1144.5c-3.2,0.9-6.5-0.8-7.7-3.9c-1.2-3.3,0.4-7,3.7-8.2c38.5-14.4,60.7-36.2,66.2-65
				c4.4-22.8-3.2-43.3-5.7-50c-0.4-1.1-0.7-1.9-0.9-2.5c-1-3.4,1-6.9,4.4-7.9c3.4-1,6.9,1,7.8,4.4c0.1,0.2,0.3,1,0.6,1.6
				c2.8,7.6,11.2,30.6,6.2,56.8c-2.9,15-9.7,28.6-20.3,40.4c-12.7,14-30.8,25.5-53.9,34.1
				C1363.3,1144.4,1363.1,1144.5,1362.9,1144.5z M1430.9,1011.5L1430.9,1011.5L1430.9,1011.5z"/>
			<path class="st0" d="M1356.1,1123.4c-3.2,0.9-6.6-0.8-7.7-4c-1.2-3.3,0.5-6.9,3.8-8.1c14-5.1,22.3-12.8,23.4-21.9
				c0.8-6.7-2.5-11.8-4.4-13.1c-2.9-1.9-3.7-5.9-1.8-8.8c1.9-2.9,5.9-3.7,8.8-1.8c6,4,11.4,13.9,10,25.2
				c-2.2,19-20.8,28.4-31.7,32.3C1356.4,1123.3,1356.3,1123.4,1356.1,1123.4z"/>
		</g>
		<g>
			<path class="st0" d="M1261,1113.6c-10.3,2.9-20.9,0.8-22.1,0.6c-19.4-3.8-34.8-18-40.2-37c-7.8-27.7,8.3-56.6,36-64.4
				c27.7-7.8,56.6,8.3,64.4,36c1,3.4-1,6.9-4.4,7.9c-3.4,1-6.9-1-7.9-4.4c-5.9-20.9-27.8-33.1-48.7-27.2s-33.1,27.8-27.2,48.7
				c4.1,14.4,15.7,25.1,30.4,28c0.1,0,0.1,0,0.2,0c0.1,0,9.7,2,17.6-0.9c3.3-1.2,7,0.5,8.2,3.8c1.2,3.3-0.5,7-3.8,8.2
				C1262.6,1113.1,1261.8,1113.3,1261,1113.6z"/>
			<path class="st0" d="M1231.1,1181.8c-3.2,0.9-6.5-0.8-7.7-3.9c-1.2-3.3,0.4-7,3.7-8.2c38.5-14.4,60.7-36.2,66.2-65
				c4.4-22.8-3.2-43.3-5.7-50c-0.4-1.1-0.7-1.9-0.9-2.5c-1-3.4,1-6.9,4.4-7.9c3.4-1,6.9,1,7.8,4.4c0.1,0.2,0.3,1,0.6,1.6
				c2.8,7.6,11.2,30.6,6.2,56.8c-2.9,15-9.7,28.6-20.3,40.4c-12.7,14-30.8,25.5-53.9,34.1
				C1231.4,1181.7,1231.2,1181.8,1231.1,1181.8z M1299,1048.8L1299,1048.8L1299,1048.8z"/>
			<path class="st0" d="M1224.3,1160.7c-3.2,0.9-6.6-0.8-7.7-4c-1.2-3.3,0.5-6.9,3.8-8.1c14-5.1,22.3-12.8,23.4-21.9
				c0.8-6.7-2.5-11.8-4.4-13.1c-2.9-1.9-3.7-5.9-1.8-8.8c1.9-2.9,5.9-3.7,8.8-1.8c6,4,11.4,13.9,10,25.2
				c-2.2,19-20.8,28.4-31.7,32.3C1224.6,1160.6,1224.4,1160.7,1224.3,1160.7z"/>
		</g>
	</g>
	<path class="st0" d="M1264.6,1296.6c-0.9,0.3-1.9,0.3-2.9,0.1c-2.4-0.5-4.3-2.2-4.9-4.5l-9.8-34.8c-38.7,7.6-77.6-15.8-88.5-54.4
		l-45.7-161.5c-11.5-40.7,12.2-83.2,52.9-94.7l221.4-62.6c40.7-11.5,83.2,12.2,94.7,52.9l45.7,161.5c11.5,40.7-12.2,83.2-52.9,94.7
		l-164.4,46.5l-42.2,54.6C1267,1295.5,1265.9,1296.2,1264.6,1296.6z M1169.1,959.1c-34,9.6-53.8,45.1-44.2,79l45.7,161.5
		c9.6,34,45.1,53.8,79,44.2c3.4-1,6.9,1,7.9,4.4l8.1,28.5l35.8-46.2c0.8-1.1,2-1.9,3.3-2.2L1471,1181c34-9.6,53.8-45.1,44.2-79
		l-45.7-161.5c-9.6-34-45.1-53.8-79-44.2L1169.1,959.1z"/>
</g>
<g>
	<g>
		<path class="st0" d="M299.2,427.5l-92.8,19.6c-13.7,2.9-27.2-5.9-30.1-19.6l-19.6-92.8c-2.9-13.7,5.9-27.2,19.6-30.1l110.3-23.3
			c4.1-0.9,8,1.7,8.9,5.8c0.9,4.1-1.7,8-5.8,8.9l-110.3,23.3c-5.6,1.2-9.2,6.7-8,12.3l19.6,92.8c1.2,5.6,6.7,9.2,12.3,8l92.8-19.6
			c5.6-1.2,9.2-6.7,8-12.3l-5.8-27.4c-0.9-4.1,1.7-8,5.8-8.9c4.1-0.9,8,1.7,8.9,5.8l5.8,27.4C321.7,411.1,313,424.6,299.2,427.5z"/>
		<path class="st0" d="M240.1,383.8c-1.9,0.4-4,0-5.6-1.1l-20.1-13.1c-3.5-2.3-4.5-6.9-2.2-10.4c2.3-3.5,6.9-4.5,10.4-2.2l13.4,8.7
			l57.1-100.5c2-3.6,6.6-4.9,10.2-2.8c3.6,2,4.9,6.6,2.8,10.2l-61,107.4c-1,1.8-2.7,3.1-4.7,3.6
			C240.3,383.8,240.2,383.8,240.1,383.8z"/>
		<g>
			<path class="st0" d="M620.4,245l-263.1,55.7c-4.1,0.9-8-1.7-8.9-5.8s1.7-8,5.8-8.9l263.1-55.7c4.1-0.9,8,1.7,8.9,5.8
				C627.1,240.1,624.5,244.1,620.4,245z"/>
			<path class="st0" d="M630.1,290.7L367,346.4c-4.1,0.9-8-1.7-8.9-5.8c-0.9-4.1,1.7-8,5.8-8.9L627,276c4.1-0.9,8,1.7,8.9,5.8
				C636.7,285.9,634.1,289.9,630.1,290.7z"/>
			<path class="st0" d="M487.9,368.6l-111.3,23.5c-4.1,0.9-8-1.7-8.9-5.8c-0.9-4.1,1.7-8,5.8-8.9l111.3-23.5c4.1-0.9,8,1.7,8.9,5.8
				C494.6,363.8,492,367.7,487.9,368.6z"/>
		</g>
	</g>
	<g>
		<path class="st0" d="M254.7,217.1l-92.8,19.6c-13.7,2.9-27.2-5.9-30.1-19.6l-19.6-92.8c-2.9-13.7,5.9-27.2,19.6-30.1l110.3-23.3
			c4.1-0.9,8,1.7,8.9,5.8c0.9,4.1-1.7,8-5.8,8.9l-110.3,23.3c-5.6,1.2-9.2,6.7-8,12.3l19.6,92.8c1.2,5.6,6.7,9.2,12.3,8l92.8-19.6
			c5.6-1.2,9.2-6.7,8-12.3l-5.8-27.4c-0.9-4.1,1.7-8,5.8-8.9c4.1-0.9,8,1.7,8.9,5.8l5.8,27.4C277.2,200.7,268.4,214.2,254.7,217.1z"
			/>
		<path class="st0" d="M195.6,173.4c-1.9,0.4-4,0-5.6-1.1l-20.1-13.1c-3.5-2.3-4.5-6.9-2.2-10.4c2.3-3.5,6.9-4.5,10.4-2.2l13.4,8.7
			L248.5,55c2-3.6,6.6-4.9,10.2-2.8c3.6,2,4.9,6.6,2.8,10.2l-61,107.4c-1,1.8-2.7,3.1-4.7,3.6C195.7,173.4,195.7,173.4,195.6,173.4z
			"/>
		<g>
			<path class="st0" d="M575.9,34.6L312.8,90.3c-4.1,0.9-8-1.7-8.9-5.8s1.7-8,5.8-8.9l263.1-55.7c4.1-0.9,8,1.7,8.9,5.8
				C582.5,29.7,579.9,33.7,575.9,34.6z"/>
			<path class="st0" d="M585.6,80.3L322.5,136c-4.1,0.9-8-1.7-8.9-5.8c-0.9-4.1,1.7-8,5.8-8.9l263.1-55.7c4.1-0.9,8,1.7,8.9,5.8
				C592.2,75.5,589.6,79.5,585.6,80.3z"/>
			<path class="st0" d="M443.4,158.2l-111.3,23.5c-4.1,0.9-8-1.7-8.9-5.8c-0.9-4.1,1.7-8,5.8-8.9l111.3-23.5c4.1-0.9,8,1.7,8.9,5.8
				C450,153.4,447.5,157.3,443.4,158.2z"/>
		</g>
	</g>
</g>
<g>
	<g>
		<path class="st0" d="M2413.5,1517.3l-58.8,12.4c-8.7,1.8-17.3-3.7-19.1-12.4l-12.4-58.8c-1.8-8.7,3.7-17.3,12.4-19.1l69.9-14.8
			c2.6-0.5,5.1,1.1,5.6,3.7c0.5,2.6-1.1,5.1-3.7,5.6l-69.9,14.8c-3.6,0.8-5.8,4.3-5.1,7.8l12.4,58.8c0.8,3.6,4.3,5.8,7.8,5.1
			l58.8-12.4c3.6-0.8,5.8-4.3,5.1-7.8l-3.7-17.4c-0.5-2.6,1.1-5.1,3.7-5.6c2.6-0.5,5.1,1.1,5.6,3.7l3.7,17.4
			C2427.7,1506.9,2422.2,1515.5,2413.5,1517.3z"/>
		<path class="st0" d="M2376,1489.6c-1.2,0.3-2.5,0-3.6-0.7l-12.7-8.3c-2.2-1.4-2.8-4.4-1.4-6.6c1.4-2.2,4.4-2.8,6.6-1.4l8.5,5.5
			l36.2-63.7c1.3-2.3,4.2-3.1,6.5-1.8c2.3,1.3,3.1,4.2,1.8,6.5l-38.7,68.1c-0.6,1.1-1.7,2-3,2.3
			C2376.1,1489.6,2376,1489.6,2376,1489.6z"/>
		<g>
			<path class="st0" d="M2617.1,1401.6l-166.8,35.3c-2.6,0.5-5.1-1.1-5.6-3.7c-0.5-2.6,1.1-5.1,3.7-5.6l166.8-35.3
				c2.6-0.5,5.1,1.1,5.6,3.7C2621.3,1398.5,2619.6,1401.1,2617.1,1401.6z"/>
			<path class="st0" d="M2623.2,1430.6l-166.8,35.3c-2.6,0.5-5.1-1.1-5.6-3.7c-0.5-2.6,1.1-5.1,3.7-5.6l166.8-35.3
				c2.6-0.5,5.1,1.1,5.6,3.7S2625.8,1430.1,2623.2,1430.6z"/>
			<path class="st0" d="M2533.1,1480l-70.5,14.9c-2.6,0.5-5.1-1.1-5.6-3.7c-0.5-2.6,1.1-5.1,3.7-5.6l70.5-14.9
				c2.6-0.5,5.1,1.1,5.6,3.7C2537.3,1476.9,2535.7,1479.4,2533.1,1480z"/>
		</g>
	</g>
	<g>
		<path class="st0" d="M2385.2,1384l-58.8,12.4c-8.7,1.8-17.3-3.7-19.1-12.4l-12.4-58.8c-1.8-8.7,3.7-17.3,12.4-19.1l69.9-14.8
			c2.6-0.5,5.1,1.1,5.6,3.7c0.5,2.6-1.1,5.1-3.7,5.6l-69.9,14.8c-3.6,0.8-5.8,4.3-5.1,7.8l12.4,58.8c0.8,3.6,4.3,5.8,7.8,5.1
			l58.8-12.4c3.6-0.8,5.8-4.3,5.1-7.8l-3.7-17.4c-0.5-2.6,1.1-5.1,3.7-5.6c2.6-0.5,5.1,1.1,5.6,3.7l3.7,17.4
			C2399.5,1373.6,2393.9,1382.1,2385.2,1384z"/>
		<path class="st0" d="M2347.8,1356.2c-1.2,0.3-2.5,0-3.6-0.7l-12.7-8.3c-2.2-1.4-2.8-4.4-1.4-6.6c1.4-2.2,4.4-2.8,6.6-1.4l8.5,5.5
			l36.2-63.7c1.3-2.3,4.2-3.1,6.5-1.8c2.3,1.3,3.1,4.2,1.8,6.5l-38.7,68.1c-0.6,1.1-1.7,2-3,2.3
			C2347.9,1356.2,2347.8,1356.2,2347.8,1356.2z"/>
		<g>
			<path class="st0" d="M2588.8,1268.2l-166.8,35.3c-2.6,0.5-5.1-1.1-5.6-3.7c-0.5-2.6,1.1-5.1,3.7-5.6l166.8-35.3
				c2.6-0.5,5.1,1.1,5.6,3.7C2593,1265.2,2591.4,1267.7,2588.8,1268.2z"/>
			<path class="st0" d="M2595,1297.2l-166.8,35.3c-2.6,0.5-5.1-1.1-5.6-3.7s1.1-5.1,3.7-5.6l166.8-35.3c2.6-0.5,5.1,1.1,5.6,3.7
				C2599.2,1294.2,2597.5,1296.7,2595,1297.2z"/>
			<path class="st0" d="M2504.9,1346.6l-70.5,14.9c-2.6,0.5-5.1-1.1-5.6-3.7c-0.5-2.6,1.1-5.1,3.7-5.6l70.5-14.9
				c2.6-0.5,5.1,1.1,5.6,3.7C2509.1,1343.5,2507.4,1346.1,2504.9,1346.6z"/>
		</g>
	</g>
</g>
<path class="st0" d="M2013.9,410.3l-294-105.2c-3.5-1.3-5.3-5.1-4.1-8.6l144.5-403.9c1.3-3.5,5.1-5.3,8.6-4.1l294,105.2
	c3.5,1.3,5.3,5.1,4.1,8.6l-51.7,144.5c-1.3,3.5-5.1,5.3-8.6,4.1c-3.5-1.3-5.3-5.1-4.1-8.6L2152,4.2L1870.7-96.5l-139.9,391.2
	l281.3,100.6l30.6-85.5c1.3-3.5,5.1-5.3,8.6-4.1c3.5,1.3,5.3,5.1,4.1,8.6l-32.8,91.8C2021.3,409.8,2017.4,411.6,2013.9,410.3z"/>
<g>
	<g>
		<path class="st0" d="M1913.7,49.1l-51-18.2c-3.5-1.3-5.3-5.1-4.1-8.6l18.2-51c1.3-3.5,5.1-5.3,8.6-4.1l51,18.2
			c3.5,1.3,5.3,5.1,4.1,8.6c-1.3,3.5-5.1,5.3-8.6,4.1l-44.6-16l-13.7,38.2l38.2,13.7l4.1-11.6c1.3-3.5,5.1-5.3,8.6-4.1
			c3.5,1.3,5.3,5.1,4.1,8.6l-6.4,17.9C1921.1,48.5,1917.2,50.4,1913.7,49.1z"/>
		<path class="st0" d="M1895.4,18.4c-1.7-0.6-3.1-1.9-3.8-3.5l-4.2-9c-1.6-3.4-0.2-7.4,3.2-9c3.4-1.6,7.4-0.2,9,3.2l1.2,2.5
			l38.6-21.2c3.3-1.8,7.4-0.6,9.2,2.7c1.8,3.3,0.6,7.4-2.7,9.2L1900.9,18c-1.6,0.9-3.6,1.1-5.3,0.5
			C1895.5,18.5,1895.4,18.4,1895.4,18.4z"/>
	</g>
	<g>
		<path class="st0" d="M1874.9,157.6l-51-18.2c-3.5-1.3-5.3-5.1-4.1-8.6l18.2-51c1.3-3.5,5.1-5.3,8.6-4.1l51,18.2
			c3.5,1.3,5.3,5.1,4.1,8.6c-1.3,3.5-5.1,5.3-8.6,4.1l-44.6-16l-13.7,38.2l38.2,13.7l4.1-11.6c1.3-3.5,5.1-5.3,8.6-4.1
			c3.5,1.3,5.3,5.1,4.1,8.6l-6.4,17.9C1882.3,157,1878.4,158.9,1874.9,157.6z"/>
		<path class="st0" d="M1856.6,126.9c-1.7-0.6-3.1-1.9-3.8-3.5l-4.2-9c-1.6-3.4-0.2-7.4,3.2-9c3.4-1.6,7.4-0.2,9,3.2l1.2,2.5
			l38.6-21.2c3.3-1.8,7.4-0.6,9.2,2.7c1.8,3.3,0.6,7.4-2.7,9.2l-44.8,24.6c-1.6,0.9-3.6,1.1-5.3,0.5
			C1856.7,126.9,1856.6,126.9,1856.6,126.9z"/>
	</g>
	<g>
		<path class="st0" d="M2096,56.8l-115.5-41.3c-3.5-1.3-5.3-5.1-4.1-8.6c1.3-3.5,5.1-5.3,8.6-4.1l115.5,41.3
			c3.5,1.3,5.3,5.1,4.1,8.6C2103.4,56.3,2099.5,58.1,2096,56.8z"/>
		<path class="st0" d="M2029.9,74.3L1967.5,52c-3.5-1.3-5.3-5.1-4.1-8.6s5.1-5.3,8.6-4.1l62.4,22.3c3.5,1.3,5.3,5.1,4.1,8.6
			S2033.5,75.6,2029.9,74.3z"/>
	</g>
	<g>
		<path class="st0" d="M2057.2,165.3L1941.7,124c-3.5-1.3-5.3-5.1-4.1-8.6c1.3-3.5,5.1-5.3,8.6-4.1l115.5,41.3
			c3.5,1.3,5.3,5.1,4.1,8.6C2064.6,164.8,2060.7,166.6,2057.2,165.3z"/>
		<path class="st0" d="M1991.1,182.8l-62.4-22.3c-3.5-1.3-5.3-5.1-4.1-8.6c1.3-3.5,5.1-5.3,8.6-4.1l62.4,22.3
			c3.5,1.3,5.3,5.1,4.1,8.6C1998.5,182.3,1994.6,184.1,1991.1,182.8z"/>
	</g>
	<g>
		<path class="st0" d="M1837,263.6l-51-18.2c-3.5-1.3-5.3-5.1-4.1-8.6l18.2-51c1.3-3.5,5.1-5.3,8.6-4.1l51,18.2
			c3.5,1.3,5.3,5.1,4.1,8.6c-1.3,3.5-5.1,5.3-8.6,4.1l-44.6-16l-13.7,38.2l38.2,13.7l4.1-11.6c1.3-3.5,5.1-5.3,8.6-4.1
			c3.5,1.3,5.3,5.1,4.1,8.6l-6.4,17.9C1844.4,263,1840.5,264.8,1837,263.6z"/>
		<path class="st0" d="M1818.7,232.9c-1.7-0.6-3.1-1.9-3.8-3.5l-4.2-9c-1.6-3.4-0.2-7.4,3.2-9c3.4-1.6,7.4-0.2,9,3.2l1.2,2.5
			l38.6-21.2c3.3-1.8,7.4-0.6,9.2,2.7c1.8,3.3,0.6,7.4-2.7,9.2l-44.8,24.6c-1.6,0.9-3.6,1.1-5.3,0.5
			C1818.8,232.9,1818.7,232.9,1818.7,232.9z"/>
	</g>
	<g>
		<path class="st0" d="M1970.6,253.9l-66.8-23.9c-3.5-1.3-5.3-5.1-4.1-8.6c1.3-3.5,5.1-5.3,8.6-4.1l66.8,23.9
			c3.5,1.3,5.3,5.1,4.1,8.6C1978,253.3,1974.1,255.1,1970.6,253.9z"/>
		<path class="st0" d="M1924.2,278.4l-33.4-11.9c-3.5-1.3-5.3-5.1-4.1-8.6s5.1-5.3,8.6-4.1l33.4,11.9c3.5,1.3,5.3,5.1,4.1,8.6
			S1927.7,279.7,1924.2,278.4z"/>
	</g>
</g>
<g>
	<path class="st0" d="M1929.6,347.5c-1.2-0.4-2.3-1.2-3.2-2.3c-1.6-2.1-1.8-4.9-0.5-7.2l24-44.4c0.5-0.9,1.1-1.6,1.9-2.2L2107.6,176
		c3-2.2,7.2-1.6,9.5,1.4c2.2,3,1.6,7.2-1.4,9.5l-154.5,114.5l-16.4,30.3l33.8-6.9l149.1-110.4l-2.9-3.9l-49.9,36.9
		c-3,2.2-7.2,1.6-9.5-1.4c-2.2-3-1.6-7.2,1.4-9.5l55.3-41c1.4-1.1,3.2-1.5,5-1.3c1.8,0.3,3.4,1.2,4.4,2.7l11,14.8
		c2.2,3,1.6,7.2-1.4,9.5l-155.7,115.4c-0.8,0.6-1.7,1-2.7,1.2l-49.4,10C1932,348,1930.7,347.9,1929.6,347.5z"/>
	<path class="st0" d="M2148,212.2c-1.2-0.4-2.3-1.2-3.1-2.3c-2.2-3-1.6-7.2,1.4-9.5l10.2-7.6c6.5-4.8,7.8-13.9,3-20.4
		c-4.8-6.5-13.9-7.8-20.4-3l-10.2,7.6c-3,2.2-7.2,1.6-9.5-1.4c-2.2-3-1.6-7.2,1.4-9.5l10.2-7.6c12.5-9.2,30.1-6.6,39.3,5.9
		c9.2,12.5,6.6,30.1-5.9,39.3l-10.2,7.6C2152.5,212.7,2150.1,213,2148,212.2z"/>
</g>
<path class="st0" d="M501.5,1191.9l-195.3,52.4c-2.3,0.6-4.7-0.8-5.4-3.1L229,972.9c-0.6-2.3,0.8-4.7,3.1-5.4l195.3-52.4
	c2.3-0.6,4.7,0.8,5.4,3.1l25.7,96c0.6,2.3-0.8,4.7-3.1,5.4s-4.7-0.8-5.4-3.1l-24.6-91.7l-186.8,50.1l69.7,259.8l186.8-50.1
	l-15.2-56.8c-0.6-2.3,0.8-4.7,3.1-5.4s4.7,0.8,5.4,3.1l16.4,61C505.2,1188.9,503.9,1191.3,501.5,1191.9z"/>
<g>
	<g>
		<path class="st0" d="M315.1,1036.5l-33.8,9.1c-2.3,0.6-4.7-0.8-5.4-3.1l-9.1-33.8c-0.6-2.3,0.8-4.7,3.1-5.4l33.8-9.1
			c2.3-0.6,4.7,0.8,5.4,3.1c0.6,2.3-0.8,4.7-3.1,5.4l-29.6,7.9l6.8,25.4l25.4-6.8l-2.1-7.7c-0.6-2.3,0.8-4.7,3.1-5.4
			c2.3-0.6,4.7,0.8,5.4,3.1l3.2,11.9C318.8,1033.5,317.4,1035.9,315.1,1036.5z"/>
		<path class="st0" d="M294,1027c-1.1,0.3-2.3,0.1-3.3-0.4l-5.6-3.2c-2.1-1.2-2.8-3.9-1.6-6c1.2-2.1,3.9-2.8,6-1.6l1.5,0.9
			l12.7-25.5c1.1-2.2,3.7-3,5.9-2c2.2,1.1,3,3.7,2,5.9l-14.8,29.6c-0.5,1.1-1.5,1.9-2.7,2.2C294.1,1026.9,294,1026.9,294,1027z"/>
	</g>
	<g>
		<path class="st0" d="M334.4,1108.6l-33.8,9.1c-2.3,0.6-4.7-0.8-5.4-3.1l-9.1-33.8c-0.6-2.3,0.8-4.7,3.1-5.4l33.8-9.1
			c2.3-0.6,4.7,0.8,5.4,3.1s-0.8,4.7-3.1,5.4l-29.6,7.9l6.8,25.4l25.4-6.8l-2.1-7.7c-0.6-2.3,0.8-4.7,3.1-5.4
			c2.3-0.6,4.7,0.8,5.4,3.1l3.2,11.9C338.1,1105.6,336.7,1108,334.4,1108.6z"/>
		<path class="st0" d="M313.3,1099c-1.1,0.3-2.3,0.1-3.3-0.4l-5.6-3.2c-2.1-1.2-2.8-3.9-1.6-6c1.2-2.1,3.9-2.8,6-1.6l1.5,0.9
			l12.7-25.5c1.1-2.2,3.7-3,5.9-2c2.2,1.1,3,3.7,2,5.9l-14.8,29.6c-0.5,1.1-1.5,1.9-2.7,2.2C313.4,1099,313.4,1099,313.3,1099z"/>
	</g>
	<g>
		<path class="st0" d="M415,973.5L338.3,994c-2.3,0.6-4.7-0.8-5.4-3.1c-0.6-2.3,0.8-4.7,3.1-5.4l76.7-20.6c2.3-0.6,4.7,0.8,5.4,3.1
			C418.7,970.5,417.3,972.8,415,973.5z"/>
		<path class="st0" d="M386.3,1007.1l-41.5,11.1c-2.3,0.6-4.7-0.8-5.4-3.1c-0.6-2.3,0.8-4.7,3.1-5.4l41.5-11.1
			c2.3-0.6,4.7,0.8,5.4,3.1C390,1004.1,388.6,1006.5,386.3,1007.1z"/>
	</g>
	<g>
		<path class="st0" d="M434.3,1045.5l-76.7,20.6c-2.3,0.6-4.7-0.8-5.4-3.1s0.8-4.7,3.1-5.4l76.7-20.6c2.3-0.6,4.7,0.8,5.4,3.1
			S436.6,1044.9,434.3,1045.5z"/>
		<path class="st0" d="M405.6,1079.2l-41.5,11.1c-2.3,0.6-4.7-0.8-5.4-3.1c-0.6-2.3,0.8-4.7,3.1-5.4l41.5-11.1
			c2.3-0.6,4.7,0.8,5.4,3.1S407.9,1078.6,405.6,1079.2z"/>
	</g>
	<g>
		<path class="st0" d="M353.3,1179l-33.8,9.1c-2.3,0.6-4.7-0.8-5.4-3.1l-9.1-33.8c-0.6-2.3,0.8-4.7,3.1-5.4l33.8-9.1
			c2.3-0.6,4.7,0.8,5.4,3.1c0.6,2.3-0.8,4.7-3.1,5.4l-29.6,7.9l6.8,25.4l25.4-6.8l-2.1-7.7c-0.6-2.3,0.8-4.7,3.1-5.4
			c2.3-0.6,4.7,0.8,5.4,3.1l3.2,11.9C357,1175.9,355.6,1178.3,353.3,1179z"/>
		<path class="st0" d="M332.2,1169.4c-1.1,0.3-2.3,0.1-3.3-0.4l-5.6-3.2c-2.1-1.2-2.8-3.9-1.6-6c1.2-2.1,3.9-2.8,6-1.6l1.5,0.9
			l12.7-25.5c1.1-2.2,3.7-3,5.9-2s3,3.7,2,5.9l-14.8,29.6c-0.5,1.1-1.5,1.9-2.7,2.2C332.3,1169.4,332.2,1169.4,332.2,1169.4z"/>
	</g>
	<g>
		<path class="st0" d="M420.8,1124.6l-44.3,11.9c-2.3,0.6-4.7-0.8-5.4-3.1c-0.6-2.3,0.8-4.7,3.1-5.4l44.3-11.9
			c2.3-0.6,4.7,0.8,5.4,3.1S423.2,1123.9,420.8,1124.6z"/>
		<path class="st0" d="M405.1,1154.7l-22.2,5.9c-2.3,0.6-4.7-0.8-5.4-3.1s0.8-4.7,3.1-5.4l22.2-5.9c2.3-0.6,4.7,0.8,5.4,3.1
			S407.5,1154.1,405.1,1154.7z"/>
	</g>
</g>
<g>
	<path class="st0" d="M433.5,1189.5c-0.8,0.2-1.7,0.2-2.5-0.1c-1.6-0.5-2.8-2-2.9-3.7l-3.6-32.5c-0.1-0.6,0-1.3,0.2-1.9l40.4-118.8
		c0.8-2.3,3.3-3.5,5.5-2.7c2.3,0.8,3.5,3.3,2.7,5.5l-40.1,117.9l2.4,22.2l15.5-16.1l38.7-113.7l-3-1l-12.9,38
		c-0.8,2.3-3.3,3.5-5.5,2.7c-2.3-0.8-3.5-3.3-2.7-5.5l14.3-42.2c0.4-1.1,1.2-2,2.2-2.5c1-0.5,2.2-0.6,3.3-0.2l11.3,3.8
		c2.3,0.8,3.5,3.3,2.7,5.5l-40.4,118.8c-0.2,0.6-0.5,1.2-1,1.6l-22.6,23.6C435,1188.9,434.3,1189.3,433.5,1189.5z"/>
	<path class="st0" d="M499.9,1037c-0.8,0.2-1.7,0.2-2.5-0.1c-2.3-0.8-3.5-3.3-2.7-5.5l2.7-7.8c1.7-4.9-1-10.3-5.9-12
		c-4.9-1.7-10.3,1-12,5.9l-2.7,7.8c-0.8,2.3-3.3,3.5-5.5,2.7c-2.3-0.8-3.5-3.3-2.7-5.5l2.7-7.8c3.2-9.5,13.6-14.6,23.1-11.4
		c9.5,3.2,14.6,13.6,11.4,23.1l-2.7,7.8C502.5,1035.6,501.3,1036.7,499.9,1037z"/>
</g>
<g>
	<path class="st0" d="M1261.5,285.4C1261.5,285.4,1261.5,285.4,1261.5,285.4c-2.1,0.4-4.2-0.2-5.6-1.8l-21.3-23.6l-6.8,1.5
		c-30.8,6.8-62.5,1.1-89.3-16.1c-26.8-17.1-45.2-43.5-52-74.4c-6.8-30.9-1.1-62.7,16.1-89.6c17.2-26.8,43.7-45.4,74.6-52.1l54-11.9
		c63.2-13.9,125.9,26.3,139.8,89.5l0.6,2.8c13.9,63.2-26.3,125.9-89.5,139.8l-6.3,1.4l-9.9,30.5
		C1265.2,283.5,1263.6,285,1261.5,285.4z M1179.7,40.9c-27.8,6.1-51.7,22.8-67.2,47c-15.5,24.2-20.6,52.8-14.5,80.7
		c6.1,27.7,22.7,51.5,46.8,66.9c24.1,15.4,52.7,20.6,80.4,14.5l10.2-2.2c2.1-0.5,4.2,0.2,5.6,1.8l16.8,18.6l7.8-24
		c0.6-2,2.3-3.5,4.3-3.9l9.6-2.1c56.9-12.5,93-68.9,80.5-125.7l-0.6-2.8c-12.5-56.9-68.9-93-125.8-80.5L1179.7,40.9z"/>
	<g>
		<path class="st0" d="M1180.9,171c-11.1,2.4-22.1-4.6-24.5-15.7c-2.4-11.1,4.6-22.1,15.7-24.5s22.1,4.6,24.5,15.7
			C1199,157.6,1192,168.6,1180.9,171z M1174.6,142.3c-4.7,1-7.7,5.7-6.7,10.5c1,4.7,5.7,7.7,10.5,6.7c4.7-1,7.7-5.7,6.7-10.5
			C1184,144.3,1179.3,141.3,1174.6,142.3z"/>
		<path class="st0" d="M1233.2,159.5c-11.1,2.4-22.1-4.6-24.5-15.7c-2.4-11.1,4.6-22.1,15.7-24.5c11.1-2.4,22.1,4.6,24.5,15.7
			C1251.4,146.1,1244.3,157.1,1233.2,159.5z M1226.9,130.9c-4.7,1-7.7,5.7-6.7,10.5c1,4.7,5.7,7.7,10.5,6.7c4.7-1,7.7-5.7,6.7-10.5
			C1236.4,132.8,1231.7,129.8,1226.9,130.9z"/>
		<path class="st0" d="M1285.6,148c-11.1,2.4-22.1-4.6-24.5-15.7c-2.4-11.1,4.6-22.1,15.7-24.5c11.1-2.4,22.1,4.6,24.5,15.7
			C1303.7,134.6,1296.6,145.6,1285.6,148z M1279.3,119.4c-4.7,1-7.7,5.7-6.7,10.5c1,4.7,5.7,7.7,10.5,6.7c4.7-1,7.7-5.7,6.7-10.5
			C1288.7,121.3,1284,118.3,1279.3,119.4z"/>
	</g>
	<path class="st0" d="M1448.6,332c-1,0.2-2.1,0.2-3.1-0.2l-33.8-11.3c-10.7,7.2-22.5,12.3-35.2,15.1l-46.6,10.2
		c-22.5,4.9-46.3,2-67-8.2c-20.4-10-37.1-26.7-47-46.9c-1.4-2.9-0.2-6.5,2.7-7.9c2.9-1.4,6.5-0.2,7.9,2.7
		c8.8,17.9,23.5,32.6,41.6,41.5c18.6,9.2,39.1,11.7,59.2,7.2l46.6-10.2c12.1-2.7,23.3-7.7,33.3-14.9c1.5-1.1,3.5-1.4,5.3-0.8
		l22.5,7.5l-9.8-18.4c-1.1-2-0.9-4.5,0.5-6.4c16.1-21,22.1-47.9,16.4-73.7l-0.5-2.4c-5.8-26.3-22.9-48.4-46.9-60.6
		c-2.9-1.5-4.1-5-2.6-7.9c1.5-2.9,5-4.1,7.9-2.6c27.2,13.8,46.5,38.9,53.1,68.6l0.5,2.4c6.1,28,0.2,57-16.3,80.3l15,28.2
		c1.1,2.1,0.9,4.7-0.7,6.6C1451,331.1,1449.9,331.8,1448.6,332z"/>
	<path class="st0" d="M1112.8,360.4c-1.2,0.3-2.6,0.1-3.8-0.4c-2.2-1-3.5-3.3-3.4-5.7l1.9-31.9c-24.7-14.2-42.3-38.1-48.4-66.1
		l-0.5-2.4c-5-22.9-1.9-47,8.7-67.8c1.5-2.9,5-4.1,7.9-2.6c2.9,1.5,4.1,5,2.6,7.9c-9.4,18.4-12.2,39.7-7.7,59.9l0.5,2.4
		c5.7,25.8,22.4,47.7,45.8,60.1c2,1.1,3.3,3.3,3.1,5.6l-1.2,20.8l17.3-16.3c1.4-1.3,3.3-1.9,5.2-1.5c12.1,2.4,24.4,2.2,36.5-0.4
		l32.3-7.1c3.2-0.7,6.3,1.3,7,4.5c0.7,3.2-1.3,6.3-4.5,7l-32.3,7.1c-12.7,2.8-25.6,3.1-38.3,1l-25.9,24.4
		C1114.8,359.7,1113.8,360.2,1112.8,360.4z"/>
</g>
<g>
	<g>
		<path class="st0" d="M2149.6,616.8l-92.3-27.5c-2.3-0.7-3.6-3.1-2.9-5.3c0.7-2.3,3.1-3.6,5.3-2.9l92.3,27.5
			c2.3,0.7,3.6,3.1,2.9,5.3C2154.2,616.2,2151.8,617.5,2149.6,616.8z"/>
		<path class="st0" d="M2129.6,587.2c-2.1-0.6-3.4-2.8-3-5c0.5-2.3,2.8-3.8,5.1-3.3c9.7,2.1,17.7,0.5,24.3-4.9
			c19.3-15.6,19.6-57.2,19.6-57.6c0-2.3,1.6-4.2,3.9-4.3c1-0.1,12.8-2.4,17.5-27.3c1.4-7.5,0.5-13.2-2.8-16.8
			c-3.6-3.9-9.3-4.9-12.8-5.1c-4.7,17.6-12.2,30.5-22.5,38.5c-9.3,7.2-18.9,8.8-24.6,9.8c-0.5,0.1-1,0.2-1.4,0.2
			c-2.3,0.4-4.4,1.2-6.2,2.4l-12.7,8.3c-1.1,0.7-2.4,0.9-3.6,0.5l-30.6-9.1c-2.3-0.7-3.6-3.1-2.9-5.3c0.7-2.3,3.1-3.6,5.3-2.9
			l28.7,8.6l11-7.2c2.8-1.8,6-3.1,9.4-3.7c0.5-0.1,1-0.2,1.5-0.3c11-1.9,31.6-5.4,41-45.1c0.4-1.8,1.9-3.1,3.8-3.3
			c0.6-0.1,14.6-1.2,22.9,7.8c5.2,5.7,6.8,13.8,4.9,24.1c-2.5,13.2-7.2,23-14.1,29c-2.7,2.3-5.2,3.6-7.2,4.4
			c-0.5,10.9-3.5,45.5-22.7,60.9c-8.6,7-19.2,9.2-31.4,6.6C2129.9,587.2,2129.8,587.2,2129.6,587.2z"/>
		<path class="st0" d="M2215.1,557.5l-27.2-8.1c-8.8-2.6-13.8-11.9-11.2-20.7l0.7-2.5c2.6-8.8,11.9-13.8,20.7-11.2l27.2,8.1
			c8.8,2.6,13.8,11.9,11.2,20.7l-0.7,2.5C2233.2,555.1,2223.9,560.1,2215.1,557.5z M2195.7,523.3c-4.3-1.3-8.8,1.2-10,5.4l-0.7,2.5
			c-1.3,4.3,1.2,8.8,5.4,10l27.2,8.1c4.3,1.3,8.8-1.2,10-5.4l0.7-2.5c1.3-4.3-1.2-8.8-5.4-10L2195.7,523.3z"/>
		<path class="st0" d="M2207.3,583.6l-27.2-8.1c-8.8-2.6-13.8-11.9-11.2-20.7l0.7-2.5c2.6-8.8,11.9-13.8,20.7-11.2l27.2,8.1
			c8.8,2.6,13.8,11.9,11.2,20.7l-0.7,2.5C2225.4,581.3,2216.1,586.3,2207.3,583.6z M2187.9,549.4c-4.3-1.3-8.8,1.2-10,5.4l-0.7,2.5
			c-1.3,4.3,1.2,8.8,5.4,10l27.2,8.1c4.3,1.3,8.8-1.2,10-5.4l0.7-2.5c1.3-4.3-1.2-8.8-5.4-10L2187.9,549.4z"/>
		<path class="st0" d="M2197,609l-27.2-8.1c-8.8-2.6-13.8-11.9-11.2-20.7l0.7-2.5c2.6-8.8,11.9-13.8,20.7-11.2l27.2,8.1
			c8.8,2.6,13.8,11.9,11.2,20.7l-0.7,2.5C2215,606.6,2205.7,611.6,2197,609z M2177.5,574.8c-4.3-1.3-8.8,1.2-10,5.4l-0.7,2.5
			c-1.3,4.3,1.2,8.8,5.4,10l27.2,8.1c4.3,1.3,8.8-1.2,10-5.4l0.7-2.5c1.3-4.3-1.2-8.8-5.4-10L2177.5,574.8z"/>
		<path class="st0" d="M2186.6,634.4l-27.2-8.1c-8.8-2.6-13.8-11.9-11.2-20.7l0.7-2.5c2.6-8.8,11.9-13.8,20.7-11.2l27.2,8.1
			c8.8,2.6,13.8,11.9,11.2,20.7l-0.7,2.5C2204.7,632,2195.4,637,2186.6,634.4z M2167.1,600.1c-4.3-1.3-8.8,1.2-10,5.4l-0.7,2.5
			c-1.3,4.3,1.2,8.8,5.4,10l27.2,8.1c4.3,1.3,8.8-1.2,10-5.4l0.7-2.5c1.3-4.3-1.2-8.8-5.4-10L2167.1,600.1z"/>
	</g>
</g>
<g>
	<g>
		<path class="st0" d="M820.7,1517.1l-142.3,40.2c-3.5,1-7.1-1-8.1-4.6c-1-3.5,1-7.1,4.6-8.1l142.3-40.2c3.5-1,7.1,1,8.1,4.6
			C826.3,1512.4,824.3,1516.1,820.7,1517.1z"/>
		<path class="st0" d="M770.5,1495c-3.3,0.9-6.7-0.8-8-4c-1.3-3.4,0.5-7.2,3.9-8.5c14.3-5.4,23.3-14,27.5-26.3
			c12.2-36.1-21.6-90.3-22-90.8c-1.9-3-1.3-6.7,1.6-8.8c1.2-1,14.7-13.7,0.2-49.8c-4.4-10.9-10.3-17.5-17.5-19.5
			c-7.8-2.1-16.1,1.4-20.8,4c8.4,26.7,9.2,49.7,2.5,68.4c-6.1,17-17.2,27-23.8,33c-0.6,0.5-1.1,1-1.6,1.5c-2.6,2.4-4.7,5.2-6.1,8.3
			l-9.7,21.2c-0.8,1.8-2.3,3.1-4.2,3.6l-47.1,13.3c-3.5,1-7.1-1-8.1-4.6c-1-3.5,1-7.1,4.6-8.1l44.2-12.5l8.4-18.4
			c2.2-4.7,5.2-8.9,9.1-12.5c0.5-0.5,1.1-1,1.7-1.5c12.8-11.5,36.5-33,16.1-92.3c-0.9-2.7,0-5.6,2.2-7.4c0.7-0.6,17.9-13.6,36.2-8.7
			c11.4,3.1,20.2,12.3,26.2,27.3c7.7,19.2,9.6,35.8,5.5,49.2c-1.6,5.2-3.8,9-5.7,11.6c8.3,14.5,32.8,61.9,20.7,97.7
			c-5.4,16.1-17.3,27.7-35.3,34.4C770.9,1494.9,770.7,1494.9,770.5,1495z"/>
		<path class="st0" d="M857,1386.2l-42,11.9c-13.6,3.8-27.7-4.1-31.5-17.6l-1.1-3.8c-3.8-13.6,4.1-27.7,17.6-31.5l42-11.9
			c13.6-3.8,27.7,4.1,31.5,17.6l1.1,3.8C878.4,1368.2,870.5,1382.4,857,1386.2z M803.5,1357.8c-6.6,1.9-10.4,8.7-8.5,15.3l1.1,3.8
			c1.9,6.6,8.7,10.4,15.3,8.5l42-11.9c6.6-1.9,10.4-8.7,8.5-15.3l-1.1-3.8c-1.9-6.6-8.7-10.4-15.3-8.5L803.5,1357.8z"/>
		<path class="st0" d="M868.3,1426.5l-42,11.9c-13.6,3.8-27.7-4.1-31.5-17.6l-1.1-3.8c-3.8-13.6,4.1-27.7,17.6-31.5l42-11.9
			c13.6-3.8,27.7,4.1,31.5,17.6l1.1,3.8C889.8,1408.5,881.9,1422.7,868.3,1426.5z M814.9,1398.1c-6.6,1.9-10.4,8.7-8.5,15.3l1.1,3.8
			c1.9,6.6,8.7,10.4,15.3,8.5l42-11.9c6.6-1.9,10.4-8.7,8.5-15.3l-1.1-3.8c-1.9-6.6-8.7-10.4-15.3-8.5L814.9,1398.1z"/>
		<path class="st0" d="M875.8,1467.9l-42,11.9c-13.6,3.8-27.7-4.1-31.5-17.6l-1.1-3.8c-3.8-13.6,4.1-27.7,17.6-31.5l42-11.9
			c13.6-3.8,27.7,4.1,31.5,17.6l1.1,3.8C897.3,1449.9,889.3,1464.1,875.8,1467.9z M822.4,1439.5c-6.6,1.9-10.4,8.7-8.5,15.3l1.1,3.8
			c1.9,6.6,8.7,10.4,15.3,8.5l42-11.9c6.6-1.9,10.4-8.7,8.5-15.3l-1.1-3.8c-1.9-6.6-8.7-10.4-15.3-8.5L822.4,1439.5z"/>
		<path class="st0" d="M883.2,1509.4l-42,11.9c-13.6,3.8-27.7-4.1-31.5-17.6l-1.1-3.8c-3.8-13.6,4.1-27.7,17.6-31.5l42-11.9
			c13.6-3.8,27.7,4.1,31.5,17.6l1.1,3.8C904.7,1491.4,896.8,1505.5,883.2,1509.4z M829.8,1480.9c-6.6,1.9-10.4,8.7-8.5,15.3l1.1,3.8
			c1.9,6.6,8.7,10.4,15.3,8.5l42-11.9c6.6-1.9,10.4-8.7,8.5-15.3l-1.1-3.8c-1.9-6.6-8.7-10.4-15.3-8.5L829.8,1480.9z"/>
	</g>
</g>
<g>
	<g>
		<path class="st0" d="M1971.8,1274.7l-207.1-3.7c-5.1-0.1-9.2-4.3-9.1-9.4c0.1-5.1,4.3-9.2,9.4-9.1l207.1,3.7
			c5.1,0.1,9.2,4.3,9.1,9.4C1981.1,1270.8,1976.9,1274.8,1971.8,1274.7z"/>
		<path class="st0" d="M1913.4,1224.8c-4.8-0.1-8.7-3.8-9-8.6c-0.3-5.1,3.5-9.5,8.6-9.8c21.4-1.4,36.9-9.3,47.4-24.1
			c30.9-43.4,7.5-129.8,7.3-130.6c-1.3-4.8,1-9.6,5.6-11.1c2-0.9,25.2-12.4,20.4-66.7c-1.5-16.5-6.7-27.6-15.5-33.2
			c-9.6-6-22.2-4.7-29.5-3.1c0.5,39.1-7.7,70.3-24.4,92.8c-15.1,20.3-34,29.2-45.3,34.5c-1,0.5-1.9,0.9-2.8,1.3
			c-4.5,2.2-8.3,5.1-11.5,8.7l-21.6,24.5c-1.8,2-4.4,3.2-7.1,3.1l-68.6-1.2c-5.1-0.1-9.2-4.3-9.1-9.4c0.1-5.1,4.3-9.2,9.4-9.1
			l64.3,1.2l18.7-21.3c4.8-5.5,10.6-9.9,17.3-13.1c0.9-0.4,1.9-0.9,2.9-1.4c21.8-10.3,62.3-29.5,58.9-117.2c-0.2-4,2.2-7.6,5.9-9
			c1.2-0.5,29.6-11,52,3c14,8.8,22.2,24.6,24.1,47.2c2.5,28.9-1.7,51.8-12.5,68.2c-4.2,6.3-8.7,10.5-12.4,13.2
			c5.3,22.9,18.9,96.2-11.8,139.4c-13.8,19.4-34.4,30.1-61.3,31.8C1913.9,1224.8,1913.6,1224.8,1913.4,1224.8z"/>
		<path class="st0" d="M2073.3,1114l-61.1-1.1c-19.7-0.4-35.5-16.7-35.1-36.4l0.1-5.5c0.4-19.7,16.7-35.5,36.4-35.1l61.1,1.1
			c19.7,0.4,35.5,16.7,35.1,36.4l-0.1,5.5C2109.4,1098.6,2093,1114.3,2073.3,1114z M2013.2,1054.2c-9.6-0.2-17.5,7.5-17.6,17
			l-0.1,5.5c-0.2,9.6,7.5,17.5,17,17.6l61.1,1.1c9.6,0.2,17.5-7.5,17.6-17l0.1-5.5c0.2-9.6-7.5-17.5-17-17.6L2013.2,1054.2z"/>
		<path class="st0" d="M2072.3,1172.6l-61.1-1.1c-19.7-0.4-35.5-16.7-35.1-36.4l0.1-5.5c0.4-19.7,16.7-35.5,36.4-35.1l61.1,1.1
			c19.7,0.4,35.5,16.7,35.1,36.4l-0.1,5.5C2108.3,1157.2,2092,1173,2072.3,1172.6z M2012.2,1112.9c-9.6-0.2-17.5,7.5-17.6,17
			l-0.1,5.5c-0.2,9.6,7.5,17.5,17,17.6l61.1,1.1c9.6,0.2,17.5-7.5,17.6-17l0.1-5.5c0.2-9.6-7.5-17.5-17-17.6L2012.2,1112.9z"/>
		<path class="st0" d="M2065.4,1231.2l-61.1-1.1c-19.7-0.4-35.5-16.7-35.1-36.4l0.1-5.5c0.4-19.7,16.7-35.5,36.4-35.1l61.1,1.1
			c19.7,0.4,35.5,16.7,35.1,36.4l-0.1,5.5C2101.5,1215.8,2085.2,1231.5,2065.4,1231.2z M2005.3,1171.4c-9.6-0.2-17.5,7.5-17.6,17
			l-0.1,5.5c-0.2,9.6,7.5,17.5,17,17.6l61.1,1.1c9.6,0.2,17.5-7.5,17.6-17l0.1-5.5c0.2-9.6-7.5-17.5-17-17.6L2005.3,1171.4z"/>
		<path class="st0" d="M2058.6,1289.7l-61.1-1.1c-19.7-0.4-35.5-16.7-35.1-36.4l0.1-5.5c0.4-19.7,16.7-35.5,36.4-35.1l61.1,1.1
			c19.7,0.4,35.5,16.7,35.1,36.4l-0.1,5.5C2094.7,1274.3,2078.4,1290.1,2058.6,1289.7z M1998.5,1230c-9.6-0.2-17.5,7.5-17.6,17
			l-0.1,5.5c-0.2,9.6,7.5,17.5,17,17.6l61.1,1.1c9.6,0.2,17.5-7.5,17.6-17l0.1-5.5c0.2-9.6-7.5-17.5-17-17.6L1998.5,1230z"/>
	</g>
</g>
<g>
	<g>
		<path class="st0" d="M3143,1424.3c-57.2-20.2-87.4-83.1-67.2-140.4s83.1-87.4,140.4-67.2c57.2,20.2,87.4,83.1,67.2,140.4
			S3200.3,1444.4,3143,1424.3z M3211.2,1230.8c-49.4-17.4-103.8,8.6-121.2,58.1c-17.4,49.4,8.6,103.8,58.1,121.2
			c49.4,17.4,103.8-8.6,121.2-58.1C3286.7,1302.6,3260.6,1248.2,3211.2,1230.8z"/>
		<path class="st0" d="M3230.7,1376.4c-0.9-0.3-1.8-0.8-2.6-1.5c-3.1-2.8-3.3-7.5-0.5-10.6c5.9-6.4,10.3-13.9,13.2-22.2
			c7.9-22.5,2.9-47.5-13.1-65.2c-2.8-3.1-2.5-7.8,0.5-10.6s7.8-2.5,10.6,0.5c19.7,21.8,25.9,52.6,16.1,80.3
			c-3.6,10.2-9.1,19.4-16.3,27.3C3236.7,1376.6,3233.5,1377.3,3230.7,1376.4z"/>
		<path class="st0" d="M3207.5,1261.7c-0.2-0.1-0.4-0.2-0.6-0.3c-1.8-0.8-3.7-1.6-5.6-2.3c-3.9-1.4-6-5.7-4.6-9.6s5.7-6,9.6-4.6
			c2.3,0.8,4.7,1.8,6.9,2.8c3.8,1.7,5.4,6.2,3.7,9.9C3215.1,1261.3,3211.1,1262.9,3207.5,1261.7z"/>
		<path class="st0" d="M3278.4,1539c-1.8-0.6-3.4-2-4.3-3.8l-57-118.9c-1.8-3.7-0.2-8.2,3.5-10c3.7-1.8,8.2-0.2,10,3.5l57,118.9
			c1.8,3.7,0.2,8.2-3.5,10C3282.2,1539.5,3280.2,1539.6,3278.4,1539z"/>
	</g>
	<path class="st0" d="M3161.3,1484.2L2870,1381.6c-3.9-1.4-6-5.7-4.6-9.6l142.7-405c1.4-3.9,5.7-6,9.6-4.6L3309,1065
		c3.9,1.4,6,5.7,4.6,9.6l-48.9,138.7c-1.4,3.9-5.7,6-9.6,4.6c-3.9-1.4-6-5.7-4.6-9.6l46.4-131.6L3019.7,979L2882,1369.9l277.2,97.7
		l3.8-10.9c1.4-3.9,5.7-6,9.6-4.6c3.9,1.4,6,5.7,4.6,9.6l-6.3,18C3169.5,1483.5,3165.2,1485.6,3161.3,1484.2z"/>
	<path class="st0" d="M3281.8,1248.5c-3.9-1.4-6-5.7-4.6-9.6l64.3-182.4l-284.3-100.1c-3.9-1.4-6-5.7-4.6-9.6c1.4-3.9,5.7-6,9.6-4.6
		l291.4,102.6c3.9,1.4,6,5.7,4.6,9.6l-66.8,189.5C3290,1247.8,3285.7,1249.8,3281.8,1248.5z"/>
	<path class="st0" d="M3098.6,1082.4l-56.8-20c-3.9-1.4-6-5.7-4.6-9.6s5.7-6,9.6-4.6l56.8,20c3.9,1.4,6,5.7,4.6,9.6
		S3102.5,1083.8,3098.6,1082.4z"/>
	<path class="st0" d="M3216.9,1186.9l-194.8-68.6c-3.9-1.4-6-5.7-4.6-9.6c1.4-3.9,5.7-6,9.6-4.6l194.8,68.6c3.9,1.4,6,5.7,4.6,9.6
		C3225,1186.3,3220.8,1188.3,3216.9,1186.9z"/>
	<path class="st0" d="M3115.5,1193.6l-106.8-37.6c-3.9-1.4-6-5.7-4.6-9.6s5.7-6,9.6-4.6l106.8,37.6c3.9,1.4,6,5.7,4.6,9.6
		S3119.5,1195,3115.5,1193.6z"/>
	<path class="st0" d="M3071.8,1220.6l-76.3-26.9c-3.9-1.4-6-5.7-4.6-9.6c1.4-3.9,5.7-6,9.6-4.6l76.3,26.9c3.9,1.4,6,5.7,4.6,9.6
		C3080,1219.9,3075.7,1222,3071.8,1220.6z"/>
	<path class="st0" d="M3058.5,1258.3l-76.3-26.9c-3.9-1.4-6-5.7-4.6-9.6c1.4-3.9,5.7-6,9.6-4.6l76.3,26.9c3.9,1.4,6,5.7,4.6,9.6
		S3062.4,1259.7,3058.5,1258.3z"/>
	<path class="st0" d="M3045.3,1296l-76.3-26.9c-3.9-1.4-6-5.7-4.6-9.6c1.4-3.9,5.7-6,9.6-4.6l76.3,26.9c3.9,1.4,6,5.7,4.6,9.6
		C3053.4,1295.3,3049.2,1297.4,3045.3,1296z"/>
	<path class="st0" d="M3041.2,1336.9l-85.5-30.1c-3.9-1.4-6-5.7-4.6-9.6c1.4-3.9,5.7-6,9.6-4.6l85.5,30.1c3.9,1.4,6,5.7,4.6,9.6
		C3049.3,1336.2,3045.1,1338.3,3041.2,1336.9z"/>
	<path class="st0" d="M3045.4,1380.8l-103-36.3c-3.9-1.4-6-5.7-4.6-9.6c1.4-3.9,5.7-6,9.6-4.6l103,36.3c3.9,1.4,6,5.7,4.6,9.6
		C3053.6,1380.1,3049.3,1382.2,3045.4,1380.8z"/>
</g>
<g>
	<g>
		<path class="st0" d="M889.6,636.9c-40.1,9.6-80.5-15.3-90.1-55.4c-9.6-40.1,15.3-80.5,55.4-90.1s80.5,15.3,90.1,55.4
			S929.7,627.3,889.6,636.9z M857.2,501.3c-34.7,8.3-56.1,43.2-47.9,77.8c8.3,34.7,43.2,56.1,77.8,47.9
			c34.7-8.3,56.1-43.2,47.9-77.8C926.8,514.5,891.9,493,857.2,501.3z"/>
		<path class="st0" d="M922,577.2c-0.6,0.2-1.3,0.2-2,0.1c-2.8-0.5-4.7-3.1-4.2-5.9c1-5.8,0.8-11.7-0.6-17.5
			c-3.8-15.8-15.8-28.2-31.5-32.4c-2.7-0.7-4.3-3.5-3.6-6.2c0.7-2.7,3.5-4.3,6.2-3.6c19.3,5.2,34.2,20.5,38.8,39.9
			c1.7,7.1,2,14.4,0.8,21.6C925.5,575.2,923.9,576.8,922,577.2z"/>
		<path class="st0" d="M866.5,520.3c-0.2,0-0.3,0.1-0.5,0.1c-1.3,0.2-2.7,0.5-4,0.8c-2.7,0.7-5.5-1-6.1-3.8s1-5.5,3.8-6.1
			c1.6-0.4,3.3-0.7,5-0.9c2.8-0.4,5.4,1.5,5.8,4.3C870.7,517.3,869,519.7,866.5,520.3z"/>
		<path class="st0" d="M1009.1,652.6c-1.3,0.3-2.7,0.1-3.9-0.6l-76.4-47c-2.4-1.5-3.1-4.6-1.7-7c1.5-2.4,4.6-3.1,7-1.7l76.4,47
			c2.4,1.5,3.1,4.6,1.7,7C1011.6,651.5,1010.4,652.3,1009.1,652.6z"/>
	</g>
	<path class="st0" d="M922.1,664.4l-204.2,48.7c-2.7,0.7-5.5-1-6.1-3.8L644,425.4c-0.7-2.7,1-5.5,3.8-6.1L852,370.6
		c2.7-0.7,5.5,1,6.1,3.8l23.2,97.2c0.7,2.7-1,5.5-3.8,6.1c-2.7,0.7-5.5-1-6.1-3.8l-22-92.3L655.1,428l65.3,274l194.3-46.3L913,648
		c-0.7-2.7,1-5.5,3.8-6.1c2.7-0.7,5.5,1,6.1,3.8l3,12.6C926.5,661,924.8,663.8,922.1,664.4z"/>
	<path class="st0" d="M904.1,485.4c-2.7,0.7-5.5-1-6.1-3.8l-30.5-127.9l-199.3,47.5c-2.7,0.7-5.5-1-6.1-3.8c-0.7-2.7,1-5.5,3.8-6.1
		L870,342.6c2.7-0.7,5.5,1,6.1,3.8l31.7,132.8C908.5,482,906.8,484.7,904.1,485.4z"/>
	<path class="st0" d="M738.2,458l-39.8,9.5c-2.7,0.7-5.5-1-6.1-3.8c-0.7-2.7,1-5.5,3.8-6.1l39.8-9.5c2.7-0.7,5.5,1,6.1,3.8
		C742.6,454.6,741,457.4,738.2,458z"/>
	<path class="st0" d="M844.3,474.2l-136.6,32.6c-2.7,0.7-5.5-1-6.1-3.8c-0.7-2.7,1-5.5,3.8-6.1l136.6-32.6c2.7-0.7,5.5,1,6.1,3.8
		S847,473.5,844.3,474.2z"/>
	<path class="st0" d="M788.9,515.3L714,533.2c-2.7,0.7-5.5-1-6.1-3.8s1-5.5,3.8-6.1l74.9-17.9c2.7-0.7,5.5,1,6.1,3.8
		S791.6,514.6,788.9,515.3z"/>
	<path class="st0" d="M773.8,546.8l-53.5,12.8c-2.7,0.7-5.5-1-6.1-3.8c-0.7-2.7,1-5.5,3.8-6.1l53.5-12.8c2.7-0.7,5.5,1,6.1,3.8
		S776.6,546.2,773.8,546.8z"/>
	<path class="st0" d="M780.1,573.2L726.6,586c-2.7,0.7-5.5-1-6.1-3.8s1-5.5,3.8-6.1l53.5-12.8c2.7-0.7,5.5,1,6.1,3.8
		C784.6,569.8,782.9,572.6,780.1,573.2z"/>
	<path class="st0" d="M786.5,599.7l-53.5,12.8c-2.7,0.7-5.5-1-6.1-3.8c-0.7-2.7,1-5.5,3.8-6.1l53.5-12.8c2.7-0.7,5.5,1,6.1,3.8
		S789.2,599,786.5,599.7z"/>
	<path class="st0" d="M799.2,624.5l-59.9,14.3c-2.7,0.7-5.5-1-6.1-3.8s1-5.5,3.8-6.1l59.9-14.3c2.7-0.7,5.5,1,6.1,3.8
		C803.6,621.1,801.9,623.9,799.2,624.5z"/>
	<path class="st0" d="M817.8,648l-72.2,17.2c-2.7,0.7-5.5-1-6.1-3.8s1-5.5,3.8-6.1l72.2-17.2c2.7-0.7,5.5,1,6.1,3.8
		S820.5,647.4,817.8,648z"/>
</g>
<g>
	<path class="st0" d="M1250.7,806.8c-67.4,13.2-133-30.9-146.3-98.4c-13.2-67.4,30.9-133,98.4-146.3c67.4-13.2,133,30.9,146.3,98.4
		S1318.2,793.6,1250.7,806.8z M1205.2,574.3c-60.8,11.9-100.5,71-88.6,131.8c11.9,60.8,71,100.5,131.8,88.6
		c60.8-11.9,100.5-71,88.6-131.8C1325.1,602.2,1266,562.4,1205.2,574.3z"/>
	<path class="st0" d="M1241.3,758.8c-26.4,5.2-53.8-4.2-71.6-24.5c-2.2-2.6-2-6.5,0.6-8.7c2.6-2.2,6.5-2,8.7,0.6
		c14.8,17,37.8,24.9,59.9,20.5c22.1-4.3,40.4-20.3,47.7-41.6c1.1-3.2,4.6-4.9,7.8-3.8c3.2,1.1,4.9,4.6,3.8,7.8
		C1289.6,734.5,1267.7,753.6,1241.3,758.8z"/>
	<path class="st0" d="M1183.9,708.8c-13.7,2.7-27.1-6.3-29.8-20c-2.7-13.7,6.3-27.1,20-29.8c13.7-2.7,27.1,6.3,29.8,20
		C1206.6,692.8,1197.6,706.1,1183.9,708.8z M1176.5,671.2c-7,1.4-11.7,8.2-10.3,15.3c1.4,7,8.2,11.7,15.3,10.3
		c7-1.4,11.7-8.2,10.3-15.3C1190.4,674.4,1183.5,669.8,1176.5,671.2z"/>
	<path class="st0" d="M1274.1,691.2c-13.7,2.7-27.1-6.3-29.8-20c-2.7-13.7,6.3-27.1,20-29.8c13.7-2.7,27.1,6.3,29.8,20
		C1296.8,675.1,1287.9,688.5,1274.1,691.2z M1266.8,653.5c-7,1.4-11.7,8.2-10.3,15.3c1.4,7,8.2,11.7,15.3,10.3
		c7-1.4,11.7-8.2,10.3-15.3C1280.7,656.7,1273.8,652.1,1266.8,653.5z"/>
</g>
<g>
	<path class="st0" d="M2536.3,398.9c-89.1-35.4-132.8-136.7-97.4-225.8c35.4-89.1,136.7-132.8,225.8-97.4
		c89.1,35.4,132.8,136.7,97.4,225.8S2625.4,434.3,2536.3,398.9z M2658.3,91.7c-80.3-31.9-171.5,7.5-203.4,87.8
		c-31.9,80.3,7.5,171.5,87.8,203.4c80.3,31.9,171.5-7.5,203.4-87.8C2777.9,214.9,2738.6,123.6,2658.3,91.7z"/>
	<path class="st0" d="M2561.5,335.4c-34.9-13.9-60-45.6-65.5-82.8c-0.7-4.7,2.6-9.1,7.3-9.8c4.7-0.7,9.1,2.6,9.8,7.3
		c4.6,31.1,25.6,57.7,54.8,69.3c29.2,11.6,62.7,6.7,87.4-12.8c3.7-2.9,9.1-2.3,12.1,1.4c2.9,3.7,2.3,9.1-1.4,12.1
		C2636.4,343.4,2596.4,349.3,2561.5,335.4z"/>
	<path class="st0" d="M2531.7,233.4c-18.1-7.2-27-27.8-19.8-45.9c7.2-18.1,27.8-27,45.9-19.8c18.1,7.2,27,27.8,19.8,45.9
		C2570.5,231.8,2549.9,240.6,2531.7,233.4z M2551.5,183.7c-9.3-3.7-19.9,0.9-23.6,10.2c-3.7,9.3,0.9,19.9,10.2,23.6
		c9.3,3.7,19.9-0.9,23.6-10.2C2565.4,198,2560.8,187.4,2551.5,183.7z"/>
	<path class="st0" d="M2651,280.8c-18.1-7.2-27-27.8-19.8-45.9c7.2-18.1,27.8-27,45.9-19.8c18.1,7.2,27,27.8,19.8,45.9
		C2689.8,279.1,2669.1,288,2651,280.8z M2670.8,231.1c-9.3-3.7-19.9,0.9-23.6,10.2c-3.7,9.3,0.9,19.9,10.2,23.6
		c9.3,3.7,19.9-0.9,23.6-10.2C2684.7,245.3,2680.1,234.7,2670.8,231.1z"/>
</g>
<g>
	<path class="st0" d="M179.9,1517.9c-48-19.1-71.6-73.7-52.5-121.7s73.7-71.6,121.7-52.5s71.6,73.7,52.5,121.7
		C282.6,1513.4,227.9,1537,179.9,1517.9z M245.7,1352.3c-43.3-17.2-92.5,4-109.7,47.3c-17.2,43.3,4,92.5,47.3,109.7
		c43.3,17.2,92.5-4,109.7-47.3C310.2,1418.7,289,1369.5,245.7,1352.3z"/>
	<path class="st0" d="M193.5,1483.7c-18.8-7.5-32.3-24.6-35.3-44.6c-0.4-2.5,1.4-4.9,3.9-5.3c2.5-0.4,4.9,1.4,5.3,3.9
		c2.5,16.8,13.8,31.1,29.5,37.4c15.7,6.3,33.8,3.6,47.1-6.9c2-1.6,4.9-1.2,6.5,0.8c1.6,2,1.2,4.9-0.8,6.5
		C233.9,1488,212.3,1491.1,193.5,1483.7z"/>
	<path class="st0" d="M177.5,1428.7c-9.8-3.9-14.6-15-10.7-24.8c3.9-9.8,15-14.6,24.8-10.7c9.8,3.9,14.6,15,10.7,24.8
		C198.4,1427.8,187.2,1432.6,177.5,1428.7z M188.1,1401.9c-5-2-10.7,0.5-12.7,5.5c-2,5,0.5,10.7,5.5,12.7c5,2,10.7-0.5,12.7-5.5
		C195.6,1409.6,193.1,1403.9,188.1,1401.9z"/>
	<path class="st0" d="M241.8,1454.2c-9.8-3.9-14.6-15-10.7-24.8c3.9-9.8,15-14.6,24.8-10.7c9.8,3.9,14.6,15,10.7,24.8
		C262.7,1453.3,251.6,1458.1,241.8,1454.2z M252.4,1427.4c-5-2-10.7,0.5-12.7,5.5c-2,5,0.5,10.7,5.5,12.7c5,2,10.7-0.5,12.7-5.5
		S257.5,1429.4,252.4,1427.4z"/>
</g>
<path class="st0" d="M2327.2,892.9c0.9-2.8,3.3-4.8,6.2-5.1l62.5-7.4c1.1-0.1,2.2,0,3.2,0.3l293.6,96.8c3.9,1.3,6.1,5.5,4.8,9.5
	c-1.3,3.9-5.5,6.1-9.5,4.8l-292-96.3l-44.9,5.3l32.9,31l284.9,93.9l2.5-7.6l-159.7-52.7c-3.9-1.3-6.1-5.5-4.8-9.5
	c1.3-3.9,5.5-6.1,9.5-4.8l166.9,55c3.9,1.3,6.1,5.5,4.8,9.5l-7.2,21.8c-1.3,3.9-5.5,6.1-9.5,4.8l-293.6-96.8c-1-0.3-2-0.9-2.8-1.7
	l-45.8-43.1C2327,898.7,2326.3,895.7,2327.2,892.9z"/>
<path class="st0" d="M2686.2,1039.3c1.3-3.9,5.5-6.1,9.5-4.8l15.1,5c10,3.3,20.9-2.2,24.2-12.2c3.3-10-2.2-20.9-12.2-24.2l-15.1-5
	c-3.9-1.3-6.1-5.5-4.8-9.5c1.3-3.9,5.5-6.1,9.5-4.8l15.1,5c17.9,5.9,27.6,25.2,21.7,43.1c-5.9,17.9-25.2,27.6-43.1,21.7l-15.1-5
	C2687,1047.5,2684.9,1043.3,2686.2,1039.3z"/>
<path class="st0" d="M1222.4,1553.2c-0.7-2.8,0.4-5.8,2.7-7.6l49.6-38.7c0.9-0.7,1.9-1.2,2.9-1.4l301.3-69.1c4-0.9,8.1,1.6,9,5.6
	c0.9,4-1.6,8.1-5.6,9l-299.7,68.7l-35.6,27.8l44.2,9.5l292.4-67l-1.8-7.8l-164,37.6c-4,0.9-8.1-1.6-9-5.6s1.6-8.1,5.6-9l171.3-39.3
	c4-0.9,8.1,1.6,9,5.6l5.1,22.4c0.9,4-1.6,8.1-5.6,9l-301.3,69.1c-1.1,0.2-2.2,0.3-3.3,0l-61.5-13.2
	C1225.3,1558.2,1223,1556,1222.4,1553.2z"/>
<path class="st0" d="M1605.3,1492.7c-0.9-4,1.6-8.1,5.6-9l15.5-3.6c10.3-2.4,16.7-12.6,14.4-22.9c-2.4-10.3-12.6-16.7-22.9-14.4
	l-15.5,3.6c-4,0.9-8.1-1.6-9-5.6c-0.9-4,1.6-8.1,5.6-9l15.5-3.6c18.3-4.2,36.7,7.3,40.9,25.6c4.2,18.3-7.3,36.7-25.6,40.9l-15.5,3.6
	C1610.3,1499.3,1606.3,1496.7,1605.3,1492.7z"/>
<path class="st0" d="M75.8,733c-0.5-2.4,0.5-4.9,2.4-6.3l42.5-31.4c0.7-0.5,1.6-0.9,2.5-1.1l254.7-51.5c3.4-0.7,6.7,1.5,7.4,4.9
	c0.7,3.4-1.5,6.7-4.9,7.4l-253.3,51.2l-30.5,22.6l36.9,8.9l247.1-50l-1.3-6.6l-138.6,28c-3.4,0.7-6.7-1.5-7.4-4.9
	c-0.7-3.4,1.5-6.7,4.9-7.4L383,667.6c3.4-0.7,6.7,1.5,7.4,4.9l3.8,18.9c0.7,3.4-1.5,6.7-4.9,7.4l-254.7,51.5
	c-0.9,0.2-1.8,0.2-2.7-0.1l-51.4-12.4C78.1,737.3,76.3,735.4,75.8,733z"/>
<path class="st0" d="M398.9,690.5c-0.7-3.4,1.5-6.7,4.9-7.4l13.1-2.6c8.7-1.8,14.3-10.3,12.6-18.9c-1.8-8.7-10.3-14.3-18.9-12.6
	l-13.1,2.6c-3.4,0.7-6.7-1.5-7.4-4.9c-0.7-3.4,1.5-6.7,4.9-7.4l13.1-2.6c15.5-3.1,30.7,6.9,33.8,22.4c3.1,15.5-6.9,30.7-22.4,33.8
	l-13.1,2.6C402.9,696.1,399.6,693.9,398.9,690.5z"/>
<g>
	<g>
		<path class="st0" d="M824.4,1119.1l-110.9-38c-13.8-4.7-21.1-19.8-16.4-33.5l84-245.3c4.7-13.8,19.8-21.1,33.5-16.4l110.9,38
			c13.8,4.7,21.1,19.8,16.4,33.5l-6,17.5c-0.8,2.5-3.5,3.8-6,2.9c-2.5-0.8-3.8-3.5-2.9-6l6-17.5c3-8.9-1.7-18.5-10.6-21.6l-110.9-38
			c-8.9-3-18.5,1.7-21.6,10.6l-84,245.3c-3,8.9,1.7,18.5,10.6,21.6l110.9,38c8.9,3,18.5-1.7,21.6-10.6l20.6-60.3
			c0.8-2.5,3.5-3.8,6-2.9c2.5,0.8,3.8,3.5,2.9,6l-20.6,60.3C853.2,1116.4,838.2,1123.8,824.4,1119.1z"/>
		<path class="st0" d="M859.4,1083.8l-152-52.1c-2.5-0.8-3.8-3.5-2.9-6c0.8-2.5,3.5-3.8,6-2.9l152,52.1c2.5,0.8,3.8,3.5,2.9,6
			C864.6,1083.3,861.9,1084.6,859.4,1083.8z"/>
		<path class="st0" d="M787.6,1081.8l-22.1-7.6c-2.5-0.8-3.8-3.5-2.9-6c0.8-2.5,3.5-3.8,6-2.9l22.1,7.6c2.5,0.8,3.8,3.5,2.9,6
			C792.7,1081.3,790,1082.6,787.6,1081.8z"/>
		<path class="st0" d="M862.2,833.2l-3.3-1.1c-2.5-0.8-3.8-3.5-2.9-6c0.8-2.5,3.5-3.8,6-2.9l3.3,1.1c2.5,0.8,3.8,3.5,2.9,6
			C867.4,832.8,864.7,834.1,862.2,833.2z"/>
	</g>
	<g>
		<path class="st0" d="M825.1,1029c-0.7-0.2-1.3-0.6-1.8-1.2c-1.2-1.3-1.7-3.1-1.1-4.8l5.6-16.2c-18.7-7.9-28.3-29.1-21.7-48.6
			l21.3-62.2c7-20.4,29.2-31.3,49.6-24.3l115.7,39.6c20.4,7,31.3,29.2,24.3,49.6l-21.3,62.2c-7,20.4-29.2,31.3-49.6,24.3l-84.6-29
			l-33.4,10.6C827.1,1029.4,826.1,1029.4,825.1,1029z M873.9,880.7c-15.4-5.3-32.3,3-37.6,18.4L815,961.3
			c-5.3,15.4,3,32.3,18.4,37.6l1.8,0.6c2.5,0.8,3.8,3.5,2.9,6l-4,11.7l26-8.2c1-0.3,2-0.3,3,0l86.1,29.5c15.4,5.3,32.3-3,37.6-18.4
			l21.3-62.2c5.3-15.4-3-32.3-18.4-37.6L873.9,880.7z"/>
		<path class="st0" d="M904.4,931.9l-45.2-15.5c-2.5-0.8-3.8-3.5-2.9-6c0.8-2.5,3.5-3.8,6-2.9l45.2,15.5c2.5,0.8,3.8,3.5,2.9,6
			C909.6,931.4,906.9,932.7,904.4,931.9z"/>
		<path class="st0" d="M970.9,983.3L850.5,942c-2.5-0.8-3.8-3.5-2.9-6c0.8-2.5,3.5-3.8,6-2.9L974,974.4c2.5,0.8,3.8,3.5,2.9,6
			C976.1,982.8,973.4,984.1,970.9,983.3z"/>
		<path class="st0" d="M962.2,1008.9l-120.5-41.3c-2.5-0.8-3.8-3.5-2.9-6c0.8-2.5,3.5-3.8,6-2.9l120.5,41.3c2.5,0.8,3.8,3.5,2.9,6
			C967.3,1008.4,964.6,1009.7,962.2,1008.9z"/>
	</g>
</g>
<g>
	<g>
		<path class="st0" d="M3250.8,786.8l-163.6,61.6c-20.3,7.6-43.1-2.7-50.7-23l-136.1-361.8c-7.6-20.3,2.7-43.1,23-50.7l163.6-61.6
			c20.3-7.6,43.1,2.7,50.7,23l9.7,25.8c1.4,3.6-0.5,7.7-4.1,9.1c-3.6,1.4-7.7-0.5-9.1-4.1l-9.7-25.8c-4.9-13.1-19.5-19.7-32.6-14.8
			L2928.3,426c-13.1,4.9-19.7,19.5-14.8,32.6l136.1,361.8c4.9,13.1,19.5,19.7,32.6,14.8l163.6-61.6c13.1-4.9,19.7-19.5,14.8-32.6
			l-33.4-88.9c-1.4-3.6,0.5-7.7,4.1-9.1c3.6-1.4,7.7,0.5,9.1,4.1l33.4,88.9C3281.5,756.4,3271.2,779.1,3250.8,786.8z"/>
		<path class="st0" d="M3257.6,712.9l-224.2,84.3c-3.6,1.4-7.7-0.5-9.1-4.1c-1.4-3.6,0.5-7.7,4.1-9.1l224.2-84.3
			c3.6-1.4,7.7,0.5,9.1,4.1C3263.1,707.5,3261.3,711.6,3257.6,712.9z"/>
		<path class="st0" d="M3173.1,778.8l-32.6,12.3c-3.6,1.4-7.7-0.5-9.1-4.1c-1.4-3.6,0.5-7.7,4.1-9.1l32.6-12.3
			c3.6-1.4,7.7,0.5,9.1,4.1C3178.5,773.3,3176.7,777.4,3173.1,778.8z"/>
		<path class="st0" d="M3023.1,422.1l-4.9,1.8c-3.6,1.4-7.7-0.5-9.1-4.1c-1.4-3.6,0.5-7.7,4.1-9.1l4.9-1.8c3.6-1.4,7.7,0.5,9.1,4.1
			C3028.6,416.7,3026.7,420.8,3023.1,422.1z"/>
	</g>
	<g>
		<path class="st0" d="M3166.2,682.5c-1,0.4-2.1,0.5-3.2,0.4c-2.6-0.3-4.9-2-5.8-4.5l-9-23.9c-29,8.6-60.2-6.6-71-35.3l-34.5-91.8
			c-11.3-30,3.9-63.7,34-75l170.7-64.2c30-11.3,63.7,3.9,75,34l34.5,91.8c11.3,30-3.9,63.7-34,75L3198,635.9l-28.4,43.9
			C3168.8,681.1,3167.6,682,3166.2,682.5z M3081.6,465.6c-22.8,8.6-34.3,34.1-25.8,56.8l34.5,91.8c8.6,22.8,34.1,34.3,56.8,25.8
			l2.7-1c3.6-1.4,7.7,0.5,9.1,4.1l6.5,17.3l22.1-34.1c0.8-1.3,2-2.2,3.4-2.8l126.9-47.7c22.8-8.6,34.3-34.1,25.8-56.8l-34.5-91.8
			c-8.6-22.8-34.1-34.3-56.8-25.8L3081.6,465.6z"/>
		<path class="st0" d="M3165.2,495.6l-66.6,25.1c-3.6,1.4-7.7-0.5-9.1-4.1c-1.4-3.6,0.5-7.7,4.1-9.1l66.6-25.1
			c3.6-1.4,7.7,0.5,9.1,4.1S3168.9,494.2,3165.2,495.6z"/>
		<path class="st0" d="M3290.5,491.6l-177.7,66.8c-3.6,1.4-7.7-0.5-9.1-4.1c-1.4-3.6,0.5-7.7,4.1-9.1l177.7-66.8
			c3.6-1.4,7.7,0.5,9.1,4.1S3294.1,490.2,3290.5,491.6z"/>
		<path class="st0" d="M3304.7,529.3L3127,596.2c-3.6,1.4-7.7-0.5-9.1-4.1c-1.4-3.6,0.5-7.7,4.1-9.1l177.7-66.8
			c3.6-1.4,7.7,0.5,9.1,4.1C3310.2,523.9,3308.4,528,3304.7,529.3z"/>
	</g>
</g>
<g>
	<g>
		<path class="st0" d="M1584.5,686.9c-1.1,0-2.2-0.3-3.1-1c-1.6-1.2-2.4-3.2-2.1-5.2l2.8-16.5l-12-11.7c-1.4-1.4-2-3.5-1.3-5.4
			c0.6-1.9,2.3-3.3,4.3-3.6l16.6-2.4l7.4-15c0.9-1.8,2.7-2.9,4.7-2.9l0,0c2,0,3.8,1.1,4.7,2.9l7.4,15l16.6,2.4
			c2,0.3,3.6,1.7,4.3,3.6c0.6,1.9,0.1,4-1.3,5.4l-12,11.7l2.8,16.5c0.3,2-0.5,4-2.1,5.2c-1.6,1.2-3.8,1.3-5.6,0.4l-14.8-7.8
			l-14.8,7.8C1586.2,686.7,1585.3,686.9,1584.5,686.9z M1585.2,652.5l6.3,6.1c1.2,1.2,1.8,3,1.5,4.7l-1.5,8.7l7.8-4.1
			c1.5-0.8,3.4-0.8,4.9,0l7.8,4.1l-1.5-8.7c-0.3-1.7,0.3-3.5,1.5-4.7l6.3-6.1l-8.7-1.3c-1.7-0.2-3.2-1.3-4-2.9l-3.9-7.9l-3.9,7.9
			c-0.8,1.6-2.3,2.6-4,2.9L1585.2,652.5z"/>
		<path class="st0" d="M1687,686.9c-0.8,0-1.7-0.2-2.5-0.6l-14.8-7.8l-14.8,7.8c-1.8,0.9-3.9,0.8-5.6-0.4c-1.6-1.2-2.4-3.2-2.1-5.2
			l2.8-16.5l-12-11.7c-1.4-1.4-2-3.5-1.3-5.4c0.6-1.9,2.3-3.3,4.3-3.6l16.6-2.4l7.4-15c0.9-1.8,2.7-2.9,4.7-2.9s3.8,1.1,4.7,2.9
			l7.4,15l16.6,2.4c2,0.3,3.6,1.7,4.3,3.6c0.6,1.9,0.1,4-1.3,5.4l-12,11.7l2.8,16.5c0.3,2-0.5,4-2.1,5.2
			C1689.2,686.6,1688.1,686.9,1687,686.9z M1669.7,667.3c0.8,0,1.7,0.2,2.5,0.6l7.8,4.1l-1.5-8.7c-0.3-1.7,0.3-3.5,1.5-4.7l6.3-6.1
			l-8.7-1.3c-1.7-0.2-3.2-1.3-4-2.9l-3.9-7.9l-3.9,7.9c-0.8,1.6-2.3,2.6-4,2.9l-8.7,1.3l6.3,6.1c1.2,1.2,1.8,3,1.5,4.7l-1.5,8.7
			l7.8-4.1C1668.1,667.5,1668.9,667.3,1669.7,667.3z"/>
		<path class="st0" d="M1755,686.9c-0.8,0-1.7-0.2-2.5-0.6l-14.8-7.8l-14.8,7.8c-1.8,0.9-3.9,0.8-5.6-0.4c-1.6-1.2-2.4-3.2-2.1-5.2
			l2.8-16.5l-12-11.7c-1.4-1.4-2-3.5-1.3-5.4c0.6-1.9,2.3-3.3,4.3-3.6l16.6-2.4l7.4-15c0.9-1.8,2.7-2.9,4.7-2.9c2,0,3.8,1.1,4.7,2.9
			l7.4,15l16.6,2.4c2,0.3,3.6,1.7,4.3,3.6c0.6,1.9,0.1,4-1.3,5.4l-12,11.7l2.8,16.5c0.3,2-0.5,4-2.1,5.2
			C1757.2,686.6,1756.1,686.9,1755,686.9z M1721.1,652.5l6.3,6.1c1.2,1.2,1.8,3,1.5,4.7l-1.5,8.7l7.8-4.1c1.5-0.8,3.4-0.8,4.9,0
			l7.8,4.1l-1.5-8.7c-0.3-1.7,0.3-3.5,1.5-4.7l6.3-6.1l-8.7-1.3c-1.7-0.2-3.2-1.3-4-2.9l-3.9-7.9l-3.9,7.9c-0.8,1.6-2.3,2.6-4,2.9
			L1721.1,652.5z"/>
		<path class="st0" d="M1822.9,686.9c-0.8,0-1.7-0.2-2.5-0.6l-14.8-7.8l-14.8,7.8c-1.8,0.9-3.9,0.8-5.6-0.4
			c-1.6-1.2-2.4-3.2-2.1-5.2l2.8-16.5l-12-11.7c-1.4-1.4-2-3.5-1.3-5.4c0.6-1.9,2.3-3.3,4.3-3.6l16.6-2.4l7.4-15
			c0.9-1.8,2.7-2.9,4.7-2.9c2,0,3.8,1.1,4.7,2.9l7.4,15l16.6,2.4c2,0.3,3.6,1.7,4.3,3.6c0.6,1.9,0.1,4-1.3,5.4l-12,11.7l2.8,16.5
			c0.3,2-0.5,4-2.1,5.2C1825.1,686.6,1824,686.9,1822.9,686.9z M1805.7,667.3c0.8,0,1.7,0.2,2.5,0.6l7.8,4.1l-1.5-8.7
			c-0.3-1.7,0.3-3.5,1.5-4.7l6.3-6.1l-8.7-1.3c-1.7-0.2-3.2-1.3-4-2.9l-3.9-7.9l-3.9,7.9c-0.8,1.6-2.3,2.6-4,2.9l-8.7,1.3l6.3,6.1
			c1.2,1.2,1.8,3,1.5,4.7l-1.5,8.7l7.8-4.1C1804,667.5,1804.8,667.3,1805.7,667.3z"/>
		<path class="st0" d="M1890.9,686.9c-0.8,0-1.7-0.2-2.5-0.6l-14.8-7.8l-14.8,7.8c-1.8,0.9-3.9,0.8-5.6-0.4
			c-1.6-1.2-2.4-3.2-2.1-5.2l2.8-16.5l-12-11.7c-1.4-1.4-2-3.5-1.3-5.4c0.6-1.9,2.3-3.3,4.3-3.6l16.6-2.4l7.4-15
			c0.9-1.8,2.7-2.9,4.7-2.9c2,0,3.8,1.1,4.7,2.9l7.4,15l16.6,2.4c2,0.3,3.6,1.7,4.3,3.6c0.6,1.9,0.1,4-1.3,5.4l-12,11.7l2.8,16.5
			c0.3,2-0.5,4-2.1,5.2C1893.1,686.6,1892,686.9,1890.9,686.9z M1873.6,667.3c0.8,0,1.7,0.2,2.5,0.6l7.8,4.1l-1.5-8.7
			c-0.3-1.7,0.3-3.5,1.5-4.7l6.3-6.1l-8.7-1.3c-1.7-0.2-3.2-1.3-4-2.9l-3.9-7.9l-3.9,7.9c-0.8,1.6-2.3,2.6-4,2.9l-8.7,1.3l6.3,6.1
			c1.2,1.2,1.8,3,1.5,4.7l-1.5,8.7l7.8-4.1C1871.9,667.5,1872.8,667.3,1873.6,667.3z"/>
	</g>
	<g>
		<path class="st0" d="M1734.9,564c-2.9,0-5.3-2.4-5.3-5.3v-12.6c0-2.9,2.4-5.3,5.3-5.3c2.9,0,5.3,2.4,5.3,5.3v12.6
			C1740.2,561.7,1737.9,564,1734.9,564z"/>
		<path class="st0" d="M1734.9,528.6c-2.9,0-5.3-2.4-5.3-5.3V488c0-2.9,2.4-5.3,5.3-5.3c2.9,0,5.3,2.4,5.3,5.3v35.4
			C1740.2,526.3,1737.9,528.6,1734.9,528.6z"/>
		<path class="st0" d="M1657.7,586.6c-1.4,0-2.7-0.5-3.7-1.5l-27.9-27.9c-2.1-2.1-2.1-5.4,0-7.5c2.1-2.1,5.4-2.1,7.5,0l27.9,27.9
			c2.1,2.1,2.1,5.4,0,7.5C1660.4,586.1,1659,586.6,1657.7,586.6z"/>
		<path class="st0" d="M1612,541c-1.4,0-2.7-0.5-3.7-1.5l-6.6-6.6c-2.1-2.1-2.1-5.4,0-7.5c2.1-2.1,5.4-2.1,7.5,0l6.6,6.6
			c2.1,2.1,2.1,5.4,0,7.5C1614.7,540.4,1613.4,541,1612,541z"/>
		<path class="st0" d="M1861.2,537.7c-1.4,0-2.7-0.5-3.7-1.5c-2.1-2.1-2.1-5.4,0-7.5l9-9c2.1-2.1,5.4-2.1,7.5,0
			c2.1,2.1,2.1,5.4,0,7.5l-9,9C1863.9,537.1,1862.5,537.7,1861.2,537.7z"/>
		<path class="st0" d="M1814.8,584c-1.4,0-2.7-0.5-3.7-1.5c-2.1-2.1-2.1-5.4,0-7.5l31.7-31.7c2.1-2.1,5.4-2.1,7.5,0
			c2.1,2.1,2.1,5.4,0,7.5l-31.7,31.7C1817.6,583.4,1816.2,584,1814.8,584z"/>
		<path class="st0" d="M1688.4,551.4c-2.1,0-4-1.2-4.9-3.3l-20-48.2c-1.1-2.7,0.2-5.8,2.9-6.9c2.7-1.1,5.8,0.2,6.9,2.9l20,48.2
			c1.1,2.7-0.2,5.8-2.9,6.9C1689.7,551.3,1689,551.4,1688.4,551.4z"/>
		<path class="st0" d="M1857.9,612.9c-2.1,0-4-1.2-4.9-3.3c-1.1-2.7,0.2-5.8,2.9-6.9l37.7-15.6c2.7-1.1,5.8,0.2,6.9,2.9
			c1.1,2.7-0.2,5.8-2.9,6.9l-37.7,15.6C1859.2,612.8,1858.5,612.9,1857.9,612.9z"/>
		<path class="st0" d="M1600.4,608.2c-0.7,0-1.4-0.1-2-0.4l-31-12.8c-2.7-1.1-4-4.2-2.9-6.9c1.1-2.7,4.2-4,6.9-2.9l31,12.8
			c2.7,1.1,4,4.2,2.9,6.9C1604.4,606.9,1602.5,608.2,1600.4,608.2z"/>
		<path class="st0" d="M1781.5,551.4c-0.7,0-1.4-0.1-2-0.4c-2.7-1.1-4-4.2-2.9-6.9l21.4-51.8c1.1-2.7,4.2-4,6.9-2.9
			c2.7,1.1,4,4.2,2.9,6.9l-21.4,51.8C1785.5,550.2,1783.6,551.4,1781.5,551.4z"/>
	</g>
	<g>
		<path class="st0" d="M1730,776.3c-2.9,0-5.3-2.4-5.3-5.3v-12.6c0-2.9,2.4-5.3,5.3-5.3c2.9,0,5.3,2.4,5.3,5.3V771
			C1735.3,773.9,1732.9,776.3,1730,776.3z"/>
		<path class="st0" d="M1730,834.5c-2.9,0-5.3-2.4-5.3-5.3v-35.4c0-2.9,2.4-5.3,5.3-5.3c2.9,0,5.3,2.4,5.3,5.3v35.4
			C1735.3,832.1,1732.9,834.5,1730,834.5z"/>
		<path class="st0" d="M1835.2,769.1c-1.4,0-2.7-0.5-3.7-1.5l-27.9-27.9c-2.1-2.1-2.1-5.4,0-7.5c2.1-2.1,5.4-2.1,7.5,0l27.9,27.9
			c2.1,2.1,2.1,5.4,0,7.5C1837.9,768.6,1836.6,769.1,1835.2,769.1z"/>
		<path class="st0" d="M1859.5,793.4c-1.4,0-2.7-0.5-3.7-1.5l-6.6-6.6c-2.1-2.1-2.1-5.4,0-7.5c2.1-2.1,5.4-2.1,7.5,0l6.6,6.6
			c2.1,2.1,2.1,5.4,0,7.5C1862.2,792.9,1860.9,793.4,1859.5,793.4z"/>
		<path class="st0" d="M1594.8,799.1c-1.4,0-2.7-0.5-3.7-1.5c-2.1-2.1-2.1-5.4,0-7.5l9-9c2.1-2.1,5.4-2.1,7.5,0
			c2.1,2.1,2.1,5.4,0,7.5l-9,9C1597.5,798.6,1596.2,799.1,1594.8,799.1z"/>
		<path class="st0" d="M1618.4,775.4c-1.4,0-2.7-0.5-3.7-1.5c-2.1-2.1-2.1-5.4,0-7.5l31.7-31.7c2.1-2.1,5.4-2.1,7.5,0
			c2.1,2.1,2.1,5.4,0,7.5l-31.7,31.7C1621.1,774.9,1619.8,775.4,1618.4,775.4z"/>
		<path class="st0" d="M1796.6,824.5c-2.1,0-4-1.2-4.9-3.3l-20-48.2c-1.1-2.7,0.2-5.8,2.9-6.9c2.7-1.1,5.8,0.2,6.9,2.9l20,48.2
			c1.1,2.7-0.2,5.8-2.9,6.9C1797.9,824.3,1797.3,824.5,1796.6,824.5z"/>
		<path class="st0" d="M1569.4,730.4c-2.1,0-4-1.2-4.9-3.3c-1.1-2.7,0.2-5.8,2.9-6.9l37.7-15.6c2.7-1.1,5.8,0.2,6.9,2.9
			c1.1,2.7-0.2,5.8-2.9,6.9l-37.7,15.6C1570.8,730.3,1570.1,730.4,1569.4,730.4z"/>
		<path class="st0" d="M1895.6,732.4c-0.7,0-1.4-0.1-2-0.4l-31-12.8c-2.7-1.1-4-4.2-2.9-6.9c1.1-2.7,4.2-4,6.9-2.9l31,12.8
			c2.7,1.1,4,4.2,2.9,6.9C1899.6,731.2,1897.6,732.4,1895.6,732.4z"/>
		<path class="st0" d="M1662,828c-0.7,0-1.4-0.1-2-0.4c-2.7-1.1-4-4.2-2.9-6.9l21.4-51.8c1.1-2.7,4.2-4,6.9-2.9
			c2.7,1.1,4,4.2,2.9,6.9l-21.4,51.8C1666.1,826.8,1664.1,828,1662,828z"/>
	</g>
</g>
<g>
	<g>
		<path class="st0" d="M2504.7,722.2c-0.6,0.3-1.3,0.5-2,0.4c-1.2-0.2-2.3-1-2.7-2.2l-3.3-9.9l-10.1-2.9c-1.2-0.3-2.1-1.3-2.3-2.6
			c-0.2-1.2,0.3-2.5,1.3-3.3l8.4-6.3l-0.4-10.5c0-1.3,0.6-2.4,1.7-3l0,0c1.1-0.6,2.5-0.5,3.5,0.2l8.5,6.1l9.9-3.6
			c1.2-0.4,2.5-0.2,3.4,0.7c0.9,0.9,1.3,2.2,0.9,3.4l-3.1,10l6.5,8.3c0.8,1,0.9,2.3,0.4,3.5c-0.5,1.1-1.7,1.9-2.9,1.9l-10.5,0.1
			l-5.9,8.7C2505.6,721.5,2505.2,721.9,2504.7,722.2z M2494.8,703l5.3,1.5c1,0.3,1.9,1.1,2.2,2.1l1.8,5.2l3.1-4.6
			c0.6-0.9,1.6-1.5,2.7-1.5l5.5-0.1l-3.4-4.3c-0.7-0.9-0.9-2-0.6-3l1.6-5.3l-5.2,1.9c-1,0.4-2.2,0.2-3.1-0.4l-4.5-3.2l0.2,5.5
			c0,1.1-0.5,2.1-1.3,2.8L2494.8,703z"/>
		<path class="st0" d="M2561.2,691.7c-0.5,0.3-1,0.4-1.5,0.4l-10.5,0.1l-5.9,8.7c-0.7,1-1.9,1.6-3.2,1.4c-1.2-0.2-2.3-1-2.7-2.2
			l-3.3-9.9l-10.1-2.9c-1.2-0.3-2.1-1.3-2.3-2.6c-0.2-1.2,0.3-2.5,1.3-3.3l8.4-6.3l-0.4-10.5c0-1.3,0.6-2.4,1.7-3
			c1.1-0.6,2.5-0.5,3.5,0.2l8.6,6.1l9.8-3.6c1.2-0.4,2.5-0.2,3.4,0.7c0.9,0.9,1.3,2.2,0.9,3.4l-3.1,10l6.5,8.3
			c0.8,1,0.9,2.3,0.4,3.5C2562.3,690.8,2561.8,691.3,2561.2,691.7z M2545.9,686c0.5-0.3,1-0.4,1.5-0.4l5.5-0.1l-3.4-4.3
			c-0.7-0.9-0.9-2-0.6-3l1.6-5.3l-5.2,1.9c-1,0.4-2.2,0.2-3.1-0.4l-4.5-3.2l0.2,5.5c0,1.1-0.5,2.1-1.3,2.8l-4.4,3.3l5.3,1.5
			c1,0.3,1.9,1.1,2.2,2.1l1.8,5.2l3.1-4.6C2545,686.6,2545.4,686.2,2545.9,686z"/>
		<path class="st0" d="M2598.7,671.4c-0.5,0.3-1,0.4-1.5,0.4l-10.5,0.1l-5.9,8.7c-0.7,1-1.9,1.6-3.2,1.4c-1.2-0.2-2.3-1-2.7-2.2
			l-3.3-9.9l-10.1-2.9c-1.2-0.3-2.1-1.3-2.3-2.6c-0.2-1.2,0.3-2.5,1.3-3.3l8.4-6.3l-0.4-10.5c0-1.3,0.6-2.4,1.7-3
			c1.1-0.6,2.5-0.5,3.5,0.2l8.6,6.1l9.8-3.6c1.2-0.4,2.5-0.2,3.4,0.7c0.9,0.9,1.3,2.2,0.9,3.4l-3.1,10l6.5,8.3
			c0.8,1,0.9,2.3,0.4,3.5C2599.8,670.6,2599.3,671.1,2598.7,671.4z M2569.8,662.5l5.3,1.5c1,0.3,1.9,1.1,2.2,2.1l1.8,5.2l3.1-4.6
			c0.6-0.9,1.6-1.5,2.7-1.5l5.5-0.1l-3.4-4.3c-0.7-0.9-0.9-2-0.6-3l1.6-5.3l-5.2,1.9c-1,0.4-2.2,0.2-3.1-0.4l-4.5-3.2l0.2,5.5
			c0,1.1-0.5,2.1-1.3,2.8L2569.8,662.5z"/>
		<path class="st0" d="M2636.2,651.2c-0.5,0.3-1,0.4-1.5,0.4l-10.5,0.1l-5.9,8.7c-0.7,1-1.9,1.6-3.2,1.4c-1.2-0.2-2.3-1-2.7-2.2
			l-3.3-9.9l-10.1-2.9c-1.2-0.3-2.1-1.3-2.3-2.6c-0.2-1.2,0.3-2.5,1.3-3.3l8.4-6.3l-0.4-10.5c0-1.3,0.6-2.4,1.7-3
			c1.1-0.6,2.5-0.5,3.5,0.2l8.6,6.1l9.8-3.6c1.2-0.4,2.5-0.2,3.4,0.7c0.9,0.9,1.3,2.2,0.9,3.4l-3.1,10l6.5,8.3
			c0.8,1,0.9,2.3,0.4,3.5C2637.3,650.4,2636.8,650.9,2636.2,651.2z M2620.8,645.5c0.5-0.3,1-0.4,1.5-0.4l5.5-0.1l-3.4-4.3
			c-0.7-0.9-0.9-2-0.6-3l1.6-5.3l-5.2,1.9c-1,0.4-2.2,0.2-3.1-0.4l-4.5-3.2l0.2,5.5c0,1.1-0.5,2.1-1.3,2.8l-4.4,3.3l5.3,1.5
			c1,0.3,1.9,1.1,2.2,2.1l1.8,5.2l3.1-4.6C2619.9,646.1,2620.3,645.8,2620.8,645.5z"/>
		<path class="st0" d="M2673.7,631c-0.5,0.3-1,0.4-1.5,0.4l-10.5,0.1l-5.9,8.7c-0.7,1-1.9,1.6-3.2,1.4c-1.2-0.2-2.3-1-2.7-2.2
			l-3.3-9.9l-10.1-2.9c-1.2-0.3-2.1-1.3-2.3-2.6c-0.2-1.2,0.3-2.5,1.3-3.3l8.4-6.3l-0.4-10.5c0-1.3,0.6-2.4,1.7-3
			c1.1-0.6,2.5-0.5,3.5,0.2l8.6,6.1l9.8-3.6c1.2-0.4,2.5-0.2,3.4,0.7c0.9,0.9,1.3,2.2,0.9,3.4l-3.1,10l6.5,8.3
			c0.8,1,0.9,2.3,0.4,3.5C2674.8,630.2,2674.3,630.7,2673.7,631z M2658.3,625.3c0.5-0.3,1-0.4,1.5-0.4l5.5-0.1l-3.4-4.3
			c-0.7-0.9-0.9-2-0.6-3l1.6-5.3l-5.2,1.9c-1,0.4-2.2,0.2-3.1-0.4l-4.5-3.2l0.2,5.5c0,1.1-0.5,2.1-1.3,2.8l-4.4,3.3l5.3,1.5
			c1,0.3,1.9,1.1,2.2,2.1l1.8,5.2l3.1-4.6C2657.4,625.9,2657.8,625.6,2658.3,625.3z"/>
	</g>
	<g>
		<path class="st0" d="M2551.1,609.6c-1.6,0.9-3.6,0.3-4.5-1.3l-3.7-6.9c-0.9-1.6-0.3-3.6,1.3-4.5c1.6-0.9,3.6-0.3,4.5,1.3l3.7,6.9
			C2553.3,606.8,2552.7,608.8,2551.1,609.6z"/>
		<path class="st0" d="M2540.6,590.1c-1.6,0.9-3.6,0.3-4.5-1.3l-10.5-19.5c-0.9-1.6-0.3-3.6,1.3-4.5c1.6-0.9,3.6-0.3,4.5,1.3
			l10.5,19.5C2542.8,587.3,2542.2,589.3,2540.6,590.1z"/>
		<path class="st0" d="M2515.2,645.1c-0.7,0.4-1.6,0.5-2.5,0.3l-23.7-7.1c-1.8-0.5-2.7-2.4-2.2-4.1c0.5-1.8,2.4-2.7,4.1-2.2
			l23.7,7.1c1.8,0.5,2.7,2.4,2.2,4.1C2516.5,644,2516,644.7,2515.2,645.1z"/>
		<path class="st0" d="M2476.5,633.5c-0.7,0.4-1.6,0.5-2.5,0.3l-5.6-1.7c-1.8-0.5-2.7-2.4-2.2-4.1c0.5-1.8,2.4-2.7,4.1-2.2l5.6,1.7
			c1.8,0.5,2.7,2.4,2.2,4.1C2477.8,632.4,2477.2,633.1,2476.5,633.5z"/>
		<path class="st0" d="M2612.8,557.6c-0.7,0.4-1.6,0.5-2.5,0.3c-1.8-0.5-2.7-2.4-2.2-4.1l2.3-7.6c0.5-1.8,2.4-2.7,4.1-2.2
			c1.8,0.5,2.7,2.4,2.2,4.1l-2.3,7.6C2614.2,556.5,2613.6,557.2,2612.8,557.6z"/>
		<path class="st0" d="M2601.1,596.9c-0.7,0.4-1.6,0.5-2.5,0.3c-1.8-0.5-2.7-2.4-2.2-4.1l8-26.9c0.5-1.8,2.4-2.7,4.1-2.2
			c1.8,0.5,2.7,2.4,2.2,4.1l-8,26.9C2602.4,595.8,2601.8,596.5,2601.1,596.9z"/>
		<path class="st0" d="M2521.7,616.6c-1.1,0.6-2.6,0.5-3.7-0.3l-25.3-20.6c-1.4-1.2-1.6-3.2-0.5-4.7c1.2-1.4,3.2-1.6,4.7-0.5
			l25.3,20.6c1.4,1.2,1.6,3.2,0.5,4.7C2522.4,616.1,2522,616.4,2521.7,616.6z"/>
		<path class="st0" d="M2633.4,600c-1.1,0.6-2.6,0.5-3.7-0.3c-1.4-1.2-1.6-3.2-0.5-4.7l16.1-19.8c1.2-1.4,3.2-1.6,4.7-0.5
			c1.4,1.2,1.6,3.2,0.5,4.7l-16.1,19.8C2634.1,599.6,2633.8,599.8,2633.4,600z"/>
		<path class="st0" d="M2490.1,674c-0.4,0.2-0.8,0.3-1.2,0.4l-20.9,2.1c-1.8,0.2-3.4-1.1-3.6-3c-0.2-1.8,1.1-3.4,3-3.6l20.9-2.1
			c1.8-0.2,3.4,1.1,3.6,3C2491.9,672.1,2491.2,673.4,2490.1,674z"/>
		<path class="st0" d="M2573,588.9c-0.4,0.2-0.8,0.3-1.2,0.4c-1.8,0.2-3.4-1.1-3.6-3l-3.6-34.9c-0.2-1.8,1.1-3.4,3-3.6
			c1.8-0.2,3.4,1.1,3.6,3l3.6,34.9C2574.9,587,2574.2,588.2,2573,588.9z"/>
	</g>
	<g>
		<path class="st0" d="M2611.5,728.1c-1.6,0.9-3.6,0.3-4.5-1.3l-3.7-6.9c-0.9-1.6-0.3-3.6,1.3-4.5c1.6-0.9,3.6-0.3,4.5,1.3l3.7,6.9
			C2613.7,725.3,2613.1,727.3,2611.5,728.1z"/>
		<path class="st0" d="M2628.8,760.2c-1.6,0.9-3.6,0.3-4.5-1.3l-10.5-19.5c-0.9-1.6-0.3-3.6,1.3-4.5c1.6-0.9,3.6-0.3,4.5,1.3
			l10.5,19.5C2631,757.3,2630.4,759.3,2628.8,760.2z"/>
		<path class="st0" d="M2667.4,692.9c-0.7,0.4-1.6,0.5-2.5,0.3l-23.7-7.1c-1.8-0.5-2.7-2.4-2.2-4.1c0.5-1.8,2.4-2.7,4.1-2.2
			l23.7,7.1c1.8,0.5,2.7,2.4,2.2,4.1C2668.7,691.8,2668.1,692.5,2667.4,692.9z"/>
		<path class="st0" d="M2688,699c-0.7,0.4-1.6,0.5-2.5,0.3l-5.6-1.7c-1.8-0.5-2.7-2.4-2.2-4.1c0.5-1.8,2.4-2.7,4.1-2.2l5.6,1.7
			c1.8,0.5,2.7,2.4,2.2,4.1C2689.3,697.9,2688.7,698.6,2688,699z"/>
		<path class="st0" d="M2543.8,780.9c-0.7,0.4-1.6,0.5-2.5,0.3c-1.8-0.5-2.7-2.4-2.2-4.1l2.3-7.6c0.5-1.8,2.4-2.7,4.1-2.2
			c1.8,0.5,2.7,2.4,2.2,4.1l-2.3,7.6C2545.1,779.8,2544.5,780.5,2543.8,780.9z"/>
		<path class="st0" d="M2549.8,760.9c-0.7,0.4-1.6,0.5-2.5,0.3c-1.8-0.5-2.7-2.4-2.2-4.1l8-26.9c0.5-1.8,2.4-2.7,4.1-2.2
			c1.8,0.5,2.7,2.4,2.2,4.1l-8,26.9C2551.1,759.8,2550.5,760.5,2549.8,760.9z"/>
		<path class="st0" d="M2662.6,734.9c-1.1,0.6-2.6,0.5-3.7-0.3l-25.3-20.6c-1.4-1.2-1.6-3.2-0.5-4.7c1.2-1.4,3.2-1.6,4.7-0.5
			l25.3,20.6c1.4,1.2,1.6,3.2,0.5,4.7C2663.3,734.4,2662.9,734.7,2662.6,734.9z"/>
		<path class="st0" d="M2509.3,750.6c-1.1,0.6-2.6,0.5-3.7-0.3c-1.4-1.2-1.6-3.2-0.5-4.7l16.1-19.8c1.2-1.4,3.2-1.6,4.7-0.5
			c1.4,1.2,1.6,3.2,0.5,4.7l-16.1,19.8C2510,750.2,2509.7,750.4,2509.3,750.6z"/>
		<path class="st0" d="M2689.7,654.7c-0.4,0.2-0.8,0.3-1.2,0.4l-20.9,2.1c-1.8,0.2-3.4-1.1-3.6-3c-0.2-1.8,1.1-3.4,3-3.6l20.9-2.1
			c1.8-0.2,3.4,1.1,3.6,3C2691.6,652.8,2690.9,654.1,2689.7,654.7z"/>
		<path class="st0" d="M2589.4,776.9c-0.4,0.2-0.8,0.3-1.2,0.4c-1.8,0.2-3.4-1.1-3.6-3l-3.6-34.9c-0.2-1.8,1.1-3.4,3-3.6
			c1.8-0.2,3.4,1.1,3.6,3l3.6,34.9C2591.3,775,2590.6,776.3,2589.4,776.9z"/>
	</g>
</g>
<g>
	<g>
		<path class="st0" d="M-133.5,1035.3c-0.6-0.3-1.1-0.8-1.5-1.4c-0.6-1.1-0.5-2.5,0.3-3.5l6.2-8.5l-3.5-9.9
			c-0.4-1.2-0.1-2.5,0.8-3.4c0.9-0.9,2.2-1.2,3.4-0.8l10,3.3l8.3-6.3c1-0.8,2.4-0.9,3.5-0.3l0,0c1.1,0.6,1.8,1.7,1.8,3l0,10.5l8.6,6
			c1,0.7,1.6,2,1.4,3.2c-0.2,1.2-1.1,2.3-2.3,2.7l-10,3.2l-3,10c-0.4,1.2-1.4,2.1-2.6,2.3c-1.2,0.2-2.5-0.3-3.2-1.3l-6.1-8.5
			l-10.5,0.2C-132.5,1035.7-133,1035.6-133.5,1035.3z M-123.5,1016.2l1.8,5.2c0.4,1,0.2,2.2-0.5,3l-3.3,4.5l5.5-0.1
			c1.1,0,2.1,0.5,2.8,1.4l3.2,4.5l1.6-5.3c0.3-1,1.1-1.9,2.2-2.2l5.3-1.7l-4.5-3.1c-0.9-0.6-1.4-1.6-1.4-2.7l0-5.5l-4.4,3.3
			c-0.9,0.7-2,0.8-3,0.5L-123.5,1016.2z"/>
		<path class="st0" d="M-76,1064c-0.5-0.2-0.9-0.6-1.2-1l-6.1-8.5l-10.5,0.2c-1.3,0-2.4-0.7-3-1.8c-0.6-1.1-0.5-2.5,0.3-3.5l6.2-8.5
			l-3.5-9.9c-0.4-1.2-0.1-2.5,0.8-3.4c0.9-0.9,2.2-1.2,3.4-0.8l10,3.3l8.3-6.3c1-0.8,2.4-0.9,3.5-0.3c1.1,0.6,1.8,1.7,1.8,3l0,10.5
			l8.6,6c1,0.7,1.6,2,1.4,3.2c-0.2,1.2-1.1,2.3-2.3,2.7l-10,3.2l-3,10c-0.4,1.2-1.4,2.1-2.6,2.3C-74.7,1064.4-75.4,1064.3-76,1064z
			 M-80.2,1048.1c0.5,0.2,0.9,0.6,1.2,1l3.2,4.5l1.6-5.3c0.3-1,1.1-1.9,2.2-2.2l5.3-1.7l-4.5-3.1c-0.9-0.6-1.4-1.6-1.4-2.7l0-5.5
			l-4.4,3.3c-0.9,0.7-2,0.8-3,0.5l-5.2-1.7l1.8,5.2c0.4,1,0.2,2.2-0.5,3l-3.3,4.5l5.5-0.1C-81.2,1047.8-80.7,1047.9-80.2,1048.1z"/>
		<path class="st0" d="M-37.9,1083c-0.5-0.2-0.9-0.6-1.2-1l-6.1-8.5l-10.5,0.2c-1.3,0-2.4-0.7-3-1.8c-0.6-1.1-0.5-2.5,0.3-3.5
			l6.2-8.5l-3.5-9.9c-0.4-1.2-0.1-2.5,0.8-3.4c0.9-0.9,2.2-1.2,3.4-0.8l10,3.3l8.3-6.3c1-0.8,2.4-0.9,3.5-0.3c1.1,0.6,1.8,1.7,1.8,3
			l0,10.5l8.6,6c1,0.7,1.6,2,1.4,3.2c-0.2,1.2-1.1,2.3-2.3,2.7l-10,3.2l-3,10c-0.4,1.2-1.4,2.1-2.6,2.3
			C-36.6,1083.4-37.3,1083.3-37.9,1083z M-47.3,1054.2l1.8,5.2c0.4,1,0.2,2.2-0.5,3l-3.3,4.5l5.5-0.1c1.1,0,2.1,0.5,2.8,1.4l3.2,4.5
			l1.6-5.3c0.3-1,1.1-1.9,2.2-2.2l5.3-1.7l-4.5-3.1c-0.9-0.6-1.4-1.6-1.4-2.7l0-5.5l-4.4,3.3c-0.9,0.7-2,0.9-3,0.5L-47.3,1054.2z"/>
		<path class="st0" d="M0.2,1102c-0.5-0.2-0.9-0.6-1.2-1l-6.1-8.5l-10.5,0.2c-1.3,0-2.4-0.7-3-1.8c-0.6-1.1-0.5-2.5,0.3-3.5l6.2-8.5
			l-3.5-9.9c-0.4-1.2-0.1-2.5,0.8-3.4c0.9-0.9,2.2-1.2,3.4-0.8l10,3.3l8.3-6.3c1-0.8,2.4-0.9,3.5-0.3c1.1,0.6,1.8,1.7,1.8,3l0,10.5
			l8.6,6c1,0.7,1.6,2,1.4,3.2c-0.2,1.2-1.1,2.3-2.3,2.7l-10,3.2l-3,10c-0.4,1.2-1.4,2.1-2.6,2.3C1.5,1102.4,0.8,1102.3,0.2,1102z
			 M-4,1086.1c0.5,0.2,0.9,0.6,1.2,1l3.2,4.5l1.6-5.3c0.3-1,1.1-1.9,2.2-2.2l5.3-1.7l-4.5-3.1c-0.9-0.6-1.4-1.6-1.4-2.7l0-5.5
			l-4.4,3.3c-0.9,0.7-2,0.8-3,0.5l-5.2-1.7l1.8,5.2c0.4,1,0.2,2.2-0.5,3l-3.3,4.5l5.5-0.1C-5,1085.7-4.5,1085.9-4,1086.1z"/>
		<path class="st0" d="M38.3,1120.9c-0.5-0.2-0.9-0.6-1.2-1l-6.1-8.5l-10.5,0.2c-1.3,0-2.4-0.7-3-1.8c-0.6-1.1-0.5-2.5,0.3-3.5
			l6.2-8.5l-3.5-9.9c-0.4-1.2-0.1-2.5,0.8-3.4c0.9-0.9,2.2-1.2,3.4-0.8l10,3.3l8.3-6.3c1-0.8,2.4-0.9,3.5-0.3c1.1,0.6,1.8,1.7,1.8,3
			l0,10.5l8.6,6c1,0.7,1.6,2,1.4,3.2c-0.2,1.2-1.1,2.3-2.3,2.7l-10,3.2l-3,10c-0.4,1.2-1.4,2.1-2.6,2.3
			C39.6,1121.4,38.9,1121.2,38.3,1120.9z M34.1,1105.1c0.5,0.2,0.9,0.6,1.2,1l3.2,4.5l1.6-5.3c0.3-1,1.1-1.9,2.2-2.2l5.3-1.7
			l-4.5-3.1c-0.9-0.6-1.4-1.6-1.4-2.7l0-5.5l-4.4,3.3c-0.9,0.7-2,0.9-3,0.5l-5.2-1.7l1.8,5.2c0.4,1,0.2,2.2-0.5,3l-3.3,4.5l5.5-0.1
			C33.1,1104.7,33.6,1104.9,34.1,1105.1z"/>
	</g>
	<g>
		<path class="st0" d="M-14.8,1008.5c-1.6-0.8-2.3-2.8-1.5-4.4l3.5-7.1c0.8-1.6,2.8-2.3,4.4-1.5c1.6,0.8,2.3,2.8,1.5,4.4l-3.5,7.1
			C-11.2,1008.6-13.2,1009.3-14.8,1008.5z"/>
		<path class="st0" d="M-4.9,988.6c-1.6-0.8-2.3-2.8-1.5-4.4l9.9-19.8c0.8-1.6,2.8-2.3,4.4-1.5c1.6,0.8,2.3,2.8,1.5,4.4l-9.9,19.8
			C-1.3,988.8-3.3,989.4-4.9,988.6z"/>
		<path class="st0" d="M-64.5,999.5c-0.8-0.4-1.4-1-1.7-1.9l-7.9-23.5c-0.6-1.7,0.4-3.6,2.1-4.2c1.7-0.6,3.6,0.4,4.2,2.1l7.9,23.5
			c0.6,1.7-0.4,3.6-2.1,4.2C-62.8,1000-63.7,999.9-64.5,999.5z"/>
		<path class="st0" d="M-77.3,961.2c-0.8-0.4-1.4-1-1.7-1.9l-1.9-5.5c-0.6-1.7,0.4-3.6,2.1-4.2c1.7-0.6,3.6,0.4,4.2,2.1l1.9,5.5
			c0.6,1.7-0.4,3.6-2.1,4.2C-75.6,961.6-76.5,961.6-77.3,961.2z"/>
		<path class="st0" d="M63.3,1028.9c-0.8-0.4-1.4-1-1.7-1.9c-0.6-1.7,0.4-3.6,2.1-4.2l7.6-2.5c1.7-0.6,3.6,0.4,4.2,2.1
			c0.6,1.7-0.4,3.6-2.1,4.2l-7.6,2.5C65,1029.4,64.1,1029.3,63.3,1028.9z"/>
		<path class="st0" d="M24.4,1042c-0.8-0.4-1.4-1-1.7-1.9c-0.6-1.7,0.4-3.6,2.1-4.2l26.6-8.9c1.7-0.6,3.6,0.4,4.2,2.1
			c0.6,1.7-0.4,3.6-2.1,4.2l-26.6,8.9C26.1,1042.4,25.2,1042.3,24.4,1042z"/>
		<path class="st0" d="M-37.4,988.4c-1.2-0.6-1.9-1.8-1.8-3.2l2.3-32.6c0.1-1.8,1.7-3.2,3.5-3.1c1.8,0.1,3.2,1.7,3.1,3.5l-2.3,32.6
			c-0.1,1.8-1.7,3.2-3.5,3.1C-36.6,988.7-37,988.6-37.4,988.4z"/>
		<path class="st0" d="M40.4,1070.2c-1.2-0.6-1.9-1.8-1.8-3.2c0.1-1.8,1.7-3.2,3.5-3.1l25.5,1.8c1.8,0.1,3.2,1.7,3.1,3.5
			c-0.1,1.8-1.7,3.2-3.5,3.1l-25.5-1.8C41.2,1070.5,40.8,1070.4,40.4,1070.2z"/>
		<path class="st0" d="M-102.6,995.6c-0.4-0.2-0.7-0.5-1-0.8l-13.8-15.9c-1.2-1.4-1.1-3.5,0.3-4.7c1.4-1.2,3.5-1.1,4.7,0.3
			l13.8,15.9c1.2,1.4,1.1,3.5-0.3,4.7C-100,996-101.4,996.2-102.6,995.6z"/>
		<path class="st0" d="M14.8,1014.4c-0.4-0.2-0.7-0.5-1-0.8c-1.2-1.4-1.1-3.5,0.3-4.7l26.5-23c1.4-1.2,3.5-1.1,4.7,0.3
			c1.2,1.4,1.1,3.5-0.3,4.7l-26.5,23C17.4,1014.8,16,1015,14.8,1014.4z"/>
	</g>
	<g>
		<path class="st0" d="M-76.9,1126.1c-1.6-0.8-2.3-2.8-1.5-4.4l3.5-7.1c0.8-1.6,2.8-2.3,4.4-1.5c1.6,0.8,2.3,2.8,1.5,4.4l-3.5,7.1
			C-73.3,1126.2-75.3,1126.9-76.9,1126.1z"/>
		<path class="st0" d="M-93.1,1158.7c-1.6-0.8-2.3-2.8-1.5-4.4l9.9-19.8c0.8-1.6,2.8-2.3,4.4-1.5c1.6,0.8,2.3,2.8,1.5,4.4l-9.9,19.8
			C-89.5,1158.9-91.5,1159.5-93.1,1158.7z"/>
		<path class="st0" d="M-15.9,1151.4c-0.8-0.4-1.4-1-1.7-1.9l-7.9-23.5c-0.6-1.7,0.4-3.6,2.1-4.2c1.7-0.6,3.6,0.4,4.2,2.1l7.9,23.5
			c0.6,1.7-0.4,3.6-2.1,4.2C-14.2,1151.9-15.1,1151.8-15.9,1151.4z"/>
		<path class="st0" d="M-9.1,1171.9c-0.8-0.4-1.4-1-1.7-1.9l-1.9-5.5c-0.6-1.7,0.4-3.6,2.1-4.2c1.7-0.6,3.6,0.4,4.2,2.1l1.9,5.5
			c0.6,1.7-0.4,3.6-2.1,4.2C-7.4,1172.3-8.3,1172.2-9.1,1171.9z"/>
		<path class="st0" d="M-159.1,1101.1c-0.8-0.4-1.4-1-1.7-1.9c-0.6-1.7,0.4-3.6,2.1-4.2l7.6-2.5c1.7-0.6,3.6,0.4,4.2,2.1
			c0.6,1.7-0.4,3.6-2.1,4.2l-7.6,2.5C-157.4,1101.6-158.3,1101.5-159.1,1101.1z"/>
		<path class="st0" d="M-139.2,1094.4c-0.8-0.4-1.4-1-1.7-1.9c-0.6-1.7,0.4-3.6,2.1-4.2l26.6-8.9c1.7-0.6,3.6,0.4,4.2,2.1
			c0.6,1.7-0.4,3.6-2.1,4.2l-26.6,8.9C-137.6,1094.9-138.5,1094.8-139.2,1094.4z"/>
		<path class="st0" d="M-53,1171.7c-1.2-0.6-1.9-1.8-1.8-3.2l2.3-32.6c0.1-1.8,1.7-3.2,3.5-3.1c1.8,0.1,3.2,1.7,3.1,3.5l-2.3,32.6
			c-0.1,1.8-1.7,3.2-3.5,3.1C-52.2,1172-52.7,1171.9-53,1171.7z"/>
		<path class="st0" d="M-154.1,1055.5c-1.2-0.6-1.9-1.8-1.8-3.2c0.1-1.8,1.7-3.2,3.5-3.1l25.5,1.8c1.8,0.1,3.2,1.7,3.1,3.5
			c-0.1,1.8-1.7,3.2-3.5,3.1l-25.5-1.8C-153.3,1055.8-153.8,1055.7-154.1,1055.5z"/>
		<path class="st0" d="M28.2,1147.7c-0.4-0.2-0.7-0.5-1-0.8l-13.8-15.9c-1.2-1.4-1.1-3.5,0.3-4.7c1.4-1.2,3.5-1.1,4.7,0.3l13.8,15.9
			c1.2,1.4,1.1,3.5-0.3,4.7C30.8,1148.2,29.3,1148.3,28.2,1147.7z"/>
		<path class="st0" d="M-129.5,1136.1c-0.4-0.2-0.7-0.5-1-0.8c-1.2-1.4-1.1-3.5,0.3-4.7l26.5-23c1.4-1.2,3.5-1.1,4.7,0.3
			c1.2,1.4,1.1,3.5-0.3,4.7l-26.5,23C-126.9,1136.6-128.3,1136.7-129.5,1136.1z"/>
	</g>
</g>
</svg>
