<?xml version="1.0" encoding="UTF-8"?>
<svg xmlns="http://www.w3.org/2000/svg" xmlns:xlink="http://www.w3.org/1999/xlink" xmlns:svgjs="http://svgjs.com/svgjs" version="1.1" width="512" height="512" x="0" y="0" viewBox="0 0 64 64" style="enable-background:new 0 0 512 512" xml:space="preserve" class="">
  <g>
    <path xmlns="http://www.w3.org/2000/svg" d="m48.224 36.91a3.48 3.48 0 0 0 -.563 1.362l-.721 4.109a2.684 2.684 0 0 1 -2.646 2.226 2.575 2.575 0 0 1 -.38-.027l-4.13-.58a3.65 3.65 0 0 0 -.488-.034 3.478 3.478 0 0 0 -2.427.981l-1.647 1.594 16.464 16.459 2.122-9.192 9.192-2.122z" fill="#ffd861" data-original="#f9b534" class=""/>
    <path xmlns="http://www.w3.org/2000/svg" d="m50.909 39.6-.62 3.374a6.08 6.08 0 0 1 -6 5.039 6.215 6.215 0 0 1 -.856-.061l-2.1-.3 11.291 11.286 1.184-5.13 9.192-2.122z" fill="#ffe593" data-original="#f9cb4e" class=""/>
    <path xmlns="http://www.w3.org/2000/svg" d="m15.776 36.91a3.48 3.48 0 0 1 .563 1.362l.721 4.109a2.684 2.684 0 0 0 2.646 2.226 2.575 2.575 0 0 0 .38-.027l4.13-.58a3.65 3.65 0 0 1 .488-.034 3.478 3.478 0 0 1 2.427.981l1.647 1.594-16.464 16.459-2.122-9.192-9.192-2.122z" fill="#ffd861" data-original="#f9b534" class=""/>
    <path xmlns="http://www.w3.org/2000/svg" d="m13.091 39.6.62 3.374a6.08 6.08 0 0 0 5.995 5.039 6.215 6.215 0 0 0 .856-.061l2.1-.3-11.286 11.286-1.184-5.13-9.192-2.122z" fill="#ffe593" data-original="#f9cb4e" class=""/>
    <path xmlns="http://www.w3.org/2000/svg" d="m11.169 23.643-1.832-3.743a3.09 3.09 0 0 1 1.328-4.086l3.685-1.955a3.088 3.088 0 0 0 1.6-2.2l.721-4.108a3.089 3.089 0 0 1 3.476-2.526l4.13.584a3.089 3.089 0 0 0 2.582-.839l3-2.9a3.089 3.089 0 0 1 4.3 0l3 2.9a3.089 3.089 0 0 0 2.582.839l4.13-.584a3.089 3.089 0 0 1 3.463 2.525l.721 4.108a3.088 3.088 0 0 0 1.595 2.2l3.685 1.955a3.09 3.09 0 0 1 1.328 4.087l-1.832 3.748a3.087 3.087 0 0 0 0 2.714l1.832 3.748a3.09 3.09 0 0 1 -1.328 4.086l-3.685 1.95a3.088 3.088 0 0 0 -1.595 2.2l-.721 4.108a3.089 3.089 0 0 1 -3.476 2.526l-4.13-.584a3.089 3.089 0 0 0 -2.582.839l-3 2.9a3.089 3.089 0 0 1 -4.3 0l-3-2.9a3.089 3.089 0 0 0 -2.582-.839l-4.13.584a3.089 3.089 0 0 1 -3.476-2.526l-.721-4.108a3.088 3.088 0 0 0 -1.6-2.2l-3.685-1.955a3.09 3.09 0 0 1 -1.328-4.086l1.832-3.748a3.087 3.087 0 0 0 .013-2.714z" fill="#d84676" data-original="#64e1dc" class=""/>
    <g xmlns="http://www.w3.org/2000/svg" fill="#50cdc8">
      <path d="m28.272 5.608a3.089 3.089 0 0 0 2.582-.839l3-2.9a.9.9 0 0 1 .156-.128 3.091 3.091 0 0 0 -4.156.128l-3 2.9a3.053 3.053 0 0 1 -.769.544z" fill="#d22d64" data-original="#50cdc8" class=""/>
      <path d="m33.852 48.131-3-2.9a3.089 3.089 0 0 0 -2.582-.839l-2.195.31a3.062 3.062 0 0 1 .777.529l3 2.9a3.09 3.09 0 0 0 4.161.123c-.048-.041-.113-.078-.161-.123z" fill="#d22d64" data-original="#50cdc8" class=""/>
      <path d="m20.666 42.45-.721-4.108a3.088 3.088 0 0 0 -1.595-2.2l-3.685-1.955a3.09 3.09 0 0 1 -1.328-4.086l1.832-3.748a3.087 3.087 0 0 0 0-2.714l-1.832-3.739a3.09 3.09 0 0 1 1.328-4.086l3.685-1.955a3.088 3.088 0 0 0 1.595-2.2l.721-4.108a3.079 3.079 0 0 1 1.652-2.218l-2.176-.308a3.089 3.089 0 0 0 -3.476 2.525l-.721 4.108a3.088 3.088 0 0 1 -1.6 2.2l-3.685 1.955a3.09 3.09 0 0 0 -1.323 4.087l1.832 3.748a3.087 3.087 0 0 1 0 2.714l-1.832 3.743a3.09 3.09 0 0 0 1.328 4.086l3.685 1.955a3.088 3.088 0 0 1 1.6 2.2l.721 4.108a3.09 3.09 0 0 0 3.476 2.526l2.176-.308a3.079 3.079 0 0 1 -1.657-2.222z" fill="#d22d64" data-original="#50cdc8" class=""/>
    </g>
    <circle xmlns="http://www.w3.org/2000/svg" cx="32" cy="25" fill="#ffe593" r="14" data-original="#f9cb4e" class=""/>
    <path xmlns="http://www.w3.org/2000/svg" d="m22 25a13.991 13.991 0 0 1 12-13.841 14 14 0 1 0 0 27.682 13.991 13.991 0 0 1 -12-13.841z" fill="#ffd861" data-original="#f9b534" class=""/>
    <path xmlns="http://www.w3.org/2000/svg" d="m63.707 50.979-13.8-13.8a1.989 1.989 0 0 1 .215-.147l3.678-1.957a4.074 4.074 0 0 0 1.757-5.41l-1.832-3.747a2.078 2.078 0 0 1 0-1.836l1.832-3.747a4.074 4.074 0 0 0 -1.757-5.41l-3.682-1.955a2.075 2.075 0 0 1 -1.078-1.485l-.721-4.108a4.074 4.074 0 0 0 -4.6-3.344l-4.13.585a2.1 2.1 0 0 1 -1.746-.567l-3-2.9a4.073 4.073 0 0 0 -5.688 0l-3 2.9a2.1 2.1 0 0 1 -1.746.567l-4.131-.585a4.076 4.076 0 0 0 -4.6 3.344l-.721 4.108a2.073 2.073 0 0 1 -1.079 1.485l-3.678 1.955a4.074 4.074 0 0 0 -1.757 5.41l1.832 3.747a2.078 2.078 0 0 1 0 1.836l-1.836 3.747a4.074 4.074 0 0 0 1.757 5.41l3.686 1.955a2.079 2.079 0 0 1 .214.147l-13.8 13.8a1 1 0 0 0 .482 1.682l8.583 1.981 1.981 8.583a1 1 0 0 0 1.682.482l15.483-15.484.649.629a4.074 4.074 0 0 0 5.688 0l.649-.629 15.486 15.486a1 1 0 0 0 1.682-.482l1.981-8.583 8.583-1.981a1 1 0 0 0 .482-1.682zm-50.825 10.038-1.715-7.434a1 1 0 0 0 -.75-.75l-7.434-1.715 12.071-12.071.627 3.576a4.078 4.078 0 0 0 4.6 3.344l4.13-.585a2.106 2.106 0 0 1 1.746.567l.911.881zm17.665-13.605-1.345-1.3-1.654-1.6a4.065 4.065 0 0 0 -2.835-1.152 4.237 4.237 0 0 0 -.581.041l-4.132.585a2.078 2.078 0 0 1 -2.351-1.709l-.721-4.108a4.078 4.078 0 0 0 -.5-1.322 1.022 1.022 0 0 0 -.079-.14 4.05 4.05 0 0 0 -1.528-1.444l-3.685-1.955a2.081 2.081 0 0 1 -.9-2.764l1.832-3.744a4.074 4.074 0 0 0 0-3.594l-1.832-3.747a2.081 2.081 0 0 1 .9-2.764l3.684-1.955a4.062 4.062 0 0 0 2.112-2.906l.721-4.108a2.074 2.074 0 0 1 2.347-1.712l4.131.585a4.07 4.07 0 0 0 3.416-1.111l3-2.9a2.08 2.08 0 0 1 2.906 0l3 2.9a4.069 4.069 0 0 0 3.415 1.112l4.132-.586a2.077 2.077 0 0 1 2.351 1.709l.721 4.108a4.064 4.064 0 0 0 2.111 2.906l3.685 1.955a2.081 2.081 0 0 1 .9 2.764l-1.836 3.744a4.074 4.074 0 0 0 0 3.594l1.832 3.747a2.081 2.081 0 0 1 -.9 2.764l-3.684 1.955a4.062 4.062 0 0 0 -2.112 2.906l-.721 4.108a2.079 2.079 0 0 1 -2.347 1.712l-4.133-.586a4.071 4.071 0 0 0 -3.416 1.111l-3 2.9a2.08 2.08 0 0 1 -2.904.001zm23.036 5.421a1 1 0 0 0 -.75.75l-1.715 7.434-14.187-14.187.91-.881a2.11 2.11 0 0 1 1.746-.567l4.131.585a4.077 4.077 0 0 0 4.6-3.344l.627-3.576 12.072 12.071z" fill="#222222" data-original="#000000" class=""/>
    <path xmlns="http://www.w3.org/2000/svg" d="m47 25a14.991 14.991 0 0 0 -3.632-9.785 1 1 0 1 0 -1.514 1.3 12.985 12.985 0 1 1 -2.624-2.326 1 1 0 1 0 1.114-1.66 15 15 0 1 0 6.656 12.471z" fill="#222222" data-original="#000000" class=""/>
    <path xmlns="http://www.w3.org/2000/svg" d="m37.775 20.312-7.792 8.206-3.732-4.252a1 1 0 1 0 -1.5 1.318l4.449 5.075a1 1 0 0 0 .732.341h.02a1 1 0 0 0 .725-.312l8.545-9a1 1 0 1 0 -1.45-1.376z" fill="#222222" data-original="#000000" class=""/>
  </g>
</svg>
