<svg height="512pt" viewBox="0 0 512.0003 512" width="512pt" xmlns="http://www.w3.org/2000/svg"><path d="m504.300781 246.882812c-.167969-3.949218-3.394531-6.933593-7.335937-7.269531-34.195313-2.894531-62.820313-25.292969-74.710938-56.039062-2.738281-7.085938-10.347656-11.261719-17.800781-9.761719-6.683594 1.34375-13.597656 2.054688-20.699219 2.050781-12.011718-.007812-23.832031-2.972656-34.949218-7.523437l-4.625-1.894532c-15.0625-6.167968-28.191407-14.757812-38.351563-26.34375-13.117187-14.960937-22-33.609374-24.777344-53.925781-.03125-.242187-.070312-.488281-.097656-.730469-3.90625-37.367187 11.945313-63.816406 12.296875-64.445312 2.703125-4.832031-.269531-10.757812-5.757812-11.464844-10.3125-1.324218-20.8125-2.035156-31.484376-2.035156-22.355468 0-44.019531 2.949219-64.628906 8.484375-27.1875 7.304687-52.609375 20.070313-75.769531 36.078125l-.035156.023438c-22.066407 15.246093-42.234375 33.320312-58.347657 54.765624-34.402343 45.777344-53.359374 103.828126-49.128906 166.40625 8.289063 122.679688 107.613282 222.160157 230.28125 230.621094 145.214844 10.011719 266.121094-104.816406 266.121094-247.886718 0-3.054688-.074219-6.089844-.199219-9.109376zm0 0" fill="#c38c66"/><path d="m288.070312 472.421875c-137.242187 0-248.496093-111.253906-248.496093-248.492187 0-58.847657 20.5-112.878907 54.6875-155.449219-13.679688 11.449219-26.3125 24.097656-37.035157 38.371093-34.402343 45.777344-53.359374 103.828126-49.128906 166.40625 8.289063 122.679688 107.613282 222.160157 230.28125 230.621094 83.734375 5.773438 159.332032-30.015625 208.382813-88.742187-43.050781 35.765625-98.351563 57.285156-158.691407 57.285156zm0 0" fill="#b57f5f"/><path d="m135.765625 179.839844c0 11.070312-8.96875 20.039062-20.039063 20.039062-11.066406 0-20.039062-8.96875-20.039062-20.039062 0-11.066406 8.972656-20.039063 20.039062-20.039063 11.070313 0 20.039063 8.972657 20.039063 20.039063zm0 0" fill="#785353"/><g fill="#ffe09f"><path d="m256.1875 243.484375-11.21875-44.167969c-1.636719-6.441406-9.035156-9.460937-14.707031-6.003906l-33.644531 20.5c-3.703126 2.253906-5.5 6.660156-4.433594 10.863281l11.21875 44.171875c1.636718 6.4375 9.035156 9.457032 14.707031 6l33.644531-20.5c3.703125-2.253906 5.5-6.660156 4.433594-10.863281zm0 0"/><path d="m131.933594 341.511719-20.335938 28.042969c-2.964844 4.085937-1.125 9.875 3.652344 11.507812l28.339844 9.671875c3.117187 1.0625 6.5625-.03125 8.496094-2.699219l20.335937-28.039062c2.964844-4.089844 1.125-9.878906-3.652344-11.507813l-28.339843-9.671875c-3.117188-1.066406-6.5625.027344-8.496094 2.695313zm0 0"/><path d="m373.640625 365.871094-28.421875-11.300782c-4.140625-1.644531-8.699219 1.183594-9.054688 5.628907l-2.109374 26.355469c-.234376 2.898437 1.453124 5.613281 4.15625 6.6875l28.417968 11.300781c4.144532 1.648437 8.699219-1.183594 9.054688-5.628907l2.113281-26.355468c.230469-2.898438-1.453125-5.613282-4.15625-6.6875zm0 0"/><path d="m126.90625 40.230469-27.496094 13.398437c-4.007812 1.953125-4.980468 7.226563-1.933594 10.484375l18.058594 19.3125c1.988282 2.125 5.128906 2.703125 7.742188 1.429688l27.496094-13.398438c4.007812-1.953125 4.980468-7.226562 1.9375-10.480469l-18.0625-19.3125c-1.988282-2.125-5.128907-2.707031-7.742188-1.433593zm0 0"/><path d="m357.867188 46.605469-10.71875 32.152343c-1.558594 4.671876 1.425781 9.632813 6.285156 10.441407l34.203125 5.703125c2.867187.476562 5.765625-.632813 7.578125-2.898438l21.324218-26.652344c3.648438-4.5625 1.347657-11.371093-4.316406-12.785156l-44.808594-11.203125c-4.0625-1.015625-8.222656 1.265625-9.546874 5.242188zm0 0"/></g><path d="m452.796875 101.085938-8.347656 12.519531c-2.304688 3.460937-1.585938 8.109375 1.660156 10.707031l25.90625 20.722656c4.199219 3.359375 10.453125 1.710938 12.449219-3.28125l9.039062-22.605468c1.644532-4.109376-.351562-8.777344-4.464844-10.417969l-26.597656-10.640625c-3.515625-1.410156-7.542968-.160156-9.644531 2.996094zm0 0" fill="#c38c66"/><path d="m123.277344 84.855469 3.632812-1.773438c-9.757812-10.773437-11.644531-25.8125-11.292968-37.347656l-16.207032 7.894531c-4.007812 1.953125-4.980468 7.226563-1.933594 10.484375l18.058594 19.308594c1.988282 2.125 5.128906 2.707031 7.742188 1.433594zm0 0" fill="#f6d190"/><path d="m203.402344 268.847656c1.636718 6.4375 9.035156 9.457032 14.707031 6l11.839844-7.214844c-19.117188-13.21875-22.953125-39.5625-22.511719-60.414062l-10.820312 6.59375c-3.703126 2.253906-5.5 6.660156-4.433594 10.863281zm0 0" fill="#f6d190"/><path d="m119.632812 358.472656-8.035156 11.082032c-2.964844 4.085937-1.125 9.875 3.652344 11.507812l28.339844 9.671875c3.117187 1.0625 6.566406-.03125 8.5-2.699219l6.683594-9.21875c-21.714844-3.300781-32.8125-11.628906-39.140626-20.34375zm0 0" fill="#f6d190"/><path d="m353.433594 89.199219 25.445312 4.238281c-9.402344-15.527344-12.90625-36.488281-14.324218-52.234375-3.011719.347656-5.679688 2.367187-6.6875 5.398437l-10.71875 32.15625c-1.558594 4.671876 1.425781 9.632813 6.285156 10.441407zm0 0" fill="#f6d190"/><path d="m457.378906 133.324219c-2.269531-11.789063 3.484375-23.398438 9.390625-33.503907l-4.324219-1.730468c-3.523437-1.410156-7.546874-.160156-9.648437 2.996094l-8.347656 12.519531c-2.304688 3.460937-1.585938 8.109375 1.664062 10.707031zm0 0" fill="#b57f5f"/><path d="m280.054688 420.320312c0 11.066407-8.972657 20.039063-20.039063 20.039063-11.070313 0-20.039063-8.972656-20.039063-20.039063 0-11.070312 8.96875-20.039062 20.039063-20.039062 11.066406 0 20.039063 8.96875 20.039063 20.039062zm0 0" fill="#785353"/><path d="m416.324219 280.039062c0 13.28125-10.765625 24.046876-24.046875 24.046876s-24.046875-10.765626-24.046875-24.046876 10.765625-24.046874 24.046875-24.046874 24.046875 10.765624 24.046875 24.046874zm0 0" fill="#785353"/><path d="m404.601562 291.761719c-13.28125 0-24.046874-10.765625-24.046874-24.046875 0-3.445313.75-6.703125 2.054687-9.664063-8.457031 3.722657-14.378906 12.152344-14.378906 21.988281 0 13.28125 10.765625 24.050782 24.046875 24.050782 9.835937 0 18.265625-5.921875 21.992187-14.382813-2.964843 1.304688-6.222656 2.054688-9.667969 2.054688zm0 0" fill="#6e4848"/><path d="m488.46875 31.546875c0 8.851563-7.179688 16.03125-16.03125 16.03125-8.855469 0-16.03125-7.179687-16.03125-16.03125 0-8.855469 7.175781-16.03125 16.03125-16.03125 8.851562 0 16.03125 7.175781 16.03125 16.03125zm0 0" fill="#c38c66"/><path d="m360.210938 179.839844c0 11.070312-8.96875 20.039062-20.039063 20.039062-11.066406 0-20.039063-8.96875-20.039063-20.039062 0-11.066406 8.972657-20.039063 20.039063-20.039063 11.070313 0 20.039063 8.972657 20.039063 20.039063zm0 0" fill="#785353"/><path d="m511.792969 246.574219c-.316407-7.570313-6.417969-13.773438-14.191407-14.429688-30.578124-2.589843-57.441406-22.804687-68.4375-51.503906-3.953124-10.308594-15.164062-16.414063-26.078124-14.203125-12.917969 2.613281-26.035157 2.519531-39.027344-.28125-4.757813-8.269531-13.679688-13.855469-23.886719-13.855469-2.585937 0-5.085937.367188-7.460937 1.035157-23.976563-15.199219-40.449219-40.523438-44.230469-68.175782-.742188-5.429687-1.039063-10.910156-.886719-16.296875.117188-4.140625-3.144531-7.59375-7.285156-7.710937-4.164063-.105469-7.59375 3.144531-7.710938 7.285156-.171875 6.207031.167969 12.515625 1.023438 18.753906 4.070312 29.777344 20.820312 57.199219 45.429687 75.003906-4.003906 4.78125-6.417969 10.9375-6.417969 17.644532 0 15.1875 12.355469 27.542968 27.542969 27.542968 14.4375 0 26.308594-11.171874 27.441407-25.324218 12.820312 1.960937 25.710937 1.660156 38.445312-.921875 3.828125-.769531 7.734375 1.320312 9.09375 4.871093 2.554688 6.667969 5.839844 12.941407 9.730469 18.753907l-5.847657 5.847656c-2.929687 2.929687-2.929687 7.679687 0 10.605469 1.464844 1.464844 3.382813 2.199218 5.304688 2.199218 1.917969 0 3.835938-.734374 5.300781-2.199218l4.605469-4.605469c15.96875 17.230469 38.058594 28.445313 62.085938 30.480469.308593.023437.46875.15625.472656.113281.128906 3.121094.191406 6 .191406 8.789063 0 34.003906-6.9375 66.871093-20.617188 97.6875-13.21875 29.777343-32.050781 56.195312-55.972656 78.523437-23.875 22.285156-51.460937 39.21875-81.992187 50.328125-31.777344 11.5625-65.261719 16.226562-99.519531 13.863281-25.855469-1.78125-51.078126-7.824219-74.773438-17.671875l9.011719-9.011718c2.925781-2.929688 2.925781-7.679688 0-10.609376-2.929688-2.925781-7.679688-2.925781-10.605469 0l-12.980469 12.980469c-23.351562-11.585937-44.929687-27.011719-63.777343-45.855469-41.289063-41.289062-66.207032-95.667968-70.167969-153.125-1.871094-27.132812.632812-53.628906 7.4375-79.148437l3.214843 3.214844c1.464844 1.464843 3.382813 2.195312 5.304688 2.195312 1.917969 0 3.835938-.730469 5.300781-2.195312 2.929688-2.929688 2.929688-7.679688 0-10.605469l-8.015625-8.015625c-.273437-.273437-.566406-.515625-.867187-.734375 2.195312-6.386719 4.652343-12.707031 7.402343-18.949219 14.109376-31.996093 35.390626-60.941406 61.777344-84.109375l12.898438 13.792969c2.75 2.9375 6.484375 4.492187 10.292968 4.492187 2.097657 0 4.222657-.472656 6.210938-1.441406l27.496094-13.398437c4.070312-1.984375 6.878906-5.675781 7.703125-10.128907.824219-4.457031-.480469-8.910156-3.574219-12.21875l-13.003906-13.90625c34.0625-17.652343 72.171875-26.945312 110.824218-26.945312 10.0625 0 20.332032.664062 30.523438 1.976562.140625.015626.179688.050782.214844.117188.03125.0625.039062.105469-.03125.226562-2.769532 4.953126-5.175782 10.140626-7.152344 15.429688-1.449219 3.878906.519531 8.199219 4.398438 9.648438 3.882812 1.449218 8.203124-.519532 9.652343-4.398438 1.710938-4.574219 3.792969-9.066406 6.191407-13.355469 2.484374-4.4375 2.609374-9.78125.339843-14.292969-2.273437-4.519531-6.648437-7.601562-11.699219-8.253906-10.824218-1.390625-21.738281-2.097656-32.4375-2.097656-43.570312 0-86.5 11.125-124.335937 32.179688-2.679687-.355469-5.472656.054687-8.050781 1.3125l-27.492188 13.394531c-4.074218 1.984375-6.882812 5.679687-7.707031 10.132812-.335937 1.835938-.296875 3.667969.0625 5.421875-28.578125 24.773438-51.625 55.898438-66.828125 90.371094-16.859375 38.246094-23.933594 79.0625-21.019531 121.320312 4.214843 61.070313 30.679687 118.851563 74.527343 162.699219 43.847657 43.847657 101.628907 70.316407 162.699219 74.527344 6.121094.421875 12.214844.632813 18.28125.632813 29.996094 0 59.320313-5.148438 87.402344-15.367188 32.4375-11.800781 61.738281-29.789062 87.097656-53.457031 25.402344-23.710938 45.402344-51.769531 59.445313-83.398438 14.539062-32.746093 21.910156-67.664062 21.910156-103.777343 0-3.003907-.066406-6.082032-.207031-9.417969zm-171.621094-54.195313c-6.914063 0-12.539063-5.625-12.539063-12.539062 0-6.914063 5.625-12.539063 12.539063-12.539063 6.917969 0 12.542969 5.625 12.542969 12.539063 0 6.914062-5.625 12.539062-12.542969 12.539062zm-210.5625-145.121094 16.8125 17.972657-25.851563 12.597656-16.808593-17.972656zm0 0"/><path d="m260.015625 447.859375c15.183594 0 27.539063-12.355469 27.539063-27.542969 0-15.183594-12.355469-27.539062-27.539063-27.539062-15.1875 0-27.539063 12.355468-27.539063 27.539062 0 15.1875 12.351563 27.542969 27.539063 27.542969zm0-40.078125c6.914063 0 12.539063 5.625 12.539063 12.539062 0 6.914063-5.625 12.539063-12.539063 12.539063-6.917969 0-12.542969-5.625-12.542969-12.539063 0-6.914062 5.625-12.539062 12.542969-12.539062zm0 0"/><path d="m115.726562 152.300781c-15.183593 0-27.539062 12.355469-27.539062 27.539063 0 15.1875 12.351562 27.542968 27.539062 27.542968s27.539063-12.355468 27.539063-27.542968c0-15.183594-12.351563-27.539063-27.539063-27.539063zm0 40.078125c-6.914062 0-12.539062-5.625-12.539062-12.539062 0-6.914063 5.625-12.539063 12.539062-12.539063 6.914063 0 12.539063 5.625 12.539063 12.539063 0 6.914062-5.625 12.539062-12.539063 12.539062zm0 0"/><path d="m392.277344 311.585938c17.394531 0 31.546875-14.148438 31.546875-31.546876 0-17.394531-14.152344-31.546874-31.546875-31.546874-17.394532 0-31.546875 14.152343-31.546875 31.546874 0 17.398438 14.152343 31.546876 31.546875 31.546876zm0-48.09375c9.125 0 16.546875 7.421874 16.546875 16.546874s-7.421875 16.546876-16.546875 16.546876-16.550782-7.421876-16.550782-16.546876 7.425782-16.546874 16.550782-16.546874zm0 0"/><path d="m259.789062 227.195312c-1.019531-4.011718-5.105468-6.441406-9.117187-5.421874-4.015625 1.019531-6.441406 5.101562-5.421875 9.117187l3.667969 14.441406c.257812 1.015625-.171875 2.066407-1.066407 2.609375l-33.644531 20.5c-.890625.542969-1.71875.339844-2.132812.171875-.414063-.167969-1.148438-.605469-1.402344-1.613281l-11.21875-44.171875c-.257813-1.015625.167969-2.066406 1.066406-2.609375l33.644531-20.5c.890626-.542969 1.71875-.339844 2.128907-.171875.417969.167969 1.148437.605469 1.40625 1.613281 1.019531 4.015625 5.101562 6.441406 9.113281 5.425782 4.015625-1.019532 6.445312-5.101563 5.425781-9.117188-1.371093-5.398438-5.117187-9.703125-10.277343-11.808594-5.15625-2.105468-10.84375-1.648437-15.601563 1.25l-33.648437 20.5c-6.550782 3.992188-9.6875 11.671875-7.796876 19.109375l11.21875 44.171875c1.371094 5.398438 5.117188 9.707032 10.273438 11.808594 2.140625.875 4.375 1.308594 6.59375 1.308594 3.125 0 6.226562-.859375 9.011719-2.558594l33.644531-20.496094c6.554688-3.996094 9.6875-11.675781 7.800781-19.113281zm0 0"/><path d="m112.828125 388.160156 28.339844 9.671875c1.609375.550781 3.261719.816407 4.886719.816407 4.703124 0 9.214843-2.222657 12.105468-6.210938l20.332032-28.039062c2.828124-3.898438 3.613281-8.761719 2.15625-13.347657-1.453126-4.585937-4.898438-8.109375-9.453126-9.660156l-28.339843-9.671875c-6.273438-2.140625-13.101563.023438-16.992188 5.390625l-20.335937 28.042969c-2.824219 3.894531-3.609375 8.757812-2.152344 13.34375 1.453125 4.585937 4.898438 8.109375 9.453125 9.664062zm25.175781-42.246094-6.070312-4.402343 6.074218 4.402343 28.34375 9.679688-20.339843 28.042969-28.34375-9.679688zm0 0"/><path d="m352.1875 357.34375c1.53125-3.851562-.347656-8.210938-4.199219-9.742188-4.207031-1.671874-8.828125-1.261718-12.675781 1.128907s-6.261719 6.351562-6.621094 10.871093l-2.113281 26.355469c-.5 6.21875 3.0625 11.949219 8.859375 14.253907l28.421875 11.300781c1.707031.679687 3.480469 1.015625 5.246094 1.015625 2.582031 0 5.144531-.722656 7.433593-2.144532 3.84375-2.390624 6.257813-6.355468 6.621094-10.867187l2.113282-26.355469c.496093-6.222656-3.0625-11.949218-8.863282-14.257812-3.851562-1.53125-8.210937.351562-9.738281 4.199218-1.449219 3.644532.15625 7.746094 3.601563 9.472657l-1.96875 24.5625-26.722657-10.625 1.972657-24.625c3.542968.8125 7.25-1.0625 8.632812-4.542969zm0 0"/><path d="m190.570312 131.089844 8.015626-16.03125c1.855468-3.703125.351562-8.210938-3.351563-10.0625-3.707031-1.851563-8.210937-.347656-10.0625 3.355468l-8.015625 16.03125c-1.855469 3.707032-.351562 8.210938 3.351562 10.0625 1.078126.539063 2.222657.792969 3.347657.792969 2.753906 0 5.402343-1.519531 6.714843-4.148437zm0 0"/><path d="m247.992188 159.285156c1.917968 0 3.835937-.730468 5.300781-2.195312 2.929687-2.929688 2.929687-7.679688 0-10.605469l-8.015625-8.015625c-2.929688-2.929688-7.675782-2.929688-10.605469 0-2.929687 2.925781-2.929687 7.675781 0 10.605469l8.015625 8.015625c1.464844 1.460937 3.382812 2.195312 5.304688 2.195312zm0 0"/><path d="m68.285156 257.300781-16.03125 8.015625c-3.703125 1.851563-5.207031 6.355469-3.355468 10.0625 1.316406 2.625 3.964843 4.144532 6.714843 4.144532 1.128907 0 2.273438-.253907 3.347657-.792969l16.03125-8.015625c3.707031-1.851563 5.207031-6.355469 3.355468-10.0625-1.851562-3.703125-6.355468-5.207032-10.0625-3.351563zm0 0"/><path d="m130.464844 274.738281c-2.929688 2.925781-2.929688 7.675781 0 10.605469l8.015625 8.015625c1.460937 1.460937 3.382812 2.195313 5.300781 2.195313s3.839844-.730469 5.304688-2.195313c2.929687-2.929687 2.929687-7.679687 0-10.605469l-8.015626-8.015625c-2.929687-2.929687-7.679687-2.929687-10.605468 0zm0 0"/><path d="m239.980469 351.667969c1.128906 0 2.269531-.253907 3.347656-.792969l16.03125-8.015625c3.707031-1.851563 5.207031-6.355469 3.355469-10.0625-1.851563-3.703125-6.359375-5.207031-10.0625-3.351563l-16.03125 8.015626c-3.707032 1.851562-5.207032 6.355468-3.355469 10.0625 1.316406 2.625 3.964844 4.144531 6.714844 4.144531zm0 0"/><path d="m317.421875 274.738281c-2.929687-2.929687-7.679687-2.929687-10.605469 0-2.929687 2.925781-2.929687 7.675781 0 10.605469l8.015625 8.015625c1.460938 1.460937 3.382813 2.195313 5.300781 2.195313 1.921876 0 3.839844-.730469 5.304688-2.195313 2.929688-2.929687 2.929688-7.679687 0-10.605469zm0 0"/><path d="m325.4375 443.070312c-2.929688-2.925781-7.679688-2.925781-10.605469 0-2.929687 2.929688-2.929687 7.679688 0 10.605469l8.015625 8.015625c1.464844 1.464844 3.382813 2.199219 5.300782 2.199219 1.921874 0 3.839843-.730469 5.304687-2.199219 2.929687-2.925781 2.929687-7.675781 0-10.605468zm0 0"/><path d="m440.371094 351.667969c1.921875 0 3.839844-.734375 5.304687-2.199219 2.929688-2.925781 2.929688-7.675781 0-10.605469l-8.015625-8.015625c-2.929687-2.929687-7.679687-2.929687-10.605468 0-2.929688 2.929688-2.929688 7.679688 0 10.605469l8.015624 8.015625c1.464844 1.464844 3.382813 2.199219 5.300782 2.199219zm0 0"/><path d="m352.203125 96.597656 34.199219 5.699219c.851562.144531 1.703125.210937 2.550781.210937 4.664063 0 9.148437-2.109374 12.117187-5.820312l21.324219-26.652344c3.316407-4.148437 4.28125-9.625 2.582031-14.65625-1.695312-5.03125-5.785156-8.804687-10.9375-10.089844l-44.804687-11.203124c-7.816406-1.953126-15.9375 2.503906-18.484375 10.148437l-10.71875 32.152344c-1.4375 4.3125-.914062 9.015625 1.429688 12.910156 2.34375 3.890625 6.257812 6.554687 10.742187 7.300781zm2.058594-15.46875 10.71875-32.152344c.070312-.214843.273437-.355468.492187-.355468.039063 0 .082032.007812.125.015625l44.804688 11.203125c.097656.023437.273437.066406.367187.335937.089844.265625-.027343.410157-.085937.488281l-21.324219 26.648438c-.117187.148438-.300781.21875-.488281.191406l-34.203125-5.703125c-.0625-.011719-.234375-.039062-.355469-.242187-.125-.203125-.070312-.367188-.050781-.429688zm0 0"/><path d="m441.425781 130.167969 25.90625 20.722656c2.796875 2.242187 6.171875 3.410156 9.640625 3.410156 1.328125 0 2.675782-.171875 4.007813-.523437 4.796875-1.265625 8.605469-4.632813 10.449219-9.238282l9.042968-22.605468c3.175782-7.945313-.703125-16.992188-8.644531-20.167969l-26.597656-10.640625c-6.773438-2.707031-14.628907-.269531-18.671875 5.800781l-8.347656 12.519531c-4.5 6.75-3.117188 15.65625 3.214843 20.722657zm9.265625-12.402344 8.347656-12.519531c.097657-.144532.257813-.230469.429688-.230469.0625 0 .128906.011719.191406.039063l26.597656 10.636718c.261719.105469.390626.40625.285157.671875l-9.042969 22.605469c-.03125.078125-.09375.242188-.347656.308594-.25.066406-.386719-.042969-.453125-.097656l-25.902344-20.722657c-.210937-.167969-.257813-.464843-.105469-.691406zm0 0"/><path d="m472.4375 55.078125c12.972656 0 23.53125-10.558594 23.53125-23.53125 0-12.976563-10.558594-23.53125-23.53125-23.53125-12.976562 0-23.53125 10.554687-23.53125 23.53125 0 12.972656 10.554688 23.53125 23.53125 23.53125zm0-32.066406c4.703125 0 8.53125 3.828125 8.53125 8.535156 0 4.703125-3.828125 8.53125-8.53125 8.53125-4.707031 0-8.53125-3.828125-8.53125-8.53125 0-4.707031 3.824219-8.535156 8.53125-8.535156zm0 0"/></svg>