<?xml version="1.0" encoding="UTF-8"?>
<svg xmlns="http://www.w3.org/2000/svg" xmlns:xlink="http://www.w3.org/1999/xlink" xmlns:svgjs="http://svgjs.com/svgjs" version="1.1" width="512" height="512" x="0" y="0" viewBox="0 0 512.004 512.004" style="enable-background:new 0 0 512 512" xml:space="preserve" class="">
  <g>
    <g xmlns="http://www.w3.org/2000/svg">
      <g>
        <g>
          <path d="m225.523 503.402c-3.85 1.464-8.104 1.464-11.954 0-56.147-21.352-106.148-58.403-142.347-105.832-41.686-54.617-63.72-119.597-63.72-187.916v-95.239c0-6.599 4.141-12.474 10.381-14.897 38.21-14.841 68.728-44.613 83.94-81.89 2.487-6.094 8.437-10.128 15.113-10.128h205.222c6.676 0 12.626 4.034 15.113 10.128 15.212 37.277 45.73 67.049 83.94 81.89 6.24 2.424 10.381 8.298 10.381 14.897v95.239c0 68.319-22.034 133.299-63.72 187.916-36.201 47.429-86.201 84.48-142.349 105.832z" fill="#d6b85c" data-original="#feca9c" class=""/>
          <path d="m421.21 99.518c-38.21-14.84-68.728-44.613-83.94-81.89-2.487-6.094-8.437-10.128-15.113-10.128h-30c6.676 0 12.626 4.034 15.113 10.128 15.212 37.277 45.73 67.049 83.94 81.89 6.24 2.424 10.381 8.299 10.381 14.897v95.239c0 68.318-22.034 133.299-63.72 187.916-34.247 44.872-80.852 80.446-133.324 102.233 2.99 1.242 5.996 2.447 9.023 3.599 3.85 1.464 8.104 1.464 11.954 0 56.147-21.352 106.148-58.403 142.347-105.832 41.686-54.617 63.72-119.597 63.72-187.916v-95.239c0-6.599-4.141-12.474-10.381-14.897z" fill="#c49f31" data-original="#fdb97e" class=""/>
          <path d="m222.234 452.747c-1.704.763-3.671.763-5.375 0-41.817-18.713-79.274-48.128-106.634-83.976-35.297-46.245-53.954-101.267-53.954-159.117v-71.056c0-2.333 1.305-4.458 3.375-5.596 31.739-17.455 58.148-43.242 76.041-74.25 1.163-2.016 3.312-3.284 5.669-3.284h156.383c2.357 0 4.506 1.268 5.669 3.283 17.892 31.006 44.303 56.795 76.039 74.25 2.07 1.139 3.375 3.263 3.375 5.596v71.056c0 57.851-18.657 112.872-53.951 159.116-27.361 35.849-64.822 65.264-106.637 83.978z" fill="#e4e5e7" data-original="#f9f7f8" class=""/>
          <g>
            <path d="m276.378 320.808h-113.663c-8.904 0-16.122-7.218-16.122-16.122v-60.301c0-8.904 7.218-16.122 16.122-16.122h113.663c8.904 0 16.122 7.218 16.122 16.122v60.301c.001 8.904-7.218 16.122-16.122 16.122z" fill="#60c3a2" data-original="#c1e9af" class=""/>
            <path d="m276.378 228.263h-30c8.904 0 16.122 7.218 16.122 16.123v60.301c0 8.904-7.218 16.123-16.122 16.123h30c8.904 0 16.122-7.219 16.122-16.123v-60.301c.001-8.905-7.218-16.123-16.122-16.123z" fill="#3fa684" data-original="#ade194" class=""/>
          </g>
        </g>
        <g>
          <ellipse cx="368.808" cy="369.363" fill="#eaf6ff" rx="135.694" ry="135.137" data-original="#eaf6ff" class=""/>
          <path d="m368.808 234.227c-5.071 0-10.074.286-15 .826 67.882 7.436 120.694 64.727 120.694 134.311s-52.812 126.874-120.694 134.31c4.926.54 9.929.826 15 .826 74.942 0 135.694-60.503 135.694-135.137s-60.752-135.136-135.694-135.136z" fill="#f0f3f9" data-original="#d8ecfe" class=""/>
          <g>
            <path d="m368.809 404.632c-42.177 0-76.894 31.888-81.389 72.868 22.674 16.953 50.853 27.001 81.389 27.001s58.714-10.048 81.389-27.001c-4.496-40.981-39.212-72.868-81.389-72.868z" fill="#d84676" data-original="#f58a97" class=""/>
            <path d="m444.174 454.506c-21.914 26.859-53.971 45.181-90.365 49.167.001.001.004.003.005.004 4.924.54 9.926.822 14.995.822 30.536 0 58.714-10.048 81.389-27-.887-8.079-2.964-15.795-6.024-22.993z" fill="#b92758" data-original="#f07281" class=""/>
            <path d="m368.808 414.278c-22.062 0-39.947-17.885-39.947-39.947v-18.222c0-22.062 17.885-39.947 39.947-39.947 22.062 0 39.947 17.885 39.947 39.947v18.222c.001 22.062-17.884 39.947-39.947 39.947z" fill="#f1c27d" data-original="#ffcebf" class=""/>
          </g>
        </g>
      </g>
      <path d="m437.242 244.099c1.227-11.36 1.85-22.923 1.85-34.449v-95.23c0-9.726-5.954-18.319-15.165-21.891-36.241-14.075-65.295-42.408-79.711-77.733-3.669-8.988-12.326-14.796-22.054-14.796h-205.23c-9.728 0-18.385 5.808-22.054 14.796-14.416 35.325-43.47 63.658-79.708 77.731-9.214 3.574-15.168 12.167-15.168 21.893v95.23c0 69.983 22.566 136.538 65.258 192.47 36.688 48.07 88.413 86.528 145.636 108.286 2.791 1.066 5.722 1.598 8.653 1.598 2.928 0 5.856-.532 8.639-1.595 18.959-7.212 37.359-16.255 54.794-26.871 24.078 17.851 53.635 28.462 85.826 28.462 77.741 0 143.194-63.49 143.194-142.637 0-53.976-30.256-101.044-74.76-125.264zm-214.395 252.295c-2.129.813-4.472.813-6.609-.004-54.655-20.782-104.039-57.493-139.053-103.37-40.68-53.296-62.182-116.704-62.182-183.37v-95.23c0-3.486 2.195-6.59 5.595-7.909 40.065-15.56 72.202-46.924 88.168-86.047 1.355-3.319 4.561-5.464 8.167-5.464h205.23c3.605 0 6.811 2.145 8.166 5.464 15.966 39.124 48.103 70.487 88.172 86.049 3.397 1.317 5.592 4.421 5.592 7.907v95.23c0 9.232-.423 18.488-1.25 27.63-16.683-6.796-34.925-10.554-54.034-10.554-24.923 0-48.376 6.381-68.808 17.581-.061-14.01-12.079-24.581-25.908-23.547v-33.48c0-29.864-24.296-54.16-54.16-54.16h-.77c-29.864 0-54.16 24.296-54.16 54.16v33.48c-13.925-1.33-25.971 9.858-25.91 23.63v60.3c0 13.024 10.596 23.62 23.62 23.62h43.29c4.142 0 7.5-3.358 7.5-7.5s-3.358-7.5-7.5-7.5h-43.29c-4.753 0-8.62-3.867-8.62-8.62v-60.3c0-4.759 3.867-8.63 8.62-8.63h113.67c4.753 0 8.62 3.872 8.62 8.63v9.391c-35.952 25.938-59.388 68.082-59.388 115.582 0 23.5 5.746 45.684 15.897 65.249-7.17 4.051-14.53 7.783-21.964 11.122-40.403-18.164-77.098-47.1-103.363-81.515-34.288-44.928-52.412-98.377-52.412-154.57v-70.363c32.627-18.059 59.634-44.44 78.133-76.317h155.284c18.515 31.893 45.514 58.267 78.133 76.322v60.357c0 4.142 3.358 7.5 7.5 7.5s7.5-3.358 7.5-7.5v-61.048c0-5.039-2.782-9.702-7.266-12.172-30.607-16.833-55.901-41.531-73.162-71.451-2.516-4.322-7.172-7.007-12.152-7.007h-156.39c-4.979 0-9.636 2.685-12.167 7.032-17.248 29.897-42.545 54.596-73.162 71.428-4.473 2.464-7.252 7.127-7.252 12.17v71.05c0 59.51 19.188 116.106 55.488 163.67 27.838 36.478 66.74 67.117 109.542 86.277 1.826.815 3.785 1.223 5.745 1.223s3.921-.408 5.748-1.225c8.063-3.607 16.043-7.65 23.808-12.047 6.226 9.423 13.548 18.064 21.774 25.757-15.367 9.031-31.474 16.79-48.03 23.089zm36.245-309.114v33.48h-79.09v-33.48c0-21.593 17.567-39.16 39.16-39.16h.77c21.593 0 39.16 17.567 39.16 39.16zm109.716 309.72c-27.243 0-52.524-8.512-73.315-22.996 2.781-16.417 11.017-31.463 23.511-42.734 7.735-6.975 16.932-12.285 26.753-15.488 6.83 3.813 14.688 5.996 23.051 5.996 8.364 0 16.224-2.184 23.054-5.998 26.055 8.51 45.644 31.266 50.258 58.227-20.79 14.482-46.069 22.993-73.312 22.993zm-32.447-122.669v-18.222c0-17.892 14.556-32.447 32.447-32.447s32.447 14.556 32.447 32.447v18.222c0 17.892-14.556 32.447-32.447 32.447s-32.447-14.556-32.447-32.447zm118.85 89.238c-3.407-12.887-9.674-24.854-18.472-35.137-8.745-10.222-19.518-18.241-31.612-23.614 6.939-8.252 11.129-18.888 11.129-30.488v-18.222c0-26.163-21.285-47.447-47.447-47.447s-47.447 21.285-47.447 47.447v18.222c0 11.606 4.195 22.247 11.14 30.5-8.56 3.819-16.551 8.996-23.543 15.301-12.979 11.709-22.131 26.818-26.537 43.452-25.675-23.356-41.807-56.947-41.807-94.22 0-70.379 57.507-127.637 128.194-127.637s128.194 57.258 128.194 127.637c-.001 37.266-16.127 70.85-41.792 94.206z" fill="#323232" data-original="#000000" class=""/>
    </g>
  </g>
</svg>
