<?xml version="1.0"?>
<svg xmlns="http://www.w3.org/2000/svg" xmlns:xlink="http://www.w3.org/1999/xlink" xmlns:svgjs="http://svgjs.com/svgjs" version="1.1" width="512" height="512" x="0" y="0" viewBox="0 0 426.667 426.667" style="enable-background:new 0 0 512 512" xml:space="preserve" class=""><g transform="matrix(1,0,0,1,1.7053025658242404e-13,25)">
<g xmlns="http://www.w3.org/2000/svg">
	<g>
		<path d="M353.707,165.301L274.517,26.699l-37.035,21.163l67.093,117.44H122.091l67.115-117.419l-37.056-21.184L72.96,165.301H0    v42.667h25.557l38.933,175.296c2.176,9.771,10.837,16.704,20.843,16.704h256c10.005,0,18.667-6.933,20.843-16.704l38.933-175.296    h25.557v-42.667H353.707z M149.333,335.968h-42.667V229.301h42.667V335.968z M234.667,335.968H192V229.301h42.667V335.968z     M320,335.968h-42.667V229.301H320V335.968z" fill="#2d4576" data-original="#000000" style="" class=""/>
	</g>
</g>
<g xmlns="http://www.w3.org/2000/svg">
</g>
<g xmlns="http://www.w3.org/2000/svg">
</g>
<g xmlns="http://www.w3.org/2000/svg">
</g>
<g xmlns="http://www.w3.org/2000/svg">
</g>
<g xmlns="http://www.w3.org/2000/svg">
</g>
<g xmlns="http://www.w3.org/2000/svg">
</g>
<g xmlns="http://www.w3.org/2000/svg">
</g>
<g xmlns="http://www.w3.org/2000/svg">
</g>
<g xmlns="http://www.w3.org/2000/svg">
</g>
<g xmlns="http://www.w3.org/2000/svg">
</g>
<g xmlns="http://www.w3.org/2000/svg">
</g>
<g xmlns="http://www.w3.org/2000/svg">
</g>
<g xmlns="http://www.w3.org/2000/svg">
</g>
<g xmlns="http://www.w3.org/2000/svg">
</g>
<g xmlns="http://www.w3.org/2000/svg">
</g>
</g></svg>
