<?xml version="1.0" encoding="utf-8"?>
<!-- Generator: Adobe Illustrator 26.0.2, SVG Export Plug-In . SVG Version: 6.00 Build 0)  -->
<svg version="1.1" id="Capa_1" xmlns="http://www.w3.org/2000/svg" xmlns:xlink="http://www.w3.org/1999/xlink" x="0px" y="0px"
	 viewBox="0 0 2122 2122" style="enable-background:new 0 0 2122 2122;" xml:space="preserve">
<style type="text/css">
	.st0{fill:#FFFFFF;}
	.st1{fill:#B78876;}
	.st2{fill:#995037;}
	.st3{fill:#455A64;}
	.st4{fill:#263238;}
	.st5{fill:#FAFAFA;}
	.st6{fill:#FFD56C;}
	.st7{fill:#B92758;}
	.st8{opacity:0.2;}
	.st9{opacity:0.3;}
</style>
<g>
	<path class="st0" d="M1746,766.2L1589.8,799c-177.1-196.4-450.7-296-728.1-237.8c-414.9,87.1-680.6,494-593.5,908.9
		c87.1,414.9,494,680.6,908.9,593.5s680.6-494,593.5-908.9c-18.6-88.6-51.9-170.3-96.6-243.3L1746,766.2z"/>
</g>
<g>
	<g>
		<g>
			<g>
				<path class="st1" d="M1451.2,1472l18.8,147.8l225.3-192l123.2,29.8c0,0-127.1,266.8-227.4,372.5
					c-100.4,105.7-154.5,120.7-192.4,122.4c-52.1,2.3-75.9-61.1-75.9-61.1l-22.7-367.2L1451.2,1472z"/>
			</g>
		</g>
	</g>
	<g>
		<g>
			<g>
				<g>
					<g>
						<g>
							<path class="st2" d="M1469.1,1615.8c-1.3-0.6-10,15.3-15.9,36.8c-6,21.5-6.7,39.6-5.3,39.7c1.5,0.2,4.6-17.3,10.4-38.3
								C1464.1,1633,1470.5,1616.4,1469.1,1615.8z"/>
						</g>
					</g>
				</g>
			</g>
		</g>
		<g>
			<g>
				<g>
					<g>
						<path class="st3" d="M1717,1053.2h169.6c25.7,0,48.6,29.7,39.3,54.1l-170.6,332.2c-6.6,12.9-19.9,21-34.4,21l-206.8-0.4
							c-23.7-3.2-32.4-29.5-22.5-43.8l164.6-325.2C1667.7,1067.8,1691.2,1053.2,1717,1053.2z"/>
					</g>
				</g>
			</g>
			<g>
				<g>
					<g>
						<path class="st4" d="M1728.5,1073.2h169.6c21.3,0,35,22.4,25.3,41.3l-166.5,325c-6.6,12.9-19.9,21-34.4,21h-204.4
							c-12.5,0-20.5-13.1-14.9-24.2l164.6-325.2C1679.1,1087.9,1702.7,1073.2,1728.5,1073.2z"/>
					</g>
				</g>
			</g>
		</g>
		<g>
			<g>
				<g>
					<g>
						<path class="st1" d="M1742.9,1209.2l103.2,41.2l22.1,83.2l-49.7,123.8l-182.4,26.5l53.4-54.6l-6.9-47.5c0,0-50.9-16-52.1-23.7
							c-1.3-7.8,6.3-33.9,14.1-35.2c7.8-1.3,61.2,18.6,61.2,18.6s-63.2-50-61.4-58c1.8-8,8.6-28.6,21.2-30.9
							c12.6-2.3,114.5,45.8,114.5,45.8l16.6,37.7l14.4-60.3C1811.1,1275.8,1720.5,1250.4,1742.9,1209.2z"/>
					</g>
				</g>
			</g>
			<g>
				<g>
					<g>
						<g>
							<path class="st2" d="M1729.9,1404.2c0.6,0.2,2.5-3.6,3.5-10.3c1-6.7,0.5-16.3-3.1-26.1c-3.6-9.8-9.5-17.4-14.6-21.8
								c-5.1-4.5-9-6.1-9.3-5.5c-1,1.2,12.4,10.9,19,29.2C1732.2,1387.9,1728.3,1404,1729.9,1404.2z"/>
						</g>
					</g>
				</g>
			</g>
			<g>
				<g>
					<g>
						<g>
							<path class="st2" d="M1778.9,1386.2c0.6-0.3-3.1-10.1-4.1-27c-0.8-8.4-1.3-18.8-5.2-30c-2-5.5-4.9-11.2-9.5-16
								c-4.6-4.8-10.7-8.1-16.9-10.6c-24.7-9-46.9-16.2-63.2-21.5c-16.2-5.2-26.4-8-26.7-7.3c-0.2,0.7,9.5,4.8,25.4,10.9
								c15.8,6.1,38.2,14.1,62.4,22.8c5.9,2.3,11.2,5.2,15.1,9.3c4,4,6.7,9,8.6,14.1c3.9,10.1,4.8,20.2,6.1,28.7
								C1773.1,1376.7,1778.2,1386.7,1778.9,1386.2z"/>
						</g>
					</g>
				</g>
			</g>
			<g>
				<g>
					<g>
						<g>
							<path class="st2" d="M1802.6,1367.6c1.5-0.2,1.2-9.4-0.7-20.3c-1.8-11-4.5-19.7-5.9-19.5c-1.5,0.2-1.2,9.3,0.7,20.3
								C1798.5,1359.1,1801.2,1367.8,1802.6,1367.6z"/>
						</g>
					</g>
				</g>
			</g>
		</g>
		<g>
			<g>
				<g>
					<circle class="st5" cx="1783.8" cy="1135.9" r="21.6"/>
				</g>
			</g>
		</g>
	</g>
</g>
<g>
	<g>
		<g>
			<path class="st4" d="M1172,261.5c57,155.5,120.4,319.9,253.3,419.4c-17.2,4.1-35.9,1.5-51.2-7.2c29.1,46.8,58.5,94.4,73.4,147.4
				s13.6,113-16.3,159.4c-3.5-5.9-7-11.8-10.5-17.7c33.2,113-18.4,245-119.6,306.1c-43.7,26.4-102,39.1-144.8,11.3
				c-32.5-21.1-47.9-59.9-61.3-96.2c-87.2-235.8-174.4-471.7-261.6-707.5c-24.3-65.8-49-135.4-37-204.4
				c13.6-77.8,77.5-144.4,155-161.5s163.8,16.5,209.1,81.3"/>
		</g>
	</g>
	<g>
		<g>
			<g>
				<path class="st3" d="M1324.2,1130.6c0.1,0.1,1.6-1.4,4.3-4.4c2.8-2.9,6.5-7.6,11-13.8c8.9-12.5,19.5-32.4,26.5-58.9
					c6.9-26.5,9.8-59.6,5.2-95.6c-4.4-36-16.7-74.3-33.1-112.5c-16.6-38.3-35.2-73.3-51.2-105.5c-16.1-32.2-29.3-61.7-38.5-87.2
					c-9.2-25.5-14.5-46.9-17.4-61.8c-2.9-14.9-3.7-23.3-4.2-23.2c-0.2,0-0.1,2.1,0.3,6.1c0.2,4,1,9.9,2.1,17.4
					c2.3,15.1,7.2,36.7,16,62.6c8.9,25.8,21.9,55.7,37.8,88c15.8,32.4,34.3,67.4,50.7,105.4c16.3,38,28.5,75.8,33.1,111.2
					c4.7,35.4,2.2,68-4.2,94.2c-6.5,26.2-16.5,46.1-24.8,58.7C1329.7,1124.1,1323.8,1130.2,1324.2,1130.6z"/>
			</g>
		</g>
	</g>
</g>
<g>
	<g>
		<g>
			<g>
				<g>
					<g>
						<g>
							<g>
								<g>
									<g>
										<path class="st1" d="M997.7,173.9c117.7,5.5,210.3,102.4,210.5,220.3c0.2,91.3-1.3,190.6-7.1,249.5
											c-13.5,137-116.5,160.5-116.5,160.5s3.3,85.1,7.8,165.9c4.3,77-58.8,144.7-141,151.3l0,0
											c-81.4,6.6-151.3-49.3-156.8-125.4L767,404.6C760.9,274.8,867.8,167.9,997.7,173.9L997.7,173.9z"/>
									</g>
								</g>
							</g>
						</g>
						<g>
							<g>
								<g>
									<g>
										<g>
											<path class="st4" d="M1159.5,447.5c0.9,9.2-6.2,17.5-15.7,18.6c-9.5,1.1-18-5.5-18.9-14.6c-0.9-9.2,6.2-17.5,15.7-18.6
												C1150.2,431.8,1158.7,438.4,1159.5,447.5z"/>
										</g>
									</g>
								</g>
							</g>
							<g>
								<g>
									<g>
										<g>
											<g>
												<path class="st4" d="M1176.6,427c-2,2.4-15.8-6.6-34.5-5.4c-18.7,0.9-31.9,11.3-34.1,9.2c-1.1-1,0.9-5.2,6.6-9.9
													c5.6-4.7,15.4-9.5,27.1-10.1c11.7-0.6,21.7,3.1,27.6,7.1C1175.4,422,1177.6,426,1176.6,427z"/>
											</g>
										</g>
									</g>
								</g>
							</g>
						</g>
						<g>
							<g>
								<g>
									<g>
										<g>
											<path class="st4" d="M964.5,464.2c0.9,9.2-6.2,17.5-15.7,18.6c-9.5,1.1-18-5.5-18.9-14.6c-0.9-9.2,6.2-17.5,15.7-18.6
												C955.1,448.5,963.6,455.1,964.5,464.2z"/>
										</g>
									</g>
								</g>
							</g>
							<g>
								<g>
									<g>
										<g>
											<g>
												<path class="st4" d="M981.5,445.4c-2,2.4-15.8-6.6-34.5-5.4c-18.7,0.9-31.9,11.3-34.1,9.2c-1.1-1,0.9-5.2,6.6-9.9
													c5.6-4.7,15.4-9.5,27.1-10.2c11.7-0.6,21.7,3.1,27.6,7.1C980.3,440.4,982.5,444.4,981.5,445.4z"/>
											</g>
										</g>
									</g>
								</g>
							</g>
						</g>
						<g>
							<g>
								<g>
									<g>
										<g>
											<path class="st4" d="M1057.7,580.3c-0.2-1.1,11.4-3.8,30.1-7.3c4.8-0.8,9.2-2,9.8-5.3c0.9-3.5-1.4-8.6-4-14
												c-5.2-11.3-10.6-23.2-16.3-35.6c-22.7-50.7-39.5-92.5-37.4-93.4c2-0.9,22.1,39.5,44.9,90.2c5.5,12.5,10.7,24.4,15.7,35.8
												c2.1,5.3,5.6,11.3,3.6,18.6c-1.1,3.7-4.4,6.5-7.5,7.5c-3,1.1-5.7,1.3-8.1,1.6C1069.6,580.6,1057.8,581.4,1057.7,580.3z"
												/>
										</g>
									</g>
								</g>
							</g>
						</g>
						<g>
							<g>
								<g>
									<g>
										<path class="st2" d="M1085.1,804.3c0,0-92.3,8.3-186-40.8c0,0,50.7,97.6,187.1,79.9L1085.1,804.3z"/>
									</g>
								</g>
							</g>
						</g>
					</g>
				</g>
			</g>
		</g>
	</g>
	<g>
		<g>
			<g>
				<path class="st4" d="M919.7,393.4c2.3,3.3,15.9-2.4,32.9-6.1c17-4,31.7-4.7,32.3-8.6c0.8-3.7-15.4-9.6-35.4-5.1
					C929.4,378,917.4,390.4,919.7,393.4z"/>
			</g>
		</g>
	</g>
	<g>
		<g>
			<g>
				<path class="st4" d="M1105.2,359.6c0.9,3.9,16.3,3.3,34.7,3.6c18.4,0.1,33.8,1.1,34.8-2.7c1.1-3.6-14.2-11.1-34.6-11.3
					C1119.7,348.9,1104.2,355.9,1105.2,359.6z"/>
			</g>
		</g>
	</g>
</g>
<g>
	<g>
		<path class="st4" d="M573.6,1006.5c0,0,48.3-95.7,18.2-181.7c-30.1-86-18.5-150.5,24.8-184.3c30.4-23.7,34.2-63,31.3-93.9
			c-4.9-52-5-104.4,3.4-155.9c12.1-74.3,33.8-153.4,78.4-211.8c58-75.9,163.1-145.2,250.4-106.4c40.5,18,61.2,16.9,103.5,54.9
			c0,0,38.9,2.5,59.4,5.7c70.9,11.1,116.8,86.7,125.1,142.1c19.2,128.2-51.5,164.8-58.8,252c0,0-12.8-181.8-28.8-228.4
			c-18.6-54.1-69.7-80-69.7-80c-52.4,4.9-72.2,35.9-89.2,85.7c-17,49.8-26.1,89.2-67.8,121.4c-39.2,30.3-67.5,81.3-139.2,55.7
			c0,0-22.2,42.2-14.4,86.4c7.8,44.2,56.8,56.4,44.3,131.5c-12.5,75.1-58.1,136.3-56.8,164.4"/>
	</g>
</g>
<g>
	<g>
		<g>
			<g>
				<g>
					<path class="st2" d="M1035.2,625.1c-6.1-7-16.2-10.3-25.9-8.5c-6.7,1.2-13.3,5-16.9,10.8c-3.7,5.8-4,13.6,0.2,18.6
						c4.6,5.6,13.5,6.3,20.7,3.6c7.3-2.7,13.3-8,19-13.3c1.6-1.5,3.2-3,4.1-4.9c0.9-1.9,1-4.3-0.5-5.8"/>
				</g>
			</g>
		</g>
	</g>
	<g>
		<g>
			<g>
				<g>
					<g>
						<path class="st4" d="M994,601.4c2.5-0.3,3.8,16.5,19.1,27.4c15.3,10.9,33.1,7.7,33.4,10c0.3,1-3.8,3.6-11.3,4.3
							c-7.4,0.8-18.5-0.8-27.8-7.4c-9.4-6.7-13.9-16.2-15-23.1C991.3,605.7,992.9,601.4,994,601.4z"/>
					</g>
				</g>
			</g>
		</g>
	</g>
</g>
<g>
	<g>
		<path class="st4" d="M720,192.5c-29.8,45.3-52.6,81.3-87,119.3c-34.4,38-68.8,81.4-71.2,132.6c-1.7,37.2,13.7,76.4-1.1,110.6
			c-12.6,29.2-43.4,45.3-66.4,67.3c-40.5,38.6-57.1,100.4-41.6,154.2c9.9,34.3,32,68,24.2,102.9c-6.8,30.5-35,52.3-43.6,82.3
			c-8.2,28.6,2.7,59,15.5,85.8c19.6,41.1,48.6,83.3,93,93.2c30.1,6.7,62.3-3.4,87.1-21.7c24.8-18.4,43.1-44.2,58.1-71.2
			c28.8-51.9,46.7-109.9,52.4-169c6.7-70.8-4-141.9-10.9-212.6c-12.7-129.6-12.8-260.5-0.2-390.2C731.1,244.4,743.9,213.6,720,192.5
			"/>
	</g>
</g>
<g>
	<g>
		<g>
			<g>
				<g>
					<path class="st1" d="M844.6,502c-0.5-9-23.8-25.6-32.8-25.4c-20.8,0.4-54.5,10.2-55,67.8c-0.8,82.2,77.2,58.1,77.3,55.8
						C834.2,598.3,846.3,533.9,844.6,502z"/>
				</g>
			</g>
		</g>
	</g>
	<g>
		<g>
			<g>
				<g>
					<g>
						<path class="st2" d="M814.5,568.7c-0.4-0.3-1.4,1-3.9,2.1c-2.4,1.1-6.4,1.8-10.7,0.1c-8.7-3.3-15.8-17.1-16.1-32
							c-0.1-7.5,1.5-14.6,4.2-20.5c2.6-6,6.5-10.2,10.9-10.9c4.4-1,7.4,1.7,8.4,4c1.1,2.3,0.5,3.9,1,4.1c0.2,0.2,1.8-1.4,1.1-4.8
							c-0.3-1.6-1.3-3.6-3.2-5.2c-2-1.6-4.9-2.5-7.9-2.2c-6.3,0.4-12.1,6.2-15.1,12.6c-3.3,6.5-5.3,14.5-5.2,22.9
							c0.4,16.6,8.7,32.2,20.6,35.7c5.8,1.6,10.6-0.1,13.1-2.1C814.4,570.7,814.8,568.9,814.5,568.7z"/>
					</g>
				</g>
			</g>
		</g>
	</g>
</g>
<g>
	<g>
		<g>
			<path class="st3" d="M1235.3,470.3c0.3-0.2-1.4-5-4.4-13.8c-2.2-9-5.1-22.1-5.1-38.7c-0.1-16.6,2.2-36.2,5.4-58
				c2.9-21.8,7-46,5.6-71.9c-0.5-12.9-3.2-25.4-7-37c-4-11.6-10.2-21.9-17.2-30.7c-14.2-17.6-31.9-28.6-47.6-34.8
				c-15.8-6.1-29.7-7.5-39.1-7.4c-4.7-0.1-8.3,0.4-10.8,0.8c-2.4,0.3-3.7,0.6-3.7,0.8c0,0.5,5.2-0.3,14.4,0.3
				c9.2,0.5,22.6,2.4,37.8,8.7c15.1,6.4,32,17.4,45.4,34.4c6.7,8.5,12.5,18.4,16.3,29.5c3.5,11.2,6.1,23.2,6.6,35.8
				c1.4,25.1-2.5,49.2-5.2,71c-3,21.9-4.9,41.8-4.4,58.7c0.4,16.9,3.9,30.3,6.7,39.2c1.7,4.4,3.3,7.7,4.3,9.9
				C1234.5,469.2,1235.2,470.3,1235.3,470.3z"/>
		</g>
	</g>
</g>
<g>
	<g>
		<g>
			<path class="st6" d="M766.6,594.5c-0.2-0.2-2.4,2.1-5.2,7c-2.7,4.8-6.4,12.7-6.1,23.2c0.2,10.4,6.4,22.8,17.8,30.6
				c11.1,7.8,27.9,11.6,42.9,5c14.9-6.6,23.9-21.4,25-35.2c0.6-6.9-0.7-13.7-3.5-19.2c-2.8-5.5-6.6-9.9-10.7-13.1
				c-8.2-6.5-16.8-8.4-22.4-8.5c-5.7,0-8.7,1.2-8.7,1.4c0.1,0.4,3.1-0.2,8.5,0.4c5.3,0.6,13.2,2.9,20.4,9.2
				c7.2,6.1,13.5,16.9,12,29.4c-1.2,12.3-9.5,25.5-22.6,31.3c-13.2,5.8-28.4,2.7-38.6-4.3c-10.6-6.9-16.3-17.8-17-27.2
				c-0.7-9.5,2.3-17.2,4.4-22.2C765.2,597.3,766.9,594.7,766.6,594.5z"/>
		</g>
	</g>
</g>
<g>
	<g>
		<path class="st3" d="M563.3,547.9c-0.3-0.1,0.2-2.5,1.4-7.1c1.4-4.5,3.7-11.1,8.2-19c8.7-15.7,25.2-36.7,51.9-55
			c13.2-9.3,30.1-16.7,48.9-19.9c18.8-3.5,39.1-3.7,60.2-3c21,0.6,43,1.9,65.2-0.9c22.2-2.5,44.1-10.8,64.1-23.7
			c20.1-12.5,36.3-30.1,54.2-44.5c17.5-14.7,33.8-29,45.9-45.9c25.9-33.3,50.6-61.9,69.6-87.2c19.3-25.1,33-46.8,41.3-62.3
			c8.3-15.6,11.4-24.9,12.2-24.7c0.3,0.1-0.3,2.5-1.7,7c-1.3,4.5-3.9,11-7.6,19.1c-7.6,16.2-20.7,38.6-39.5,64.3
			c-18.5,25.9-42.9,55-68.2,88.3c-12.4,17.5-29.4,32.7-46.7,47.4c-17.6,14.2-33.8,32-55,45.2c-20.7,13.5-44.2,22.3-67.5,24.8
			c-23.2,2.7-45.5,1.2-66.4,0.4c-20.9-0.9-40.7-0.9-58.7,2.1c-18.1,2.9-33.9,9.4-46.9,18.1c-26.2,17.2-43,37.1-52.3,51.9
			C566.1,538.3,564.1,548.2,563.3,547.9z"/>
	</g>
</g>
<g>
	<g>
		<g>
			<path class="st7" d="M1005.5,1114.3c29.6-90.7,102-183.2,181.6-149.8c88.5,37.1,113.2,84.1,161.7,157
				c48.5,72.9,78.3,156.3,107.6,238.7c11.5,32.3,71.4,180.2,53.8,209.5c-15.2,25.3-165.6,214.9-194.2,222.5
				c-73.7,19.6-77.8-253.6-152.8-239.7c-30.1,5.6-63.1,10.3-89.7-4.8c-33.8-19.2-44.1-62.1-51.2-100.3
				c-24.7-133.9-49.4-267.8-74.1-401.7"/>
		</g>
	</g>
</g>
<g>
	<g>
		<g>
			<g>
				<g>
					<path class="st7" d="M1086.8,928.1l116.5,50.2c58.9,46.4,75.5,125.7,73.5,200.5l44.6,621l3.8,214.6c0,0-342.9,186.2-726.1-54.9
						l63.8-169.2l-116-403.8c-8.3-58.9-13.4-180.9,1.9-238.9c39.4-148.6,144.8-193.1,253-222.8c0,0,108.3,90.9,213.9,71.7
						C1015.8,996.6,1080.2,990.6,1086.8,928.1z"/>
				</g>
			</g>
		</g>
	</g>
</g>
<g class="st8">
	<g>
		<g>
			<g>
				<path d="M1247.1,1603.6c-67.2,97.4-134.4,194.8-201.6,292.1c-26.3,38.1-53.6,77.2-92.6,102.1c-56.7,36.2-134.7,35.4-190.6-2
					s-105.6-137.6-93.8-203.8c1.4-7.8,28,6.6,28,6.6c8.4-9,22.6-10.1,34.4-6.6c11.8,3.5,22.1,10.7,33,16.5
					c63.3,33.6,143.7,15.5,203.1-24.6c59.4-40.1,103-98.9,148.4-154.3c16.8-20.5,35.2-41.5,60.1-50.6c24.9-9.1,57.9-1.7,68.4,22.6"
					/>
			</g>
		</g>
	</g>
</g>
<g>
	<g>
		<g>
			<g>
				<g>
					<path class="st1" d="M899.7,1542.2l17.7,68.3l353.6-257.7l108.3-153.9c14.5-20.6,36.4-34.8,61.2-39.6l0,0
						c26.3-5.1,53.5,0.7,75.3,16.2l100.7,71.5c0,0-2.7,54.3-27.2,43.4c-24.5-10.9-73.4-38-73.4-38l-13.6,130.2l-59.8,43.4
						l-59.8,46.1l-399.3,396.3c-86,85.4-230.6,61.8-284.9-46.5l-59.2-168L899.7,1542.2z"/>
				</g>
			</g>
		</g>
		<g>
			<g>
				<g>
					<g>
						<path class="st2" d="M926.3,1600.8c-0.2-0.5-6.8,1.6-14.8,9.1c-8,7.4-16.5,20.5-20.7,36.6c-4.2,16.1-4.2,31.1-3.8,41.7
							c0.4,10.6,1.3,17.2,2.1,17.1c0.8,0,1.2-6.6,1.7-17.1c0.6-10.5,1.2-25.1,5.2-40.3c4-15.2,11.3-27.8,18.2-35.4
							C921,1604.8,926.8,1601.6,926.3,1600.8z"/>
					</g>
				</g>
			</g>
		</g>
		<g>
			<g>
				<g>
					<g>
						<path class="st2" d="M1516.5,1259.2c0.6-0.4-1.1-4.5-5.3-10.6c-4.1-5.8-11.2-14.1-22.4-18.1c-11.6-3.9-23,0.1-28.5,5.5
							c-5.8,5.6-5.6,11-5,11c0.9,0.3,2.1-4.2,7.4-8.1c5.2-3.8,14.9-6.5,24.4-3.3c9.6,3.4,16.5,10.4,21.2,15.5
							C1513,1256.1,1515.8,1259.6,1516.5,1259.2z"/>
					</g>
				</g>
			</g>
		</g>
		<g>
			<g>
				<g>
					<g>
						<path class="st2" d="M1453.2,1293.9c0.6,0.5,3.3-1.9,8.1-4.6c4.8-2.7,12.1-5.5,20.3-5.5c8.3,0,15.5,2.9,20.3,5.6
							c4.8,2.7,7.5,5.2,8.1,4.7c0.5-0.4-1.2-3.9-6-7.8c-4.7-3.9-12.8-7.8-22.4-7.8c-9.6,0-17.8,3.8-22.5,7.7
							C1454.4,1290.1,1452.7,1293.5,1453.2,1293.9z"/>
					</g>
				</g>
			</g>
		</g>
	</g>
</g>
<g>
	<g>
		<g>
			<path class="st7" d="M762.2,933c-79.6,33.3-162.4,68.9-217.4,135.2c-55.9,67.4-75.3,159.1-71.3,246.5
				c4.1,87.4,3.5,169.1,28.8,252.9c9.9,32.8,30.4,112.8,48.4,148.8c20.5,41,116.9,84.7,163.1,83.5c76.3-1.9,112.7-145.4,181.4-178.4
				c27.6-13.2,70.4-71.1,82.9-98.9c15.9-35.4-31-102.5-48-137.4c-59.4-122.5-118.9-245.1-178.3-367.6"/>
		</g>
	</g>
</g>
<g>
	<g>
		<path class="st4" d="M909.4,1612.1c-0.3-0.1,0.5-2.4,2.1-6.7c1.5-4.3,4.3-10.6,4.9-18.9c0.6-8.1-2.7-18.8-10.9-26.8
			c-8.3-8.1-22.4-11.3-37-9l-3,0.5l-0.5-3.1c-3.7-24.7-12.4-53.2-28.5-80.9c-16-27.6-39.3-54.8-69.7-75
			c-33.1-22.3-70-34.6-103.7-42.5c-34-7.8-65.3-11.7-91.6-13.5c-26.4-1.8-47.8-1.7-62.6-1.4c-14.8,0.3-23,0.7-23.1,0.1
			c0-0.5,8.1-1.9,22.9-3.2c14.8-1.3,36.4-2.3,63.1-1.2c26.6,1.1,58.4,4.4,92.9,11.9c34.4,7.6,72.3,20,106.6,43
			c31.5,21,55.5,49.3,71.7,78c16.3,28.8,24.7,58.3,27.9,83.9l-3.4-2.6c15.9-2.1,31.9,1.8,41.2,11.6c9.2,9.7,12,21.5,10.9,30.6
			c-1.2,9.1-4.7,15.2-6.7,19.3C911,1610.1,909.6,1612.2,909.4,1612.1z"/>
	</g>
</g>
<g>
	<g>
		<path class="st4" d="M739.3,1673.7c-1.7-1.2,22.2-34.8,59.2-69.2c37-34.5,72.2-55.9,73.3-54.1c1.4,2-31.3,26-67.8,60
			C767.5,1644.3,741.1,1675.2,739.3,1673.7z"/>
	</g>
</g>
<g class="st9">
	<g>
		<path d="M868.1,1545.3c-31.5,12.9-63.2,26.6-90.1,47.6c-26.8,21-48.7,50.4-53.7,84.1c9.8-9,19.6-17.9,29.4-26.9
			c39-35.7,78.2-71.4,122.2-100.8"/>
	</g>
</g>
<g>
	<g>
		<path class="st4" d="M1278.8,1340.5c-0.9-0.1,0-11.9,5.4-30c5.3-18.1,15.2-42.2,28.4-67.6c26.4-50.9,56.1-87.3,58.3-85.4
			c0.8,0.8-5.8,10-15.4,26c-9.7,15.8-22.6,38.1-35.8,63.1c-13,25.1-23.6,48.5-30.2,65.7C1282.9,1329.6,1280,1340.7,1278.8,1340.5z"
			/>
	</g>
</g>
<g>
	<g>
		<path class="st4" d="M1325.3,1964.8c-0.6,0-1.4-5.9-2.4-16.6c-1.1-10.7-2.1-26.3-3.1-45.6c-2-38.5-3.5-91.8-3.8-150.7
			c-0.3-58.9,0.6-112.2,1.8-150.7c0.6-19.3,1.3-34.9,2-45.6c0.7-10.8,1.3-16.7,1.9-16.7c0.6,0,1,6,1.2,16.8
			c0.2,12.6,0.4,27.8,0.6,45.7c0.1,40.5,0.3,92.8,0.5,150.6c0.5,57.8,1,110,1.4,150.5c0.2,17.9,0.4,33.1,0.6,45.6
			C1326.1,1958.8,1325.8,1964.8,1325.3,1964.8z"/>
	</g>
</g>
<g>
	<g>
		<path class="st4" d="M843.5,695.6c-24.7,43.2-23.7,99.9,2.4,142.2c17.2,27.9,44.1,49.5,57.3,79.5c16,36.6,8.8,78.5,4.1,118.1
			c-4.8,39.6-5.5,83.8,19.8,114.7c10.6,12.9,24.9,22.3,35.7,35.1c10.7,12.8,17.5,31.5,9.5,46.1c-5.6,10.2-16.8,15.8-27.7,19.9
			c-81,30.5-179.9,4.9-236-61.1c-2.1,14.1-4.3,28.2-6.4,42.3c-53.1-45.9-89.8-110.3-102.3-179.4c-12.5-69.1-0.6-142.3,33.1-203.9"/>
	</g>
</g>
</svg>
