<?xml version="1.0"?>
<svg xmlns="http://www.w3.org/2000/svg" xmlns:xlink="http://www.w3.org/1999/xlink" xmlns:svgjs="http://svgjs.com/svgjs" version="1.1" width="512" height="512" x="0" y="0" viewBox="0 0 25.399999 25.399999" style="enable-background:new 0 0 512 512" xml:space="preserve" class=""><g transform="matrix(1.13,0,0,1.13,-1.653599879741666,-1.653599879741666)"><g xmlns="http://www.w3.org/2000/svg" id="layer2"><path id="path828" d="m48 6c-23.172269 0-42 18.827731-42 42s18.828332 42.013009 42.001953 42c8.605777-.004913 16.994656-2.678191 24.035156-7.617188a2.0002 2.0002 0 1 0 -2.296875-3.273437c-6.372899 4.470663-13.96319 6.886256-21.742187 6.890625-21.009153.011717-37.998047-16.989488-37.998047-38 0-21.010508 16.989492-38 38-38 21.010512 0 38.004256 16.989981 38 38-.00158 7.785476-2.403364 15.381895-6.869141 21.761719a2.0002 2.0002 0 1 0 3.277344 2.292969c4.934877-7.049984 7.590051-15.44712 7.591797-24.054688.004535-23.172757-18.827731-42-42-42zm0 8c-4.374728.001276-8.705785.85645-12.753906 2.501953a2.0009733 2.0009733 0 1 0 1.507812 3.707031c3.574653-1.453045 7.392359-2.20786 11.246094-2.208984 16.591522-.004876 30 13.407769 30 30 0 16.592232-13.407768 30-30 30-16.592231 0-30.005374-13.40855-30-30 .001248-3.853542.757209-7.67143 2.210938-11.246094a2.0009738 2.0009738 0 1 0 -3.707032-1.507812c-1.646158 4.047841-2.502488 8.378729-2.503906 12.753906-.006085 18.754772 15.24601 34 34 34 18.753994 0 34-15.246006 34-34 0-18.75399-15.245299-34.005509-34-34zm14.140625 17.941406c-1.539829 0-3.081157.579204-4.244141 1.742188l-15.554687 15.552734-4.244141-4.236328c-2.32596-2.325952-6.156459-2.325967-8.482422 0-2.325959 2.325959-2.32596 6.156459 0 8.482422l8.482422 8.488281c2.325967 2.325967 6.164272 2.325963 8.490235 0l19.796875-19.804687c2.325966-2.32596 2.325963-6.156463 0-8.482422-1.16298-1.16298-2.704308-1.742187-4.244141-1.742188zm.003906 3.962891c.504832 0 1.010094.203453 1.414063.607422.807934.807932.807938 2.018237 0 2.826172l-19.798828 19.798828c-.807935.807934-2.020187.807938-2.828125 0l-8.488282-8.482422c-.807938-.807938-.807934-2.018237 0-2.826172.807939-.807942 2.020186-.807938 2.828125 0l5.660157 5.654297a2.0002 2.0002 0 0 0 2.828125 0l16.970703-16.970703c.403967-.403968.90923-.607422 1.414062-.607422zm14.169922 38.380859a2.0000007 2.0000009 45 0 0 -1.445312.583985 2.0000007 2.0000009 45 0 0 0 2.830078 2.0000007 2.0000009 45 0 0 2.830078 0 2.0000007 2.0000009 45 0 0 0-2.830078 2.0000007 2.0000009 45 0 0 -1.384766-.583985z" fill-rule="evenodd" transform="scale(.265)" font-variant-ligatures="normal" font-variant-position="normal" font-variant-caps="normal" font-variant-numeric="normal" font-variant-alternates="normal" font-feature-settings="normal" text-indent="0" text-align="start" text-decoration-line="none" text-decoration-style="solid" text-decoration-color="rgb(0,0,0)" text-transform="none" text-orientation="mixed" white-space="normal" shape-padding="0" isolation="auto" mix-blend-mode="normal" solid-color="rgb(0,0,0)" solid-opacity="1" vector-effect="none" paint-order="stroke fill markers" fill="#3fa684" data-original="#000000" class=""/></g></g></svg>
