<?xml version="1.0" encoding="utf-8"?>
<!-- Generator: Adobe Illustrator 26.0.2, SVG Export Plug-In . SVG Version: 6.00 Build 0)  -->
<svg version="1.1" id="Capa_1" xmlns="http://www.w3.org/2000/svg" xmlns:xlink="http://www.w3.org/1999/xlink" x="0px" y="0px"
	 viewBox="0 0 2122 2122" style="enable-background:new 0 0 2122 2122;" xml:space="preserve">
<style type="text/css">
	.st0{fill:#8ECCF1;}
	.st1{fill:#E2F2F8;}
	.st2{fill:#A2D2F3;}
	.st3{fill:#9DD0F2;}
	.st4{fill:#ADD6F4;}
	.st5{clip-path:url(#SVGID_00000181799004372075779930000004597075505426591384_);}
	.st6{fill:#007934;}
	.st7{fill:#FFFFFF;}
	.st8{fill:url(#SVGID_00000145017722603260958010000005083138221795603080_);}
	.st9{fill:#E30D16;}
	.st10{fill:#8E6352;}
	.st11{fill:#9A6F5E;}
	.st12{fill:#684135;}
	.st13{fill:#331E10;}
	.st14{fill:#89472F;}
	.st15{opacity:0.1;}
	.st16{fill:#F9A64B;}
	.st17{fill:#F09C35;}
</style>
<g>
	<path class="st0" d="M594.2,954.2v845.2c0,98.2-79.6,177.8-177.7,177.8c-98.2,0-177.7-79.6-177.7-177.8V954.2H594.2z"/>
	<g>
		<path class="st1" d="M1649.6,1977.2H520.2H399.7c144.4-25,120.4-223.1,120.4-223.1V251.3h1282.1v1480.5
			C1802.3,1731.9,1834.7,1977.2,1649.6,1977.2z"/>
		<path class="st2" d="M399.7,1977.2c144.4-25,120.4-223.1,120.4-223.1V251.3h-38.7v1502.8C481.5,1754.1,488,1944,399.7,1977.2z"/>
		<rect x="672.8" y="407.1" class="st3" width="976.9" height="50.6"/>
		<rect x="672.8" y="654.3" class="st4" width="721.2" height="33.3"/>
		<rect x="800.6" y="487.6" class="st4" width="721.2" height="33.3"/>
		<rect x="1131" y="754.3" class="st4" width="262.9" height="33.3"/>
		<rect x="672.8" y="854.3" class="st4" width="721.2" height="33.3"/>
		<rect x="672.8" y="954.2" class="st4" width="976.9" height="33.3"/>
		<rect x="672.8" y="1054.2" class="st4" width="976.9" height="33.3"/>
		<rect x="1130.7" y="1154.2" class="st4" width="519" height="33.3"/>
		<rect x="672.8" y="1354.2" class="st4" width="721.2" height="33.3"/>
		<rect x="672.8" y="1454.2" class="st4" width="721.2" height="33.3"/>
		<rect x="672.8" y="1554.1" class="st4" width="721.2" height="33.3"/>
		<rect x="672.8" y="1654.1" class="st4" width="976.9" height="33.3"/>
		<rect x="1311.3" y="1754.1" class="st4" width="338.3" height="33.3"/>
		<rect x="1434.8" y="654.3" class="st4" width="214.9" height="233.3"/>
		<rect x="1434.8" y="1350.2" class="st4" width="214.9" height="237.2"/>
	</g>
</g>
<g>
	<defs>
		
			<ellipse id="SVGID_1_" transform="matrix(0.7071 -0.7071 0.7071 0.7071 -140.6261 531.7722)" cx="571.6" cy="435.6" rx="318.7" ry="318.7"/>
	</defs>
	<clipPath id="SVGID_00000124141546827763741400000014010549990957616783_">
		<use xlink:href="#SVGID_1_"  style="overflow:visible;"/>
	</clipPath>
	<g style="clip-path:url(#SVGID_00000124141546827763741400000014010549990957616783_);">
		<rect x="196.4" y="108.6" class="st6" width="771" height="221.2"/>
		<rect x="196.4" y="328.3" class="st7" width="771" height="221.2"/>
		<rect x="196.4" y="548" width="771" height="221.2"/>
		
			<linearGradient id="SVGID_00000085222608375737603470000014926984598467842486_" gradientUnits="userSpaceOnUse" x1="255.0813" y1="438.8583" x2="461.1655" y2="438.8583">
			<stop  offset="0" style="stop-color:#CF1400"/>
			<stop  offset="1" style="stop-color:#CF1400"/>
		</linearGradient>
		
			<rect x="255.1" y="124" style="fill:url(#SVGID_00000085222608375737603470000014926984598467842486_);" width="206.1" height="629.7"/>
	</g>
</g>
<g>
	<circle class="st9" cx="1524.7" cy="1694.4" r="145.4"/>
	<path class="st9" d="M1701.9,1674.4L1701.9,1674.4c-6.9-8.1-9.2-19.3-5.9-29.4c4.7-14.4-1.8-30-15.3-36.8
		c-9.5-4.9-15.8-14.3-16.7-24.9l0,0c-1.2-15.1-13.1-27-28.2-28.2c-10.6-0.8-20.1-7.2-24.9-16.7c-6.9-13.5-22.5-19.9-36.8-15.3
		c-10.2,3.3-21.3,1.1-29.4-5.9c-11.5-9.8-28.4-9.8-39.9,0c-8.1,6.9-19.3,9.2-29.4,5.9h0c-14.4-4.7-30,1.8-36.8,15.3
		c-4.9,9.5-14.3,15.8-24.9,16.7l0,0c-15.1,1.2-27,13.1-28.2,28.2l0,0c-0.8,10.6-7.2,20.1-16.7,24.9l0,0
		c-13.5,6.9-19.9,22.5-15.3,36.8c3.3,10.2,1.1,21.3-5.9,29.4v0c-9.8,11.5-9.8,28.4,0,39.9v0c6.9,8.1,9.2,19.3,5.9,29.4
		c-4.7,14.4,1.8,30,15.3,36.8l0,0c9.5,4.9,15.8,14.3,16.7,24.9l0,0c1.2,15.1,13.1,27,28.2,28.2l0,0c10.6,0.8,20.1,7.2,24.9,16.7
		c6.9,13.5,22.5,19.9,36.8,15.3h0c10.2-3.3,21.3-1.1,29.4,5.9c11.5,9.8,28.4,9.8,39.9,0c8.1-6.9,19.3-9.2,29.4-5.9
		c14.4,4.7,30-1.8,36.8-15.3c4.9-9.5,14.3-15.8,24.9-16.7c15.1-1.2,27-13.1,28.2-28.2l0,0c0.8-10.6,7.2-20.1,16.7-24.9
		c13.5-6.9,19.9-22.5,15.3-36.8c-3.3-10.2-1.1-21.3,5.9-29.4v0C1711.7,1702.8,1711.7,1685.9,1701.9,1674.4z M1524.7,1845.3
		c-83.4,0-150.9-67.6-150.9-150.9s67.6-150.9,150.9-150.9c83.4,0,150.9,67.6,150.9,150.9S1608.1,1845.3,1524.7,1845.3z"/>
</g>
<g>
	<circle class="st10" cx="1679.1" cy="1346.7" r="200.5"/>
	<path class="st11" d="M1679.1,1172c106.4,0,193.4,82.9,200.1,187.6c0.3-4.3,0.4-8.6,0.4-12.9c0-110.8-89.8-200.5-200.5-200.5
		s-200.5,89.8-200.5,200.5c0,4.3,0.2,8.7,0.4,12.9C1485.7,1254.9,1572.7,1172,1679.1,1172z"/>
	<path class="st12" d="M1578.7,1520.3v21.3c0,9,7.3,16.4,16.4,16.4h168.1c9,0,16.4-7.3,16.4-16.4v-21.3H1578.7z"/>
	<path class="st12" d="M1795.9,1830.7h-233.5c-20.8,0-37.7,16.9-37.7,37.7h308.9C1833.6,1847.6,1816.7,1830.7,1795.9,1830.7z"/>
	<rect x="1595.1" y="1558" class="st10" width="168" height="272.7"/>
	<rect x="1538.8" y="1868.4" class="st13" width="280.6" height="7.7"/>
	<rect x="1330.4" y="2033.1" class="st14" width="697.4" height="9.6"/>
	<rect x="1337.5" y="2042.7" class="st13" width="683.3" height="19.2"/>
	<rect x="1595.1" y="1558" class="st15" width="168" height="20.7"/>
	<path class="st16" d="M1968.2,1876.1H1390c-8.5,0-15.4,6.9-15.4,15.4h608.9C1983.6,1883,1976.7,1876.1,1968.2,1876.1z"/>
	<path class="st17" d="M1987.1,1891.5h-615.9c-33.1,0-59.9,26.8-59.9,59.9v81.8H2047v-81.8C2047,1918.3,2020.2,1891.5,1987.1,1891.5
		z"/>
</g>
</svg>
