<?xml version="1.0"?>
<svg xmlns="http://www.w3.org/2000/svg" xmlns:xlink="http://www.w3.org/1999/xlink" xmlns:svgjs="http://svgjs.com/svgjs" version="1.1" width="512" height="512" x="0" y="0" viewBox="0 0 64 64" style="enable-background:new 0 0 512 512" xml:space="preserve" class=""><g><g xmlns="http://www.w3.org/2000/svg" id="_10-Invoice" data-name="10-Invoice"><path d="m46 15h8v6h-8z" fill="#2d4576" data-original="#96e8ff" class=""/><path d="m50 15h4v6h-4z" fill="#2d4576" data-original="#80dbff" class=""/><path d="m58 11v52h-40v-46h6v-6zm-4 40v-26h-32v18h24v8zm0-30v-6h-8v6z" fill="#ffffff" data-original="#ffffff" class=""/><path d="m46 39h8v4h-8z" fill="#2d4576" data-original="#96e8ff" class=""/><path d="m22 35h24v4h-24z" fill="#2d4576" data-original="#96e8ff" class=""/><path d="m46 31h8v4h-8z" fill="#2d4576" data-original="#96e8ff" class=""/><path d="m50 31h4v4h-4z" fill="#2d4576" data-original="#80dbff" class=""/><path d="m50 39h4v4h-4z" fill="#2d4576" data-original="#80dbff" class=""/><path d="m46 35h8v4h-8z" fill="#466cb9" data-original="#cff9ff" class=""/><path d="m22 39h24v4h-24z" fill="#466cb9" data-original="#cff9ff" class=""/><path d="m22 31h24v4h-24z" fill="#466cb9" data-original="#cff9ff" class=""/><path d="m46 43h8v8h-8z" fill="#35528d" data-original="#1ea1e3" class=""/><path d="m46 25h8v6h-8z" fill="#35528d" data-original="#1ea1e3" class=""/><path d="m22 25h24v6h-24z" fill="#3e5fa3" data-original="#19cffc" class=""/><path d="m10 17h8v15h-8z" fill="#f0f0f0" data-original="#f0f0f0" class=""/><path d="m12 1v6h-6z" fill="#c49f31" data-original="#fc9942" class=""/><path d="m46 1v10h-22l-6 6h-8v15h8v21h-12v-46h6v-6z" fill="#d6b85c" data-original="#ffc170" class=""/><path d="m50 25h4v6h-4z" fill="#466cb9" data-original="#368dcf" class=""/><path d="m50 43h4v8h-4z" fill="#466cb9" data-original="#368dcf" class=""/><path d="m50 35h4v4h-4z" fill="#466cb9" data-original="#b5efff" class=""/><path d="m15 6h2v2h-2z" fill="#c49f31" data-original="#ff873c" class=""/><path d="m19 6h24v2h-24z" fill="#c49f31" data-original="#ff873c" class=""/><path d="m9 10h11v2h-11z" fill="#c49f31" data-original="#ff873c" class=""/><g fill="#9c9c9c"><path d="m21 20h2v2h-2z" fill="#9c9c9c" data-original="#9c9c9c"/><path d="m25 20h18v2h-18z" fill="#9c9c9c" data-original="#9c9c9c"/><path d="m21 50h2v2h-2z" fill="#9c9c9c" data-original="#9c9c9c"/><path d="m25 50h18v2h-18z" fill="#9c9c9c" data-original="#9c9c9c"/><path d="m21 54h18v2h-18z" fill="#9c9c9c" data-original="#9c9c9c"/><path d="m21 58h2v2h-2z" fill="#9c9c9c" data-original="#9c9c9c"/><path d="m25 58h30v2h-30z" fill="#9c9c9c" data-original="#9c9c9c"/><path d="m41 54h2v2h-2z" fill="#9c9c9c" data-original="#9c9c9c"/></g><path d="m9 35h2v2h-2z" fill="#c49f31" data-original="#ff873c" class=""/><path d="m13 35h3v2h-3z" fill="#c49f31" data-original="#ff873c" class=""/><path d="m9 39h7v2h-7z" fill="#c49f31" data-original="#ff873c" class=""/><path d="m9 43h7v2h-7z" fill="#c49f31" data-original="#ff873c" class=""/><path d="m24 11v6h-6z" fill="#9c9c9c" data-original="#9c9c9c"/><path d="m16 17h2v15h-2z" fill="#d9d9d9" data-original="#d9d9d9" class=""/><path d="m16 17 8-8v2l-6 6z" fill="#d6b85c" data-original="#ffac5a" class=""/><path d="m24 9h22v2h-22z" fill="#d6b85c" data-original="#ffac5a" class=""/><path d="m16 32h2v21h-2z" fill="#d6b85c" data-original="#ffac5a" class=""/><path d="m58 10h-11v-9a1 1 0 0 0 -1-1h-34a1 1 0 0 0 -.707.293l-6 6a1 1 0 0 0 -.293.707v46a1 1 0 0 0 1 1h11v9a1 1 0 0 0 1 1h40a1 1 0 0 0 1-1v-52a1 1 0 0 0 -1-1zm-47-6.586v2.586h-2.586zm-4 48.586v-44h5a1 1 0 0 0 1-1v-5h32v8h-21a1 1 0 0 0 -.707.293l-6 6a1 1 0 0 0 -.293.707v35zm16-38.586v2.586h-2.586zm34 48.586h-38v-44h5a1 1 0 0 0 1-1v-5h32z" fill="#0b111d" data-original="#000000" class=""/><path d="m15 6h2v2h-2z" fill="#0b111d" data-original="#000000" class=""/><path d="m19 6h24v2h-24z" fill="#0b111d" data-original="#000000" class=""/><path d="m9 10h11v2h-11z" fill="#0b111d" data-original="#000000" class=""/><path d="m54 24h-32a1 1 0 0 0 -1 1v18a1 1 0 0 0 1 1h23v7a1 1 0 0 0 1 1h8a1 1 0 0 0 1-1v-26a1 1 0 0 0 -1-1zm-1 14h-6v-2h6zm0 2v2h-6v-2zm-8-4v2h-22v-2zm-22-2v-2h22v2zm30 0h-6v-2h6zm0-4h-6v-4h6zm-8-4v4h-22v-4zm-22 16v-2h22v2zm24 8v-6h6v6z" fill="#0b111d" data-original="#000000" class=""/><path d="m21 20h2v2h-2z" fill="#0b111d" data-original="#000000" class=""/><path d="m25 20h18v2h-18z" fill="#0b111d" data-original="#000000" class=""/><path d="m21 50h2v2h-2z" fill="#0b111d" data-original="#000000" class=""/><path d="m25 50h18v2h-18z" fill="#0b111d" data-original="#000000" class=""/><path d="m21 54h18v2h-18z" fill="#0b111d" data-original="#000000" class=""/><path d="m21 58h2v2h-2z" fill="#0b111d" data-original="#000000" class=""/><path d="m25 58h30v2h-30z" fill="#0b111d" data-original="#000000" class=""/><path d="m46 22h8a1 1 0 0 0 1-1v-6a1 1 0 0 0 -1-1h-8a1 1 0 0 0 -1 1v6a1 1 0 0 0 1 1zm1-6h6v4h-6z" fill="#0b111d" data-original="#000000" class=""/><path d="m41 54h2v2h-2z" fill="#0b111d" data-original="#000000" class=""/><path d="m9 17v15a1 1 0 0 0 1 1h6v-2h-5v-13h5v-2h-6a1 1 0 0 0 -1 1z" fill="#0b111d" data-original="#000000" class=""/><path d="m9 35h2v2h-2z" fill="#0b111d" data-original="#000000" class=""/><path d="m13 35h3v2h-3z" fill="#0b111d" data-original="#000000" class=""/><path d="m9 39h7v2h-7z" fill="#0b111d" data-original="#000000" class=""/><path d="m9 43h7v2h-7z" fill="#0b111d" data-original="#000000" class=""/></g></g></svg>
