<?xml version="1.0" encoding="UTF-8"?>
<svg xmlns="http://www.w3.org/2000/svg" xmlns:xlink="http://www.w3.org/1999/xlink" xmlns:svgjs="http://svgjs.com/svgjs" version="1.1" width="512" height="512" x="0" y="0" viewBox="0 0 512 512.00005" style="enable-background:new 0 0 512 512" xml:space="preserve" class="">
  <g>
    <path xmlns="http://www.w3.org/2000/svg" d="m332.800781 21.953125v388.628906h-325.179687v-388.628906c0-7.964844 6.449218-14.414063 14.414062-14.414063h296.351563c7.964843 0 14.414062 6.449219 14.414062 14.414063zm0 0" fill="#bbbec3" data-original="#d2d2d7" class=""/>
    <path xmlns="http://www.w3.org/2000/svg" d="m332.800781 21.953125v388.628906h-279.667969v-388.628906c0-7.964844 6.460938-14.414063 14.425782-14.414063h250.828125c7.964843 0 14.414062 6.449219 14.414062 14.414063zm0 0" fill="#e4e5e7" data-original="#ebebf0" class=""/>
    <path xmlns="http://www.w3.org/2000/svg" d="m332.800781 367.484375v86.207031h-282.085937c-14.339844 0-27.042969-7.003906-34.859375-17.777344-.070313-.101562-.140625-.199218-.210938-.300781-3.207031-4.460937-5.558593-9.558593-6.855469-15.074219-.03125-.101562-.058593-.210937-.078124-.3125-.714844-3.085937-1.085938-6.332031-1.085938-9.648437 0-2.953125.300781-5.847656.863281-8.640625.019531-.101562.039063-.203125.070313-.304688 1.15625-5.484374 3.355468-10.582031 6.390625-15.074218.0625-.097656.132812-.199219.203125-.300782 1.496094-2.199218 3.214844-4.261718 5.09375-6.148437 7.796875-7.800781 18.570312-12.625 30.46875-12.625zm0 0" fill="#787d87" data-original="#7d8287" class=""/>
    <path xmlns="http://www.w3.org/2000/svg" d="m160.421875 94.746094v133.464844c0 4.894531 4.003906 8.898437 8.898437 8.898437h1.78125c4.890626 0 8.894532-4.003906 8.894532-8.898437v-133.464844c0-4.894532-4.003906-8.898438-8.894532-8.898438h-1.78125c-4.894531 0-8.898437 4.003906-8.898437 8.898438zm0 0" fill="#ab8b2b" data-original="#ffa90b" class=""/>
    <path xmlns="http://www.w3.org/2000/svg" d="m98.886719 57.996094h139.585937v68.519531h-139.585937zm0 0" fill="#c49f31" data-original="#ffc14f" class=""/>
    <path xmlns="http://www.w3.org/2000/svg" d="m238.472656 57.996094v44.992187h-61.507812c-17.492188 0-31.671875-14.179687-31.671875-31.667969v-13.324218zm0 0" fill="#d6b85c" data-original="#ffcd71" class=""/>
    <path xmlns="http://www.w3.org/2000/svg" d="m219.347656 59.136719v66.242187c0 9.949219 8.144532 18.09375 18.09375 18.09375 9.953125 0 18.09375-8.144531 18.09375-18.09375v-66.242187c0-9.949219-8.140625-18.09375-18.09375-18.09375-9.949218 0-18.09375 8.144531-18.09375 18.09375zm0 0" fill="#ab8b2b" data-original="#ffa90b" class=""/>
    <path xmlns="http://www.w3.org/2000/svg" d="m84.886719 59.136719v66.242187c0 9.949219 8.140625 18.09375 18.09375 18.09375 9.949219 0 18.09375-8.144531 18.09375-18.09375v-66.242187c0-9.949219-8.144531-18.09375-18.09375-18.09375-9.953125 0-18.09375 8.144531-18.09375 18.09375zm0 0" fill="#ab8b2b" data-original="#ffa90b" class=""/>
    <path xmlns="http://www.w3.org/2000/svg" d="m195.128906 221.867188v85.734374c0 3.835938-.871094 7.476563-2.449218 10.722657-1.226563 2.5625-2.886719 4.882812-4.875 6.871093-4.511719 4.515626-10.742188 7.316407-17.597657 7.316407-13.699219 0-24.914062-11.214844-24.914062-24.910157v-85.734374c0-2.179688 1.769531-3.949219 3.949219-3.949219h41.929687c2.191406 0 3.957031 1.769531 3.957031 3.949219zm0 0" fill="#871d40" data-original="#ae583e" class=""/>
    <path xmlns="http://www.w3.org/2000/svg" d="m195.128906 221.867188v85.734374c0 3.835938-.871094 7.476563-2.449218 10.722657-.894532.097656-1.789063.148437-2.703126.148437-13.710937 0-24.914062-11.203125-24.914062-24.910156v-75.644531h26.109375c2.191406 0 3.957031 1.769531 3.957031 3.949219zm0 0" fill="#b92758" data-original="#c0694e" class=""/>
    <path xmlns="http://www.w3.org/2000/svg" d="m216.074219 401.632812v82.058594c0 3.316406-3.636719 5.335938-6.453125 3.585938l-17.90625-11.125c-.675782-.410156-1.4375-.632813-2.203125-.644532-.78125 0-1.566407.214844-2.261719.644532l-17.90625 11.125c-2.816406 1.75-6.453125-.269532-6.453125-3.585938v-82.058594zm0 0" fill="#3fa684" data-original="#1ed688" class=""/>
    <path xmlns="http://www.w3.org/2000/svg" d="m125.9375 420.539062v79.683594c0 3.316406-3.636719 5.335938-6.449219 3.585938l-17.910156-11.132813c-.671875-.414062-1.4375-.625-2.199219-.632812-.785156-.011719-1.570312.199219-2.261718.632812l-17.910157 11.132813c-2.8125 1.75-6.453125-.269532-6.453125-3.585938v-79.683594zm0 0" fill="#35528d" data-original="#4172cc" class=""/>
    <path xmlns="http://www.w3.org/2000/svg" d="m216.074219 401.632812v82.058594c0 3.316406-3.636719 5.335938-6.453125 3.585938l-17.90625-11.125c-.675782-.410156-1.4375-.632813-2.203125-.644532v-73.875zm0 0" fill="#60c3a2" data-original="#35e298" class=""/>
    <path xmlns="http://www.w3.org/2000/svg" d="m125.9375 420.539062v79.683594c0 3.316406-3.636719 5.335938-6.449219 3.585938l-17.910156-11.132813c-.671875-.414062-1.4375-.625-2.199219-.632812v-71.503907zm0 0" fill="#466cb9" data-original="#6990d7" class=""/>
    <path xmlns="http://www.w3.org/2000/svg" d="m332.8125 245.28125c-4.171875 0-7.539062 3.378906-7.539062 7.539062v107.128907h-274.558594c-13.847656 0-26.417969 5.585937-35.5625 14.632812v-251.835937c0-4.160156-3.378906-7.535156-7.539063-7.535156-4.160156 0-7.535156 3.375-7.535156 7.535156.347656 301.679687-.875 288.5.984375 297.792968 4.605469 23.023438 24.996094 40.691407 49.652344 40.691407h14.503906v38.992187c0 9.148438 10.085938 14.878906 17.96875 9.988282l16.160156-10.050782c15.136719 8.851563 16.796875 11.820313 22.371094 11.820313 6.425781 0 11.757812-5.203125 11.757812-11.757813v-38.992187h21.878907v22.460937c0 9.238282 10.203125 14.859375 17.96875 9.988282l16.160156-10.039063 16.15625 10.039063c7.839844 4.863281 17.96875-.769532 17.96875-9.988282v-22.460937h109.203125c4.160156 0 7.535156-3.378907 7.535156-7.539063 0-5.460937 0-190.148437 0-200.871094 0-4.160156-3.375-7.539062-7.535156-7.539062zm-7.539062 156.351562v18.90625h-101.664063v-18.90625zm-274.558594-26.609374h274.558594v11.535156c-36.398438 0-265.996094 0-300.746094 0 6.492187-7.082032 15.828125-11.535156 26.1875-11.535156zm-34.429688 26.609374h139.070313v18.90625c-13.296875 0-122.5 0-138.789063 0-1.785156-6.140624-1.882812-12.617187-.28125-18.90625zm9.195313 33.980469h39.738281v10.542969c-8.042969-.976562-25.347656 3.980469-39.738281-10.542969zm92.921875 58.648438-12.84375-7.988281c-3.828125-2.382813-8.59375-2.382813-12.421875 0l-12.84375 7.988281c0-12.042969 0-46.03125 0-58.648438h38.109375zm15.074218-48.105469v-10.542969h21.878907v10.542969zm75.058594 31.574219c-11.597656-6.703125-13.65625-9.769531-19.050781-9.769531-5.378906 0-7.347656 3.007812-19.054687 9.769531 0-26.6875 0-49.40625 0-76.097657h38.105468zm15.074219-31.574219v-10.542969h101.664063v10.542969zm0 0" fill="#1a1a1a" data-original="#000000" class=""/>
    <path xmlns="http://www.w3.org/2000/svg" d="m318.390625 0h-296.355469c-12.109375 0-21.957031 9.847656-21.957031 21.957031v70.640625c0 4.171875 3.375 7.539063 7.535156 7.539063 4.160157 0 7.539063-3.367188 7.539063-7.539063v-70.640625c0-3.796875 3.082031-6.882812 6.882812-6.882812h296.355469c3.789063 0 6.882813 3.085937 6.882813 6.882812v200.714844c0 4.160156 3.367187 7.535156 7.539062 7.535156 4.160156 0 7.535156-3.375 7.535156-7.535156v-200.714844c0-12.109375-9.859375-21.957031-21.957031-21.957031zm0 0" fill="#1a1a1a" data-original="#000000" class=""/>
    <path xmlns="http://www.w3.org/2000/svg" d="m213.332031 134.050781c3.554688 9.878907 13.023438 16.957031 24.105469 16.957031 14.140625 0 25.636719-11.5 25.636719-25.628906v-66.238281c0-14.136719-11.496094-25.636719-25.636719-25.636719-11.082031 0-20.550781 7.078125-24.105469 16.957032h-86.238281c-3.558594-9.878907-13.023438-16.957032-24.117188-16.957032-14.132812 0-25.628906 11.5-25.628906 25.636719v66.238281c0 14.128906 11.496094 25.628906 25.628906 25.628906 11.09375 0 20.558594-7.078124 24.117188-16.957031h25.789062v76.328125h-7.589843c-4.160157 0-7.535157 3.378906-7.535157 7.539063v89.683593c0 17.886719 14.5625 32.449219 32.449219 32.449219 17.898438 0 32.460938-14.5625 32.460938-32.449219-.0625-.1875 1.273437-10.453124-7.539063-10.453124-8.894531 0-7.464844 10.230468-7.535156 10.453124 0 9.574219-7.800781 17.375-17.386719 17.375-9.578125 0-17.375-7.800781-17.375-17.375v-82.148437h34.761719v49.082031c0 4.160156 3.367188 7.539063 7.535156 7.539063 4.160156 0 7.539063-3.378907 7.539063-7.539063v-56.617187c0-4.160157-3.378907-7.539063-7.539063-7.539063h-7.597656v-76.328125zm24.105469-85.472656c5.832031 0 10.5625 4.734375 10.5625 10.5625v66.238281c0 5.820313-4.730469 10.554688-10.5625 10.554688-5.824219 0-10.550781-4.742188-10.550781-10.554688v-66.238281c0-5.84375 4.75-10.5625 10.550781-10.5625zm-134.460938 87.355469c-5.820312 0-10.554687-4.734375-10.554687-10.554688v-66.238281c0-11.386719 15.644531-14.660156 20.210937-4.257813 1.625 3.640626.578126.308594.90625 70.496094 0 5.765625-4.695312 10.554688-10.5625 10.554688zm25.636719-16.957032v-53.441406h83.199219v53.441406c-47.726562 0-36.300781 0-83.199219 0zm43.84375 91.402344h-4.5v-76.328125h4.5zm0 0" fill="#1a1a1a" data-original="#000000" class=""/>
  </g>
</svg>
