<?xml version="1.0"?>
<svg xmlns="http://www.w3.org/2000/svg" xmlns:xlink="http://www.w3.org/1999/xlink" xmlns:svgjs="http://svgjs.com/svgjs" version="1.1" width="512" height="512" x="0" y="0" viewBox="0 0 512 512" style="enable-background:new 0 0 512 512" xml:space="preserve" class=""><g><path xmlns="http://www.w3.org/2000/svg" d="m492.5625 7.804688h-472.753906c-6.667969 0-12.121094 5.457031-12.121094 12.121093v333.367188c0 6.667969 5.457031 12.121093 12.121094 12.121093h472.753906c6.667969 0 12.125-5.453124 12.125-12.121093v-333.363281c0-6.667969-5.457031-12.125-12.125-12.125zm0 0" fill="#e4e5e7" data-original="#edebed" class=""/><path xmlns="http://www.w3.org/2000/svg" d="m37.6875 354.546875v-335.871094c0-4.730469 2.730469-8.84375 6.6875-10.871093h-24.566406c-6.667969 0-12.121094 5.457031-12.121094 12.121093v333.367188c0 6.667969 5.457031 12.121093 12.121094 12.121093h24.566406c-3.957031-2.027343-6.6875-6.140624-6.6875-10.867187zm0 0" fill="#bbbec3" data-original="#e0d9d5" class=""/><path xmlns="http://www.w3.org/2000/svg" d="m492.5625 7.804688h-472.753906c-6.667969 0-12.121094 5.457031-12.121094 12.125v42.707031h497v-42.707031c0-6.667969-5.457031-12.125-12.125-12.125zm0 0" fill="#466cb9" data-original="#71aae2" class=""/><path xmlns="http://www.w3.org/2000/svg" d="m44.375 7.804688h-24.566406c-6.667969 0-12.121094 5.457031-12.121094 12.121093v42.707031h30v-43.957031c0-4.730469 2.730469-8.84375 6.6875-10.871093zm0 0" fill="#3e5fa3" data-original="#6397d6" class=""/><path xmlns="http://www.w3.org/2000/svg" d="m220.648438 97.523438h-166.621094c-7.191406 0-13.019532 5.832031-13.019532 13.023437v204.394531c4.039063-17.144531 19.640626-23.566406 19.640626-23.566406l55.613281-21.558594 21.046875 25.976563 21.046875-25.976563 55.671875 21.558594s15.597656 6.421875 19.640625 23.566406v-204.394531c0-7.191406-5.828125-13.023437-13.019531-13.023437zm0 0" fill="#466cb9" data-original="#71aae2" class=""/><path xmlns="http://www.w3.org/2000/svg" d="m71.007812 97.523438h-16.980468c-7.191406 0-13.019532 5.832031-13.019532 13.023437v204.394531c4.039063-17.144531 19.640626-23.566406 19.640626-23.566406l10.359374-4.015625zm0 0" fill="#3e5fa3" data-original="#6397d6" class=""/><path xmlns="http://www.w3.org/2000/svg" d="m137.875 254.410156c-8.359375 0-15.675781-2.679687-21.613281-7.144531v21.808594l21.046875 29.570312 21.046875-29.570312v-21.726563c-5.871094 4.457032-12.914063 7.0625-20.480469 7.0625zm0 0" fill="#f4bda4" data-original="#f4bda4"/><path xmlns="http://www.w3.org/2000/svg" d="m141.855469 254.164062c-1.308594.160157-2.636719.246094-3.980469.246094-8.359375 0-15.675781-2.683594-21.613281-7.144531v21.808594l21.046875 29.566406 4.546875-6.382813zm0 0" fill="#efa78b" data-original="#efa78b"/><path xmlns="http://www.w3.org/2000/svg" d="m233.667969 318.1875v-5.246094c-4.042969-17.144531-19.640625-23.566406-19.640625-23.566406l-55.671875-21.558594-21.046875 25.976563-21.046875-25.976563-55.613281 21.558594s-15.601563 6.421875-19.640626 23.566406v5.246094c0 7.191406 5.828126 13.023438 13.019532 13.023438h166.621094c7.191406 0 13.019531-5.832032 13.019531-13.023438zm0 0" fill="#d84676" data-original="#fc5f61" class=""/><g xmlns="http://www.w3.org/2000/svg" fill="#ef4d55"><path d="m71.007812 285.359375-10.359374 4.015625s-15.601563 6.421875-19.640626 23.566406v5.246094c0 7.191406 5.828126 13.023438 13.019532 13.023438h16.980468zm0 0" fill="#d22d64" data-original="#ef4d55" class=""/><path d="m162.71875 307.140625 15.738281-31.539063-20.101562-7.789062-21.046875 25.980469 20.519531 14.570312c1.660156 1.179688 3.980469.597657 4.890625-1.222656zm0 0" fill="#d22d64" data-original="#ef4d55" class=""/><path d="m111.925781 307.140625-15.738281-31.539063 20.105469-7.789062 21.042969 25.980469-20.515626 14.570312c-1.664062 1.179688-3.984374.597657-4.894531-1.222656zm0 0" fill="#d22d64" data-original="#ef4d55" class=""/></g><path xmlns="http://www.w3.org/2000/svg" d="m158.261719 289.738281 13.539062-16.714843-13.445312-5.207032-21.046875 25.976563 20.519531 14.574219c1.660156 1.179687 3.980469.597656 4.890625-1.226563l2.890625-5.792969-6.378906-4.53125c-2.304688-1.640625-2.746094-4.882812-.96875-7.078125zm0 0" fill="#b92758" data-original="#e03f4f" class=""/><path xmlns="http://www.w3.org/2000/svg" d="m118.871094 273.65625 1.640625-.632812-4.21875-5.210938-20.101563 7.789062 15.734375 31.539063c.910157 1.820313 3.230469 2.402344 4.894531 1.222656l9.882813-7.019531-10.445313-20.933594c-1.289062-2.582031-.078124-5.710937 2.613282-6.753906zm0 0" fill="#b92758" data-original="#e03f4f" class=""/><path xmlns="http://www.w3.org/2000/svg" d="m180.125 192.167969c-.996094.535156-2.128906.84375-3.328125.84375-.953125 0-1.882813-.101563-2.78125-.292969v26.769531c0 .300781-.015625.59375-.023437.890625 9.742187 1.476563 17.371093-5.5625 17.371093-14.207031 0-6.738281-4.617187-12.46875-11.238281-14.003906zm0 0" fill="#f4bda4" data-original="#f4bda4"/><path xmlns="http://www.w3.org/2000/svg" d="m100.660156 193.007812h-4.613281c-.847656 0-1.671875-.105468-2.464844-.285156-5.707031 1.980469-10.269531 7.117188-10.269531 13.445313 0 8.636719 7.613281 15.6875 17.371094 14.210937-.007813-.296875-.023438-.59375-.023438-.890625zm0 0" fill="#f4bda4" data-original="#f4bda4"/><path xmlns="http://www.w3.org/2000/svg" d="m184.648438 194.039062c-1.359376-.847656-2.878907-1.488281-4.523438-1.871093-.996094.535156-2.128906.839843-3.328125.839843-.953125 0-1.882813-.101562-2.78125-.292968v26.773437c0 .296875-.015625.59375-.023437.890625 4.050781.613282 7.730468-.246094 10.65625-2.082031zm0 0" fill="#efa78b" data-original="#efa78b"/><path xmlns="http://www.w3.org/2000/svg" d="m100.660156 218.300781c-4.109375-2.578125-6.714844-7.082031-6.714844-12.132812 0-4.9375 2.785157-9.144531 6.714844-11.695313v-1.464844h-4.613281c-.847656 0-1.671875-.105468-2.464844-.285156-5.707031 1.980469-10.269531 7.117188-10.269531 13.445313 0 8.636719 7.613281 15.6875 17.371094 14.210937-.007813-.296875-.023438-.59375-.023438-.890625zm0 0" fill="#efa78b" data-original="#efa78b"/><path xmlns="http://www.w3.org/2000/svg" d="m164.113281 179.542969c0-.71875-.96875-.96875-1.308593-.332031-4.386719 8.210937-13.039063 13.796874-23 13.796874h-39.921876v26.480469c0 19.296875 15.117188 36.921875 37.988282 36.921875 20.359375 0 36.921875-16.5625 36.921875-36.921875v-26.773437c-6.082031-1.292969-10.679688-6.71875-10.679688-13.171875zm0 0" fill="#f9cbb4" data-original="#f9cbb4" class=""/><path xmlns="http://www.w3.org/2000/svg" d="m123.304688 219.488281v-26.480469h-23.421876v26.480469c0 19.296875 15.117188 36.921875 37.988282 36.921875 3.953125 0 7.757812-.628906 11.332031-1.785156-15.957031-4.941406-25.898437-19.488281-25.898437-35.136719zm0 0" fill="#f4bda4" data-original="#f4bda4"/><path xmlns="http://www.w3.org/2000/svg" d="m172.394531 144.40625c-3.527343.273438-6.761719-1.945312-7.441406-5.417969-1.144531-5.847656-4.039063-11.652343-15.347656-11.652343h-39.242188c-14.402343 0-26.074219 11.675781-26.074219 26.078124v29.398438c0 6.0625 4.914063 10.976562 10.980469 10.976562h44.535157c9.960937 0 18.613281-5.585937 23-13.796874.339843-.636719 1.308593-.386719 1.308593.332031 0 7.40625 6.058594 13.464843 13.464844 13.464843 3.882813 0 7.058594-3.175781 7.058594-7.058593v-30.644531c0-7.035157-6.140625-12.148438-12.242188-11.679688zm0 0" fill="#935d38" data-original="#935d38" class=""/><path xmlns="http://www.w3.org/2000/svg" d="m107.664062 183.765625v-30.660156c0-11.980469 7.753907-22.144531 18.515626-25.769531h-15.816407c-14.402343 0-26.074219 11.675781-26.074219 26.078124v29.398438c0 6.0625 4.914063 10.976562 10.980469 10.976562h18.320313c-3.53125-1.949218-5.925782-5.707031-5.925782-10.023437zm0 0" fill="#7f4d2a" data-original="#7f4d2a" class=""/><path xmlns="http://www.w3.org/2000/svg" d="m53.84375 89.71875c-11.316406 0-20.523438 9.207031-20.523438 20.523438v207.640624c0 11.316407 9.207032 20.523438 20.523438 20.523438h166.617188c11.316406 0 20.523437-9.207031 20.523437-20.523438 0-9.804687 0-197.628906 0-207.640624 0-11.316407-9.207031-20.523438-20.523437-20.523438zm172.140625 228.164062c0 3.042969-2.480469 5.519532-5.523437 5.519532h-166.617188c-3.046875 0-5.523438-2.476563-5.523438-5.519532v-4.320312c3.28125-12.195312 14.140626-17.179688 14.960938-17.539062l29.0625-11.265626 12.6875 25.425782v.003906c2.953125 5.914062 10.515625 7.84375 15.945312 3.988281l16.160157-11.476562 16.160156 11.472656c5.425781 3.855469 12.988281 1.9375 15.949219-3.984375v-.003906l12.6875-25.425782 29.089844 11.265626c.703124.3125 11.691406 5.425781 14.960937 17.542968zm-133.871094-106.652343c-.003906-.003907-.011719-.007813-.011719-.007813-2.621093-2.257812-3.679687-6.800781.011719-9.945312zm80.746094-59.613281h.003906c1.808594-.125 4.1875 1.582031 4.1875 4.226562v29.464844c-3.304687-.242188-5.566406-3-5.566406-5.957032 0-8.488281-11.40625-11.367187-15.425781-3.871093-3.253906 6.085937-9.550782 9.863281-16.4375 9.863281-4.753906 0-39.726563 0-44.632813 0-1.859375 0-3.5-1.519531-3.5-3.5v-28.679688c0-10.273437 8.355469-18.632812 18.628907-18.632812h39.324218c6.925782 0 7.382813 2.355469 8.023438 5.617188 1.390625 7.105468 8.007812 12.050781 15.394531 11.46875zm9.328125 49.210937c3.261719 2.761719 3.109375 7.8125 0 10.402344zm-75.074219 18.554687v-19.035156h32.507813c8.121094 0 15.710937-2.925781 21.539062-7.796875 1.664063 2.054688 3.710938 3.785157 6.027344 5.09375 0 23.292969-.019531 22.503907-.019531 22.503907-.253907 9.835937-5.382813 18.644531-13.164063 23.789062-19.363281 12.921875-46.890625-.21875-46.890625-24.554688zm50.890625 79.734376-10.023437-7.117188c4.832031-5.96875 2.261719-2.792969 12.574219-15.523438l7.328124 2.839844zm-41.734375 0-9.878906-19.800782 7.304687-2.832031 12.578126 15.527344zm34.398438-37.167969v2.902343l-13.53125 16.703126-13.558594-16.738282v-3c8.292969 2.523438 18.078125 2.886719 27.089844.132813zm75.316406-151.707031v177.644531c-4.808594-3.859375-8.925781-5.605469-9.285156-5.75-.050781-.023438-.097657-.039063-.148438-.0625l-35.566406-13.773438h-.003906l-15.3125-5.929687v-8.417969c8.046875-6.527344 13.773437-15.796875 15.753906-26.375 18.742187-3.414063 24.371094-26.710937 10.207031-38.378906.265625-1.101563.421875-2.246094.421875-3.425781v-29.929688c0-11.347656-9.714843-19.804688-19.996093-19.207031-3.054688-14.117188-13.945313-17.105469-22.609376-17.105469h-39.324218c-18.546875 0-33.632813 15.089844-33.632813 33.632812v28.679688c0 3.9375 1.246094 7.585938 3.351563 10.589844-10.8125 12.738281-3.53125 32.117187 13.027344 35.144531 1.949218 10.617187 7.617187 19.816406 15.710937 26.296875v8.5l-50.828125 19.703125c-.050781.019531-.097656.035156-.144531.058594-.363281.148437-4.476563 1.890625-9.285157 5.75v-177.644531c0-3.042969 2.476563-5.523438 5.519532-5.523438h166.621094c3.042968 0 5.523437 2.480469 5.523437 5.523438zm0 0" fill="#000000" data-original="#000000" class=""/><path xmlns="http://www.w3.org/2000/svg" d="m309.136719 117.851562h121.21875c4.144531 0 7.5-3.355468 7.5-7.5 0-4.144531-3.355469-7.5-7.5-7.5h-121.21875c-4.144531 0-7.5 3.355469-7.5 7.5 0 4.144532 3.355469 7.5 7.5 7.5zm0 0" fill="#000000" data-original="#000000" class=""/><path xmlns="http://www.w3.org/2000/svg" d="m309.136719 152.003906h121.21875c4.144531 0 7.5-3.359375 7.5-7.503906 0-4.140625-3.355469-7.5-7.5-7.5h-121.21875c-4.144531 0-7.5 3.359375-7.5 7.5 0 4.144531 3.355469 7.503906 7.5 7.503906zm0 0" fill="#000000" data-original="#000000" class=""/><path xmlns="http://www.w3.org/2000/svg" d="m275.828125 178.652344c0 4.140625 3.355469 7.5 7.5 7.5h37.59375c4.144531 0 7.5-3.359375 7.5-7.5 0-4.144532-3.355469-7.503906-7.5-7.503906h-37.59375c-4.144531 0-7.5 3.359374-7.5 7.503906zm0 0" fill="#000000" data-original="#000000" class=""/><path xmlns="http://www.w3.org/2000/svg" d="m283.328125 220.300781h37.59375c4.144531 0 7.5-3.355469 7.5-7.5s-3.355469-7.5-7.5-7.5h-37.59375c-4.144531 0-7.5 3.355469-7.5 7.5s3.355469 7.5 7.5 7.5zm0 0" fill="#000000" data-original="#000000" class=""/><path xmlns="http://www.w3.org/2000/svg" d="m283.328125 254.449219h37.59375c4.144531 0 7.5-3.355469 7.5-7.5 0-4.140625-3.355469-7.5-7.5-7.5h-37.59375c-4.144531 0-7.5 3.359375-7.5 7.5 0 4.144531 3.355469 7.5 7.5 7.5zm0 0" fill="#000000" data-original="#000000" class=""/><path xmlns="http://www.w3.org/2000/svg" d="m283.328125 288.597656h37.59375c4.144531 0 7.5-3.355468 7.5-7.5 0-4.140625-3.355469-7.5-7.5-7.5h-37.59375c-4.144531 0-7.5 3.359375-7.5 7.5 0 4.144532 3.355469 7.5 7.5 7.5zm0 0" fill="#000000" data-original="#000000" class=""/><path xmlns="http://www.w3.org/2000/svg" d="m283.328125 322.75h37.59375c4.144531 0 7.5-3.359375 7.5-7.5 0-4.144531-3.355469-7.5-7.5-7.5h-37.59375c-4.144531 0-7.5 3.355469-7.5 7.5 0 4.140625 3.355469 7.5 7.5 7.5zm0 0" fill="#000000" data-original="#000000" class=""/><path xmlns="http://www.w3.org/2000/svg" d="m460.324219 171.148438h-106.285157c-4.144531 0-7.5 3.359374-7.5 7.503906 0 4.140625 3.355469 7.5 7.5 7.5h106.285157c4.144531 0 7.5-3.359375 7.5-7.5 0-4.144532-3.359375-7.503906-7.5-7.503906zm0 0" fill="#000000" data-original="#000000" class=""/><path xmlns="http://www.w3.org/2000/svg" d="m460.324219 205.300781h-106.285157c-4.144531 0-7.5 3.355469-7.5 7.5s3.355469 7.5 7.5 7.5h106.285157c4.144531 0 7.5-3.355469 7.5-7.5s-3.359375-7.5-7.5-7.5zm0 0" fill="#000000" data-original="#000000" class=""/><path xmlns="http://www.w3.org/2000/svg" d="m460.324219 239.449219h-106.285157c-4.144531 0-7.5 3.359375-7.5 7.5 0 4.144531 3.355469 7.5 7.5 7.5h106.285157c4.144531 0 7.5-3.355469 7.5-7.5 0-4.140625-3.359375-7.5-7.5-7.5zm0 0" fill="#000000" data-original="#000000" class=""/><path xmlns="http://www.w3.org/2000/svg" d="m460.324219 273.597656h-106.285157c-4.144531 0-7.5 3.359375-7.5 7.5 0 4.144532 3.355469 7.5 7.5 7.5h106.285157c4.144531 0 7.5-3.355468 7.5-7.5 0-4.140625-3.359375-7.5-7.5-7.5zm0 0" fill="#000000" data-original="#000000" class=""/><path xmlns="http://www.w3.org/2000/svg" d="m460.324219 307.75h-106.285157c-4.144531 0-7.5 3.355469-7.5 7.5 0 4.140625 3.355469 7.5 7.5 7.5h106.285157c4.144531 0 7.5-3.359375 7.5-7.5 0-4.144531-3.359375-7.5-7.5-7.5zm0 0" fill="#000000" data-original="#000000" class=""/><path xmlns="http://www.w3.org/2000/svg" d="m504.5 216.515625c-4.144531 0-7.5 3.355469-7.5 7.5v128.972656c0 2.503907-2.117188 4.621094-4.621094 4.621094h-218.878906c-4.144531 0-7.5 3.359375-7.5 7.5 0 4.144531 3.355469 7.5 7.5 7.5h218.875c10.820312 0 19.625-8.800781 19.625-19.621094v-128.972656c0-4.144531-3.359375-7.5-7.5-7.5zm0 0" fill="#000000" data-original="#000000" class=""/><path xmlns="http://www.w3.org/2000/svg" d="m492.378906 0h-472.757812c-10.820313 0-19.621094 8.800781-19.621094 19.625v333.363281c0 10.820313 8.800781 19.625 19.621094 19.625h218.878906c4.140625 0 7.5-3.359375 7.5-7.503906 0-4.140625-3.359375-7.5-7.5-7.5h-218.878906c-2.503906 0-4.621094-2.113281-4.621094-4.621094v-283.15625h482v119.179688c0 4.144531 3.355469 7.503906 7.5 7.503906s7.5-3.359375 7.5-7.503906c0-2.898438 0-164.660157 0-169.386719 0-10.824219-8.800781-19.625-19.621094-19.625zm-477.378906 54.828125v-35.203125c0-2.507812 2.117188-4.625 4.621094-4.625h472.757812c2.503906 0 4.621094 2.117188 4.621094 4.625v35.203125zm0 0" fill="#000000" data-original="#000000" class=""/></g></svg>
