<?xml version="1.0"?>
<svg xmlns="http://www.w3.org/2000/svg" xmlns:xlink="http://www.w3.org/1999/xlink" xmlns:svgjs="http://svgjs.com/svgjs" version="1.1" width="512" height="512" x="0" y="0" viewBox="0 0 512.001 512.001" style="enable-background:new 0 0 512 512" xml:space="preserve" class=""><g><g xmlns="http://www.w3.org/2000/svg"><g><g><g><path d="m38.957 263.58v229.595c0 6.255 5.071 11.325 11.325 11.325h411.435c6.255 0 11.325-5.071 11.325-11.325v-229.595c0-3.127-2.535-5.663-5.663-5.663h-422.759c-3.127 0-5.663 2.535-5.663 5.663z" fill="#c49f31" data-original="#e7b729"/><g><g><path d="m414.828 126.548v290.307h-317.656v-353.238c0-7.008 5.679-12.688 12.688-12.688h229.349z" fill="#eef4f5" data-original="#eef4f5" class=""/><path d="m364.572 416.856h-217.144v-127.168c0-5.523 4.477-10 10-10h197.144c5.523 0 10 4.477 10 10z" fill="#bbbec3" data-original="#90bac4" class=""/><path d="m364.57 289.691v127.17h-37.27v-127.17c0-5.53-4.48-10-10-10h37.27c5.53 0 10 4.47 10 10z" fill="#bbbec3" data-original="#7da2b0" class=""/><g fill="#cbe5e7"><path d="m198.562 103.156c0 28.003-16.083 52.237-39.517 63.99v16.384c0 9.251-11.182 13.882-17.724 7.341l-16.187-16.187c-9.957-.249-19.416-2.544-27.961-6.469v-104.598c0-7.008 5.679-12.688 12.688-12.688h66.067c13.933 13.052 22.634 31.627 22.634 52.227z" fill="#e4e5e7" data-original="#cbe5e7" class=""/><path d="m339.212 141.69v-90.763l75.621 75.621v27.837h-62.926c-7.012 0-12.695-5.684-12.695-12.695z" fill="#e4e5e7" data-original="#cbe5e7" class=""/><path d="m376.962 88.677v328.179h37.871v-290.309z" fill="#e4e5e7" data-original="#cbe5e7" class=""/></g><path d="m339.212 113.853v-62.926l75.621 75.621h-62.926c-7.012-.001-12.695-5.684-12.695-12.695z" fill="#c49f31" data-original="#fddd45" class=""/></g></g><g><path d="m431.43 504.501h-381.147c-6.255 0-11.325-5.071-11.325-11.325v-229.587c0-4.475 4.947-7.182 8.716-4.769z" fill="#c49f31" data-original="#fdd330" class=""/><path d="m80.57 504.501h381.147c6.255 0 11.325-5.071 11.325-11.325v-229.587c0-4.475-4.947-7.182-8.716-4.769z" fill="#c49f31" data-original="#fdd330" class=""/><path d="m473.04 263.591v229.58c0 6.26-5.07 11.33-11.32 11.33h-40.44c6.26 0 11.33-5.07 11.33-11.33v-214.04l31.72-20.31c3.77-2.41 8.71.29 8.71 4.77z" fill="#d6b85c" data-original="#f8c52d" class=""/></g><g><path d="m247.377 308.604-166.807 195.896h350.86l-166.807-195.896c-4.522-5.311-12.724-5.311-17.246 0z" fill="#d6b85c" data-original="#fde784" class=""/><path d="m431.43 504.501h-45.66l-152.6-179.21 14.21-16.69c4.52-5.31 12.72-5.31 17.24 0z" fill="#c49f31" data-original="#fddd45" class=""/></g></g><g><g><g><path d="m198.566 79.076c0-39.882-32.619-72.146-72.634-71.568-38.278.553-69.694 31.751-70.5 70.024-.834 39.612 30.526 72.074 69.707 73.072l16.185 16.185c6.541 6.541 17.725 1.908 17.725-7.342v-16.38c23.428-11.76 39.517-35.99 39.517-63.991z" fill="#d84676" data-original="#fb3a82" class=""/><path d="m198.569 79.077c0 28.003-16.094 52.226-39.517 63.99v16.384c0 9.249-11.183 13.882-17.723 7.341l-8.442-8.442c1.485-1.744 2.409-4.018 2.409-6.687v-7.112c0-5.485 2.828-10.533 7.402-13.56 19.353-12.811 32.115-34.757 32.115-59.702 0-27.286-15.263-51.011-37.721-63.087 34.751 4.912 61.477 34.773 61.477 70.875z" fill="#b92758" data-original="#fb1466" class=""/></g></g></g></g></g><g><path d="m473.043 327.943c4.142 0 7.5-3.357 7.5-7.5v-56.854c0-4.813-2.623-9.237-6.845-11.548-1.881-1.029-3.944-1.561-6.012-1.61-.102-.004-.203-.015-.307-.015h-45.047v-123.869c-.005-1.973-.804-3.905-2.197-5.304l-75.621-75.62c-1.398-1.393-3.331-2.191-5.303-2.196h-141.613c-3.827-7.56-8.882-14.541-15.102-20.672-15.195-14.977-35.33-23.069-56.673-22.746-20.466.295-39.814 8.479-54.479 23.045-14.666 14.565-22.98 33.857-23.412 54.32-.645 30.651 16.394 57.706 41.735 71.355v32.546c0 4.143 3.358 7.5 7.5 7.5s7.5-3.357 7.5-7.5v-26.382c5.516 1.628 11.275 2.691 17.225 3.071l14.127 14.128c3.429 3.429 7.982 5.246 12.627 5.246 2.307 0 4.636-.448 6.861-1.37 6.707-2.777 11.04-9.263 11.04-16.521v-11.905c24.493-14.126 39.518-39.948 39.518-68.467 0-7.077-.94-14-2.725-20.648h128.372v55.426c0 11.135 9.059 20.194 20.194 20.194h55.426v152.355l-35.26 22.573v-19.288c0-9.649-7.851-17.5-17.5-17.5h-197.144c-9.649 0-17.5 7.851-17.5 17.5v19.288l-35.26-22.574v-68.1c0-4.143-3.358-7.5-7.5-7.5s-7.5 3.357-7.5 7.5v32.114h-45.048c-.108 0-.214.012-.321.016-2.063.05-4.121.583-5.997 1.609-4.222 2.311-6.845 6.735-6.845 11.548v229.586c0 10.38 8.445 18.825 18.825 18.825h411.435c10.38 0 18.826-8.445 18.826-18.825v-135.705c0-4.143-3.358-7.5-7.5-7.5s-7.5 3.357-7.5 7.5v135.706c0 2.109-1.716 3.825-3.826 3.825h-26.823l-61.18-71.85c-2.687-3.154-7.42-3.534-10.573-.848-3.154 2.686-3.533 7.419-.848 10.572l52.9 62.125h-318.386l156.28-183.534c.997-1.171 2.253-1.345 2.914-1.345.66 0 1.916.175 2.912 1.345l79.282 93.108c2.685 3.154 7.419 3.533 10.573.848s3.533-7.419.848-10.572l-30.688-36.04 146.616-93.863v53.496c-.001 4.144 3.357 7.501 7.499 7.501zm-317.359-191.579c-2.535 1.272-4.136 3.866-4.136 6.703v16.381c0 1.676-1.115 2.388-1.78 2.663-.665.276-1.956.563-3.142-.625l-16.185-16.186c-1.36-1.359-3.19-2.145-5.112-2.194-35.148-.895-63.141-30.24-62.399-65.415.717-34.071 29.028-62.191 63.11-62.684.32-.005.638-.007.957-.007 16.947 0 32.885 6.526 44.97 18.438 12.316 12.139 19.099 28.347 19.099 45.637-.001 24.384-13.558 46.335-35.382 57.289zm191.028-22.511v-44.819l50.014 50.014h-44.82c-2.864-.001-5.194-2.331-5.194-5.195zm75.621 151.564h17.78l-17.78 11.383zm-332.665 11.382-17.78-11.383h17.78zm-12.563 220.202h-26.822c-2.109 0-3.825-1.716-3.825-3.825v-226.229l146.615 93.863zm193.229-193.259c-3.583-4.207-8.807-6.62-14.333-6.62s-10.751 2.412-14.334 6.62l-38.779 45.541-47.96-30.704v-28.891c0-1.379 1.122-2.5 2.5-2.5h197.145c1.378 0 2.5 1.121 2.5 2.5v28.891l-47.961 30.704z" fill="#1a1a1a" data-original="#000000" class=""/><path d="m160.591 42.73c-10.087-9.414-23.257-14.068-37.079-13.121-24.348 1.68-43.976 21.307-45.655 45.655-.954 13.824 3.707 26.992 13.121 37.078 9.284 9.947 22.41 15.652 36.012 15.652 4.142 0 7.5-3.357 7.5-7.5s-3.358-7.5-7.5-7.5c-9.598 0-18.493-3.866-25.046-10.888-6.546-7.014-9.786-16.18-9.122-25.811 1.167-16.918 14.804-30.556 31.723-31.723 9.628-.661 18.797 2.575 25.811 9.122 7.021 6.553 10.887 15.448 10.887 25.047v11.458c0 3.012-2.45 5.462-5.461 5.462s-5.461-2.45-5.461-5.462v-25.877c0-4.143-3.358-7.5-7.5-7.5-1.7 0-3.262.572-4.52 1.525-3.353-1.867-7.208-2.934-11.31-2.934-12.864 0-23.33 10.466-23.33 23.33 0 12.863 10.466 23.329 23.33 23.329 3.814 0 7.414-.926 10.596-2.556 3.397 6.607 10.27 11.146 18.196 11.146 11.282 0 20.461-9.179 20.461-20.462v-11.457c-.001-13.602-5.706-26.728-15.653-36.013zm-33.601 44.342c-4.593 0-8.33-3.736-8.33-8.329s3.737-8.33 8.33-8.33 8.33 3.737 8.33 8.33-3.736 8.329-8.33 8.329z" fill="#1a1a1a" data-original="#000000" class=""/><path d="m369.629 164.143c4.142 0 7.5-3.357 7.5-7.5s-3.358-7.5-7.5-7.5h-33.723c-4.142 0-7.5 3.357-7.5 7.5s3.358 7.5 7.5 7.5z" fill="#1a1a1a" data-original="#000000" class=""/><path d="m305.388 164.143c4.142 0 7.5-3.357 7.5-7.5s-3.358-7.5-7.5-7.5h-19.594c-4.142 0-7.5 3.357-7.5 7.5s3.358 7.5 7.5 7.5z" fill="#1a1a1a" data-original="#000000" class=""/><path d="m178.297 183.589c0 4.143 3.358 7.5 7.5 7.5h183.835c4.142 0 7.5-3.357 7.5-7.5s-3.358-7.5-7.5-7.5h-183.835c-4.142 0-7.5 3.358-7.5 7.5z" fill="#1a1a1a" data-original="#000000" class=""/><path d="m369.629 203.035h-83.835c-4.142 0-7.5 3.357-7.5 7.5s3.358 7.5 7.5 7.5h83.835c4.142 0 7.5-3.357 7.5-7.5s-3.358-7.5-7.5-7.5z" fill="#1a1a1a" data-original="#000000" class=""/><path d="m185.797 244.98h183.835c4.142 0 7.5-3.357 7.5-7.5s-3.358-7.5-7.5-7.5h-183.835c-4.142 0-7.5 3.357-7.5 7.5s3.358 7.5 7.5 7.5z" fill="#1a1a1a" data-original="#000000" class=""/></g></g></g></svg>
