<?xml version="1.0"?>
<svg xmlns="http://www.w3.org/2000/svg" xmlns:xlink="http://www.w3.org/1999/xlink" xmlns:svgjs="http://svgjs.com/svgjs" version="1.1" width="512" height="512" x="0" y="0" viewBox="0 0 511.998 511.998" style="enable-background:new 0 0 512 512" xml:space="preserve" class=""><g>
<g xmlns="http://www.w3.org/2000/svg" transform="translate(-1)">
	<path style="" d="M257.007,10.24c-135.716,0-245.75,100.86-245.75,225.271c0,38.419,10.629,74.503,29.183,106.123   c12.165,20.684,13.598,46.017,5.181,68.482L11.257,501.74l120.725-48.269c16.998-6.799,35.675-7.454,53.307-2.498   c22.67,6.369,46.754,9.81,71.718,9.81c135.716,0,245.75-100.86,245.75-225.271S392.723,10.24,257.007,10.24" fill="#60c3a2" data-original="#4cd964" class=""/>
	<path style="opacity:0.24;enable-background:new    ;" d="M491.453,214.028c1.208-12.308,19.148-12.328,20.377-0.02   c0.778,7.762,1.167,14.704,1.167,21.503c0,130.289-114.786,235.511-255.99,235.511c-25.497,0-50.502-3.461-74.483-10.199   c-15.748-4.423-32.091-3.707-46.733,2.15L15.066,511.242c-8.253,3.297-16.506-4.772-13.393-13.107l18.083-48.188   c1.003-2.703,3.113-4.833,5.775-5.918l102.642-41.04c18.902-7.557,39.852-8.478,59.881-2.847c22.179,6.226,45.32,9.42,68.953,9.42   C379.247,409.584,480.599,324.165,491.453,214.028z M31.613,346.815C11.646,312.799,1.017,274.831,1.017,235.511   c0-7.966,0.451-15.912,1.311-23.838c1.352-12.288,19.291-12.103,20.377,0.205c2.662,29.941,11.694,58.284,26.561,83.616   c11.653,19.824,14.479,43.805,8.642,67.069c-2.56,10.199-16.998,10.362-19.803,0.225C36.426,356.645,34.317,351.423,31.613,346.815   z" fill="#112c23" data-original="#000000" class=""/>
	<path d="M11.257,511.98c-2.621,0-5.202-1.024-7.168-2.928c-2.908-2.847-3.85-7.127-2.437-10.915l34.364-91.624   c7.598-20.254,5.98-42.023-4.424-59.717C11.605,312.717,1.017,274.216,1.017,235.511C1.017,105.652,115.844,0,257.007,0   c141.143,0,255.99,105.652,255.99,235.511S398.17,471.021,257.007,471.021c-25.353,0-50.399-3.42-74.483-10.178   c-15.892-4.444-32.07-3.727-46.733,2.13L15.066,511.242C13.837,511.734,12.547,511.98,11.257,511.98z M257.007,20.479   c-129.859,0-235.511,96.457-235.511,215.031c0,35.572,9.339,69.527,27.77,100.942c13.537,23.019,15.708,51.198,5.939,77.268   l-26.213,69.895l99.201-39.668c18.882-7.557,39.607-8.519,59.881-2.847c22.261,6.267,45.464,9.42,68.953,9.42   c129.858,0,235.511-96.457,235.511-215.031C492.518,116.936,386.886,20.479,257.007,20.479z" fill="#112c23" data-original="#000000" class=""/>
	<path d="M277.486,235.511c0,11.325-9.175,20.479-20.479,20.479c-11.305,0-20.479-9.154-20.479-20.479s9.175-20.479,20.479-20.479   C268.312,215.031,277.486,224.186,277.486,235.511" fill="#112c23" data-original="#000000" class=""/>
	<path d="M257.007,266.229c-16.936,0-30.719-13.783-30.719-30.719s13.782-30.719,30.719-30.719   c16.936,0,30.719,13.783,30.719,30.719S273.964,266.229,257.007,266.229z M257.007,225.271c-5.652,0-10.24,4.587-10.24,10.24   s4.587,10.24,10.24,10.24c5.652,0,10.24-4.587,10.24-10.24S262.66,225.271,257.007,225.271z" fill="#112c23" data-original="#000000" class=""/>
	<path d="M175.091,235.511c0,11.325-9.175,20.479-20.479,20.479s-20.479-9.154-20.479-20.479s9.175-20.479,20.479-20.479   S175.091,224.186,175.091,235.511" fill="#112c23" data-original="#000000" class=""/>
	<path d="M154.611,266.229c-16.936,0-30.719-13.783-30.719-30.719s13.782-30.719,30.719-30.719s30.719,13.783,30.719,30.719   S171.568,266.229,154.611,266.229z M154.611,225.271c-5.652,0-10.24,4.587-10.24,10.24s4.587,10.24,10.24,10.24   s10.24-4.587,10.24-10.24S160.264,225.271,154.611,225.271z" fill="#112c23" data-original="#000000" class=""/>
	<path d="M379.882,235.511c0,11.325-9.175,20.479-20.479,20.479s-20.479-9.154-20.479-20.479s9.175-20.479,20.479-20.479   S379.882,224.186,379.882,235.511" fill="#112c23" data-original="#000000" class=""/>
	<path d="M359.403,266.229c-16.936,0-30.719-13.783-30.719-30.719s13.783-30.719,30.719-30.719s30.719,13.783,30.719,30.719   S376.339,266.229,359.403,266.229z M359.403,225.271c-5.632,0-10.24,4.587-10.24,10.24s4.608,10.24,10.24,10.24   s10.24-4.587,10.24-10.24S365.035,225.271,359.403,225.271z" fill="#112c23" data-original="#000000" class=""/>
</g>
<g xmlns="http://www.w3.org/2000/svg">
</g>
<g xmlns="http://www.w3.org/2000/svg">
</g>
<g xmlns="http://www.w3.org/2000/svg">
</g>
<g xmlns="http://www.w3.org/2000/svg">
</g>
<g xmlns="http://www.w3.org/2000/svg">
</g>
<g xmlns="http://www.w3.org/2000/svg">
</g>
<g xmlns="http://www.w3.org/2000/svg">
</g>
<g xmlns="http://www.w3.org/2000/svg">
</g>
<g xmlns="http://www.w3.org/2000/svg">
</g>
<g xmlns="http://www.w3.org/2000/svg">
</g>
<g xmlns="http://www.w3.org/2000/svg">
</g>
<g xmlns="http://www.w3.org/2000/svg">
</g>
<g xmlns="http://www.w3.org/2000/svg">
</g>
<g xmlns="http://www.w3.org/2000/svg">
</g>
<g xmlns="http://www.w3.org/2000/svg">
</g>
</g></svg>
