<?xml version="1.0"?>
<svg xmlns="http://www.w3.org/2000/svg" xmlns:xlink="http://www.w3.org/1999/xlink" xmlns:svgjs="http://svgjs.com/svgjs" version="1.1" width="512" height="512" x="0" y="0" viewBox="0 0 512 512" style="enable-background:new 0 0 512 512" xml:space="preserve" class=""><g><g xmlns="http://www.w3.org/2000/svg"><g><path d="m398.021 368.243h-25.85l-258.197-.01c-5-19-8.22-38.31-2.22-57.31s21-33 31-50c9.93-19.86 13.34-42.97 8.03-64.2h212.437c-5.31 21.23-1.9 44.34 8.03 64.2 10 17 25 31 31 50s.77 38.32-4.23 57.32z" fill="#d9b380" data-original="#cc753a" class=""/><path d="m398.021 368.243h-25.85l1.87-7.12c4.35-16.54 8.11-30.82 4.37-42.67-2.56-8.11-8.35-15.91-15.06-24.94-4.59-6.2-10.16-14.09-14.46-21.41-12.03-24.07-15.95-50.59-11.25-75.38h25.58c-5.31 21.23-1.9 44.34 8.03 64.2 10 17 25 31 31 50s.77 38.32-4.23 57.32z" fill="#f1cc8f" data-original="#c6542c" class=""/></g><g><g><path d="m302.726 347.27.16.65c-2.64 2.27-5.39 4.56-8.25 6.87-10.6 8.62-23.87 13.32-37.54 13.29-13.69.03-26.97-4.68-37.59-13.32-3.02-2.44-5.92-4.86-8.7-7.26 2.46-9.33 3.63-18.94 3.47-28.54-.07-4.62-.44-9.24-1.13-13.83l-2.34-15.67h92.08l-2.38 15.93c-.71 4.73-1.09 9.5-1.14 14.27-.11 9.29 1.01 18.57 3.36 27.61z" fill="#744730" data-original="#ffd6ae" class=""/><path d="m302.886 289.46-2.38 15.93c-.71 4.73-1.09 9.5-1.14 14.27-1.49 1.25-3.02 2.5-4.58 3.76-10.6 8.63-23.87 13.32-37.54 13.3-13.69.02-26.97-4.68-37.59-13.32-1.84-1.49-3.63-2.97-5.38-4.44-.07-4.62-.44-9.24-1.13-13.83l-2.34-15.67z" fill="#744730" data-original="#ffb185" class=""/><path d="m339.318 162.807-82.158-40-82.486 40c2.242 21.848 2.673 49.006 1.264 63.374-.173 1.976-.252 4.04-.252 6.095 0 19.395 16.488 42.569 48.993 68.868 9.13 7.43 20.551 11.477 32.324 11.455 11.76.024 23.167-4.015 32.288-11.431 32.527-26.319 49.014-49.494 49.014-68.89 0-2.056-.079-4.119-.252-6.145-1.407-14.353-.976-41.493 1.265-63.326z" fill="#744730" data-original="#ffd6ae" class=""/><g fill="#ffb185"><path d="m174.969 215.648c-13.637 0-24.739-10.967-24.907-24.603-.17-13.875 11.031-25.214 24.907-25.214z" fill="#744730" data-original="#ffb185" class=""/><path d="m339.019 215.648c13.637 0 24.739-10.967 24.907-24.603.17-13.875-11.031-25.214-24.907-25.214z" fill="#744730" data-original="#ffb185" class=""/></g></g><g><path d="m435.476 504.5h-358.96c-12.64 0-22.56-10.83-21.43-23.41l.67-7.5 3.73-41.71c.19-2.1.47-4.18.84-6.22 4.97-27.72 26.09-50.09 53.96-56.4l96.52-21.85 46.18 22.46 45.9-22.05 51.83 11.73 42.98 9.72c27.7 6.27 48.73 28.4 53.88 55.88.41 2.22.73 4.46.93 6.74l3.67 41.04.73 8.16c1.13 12.58-8.79 23.41-21.43 23.41z" fill="#1c2b4a" data-original="#49525e" class=""/><path d="m456.901 481.09c1.13 12.58-8.79 23.41-21.43 23.41h-30c12.64 0 22.56-10.83 21.43-23.41l-4.4-49.2c-2.73-30.55-12.18-55.04-67.79-72.34l42.98 9.72c29.93 6.77 52.08 32.07 54.81 62.62z" fill="#141e34" data-original="#31353a" class=""/><path d="m278.629 385.481-10.134 25.856h-23.276l-9.877-25.856 21.644-15.612z" fill="#2d4576" data-original="#9ca9b7" class=""/><path d="m293.645 504.503h-73.316l24.89-93.166h23.276z" fill="#243860" data-original="#75818e" class=""/></g><path d="m89.726 432.48-5.4 23.25c-2.93 12.64-27.75 17.69-28.57 17.86l3.73-41.71c.19-2.1.47-4.18.84-6.22z" fill="#d6b85c" data-original="#fff24a" class=""/><path d="m456.176 472.93c-2.93-.62-25.49-5.78-28.28-17.79l-5.39-23.25 29.07-6.74c.41 2.22.73 4.46.93 6.74z" fill="#c49f31" data-original="#ffbe2c" class=""/><path d="m357.496 139.29c0 24.99-45.35 47.44-101.4 47.44-6.15 0-12.16-.27-18.01-.78-47.49-4.17-83.59-24.41-83.59-46.66 0-4.96 1.79-9.79 5.11-14.36h193.39c2.96 4.34 4.5 9.68 4.5 14.36z" fill="#1c2b4a" data-original="#49525e" class=""/><path d="m357.496 139.29c0 24.99-45.35 47.44-101.4 47.44-6.15 0-12.16-.27-18.01-.78 47.46-4.17 83.41-24.41 83.41-46.66 0-4.68-1.54-10.02-4.5-14.36h36c2.96 4.34 4.5 9.68 4.5 14.36z" fill="#141e34" data-original="#31353a" class=""/><path d="m390.306 77.31c0 18.22-14.21 34.67-37.31 47.62h-193.39c-22.27-12.85-35.91-29.8-35.91-47.62 0-34.23 50.31-64.45 115.45-69.22.99-.07 1.98-.14 2.98-.2 4.92-.31 9.93-.46 15-.46 73.62 0 133.18 32.56 133.18 69.88z" fill="#1c2b4a" data-original="#e6f3ff" class=""/><path d="m390.306 77.31c0 18.22-14.21 34.67-37.31 47.62h-36c23.1-12.95 37.31-29.4 37.31-47.62 0-34.22-50.08-64.44-115.16-69.22.99-.07 1.98-.14 2.98-.2 4.92-.31 9.93-.46 15-.46 73.62 0 133.18 32.56 133.18 69.88z" fill="#1c2b4a" data-original="#d6dced" class=""/><path d="m390.306 77.31c0 18.22-14.21 34.67-37.31 47.62h-193.39c-22.27-12.85-35.91-29.8-35.91-47.62z" fill="#2d4576" data-original="#9ca9b7" class=""/><path d="m281.006 53.47v23.87c0 13.18-23.88 23.87-23.88 23.87s-6.01-2.69-12-7.03c-5.95-4.32-11.88-10.27-11.88-16.84v-23.87z" fill="#d6b85c" data-original="#fff24a" class=""/><path d="m281.006 53.47v23.87c0 13.18-23.88 23.87-23.88 23.87s-6.01-2.69-12-7.03c5.95-4.32 11.88-10.27 11.88-16.84v-23.87z" fill="#c49f31" data-original="#ffbe2c" class=""/><g fill="#31353a"><path d="m149.752 345.595-24.232 5.453c-8.135 1.927-13.167 10.081-11.239 18.213s10.086 13.161 18.221 11.233l24.232-5.453c8.135-1.927 13.167-10.081 11.239-18.213-1.928-8.131-10.086-13.161-18.221-11.233z" fill="#141e34" data-original="#31353a" class=""/><path d="m386.447 351.055-24.232-5.453c-8.135-1.927-16.293 3.102-18.221 11.233s3.104 16.285 11.239 18.213l24.232 5.453c8.135 1.927 16.293-3.102 18.221-11.233s-3.104-16.285-11.239-18.213z" fill="#141e34" data-original="#31353a" class=""/></g><path d="m354.306 77.31h36c0 18.22-14.21 34.67-37.31 47.62h-36c23.1-12.95 37.31-29.4 37.31-47.62z" fill="#243860" data-original="#75818e" class=""/></g><g fill="#31353a"><path d="m206.86 383.781c-11.952-11.952-11.952-31.331 0-43.284l6.724-6.724 43.284 43.284-6.724 6.724c-11.953 11.952-31.331 11.952-43.284 0z" fill="#141e34" data-original="#31353a" class=""/><path d="m306.876 383.781c11.952-11.952 11.952-31.331 0-43.284l-6.724-6.724-43.284 43.284 6.724 6.724c11.952 11.952 31.331 11.952 43.284 0z" fill="#141e34" data-original="#31353a" class=""/></g></g><g xmlns="http://www.w3.org/2000/svg"><path d="m464.383 480.432-4.402-49.178c-2.802-31.302-23.792-57.423-53.156-67.157 4.499-17.596 8.39-36.91 2.539-55.436-4.205-13.314-12.21-24.099-19.952-34.528-4.222-5.687-8.212-11.063-11.606-16.797-9.308-18.745-11.973-40.158-7.311-58.792l-.002-.001c.582-2.352.905-4.803.936-7.321.002-.142.002-.284.002-.426.004-8.586-3.308-16.662-9.352-22.782-2.182-2.209-4.624-4.065-7.258-5.54 6.529-7.047 10.177-14.904 10.177-23.182 0-3.821-.752-7.773-2.141-11.486 22.896-14.398 34.944-31.747 34.944-50.468 0-15.79-8.655-30.985-25.03-43.944-3.248-2.568-7.964-2.021-10.536 1.227-2.57 3.248-2.021 7.965 1.227 10.536 7.18 5.682 15.481 14.191 18.323 24.681h-93.274v-16.373c0-4.142-3.358-7.5-7.5-7.5h-47.767c-4.142 0-7.5 3.358-7.5 7.5v16.373h-93.551c8.007-29.973 62.953-54.838 124.931-54.838 29.312 0 58.067 5.467 80.969 15.394 3.8 1.647 8.216-.098 9.864-3.898 1.647-3.801-.098-8.217-3.898-9.864-24.744-10.726-55.618-16.632-86.935-16.632-77.708 0-140.929 34.694-140.929 77.338 0 18.395 11.763 36.022 33.309 50.182-1.664 3.835-2.504 7.773-2.504 11.773 0 8.566 3.914 16.681 10.889 23.914-2.145 1.336-4.149 2.935-5.972 4.78-6.044 6.119-9.356 14.196-9.352 22.781 0 .142.001.284.002.426.031 2.528.356 4.989.943 7.349l-.002.001c4.637 18.535 1.885 39.403-7.749 58.792-3.394 5.734-7.384 11.11-11.606 16.797-7.742 10.429-15.747 21.214-19.952 34.528-5.77 18.272-3.305 37.259 1.022 55.409-29.388 9.722-50.4 35.856-53.203 67.173l-4.403 49.189c-.723 8.079 2.002 16.146 7.478 22.134 5.483 5.996 13.291 9.435 21.42 9.435h87.175c4.142 0 7.5-3.358 7.5-7.5s-3.358-7.5-7.5-7.5h-15.853v-58.537c0-4.142-3.358-7.5-7.5-7.5s-7.5 3.358-7.5 7.5v58.536h-56.322c-3.987 0-7.663-1.619-10.351-4.558-2.68-2.93-3.961-6.721-3.607-10.673l.193-2.152c9.333-2.604 25.829-9.002 28.89-22.187l5.398-23.254c.45-1.938.111-3.975-.941-5.663s-2.732-2.889-4.67-3.339l-22.067-5.118c1.296-4.341 3.043-8.488 5.193-12.385l21.142 5.009c.582.138 1.163.204 1.735.204 3.396 0 6.475-2.323 7.292-5.772.955-4.031-1.538-8.072-5.569-9.027l-14.945-3.541c7.03-7.337 15.858-12.992 25.889-16.284 4.151 6.31 11.279 10.223 18.898 10.222 1.706 0 3.437-.196 5.164-.605l24.315-5.472c5.884-1.394 10.872-4.995 14.047-10.139 1.748-2.833 2.831-5.948 3.218-9.156l14.748-3.338c-.65 10.532 3.04 21.284 11.07 29.314 7.429 7.429 17.187 11.143 26.945 11.143 1.493 0 2.986-.087 4.47-.261l4.518 11.821-22.777 85.211h-16.11c-4.142 0-7.5 3.358-7.5 7.5s3.358 7.5 7.5 7.5h236.88c8.129 0 15.937-3.439 21.42-9.435 5.477-5.987 8.203-14.055 7.48-22.133zm-387.354-26.395c-.617 2.659-4.664 5.816-10.824 8.446-.669.285-1.336.554-1.994.805l2.546-28.439 13.974 3.241zm368.145-19.961 2.572 28.733c-6.455-2.452-12.485-5.964-13.292-9.441l-3.702-15.947zm-54.777-66.473c-.97 4.095-5.094 6.638-9.277 5.646l-24.149-5.434c-1.985-.471-3.669-1.685-4.74-3.42-1.07-1.734-1.4-3.782-.93-5.764.829-3.497 3.957-5.86 7.456-5.86.6 0 1.209.069 1.821.214l24.15 5.434c1.985.471 3.668 1.685 4.739 3.42 1.07 1.734 1.4 3.781.93 5.764zm-13.029-84.53c7.326 9.87 14.246 19.192 17.692 30.104 3.36 10.642 2.576 22.119.329 33.74-2.188-1.431-4.641-2.488-7.287-3.114l-24.149-5.434c-9.714-2.301-19.479 2.06-24.472 10.112l-20.861-4.717c-1.691-3.076-3.838-5.967-6.442-8.571l-4.858-4.858c-.319-3.276-.471-6.563-.457-9.85.021-4.67.377-9.339 1.069-13.967l1.98-13.254c9.23-8.612 16.654-16.865 22.301-24.805 9.109-12.8 13.597-24.785 13.597-36.144v-.015c0-2.336-.094-4.619-.288-6.877-.087-.888-.167-1.829-.239-2.816 2.787-.552 5.45-1.466 7.937-2.689.366 14.959 4.176 30.137 11.284 44.354.076.152.157.302.244.449 3.828 6.508 8.298 12.529 12.62 18.352zm-75.795 95.405c-9.009 9.009-23.668 9.01-32.677 0l-1.421-1.421 32.677-32.677 1.421 1.421c9.008 9.009 9.008 23.667 0 32.677zm-44.705-12.028-35.537-35.537c.324-3.541.48-7.092.468-10.643-.014-4.139-.256-8.278-.727-12.396 10.226 7.91 22.89 12.248 35.81 12.247h.228c12.802 0 25.33-4.244 35.479-11.98-.466 4.081-.708 8.183-.725 12.286-.016 3.528.135 7.057.452 10.575zm-93.1-234.015h184.8c.918 2.214 1.432 4.616 1.432 6.857 0 18.852-40.159 39.937-93.905 39.937-25.744 0-50.107-4.837-68.601-13.621-15.964-7.582-25.494-17.42-25.494-26.316 0-2.246.593-4.542 1.768-6.857zm19.638 94.519c.568-5.784.845-13.391.847-21.797.002-7.869-.236-16.438-.702-24.868 19.293 8.666 44.719 13.94 72.544 13.94 28.744 0 54.923-5.647 74.406-14.857-.5 8.717-.756 17.613-.754 25.748.001 8.38.275 15.954.839 21.692.149 1.738.224 3.586.225 5.492-.001 8.334-3.945 17.907-11.621 28.431-7.78 10.662-19.394 22.301-34.624 34.618-7.736 6.288-17.482 9.747-27.484 9.747h-.17c-9.988 0-19.749-3.467-27.512-9.781-15.199-12.291-26.794-23.909-34.569-34.555-7.688-10.534-11.64-20.117-11.641-28.46 0-1.912.075-3.738.216-5.35zm173.025-35.951c-.092 7.475-4.965 13.852-11.671 16.216-.004-.646-.006-1.297-.006-1.955-.002-9.591.366-20.363 1.074-30.464 2.065.876 3.959 2.157 5.585 3.803 3.238 3.278 5.015 7.602 5.019 12.198 0 .067 0 .134-.001.202zm-198.865-.23c.004-4.596 1.781-8.92 5.019-12.198 1.626-1.646 3.52-2.927 5.585-3.803.709 10.115 1.078 20.907 1.075 30.527 0 .636-.002 1.267-.006 1.893-6.706-2.363-11.581-8.74-11.672-16.216-.001-.068-.001-.136-.001-.203zm83.181-129.808h32.767v16.373c0 2.727-3.237 6.717-8.66 10.675-2.802 2.044-5.655 3.703-7.723 4.811-2.069-1.109-4.922-2.767-7.723-4.811-5.423-3.958-8.66-7.948-8.66-10.675v-16.373zm-108.508 23.873h95.026c5.289 12.968 22.799 21.427 26.801 23.218.975.436 2.019.654 3.063.654s2.089-.218 3.063-.654c4.002-1.791 21.512-10.251 26.801-23.218h94.743c-3.251 11.497-13.865 22.821-30.721 32.597h-189.366c-15.921-9.552-26.235-21.069-29.41-32.597zm27.516 279.549c-1.071 1.735-2.754 2.95-4.657 3.401l-24.315 5.472c-4.098.969-8.223-1.571-9.194-5.666-.47-1.982-.14-4.029.93-5.764 1.071-1.735 2.754-2.95 4.657-3.401l24.315-5.472c.59-.14 1.181-.207 1.763-.207 3.458 0 6.6 2.367 7.431 5.872.471 1.984.141 4.031-.93 5.765zm12.745-15.925c-4.991-8.045-14.737-12.405-24.384-10.119l-24.314 5.472c-2.429.575-4.706 1.528-6.766 2.809-1.733-11.449-1.88-22.84 1.469-33.446 3.446-10.912 10.366-20.234 17.692-30.104 4.323-5.823 8.792-11.844 12.62-18.352.086-.147.168-.296.244-.449 7.201-14.402 11.115-29.605 11.593-44.443 2.524 1.255 5.231 2.19 8.067 2.751-.075 1.042-.159 2.034-.25 2.969-.186 2.127-.28 4.398-.28 6.749v.015c0 11.376 4.501 23.378 13.632 36.196.002.003.005.006.007.01.001.001.002.003.003.004 5.57 7.82 12.864 15.943 21.908 24.413l1.99 13.321c.655 4.384 1.009 8.802 1.063 13.223.043 3.659-.12 7.321-.489 10.967l-4.746 4.746c-2.468 2.468-4.525 5.193-6.173 8.089zm39.663 30.016c-9.009-9.009-9.009-23.668 0-32.677l1.421-1.421 32.677 32.677-1.421 1.421c-9.008 9.008-23.668 9.008-32.677 0zm43.284 10.606 1.421-1.421 1.421 1.421c2.59 2.59 5.463 4.728 8.52 6.415l-3.286 8.379h-12.999l-3.272-8.562c2.936-1.657 5.698-3.735 8.195-6.232zm-25.207 107.916 20.881-78.122h11.774l21.099 78.122zm215.595-4.558c-2.688 2.939-6.364 4.558-10.351 4.558h-56.322v-58.537c0-4.142-3.358-7.5-7.5-7.5s-7.5 3.358-7.5 7.5v58.537h-64.631l-23.007-85.188 4.628-11.802c1.356.145 2.719.217 4.081.217 9.757 0 19.517-3.715 26.945-11.143 7.922-7.922 11.619-18.494 11.093-28.889l12.977 2.934c.389 3.204 1.471 6.314 3.217 9.143 3.175 5.145 8.163 8.746 14.129 10.158l24.149 5.434c1.749.415 3.499.613 5.222.613 7.648 0 14.774-3.909 18.923-10.212 9.737 3.193 18.342 8.612 25.269 15.635l-14.83 3.513c-4.031.955-6.524 4.996-5.569 9.027.817 3.449 3.895 5.772 7.292 5.772.572 0 1.154-.066 1.735-.204l21.263-5.038c2.206 3.879 4.009 8.014 5.361 12.346l-22.357 5.185c-1.938.45-3.618 1.65-4.67 3.339s-1.391 3.726-.941 5.663l5.398 23.254c3.113 13.41 20.122 19.798 29.36 22.317l.241 2.692c.356 3.955-.925 7.746-3.605 10.676z" fill="#000000" data-original="#000000" class=""/><path d="m340.625 430.963h-28.654c-4.142 0-7.5 3.358-7.5 7.5s3.358 7.5 7.5 7.5h28.654c4.142 0 7.5-3.358 7.5-7.5s-3.358-7.5-7.5-7.5z" fill="#000000" data-original="#000000" class=""/><path d="m209.789 438.463c0-4.142-3.358-7.5-7.5-7.5h-28.654c-4.142 0-7.5 3.358-7.5 7.5s3.358 7.5 7.5 7.5h28.654c4.142 0 7.5-3.358 7.5-7.5z" fill="#000000" data-original="#000000" class=""/><path d="m236.814 271.861h40.372c4.142 0 7.5-3.358 7.5-7.5s-3.358-7.5-7.5-7.5h-40.372c-4.142 0-7.5 3.358-7.5 7.5s3.358 7.5 7.5 7.5z" fill="#000000" data-original="#000000" class=""/></g></g></svg>
