<?xml version="1.0"?>
<svg xmlns="http://www.w3.org/2000/svg" xmlns:xlink="http://www.w3.org/1999/xlink" xmlns:svgjs="http://svgjs.com/svgjs" version="1.1" width="512" height="512" x="0" y="0" viewBox="0 0 64 64" style="enable-background:new 0 0 512 512" xml:space="preserve" class=""><g><g xmlns="http://www.w3.org/2000/svg"><path d="m59.2 54.818c1.105-.932 1.8-2.314 1.8-3.818v-8c0-3.262-1.577-6.154-4-7.981v-22.019h-16v-8h-4v-2h-2v2h-2v-4h-2v4h-2v-2h-2v2h-4v8h-16v22.019c-2.423 1.827-4 4.719-4 7.981v13.452c-1.257 1.516-2 3.455-2 5.548v1h61.998l.002-.999c.005-2.947-1.47-5.604-3.8-7.183zm-.2-11.818v8c0 1.23-.767 2.328-1.891 2.778-.22-.074-.444-.142-.672-.199l-1.612-.403-.231-.922c1.436-.88 2.406-2.45 2.406-4.254v-6h-1c-1.543 0-2.976-.767-3.832-2.051l-.168-.252v-2.697h-2v2.697l-.168.252c-.856 1.284-2.289 2.051-3.832 2.051h-1v6c0 1.804.97 3.374 2.406 4.253l-.231.921-1.601.398c-.233.058-.462.127-.688.203-1.12-.45-1.886-1.547-1.886-2.775v-8c0-4.411 3.589-8 8-8s8 3.589 8 8zm-19-2.246c0 .258-.04.509-.074.762-.574-.319-1.224-.516-1.926-.516h-1-.172c-1.557 0-3.021-.606-4.121-1.707l-.707-.708-.707.708c-1.101 1.101-2.564 1.707-4.121 1.707h-.172-1c-.702 0-1.352.197-1.926.516-.034-.253-.074-.504-.074-.762 0-3.173 2.581-5.754 5.754-5.754h4.492c3.173 0 5.754 2.581 5.754 5.754zm1.501 15.15c-1.088-1.103-2.475-1.926-4.064-2.324l-1.612-.403-.231-.922c1.164-.713 2.024-1.874 2.305-3.254h.101c1.201 0 2.266-.542 3-1.382v3.381c0 1.503.695 2.884 1.799 3.817-.467.317-.9.683-1.298 1.087zm-18.501-.473v-7.813c.734.84 1.799 1.382 3 1.382h.101c.281 1.38 1.141 2.541 2.305 3.253l-.231.921-1.601.398c-1.358.339-2.569.99-3.574 1.859zm3-8.431c-1.103 0-2-.897-2-2s.897-2 2-2zm7 4h-2c-1.654 0-3-1.346-3-3v-5.043c1.466-.153 2.844-.712 4-1.622 1.156.91 2.534 1.468 4 1.622v5.043c0 1.654-1.346 3-3 3zm-2.702 1.929c.232.033.462.071.702.071h2c.24 0 .47-.038.702-.071l.213.851-1.915 2.553-1.915-2.553zm7.702-9.929c1.103 0 2 .897 2 2s-.897 2-2 2zm-10.942 12.514 1.54-.383 3.402 4.536 3.401-4.535 1.549.388c2.649.663 4.575 2.847 4.967 5.48h-19.834c.391-2.639 2.321-4.827 4.975-5.486zm15.694 2c.884-.97 2.025-1.682 3.305-2.001l.968-.241c.093 2.067.73 4.035 1.864 5.727h-4.952c-.143-1.256-.554-2.439-1.185-3.485zm8.248-15.803c1.029 1.194 2.446 1.977 4 2.213v4.076c0 1.654-1.346 3-3 3h-2c-1.654 0-3-1.346-3-3v-4.076c1.554-.236 2.971-1.019 4-2.213zm-1 11.289h2c.24 0 .47-.038.702-.071l.298 1.192v.636c0 .082-.01.161-.012.243h-3.976c-.002-.081-.012-.161-.012-.243v-.635l.298-1.193c.232.033.462.071.702.071zm-.716 4h3.432c-.315 1.27-.893 2.457-1.716 3.492-.823-1.035-1.401-2.222-1.716-3.492zm5.716-23.159c-1.226-.538-2.578-.841-4-.841-4.117 0-7.659 2.503-9.191 6.065-.57-2.555-2.404-4.633-4.809-5.551v-18.514h18zm-20-20.841v20.038c-.248-.024-.499-.038-.754-.038h-4.492c-1.792 0-3.439.617-4.754 1.642v-23.642h14v2zm4-6v2h-14v-2zm-30 8h14v21.958c-.367.651-.642 1.358-.809 2.107-1.532-3.563-5.074-6.065-9.191-6.065-1.422 0-2.774.303-4 .841zm4 20c4.411 0 8 3.589 8 8v11.693c-.786-.503-1.649-.885-2.563-1.114l-1.612-.403-.231-.922c1.436-.88 2.406-2.45 2.406-4.254v-6h-3.44c-1.268 0-2.444-.63-3.147-1.685-.55-.823-1.469-1.315-2.459-1.315-1.629 0-2.954 1.324-2.954 2.952v6.048c0 1.804.97 3.374 2.406 4.253l-.231.921-1.601.398c-.933.233-1.797.614-2.574 1.109v-11.681c0-4.411 3.589-8 8-8zm1 16h-2c-1.654 0-3-1.346-3-3v-6.048c0-.525.428-.952.954-.952.319 0 .616.159.794.425 1.074 1.612 2.873 2.575 4.812 2.575h1.44v4c0 1.654-1.346 3-3 3zm-2.702 1.929c.232.033.462.071.702.071h2c.24 0 .47-.038.702-.071l.29 1.157c-.047 1.063-.919 1.914-1.992 1.914s-1.945-.851-1.991-1.913zm-3.24 2.585 1.155-.287c.521 1.603 2.011 2.773 3.787 2.773 1.775 0 3.265-1.169 3.787-2.772l1.163.292c1.276.319 2.414 1.03 3.295 1.998-.627 1.044-1.038 2.225-1.182 3.483h-16.991c.39-2.642 2.331-4.827 4.986-5.487zm45.053 5.486c1.134-1.691 1.77-3.659 1.864-5.725l.975.244c2.65.664 4.586 2.846 4.978 5.48h-7.817z" fill="#2d4576" data-original="#000000" style="" class=""/><path d="m27 13h2v2h-2z" fill="#2d4576" data-original="#000000" style="" class=""/><path d="m31 13h2v2h-2z" fill="#2d4576" data-original="#000000" style="" class=""/><path d="m27 17h2v2h-2z" fill="#2d4576" data-original="#000000" style="" class=""/><path d="m31 17h2v2h-2z" fill="#2d4576" data-original="#000000" style="" class=""/><path d="m31 21h2v2h-2z" fill="#2d4576" data-original="#000000" style="" class=""/><path d="m27 21h2v2h-2z" fill="#2d4576" data-original="#000000" style="" class=""/><path d="m27 25h2v2h-2z" fill="#2d4576" data-original="#000000" style="" class=""/><path d="m31 25h2v2h-2z" fill="#2d4576" data-original="#000000" style="" class=""/><path d="m31 29h2v2h-2z" fill="#2d4576" data-original="#000000" style="" class=""/><path d="m27 29h2v2h-2z" fill="#2d4576" data-original="#000000" style="" class=""/><path d="m39 17h2v2h-2z" fill="#2d4576" data-original="#000000" style="" class=""/><path d="m39 25h2v2h-2z" fill="#2d4576" data-original="#000000" style="" class=""/><path d="m39 21h2v2h-2z" fill="#2d4576" data-original="#000000" style="" class=""/><path d="m39 29h2v2h-2z" fill="#2d4576" data-original="#000000" style="" class=""/><path d="m43 17h2v2h-2z" fill="#2d4576" data-original="#000000" style="" class=""/><path d="m43 29h2v2h-2z" fill="#2d4576" data-original="#000000" style="" class=""/><path d="m43 25h2v2h-2z" fill="#2d4576" data-original="#000000" style="" class=""/><path d="m43 21h2v2h-2z" fill="#2d4576" data-original="#000000" style="" class=""/><path d="m47 17h2v2h-2z" fill="#2d4576" data-original="#000000" style="" class=""/><path d="m47 21h2v2h-2z" fill="#2d4576" data-original="#000000" style="" class=""/><path d="m47 25h2v2h-2z" fill="#2d4576" data-original="#000000" style="" class=""/><path d="m47 29h2v2h-2z" fill="#2d4576" data-original="#000000" style="" class=""/><path d="m51 17h2v2h-2z" fill="#2d4576" data-original="#000000" style="" class=""/><path d="m51 25h2v2h-2z" fill="#2d4576" data-original="#000000" style="" class=""/><path d="m51 21h2v2h-2z" fill="#2d4576" data-original="#000000" style="" class=""/><path d="m51 29h2v2h-2z" fill="#2d4576" data-original="#000000" style="" class=""/><path d="m11 29h2v2h-2z" fill="#2d4576" data-original="#000000" style="" class=""/><path d="m11 21h2v2h-2z" fill="#2d4576" data-original="#000000" style="" class=""/><path d="m11 17h2v2h-2z" fill="#2d4576" data-original="#000000" style="" class=""/><path d="m11 25h2v2h-2z" fill="#2d4576" data-original="#000000" style="" class=""/><path d="m15 29h2v2h-2z" fill="#2d4576" data-original="#000000" style="" class=""/><path d="m15 25h2v2h-2z" fill="#2d4576" data-original="#000000" style="" class=""/><path d="m15 21h2v2h-2z" fill="#2d4576" data-original="#000000" style="" class=""/><path d="m15 17h2v2h-2z" fill="#2d4576" data-original="#000000" style="" class=""/><path d="m19 25h2v2h-2z" fill="#2d4576" data-original="#000000" style="" class=""/><path d="m19 29h2v2h-2z" fill="#2d4576" data-original="#000000" style="" class=""/><path d="m19 21h2v2h-2z" fill="#2d4576" data-original="#000000" style="" class=""/><path d="m19 17h2v2h-2z" fill="#2d4576" data-original="#000000" style="" class=""/></g></g></svg>
