<?xml version="1.0"?>
<svg xmlns="http://www.w3.org/2000/svg" xmlns:xlink="http://www.w3.org/1999/xlink" xmlns:svgjs="http://svgjs.com/svgjs" version="1.1" width="512" height="512" x="0" y="0" viewBox="0 0 64 64" style="enable-background:new 0 0 512 512" xml:space="preserve" class=""><g><path xmlns="http://www.w3.org/2000/svg" d="m56 62h-44v-60l4 6 6-6 6 6 6-6 6 6 5.999-6 6.001 6 4-6z" fill="#e4e5e7" data-original="#e2e7f6" class=""/><path xmlns="http://www.w3.org/2000/svg" d="m33 24v1h2v-1a3 3 0 0 0 3-3v-1a3 3 0 0 0 -3-3v-3a1 1 0 0 1 1 1v1h2v-1a3 3 0 0 0 -3-3v-1h-2v1a3 3 0 0 0 -3 3v1a3 3 0 0 0 3 3v3a1 1 0 0 1 -1-1v-1h-2v1a3 3 0 0 0 3 3zm-1-8v-1a1 1 0 0 1 1-1v3a1 1 0 0 1 -1-1zm3 3a1 1 0 0 1 1 1v1a1 1 0 0 1 -1 1z" fill="#3fa684" data-original="#7bdf45" class=""/><g xmlns="http://www.w3.org/2000/svg" fill="#b5b5b5"><path d="m16.999 27h24.999v2h-24.999z" fill="#b5b5b5" data-original="#b5b5b5" class=""/><path d="m16.999 31h20.999v2h-20.999z" fill="#b5b5b5" data-original="#b5b5b5" class=""/><path d="m16.999 35h16.999v2h-16.999z" fill="#b5b5b5" data-original="#b5b5b5" class=""/></g><path xmlns="http://www.w3.org/2000/svg" d="m22 55c0 1.657-4.477 3-10 3s-10-1.343-10-3v4c0 1.657 4.477 3 10 3s10-1.343 10-3z" fill="#d6b85c" data-original="#f9d266" class=""/><path xmlns="http://www.w3.org/2000/svg" d="m22 47c0 1.657-4.477 3-10 3s-10-1.343-10-3v4c0 1.657 4.477 3 10 3s10-1.343 10-3z" fill="#d6b85c" data-original="#f9d266" class=""/><path xmlns="http://www.w3.org/2000/svg" d="m22 43c0 1.657-4.477 3-10 3s-10-1.343-10-3v4c0 1.657 4.477 3 10 3s10-1.343 10-3z" fill="#c49f31" data-original="#f0ae42" class=""/><path xmlns="http://www.w3.org/2000/svg" d="m22 51c0 1.657-4.477 3-10 3s-10-1.343-10-3v4c0 1.657 4.477 3 10 3s10-1.343 10-3z" fill="#c49f31" data-original="#f0ae42" class=""/><path xmlns="http://www.w3.org/2000/svg" d="m49.707 21.707 11.586 11.586a2.414 2.414 0 0 1 .707 1.707 2.414 2.414 0 0 1 -.707 1.707l-20.586 20.586a2.414 2.414 0 0 1 -1.707.707 2.414 2.414 0 0 1 -1.707-.707l-11.586-11.586a2.414 2.414 0 0 1 -.707-1.707 2.414 2.414 0 0 1 .707-1.707l20.586-20.586a2.414 2.414 0 0 1 1.707-.707 2.414 2.414 0 0 1 1.707.707z" fill="#3fa684" data-original="#6bc13b" class=""/><path xmlns="http://www.w3.org/2000/svg" d="m29.5 49.5 24-24-2.5-2.5-24 24z" fill="#c1c1c1" data-original="#c1c1c1" class=""/><circle xmlns="http://www.w3.org/2000/svg" cx="55" cy="35" fill="#c49f31" r="2" data-original="#fad85d" class=""/><path xmlns="http://www.w3.org/2000/svg" d="m38.377 51.499h4.243v2.001h-4.243z" fill="#f2f2f2" transform="matrix(.707 -.707 .707 .707 -25.262 44.025)" data-original="#f2f2f2" class=""/><path xmlns="http://www.w3.org/2000/svg" d="m43.377 46.499h4.243v2.001h-4.243z" fill="#f2f2f2" transform="matrix(.707 -.707 .707 .707 -20.261 46.096)" data-original="#f2f2f2" class=""/><ellipse xmlns="http://www.w3.org/2000/svg" cx="12" cy="43" fill="#d6b85c" rx="10" ry="3" data-original="#f9d266" class=""/><path xmlns="http://www.w3.org/2000/svg" d="m33 24v1h2v-1a3 3 0 0 0 3-3v-1a3 3 0 0 0 -3-3v-3a1 1 0 0 1 1 1v1h2v-1a3 3 0 0 0 -3-3v-1h-2v1a3 3 0 0 0 -3 3v1a3 3 0 0 0 3 3v3a1 1 0 0 1 -1-1v-1h-2v1a3 3 0 0 0 3 3zm-1-8v-1a1 1 0 0 1 1-1v3a1 1 0 0 1 -1-1zm3 3a1 1 0 0 1 1 1v1a1 1 0 0 1 -1 1z" fill="#383838" data-original="#000000" class=""/><path xmlns="http://www.w3.org/2000/svg" d="m63 35a3.389 3.389 0 0 0 -1-2.415l-5-5v-25.585a1 1 0 0 0 -1.832-.556l-3.324 4.986-5.144-5.138a1.029 1.029 0 0 0 -1.414 0l-5.286 5.293-5.293-5.293a1 1 0 0 0 -1.415 0l-5.292 5.293-5.293-5.293a1 1 0 0 0 -1.415 0l-5.137 5.138-3.323-4.986a1 1 0 0 0 -1.832.556v37.014c-4.991.148-10 1.409-10 3.986v4 4 4 4c0 2.749 5.7 4 11 4h44a1 1 0 0 0 1-1v-19.586l5-5a3.389 3.389 0 0 0 1-2.414zm-51 6c5.8 0 8.794 1.434 9 2-.2.565-3.2 2-9 2-5.84 0-8.837-1.454-9-1.981v-.007c.163-.559 3.161-2.012 9-2.012zm-9 12.427c2.128 1.067 5.642 1.573 9 1.573s6.873-.505 9-1.573v1.558c-.152.555-3.15 2.015-9 2.015s-8.85-1.46-9-2zm0-4c2.128 1.067 5.642 1.573 9 1.573s6.873-.505 9-1.573v1.558c-.152.555-3.15 2.015-9 2.015s-8.85-1.46-9-2zm18-4v1.558c-.152.555-3.15 2.015-9 2.015s-8.85-1.46-9-2v-1.573c2.128 1.067 5.642 1.573 9 1.573s6.873-.506 9-1.574zm-18 13.573v-1.573c2.128 1.067 5.642 1.573 9 1.573s6.873-.505 9-1.573v1.558c-.152.555-3.15 2.015-9 2.015s-8.85-1.461-9-2zm52 2h-33.279a2.484 2.484 0 0 0 1.279-2v-4-4-4-4c0-2.577-5.009-3.838-10-3.986v-33.714l2.167 3.252a1.006 1.006 0 0 0 .734.441 1 1 0 0 0 .806-.288l5.293-5.291 5.292 5.293a1 1 0 0 0 1.415 0l5.293-5.293 5.292 5.293a1.028 1.028 0 0 0 1.415 0l5.293-5.293 5.3 5.293a1 1 0 0 0 1.539-.153l2.161-3.254v20.285l-4.586-4.585a3.5 3.5 0 0 0 -4.83 0l-6 6h-22.584v2h20.585l-2 2h-18.585v2h16.585l-2 2h-14.585v2h12.585l-4.585 4.585a3.417 3.417 0 0 0 0 4.829l11.584 11.586a3.419 3.419 0 0 0 4.83 0l13.586-13.586zm-8-38.586a1.4 1.4 0 0 1 1-.414 1.421 1.421 0 0 1 1 .414l.585.586-22.585 22.585-.586-.585a1.415 1.415 0 0 1 0-2zm-18.586 24.586 22.586-22.586 1.084 1.086-22.584 22.585zm32.17-11-20.584 20.585a1.448 1.448 0 0 1 -2 0l-7.086-7.085 22.586-22.586 7.084 7.086a1.412 1.412 0 0 1 0 2z" fill="#383838" data-original="#000000" class=""/><path xmlns="http://www.w3.org/2000/svg" d="m55 32a3 3 0 1 0 3 3 3 3 0 0 0 -3-3zm0 4a1 1 0 1 1 1-1 1 1 0 0 1 -1 1z" fill="#383838" data-original="#000000" class=""/><path xmlns="http://www.w3.org/2000/svg" d="m38.378 51.499h4.243v2.001h-4.243z" transform="matrix(.707 -.707 .707 .707 -25.262 44.026)" fill="#383838" data-original="#000000" class=""/><path xmlns="http://www.w3.org/2000/svg" d="m43.378 46.499h4.243v2.001h-4.243z" transform="matrix(.707 -.707 .707 .707 -20.261 46.097)" fill="#383838" data-original="#000000" class=""/></g></svg>
