<?xml version="1.0"?>
<svg xmlns="http://www.w3.org/2000/svg" xmlns:xlink="http://www.w3.org/1999/xlink" xmlns:svgjs="http://svgjs.com/svgjs" version="1.1" width="512" height="512" x="0" y="0" viewBox="0 0 512 512" style="enable-background:new 0 0 512 512" xml:space="preserve" class=""><g><g xmlns="http://www.w3.org/2000/svg"><path d="m452.402 226.533-17.071-28.665c-4.8-8.06-7.337-17.281-7.337-26.665 0-14.244 5.931-28.031 16.271-37.826l9.153-8.671c14.134-13.388 16.702-34.96 6.105-51.292l-35.646-54.94c-11.479-17.691-34.182-23.577-52.807-13.685l-22.12 11.744c-18.536 9.84-40.869 10.244-59.745 1.084l-15.578-7.56c-11.205-5.435-24.055-5.435-35.256.002l-15.572 7.556c-18.88 9.161-41.217 8.755-59.749-1.088l-22.116-11.744c-18.629-9.893-41.333-4.01-52.813 13.685l-35.646 54.946c-10.595 16.334-8.026 37.905 6.109 51.293l9.146 8.662c10.343 9.796 16.275 23.584 16.275 37.83 0 9.381-2.537 18.599-7.336 26.66l-17.071 28.665c-14.763 24.789-22.567 53.147-22.567 82.007 0 88.368 71.897 160.261 160.271 160.261 6.584 0 12.859 2.832 17.215 7.77l24.494 27.771c4.3 4.872 10.492 7.667 16.989 7.667 6.498 0 12.69-2.795 16.988-7.668l24.492-27.768c4.356-4.938 10.633-7.77 17.226-7.77 42.807 0 83.051-16.67 113.319-46.936 30.272-30.27 46.943-70.516 46.943-113.325 0-28.856-7.804-57.211-22.566-82zm-34.984 184.718c-27.435 27.435-63.912 42.544-102.722 42.544-10.887 0-21.262 4.682-28.465 12.848l-24.493 27.768c-3 3.402-8.477 3.401-11.477 0l-24.494-27.77c-7.202-8.166-17.577-12.848-28.464-12.848-80.103 0-145.271-65.163-145.271-145.261 0-26.159 7.073-51.862 20.455-74.332l17.071-28.666c6.181-10.381 9.448-22.253 9.448-34.334 0-18.347-7.64-36.105-20.961-48.72l-9.146-8.662c-8.884-8.415-10.499-21.973-3.84-32.238l35.646-54.946c4.856-7.485 12.907-11.607 21.223-11.607 4.04 0 8.143.973 11.971 3.006l22.115 11.744c22.747 12.079 50.161 12.58 73.334 1.335l15.573-7.557c7.039-3.418 15.117-3.418 22.159-.001l15.577 7.559c23.168 11.243 50.581 10.746 73.326-1.33l22.12-11.744c11.707-6.216 25.977-2.518 33.192 8.601l35.646 54.94c6.661 10.265 5.047 23.823-3.837 32.238l-9.154 8.671c-13.317 12.615-20.955 30.371-20.955 48.716 0 12.085 3.267 23.959 9.448 34.34l17.072 28.666c13.381 22.467 20.454 48.169 20.454 74.323-.001 38.801-15.112 75.281-42.551 102.717-27.435 27.434 27.439-27.436 0 0z" fill="#2d4576" data-original="#000000" style=""/><path d="m426.364 242.039-17.071-28.665c-7.592-12.749-11.604-27.329-11.604-42.166 0-22.532 9.38-44.34 25.735-59.832l9.157-8.673c3.522-3.34 4.163-8.72 1.521-12.795l-35.65-54.945c-2.865-4.407-8.526-5.873-13.172-3.409l-22.12 11.744c-27.045 14.357-59.639 14.95-87.187 1.582l-15.57-7.555c-2.8-1.362-6.011-1.363-8.802-.003l-15.572 7.556c-27.552 13.369-60.147 12.776-87.193-1.586l-22.116-11.745c-4.571-2.426-10.362-.914-13.175 3.415l-35.646 54.945c-2.644 4.077-2.002 9.459 1.524 12.797l9.146 8.662c16.359 15.493 25.742 37.301 25.742 59.833 0 14.837-4.013 29.417-11.603 42.164l-17.072 28.667c-11.971 20.102-18.299 43.095-18.299 66.493 0 71.662 58.298 129.965 129.957 129.965 15.284 0 29.846 6.571 39.952 18.028l13.13 14.886c2.94 3.334 8.309 3.335 11.248 0l13.131-14.884c10.105-11.458 24.662-18.029 39.952-18.029 34.712 0 67.346-13.517 91.89-38.061 24.547-24.546 38.065-57.182 38.065-91.896.001-23.398-6.327-46.392-18.298-66.493zm-18.561 133.964h-221.801c-4.142 0-7.5 3.357-7.5 7.5 0 4.142 3.358 7.5 7.5 7.5h208.779c-21.57 20.959-49.934 32.487-80.086 32.487-19.581 0-38.238 8.422-51.189 23.107l-7.505 8.508-7.506-8.51c-12.951-14.684-31.613-23.106-51.2-23.106-31.065 0-59.286-12.392-79.995-32.486h33.703c4.142 0 7.5-3.357 7.5-7.5 0-4.142-3.358-7.5-7.5-7.5h-46.719c-13.795-18.965-21.947-42.286-21.947-67.48 0-9.313 1.143-18.551 3.354-27.518h258.123c4.142 0 7.5-3.357 7.5-7.5s-3.357-7.5-7.5-7.5h-253.31c2.235-5.616 4.905-11.071 8.02-16.3l17.072-28.668c8.973-15.067 13.715-32.301 13.715-49.839 0-26.634-11.091-52.412-30.427-70.724l-6.17-5.844 30.958-47.72 18.13 9.629c31.259 16.598 68.931 17.284 100.777 1.832l13.421-6.511 13.425 6.514c31.838 15.451 69.51 14.768 100.769-1.828l18.134-9.628 30.958 47.716-6.179 5.851c-19.332 18.312-30.419 44.09-30.419 70.722 0 17.538 4.743 34.772 13.715 49.84l17.072 28.667c3.112 5.227 5.781 10.679 8.016 16.292h-42.679c-4.142 0-7.5 3.357-7.5 7.5s3.357 7.5 7.5 7.5h47.493c2.213 8.97 3.357 18.21 3.357 27.527.001 24.578-7.667 47.975-21.859 67.47z" fill="#2d4576" data-original="#000000" style=""/><path d="m259.577 346.215c-3.33.019-6.839.032-9.794.038v-42.001c0-4.142-3.358-7.5-7.5-7.5s-7.5 3.357-7.5 7.5v49.463c0 3.653 2.633 6.775 6.234 7.392.538.092.894.153 6.442.153 2.667 0 6.536-.015 12.201-.046 4.142-.023 7.481-3.399 7.458-7.542-.022-4.142-3.413-7.462-7.541-7.457z" fill="#2d4576" data-original="#000000" style=""/><path d="m285.871 296.752c-4.142 0-7.5 3.357-7.5 7.5v49.505c0 4.142 3.357 7.5 7.5 7.5s7.5-3.357 7.5-7.5v-49.505c-.001-4.142-3.358-7.5-7.5-7.5z" fill="#2d4576" data-original="#000000" style=""/><path d="m399.482 346.031h-13.17v-9.527h11.645c4.142 0 7.5-3.357 7.5-7.5 0-4.142-3.357-7.5-7.5-7.5h-11.645v-9.527h13.17c4.142 0 7.5-3.357 7.5-7.5s-3.357-7.5-7.5-7.5h-20.669c-4.142 0-7.5 3.357-7.5 7.5v49.053c0 4.142 3.357 7.5 7.5 7.5h20.669c4.142 0 7.5-3.357 7.5-7.5 0-4.141-3.357-7.499-7.5-7.499z" fill="#2d4576" data-original="#000000" style=""/><path d="m357.505 341.021c-3.176-2.659-7.905-2.242-10.566.932-.387.462-.807.895-1.248 1.289-2.247 2.001-5.139 3.016-8.596 3.016-9.513 0-17.253-7.739-17.253-17.253 0-9.513 7.739-17.253 17.253-17.253 3.458 0 6.792 1.018 9.641 2.942 3.432 2.318 8.094 1.416 10.413-2.017 2.318-3.433 1.416-8.095-2.017-10.413-5.339-3.606-11.576-5.513-18.038-5.513-17.784 0-32.252 14.468-32.252 32.252s14.468 32.252 32.252 32.252c7.145 0 13.568-2.356 18.574-6.815.984-.877 1.915-1.837 2.768-2.854 2.66-3.174 2.243-7.904-.931-10.565z" fill="#2d4576" data-original="#000000" style=""/><path d="m126.303 296.752h-13.784c-4.082 0-7.5 3.417-7.5 7.5v49.505c0 4.142 3.358 7.5 7.5 7.5s7.5-3.357 7.5-7.5v-14.043c2.383-.011 4.793-.021 6.285-.021 11.989 0 21.744-9.632 21.744-21.47-.001-11.839-9.755-21.471-21.745-21.471zm0 27.941c-1.48 0-3.862.009-6.229.021-.011-2.465-.021-4.963-.021-6.491 0-1.308-.006-3.882-.013-6.471h6.263c3.656 0 6.744 2.963 6.744 6.471s-3.088 6.47-6.744 6.47z" fill="#2d4576" data-original="#000000" style=""/><path d="m191.279 296.752c-17.784 0-32.252 14.468-32.252 32.252s14.468 32.252 32.252 32.252 32.253-14.468 32.253-32.252c-.001-17.783-14.469-32.252-32.253-32.252zm0 49.505c-9.513 0-17.253-7.739-17.253-17.253 0-9.513 7.74-17.253 17.253-17.253s17.253 7.739 17.253 17.253-7.74 17.253-17.253 17.253z" fill="#2d4576" data-original="#000000" style=""/><path d="m329.454 137.629-41.709-6.06c-.814-.118-1.518-.63-1.883-1.368l-18.654-37.796c-2.121-4.298-6.416-6.967-11.208-6.968-4.792 0-9.087 2.67-11.209 6.968l-18.653 37.796c-.364.738-1.068 1.25-1.882 1.368l-41.712 6.06c-4.743.69-8.608 3.95-10.089 8.509-1.48 4.557-.269 9.467 3.163 12.812l30.181 29.419c.589.575.858 1.402.719 2.214l-7.125 41.541c-.811 4.724 1.095 9.409 4.973 12.225 3.826 2.782 8.976 3.154 13.164.952l37.308-19.614c.728-.383 1.598-.383 2.325.001l37.307 19.613c4.239 2.227 9.285 1.866 13.163-.951 3.878-2.816 5.784-7.502 4.974-12.225l-7.125-41.543c-.139-.811.131-1.638.72-2.212l30.181-29.42c3.433-3.345 4.644-8.255 3.164-12.812-1.481-4.559-5.348-7.818-10.093-8.509zm-33.724 40c-4.125 4.022-6.006 9.813-5.031 15.489l6.268 36.55-32.822-17.255c-5.052-2.659-11.235-2.659-16.287-.001l-32.823 17.256 6.268-36.549c.974-5.678-.907-11.468-5.033-15.491l-26.554-25.884 36.698-5.332c5.701-.829 10.626-4.407 13.175-9.573l16.411-33.254 16.412 33.253c2.549 5.166 7.473 8.745 13.176 9.574l36.697 5.332z" fill="#2d4576" data-original="#000000" style=""/><circle cx="373.997" cy="88.01" r="10" fill="#2d4576" data-original="#000000" style=""/><circle cx="138.003" cy="88.01" r="10" fill="#2d4576" data-original="#000000" style=""/><circle cx="256" cy="416.502" r="10" fill="#2d4576" data-original="#000000" style=""/></g></g></svg>
