<?xml version="1.0"?>
<svg xmlns="http://www.w3.org/2000/svg" xmlns:xlink="http://www.w3.org/1999/xlink" xmlns:svgjs="http://svgjs.com/svgjs" version="1.1" width="512" height="512" x="0" y="0" viewBox="0 0 512 512" style="enable-background:new 0 0 512 512" xml:space="preserve" class=""><g><g xmlns="http://www.w3.org/2000/svg"><g><path d="m445.628 428.338h-379.256c-32.514 0-58.872-26.358-58.872-58.872v-297.488c0-32.514 26.358-58.872 58.872-58.872h379.257c32.514 0 58.872 26.358 58.872 58.872v297.489c-.001 32.514-26.359 58.871-58.873 58.871z" fill="#dae2f1" data-original="#b1e4f9" class=""/><path d="m66.372 398.338c-15.92 0-28.872-12.952-28.872-28.872v-297.489c0-15.92 12.952-28.872 28.872-28.872h379.257c15.92 0 28.872 12.952 28.872 28.872v297.489c0 15.92-12.952 28.872-28.872 28.872z" fill="#f9f6f9" data-original="#f9f6f9" class=""/><g><path d="m336.901 220.852h-161.802c-10.224 0-18.512-8.288-18.512-18.512 0-10.224 8.288-18.512 18.512-18.512h161.802c10.224 0 18.512 8.288 18.512 18.512 0 10.224-8.288 18.512-18.512 18.512z" fill="#eaac9d" data-original="#eaac9d" class=""/><path d="m256 293.483c-40.113 0-72.631-32.518-72.631-72.63v-18.461c0-40.113 32.518-72.63 72.63-72.63 40.113 0 72.63 32.518 72.63 72.63v18.461c.001 40.112-32.516 72.63-72.629 72.63z" fill="#ffddce" data-original="#ffddce" class=""/><path d="m274.612 291.075c-5.935 1.574-12.174 2.414-18.615 2.414-40.111 0-72.627-32.516-72.627-72.637v-18.462c0-40.111 32.516-72.627 72.627-72.627 6.44 0 12.68.84 18.615 2.414-31.104 8.215-54.022 36.533-54.022 70.214v18.462c0 33.689 22.918 62.007 54.022 70.222z" fill="#ffcbbe" data-original="#ffcbbe"/><path d="m240.822 145.481h8.585 8.376 7.947c9.015 0 16.322-7.308 16.322-16.322 0-9.015-7.308-16.322-16.322-16.322h-7.947v-2.867c0-7.194-5.832-13.026-13.026-13.026-7.194 0-13.026 5.832-13.026 13.026 0-7.403-6.176-13.364-13.656-13.011-7.006.33-12.397 6.365-12.397 13.379 0 19.409 15.735 35.143 35.144 35.143z" fill="#aa8080" data-original="#aa8080"/><path d="m259.51 145.487h-18.682c-9.713 0-18.491-3.931-24.855-10.295-6.364-6.354-10.295-15.151-10.295-24.855 0-7.013 5.391-13.043 12.404-13.377 3.941-.191 7.528 1.383 10.028 3.998-2.328 2.443-3.75 5.782-3.75 9.379 0 9.703 3.931 18.5 10.295 24.855 6.364 6.364 15.142 10.295 24.855 10.295z" fill="#9d6b6b" data-original="#9d6b6b" class=""/></g><path d="m372.997 494.956-10.729-7.258c-5.056-3.42-11.652-3.541-16.83-.308l-14.596 9.114c-10.285 6.422-23.619-.972-23.619-13.097v-85.069h89.867v83.828c0 12.38-13.839 19.726-24.093 12.79z" fill="#d22d64" data-original="#e490d0" class=""/><circle cx="353.954" cy="393.583" fill="#d6b85c" r="61.105" data-original="#f9ef63" class=""/><circle cx="353.954" cy="393.583" fill="#c49f31" r="34.755" data-original="#ffd064" class=""/></g><g><path d="m180.239 176.329h-5.139c-6.95 0-13.482 2.705-18.401 7.624-4.907 4.92-7.609 11.45-7.609 18.386 0 14.342 11.668 26.01 26.01 26.01h1.131c3.794 40.679 38.112 72.631 79.766 72.631 41.658 0 75.98-31.952 79.774-72.631h1.128c6.951 0 13.483-2.705 18.393-7.616 4.912-4.911 7.617-11.443 7.617-18.394 0-14.342-11.668-26.01-26.01-26.01h-5.099c-3.906-11.39-10.372-21.833-19.136-30.597-6.668-6.669-14.575-12.168-23.123-16.124.003-.15.011-.3.011-.451 0-13.136-10.687-23.822-23.823-23.822h-.974c-2.106-9.094-10.274-15.893-19.999-15.893-4.937 0-9.473 1.752-13.018 4.667-3.934-3.247-8.857-4.879-14.018-4.645-10.959.516-19.543 9.684-19.543 20.871 0 10.532 3.846 20.178 10.197 27.626-13.126 9.716-22.89 23.153-28.135 38.368zm-16.149 26.01c0-2.938 1.147-5.706 3.223-7.787 2.078-2.078 4.844-3.223 7.787-3.223h1.542c-.508 3.637-.774 7.331-.774 11.062v10.958h-.768c-6.071 0-11.01-4.939-11.01-11.01zm172.809-11.01c6.071 0 11.01 4.939 11.01 11.01 0 2.944-1.145 5.709-3.223 7.788-2.078 2.078-4.843 3.222-7.787 3.222h-.766v-10.958c0-3.734-.269-7.425-.769-11.062zm-34.842-34.99c12.301 12.301 19.076 28.656 19.076 46.052v18.461c0 35.912-29.22 65.128-65.137 65.128-35.912 0-65.128-29.216-65.128-65.128v-18.461c0-22.085 11.241-42.621 29.605-54.586 6.051 3.299 12.984 5.176 20.348 5.176h24.908c7.608 0 14.389-3.589 18.753-9.158 6.477 3.163 12.473 7.413 17.575 12.516zm-83.63-51.89c.091-.004.182-.006.272-.006 1.434 0 2.781.536 3.819 1.526 1.104 1.054 1.713 2.475 1.713 4 0 4.142 3.358 7.5 7.5 7.5s7.5-3.358 7.5-7.5c0-3.047 2.479-5.526 5.526-5.526s5.526 2.479 5.526 5.526v2.867c0 4.142 3.358 7.5 7.5 7.5h7.946c4.865 0 8.823 3.958 8.823 8.822s-3.958 8.823-8.823 8.823h-24.908c-15.243 0-27.644-12.401-27.644-27.644.001-3.11 2.356-5.751 5.25-5.888z" fill="#141e34" data-original="#000000" class=""/><path d="m276.75 216.2c-11.441 11.44-30.058 11.44-41.499 0-2.929-2.93-7.678-2.929-10.606 0-2.929 2.929-2.929 7.678 0 10.606 8.645 8.645 20 12.967 31.356 12.967s22.711-4.322 31.356-12.967c2.929-2.929 2.929-7.677 0-10.606-2.93-2.929-7.679-2.929-10.607 0z" fill="#141e34" data-original="#000000" class=""/><path d="m233.303 203.049c4.142 0 7.5-3.358 7.5-7.5v-14.141c0-4.142-3.358-7.5-7.5-7.5s-7.5 3.358-7.5 7.5v14.141c0 4.142 3.358 7.5 7.5 7.5z" fill="#141e34" data-original="#000000" class=""/><path d="m271.197 181.408v14.141c0 4.142 3.358 7.5 7.5 7.5s7.5-3.358 7.5-7.5v-14.141c0-4.142-3.358-7.5-7.5-7.5s-7.5 3.358-7.5 7.5z" fill="#141e34" data-original="#000000" class=""/><path d="m445.63 5.606h-379.26c-36.597 0-66.37 29.774-66.37 66.37v297.49c0 36.597 29.773 66.37 66.37 66.37h233.35v47.573c0 8.461 4.42 15.962 11.824 20.064 3.52 1.95 7.332 2.92 11.134 2.92 4.193 0 8.374-1.181 12.131-3.532l14.598-9.108c2.661-1.66 6.062-1.597 8.659.157l10.732 7.262c7.048 4.765 16.095 5.246 23.61 1.255 7.513-3.99 12.18-11.752 12.18-20.258v-42.35c1.171-1.281 2.282-2.616 3.354-3.983h37.686c36.597 0 66.37-29.773 66.37-66.37v-297.49c.002-36.596-29.771-66.37-66.368-66.37zm-38.071 387.977c0 29.558-24.047 53.605-53.605 53.605s-53.605-24.047-53.605-53.605 24.047-53.605 53.605-53.605 53.605 24.047 53.605 53.605zm-22.184 95.597c-2.642 1.403-5.697 1.241-8.171-.432l-10.733-7.263c-7.501-5.07-17.314-5.251-25-.459l-14.607 9.114c-3.574 2.236-6.819.893-8.049.211s-4.093-2.723-4.093-6.943v-33.595c11.127 7.787 24.651 12.375 39.233 12.375 13.041 0 25.243-3.66 35.636-10.003v29.984c-.001 2.988-1.577 5.61-4.216 7.011zm111.625-119.714c0 28.326-23.044 51.37-51.37 51.37h-28.731c2.063-4.746 3.595-9.77 4.542-14.997h24.189c20.055 0 36.37-16.315 36.37-36.37v-297.489c0-20.055-16.315-36.37-36.37-36.37h-379.26c-20.055 0-36.37 16.315-36.37 36.37v29.36c0 4.142 3.358 7.5 7.5 7.5s7.5-3.358 7.5-7.5v-29.36c0-11.784 9.586-21.37 21.37-21.37h379.26c11.784 0 21.37 9.586 21.37 21.37v297.49c0 11.784-9.586 21.37-21.37 21.37h-23.14c-.631-15.94-6.725-30.491-16.459-41.844h32.48c4.142 0 7.5-3.358 7.5-7.5s-3.358-7.5-7.5-7.5h-50.621c-10.016-5.727-21.595-9.018-33.935-9.018-36.909 0-67.089 29.301-68.536 65.862h-219.049c-11.784 0-21.37-9.586-21.37-21.37v-238.19c0-4.142-3.358-7.5-7.5-7.5s-7.5 3.358-7.5 7.5v238.19c0 20.055 16.315 36.37 36.37 36.37h220.096c.947 5.227 2.479 10.251 4.542 14.997h-224.638c-28.326 0-51.37-23.044-51.37-51.37v-297.491c0-28.325 23.044-51.37 51.37-51.37h379.26c28.326 0 51.37 23.044 51.37 51.37z" fill="#141e34" data-original="#000000" class=""/><path d="m311.7 393.579c0 23.302 18.953 42.26 42.25 42.26 5.638 0 11.115-1.093 16.279-3.249 3.823-1.596 5.627-5.988 4.032-9.811-1.596-3.823-5.989-5.626-9.811-4.032-3.324 1.388-6.857 2.091-10.5 2.091-15.026 0-27.25-12.229-27.25-27.26 0-15.026 12.224-27.25 27.25-27.25 15.031 0 27.26 12.224 27.26 27.25 0 2.637-.377 5.248-1.121 7.76-1.177 3.972 1.089 8.145 5.061 9.321 3.973 1.181 8.145-1.089 9.321-5.061 1.154-3.896 1.739-7.94 1.739-12.021 0-23.297-18.958-42.25-42.26-42.25-23.297.002-42.25 18.955-42.25 42.252z" fill="#141e34" data-original="#000000" class=""/><path d="m83.009 288.514h60.754c4.142 0 7.5-3.358 7.5-7.5s-3.358-7.5-7.5-7.5h-60.754c-4.142 0-7.5 3.358-7.5 7.5s3.358 7.5 7.5 7.5z" fill="#141e34" data-original="#000000" class=""/><path d="m73.485 318.755h79.801c4.142 0 7.5-3.358 7.5-7.5s-3.358-7.5-7.5-7.5h-79.801c-4.142 0-7.5 3.358-7.5 7.5s3.358 7.5 7.5 7.5z" fill="#141e34" data-original="#000000" class=""/><path d="m73.485 348.995h79.801c4.142 0 7.5-3.358 7.5-7.5s-3.358-7.5-7.5-7.5h-79.801c-4.142 0-7.5 3.358-7.5 7.5s3.358 7.5 7.5 7.5z" fill="#141e34" data-original="#000000" class=""/><path d="m360.737 281.014c0 4.142 3.358 7.5 7.5 7.5h60.754c4.142 0 7.5-3.358 7.5-7.5s-3.358-7.5-7.5-7.5h-60.754c-4.142 0-7.5 3.358-7.5 7.5z" fill="#141e34" data-original="#000000" class=""/><path d="m351.213 311.255c0 4.142 3.358 7.5 7.5 7.5h79.801c4.142 0 7.5-3.358 7.5-7.5s-3.358-7.5-7.5-7.5h-79.801c-4.142 0-7.5 3.358-7.5 7.5z" fill="#141e34" data-original="#000000" class=""/><path d="m354.15 84.731h57c4.142 0 7.5-3.358 7.5-7.5s-3.358-7.5-7.5-7.5h-57c-4.142 0-7.5 3.358-7.5 7.5s3.358 7.5 7.5 7.5z" fill="#141e34" data-original="#000000" class=""/><path d="m354.15 114.323h57c4.142 0 7.5-3.358 7.5-7.5s-3.358-7.5-7.5-7.5h-57c-4.142 0-7.5 3.358-7.5 7.5s3.358 7.5 7.5 7.5z" fill="#141e34" data-original="#000000" class=""/><path d="m100.85 84.731h57c4.142 0 7.5-3.358 7.5-7.5s-3.358-7.5-7.5-7.5h-57c-4.142 0-7.5 3.358-7.5 7.5s3.358 7.5 7.5 7.5z" fill="#141e34" data-original="#000000" class=""/><path d="m100.85 114.323h57c4.142 0 7.5-3.358 7.5-7.5s-3.358-7.5-7.5-7.5h-57c-4.142 0-7.5 3.358-7.5 7.5s3.358 7.5 7.5 7.5z" fill="#141e34" data-original="#000000" class=""/></g></g></g></svg>
