<?xml version="1.0" encoding="utf-8"?>
<!-- Generator: Adobe Illustrator 25.2.2, SVG Export Plug-In . SVG Version: 6.00 Build 0)  -->
<svg version="1.1" id="Layer_1" xmlns="http://www.w3.org/2000/svg" xmlns:xlink="http://www.w3.org/1999/xlink" x="0px" y="0px"
	 viewBox="0 0 600 600" style="enable-background:new 0 0 600 600;" xml:space="preserve">
<style type="text/css">
	.st0{fill:#3E5FA3;}
	.st1{fill-rule:evenodd;clip-rule:evenodd;fill:#FB9660;}
	.st2{fill-rule:evenodd;clip-rule:evenodd;fill:#3C3E44;}
	.st3{fill-rule:evenodd;clip-rule:evenodd;fill:#2B2B2B;}
	.st4{opacity:0.56;fill-rule:evenodd;clip-rule:evenodd;fill:#2D2D2D;}
	.st5{fill:#3FA684;}
	.st6{fill:#917044;}
	.st7{opacity:0.32;fill:#917044;}
	.st8{fill:#C49F31;}
	.st9{opacity:0.32;fill:#C49F31;}
	.st10{opacity:0.24;fill:#917044;}
	.st11{fill:#2B2B2B;}
	.st12{opacity:0.32;fill-rule:evenodd;clip-rule:evenodd;fill:#3569AB;}
	.st13{opacity:0.32;fill:#3569AB;}
	.st14{fill-rule:evenodd;clip-rule:evenodd;fill:#B92758;}
	.st15{fill:none;stroke:#FFFFFF;stroke-width:2;stroke-miterlimit:10;}
	.st16{fill:none;stroke:#FFFFFF;stroke-width:2;stroke-miterlimit:10;stroke-dasharray:4.89,4.89,4.89,4.89;}
	.st17{fill:none;stroke:#FFFFFF;stroke-width:2;stroke-miterlimit:10;stroke-dasharray:4.89,4.89,4.89,4.89,4.89,4.89;}
	.st18{fill:#DDDDDD;}
	.st19{opacity:0.6;fill:#969696;enable-background:new    ;}
	.st20{fill:#F7F8FC;}
	.st21{opacity:0.6;fill:#B5B5B5;enable-background:new    ;}
</style>
<path class="st0" d="M343.8,41.8c140.8,0,229.9,120.9,213.2,260.6c-13.7,114.2-107.6,217.7-246.5,239.8
	C131.4,570.9-72.6,320,77.7,223.4C270.2,99.6,203.1,41.8,343.8,41.8z"/>
<path class="st1" d="M214.8,549.6c0,0,2.1,8.7,2.9,13.1c0.8,4.3,11.4,4,11.4-3.1c0-7.1,0-15.6,0-15.6L214.8,549.6z"/>
<path class="st1" d="M292.2,549.6c0,0-2.1,8.7-2.9,13.1c-0.8,4.3-11.4,4-11.4-3.1c0-7.1,0-15.6,0-15.6L292.2,549.6z"/>
<path class="st2" d="M198.5,302.1c0,0-5.4,84.8-6.3,108.1S213,551.3,213,551.3s8.3,5.3,18.5,0c0,0-5.6-78.7-0.8-123.4
	c2.2-20.3,24.1-82.1,24.1-82.1l2.6-39.8L198.5,302.1z"/>
<path class="st3" d="M229.5,560.6c0,0-7.4,0.9-11.8-1.7c-4.4-2.6-3.4,0.9-6.5,4.3c-3.1,3.5-10.9,7.5-15.7,9.2
	c-4.8,1.7-1,2.9,4.4,2.9c5.5,0,30.1,0,33.2,0C236.1,575.3,232.4,560.4,229.5,560.6z"/>
<path class="st2" d="M310.5,302.1c0,0,0.8,52.7-4.8,111.9c-2.2,23.2-11.7,137.3-11.7,137.3s-8.3,5.3-18.5,0c0,0-6.9-98.1-8.8-118.4
	c-2-20.3-14.5-87.1-14.5-87.1l-2.6-39.8L310.5,302.1z"/>
<path class="st4" d="M310.5,302.1l-56.9,3.6l-55.1-3.6c0,0-0.2,2.7-0.5,7.3c6.4,3.2,24.1,10.8,52.7,14.4c34.6,4.3,33-4.7,42.8-8.1
	c0,0,14.7-1.7,9.5,6.2c-2.9,4.4-5,7.6-1,9.4c4,1.8,6.6,3.5,4.5,5.2c-2.1,1.6-4.9,5.8-3.7,18c1.4,14.9-8.8,157.5-12.6,198.4
	c2.4-0.7,3.8-1.6,3.8-1.6s9.5-114.1,11.7-137.3C311.3,354.8,310.5,302.1,310.5,302.1z"/>
<path class="st3" d="M277.6,560.6c0,0,7.4,0.9,11.8-1.7c4.4-2.6,3.4,0.9,6.5,4.3c3.1,3.5,10.9,7.5,15.7,9.2c4.8,1.7,1,2.9-4.4,2.9
	c-5.5,0-30.1,0-33.2,0C270.9,575.3,274.7,560.4,277.6,560.6z"/>
<path class="st5" d="M317.1,292.6c-1.8-11.7-10.1-28.3-10.1-55.7c0-14.5,0.2-35,0-53.3c-0.3-22.5-6.9-44.6-8.7-45.4
	c-6.8-2.9-17.3-6.8-23.4-9h-39.3c-6.1,2.3-16.6,6.1-23.4,9c-1.8,0.8-8.4,22.9-8.7,45.4c-0.2,18.4,0,38.8,0,53.3
	c0,32.4-9.2,56.9-9.4,66c-0.2,9.2,72.2,24,89.2,11.3c12.9-9.6,26.5-6.7,31.2-6.2C316.9,308.3,318.5,301.5,317.1,292.6z"/>
<path class="st6" d="M335.8,253.3c-8.6,22.6-19.8,3.8-19.8-4.3c0-14-9-49.1-9-49.1c7.9-3.4,23.4-14.4,23.9-10.9
	c4,27.5,4.9,37.9,6.2,51.8C337.5,244.4,337,250.1,335.8,253.3z"/>
<path class="st7" d="M327.6,202.1c0,0,4.4,13.6,8.5,27.5c-1-9.7-2.2-20.7-5.1-40.5c-0.5-3.6-16,7.4-23.9,10.9c0,0,1.5,5.8,3.2,13.6
	c0.2-1.7,0.4-3.6,0.7-5.4c0.4-3.3,3.3-5.8,6.7-5.8C320.6,202.4,324.2,202.4,327.6,202.1z"/>
<path class="st8" d="M280.6,209.2h-18.6c-0.8,0-1.5-0.7-1.5-1.5l-0.8-39.1c0-1,0.7-1.7,1.6-1.7h20.2c0.9,0,1.6,0.8,1.6,1.7
	l-0.8,39.1C282.1,208.5,281.4,209.2,280.6,209.2z"/>
<path class="st9" d="M262.3,205.8l-0.7-35.6c0-0.8,0.6-1.5,1.5-1.5h16.5c0.8,0,1.5,0.7,1.5,1.5l-0.7,35.6c0,0.8-0.7,1.4-1.5,1.4h-15
	C263,207.2,262.3,206.6,262.3,205.8z"/>
<path class="st9" d="M265.2,177.2c0.1,0,0.2-0.1,0.2-0.2l0.1-6.9c0,0,0-0.1,0-0.1c0,0-0.1,0-0.1,0H263c0,0-0.1,0-0.1,0
	c0,0,0,0.1,0,0.1l0.1,6.9c0,0.1,0.1,0.2,0.2,0.2H265.2z"/>
<path class="st5" d="M298.2,138.2c23.6,8.9,26.9,11.2,30.5,24.4c5.8,21.6,7.1,31.2,7.1,31.2s-19.9,11.5-34.1,4.2
	C301.7,198,292.4,136,298.2,138.2z"/>
<path class="st6" d="M267.9,122.3c-2.6-6.9-1.6-18.4-1.6-18.4H244c0,0,1,11.5-1.6,18.4c-2.6,6.9-14.7,8-7.9,13.3
	c5.3,4.1,16.5,5.8,21.3,5.8c4.8,0,14.7-1.7,20-5.8C282.7,130.3,270.5,129.2,267.9,122.3z"/>
<path class="st7" d="M267.9,122.3c-2.6-6.9-1.6-18.4-1.6-18.4H244c0,0,0.2,2.4,0.2,5.6c2.8,2.8,8.8,7.9,12.8,5.8
	c5.4-2.9,6.9-1.3,7.2,3.5c0.3,4.8,4,8.4,7.1,10.3c2.4,1.5,2.7,6.2-6.7,11.2c4.1-0.9,8.3-2.4,11.2-4.7
	C282.7,130.3,270.5,129.2,267.9,122.3z"/>
<path class="st6" d="M283.3,57c0,12.2-1.1,25.6-3.9,34.6c-2.8,9-14.1,19.7-24.1,19.7c-10,0-21.4-10.7-24.1-19.7s-4.6-22.4-3.9-34.6
	c0.4-6.8,6.7-20.5,30-20.5C280.4,36.5,283.3,54.5,283.3,57z"/>
<path class="st7" d="M276.4,55.1c2.2-0.8,4.2-1.4,6.2-1.7c-1.7-6-7.4-16.9-25.5-16.9c-23.2,0-29.6,13.7-30,20.5
	c-0.2,3.4-0.2,6.9,0,10.4c1.5-0.2,5.1-1.5,7.4-8.9C234.6,58.5,259.2,61.7,276.4,55.1z"/>
<path class="st10" d="M255.2,111.3c10,0,21.4-10.7,24.1-19.7c0.6-1.8,1.1-3.8,1.5-6c-0.1,0.3-6.5,15.1-16,19.9
	c-9.6,4.8-17.3,3.9-17.4,3.9C250,110.6,252.7,111.3,255.2,111.3z"/>
<path class="st6" d="M229.4,74.9c-2.2-5.9-5.4-4.1-6.8-2.4c-2.4,3,4.4,16.3,7.4,12.3C232.1,82.1,229.4,74.9,229.4,74.9z"/>
<path class="st6" d="M281,74.9c2.2-5.9,5.4-4.1,6.8-2.4c2.4,3-4.4,16.3-7.4,12.3C278.3,82.1,281,74.9,281,74.9z"/>
<path class="st11" d="M273.2,56.7c0,0-26.2,0.3-39.8-1.3c0,0-2.3,10.9-2.6,15.5c-0.3,4.6-2,4.4-3.4,0.8c-1.4-3.6-2.4-15.4-0.4-22.5
	c2-7.1,10.2-20.9,35.1-24.1c24.9-3.2,17.5,17.6,17.5,17.6s8.8-0.8,8.4,7.7c-0.3,8.5-3.7,18.6-5.3,21.5
	C281,74.9,282.4,59.7,273.2,56.7z"/>
<path class="st4" d="M265,340.4c-3.6,1.2-16.7,6.6-18.7,7.6c-1.9,1-2.6,2.7-0.2,2.3c2.4-0.5,5.3,0.3,2.6,1.6c-2.7,1.3-7.7,4.5-4.5,4
	c3.2-0.5,3.5,0.3,1.6,5.2c-2.8,7.4-11.3,32.9-16.7,59.6c-1.8,9-4,24.6-0.3,60c-0.1-18.5,0.3-37.5,1.9-52.6
	c1.8-16.7,17.1-61.7,22.3-77c2,10.8,6.7,36.4,10,57.2c0.4-16.7-1.5-37.6-3.1-46.3c-1.6-8.7-2.5-10.1,1.4-11.8c1.7-0.7,4.8-2,6.9-2.6
	c2.1-0.6-2.1-1-4-1s-2.1-2.1,2.4-4C271.2,340.4,274,337.3,265,340.4z"/>
<path class="st12" d="M317.1,292.6c-1.8-11.7-10.1-28.3-10.1-55.7c0-10.3,0.1-23.6,0.1-37c1,0.2,2.1,0.4,3.1,0.4
	c-0.5-2.3-1.3-6.6-2.1-10.7c-1.1-6.1,1.5-9.9,4.3-12.4c2.8-2.4-0.2-2.6-3.2-1.6c-3,1.1-0.1-15.5,1.4-21.3c1.4-5.8-2-2.6-3.9,3.4
	c-1.9,6-5.9,16.9-7,24.6c-1.1,7.6,2.1,29.7,2.9,41.7c0.9,12,2.2,30.9-3.2,43.2c-5.4,12.2-2.6,10.5,1,5.6c3.6-4.9,5.2,2.6,3,7.9
	c-2.1,5.4-14.7,10.7-20.5,17.4c-5.7,6.7,1.1,2.6,4.4,1.1c3.2-1.5,9.9-2.4,9,0.4c-0.9,2.8-13.3,10.3-17.8,14.8c-1.8,1.8-8,3.3-15,4.5
	c8.5-0.4,15.6-1.8,19.6-4.8c12.9-9.6,26.5-6.7,31.2-6.2C316.9,308.3,318.5,301.5,317.1,292.6z"/>
<path class="st6" d="M335.8,253.3c-8.6,22.6-24.6,55.6-32.8,68.7l-9.5-6.2c8.1-12.9,22.5-58.6,22.5-66.8c0-14,19.8-22.1,21.1-8.2
	C337.5,244.4,337,250.1,335.8,253.3z"/>
<path class="st13" d="M232.4,226.2c-10.8,1.6-23.6,1.7-23.8-5.4c-0.1-7.1,5-22.2,9.8-29c4.8-6.8,0.3-5.8-3.5-3.5
	c-3.9,2.3-3.2-4.9-3.2-12.6c0-7.7-2-7.9-2.7,1.6c-0.8,9.5,0.1,17,0.1,17l-5.9,2.2c-0.1,14.5,0.1,29.2,0.1,40.4
	c0,6.5-0.4,12.7-1,18.4c16.4-1.3,29.1-12,37.7-21.7C250,222.3,243.3,224.6,232.4,226.2z"/>
<path class="st6" d="M206.1,233.8c-0.9-2.5-0.1-29.1-0.1-38.1c-2.5-0.1-22.8-1.8-26.7-3.1c-1.1,10.4,1.2,41.6,5.2,58.4
	c0.8,3.3,8,10.8,11.2,9.4c23.2-10.3,49.2-32.2,62.8-44.4c0.8-0.6,2-1.6,3.6-3c3.4-3.1,5.8-0.9,11.4-6.1c5.6-5.2,8.5-15.2,9.9-18.9
	c1.4-3.8-1.1-1.4-6.5,2.3c-5.4,3.8-13.9,8.5-15.9,7.8c-2-0.7-2.2-2.2-1.2-5.9c1-3.6,0.3-4.2-1.1-5.5c-1.4-1.3-0.2,1.6-3.1,5.6
	c-2.9,4-2.7,8.1-1.9,11.8c0.8,3.8-4.6,7-4.6,7l0.1,0.1C241.4,217.7,218.5,229.5,206.1,233.8L206.1,233.8z"/>
<path class="st7" d="M198,239.6c-1.1,1.1,24.2-8,35.5-18.5c0,0,0,0,0,0c-9.3,5.1-20.1,10.2-27.4,12.7c-0.9-2.5-0.1-29.1-0.1-38.1
	c-2.5-0.1-22.8-1.8-26.7-3.1c-0.2,1.6-0.2,3.7-0.3,6.1c3.7,1,11.7,2.5,21.5,1.8c0,0,1.9,31.7,1.8,34.8
	C202.4,235.2,199.1,238.6,198,239.6z"/>
<path class="st5" d="M212.1,138.2c-28.2,11.1-25.2,8.4-32.4,32c-3.7,12.2-7.6,25.8-7.6,25.8s22.8,5.7,37-1.6c0,0-0.3-10.7-0.1-19.5
	C209.1,167.6,215.3,136.9,212.1,138.2z"/>
<path class="st7" d="M257,84.3c0.5,2.7,2.8,8.3,0,10c0,0,1.9-0.4,3.1-2.4C261.3,90,257,84.3,257,84.3z"/>
<path class="st7" d="M318.3,293.2l-16.9,24.2l-7.9-1.6l9.5,6.2C306.9,315.8,312.6,305.1,318.3,293.2z"/>
<path class="st14" d="M424.5,216.2H317.8c-6.6,0-12-5.4-12-12v-2.4c0-1.7-0.8-3.3-2.2-4.2l-4.6-3.1c-1.9-1.2-1.9-4,0-5.2l4.6-3.1
	c1.4-0.9,2.2-2.5,2.2-4.2V97.6c0-6.6,5.4-12,12-12h106.7c6.6,0,12,5.4,12,12v106.7C436.4,210.9,431.1,216.2,424.5,216.2z"/>
<g>
	<g>
		<line class="st15" x1="369.7" y1="152.9" x2="369.8" y2="155.4"/>
		<line class="st16" x1="369.9" y1="160.3" x2="370.2" y2="177.4"/>
		<path class="st17" d="M370.3,179.8l0.9,44.4c0,0-4.6,49.3,50.2,48.2l166.7-1.9"/>
		<line class="st15" x1="590.5" y1="270.5" x2="593" y2="270.5"/>
	</g>
</g>
<g>
	<rect x="367.6" y="113.6" class="st18" width="16.3" height="1.1"/>
	<rect x="367.6" y="116.2" class="st18" width="16.3" height="1.1"/>
	<rect x="367.6" y="118.8" class="st18" width="16.3" height="1.1"/>
	<polygon class="st19" points="392.9,104.7 337.6,104.7 337.6,197.6 408,197.6 408,119.8 	"/>
	<polygon class="st20" points="391.5,104.2 336.6,104.2 336.6,196.5 406.5,196.5 406.5,119.2 	"/>
	<polygon class="st21" points="391.5,119.2 406.5,119.2 391.5,104.2 	"/>
	<rect x="343.9" y="140.2" class="st18" width="16.3" height="1.1"/>
	<rect x="381.1" y="127.1" class="st18" width="16.3" height="1.1"/>
	<rect x="381.1" y="129.7" class="st18" width="16.3" height="1.1"/>
	<rect x="381.1" y="132.4" class="st18" width="16.3" height="1.1"/>
	<rect x="343.9" y="142.8" class="st18" width="54.1" height="1.1"/>
	<rect x="343.9" y="145.7" class="st18" width="54.1" height="1.1"/>
	<rect x="343.9" y="148.6" class="st18" width="54.1" height="1.1"/>
	<rect x="343.9" y="151.5" class="st18" width="54.1" height="1.1"/>
	<rect x="343.9" y="154.4" class="st18" width="54.1" height="1.1"/>
	<rect x="343.9" y="157.3" class="st18" width="54.1" height="1.1"/>
	<rect x="343.9" y="160.2" class="st18" width="54.1" height="1.1"/>
	<rect x="343.9" y="163.2" class="st18" width="54.1" height="1.1"/>
</g>
</svg>
