<?xml version="1.0" encoding="utf-8"?>
<!-- Generator: Adobe Illustrator 26.0.0, SVG Export Plug-In . SVG Version: 6.00 Build 0)  -->
<svg version="1.1" xmlns="http://www.w3.org/2000/svg" xmlns:xlink="http://www.w3.org/1999/xlink" x="0px" y="0px"
	 viewBox="0 0 2121.3 2200" style="enable-background:new 0 0 2121.3 2200;" xml:space="preserve">
<style type="text/css">
	.st0{fill:#E6E7E8;}
	.st1{fill:#D0D2D3;}
	.st2{fill:#FFFFFF;stroke:#8E8E8E;stroke-width:5;stroke-miterlimit:10;}
	.st3{fill:#BFBFBF;}
	.st4{fill:#F2DDC3;}
	.st5{fill:#D0BCA6;}
	.st6{fill:#404041;}
	.st7{opacity:0.5;fill:#D0D2D3;}
	.st8{fill:#C1B49A;}
	.st9{fill:#9A8479;}
	.st10{opacity:0.6;}
	.st11{fill:#EC1C24;}
	.st12{fill:url(#SVGID_1_);}
	.st13{fill:url(#SVGID_00000176036791176112831780000007550005489320590256_);}
	.st14{fill:url(#SVGID_00000080201586957195617260000015386557993069470609_);}
	.st15{fill:#111111;}
	.st16{fill:#FFFFFF;}
	.st17{fill:none;}
	.st18{fill:#F9F9F9;}
	.st19{fill:url(#SVGID_00000156557116913650443870000003736639122454670985_);}
	.st20{fill:url(#SVGID_00000098206992562417075500000009083661515411337647_);}
	.st21{fill:#070707;}
	.st22{fill:#12171E;}
	.st23{opacity:0.69;fill:#FFFFFF;}
	.st24{filter:url(#Adobe_OpacityMaskFilter);}
	.st25{filter:url(#Adobe_OpacityMaskFilter_00000164486603412569617950000018056915714459056005_);}
	
		.st26{mask:url(#SVGID_00000079470484215704983840000001119318591014421409_);fill:url(#SVGID_00000083810409401371773240000006240527329408374684_);}
	.st27{opacity:0.1;fill:url(#SVGID_00000011014736996448707650000002259289438842834866_);}
	.st28{fill:url(#SVGID_00000177447153775558872460000012612480595953168268_);}
	.st29{fill:#CCCCCC;}
	.st30{fill:#B92758;}
	.st31{fill:#35528D;}
	.st32{font-family:'MyriadPro-Regular';}
	.st33{font-size:48.6068px;}
	.st34{letter-spacing:2;}
	.st35{filter:url(#Adobe_OpacityMaskFilter_00000158028364214473787130000001119684468723207344_);}
	.st36{filter:url(#Adobe_OpacityMaskFilter_00000147929606325678905500000002667955199124576166_);}
	
		.st37{mask:url(#SVGID_00000038398329106012672470000017298431881292752046_);fill:url(#SVGID_00000183250463471010653180000011978377458888623759_);}
	.st38{opacity:0.2;fill:url(#SVGID_00000029764917345417881390000002656669297382597034_);}
</style>
<g id="BACKGROUND">
</g>
<g id="Objects">
	<g>
		<g id="XMLID_00000119110766990747018160000010398428173352685972_">
			
				<rect id="XMLID_00000061436531657935345860000006112967731240414652_" x="899.9" y="489.9" transform="matrix(0.9901 -0.1407 0.1407 0.9901 -156.9832 211.6758)" class="st0" width="1037.4" height="1452.4"/>
			
				<rect id="XMLID_00000071517345927450648870000006922996226230736548_" x="1121.2" y="640.7" transform="matrix(0.9901 -0.1407 0.1407 0.9901 -78.3587 194.7748)" class="st1" width="434.2" height="21.7"/>
			
				<rect id="XMLID_00000027599194589392450140000010694507000451883198_" x="949.5" y="762.2" transform="matrix(0.9901 -0.1407 0.1407 0.9901 -95.2718 198.4104)" class="st1" width="812.2" height="21.7"/>
			
				<rect id="XMLID_00000178922432041750048770000014876736532351881622_" x="967.6" y="889.6" transform="matrix(0.9901 -0.1407 0.1407 0.9901 -113.0145 202.2243)" class="st1" width="812.2" height="21.7"/>
			
				<rect id="XMLID_00000078753487751331411610000015013126319728662405_" x="985.7" y="1016.9" transform="matrix(0.9901 -0.1407 0.1407 0.9901 -130.7572 206.0383)" class="st1" width="812.2" height="21.7"/>
			
				<rect id="XMLID_00000176732098538220478970000009903482231348076209_" x="1003.8" y="1144.3" transform="matrix(0.9901 -0.1407 0.1407 0.9901 -148.5 209.8522)" class="st1" width="812.2" height="21.7"/>
			
				<rect id="XMLID_00000043418937153271032120000016607546173800474502_" x="1021.9" y="1271.7" transform="matrix(0.9901 -0.1407 0.1407 0.9901 -166.2427 213.6662)" class="st1" width="812.2" height="21.7"/>
			
				<rect id="XMLID_00000057850408974369832770000005649120160064891581_" x="1040" y="1399.1" transform="matrix(0.9901 -0.1407 0.1407 0.9901 -183.9854 217.4801)" class="st1" width="812.2" height="21.7"/>
			
				<rect id="XMLID_00000091015912184910104900000002279112537412482467_" x="1327.6" y="1679.7" transform="matrix(0.9901 -0.1407 0.1407 0.9901 -223.0656 225.8808)" class="st1" width="316.9" height="21.7"/>
		</g>
		<g id="XMLID_1041_">
			
				<rect id="XMLID_1050_" x="926.6" y="459.4" transform="matrix(0.9901 -0.1407 0.1407 0.9901 -152.429 215.1372)" class="st2" width="1037.4" height="1452.4"/>
			
				<rect id="XMLID_1049_" x="1148" y="610.2" transform="matrix(0.9901 -0.1407 0.1407 0.9901 -73.8045 198.2363)" class="st1" width="434.2" height="21.7"/>
			
				<rect id="XMLID_1048_" x="976.3" y="731.7" transform="matrix(0.9901 -0.1407 0.1407 0.9901 -90.7176 201.8718)" class="st1" width="812.2" height="21.7"/>
			
				<rect id="XMLID_1047_" x="994.4" y="859.1" transform="matrix(0.9901 -0.1407 0.1407 0.9901 -108.4604 205.6858)" class="st1" width="812.2" height="21.7"/>
			
				<rect id="XMLID_1046_" x="1012.5" y="986.5" transform="matrix(0.9901 -0.1407 0.1407 0.9901 -126.2031 209.4997)" class="st1" width="812.2" height="21.7"/>
			
				<rect id="XMLID_1045_" x="1030.6" y="1113.9" transform="matrix(0.9901 -0.1407 0.1407 0.9901 -143.9458 213.3137)" class="st1" width="812.2" height="21.7"/>
			
				<rect id="XMLID_1044_" x="1048.7" y="1241.2" transform="matrix(0.9901 -0.1407 0.1407 0.9901 -161.6886 217.1276)" class="st1" width="812.2" height="21.7"/>
			
				<rect id="XMLID_1043_" x="1066.8" y="1368.6" transform="matrix(0.9901 -0.1407 0.1407 0.9901 -179.4313 220.9416)" class="st1" width="812.2" height="21.7"/>
			
				<rect id="XMLID_1042_" x="1354.3" y="1649.2" transform="matrix(0.9901 -0.1407 0.1407 0.9901 -218.5114 229.3422)" class="st1" width="316.9" height="21.7"/>
		</g>
		
			<rect id="XMLID_00000147937926475819273490000005959787309533741710_" x="-33.3" y="386.1" transform="matrix(0.1365 -0.9906 0.9906 0.1365 -297.999 1467.7057)" class="st3" width="1452.4" height="1037.4"/>
		
			<rect id="XMLID_1014_" x="-59.2" y="358.2" transform="matrix(0.1365 -0.9906 0.9906 0.1365 -292.783 1417.8916)" class="st2" width="1452.4" height="1037.4"/>
		
			<rect id="XMLID_1013_" x="734" y="94.9" transform="matrix(0.1365 -0.9906 0.9906 0.1365 334.0021 1007.2773)" class="st1" width="21.7" height="434.2"/>
		
			<rect id="XMLID_1012_" x="717.2" y="27.4" transform="matrix(0.1365 -0.9906 0.9906 0.1365 199.1725 1095.6057)" class="st1" width="21.7" height="812.2"/>
		
			<rect id="XMLID_1011_" x="699.6" y="154.9" transform="matrix(0.1365 -0.9906 0.9906 0.1365 57.7295 1188.2667)" class="st1" width="21.7" height="812.2"/>
		
			<rect id="XMLID_1010_" x="682.1" y="282.4" transform="matrix(0.1365 -0.9906 0.9906 0.1365 -83.7133 1280.9276)" class="st1" width="21.7" height="812.2"/>
		
			<rect id="XMLID_1009_" x="664.5" y="409.8" transform="matrix(0.1365 -0.9906 0.9906 0.1365 -225.1562 1373.5885)" class="st1" width="21.7" height="812.2"/>
		
			<rect id="XMLID_1008_" x="646.9" y="537.3" transform="matrix(0.1365 -0.9906 0.9906 0.1365 -366.5992 1466.2495)" class="st1" width="21.7" height="812.2"/>
		
			<rect id="XMLID_1007_" x="629.4" y="664.8" transform="matrix(0.1365 -0.9906 0.9906 0.1365 -508.0421 1558.9104)" class="st1" width="21.7" height="812.2"/>
		
			<rect id="XMLID_1006_" x="590.7" y="1193.2" transform="matrix(0.1365 -0.9906 0.9906 0.1365 -819.584 1763.0052)" class="st1" width="21.7" height="316.9"/>
		
			<rect id="XMLID_236_" x="308.9" y="147.7" transform="matrix(1.269350e-02 -0.9999 0.9999 1.269350e-02 182.3708 738.1653)" class="st4" width="312.2" height="258.1"/>
		
			<rect id="XMLID_406_" x="463.3" y="55.3" transform="matrix(1.270882e-02 -0.9999 0.9999 1.270882e-02 301.4174 623.5588)" class="st5" width="6.4" height="207.8"/>
		
			<rect id="XMLID_624_" x="462.7" y="101.7" transform="matrix(1.267802e-02 -0.9999 0.9999 1.267802e-02 254.4527 668.7877)" class="st5" width="6.4" height="207.8"/>
		
			<rect id="XMLID_625_" x="462.1" y="148.1" transform="matrix(1.267362e-02 -0.9999 0.9999 1.267362e-02 207.4758 714.0127)" class="st5" width="6.4" height="207.8"/>
		
			<rect id="XMLID_626_" x="461.5" y="194.5" transform="matrix(1.271241e-02 -0.9999 0.9999 1.271241e-02 160.479 759.2248)" class="st5" width="6.4" height="207.8"/>
		
			<rect id="XMLID_627_" x="460.9" y="240.9" transform="matrix(1.270882e-02 -0.9999 0.9999 1.270882e-02 113.5019 804.4482)" class="st5" width="6.4" height="207.8"/>
		
			<rect id="XMLID_628_" x="460.3" y="287.3" transform="matrix(1.267802e-02 -0.9999 0.9999 1.267802e-02 66.537 849.6829)" class="st5" width="6.4" height="207.8"/>
		<g id="XMLID_654_">
			<path id="XMLID_655_" class="st6" d="M396,105.8l0.2-12.4c0.3-21.5,18-38.8,39.5-38.5s38.8,18,38.5,39.5l-1.4,112.2
				c-0.2,14.2-11.9,25.6-26.1,25.4c-14.2-0.2-25.6-11.9-25.4-26.1l0.9-73.1l13.6,0.2l-0.9,73.1c-0.1,6.7,5.3,12.3,12,12.3
				c6.7,0.1,12.3-5.3,12.3-12l1.4-112.2c0.2-14-11.1-25.5-25.1-25.7c-14-0.2-25.5,11.1-25.7,25.1l-0.2,12.4L396,105.8z"/>
		</g>
		<polygon id="XMLID_407_" class="st7" points="337.9,119 317.7,445.7 592,434.5 334,431.2 		"/>
		<g id="XMLID_149_">
			
				<rect id="XMLID_204_" x="1645.8" y="790.7" transform="matrix(0.9914 -0.1308 0.1308 0.9914 -108.6053 240.3258)" class="st8" width="258.1" height="312.2"/>
			<g id="XMLID_1261_">
				
					<rect id="XMLID_203_" x="1655.5" y="827" transform="matrix(0.9914 -0.1308 0.1308 0.9914 -93.4914 237.3311)" class="st9" width="207.8" height="6.4"/>
				
					<rect id="XMLID_202_" x="1661.6" y="873" transform="matrix(0.9914 -0.1308 0.1308 0.9914 -99.4359 238.4551)" class="st9" width="207.8" height="6.4"/>
				
					<rect id="XMLID_201_" x="1667.7" y="919" transform="matrix(0.9914 -0.1308 0.1308 0.9914 -105.4254 239.7106)" class="st9" width="207.8" height="6.4"/>
				
					<rect id="XMLID_200_" x="1673.8" y="965" transform="matrix(0.9914 -0.1308 0.1308 0.9914 -111.3924 240.9004)" class="st9" width="207.8" height="6.4"/>
				
					<rect id="XMLID_199_" x="1679.8" y="1011" transform="matrix(0.9914 -0.1308 0.1308 0.9914 -117.3322 242.0231)" class="st9" width="207.8" height="6.4"/>
				
					<rect id="XMLID_196_" x="1685.9" y="1057" transform="matrix(0.9914 -0.1308 0.1308 0.9914 -123.3264 243.2799)" class="st9" width="207.8" height="6.4"/>
			</g>
		</g>
		<g id="XMLID_1091_" class="st10">
			<path id="XMLID_1104_" class="st11" d="M1559.4,555.6l-22.9,96.6l241,57.2l22.9-96.6L1559.4,555.6z M1768.9,695.6l-218.6-51.9
				l17.6-74.2l218.6,51.9L1768.9,695.6z"/>
			<path id="XMLID_1101_" class="st11" d="M1582.7,632.9c3,0.7,5.5,0.4,7.5-0.9c2-1.3,3.4-3.5,4.1-6.6l4.9-20.1
				c0.8-3.1,0.6-5.7-0.6-7.8c-1.2-2.1-3.3-3.5-6.3-4.2c-3-0.7-5.5-0.4-7.5,0.9c-2,1.3-3.4,3.5-4.1,6.6l-4.9,20.1
				c-0.8,3.1-0.6,5.7,0.6,7.8C1577.7,630.8,1579.7,632.2,1582.7,632.9z M1586.9,601.8c0.3-1.4,0.9-2.3,1.6-2.8
				c0.7-0.4,1.5-0.5,2.5-0.3c1,0.2,1.7,0.7,2.1,1.4c0.4,0.7,0.5,1.8,0.1,3.2l-5.1,20.9c-0.3,1.4-0.9,2.3-1.6,2.8
				c-0.7,0.4-1.5,0.5-2.5,0.3c-1-0.2-1.7-0.7-2.1-1.4c-0.4-0.7-0.5-1.8-0.1-3.2L1586.9,601.8z"/>
			<polygon id="XMLID_1100_" class="st11" points="1611.5,622.5 1619.4,624.4 1620.7,618.8 1612.9,616.9 1615.7,605.2 1625.7,607.7 
				1627.1,602.1 1610.9,598.2 1601.5,637 1607.6,638.5 			"/>
			<polygon id="XMLID_1099_" class="st11" points="1636.1,628.4 1644,630.3 1645.3,624.8 1637.4,622.9 1640.3,611.2 1650.3,613.6 
				1651.6,608.1 1635.5,604.2 1626.1,642.9 1632.2,644.4 			"/>
			
				<rect id="XMLID_1098_" x="1638.5" y="627.1" transform="matrix(0.2358 -0.9718 0.9718 0.2358 654.9563 2093.377)" class="st11" width="39.9" height="6.3"/>
			<path id="XMLID_1097_" class="st11" d="M1675.2,655.3c3,0.7,5.5,0.4,7.4-0.9c1.9-1.3,3.3-3.5,4-6.7l1.2-5.1l-5.8-1.4l-1.3,5.5
				c-0.3,1.4-0.9,2.3-1.6,2.7c-0.7,0.4-1.5,0.5-2.5,0.3c-1-0.2-1.7-0.7-2.1-1.4c-0.4-0.7-0.5-1.7-0.1-3.1l5.1-20.9
				c0.3-1.4,0.9-2.3,1.6-2.8c0.7-0.4,1.5-0.5,2.5-0.3c1,0.2,1.7,0.7,2.1,1.4c0.4,0.7,0.5,1.8,0.1,3.2l-1,4.2l5.8,1.4l0.9-3.8
				c0.8-3.1,0.6-5.7-0.5-7.8c-1.1-2-3.2-3.4-6.2-4.2c-3-0.7-5.5-0.4-7.4,0.9c-1.9,1.3-3.3,3.5-4,6.7l-4.9,20.1
				c-0.8,3.1-0.6,5.7,0.5,7.8C1670.2,653.2,1672.2,654.6,1675.2,655.3z"/>
			
				<rect id="XMLID_1096_" x="1681.5" y="637.6" transform="matrix(0.2357 -0.9718 0.9718 0.2357 677.7101 2143.1157)" class="st11" width="39.9" height="6.3"/>
			<path id="XMLID_1093_" class="st11" d="M1716.4,657.4l7.5,1.8l-0.7,7.3l6.1,1.5l3.2-40.3l-8.9-2.2l-15.6,37.2l5.6,1.4
				L1716.4,657.4z M1726.2,633.5l-1.8,20.3l-5.9-1.4L1726.2,633.5z"/>
			<polygon id="XMLID_1092_" class="st11" points="1755.2,668.4 1745.2,666 1753.3,632.8 1747.2,631.3 1737.8,670 1753.9,673.9 			
				"/>
		</g>
		<polygon id="XMLID_1262_" class="st7" points="1667.3,1118.4 1923.2,1084.6 1917.8,1044.2 1945.5,1113.1 		"/>
	</g>
	<g>
		
			<linearGradient id="SVGID_1_" gradientUnits="userSpaceOnUse" x1="1166.7151" y1="772.4959" x2="1166.7151" y2="628.653" gradientTransform="matrix(1 0 0 1 450.026 0)">
			<stop  offset="0" style="stop-color:#212121"/>
			<stop  offset="7.418240e-02" style="stop-color:#141414"/>
			<stop  offset="0.198" style="stop-color:#050505"/>
			<stop  offset="0.2985" style="stop-color:#000000"/>
			<stop  offset="0.7402" style="stop-color:#000000"/>
			<stop  offset="0.9876" style="stop-color:#1F1F1F"/>
			<stop  offset="1" style="stop-color:#212121"/>
		</linearGradient>
		<path class="st12" d="M1616.7,772.5L1616.7,772.5c-9.1,0-16.6-9.7-16.6-21.7V650.3c0-12,7.4-21.7,16.6-21.7l0,0
			c9.1,0,16.6,9.7,16.6,21.7v100.5C1633.3,762.8,1625.9,772.5,1616.7,772.5z"/>
		
			<linearGradient id="SVGID_00000165234517074379694960000003119858222094579080_" gradientUnits="userSpaceOnUse" x1="1166.7151" y1="946.7571" x2="1166.7151" y2="802.9142" gradientTransform="matrix(1 0 0 1 450.026 0)">
			<stop  offset="0" style="stop-color:#212121"/>
			<stop  offset="7.140551e-02" style="stop-color:#141414"/>
			<stop  offset="0.1906" style="stop-color:#050505"/>
			<stop  offset="0.2873" style="stop-color:#000000"/>
			<stop  offset="0.7402" style="stop-color:#000000"/>
			<stop  offset="0.9876" style="stop-color:#1F1F1F"/>
			<stop  offset="1" style="stop-color:#212121"/>
		</linearGradient>
		<path style="fill:url(#SVGID_00000165234517074379694960000003119858222094579080_);" d="M1616.7,946.8L1616.7,946.8
			c-9.1,0-16.6-9.7-16.6-21.7V824.6c0-12,7.4-21.7,16.6-21.7l0,0c9.1,0,16.6,9.7,16.6,21.7v100.5
			C1633.3,937.1,1625.9,946.8,1616.7,946.8z"/>
		
			<linearGradient id="SVGID_00000118367286942686387220000002991621152771866542_" gradientUnits="userSpaceOnUse" x1="41.4028" y1="772.4959" x2="41.4028" y2="628.653" gradientTransform="matrix(1 0 0 1 450.026 0)">
			<stop  offset="0" style="stop-color:#212121"/>
			<stop  offset="7.418240e-02" style="stop-color:#141414"/>
			<stop  offset="0.198" style="stop-color:#050505"/>
			<stop  offset="0.2985" style="stop-color:#000000"/>
			<stop  offset="0.7402" style="stop-color:#000000"/>
			<stop  offset="0.9876" style="stop-color:#1F1F1F"/>
			<stop  offset="1" style="stop-color:#212121"/>
		</linearGradient>
		<path style="fill:url(#SVGID_00000118367286942686387220000002991621152771866542_);" d="M491.4,772.5L491.4,772.5
			c-9.1,0-16.6-9.7-16.6-21.7V650.3c0-12,7.4-21.7,16.6-21.7l0,0c9.1,0,16.6,9.7,16.6,21.7v100.5C508,762.8,500.6,772.5,491.4,772.5
			z"/>
	</g>
	<path class="st15" d="M1618.9,2043.5c0,41.4-35.8,74.9-80,74.9H568.6c-44.2,0-80-33.6-80-74.9V473c0-41.4,35.8-74.9,80-74.9h970.2
		c44.2,0,80,33.5,80,74.9V2043.5z"/>
	<rect x="558.6" y="522.9" class="st16" width="990.2" height="1483.1"/>
	<path class="st17" d="M1618.9,2043.5c0,41.4-35.8,74.9-80,74.9H568.6c-44.2,0-80-33.6-80-74.9V473c0-41.4,35.8-74.9,80-74.9h970.2
		c44.2,0,80,33.5,80,74.9V2043.5z"/>
	<g>
		<path class="st18" d="M1114.8,2040.7H1025c-11.6,0-21,9.5-21,21v0c0,11.6,9.5,21,21,21h89.8c11.6,0,21-9.5,21-21v0
			C1135.9,2050.2,1126.4,2040.7,1114.8,2040.7z M1116.3,2075.4h-92.8c-6.6,0-12-6.1-12-13.7c0-7.5,5.4-13.7,12-13.7h92.8
			c6.6,0,12,6.1,12,13.7C1128.3,2069.3,1122.9,2075.4,1116.3,2075.4z"/>
		<g>
			<path class="st18" d="M854.3,2046.6h-69.8c-1.9,0-3.4-0.8-3.4-1.9l0,0c0-1,1.5-1.9,3.4-1.9h69.8c1.9,0,3.4,0.8,3.4,1.9l0,0
				C857.6,2045.8,856.1,2046.6,854.3,2046.6z"/>
			<path class="st18" d="M855.1,2081.3h-69.8c-1.9,0-3.4-0.8-3.4-1.9l0,0c0-1,1.5-1.9,3.4-1.9h69.8c1.9,0,3.4,0.8,3.4,1.9l0,0
				C858.4,2080.5,856.9,2081.3,855.1,2081.3z"/>
			<path class="st18" d="M855.1,2064h-69.8c-1.9,0-3.4-0.8-3.4-1.9l0,0c0-1,1.5-1.9,3.4-1.9h69.8c1.9,0,3.4,0.8,3.4,1.9l0,0
				C858.4,2063.1,856.9,2064,855.1,2064z"/>
		</g>
		<path class="st18" d="M1326.4,2060.3v-21.5c0-2.1-2.3-3.5-4.2-2.4l-18.6,10.7l-18.6,10.7c-1.9,1.1-1.9,3.7,0,4.8l18.6,10.7
			l18.6,10.7c1.9,1.1,4.2-0.3,4.2-2.4V2060.3z M1305.7,2070.1l-12.7-7.5c-1.8-1.1-1.8-3.7,0-4.8l12.7-7.5l12.7-7.4
			c1.9-1.1,4.2,0.3,4.2,2.4v14.9v14.9c0,2.1-2.3,3.5-4.2,2.4L1305.7,2070.1z"/>
	</g>
	<g>
		<g>
			
				<linearGradient id="SVGID_00000073679211918756482790000015982754514438649505_" gradientUnits="userSpaceOnUse" x1="1089.8424" y1="458.4468" x2="1017.6509" y2="458.4468">
				<stop  offset="1.075270e-02" style="stop-color:#6D6D6D"/>
				<stop  offset="1" style="stop-color:#000000"/>
			</linearGradient>
			<path style="fill:url(#SVGID_00000073679211918756482790000015982754514438649505_);" d="M1053.7,494.5
				c-19.9,0-36.1-16.2-36.1-36.1c0-19.9,16.2-36.1,36.1-36.1c19.9,0,36.1,16.2,36.1,36.1C1089.8,478.4,1073.6,494.5,1053.7,494.5z
				 M1053.7,424.2c-18.9,0-34.3,15.4-34.3,34.3c0,18.9,15.4,34.3,34.3,34.3c18.9,0,34.3-15.4,34.3-34.3
				C1088,439.5,1072.7,424.2,1053.7,424.2z"/>
		</g>
		
			<linearGradient id="SVGID_00000070120285318219952300000010711040327495164840_" gradientUnits="userSpaceOnUse" x1="1028.8596" y1="483.3335" x2="1078.6324" y2="433.5606">
			<stop  offset="0" style="stop-color:#000000"/>
			<stop  offset="1" style="stop-color:#5A5A5A"/>
		</linearGradient>
		<path style="fill:url(#SVGID_00000070120285318219952300000010711040327495164840_);" d="M1088.9,458.4
			c0,19.4-15.8,35.2-35.2,35.2c-19.4,0-35.2-15.8-35.2-35.2c0-19.4,15.8-35.2,35.2-35.2C1073.2,423.3,1088.9,439,1088.9,458.4z"/>
		<path class="st21" d="M1080.7,458.4c0,14.9-12.1,27-27,27c-14.9,0-27-12.1-27-27c0-14.9,12.1-27,27-27
			C1068.6,431.5,1080.7,443.6,1080.7,458.4z"/>
		<path class="st22" d="M1068.9,458.4c0,8.4-6.8,15.1-15.1,15.1c-8.4,0-15.1-6.8-15.1-15.1c0-8.4,6.8-15.1,15.1-15.1
			C1062.1,443.3,1068.9,450.1,1068.9,458.4z"/>
		<path class="st23" d="M1061.7,460.2c0,2.6-2.1,4.6-4.7,4.6c-2.6,0-4.6-2.1-4.6-4.6c0-2.6,2.1-4.6,4.6-4.6
			C1059.6,455.5,1061.7,457.6,1061.7,460.2z"/>
		<path class="st23" d="M1053,451.6c0,1.3-1,2.3-2.3,2.3c-1.3,0-2.3-1-2.3-2.3c0-1.3,1-2.3,2.3-2.3
			C1052,449.3,1053,450.3,1053,451.6z"/>
		<path class="st23" d="M1049.3,460.2c0,0.9-0.8,1.7-1.7,1.7c-0.9,0-1.7-0.8-1.7-1.7c0-1,0.8-1.7,1.7-1.7
			C1048.5,458.4,1049.3,459.2,1049.3,460.2z"/>
		<defs>
			<filter id="Adobe_OpacityMaskFilter" filterUnits="userSpaceOnUse" x="1034.5" y="431.5" width="46.2" height="46.2">
				<feFlood  style="flood-color:white;flood-opacity:1" result="back"/>
				<feBlend  in="SourceGraphic" in2="back" mode="normal"/>
			</filter>
		</defs>
		
			<mask maskUnits="userSpaceOnUse" x="1034.5" y="431.5" width="46.2" height="46.2" id="SVGID_00000109023302138479989030000016081906925971537813_">
			<g class="st24">
				<defs>
					
						<filter id="Adobe_OpacityMaskFilter_00000017516188885501743530000008177273798112905659_" filterUnits="userSpaceOnUse" x="1034.5" y="431.5" width="46.2" height="46.2">
						<feFlood  style="flood-color:white;flood-opacity:1" result="back"/>
						<feBlend  in="SourceGraphic" in2="back" mode="normal"/>
					</filter>
				</defs>
				
					<mask maskUnits="userSpaceOnUse" x="1034.5" y="431.5" width="46.2" height="46.2" id="SVGID_00000109023302138479989030000016081906925971537813_">
					<g style="filter:url(#Adobe_OpacityMaskFilter_00000017516188885501743530000008177273798112905659_);">
					</g>
				</mask>
				
					<linearGradient id="SVGID_00000183244196959707723840000006643616939572130450_" gradientUnits="userSpaceOnUse" x1="1057.6145" y1="476.692" x2="1057.6145" y2="432.3116">
					<stop  offset="0" style="stop-color:#000000"/>
					<stop  offset="1" style="stop-color:#FFFFFF"/>
				</linearGradient>
				
					<path style="mask:url(#SVGID_00000109023302138479989030000016081906925971537813_);fill:url(#SVGID_00000183244196959707723840000006643616939572130450_);" d="
					M1053.7,431.5c-7.5,0-14.3,3.1-19.2,8.1c4.4,0.9,14.4,3.6,23.6,12.3c10.5,9.9,13.6,21.5,14.5,25.8c1.9-1.9,5.3-5.8,7-11.7
					c0.7-2.4,1.1-4.9,1.1-7.5C1080.7,443.6,1068.6,431.5,1053.7,431.5z"/>
			</g>
		</mask>
		
			<linearGradient id="SVGID_00000029754119429854766700000001727650026064402345_" gradientUnits="userSpaceOnUse" x1="1057.6145" y1="476.692" x2="1057.6145" y2="432.3116">
			<stop  offset="0" style="stop-color:#FFFFFF"/>
			<stop  offset="1" style="stop-color:#FFFFFF"/>
		</linearGradient>
		<path style="opacity:0.1;fill:url(#SVGID_00000029754119429854766700000001727650026064402345_);" d="M1053.7,431.5
			c-7.5,0-14.3,3.1-19.2,8.1c4.4,0.9,14.4,3.6,23.6,12.3c10.5,9.9,13.6,21.5,14.5,25.8c1.9-1.9,5.3-5.8,7-11.7
			c0.7-2.4,1.1-4.9,1.1-7.5C1080.7,443.6,1068.6,431.5,1053.7,431.5z"/>
		<g>
			
				<linearGradient id="SVGID_00000137831246073506715690000018051096196498075283_" gradientUnits="userSpaceOnUse" x1="1026.3397" y1="458.4453" x2="1081.1542" y2="458.4453">
				<stop  offset="1.075270e-02" style="stop-color:#6D6D6D"/>
				<stop  offset="1" style="stop-color:#000000"/>
			</linearGradient>
			<path style="fill:url(#SVGID_00000137831246073506715690000018051096196498075283_);" d="M1053.7,485.8
				c-15.1,0-27.4-12.3-27.4-27.4c0-15.1,12.3-27.4,27.4-27.4c15.1,0,27.4,12.3,27.4,27.4C1081.2,473.6,1068.9,485.8,1053.7,485.8z
				 M1053.7,431.9c-14.6,0-26.5,11.9-26.5,26.5c0,14.6,11.9,26.5,26.5,26.5c14.6,0,26.5-11.9,26.5-26.5
				C1080.3,443.8,1068.4,431.9,1053.7,431.9z"/>
		</g>
	</g>
	<path class="st29" d="M1467.4,917.9H636.8c-6.6,0-12-5.4-12-12v-72.1c0-6.6,5.4-12,12-12h830.5c6.6,0,12,5.4,12,12v72.1
		C1479.4,912.5,1474,917.9,1467.4,917.9z"/>
	<path class="st29" d="M1467.4,1123.7H636.8c-6.6,0-12-5.4-12-12v-72.1c0-6.6,5.4-12,12-12h830.5c6.6,0,12,5.4,12,12v72.1
		C1479.4,1118.3,1474,1123.7,1467.4,1123.7z"/>
	<path class="st29" d="M1467.4,1329.5H636.8c-6.6,0-12-5.4-12-12v-72.1c0-6.6,5.4-12,12-12h830.5c6.6,0,12,5.4,12,12v72.1
		C1479.4,1324.1,1474,1329.5,1467.4,1329.5z"/>
	<path class="st30" d="M1239.5,1906.4H867.3c-6.6,0-12-5.4-12-12v-72.1c0-6.6,5.4-12,12-12h372.1c6.6,0,12,5.4,12,12v72.1
		C1251.5,1901,1246.1,1906.4,1239.5,1906.4z"/>
	<path class="st29" d="M1467.4,1720.4H636.8c-6.6,0-12-5.4-12-12v-251.5c0-6.6,5.4-12,12-12h830.5c6.6,0,12,5.4,12,12v251.5
		C1479.4,1715,1474,1720.4,1467.4,1720.4z"/>
	<rect x="558.6" y="522.9" class="st31" width="990.2" height="156.5"/>
	
		<image style="overflow:visible;" width="990" height="183" xlink:href="../logos/vital-certificates-white-trans.png"  transform="matrix(0.4277 0 0 0.4277 596.9523 555.3184)">
	</image>
	<text transform="matrix(1 0 0 1 976.1806 1873.2214)" class="st16 st32 st33 st34">SUBMIT</text>
	<defs>
		
			<filter id="Adobe_OpacityMaskFilter_00000113324028120949301970000007091289957247336341_" filterUnits="userSpaceOnUse" x="522" y="461.1" width="1046.7" height="1622.8">
			<feFlood  style="flood-color:white;flood-opacity:1" result="back"/>
			<feBlend  in="SourceGraphic" in2="back" mode="normal"/>
		</filter>
	</defs>
	
		<mask maskUnits="userSpaceOnUse" x="522" y="461.1" width="1046.7" height="1622.8" id="SVGID_00000034773639102640101160000005926064825444108988_">
		<g style="filter:url(#Adobe_OpacityMaskFilter_00000113324028120949301970000007091289957247336341_);">
			<defs>
				
					<filter id="Adobe_OpacityMaskFilter_00000169526699433726536940000002383788802728201396_" filterUnits="userSpaceOnUse" x="522" y="461.1" width="1046.7" height="1622.8">
					<feFlood  style="flood-color:white;flood-opacity:1" result="back"/>
					<feBlend  in="SourceGraphic" in2="back" mode="normal"/>
				</filter>
			</defs>
			
				<mask maskUnits="userSpaceOnUse" x="522" y="461.1" width="1046.7" height="1622.8" id="SVGID_00000034773639102640101160000005926064825444108988_">
				<g style="filter:url(#Adobe_OpacityMaskFilter_00000169526699433726536940000002383788802728201396_);">
				</g>
			</mask>
			
				<linearGradient id="SVGID_00000095317485777697550130000016796901989319606671_" gradientUnits="userSpaceOnUse" x1="1526.5712" y1="502.4825" x2="2209.406" y2="2225.4922" gradientTransform="matrix(-1 0 0 1 3170.4016 0)">
				<stop  offset="0" style="stop-color:#FFFFFF"/>
				<stop  offset="0.1638" style="stop-color:#FCFCFC"/>
				<stop  offset="0.2944" style="stop-color:#F2F2F2"/>
				<stop  offset="0.4136" style="stop-color:#E1E1E1"/>
				<stop  offset="0.526" style="stop-color:#C9C9C9"/>
				<stop  offset="0.6338" style="stop-color:#ABABAB"/>
				<stop  offset="0.7379" style="stop-color:#858585"/>
				<stop  offset="0.8391" style="stop-color:#585858"/>
				<stop  offset="0.9356" style="stop-color:#262626"/>
				<stop  offset="1" style="stop-color:#000000"/>
			</linearGradient>
			
				<path style="mask:url(#SVGID_00000034773639102640101160000005926064825444108988_);fill:url(#SVGID_00000095317485777697550130000016796901989319606671_);" d="
				M522,2035c24.2,29.5,66.2,48.9,113.9,48.9h788.2c79.9,0,144.6-49.3,144.6-110.2v-1446c0-25.2-11-48.4-29.3-66.7
				c10.3,194.6-9.1,597.3-329.3,1009.8C988.2,1756.9,708.6,1935.6,522,2035z"/>
		</g>
	</mask>
	
		<linearGradient id="SVGID_00000109727387436234953230000016462807596924748715_" gradientUnits="userSpaceOnUse" x1="1526.5712" y1="502.4825" x2="2209.406" y2="2225.4922" gradientTransform="matrix(-1 0 0 1 3170.4016 0)">
		<stop  offset="0" style="stop-color:#000000"/>
		<stop  offset="0.1638" style="stop-color:#030303"/>
		<stop  offset="0.2944" style="stop-color:#0D0D0D"/>
		<stop  offset="0.4136" style="stop-color:#1E1E1E"/>
		<stop  offset="0.526" style="stop-color:#363636"/>
		<stop  offset="0.6338" style="stop-color:#545454"/>
		<stop  offset="0.7379" style="stop-color:#7A7A7A"/>
		<stop  offset="0.8391" style="stop-color:#A7A7A7"/>
		<stop  offset="0.9356" style="stop-color:#D9D9D9"/>
		<stop  offset="1" style="stop-color:#FFFFFF"/>
	</linearGradient>
	<path style="opacity:0.2;fill:url(#SVGID_00000109727387436234953230000016462807596924748715_);" d="M522,2035
		c24.2,29.5,66.2,48.9,113.9,48.9h788.2c79.9,0,144.6-49.3,144.6-110.2v-1446c0-25.2-11-48.4-29.3-66.7
		c10.3,194.6-9.1,597.3-329.3,1009.8C988.2,1756.9,708.6,1935.6,522,2035z"/>
</g>
</svg>
