<?xml version="1.0" encoding="utf-8"?>
<!-- Generator: Adobe Illustrator 26.0.0, SVG Export Plug-In . SVG Version: 6.00 Build 0)  -->
<svg version="1.1" id="Capa_1" xmlns="http://www.w3.org/2000/svg" xmlns:xlink="http://www.w3.org/1999/xlink" x="0px" y="0px"
	 viewBox="0 0 2122 2122" style="enable-background:new 0 0 2122 2122;" xml:space="preserve">
<style type="text/css">
	.st0{fill:#8ECCF1;}
	.st1{fill:#E2F2F8;}
	.st2{fill:#A2D2F3;}
	.st3{fill:#9DD0F2;}
	.st4{fill:#ADD6F4;}
	.st5{fill:#E3C3B7;}
	.st6{fill:#1F345B;}
	.st7{fill:#375D9E;}
	.st8{fill:#36528E;}
	.st9{fill:#2D4C81;}
	.st10{fill:#335691;}
	.st11{fill:#C49F31;}
	.st12{fill:#A37F22;}
	.st13{fill:#B92858;}
	.st14{fill:#921B49;}
	.st15{fill:#009640;}
	.st16{fill:#FFFFFF;}
</style>
<g>
	<path class="st0" d="M594.2,954.2v845.2c0,98.2-79.6,177.8-177.7,177.8c-98.2,0-177.7-79.6-177.7-177.8V954.2H594.2z"/>
	<g>
		<path class="st1" d="M1649.6,1977.2H520.2H399.7c144.4-25,120.4-223.1,120.4-223.1V251.3h1282.1v1480.5
			C1802.3,1731.9,1834.7,1977.2,1649.6,1977.2z"/>
		<path class="st2" d="M399.7,1977.2c144.4-25,120.4-223.1,120.4-223.1V251.3h-38.7v1502.8C481.5,1754.1,488,1944,399.7,1977.2z"/>
		<rect x="672.8" y="407.1" class="st3" width="976.9" height="50.6"/>
		<rect x="672.8" y="654.3" class="st4" width="721.2" height="33.3"/>
		<rect x="800.6" y="487.6" class="st4" width="721.2" height="33.3"/>
		<rect x="1131" y="754.3" class="st4" width="262.9" height="33.3"/>
		<rect x="672.8" y="854.3" class="st4" width="721.2" height="33.3"/>
		<rect x="672.8" y="954.2" class="st4" width="976.9" height="33.3"/>
		<rect x="672.8" y="1054.2" class="st4" width="976.9" height="33.3"/>
		<rect x="1130.7" y="1154.2" class="st4" width="519" height="33.3"/>
		<rect x="672.8" y="1354.2" class="st4" width="721.2" height="33.3"/>
		<rect x="672.8" y="1454.2" class="st4" width="721.2" height="33.3"/>
		<rect x="672.8" y="1554.1" class="st4" width="721.2" height="33.3"/>
		<rect x="672.8" y="1654.1" class="st4" width="976.9" height="33.3"/>
		<rect x="1311.3" y="1754.1" class="st4" width="338.3" height="33.3"/>
		<rect x="1434.8" y="654.3" class="st4" width="214.9" height="233.3"/>
		<rect x="1434.8" y="1350.2" class="st4" width="214.9" height="237.2"/>
	</g>
</g>
<polygon class="st5" points="1740.5,1870.6 1618.6,1846.3 1643.9,2037.6 "/>
<polygon class="st6" points="1674.4,1984.9 1643.9,2037.6 1635.9,1977.2 "/>
<polygon class="st7" points="1699.9,1862.5 1740.5,1870.6 1966.7,734.7 1926.1,726.7 "/>
<rect x="1213.6" y="1269.8" transform="matrix(0.1954 -0.9807 0.9807 0.1954 176.786 2796.521)" class="st8" width="1158.1" height="41.4"/>
<rect x="1173" y="1261.7" transform="matrix(0.1954 -0.9807 0.9807 0.1954 152.0035 2750.1331)" class="st9" width="1158.1" height="41.4"/>
<path class="st7" d="M1706,1891.3l-6.1-28.9l40.6,8.1l-16,24.4C1724.5,1895,1713.3,1905.8,1706,1891.3z"/>
<path class="st10" d="M1665.4,1883.2l-6.1-28.9l40.6,8.1l-16,24.4C1683.9,1886.9,1672.7,1897.7,1665.4,1883.2z"/>
<path class="st9" d="M1624.7,1875.2l-6.1-28.9l40.6,8.1l-16,24.5C1643.2,1878.8,1632,1889.6,1624.7,1875.2z"/>
<rect x="1889.2" y="640.3" transform="matrix(0.1953 -0.9807 0.9807 0.1953 847.923 2438.2686)" class="st11" width="41.1" height="124.3"/>
<rect x="1907.2" y="612.2" transform="matrix(0.1953 -0.9807 0.9807 0.1953 880.058 2421.1245)" class="st12" width="16.3" height="124.3"/>
<path class="st13" d="M1855.8,653.7l8.3-41.7c5.7-28.6,33.5-47.1,62.1-41.4l18.7,3.7c28.6,5.7,47.1,33.5,41.4,62.1L1978,678
	L1855.8,653.7z"/>
<path class="st14" d="M1884.9,643.6c11.9,3.1,24,5.7,36.2,7.3c5.9,0.8,13.1,2.3,18.9,0.2c13.7-4.9,15.1-24.6,14.7-37
	c-0.5-17.3-7.9-28.1-16.3-41.2l6.4,1.3c28.6,5.7,47.1,33.5,41.4,62.1L1978,678l-122.2-24.3l3.2-16.3
	C1867.7,639.8,1876.6,641.5,1884.9,643.6z"/>
<g>
	
		<ellipse transform="matrix(0.7071 -0.7071 0.7071 0.7071 -70.4728 515.4962)" class="st15" cx="587" cy="342.8" rx="280.8" ry="280.8"/>
	<path class="st15" d="M587,623.8c-37.9,0-74.7-7.4-109.4-22.1c-33.5-14.2-63.5-34.4-89.3-60.2c-25.8-25.8-46.1-55.8-60.2-89.3
		c-14.7-34.6-22.1-71.4-22.1-109.4c0-37.9,7.4-74.7,22.1-109.4c14.2-33.5,34.4-63.5,60.2-89.3c25.8-25.8,55.8-46.1,89.3-60.2
		c34.6-14.7,71.4-22.1,109.4-22.1c37.9,0,74.7,7.4,109.4,22.1c33.5,14.2,63.5,34.4,89.3,60.2c25.8,25.8,46.1,55.8,60.2,89.3
		c14.6,34.6,22.1,71.4,22.1,109.4c0,37.9-7.4,74.7-22.1,109.4c-14.2,33.5-34.4,63.5-60.2,89.3c-25.8,25.8-55.8,46.1-89.3,60.2
		C661.7,616.3,625,623.8,587,623.8z M587,62.3c-154.7,0-280.6,125.9-280.6,280.6c0,154.7,125.9,280.6,280.6,280.6
		c154.7,0,280.6-125.9,280.6-280.6C867.6,188.1,741.7,62.3,587,62.3z"/>
</g>
<g>
	<polygon class="st16" points="808.6,235.2 522.8,521 522.4,520.6 522,521 373.4,372.5 425.8,320.1 527.9,422.3 761.8,188.3 	"/>
</g>
</svg>
